<svg xmlns="http://www.w3.org/2000/svg" viewBox="0 0 170 290" width="170" height="290">
<rect x="0" fill="#0094D9" width="170" height="290"/>
<polygon fill="#0088CF" points="0,0 0,4.9 4.9,0 "/>
<polygon fill="#0088CF" points="7.2,0 0,7.2 0,19.1 19.1,0 "/>
<polygon fill="#0088CF" points="21.5,0 0,21.5 0,33.4 33.4,0 "/>
<polygon fill="#0088CF" points="35.7,0 0,35.7 0,47.7 47.7,0 "/>
<polygon fill="#0088CF" points="50,0 0,50 0,61.9 61.9,0 "/>
<polygon fill="#0088CF" points="64.3,0 0,64.3 0,76.2 76.2,0 "/>
<polygon fill="#0088CF" points="78.5,0 0,78.5 0,90.5 90.5,0 "/>
<polygon fill="#0088CF" points="92.8,0 0,92.8 0,104.7 104.7,0 "/>
<polygon fill="#0088CF" points="107.1,0 0,107.1 0,119 119,0 "/>
<polygon fill="#0088CF" points="121.3,0 0,121.3 0,133.3 133.3,0 "/>
<polygon fill="#0088CF" points="135.6,0 0,135.6 0,147.6 147.5,0 "/>
<polygon fill="#0088CF" points="149.9,0 0,149.9 0,161.8 161.8,0 "/>
<polygon fill="#0088CF" points="170,0 164.1,0 0,164.2 0,176.1 170,6.1 "/>
<polygon fill="#0088CF" points="170,8.4 0,178.4 0,190.4 170,20.4 "/>
<polygon fill="#0088CF" points="170,22.7 0,192.7 0,204.6 170,34.6 "/>
<polygon fill="#0088CF" points="170,37 0,207 0,218.9 170,48.9 "/>
<polygon fill="#0088CF" points="170,51.2 0,221.2 0,233.2 170,63.2 "/>
<polygon fill="#0088CF" points="170,65.5 0,235.5 0,247.4 170,77.4 "/>
<polygon fill="#0088CF" points="170,79.8 0,249.8 0,261.7 170,91.7 "/>
<polygon fill="#0088CF" points="13,263 170,106 170,94 7,257 "/>
<polygon fill="#0088CF" points="27.3,263 170,120.2 170,108.3 21.3,257 "/>
<polygon fill="#0088CF" points="41.5,263 170,134.5 170,122.6 35.6,257 "/>
<polygon fill="#0088CF" points="55.8,263 170,148.8 170,136.8 49.8,257 "/>
<polygon fill="#0088CF" points="70.1,263 170,163.1 170,151.1 64.1,257 "/>
<polygon fill="#0088CF" points="84.3,263 170,177.3 170,165.4 78.4,257 "/>
<polygon fill="#0088CF" points="98.6,263 170,191.6 170,179.7 92.6,257 "/>
<polygon fill="#0088CF" points="112.9,263 170,205.9 170,193.9 106.9,257 "/>
<polygon fill="#0088CF" points="127.1,263 170,220.1 170,208.2 121.2,257 "/>
<polygon fill="#0088CF" points="141.4,263 170,234.4 170,222.5 135.4,257 "/>
<polygon fill="#0088CF" points="155.7,263 170,248.7 170,236.7 149.7,257 "/>
<polygon fill="#0088CF" points="169.9,263 170,262.9 170,251 164,257 "/>
<linearGradient id="SVGID_1_" gradientUnits="userSpaceOnUse" x1="91.8633" y1="267.9876" x2="83.1245" y2="288.4858">
	<stop offset="0" style="stop-color:#E6E7E8"/>
	<stop offset="0.25" style="stop-color:#C5C7C9"/>
	<stop offset="1" style="stop-color:#E6E7E8"/>
</linearGradient>
<rect x="12.8" y="277" fill="url(#SVGID_1_)" width="145" height="13"/>
<radialGradient id="SVGID_2_" cx="136.0088" cy="16.8857" r="157.5501" gradientTransform="matrix(1 0 0 1 -0.3428 -0.2212)" gradientUnits="userSpaceOnUse">
	<stop offset="0" style="stop-color:#00BADE"/>
	<stop offset="0.2205" style="stop-color:#00B2DD"/>
	<stop offset="0.5654" style="stop-color:#009CDA"/>
	<stop offset="0.6627" style="stop-color:#0094D9"/>
	<stop offset="1" style="stop-color:#00BCF1"/>
</radialGradient>
<rect x="13" fill="url(#SVGID_2_)" width="144" height="144"/>
<rect x="45" y="82" fill="#FFFFFF" width="16" height="6"/>
<rect x="45" y="90" fill="#FFFFFF" width="16" height="6"/>
<rect x="45" y="106" fill="#FFFFFF" width="30" height="6"/>
<rect x="45" y="98" fill="#FFFFFF" width="30" height="6"/>
<polygon fill="#FFFFFF" points="125,80 93,80 93,112 77,112 77,80 45,80 45,64 77,64 77,32 93,32 93,64 125,64 "/>
<path fill="#FFFFFF" d="M23.8,160.5c3.2,0,5.9,2.3,5.9,5.7c0,3.4-2.6,5.6-5.8,5.6H19v-11.3H23.8z M23.9,170.2c2.1,0,3.9-1.5,3.9-3.9 c0-2.5-1.8-4-4-4h-3v7.9H23.9z"/>
<path fill="#FFFFFF" d="M31.7,171.9v-11.3h1.8v11.3H31.7z"/>
<path fill="#FFFFFF" d="M45.2,170.4c-0.6,0.7-2,1.6-3.8,1.6c-3.3,0-5.9-2.5-5.9-5.9c0-3.4,2.6-5.9,5.9-5.9c2.3,0,4.1,1.2,5.1,3 l-1.8,0.5c-0.7-1.1-2-1.7-3.3-1.7c-2.4,0-4,1.7-4,4.1c0,2.5,1.8,4.1,4.1,4.1c2.1,0,3.3-1.2,3.7-2.1v-1h-3.3v-1.5h4.8v6.1h-1.6 C45.2,170.7,45.2,170.5,45.2,170.4L45.2,170.4z"/>
<path fill="#FFFFFF" d="M49.2,171.9v-11.3H51v11.3H49.2z"/>
<path fill="#FFFFFF" d="M61.5,160.5v1.7h-3.7v9.6h-1.8v-9.6h-3.7v-1.7H61.5z"/>
<path fill="#FFFFFF" d="M68.8,169.3h-5.3l-1.1,2.6h-1.9l4.8-11.3H67l4.8,11.3h-1.9L68.8,169.3z M68.1,167.7l-1.5-3.5 c-0.2-0.6-0.5-1.5-0.5-1.5h0c0,0-0.3,0.9-0.5,1.5l-1.5,3.5H68.1z"/>
<path fill="#FFFFFF" d="M80.8,170.2v1.7h-7.6v-11.3H75v9.6H80.8z"/>
<path fill="#FFFFFF" d="M94.9,160.5v2.5h-3.4v8.8h-2.7v-8.8h-3.4v-2.5H94.9z"/>
<path fill="#FFFFFF" d="M102.4,171.9l-2.1-3.7h-1.4v3.7h-2.7v-11.3h4.2c2.9,0,4.6,1.6,4.6,3.9c0,1.5-0.7,2.7-2,3.3l2.5,4.2H102.4z M98.9,165.8h1.9c1,0,1.4-0.7,1.4-1.4c0-0.6-0.4-1.3-1.4-1.3h-1.9V165.8z"/>
<path fill="#FFFFFF" d="M115.4,169.3v2.5H107v-11.3h8.2v2.5h-5.5v1.9h4.3v2.4h-4.3v2H115.4z"/>
<path fill="#FFFFFF" d="M127.7,160.5v11.3h-2.6l-2.3-3.2c-1-1.4-2.6-3.6-2.6-3.6h0c0,0,0,1.7,0,4.2v2.5h-2.7v-11.3h2.6l2.4,3.2 c0.7,1,2.5,3.4,2.5,3.4h0c0,0,0-2,0-4.1v-2.6H127.7z"/>
<path fill="#FFFFFF" d="M135.2,160.5c3.2,0,5.9,2.3,5.9,5.7c0,3.4-2.6,5.6-5.9,5.6h-5v-11.3H135.2z M135.2,169.3c1.6,0,3-1.1,3-3.1 c0-1.9-1.4-3.2-3-3.2h-2.2v6.3H135.2z"/>
<path fill="#FFFFFF" d="M148.3,164.1c-0.3-1-1.1-1.5-2-1.5c-0.8,0-1.3,0.4-1.3,0.9c0,0.8,1.1,1,2.5,1.5c1.7,0.6,3.4,1.6,3.4,3.5 c0,2.1-1.8,3.5-4.4,3.5c-2.4,0-4-1.3-4.8-3.4l2.6-0.7c0.3,0.9,1.1,1.7,2.3,1.7c1,0,1.4-0.5,1.4-1c0-0.9-1.3-1.1-3-1.8 c-1.4-0.5-2.9-1.3-2.9-3.3c0-1.8,1.8-3.4,4.2-3.4c2.2,0,3.9,1.3,4.4,3.1L148.3,164.1z"/>
<line fill="none" stroke="#E6E7E8" stroke-width="1" stroke-miterlimit="10" x1="19" y1="186" x2="151" y2="186"/>
<linearGradient id="SVGID_3_" gradientUnits="userSpaceOnUse" x1="19.8282" y1="219.7999" x2="154.5065" y2="219.7999">
	<stop offset="0" style="stop-color:#E6E7E8"/>
	<stop offset="0.25" style="stop-color:#D0D2D3"/>
	<stop offset="1" style="stop-color:#E6E7E8"/>
</linearGradient>
<path fill="url(#SVGID_3_)" d="M25.1,212.9l-2.1-3.6h-1.4v3.6H19v-11.1h4.1c2.8,0,4.5,1.5,4.5,3.8c0,1.5-0.7,2.6-2,3.2l2.4,4.1H25.1 z M21.7,206.9h1.8c0.9,0,1.3-0.7,1.3-1.3c0-0.6-0.4-1.3-1.3-1.3h-1.8V206.9z M38.2,210.4v2.5H30v-11.1h8v2.5h-5.4v1.8h4.2v2.3h-4.2 v2H38.2z M48,205.2c-0.5-0.6-1.5-1-2.3-1c-1.8,0-3,1.3-3,3.1c0,1.9,1.2,3.1,3,3.1c1.1,0,2.1-0.5,2.5-1.3l2.7,0.7 c-0.9,2-2.9,3.3-5.2,3.3c-3.2,0-5.7-2.4-5.7-5.7c0-3.3,2.6-5.8,5.7-5.8c2.2,0,4,1.2,5,2.9L48,205.2z M57.8,201.6 c3.2,0,5.8,2.4,5.8,5.8c0,3.3-2.6,5.7-5.8,5.7c-3.2,0-5.7-2.4-5.7-5.7C52.1,204,54.6,201.6,57.8,201.6z M57.8,210.5 c1.8,0,3-1.3,3-3.1c0-1.9-1.2-3.1-3-3.1c-1.8,0-3,1.3-3,3.1C54.8,209.2,56,210.5,57.8,210.5z M76.8,201.8v11.1h-2.6v-2.7 c0-2.6,0.1-3.9,0.1-3.9h0c0,0-0.9,1.5-1,1.7l-1.3,2.2h-1.4l-1.3-2.2c-0.1-0.2-1-1.7-1-1.7h0c0,0,0.1,1.3,0.1,3.9v2.7h-2.6v-11.1h2.5 l2.1,3.4c0.8,1.3,0.9,1.6,0.9,1.6h0c0,0,0.1-0.3,1-1.6l2.1-3.4H76.8z M90.7,201.8v11.1h-2.6v-2.7c0-2.6,0.1-3.9,0.1-3.9h0 c0,0-0.9,1.5-1,1.7l-1.3,2.2h-1.4l-1.3-2.2c-0.1-0.2-1-1.7-1-1.7h0c0,0,0.1,1.3,0.1,3.9v2.7h-2.6v-11.1h2.5l2.1,3.4 c0.8,1.3,0.9,1.6,1,1.6h0c0,0,0.1-0.3,0.9-1.6l2.1-3.4H90.7z M101.7,210.4v2.5h-8.1v-11.1h8v2.5h-5.4v1.8h4.2v2.3h-4.2v2H101.7z M114.2,201.8v11.1h-2.5l-2.3-3.1c-1-1.4-2.5-3.5-2.5-3.5h0c0,0,0,1.7,0,4.1v2.4h-2.7v-11.1h2.5l2.4,3.2c0.7,0.9,2.4,3.3,2.4,3.3h0 c0,0,0-2,0-4v-2.5H114.2z M121.9,201.8c3.2,0,5.7,2.3,5.7,5.6c0,3.3-2.6,5.5-5.7,5.5H117v-11.1H121.9z M121.9,210.4c1.6,0,3-1.1,3-3 c0-1.9-1.4-3.1-3-3.1h-2.2v6.1H121.9z M137.9,210.4v2.5h-8.1v-11.1h8v2.5h-5.4v1.8h4.2v2.3h-4.2v2H137.9z M145.3,201.8 c3.2,0,5.7,2.3,5.7,5.6c0,3.3-2.6,5.5-5.7,5.5h-4.8v-11.1H145.3z M145.3,210.4c1.6,0,3-1.1,3-3c0-1.9-1.4-3.1-3-3.1h-2.2v6.1H145.3z M26,219.4c4.5,0,7.2,2.4,7.2,6.3c0,3.9-2.7,6.3-7.2,6.3h-2.6v5.8H19v-18.3H26z M25.9,227.8c1.7,0,2.7-0.8,2.7-2.2 c0-1.4-1-2.2-2.7-2.2h-2.5v4.3H25.9z M46.3,237.7l-3.4-6h-2.2v6h-4.4v-18.3h6.8c4.6,0,7.4,2.5,7.4,6.3c0,2.5-1.2,4.3-3.3,5.3 l4.1,6.7H46.3z M40.7,227.8h3c1.6,0,2.2-1.2,2.2-2.2c0-1-0.6-2.2-2.2-2.2h-3V227.8z M62.7,219c5.3,0,9.5,4,9.5,9.5 c0,5.5-4.3,9.5-9.5,9.5c-5.3,0-9.5-4-9.5-9.5C53.2,223,57.4,219,62.7,219z M62.7,233.7c3,0,4.9-2.1,4.9-5.2c0-3.1-2-5.2-4.9-5.2 c-3,0-4.9,2.1-4.9,5.2C57.8,231.6,59.7,233.7,62.7,233.7z M83.7,219.4c5.2,0,9.5,3.7,9.5,9.2c0,5.5-4.2,9.1-9.5,9.1h-8v-18.3H83.7z M83.7,233.5c2.6,0,4.9-1.8,4.9-5c0-3.1-2.3-5.1-4.9-5.1h-3.6v10.1H83.7z M112.5,219.4v10.2c0,5.5-3.2,8.5-8.1,8.5 c-4.9,0-8.1-3-8.1-8.5v-10.2h4.4v10.1c0,3.1,1.3,4.5,3.7,4.5c2.4,0,3.7-1.4,3.7-4.5v-10.1H112.5z M129,225c-0.8-1-2.4-1.7-3.8-1.7 c-3,0-4.9,2.2-4.9,5.2c0,3.2,2.1,5.1,4.9,5.1c1.8,0,3.4-0.9,4.2-2.1l4.4,1.1c-1.5,3.2-4.8,5.4-8.6,5.4c-5.2,0-9.5-4-9.5-9.5 c0-5.5,4.2-9.5,9.5-9.5c3.6,0,6.7,1.9,8.3,4.9L129,225z M150.9,219.4v4.1h-5.6v14.2H141v-14.2h-5.5v-4.1H150.9z"/>
</svg>
