<svg xmlns="http://www.w3.org/2000/svg" viewBox="0 0 170 290" width="170" height="290">
<rect x="0" fill="#084161" width="170" height="290"/>
<polygon fill="#003552" points="0,0 0,4.9 4.9,0 "/>
<polygon fill="#003552" points="7.2,0 0,7.2 0,19.1 19.1,0 "/>
<polygon fill="#003552" points="21.5,0 0,21.5 0,33.4 33.4,0 "/>
<polygon fill="#003552" points="35.7,0 0,35.7 0,47.7 47.7,0 "/>
<polygon fill="#003552" points="50,0 0,50 0,61.9 61.9,0 "/>
<polygon fill="#003552" points="64.3,0 0,64.3 0,76.2 76.2,0 "/>
<polygon fill="#003552" points="78.5,0 0,78.5 0,90.5 90.5,0 "/>
<polygon fill="#003552" points="92.8,0 0,92.8 0,104.7 104.7,0 "/>
<polygon fill="#003552" points="107.1,0 0,107.1 0,119 119,0 "/>
<polygon fill="#003552" points="121.3,0 0,121.3 0,133.3 133.3,0 "/>
<polygon fill="#003552" points="135.6,0 0,135.6 0,147.6 147.5,0 "/>
<polygon fill="#003552" points="149.9,0 0,149.9 0,161.8 161.8,0 "/>
<polygon fill="#003552" points="170,0 164.1,0 0,164.2 0,176.1 170,6.1 "/>
<polygon fill="#003552" points="170,8.4 0,178.4 0,190.4 170,20.4 "/>
<polygon fill="#003552" points="170,22.7 0,192.7 0,204.6 170,34.6 "/>
<polygon fill="#003552" points="170,37 0,207 0,218.9 170,48.9 "/>
<polygon fill="#003552" points="170,51.2 0,221.2 0,233.2 170,63.2 "/>
<polygon fill="#003552" points="170,65.5 0,235.5 0,247.4 170,77.4 "/>
<polygon fill="#003552" points="170,79.8 0,249.8 0,261.7 170,91.7 "/>
<polygon fill="#003552" points="13,263 170,106 170,94 7,257 "/>
<polygon fill="#003552" points="27.3,263 170,120.2 170,108.3 21.3,257 "/>
<polygon fill="#003552" points="41.5,263 170,134.5 170,122.6 35.6,257 "/>
<polygon fill="#003552" points="55.8,263 170,148.8 170,136.8 49.8,257 "/>
<polygon fill="#003552" points="70.1,263 170,163.1 170,151.1 64.1,257 "/>
<polygon fill="#003552" points="84.3,263 170,177.3 170,165.4 78.4,257 "/>
<polygon fill="#003552" points="98.6,263 170,191.6 170,179.7 92.6,257 "/>
<polygon fill="#003552" points="112.9,263 170,205.9 170,193.9 106.9,257 "/>
<polygon fill="#003552" points="127.1,263 170,220.1 170,208.2 121.2,257 "/>
<polygon fill="#003552" points="141.4,263 170,234.4 170,222.5 135.4,257 "/>
<polygon fill="#003552" points="155.7,263 170,248.7 170,236.7 149.7,257 "/>
<polygon fill="#003552" points="169.9,263 170,262.9 170,251 164,257 "/>
<linearGradient id="SVGID_1_" gradientUnits="userSpaceOnUse" x1="91.8633" y1="267.9876" x2="83.1245" y2="288.4858">
	<stop offset="0" style="stop-color:#FFC10E"/>
	<stop offset="0.25" style="stop-color:#F9A51A"/>
	<stop offset="1" style="stop-color:#FFC10E"/>
</linearGradient>
<rect x="12.7" y="277" fill="url(#SVGID_1_)" width="145" height="13"/>
<radialGradient id="SVGID_2_" cx="136.0088" cy="16.8857" r="157.5501" gradientTransform="matrix(1 0 0 1 -0.3428 -0.2212)" gradientUnits="userSpaceOnUse">
	<stop offset="0" style="stop-color:#00BADE"/>
	<stop offset="0.2205" style="stop-color:#00B2DD"/>
	<stop offset="0.5654" style="stop-color:#009CDA"/>
	<stop offset="0.6627" style="stop-color:#0094D9"/>
	<stop offset="1" style="stop-color:#00BCF1"/>
</radialGradient>
<rect x="13" fill="url(#SVGID_2_)" width="144" height="144"/>
<rect x="45" y="82" fill="#FFFFFF" width="16" height="6"/>
<rect x="45" y="90" fill="#FFFFFF" width="16" height="6"/>
<rect x="45" y="106" fill="#FFFFFF" width="30" height="6"/>
<rect x="45" y="98" fill="#FFFFFF" width="30" height="6"/>
<polygon fill="#FFFFFF" points="125,80 93,80 93,112 77,112 77,80 45,80 45,64 77,64 77,32 93,32 93,64 125,64 "/>
<path fill="#FFFFFF" d="M23.8,160.5c3.2,0,5.9,2.3,5.9,5.7c0,3.4-2.6,5.6-5.8,5.6H19v-11.3H23.8z M23.9,170.2c2.1,0,3.9-1.5,3.9-3.9 c0-2.5-1.8-4-4-4h-3v7.9H23.9z"/>
<path fill="#FFFFFF" d="M31.7,171.9v-11.3h1.8v11.3H31.7z"/>
<path fill="#FFFFFF" d="M45.2,170.4c-0.6,0.7-2,1.6-3.8,1.6c-3.3,0-5.9-2.5-5.9-5.9c0-3.4,2.6-5.9,5.9-5.9c2.3,0,4.1,1.2,5.1,3 l-1.8,0.5c-0.7-1.1-2-1.7-3.3-1.7c-2.4,0-4,1.7-4,4.1c0,2.5,1.8,4.1,4.1,4.1c2.1,0,3.3-1.2,3.7-2.1v-1h-3.3v-1.5h4.8v6.1h-1.6 C45.2,170.7,45.2,170.5,45.2,170.4L45.2,170.4z"/>
<path fill="#FFFFFF" d="M49.2,171.9v-11.3H51v11.3H49.2z"/>
<path fill="#FFFFFF" d="M61.5,160.5v1.7h-3.7v9.6h-1.8v-9.6h-3.7v-1.7H61.5z"/>
<path fill="#FFFFFF" d="M68.8,169.3h-5.3l-1.1,2.6h-1.9l4.8-11.3H67l4.8,11.3h-1.9L68.8,169.3z M68.1,167.7l-1.5-3.5 c-0.2-0.6-0.5-1.5-0.5-1.5h0c0,0-0.3,0.9-0.5,1.5l-1.5,3.5H68.1z"/>
<path fill="#FFFFFF" d="M80.8,170.2v1.7h-7.6v-11.3H75v9.6H80.8z"/>
<path fill="#FFFFFF" d="M94.9,160.5v2.5h-3.4v8.8h-2.7v-8.8h-3.4v-2.5H94.9z"/>
<path fill="#FFFFFF" d="M102.4,171.9l-2.1-3.7h-1.4v3.7h-2.7v-11.3h4.2c2.9,0,4.6,1.6,4.6,3.9c0,1.5-0.7,2.7-2,3.3l2.5,4.2H102.4z M98.9,165.8h1.9c1,0,1.4-0.7,1.4-1.4c0-0.6-0.4-1.3-1.4-1.3h-1.9V165.8z"/>
<path fill="#FFFFFF" d="M115.4,169.3v2.5H107v-11.3h8.2v2.5h-5.5v1.9h4.3v2.4h-4.3v2H115.4z"/>
<path fill="#FFFFFF" d="M127.7,160.5v11.3h-2.6l-2.3-3.2c-1-1.4-2.6-3.6-2.6-3.6h0c0,0,0,1.7,0,4.2v2.5h-2.7v-11.3h2.6l2.4,3.2 c0.7,1,2.5,3.4,2.5,3.4h0c0,0,0-2,0-4.1v-2.6H127.7z"/>
<path fill="#FFFFFF" d="M135.2,160.5c3.2,0,5.9,2.3,5.9,5.7c0,3.4-2.6,5.6-5.9,5.6h-5v-11.3H135.2z M135.2,169.3c1.6,0,3-1.1,3-3.1 c0-1.9-1.4-3.2-3-3.2h-2.2v6.3H135.2z"/>
<path fill="#FFFFFF" d="M148.3,164.1c-0.3-1-1.1-1.5-2-1.5c-0.8,0-1.3,0.4-1.3,0.9c0,0.8,1.1,1,2.5,1.5c1.7,0.6,3.4,1.6,3.4,3.5 c0,2.1-1.8,3.5-4.4,3.5c-2.4,0-4-1.3-4.8-3.4l2.6-0.7c0.3,0.9,1.1,1.7,2.3,1.7c1,0,1.4-0.5,1.4-1c0-0.9-1.3-1.1-3-1.8 c-1.4-0.5-2.9-1.3-2.9-3.3c0-1.8,1.8-3.4,4.2-3.4c2.2,0,3.9,1.3,4.4,3.1L148.3,164.1z"/>
<linearGradient id="SVGID_3_" gradientUnits="userSpaceOnUse" x1="18.1699" y1="211.1094" x2="160.6826" y2="211.1094">
	<stop offset="0" style="stop-color:#FFC10E"/>
	<stop offset="0.25" style="stop-color:#F9A51A"/>
	<stop offset="1" style="stop-color:#FFC10E"/>
</linearGradient>
<path fill="url(#SVGID_3_)" d="M34.2,200.7v4.7H19v-20.7h15.1v4.6H24v3.4h7.9v4.3H24v3.7H34.2z M48.2,185H39v21h9.2 c5.9,0,10.7-4.2,10.7-10.4C58.9,189.4,54.1,185,48.2,185z M48.2,201H44v-11h4.2c3,0,5.5,2,5.5,5.6C53.7,199.1,51.2,201,48.2,201z M63,205.4v-20.7h5v20.7H63z M88.5,184.6v4.6h-6.3v16.1h-5v-16.1H71v-4.6H88.5z M101.1,184.2c-6,0-10.8,4.5-10.8,10.8 c0,6.2,4.8,10.8,10.8,10.8c5.9,0,10.8-4.5,10.8-10.8C111.8,188.7,107,184.2,101.1,184.2z M101.1,200.9c-3.4,0-5.6-2.4-5.6-5.9 c0-3.5,2.2-5.9,5.6-5.9c3.4,0,5.6,2.4,5.6,5.9C106.7,198.5,104.4,200.9,101.1,200.9z M128.3,198c2.4-1.1,3.7-3.2,3.7-5.9 c0-4.3-3.1-7.1-8.3-7.1H116v21h5v-7h2.5l3.8,7h5.6L128.3,198z M124.4,195H121v-5h3.4c1.8,0,2.5,1.4,2.5,2.5 C126.8,193.6,126.1,195,124.4,195z M147.2,191.2c-0.5-1.8-2.1-2.7-3.6-2.7c-1.5,0-2.3,0.7-2.3,1.6c0,1.4,2.1,1.9,4.6,2.8 c3.1,1.1,6.3,2.9,6.3,6.4c0,3.8-3.3,6.5-8.1,6.5c-4.3,0-7.4-2.4-8.8-6.3l4.8-1.3c0.5,1.6,2,3.1,4.2,3.1c1.8,0,2.6-0.8,2.6-1.8 c0-1.7-2.4-2.1-5.4-3.2c-2.5-0.9-5.3-2.3-5.3-5.9c0-3.2,3.2-6.2,7.7-6.2c4,0,7.1,2.4,8.1,5.7L147.2,191.2z M34.9,221.7 c-1.1-1.3-3-2.1-4.8-2.1c-3.8,0-6.2,2.7-6.2,6.5c0,4,2.6,6.5,6.2,6.5c2.2,0,4.3-1.1,5.3-2.7l5.6,1.4c-1.9,4.1-6,6.8-10.9,6.8 c-6.6,0-11.9-5-11.9-12c0-6.9,5.3-12,11.9-12c4.5,0,8.4,2.4,10.5,6.1L34.9,221.7z M64.6,214.5v23H59v-9h-8.6v9h-5.5v-23h5.5v8.9H59 v-8.9H64.6z M80.9,214.1c-6.6,0-11.9,5-11.9,12c0,7,5.3,12,11.9,12c6.6,0,12-5,12-12C92.9,219.1,87.5,214.1,80.9,214.1z M80.9,232.6 c-3.7,0-6.2-2.7-6.2-6.5c0-3.9,2.5-6.5,6.2-6.5c3.7,0,6.2,2.6,6.2,6.5C87.2,229.9,84.7,232.6,80.9,232.6z M97.3,237.6v-23h5.5v23 H97.3z M124.1,221.7c-1.1-1.3-3-2.1-4.8-2.1c-3.8,0-6.2,2.7-6.2,6.5c0,4,2.6,6.5,6.2,6.5c2.2,0,4.3-1.1,5.3-2.7l5.6,1.4 c-1.9,4.1-6,6.8-10.8,6.8c-6.6,0-11.9-5-11.9-12c0-6.9,5.3-12,11.9-12c4.5,0,8.4,2.4,10.5,6.1L124.1,221.7z M151,232.4v5.2H134v-23 h16.7v5.2h-11.2v3.8h8.8v4.8h-8.8v4.1H151z M158.2,188.7l-0.4-0.1c-0.8-0.1-1.7-0.9-1.7-2.1c0-1.3,1-2.3,2.3-2.3 c1.3,0,2.3,1,2.3,2.6c0,1.9-1.5,4.2-3.4,5.6h-1.8c1-0.7,2.3-2.7,2.3-3.6L158.2,188.7z"/>
</svg>
