<?xml version="1.0" standalone="no"?><!DOCTYPE svg PUBLIC "-//W3C//DTD SVG 1.1//EN" "http://www.w3.org/Graphics/SVG/1.1/DTD/svg11.dtd" ><svg version="1.1" xmlns="http://www.w3.org/2000/svg"><defs><font horiz-adv-x="0" id="font"><font-face ascent="800" bbox="-249 -248 1953 1140" cap-height="780" descent="-200" font-family="Galaxie Polaris" font-stretch="normal" font-style="normal" font-weight="600" units-per-em="1000" x-height="530" /><missing-glyph d="M90 780H870V0H90ZM201 66H759L480 345ZM480 435 759 714H201ZM160 665V115L435 390ZM800 115V665L525 390Z" horiz-adv-x="960" /><glyph d="M346 790H510L698 0H549L509 177H201L119 0H-34ZM355 518 255 295H485L439 518L413 650Z" glyph-name="A" horiz-adv-x="742" unicode="A" /><glyph d="M516 177H235L125 0H-35L479 780H1067L1051 650H644L650 464H978L963 334H655L661 130H1007L992 0H523ZM310 295H513L506 525L505 606Z" glyph-name="AE" horiz-adv-x="1092" unicode="&#198;" /><glyph d="M516 177H235L125 0H-35L479 780H1067L1051 650H644L650 464H978L963 334H655L661 130H1007L992 0H523ZM310 295H513L506 525L505 606ZM793 1030 656 822H522L642 1030Z" glyph-name="AEacute" horiz-adv-x="1092" unicode="&#508;" /><glyph d="M639 1030 502 822H368L488 1030ZM346 790H510L698 0H549L509 177H201L119 0H-34ZM355 518 255 295H485L439 518L413 650Z" glyph-name="Aacute" horiz-adv-x="742" unicode="&#193;" /><glyph d="M656 1030Q650 979 635 939Q620 899 593 872Q566 845 526 830.5Q486 816 430 816Q374 816 337.5 830.5Q301 845 281 872Q261 899 256 939Q251 979 258 1030H363Q355 979 375 958Q395 937 444 937Q493 937 517 958Q541 979 547 1030ZM346 790H510L698 0H549L509 177H201L119 0H-34ZM355 518 255 295H485L439 518L413 650Z" glyph-name="Abreve" horiz-adv-x="742" unicode="&#258;" /><glyph d="M396 1030H518L647 822H513L448 918L357 822H215ZM346 790H510L698 0H549L509 177H201L119 0H-34ZM355 518 255 295H485L439 518L413 650Z" glyph-name="Acircumflex" horiz-adv-x="742" unicode="&#194;" /><glyph d="M400 847H250L269 997H419ZM618 847H468L487 997H637ZM346 790H510L698 0H549L509 177H201L119 0H-34ZM355 518 255 295H485L439 518L413 650Z" glyph-name="Adieresis" horiz-adv-x="742" unicode="&#196;" /><glyph d="M424 1030 492 822H358L273 1030ZM346 790H510L698 0H549L509 177H201L119 0H-34ZM355 518 255 295H485L439 518L413 650Z" glyph-name="Agrave" horiz-adv-x="742" unicode="&#192;" /><glyph d="M298 990H606L590 865H282ZM346 790H510L698 0H549L509 177H201L119 0H-34ZM355 518 255 295H485L439 518L413 650Z" glyph-name="Amacron" horiz-adv-x="742" unicode="&#256;" /><glyph d="M346 790H510L698 0Q672 -3 649 -12Q626 -21 609 -33Q592 -45 582.5 -59.5Q573 -74 573 -88Q573 -99 579.5 -107.5Q586 -116 606 -116Q617 -116 627.5 -113Q638 -110 647 -106.5Q656 -103 662 -100Q668 -97 668 -97L685 -189Q668 -199 640 -206.5Q612 -214 578 -214Q523 -214 493 -188Q463 -162 463 -113Q463 -70 484.5 -35.5Q506 -1 543 25L509 177H201L119 0H-34ZM355 518 255 295H485L439 518L413 650Z" glyph-name="Aogonek" horiz-adv-x="742" unicode="&#260;" /><glyph d="M429 808Q378 808 351.5 836Q325 864 325 908Q325 936 334.5 961Q344 986 361.5 1004.5Q379 1023 403.5 1033.5Q428 1044 459 1044Q510 1044 536.5 1016Q563 988 563 944Q563 916 553.5 891Q544 866 526.5 847.5Q509 829 484.5 818.5Q460 808 429 808ZM440 891Q458 891 468.5 902.5Q479 914 479 932Q479 961 448 961Q430 961 419.5 949.5Q409 938 409 920Q409 891 440 891ZM346 790H510L698 0H549L509 177H201L119 0H-34ZM355 518 255 295H485L439 518L413 650Z" glyph-name="Aring" horiz-adv-x="742" unicode="&#197;" /><glyph d="M545 1134 481 1042Q519 1037 541 1010.5Q563 984 563 945Q563 916 553.5 891Q544 866 527 847.5Q510 829 485 818.5Q460 808 430 808Q379 808 352 836Q325 864 325 909Q325 947 343 978L424 1134ZM440 891Q458 891 468.5 902.5Q479 914 479 932Q479 961 448 961Q430 961 419.5 949.5Q409 938 409 920Q409 891 440 891ZM346 790H510L698 0H549L509 177H201L119 0H-34ZM355 518 255 295H485L439 518L413 650Z" glyph-name="Aringacute" horiz-adv-x="742" unicode="&#506;" /><glyph d="M699 1002Q682 914 636 868.5Q590 823 512 825Q476 826 454 837.5Q432 849 416.5 863Q401 877 388 889Q375 901 357 901Q341 902 330 896Q319 890 312 880.5Q305 871 301 859.5Q297 848 295 837L188 850Q205 938 251 983.5Q297 1029 375 1027Q411 1026 433 1014.5Q455 1003 470.5 989Q486 975 499 963Q512 951 530 951Q547 950 557.5 956Q568 962 575 971.5Q582 981 585.5 993Q589 1005 592 1015ZM346 790H510L698 0H549L509 177H201L119 0H-34ZM355 518 255 295H485L439 518L413 650Z" glyph-name="Atilde" horiz-adv-x="742" unicode="&#195;" /><glyph d="M36 0 131 780H465Q500 780 537 773Q574 766 604 746.5Q634 727 653.5 692Q673 657 673 602Q673 564 665 532.5Q657 501 643.5 477Q630 453 614 436Q598 419 581 409Q615 394 636 358Q657 322 657 266Q657 189 633 137.5Q609 86 569.5 55.5Q530 25 479.5 12.5Q429 0 375 0ZM383 130Q401 130 423.5 133Q446 136 466 148Q486 160 499.5 184.5Q513 209 513 252Q513 280 504 296Q495 312 480.5 320.5Q466 329 448.5 331.5Q431 334 413 334H217L191 130ZM255 650 232 464H416Q439 464 459.5 469Q480 474 495 486.5Q510 499 518.5 521.5Q527 544 527 580Q527 602 521 615.5Q515 629 503.5 636.5Q492 644 476 647Q460 650 439 650Z" glyph-name="B" horiz-adv-x="716" unicode="B" /><glyph d="M430 664Q383 664 348 649Q313 634 287.5 607.5Q262 581 245 546Q228 511 218 471.5Q208 432 204 390Q200 348 200 307Q200 267 207.5 232Q215 197 233.5 171Q252 145 283.5 130.5Q315 116 363 116Q442 116 483.5 147Q525 178 544 248L675 203Q660 153 633 113Q606 73 565.5 44.5Q525 16 471 1Q417 -14 347 -14Q269 -14 214 8Q159 30 124 70.5Q89 111 72.5 168Q56 225 56 296Q56 397 78.5 487.5Q101 578 148.5 646Q196 714 269.5 754Q343 794 446 794Q515 794 565.5 779Q616 764 649 736Q682 708 699.5 668.5Q717 629 721 580L579 532Q577 602 543 633Q509 664 430 664Z" glyph-name="C" horiz-adv-x="743" unicode="C" /><glyph d="M651 1030 514 822H380L500 1030ZM430 664Q383 664 348 649Q313 634 287.5 607.5Q262 581 245 546Q228 511 218 471.5Q208 432 204 390Q200 348 200 307Q200 267 207.5 232Q215 197 233.5 171Q252 145 283.5 130.5Q315 116 363 116Q442 116 483.5 147Q525 178 544 248L675 203Q660 153 633 113Q606 73 565.5 44.5Q525 16 471 1Q417 -14 347 -14Q269 -14 214 8Q159 30 124 70.5Q89 111 72.5 168Q56 225 56 296Q56 397 78.5 487.5Q101 578 148.5 646Q196 714 269.5 754Q343 794 446 794Q515 794 565.5 779Q616 764 649 736Q682 708 699.5 668.5Q717 629 721 580L579 532Q577 602 543 633Q509 664 430 664Z" glyph-name="Cacute" horiz-adv-x="743" unicode="&#262;" /><glyph d="M430 664Q383 664 348 649Q313 634 287.5 607.5Q262 581 245 546Q228 511 218 471.5Q208 432 204 390Q200 348 200 307Q200 267 207.5 232Q215 197 233.5 171Q252 145 283.5 130.5Q315 116 363 116Q442 116 483.5 147Q525 178 544 248L675 203Q660 153 633 113Q606 73 565.5 44.5Q525 16 471 1Q417 -14 347 -14Q269 -14 214 8Q159 30 124 70.5Q89 111 72.5 168Q56 225 56 296Q56 397 78.5 487.5Q101 578 148.5 646Q196 714 269.5 754Q343 794 446 794Q515 794 565.5 779Q616 764 649 736Q682 708 699.5 668.5Q717 629 721 580L579 532Q577 602 543 633Q509 664 430 664ZM510 822H388L259 1030H393L458 934L549 1030H691Z" glyph-name="Ccaron" horiz-adv-x="743" unicode="&#268;" /><glyph d="M430 664Q383 664 348 649Q313 634 287.5 607.5Q262 581 245 546Q228 511 218 471.5Q208 432 204 390Q200 348 200 307Q200 267 207.5 232Q215 197 233.5 171Q252 145 283.5 130.5Q315 116 363 116Q442 116 483.5 147Q525 178 544 248L675 203Q647 111 579 54.5Q511 -2 392 -12L383 -35Q398 -39 412.5 -45Q427 -51 438.5 -60.5Q450 -70 457 -83Q464 -96 464 -113Q464 -139 451.5 -158Q439 -177 418 -189.5Q397 -202 369.5 -208Q342 -214 312 -214Q270 -214 243 -206.5Q216 -199 205 -194L234 -130Q235 -132 253 -139Q271 -146 294 -146Q310 -146 325 -139.5Q340 -133 340 -116Q340 -99 318.5 -89.5Q297 -80 262 -76L292 -11Q229 -4 184.5 21Q140 46 111.5 85.5Q83 125 69.5 178.5Q56 232 56 296Q56 397 78.5 487.5Q101 578 148.5 646Q196 714 269.5 754Q343 794 446 794Q515 794 565.5 779Q616 764 649 736Q682 708 699.5 668.5Q717 629 721 580L579 532Q577 602 543 633Q509 664 430 664Z" glyph-name="Ccedilla" horiz-adv-x="743" unicode="&#199;" /><glyph d="M430 664Q383 664 348 649Q313 634 287.5 607.5Q262 581 245 546Q228 511 218 471.5Q208 432 204 390Q200 348 200 307Q200 267 207.5 232Q215 197 233.5 171Q252 145 283.5 130.5Q315 116 363 116Q442 116 483.5 147Q525 178 544 248L675 203Q660 153 633 113Q606 73 565.5 44.5Q525 16 471 1Q417 -14 347 -14Q269 -14 214 8Q159 30 124 70.5Q89 111 72.5 168Q56 225 56 296Q56 397 78.5 487.5Q101 578 148.5 646Q196 714 269.5 754Q343 794 446 794Q515 794 565.5 779Q616 764 649 736Q682 708 699.5 668.5Q717 629 721 580L579 532Q577 602 543 633Q509 664 430 664ZM414 1030H536L665 822H531L466 918L375 822H233Z" glyph-name="Ccircumflex" horiz-adv-x="743" unicode="&#264;" /><glyph d="M527 847H377L396 997H546ZM430 664Q383 664 348 649Q313 634 287.5 607.5Q262 581 245 546Q228 511 218 471.5Q208 432 204 390Q200 348 200 307Q200 267 207.5 232Q215 197 233.5 171Q252 145 283.5 130.5Q315 116 363 116Q442 116 483.5 147Q525 178 544 248L675 203Q660 153 633 113Q606 73 565.5 44.5Q525 16 471 1Q417 -14 347 -14Q269 -14 214 8Q159 30 124 70.5Q89 111 72.5 168Q56 225 56 296Q56 397 78.5 487.5Q101 578 148.5 646Q196 714 269.5 754Q343 794 446 794Q515 794 565.5 779Q616 764 649 736Q682 708 699.5 668.5Q717 629 721 580L579 532Q577 602 543 633Q509 664 430 664Z" glyph-name="Cdotaccent" horiz-adv-x="743" unicode="&#266;" /><glyph d="M36 0 131 780H407Q566 780 646.5 707.5Q727 635 727 479Q727 367 700.5 278Q674 189 621.5 127Q569 65 491.5 32.5Q414 0 312 0ZM327 130Q397 130 445.5 156Q494 182 524.5 226.5Q555 271 569 330.5Q583 390 583 457Q583 502 572.5 538Q562 574 539 598.5Q516 623 479.5 636.5Q443 650 391 650H255L191 130Z" glyph-name="D" horiz-adv-x="771" unicode="D" /><glyph d="M36 0 131 780H407Q566 780 646.5 707.5Q727 635 727 479Q727 367 700.5 278Q674 189 621.5 127Q569 65 491.5 32.5Q414 0 312 0ZM327 130Q397 130 445.5 156Q494 182 524.5 226.5Q555 271 569 330.5Q583 390 583 457Q583 502 572.5 538Q562 574 539 598.5Q516 623 479.5 636.5Q443 650 391 650H255L191 130ZM481 822H359L230 1030H364L429 934L520 1030H662Z" glyph-name="Dcaron" horiz-adv-x="771" unicode="&#270;" /><glyph d="M65 0 107 348H0L13 452H120L160 780H436Q595 780 675.5 707.5Q756 635 756 479Q756 367 729.5 278Q703 189 650.5 127Q598 65 520.5 32.5Q443 0 341 0ZM356 130Q426 130 474.5 156Q523 182 553.5 226.5Q584 271 598 330.5Q612 390 612 457Q612 502 601.5 538Q591 574 568 598.5Q545 623 508.5 636.5Q472 650 420 650H284L259 452H445L432 348H247L220 130Z" glyph-name="Dcroat" horiz-adv-x="800" unicode="&#272;" /><glyph d="M684 780 668 650H255L232 464H598L583 334H217L191 130H623L608 0H36L131 780Z" glyph-name="E" horiz-adv-x="708" unicode="E" /><glyph d="M684 780 668 650H255L232 464H598L583 334H217L191 130H623L608 0H36L131 780ZM614 1030 477 822H343L463 1030Z" glyph-name="Eacute" horiz-adv-x="708" unicode="&#201;" /><glyph d="M684 780 668 650H255L232 464H598L583 334H217L191 130H623L608 0H36L131 780ZM637 1030Q631 979 616 939Q601 899 574 872Q547 845 507 830.5Q467 816 411 816Q355 816 318.5 830.5Q282 845 262 872Q242 899 237 939Q232 979 239 1030H344Q336 979 356 958Q376 937 425 937Q474 937 498 958Q522 979 528 1030Z" glyph-name="Ebreve" horiz-adv-x="708" unicode="&#276;" /><glyph d="M684 780 668 650H255L232 464H598L583 334H217L191 130H623L608 0H36L131 780ZM473 822H351L222 1030H356L421 934L512 1030H654Z" glyph-name="Ecaron" horiz-adv-x="708" unicode="&#282;" /><glyph d="M684 780 668 650H255L232 464H598L583 334H217L191 130H623L608 0H36L131 780ZM377 1030H499L628 822H494L429 918L338 822H196Z" glyph-name="Ecircumflex" horiz-adv-x="708" unicode="&#202;" /><glyph d="M684 780 668 650H255L232 464H598L583 334H217L191 130H623L608 0H36L131 780ZM599 847H449L468 997H618ZM381 847H231L250 997H400Z" glyph-name="Edieresis" horiz-adv-x="708" unicode="&#203;" /><glyph d="M684 780 668 650H255L232 464H598L583 334H217L191 130H623L608 0H36L131 780ZM490 847H340L359 997H509Z" glyph-name="Edotaccent" horiz-adv-x="708" unicode="&#278;" /><glyph d="M684 780 668 650H255L232 464H598L583 334H217L191 130H623L608 0H36L131 780ZM416 1030 484 822H350L265 1030Z" glyph-name="Egrave" horiz-adv-x="708" unicode="&#200;" /><glyph d="M684 780 668 650H255L232 464H598L583 334H217L191 130H623L608 0H36L131 780ZM279 990H587L572 865H264Z" glyph-name="Emacron" horiz-adv-x="708" unicode="&#274;" /><glyph d="M744 780 648 -2Q643 -43 630 -81Q617 -119 591 -148.5Q565 -178 522 -196Q479 -214 414 -214Q384 -214 360 -209Q336 -204 322 -198L351 -66Q361 -71 381 -78.5Q401 -86 426 -84Q444 -83 458 -79Q472 -75 482.5 -65Q493 -55 499.5 -37.5Q506 -20 509 8L510 19L304 402L238 526L217 335L176 0H36L131 780H259L476 378L542 254L563 445L604 780Z" glyph-name="Eng" horiz-adv-x="765" unicode="&#330;" /><glyph d="M684 780 668 650H255L232 464H598L583 334H217L191 130H623L608 0Q582 -3 559 -12Q536 -21 519 -33Q502 -45 492.5 -59.5Q483 -74 483 -88Q483 -99 489.5 -107.5Q496 -116 516 -116Q527 -116 537.5 -113Q548 -110 557 -106.5Q566 -103 572 -100Q578 -97 578 -97L595 -189Q578 -199 550 -206.5Q522 -214 488 -214Q433 -214 403 -188Q373 -162 373 -113Q373 -80 386.5 -51.5Q400 -23 423 0H36L131 780Z" glyph-name="Eogonek" horiz-adv-x="708" unicode="&#280;" /><glyph d="M65 0 107 348H0L13 452H120L160 780H436Q595 780 675.5 707.5Q756 635 756 479Q756 367 729.5 278Q703 189 650.5 127Q598 65 520.5 32.5Q443 0 341 0ZM356 130Q426 130 474.5 156Q523 182 553.5 226.5Q584 271 598 330.5Q612 390 612 457Q612 502 601.5 538Q591 574 568 598.5Q545 623 508.5 636.5Q472 650 420 650H284L259 452H445L432 348H247L220 130Z" glyph-name="Eth" horiz-adv-x="800" unicode="&#208;" /><glyph d="M149 505Q188 635 273 706.5Q358 778 491 778Q556 778 603 763Q650 748 682 721.5Q714 695 731.5 658Q749 621 754 576L612 527Q611 584 581 617Q551 650 475 650Q406 650 361.5 612Q317 574 294 505H568L524 408H270Q268 405 265.5 387.5Q263 370 263 356H501L457 259H263Q269 190 304.5 152Q340 114 409 114Q485 114 523.5 147Q562 180 577 237L708 192Q693 146 666.5 108Q640 70 601 43Q562 16 510.5 1Q459 -14 394 -14Q262 -14 194 58Q126 130 118 259H16L28 356H120Q120 369 122.5 386Q125 403 127 408H35L47 505Z" glyph-name="Euro" horiz-adv-x="779" unicode="&#8364;" /><glyph d="M176 0H36L131 780H664L648 650H255L232 464H577L562 334H217Z" glyph-name="F" horiz-adv-x="644" unicode="F" /><glyph d="M440 664Q371 664 325 633Q279 602 251.5 552.5Q224 503 212.5 441.5Q201 380 201 319Q201 277 209 240Q217 203 237 175.5Q257 148 290 132Q323 116 373 116Q430 116 474 125.5Q518 135 550 152L569 309H410L426 434H724L679 68Q636 43 596 27Q556 11 517 2Q478 -7 438.5 -10.5Q399 -14 357 -14Q278 -14 221.5 8Q165 30 128.5 71Q92 112 74.5 170.5Q57 229 57 302Q57 403 81 492.5Q105 582 154.5 649Q204 716 279 755Q354 794 456 794Q595 794 664 736Q733 678 741 580L599 532Q597 602 558 633Q519 664 440 664Z" glyph-name="G" horiz-adv-x="790" unicode="G" /><glyph d="M440 664Q371 664 325 633Q279 602 251.5 552.5Q224 503 212.5 441.5Q201 380 201 319Q201 277 209 240Q217 203 237 175.5Q257 148 290 132Q323 116 373 116Q430 116 474 125.5Q518 135 550 152L569 309H410L426 434H724L679 68Q636 43 596 27Q556 11 517 2Q478 -7 438.5 -10.5Q399 -14 357 -14Q278 -14 221.5 8Q165 30 128.5 71Q92 112 74.5 170.5Q57 229 57 302Q57 403 81 492.5Q105 582 154.5 649Q204 716 279 755Q354 794 456 794Q595 794 664 736Q733 678 741 580L599 532Q597 602 558 633Q519 664 440 664ZM684 1030Q678 979 663 939Q648 899 621 872Q594 845 554 830.5Q514 816 458 816Q402 816 365.5 830.5Q329 845 309 872Q289 899 284 939Q279 979 286 1030H391Q383 979 403 958Q423 937 472 937Q521 937 545 958Q569 979 575 1030Z" glyph-name="Gbreve" horiz-adv-x="790" unicode="&#286;" /><glyph d="M440 664Q371 664 325 633Q279 602 251.5 552.5Q224 503 212.5 441.5Q201 380 201 319Q201 277 209 240Q217 203 237 175.5Q257 148 290 132Q323 116 373 116Q430 116 474 125.5Q518 135 550 152L569 309H410L426 434H724L679 68Q636 43 596 27Q556 11 517 2Q478 -7 438.5 -10.5Q399 -14 357 -14Q278 -14 221.5 8Q165 30 128.5 71Q92 112 74.5 170.5Q57 229 57 302Q57 403 81 492.5Q105 582 154.5 649Q204 716 279 755Q354 794 456 794Q595 794 664 736Q733 678 741 580L599 532Q597 602 558 633Q519 664 440 664ZM520 822H398L269 1030H403L468 934L559 1030H701Z" glyph-name="Gcaron" horiz-adv-x="790" unicode="&#486;" /><glyph d="M440 664Q371 664 325 633Q279 602 251.5 552.5Q224 503 212.5 441.5Q201 380 201 319Q201 277 209 240Q217 203 237 175.5Q257 148 290 132Q323 116 373 116Q430 116 474 125.5Q518 135 550 152L569 309H410L426 434H724L679 68Q636 43 596 27Q556 11 517 2Q478 -7 438.5 -10.5Q399 -14 357 -14Q278 -14 221.5 8Q165 30 128.5 71Q92 112 74.5 170.5Q57 229 57 302Q57 403 81 492.5Q105 582 154.5 649Q204 716 279 755Q354 794 456 794Q595 794 664 736Q733 678 741 580L599 532Q597 602 558 633Q519 664 440 664ZM424 1030H546L675 822H541L476 918L385 822H243Z" glyph-name="Gcircumflex" horiz-adv-x="790" unicode="&#284;" /><glyph d="M440 664Q371 664 325 633Q279 602 251.5 552.5Q224 503 212.5 441.5Q201 380 201 319Q201 277 209 240Q217 203 237 175.5Q257 148 290 132Q323 116 373 116Q430 116 474 125.5Q518 135 550 152L569 309H410L426 434H724L679 68Q636 43 596 27Q556 11 517 2Q478 -7 438.5 -10.5Q399 -14 357 -14Q278 -14 221.5 8Q165 30 128.5 71Q92 112 74.5 170.5Q57 229 57 302Q57 403 81 492.5Q105 582 154.5 649Q204 716 279 755Q354 794 456 794Q595 794 664 736Q733 678 741 580L599 532Q597 602 558 633Q519 664 440 664ZM246 -200 277 -62H429L371 -200Z" glyph-name="Gcommaaccent" horiz-adv-x="790" unicode="&#290;" /><glyph d="M440 664Q371 664 325 633Q279 602 251.5 552.5Q224 503 212.5 441.5Q201 380 201 319Q201 277 209 240Q217 203 237 175.5Q257 148 290 132Q323 116 373 116Q430 116 474 125.5Q518 135 550 152L569 309H410L426 434H724L679 68Q636 43 596 27Q556 11 517 2Q478 -7 438.5 -10.5Q399 -14 357 -14Q278 -14 221.5 8Q165 30 128.5 71Q92 112 74.5 170.5Q57 229 57 302Q57 403 81 492.5Q105 582 154.5 649Q204 716 279 755Q354 794 456 794Q595 794 664 736Q733 678 741 580L599 532Q597 602 558 633Q519 664 440 664ZM537 847H387L406 997H556Z" glyph-name="Gdotaccent" horiz-adv-x="790" unicode="&#288;" /><glyph d="M739 780 644 0H504L545 334H217L176 0H36L131 780H271L232 464H560L599 780Z" glyph-name="H" horiz-adv-x="760" unicode="H" /><glyph d="M86 390Q86 474 118 547.5Q150 621 204.5 675.5Q259 730 332.5 762Q406 794 490 794Q574 794 647.5 762Q721 730 775.5 675.5Q830 621 862 547.5Q894 474 894 390Q894 306 862 232.5Q830 159 775.5 104.5Q721 50 647.5 18Q574 -14 490 -14Q406 -14 332.5 18Q259 50 204.5 104.5Q150 159 118 232.5Q86 306 86 390Z" glyph-name="H18533" horiz-adv-x="980" unicode="&#9679;" /><glyph d="M628 0H98V530H628Z" glyph-name="H18543" horiz-adv-x="726" unicode="&#9642;" /><glyph d="M98 530H628V0H98ZM233 399V131H493V399Z" glyph-name="H18551" horiz-adv-x="726" unicode="&#9643;" /><glyph d="M98 780H878V0H98ZM233 649V131H743V649Z" glyph-name="H22073" horiz-adv-x="976" unicode="&#9633;" /><glyph d="M739 780 644 0H504L545 334H217L176 0H36L131 780H271L257 660H585L599 780ZM560 464 572 556H244L232 464Z" glyph-name="Hbar" horiz-adv-x="760" unicode="&#294;" /><glyph d="M739 780 644 0H504L545 334H217L176 0H36L131 780H271L232 464H560L599 780ZM405 1030H527L656 822H522L457 918L366 822H224Z" glyph-name="Hcircumflex" horiz-adv-x="760" unicode="&#292;" /><glyph d="M190 0H50L145 780H285Z" glyph-name="I" horiz-adv-x="320" unicode="I" /><glyph d="M380 118Q399 119 413.5 123Q428 127 439 137Q450 147 457 164.5Q464 182 467 209L537 780H678L607 200Q602 159 588.5 120.5Q575 82 548 52Q521 22 477 4Q433 -14 368 -14Q337 -14 313.5 -10Q290 -6 276 0L304 134Q312 128 333.5 122Q355 116 380 118ZM190 0H50L145 780H285Z" glyph-name="IJ" horiz-adv-x="694" unicode="&#306;" /><glyph d="M190 0H50L145 780H285ZM427 1030 290 822H156L276 1030Z" glyph-name="Iacute" horiz-adv-x="320" unicode="&#205;" /><glyph d="M192 0H52L147 780H287ZM447 1030Q441 979 426 939Q411 899 384 872Q357 845 317 830.5Q277 816 221 816Q165 816 128.5 830.5Q92 845 72 872Q52 899 47 939Q42 979 49 1030H154Q146 979 166 958Q186 937 235 937Q284 937 308 958Q332 979 338 1030Z" glyph-name="Ibreve" horiz-adv-x="320" unicode="&#300;" /><glyph d="M190 0H50L145 780H285ZM185 1030H307L436 822H302L237 918L146 822H4Z" glyph-name="Icircumflex" horiz-adv-x="320" unicode="&#206;" /><glyph d="M190 0H50L145 780H285ZM407 847H257L276 997H426ZM189 847H39L58 997H208Z" glyph-name="Idieresis" horiz-adv-x="320" unicode="&#207;" /><glyph d="M190 0H50L145 780H285ZM298 847H148L167 997H317Z" glyph-name="Idotaccent" horiz-adv-x="320" unicode="&#304;" /><glyph d="M190 0H50L145 780H285ZM216 1030 284 822H150L65 1030Z" glyph-name="Igrave" horiz-adv-x="320" unicode="&#204;" /><glyph d="M190 0H50L145 780H285ZM87 990H395L380 865H72Z" glyph-name="Imacron" horiz-adv-x="320" unicode="&#298;" /><glyph d="M190 0Q141 -9 111.5 -35.5Q82 -62 82 -89Q82 -100 89 -108Q96 -116 114 -116Q129 -116 143 -112Q157 -108 168 -103Q179 -98 186.5 -93.5Q194 -89 196 -87L212 -181Q189 -197 156.5 -205.5Q124 -214 86 -214Q35 -214 3.5 -190.5Q-28 -167 -28 -116Q-28 -29 53 28L145 780H285Z" glyph-name="Iogonek" horiz-adv-x="320" unicode="&#302;" /><glyph d="M190 0H50L145 780H285ZM488 1002Q471 914 425 868.5Q379 823 301 825Q265 826 243 837.5Q221 849 205.5 863Q190 877 177 889Q164 901 146 901Q130 902 119 896Q108 890 101 880.5Q94 871 90 859.5Q86 848 84 837L-23 850Q-6 938 40 983.5Q86 1029 164 1027Q200 1026 222 1014.5Q244 1003 259.5 989Q275 975 288 963Q301 951 319 951Q336 950 346.5 956Q357 962 364 971.5Q371 981 374.5 993Q378 1005 381 1015Z" glyph-name="Itilde" horiz-adv-x="320" unicode="&#296;" /><glyph d="M539 780 470 218Q464 166 448 123.5Q432 81 403 50.5Q374 20 328 3Q282 -14 216 -14Q151 -14 109 0Q67 14 43 38Q19 62 9.5 95Q0 128 0 165L142 214Q141 191 143.5 172.5Q146 154 155 141.5Q164 129 180.5 122Q197 115 223 115Q251 115 270 121Q289 127 301 139Q313 151 319.5 169Q326 187 329 211L399 780Z" glyph-name="J" horiz-adv-x="555" unicode="J" /><glyph d="M539 780 470 218Q464 166 448 123.5Q432 81 403 50.5Q374 20 328 3Q282 -14 216 -14Q151 -14 109 0Q67 14 43 38Q19 62 9.5 95Q0 128 0 165L142 214Q141 191 143.5 172.5Q146 154 155 141.5Q164 129 180.5 122Q197 115 223 115Q251 115 270 121Q289 127 301 139Q313 151 319.5 169Q326 187 329 211L399 780ZM439 1030H561L690 822H556L491 918L400 822H258Z" glyph-name="Jcircumflex" horiz-adv-x="555" unicode="&#308;" /><glyph d="M229 437 339 545 582 780H769L390 425L689 0H508L286 327L207 254L176 0H36L131 780H271Z" glyph-name="K" horiz-adv-x="742" unicode="K" /><glyph d="M220 -200 251 -62H403L345 -200ZM229 437 339 545 582 780H769L390 425L689 0H508L286 327L207 254L176 0H36L131 780H271Z" glyph-name="Kcommaaccent" horiz-adv-x="742" unicode="&#310;" /><glyph d="M191 130H561L546 0H36L131 780H271Z" glyph-name="L" horiz-adv-x="606" unicode="L" /><glyph d="M191 130H561L546 0H36L131 780H271ZM413 1030 276 822H142L262 1030Z" glyph-name="Lacute" horiz-adv-x="606" unicode="&#313;" /><glyph d="M191 130H561L546 0H36L131 780H271ZM395 592 468 800H612L517 592Z" glyph-name="Lcaron" horiz-adv-x="606" unicode="&#317;" /><glyph d="M191 130H561L546 0H36L131 780H271ZM177 -200 208 -62H360L302 -200Z" glyph-name="Lcommaaccent" horiz-adv-x="606" unicode="&#315;" /><glyph d="M191 130H561L546 0H36L131 780H271ZM533 324H383L402 474H552Z" glyph-name="Ldot" horiz-adv-x="606" unicode="&#319;" /><glyph d="M224 310 201 130H571L556 0H46L75 240L-5 203L9 315L89 352L141 780H281L237 422L487 540L473 428Z" glyph-name="Lslash" horiz-adv-x="616" unicode="&#321;" /><glyph d="M359 0 262 390 234 513 209 298 173 0H36L131 780H291L400 355L435 208L506 355L719 780H885L790 0H653L689 298L716 513L658 390L467 0Z" glyph-name="M" horiz-adv-x="906" unicode="M" /><glyph d="M304 402 238 526 217 335 176 0H36L131 780H259L476 378L542 254L563 445L604 780H744L649 0H521Z" glyph-name="N" horiz-adv-x="765" unicode="N" /><glyph d="M304 402 238 526 217 335 176 0H36L131 780H259L476 378L542 254L563 445L604 780H744L649 0H521ZM644 1030 507 822H373L493 1030Z" glyph-name="Nacute" horiz-adv-x="765" unicode="&#323;" /><glyph d="M304 402 238 526 217 335 176 0H36L131 780H259L476 378L542 254L563 445L604 780H744L649 0H521ZM503 822H381L252 1030H386L451 934L542 1030H684Z" glyph-name="Ncaron" horiz-adv-x="765" unicode="&#327;" /><glyph d="M304 402 238 526 217 335 176 0H36L131 780H259L476 378L542 254L563 445L604 780H744L649 0H521ZM229 -200 260 -62H412L354 -200Z" glyph-name="Ncommaaccent" horiz-adv-x="765" unicode="&#325;" /><glyph d="M304 402 238 526 217 335 176 0H36L131 780H259L476 378L542 254L563 445L604 780H744L649 0H521ZM710 1002Q693 914 647 868.5Q601 823 523 825Q487 826 465 837.5Q443 849 427.5 863Q412 877 399 889Q386 901 368 901Q352 902 341 896Q330 890 323 880.5Q316 871 312 859.5Q308 848 306 837L199 850Q216 938 262 983.5Q308 1029 386 1027Q422 1026 444 1014.5Q466 1003 481.5 989Q497 975 510 963Q523 951 541 951Q558 950 568.5 956Q579 962 586 971.5Q593 981 596.5 993Q600 1005 603 1015Z" glyph-name="Ntilde" horiz-adv-x="765" unicode="&#209;" /><glyph d="M363 -14Q282 -14 224 8Q166 30 129 71Q92 112 74.5 170.5Q57 229 57 302Q57 405 81 494.5Q105 584 155 650.5Q205 717 281 755.5Q357 794 462 794Q542 794 600 772.5Q658 751 695.5 710.5Q733 670 751 612.5Q769 555 769 483Q769 380 745 289.5Q721 199 671.5 131.5Q622 64 545 25Q468 -14 363 -14ZM446 664Q374 664 326 633Q278 602 250 552Q222 502 210.5 440Q199 378 199 315Q199 273 207.5 236.5Q216 200 237 173Q258 146 292.5 131Q327 116 379 116Q452 116 499.5 147.5Q547 179 575 229.5Q603 280 614 342.5Q625 405 625 468Q625 510 616.5 546Q608 582 587.5 608Q567 634 532.5 649Q498 664 446 664Z" glyph-name="O" horiz-adv-x="810" unicode="O" /><glyph d="M1093 780 1077 650H694L671 464H1007L992 334H656L630 130H1032L1017 0H379Q221 0 139.5 73Q58 146 58 302Q58 414 85 503Q112 592 164.5 653.5Q217 715 295 747.5Q373 780 474 780ZM458 650Q389 650 340.5 624.5Q292 599 261.5 555Q231 511 217 452Q203 393 203 326Q203 235 246.5 182.5Q290 130 394 130H490L554 650Z" glyph-name="OE" horiz-adv-x="1117" unicode="&#338;" /><glyph d="M667 1030 530 822H396L516 1030ZM363 -14Q282 -14 224 8Q166 30 129 71Q92 112 74.5 170.5Q57 229 57 302Q57 405 81 494.5Q105 584 155 650.5Q205 717 281 755.5Q357 794 462 794Q542 794 600 772.5Q658 751 695.5 710.5Q733 670 751 612.5Q769 555 769 483Q769 380 745 289.5Q721 199 671.5 131.5Q622 64 545 25Q468 -14 363 -14ZM446 664Q374 664 326 633Q278 602 250 552Q222 502 210.5 440Q199 378 199 315Q199 273 207.5 236.5Q216 200 237 173Q258 146 292.5 131Q327 116 379 116Q452 116 499.5 147.5Q547 179 575 229.5Q603 280 614 342.5Q625 405 625 468Q625 510 616.5 546Q608 582 587.5 608Q567 634 532.5 649Q498 664 446 664Z" glyph-name="Oacute" horiz-adv-x="810" unicode="&#211;" /><glyph d="M363 -14Q282 -14 224 8Q166 30 129 71Q92 112 74.5 170.5Q57 229 57 302Q57 405 81 494.5Q105 584 155 650.5Q205 717 281 755.5Q357 794 462 794Q542 794 600 772.5Q658 751 695.5 710.5Q733 670 751 612.5Q769 555 769 483Q769 380 745 289.5Q721 199 671.5 131.5Q622 64 545 25Q468 -14 363 -14ZM446 664Q374 664 326 633Q278 602 250 552Q222 502 210.5 440Q199 378 199 315Q199 273 207.5 236.5Q216 200 237 173Q258 146 292.5 131Q327 116 379 116Q452 116 499.5 147.5Q547 179 575 229.5Q603 280 614 342.5Q625 405 625 468Q625 510 616.5 546Q608 582 587.5 608Q567 634 532.5 649Q498 664 446 664ZM690 1030Q684 979 669 939Q654 899 627 872Q600 845 560 830.5Q520 816 464 816Q408 816 371.5 830.5Q335 845 315 872Q295 899 290 939Q285 979 292 1030H397Q389 979 409 958Q429 937 478 937Q527 937 551 958Q575 979 581 1030Z" glyph-name="Obreve" horiz-adv-x="810" unicode="&#334;" /><glyph d="M363 -14Q282 -14 224 8Q166 30 129 71Q92 112 74.5 170.5Q57 229 57 302Q57 405 81 494.5Q105 584 155 650.5Q205 717 281 755.5Q357 794 462 794Q542 794 600 772.5Q658 751 695.5 710.5Q733 670 751 612.5Q769 555 769 483Q769 380 745 289.5Q721 199 671.5 131.5Q622 64 545 25Q468 -14 363 -14ZM446 664Q374 664 326 633Q278 602 250 552Q222 502 210.5 440Q199 378 199 315Q199 273 207.5 236.5Q216 200 237 173Q258 146 292.5 131Q327 116 379 116Q452 116 499.5 147.5Q547 179 575 229.5Q603 280 614 342.5Q625 405 625 468Q625 510 616.5 546Q608 582 587.5 608Q567 634 532.5 649Q498 664 446 664ZM430 1030H552L681 822H547L482 918L391 822H249Z" glyph-name="Ocircumflex" horiz-adv-x="810" unicode="&#212;" /><glyph d="M434 847H284L303 997H453ZM652 847H502L521 997H671ZM363 -14Q282 -14 224 8Q166 30 129 71Q92 112 74.5 170.5Q57 229 57 302Q57 405 81 494.5Q105 584 155 650.5Q205 717 281 755.5Q357 794 462 794Q542 794 600 772.5Q658 751 695.5 710.5Q733 670 751 612.5Q769 555 769 483Q769 380 745 289.5Q721 199 671.5 131.5Q622 64 545 25Q468 -14 363 -14ZM446 664Q374 664 326 633Q278 602 250 552Q222 502 210.5 440Q199 378 199 315Q199 273 207.5 236.5Q216 200 237 173Q258 146 292.5 131Q327 116 379 116Q452 116 499.5 147.5Q547 179 575 229.5Q603 280 614 342.5Q625 405 625 468Q625 510 616.5 546Q608 582 587.5 608Q567 634 532.5 649Q498 664 446 664Z" glyph-name="Odieresis" horiz-adv-x="810" unicode="&#214;" /><glyph d="M469 1030 537 822H403L318 1030ZM363 -14Q282 -14 224 8Q166 30 129 71Q92 112 74.5 170.5Q57 229 57 302Q57 405 81 494.5Q105 584 155 650.5Q205 717 281 755.5Q357 794 462 794Q542 794 600 772.5Q658 751 695.5 710.5Q733 670 751 612.5Q769 555 769 483Q769 380 745 289.5Q721 199 671.5 131.5Q622 64 545 25Q468 -14 363 -14ZM446 664Q374 664 326 633Q278 602 250 552Q222 502 210.5 440Q199 378 199 315Q199 273 207.5 236.5Q216 200 237 173Q258 146 292.5 131Q327 116 379 116Q452 116 499.5 147.5Q547 179 575 229.5Q603 280 614 342.5Q625 405 625 468Q625 510 616.5 546Q608 582 587.5 608Q567 634 532.5 649Q498 664 446 664Z" glyph-name="Ograve" horiz-adv-x="810" unicode="&#210;" /><glyph d="M576 1030 439 822H304L424 1030ZM762 1030 625 822H491L611 1030ZM363 -14Q282 -14 224 8Q166 30 129 71Q92 112 74.5 170.5Q57 229 57 302Q57 405 81 494.5Q105 584 155 650.5Q205 717 281 755.5Q357 794 462 794Q542 794 600 772.5Q658 751 695.5 710.5Q733 670 751 612.5Q769 555 769 483Q769 380 745 289.5Q721 199 671.5 131.5Q622 64 545 25Q468 -14 363 -14ZM446 664Q374 664 326 633Q278 602 250 552Q222 502 210.5 440Q199 378 199 315Q199 273 207.5 236.5Q216 200 237 173Q258 146 292.5 131Q327 116 379 116Q452 116 499.5 147.5Q547 179 575 229.5Q603 280 614 342.5Q625 405 625 468Q625 510 616.5 546Q608 582 587.5 608Q567 634 532.5 649Q498 664 446 664Z" glyph-name="Ohungarumlaut" horiz-adv-x="810" unicode="&#336;" /><glyph d="M332 990H640L625 865H317ZM363 -14Q282 -14 224 8Q166 30 129 71Q92 112 74.5 170.5Q57 229 57 302Q57 405 81 494.5Q105 584 155 650.5Q205 717 281 755.5Q357 794 462 794Q542 794 600 772.5Q658 751 695.5 710.5Q733 670 751 612.5Q769 555 769 483Q769 380 745 289.5Q721 199 671.5 131.5Q622 64 545 25Q468 -14 363 -14ZM446 664Q374 664 326 633Q278 602 250 552Q222 502 210.5 440Q199 378 199 315Q199 273 207.5 236.5Q216 200 237 173Q258 146 292.5 131Q327 116 379 116Q452 116 499.5 147.5Q547 179 575 229.5Q603 280 614 342.5Q625 405 625 468Q625 510 616.5 546Q608 582 587.5 608Q567 634 532.5 649Q498 664 446 664Z" glyph-name="Omacron" horiz-adv-x="810" unicode="&#332;" /><glyph d="M446 664Q375 664 327.5 634Q280 604 251.5 555Q223 506 211 443Q199 380 199 314Q199 253 216 210L556 636Q514 664 446 664ZM379 116Q450 116 497.5 146Q545 176 573.5 225Q602 274 614 337Q626 400 626 466Q626 495 622 521Q618 547 609 570L269 144Q311 116 379 116ZM708 695Q739 654 753.5 599Q768 544 768 477Q768 374 744 284.5Q720 195 670 128.5Q620 62 544 23.5Q468 -15 363 -15Q250 -14 178 31L154 0H49L117 85Q86 126 71.5 181Q57 236 57 303Q57 406 81 495.5Q105 585 155 651.5Q205 718 281 756.5Q357 795 462 795Q575 794 647 749L671 780H776Z" glyph-name="Oslash" horiz-adv-x="810" unicode="&#216;" /><glyph d="M667 1030 530 822H396L516 1030ZM446 664Q375 664 327.5 634Q280 604 251.5 555Q223 506 211 443Q199 380 199 314Q199 253 216 210L556 636Q514 664 446 664ZM379 116Q450 116 497.5 146Q545 176 573.5 225Q602 274 614 337Q626 400 626 466Q626 495 622 521Q618 547 609 570L269 144Q311 116 379 116ZM708 695Q739 654 753.5 599Q768 544 768 477Q768 374 744 284.5Q720 195 670 128.5Q620 62 544 23.5Q468 -15 363 -15Q250 -14 178 31L154 0H49L117 85Q86 126 71.5 181Q57 236 57 303Q57 406 81 495.5Q105 585 155 651.5Q205 718 281 756.5Q357 795 462 795Q575 794 647 749L671 780H776Z" glyph-name="Oslashacute" horiz-adv-x="810" unicode="&#510;" /><glyph d="M363 -14Q282 -14 224 8Q166 30 129 71Q92 112 74.5 170.5Q57 229 57 302Q57 405 81 494.5Q105 584 155 650.5Q205 717 281 755.5Q357 794 462 794Q542 794 600 772.5Q658 751 695.5 710.5Q733 670 751 612.5Q769 555 769 483Q769 380 745 289.5Q721 199 671.5 131.5Q622 64 545 25Q468 -14 363 -14ZM446 664Q374 664 326 633Q278 602 250 552Q222 502 210.5 440Q199 378 199 315Q199 273 207.5 236.5Q216 200 237 173Q258 146 292.5 131Q327 116 379 116Q452 116 499.5 147.5Q547 179 575 229.5Q603 280 614 342.5Q625 405 625 468Q625 510 616.5 546Q608 582 587.5 608Q567 634 532.5 649Q498 664 446 664ZM733 1002Q716 914 670 868.5Q624 823 546 825Q510 826 488 837.5Q466 849 450.5 863Q435 877 422 889Q409 901 391 901Q375 902 364 896Q353 890 346 880.5Q339 871 335 859.5Q331 848 329 837L222 850Q239 938 285 983.5Q331 1029 409 1027Q445 1026 467 1014.5Q489 1003 504.5 989Q520 975 533 963Q546 951 564 951Q581 950 591.5 956Q602 962 609 971.5Q616 981 619.5 993Q623 1005 626 1015Z" glyph-name="Otilde" horiz-adv-x="810" unicode="&#213;" /><glyph d="M176 0H36L131 780H427Q472 780 515 771.5Q558 763 592 740.5Q626 718 646.5 679.5Q667 641 667 582Q667 501 641 445.5Q615 390 572.5 356.5Q530 323 476.5 308Q423 293 368 293H211ZM395 424Q416 424 438.5 430Q461 436 479.5 452Q498 468 510 494.5Q522 521 522 562Q522 591 512.5 608.5Q503 626 488.5 635Q474 644 456.5 647Q439 650 422 650H255L228 424H395Z" glyph-name="P" horiz-adv-x="669" unicode="P" /><glyph d="M446 664Q374 664 326 633Q278 602 250 552Q222 502 210.5 440Q199 378 199 315Q199 273 207.5 236.5Q216 200 237 173Q258 146 292.5 131Q327 116 379 116Q452 116 499.5 147.5Q547 179 575 229.5Q603 280 614 342.5Q625 405 625 468Q625 510 616.5 546Q608 582 587.5 608Q567 634 532.5 649Q498 664 446 664ZM570 0 750 -64 732 -211 222 8Q137 41 97 114.5Q57 188 57 302Q57 405 81 495Q105 585 154.5 651.5Q204 718 280.5 756Q357 794 462 794Q542 794 600 772.5Q658 751 695.5 710.5Q733 670 751 612.5Q769 555 769 483Q769 407 754.5 333.5Q740 260 710 197.5Q680 135 634 87.5Q588 40 524 16V15Z" glyph-name="Q" horiz-adv-x="810" unicode="Q" /><glyph d="M176 0H36L131 780H453Q500 780 543 771.5Q586 763 619 741.5Q652 720 672 683Q692 646 692 588Q692 524 677 478Q662 432 636.5 400.5Q611 369 577.5 350Q544 331 508 321L658 0H499L361 306H213ZM420 437Q439 437 461 440.5Q483 444 502.5 457.5Q522 471 535 496.5Q548 522 548 567Q548 596 538.5 612.5Q529 629 514 637Q499 645 481 647.5Q463 650 446 650H255L229 437Z" glyph-name="R" horiz-adv-x="726" unicode="R" /><glyph d="M607 1030 470 822H336L456 1030ZM176 0H36L131 780H453Q500 780 543 771.5Q586 763 619 741.5Q652 720 672 683Q692 646 692 588Q692 524 677 478Q662 432 636.5 400.5Q611 369 577.5 350Q544 331 508 321L658 0H499L361 306H213ZM420 437Q439 437 461 440.5Q483 444 502.5 457.5Q522 471 535 496.5Q548 522 548 567Q548 596 538.5 612.5Q529 629 514 637Q499 645 481 647.5Q463 650 446 650H255L229 437Z" glyph-name="Racute" horiz-adv-x="725" unicode="&#340;" /><glyph d="M176 0H36L131 780H453Q500 780 543 771.5Q586 763 619 741.5Q652 720 672 683Q692 646 692 588Q692 524 677 478Q662 432 636.5 400.5Q611 369 577.5 350Q544 331 508 321L658 0H499L361 306H213ZM420 437Q439 437 461 440.5Q483 444 502.5 457.5Q522 471 535 496.5Q548 522 548 567Q548 596 538.5 612.5Q529 629 514 637Q499 645 481 647.5Q463 650 446 650H255L229 437ZM466 822H344L215 1030H349L414 934L505 1030H647Z" glyph-name="Rcaron" horiz-adv-x="725" unicode="&#344;" /><glyph d="M176 0H36L131 780H453Q500 780 543 771.5Q586 763 619 741.5Q652 720 672 683Q692 646 692 588Q692 524 677 478Q662 432 636.5 400.5Q611 369 577.5 350Q544 331 508 321L658 0H499L361 306H213ZM420 437Q439 437 461 440.5Q483 444 502.5 457.5Q522 471 535 496.5Q548 522 548 567Q548 596 538.5 612.5Q529 629 514 637Q499 645 481 647.5Q463 650 446 650H255L229 437ZM211 -200 242 -62H394L336 -200Z" glyph-name="Rcommaaccent" horiz-adv-x="726" unicode="&#342;" /><glyph d="M323 -14Q178 -14 110.5 39Q43 92 37 191L181 240Q181 171 219.5 143.5Q258 116 339 116Q370 116 402 123Q434 130 460.5 146Q487 162 503.5 187.5Q520 213 520 249Q520 291 485 312.5Q450 334 362 341Q312 346 265.5 355.5Q219 365 183 385Q147 405 125 439Q103 473 103 526Q103 596 129.5 646.5Q156 697 200 730Q244 763 300 778.5Q356 794 415 794Q556 794 622.5 740Q689 686 696 590L553 541Q553 610 516.5 637Q480 664 399 664Q379 664 352.5 659Q326 654 302 640.5Q278 627 261 603.5Q244 580 244 543Q244 526 250.5 514Q257 502 273.5 493Q290 484 317 478Q344 472 385 467Q450 461 501.5 451Q553 441 588.5 420Q624 399 642.5 364.5Q661 330 661 276Q661 199 632 144Q603 89 555.5 54Q508 19 447.5 2.5Q387 -14 323 -14Z" glyph-name="S" horiz-adv-x="723" unicode="S" /><glyph d="M323 -14Q178 -14 110.5 39Q43 92 37 191L181 240Q181 171 219.5 143.5Q258 116 339 116Q370 116 402 123Q434 130 460.5 146Q487 162 503.5 187.5Q520 213 520 249Q520 291 485 312.5Q450 334 362 341Q312 346 265.5 355.5Q219 365 183 385Q147 405 125 439Q103 473 103 526Q103 596 129.5 646.5Q156 697 200 730Q244 763 300 778.5Q356 794 415 794Q556 794 622.5 740Q689 686 696 590L553 541Q553 610 516.5 637Q480 664 399 664Q379 664 352.5 659Q326 654 302 640.5Q278 627 261 603.5Q244 580 244 543Q244 526 250.5 514Q257 502 273.5 493Q290 484 317 478Q344 472 385 467Q450 461 501.5 451Q553 441 588.5 420Q624 399 642.5 364.5Q661 330 661 276Q661 199 632 144Q603 89 555.5 54Q508 19 447.5 2.5Q387 -14 323 -14ZM626 1030 489 822H355L475 1030Z" glyph-name="Sacute" horiz-adv-x="723" unicode="&#346;" /><glyph d="M323 -14Q178 -14 110.5 39Q43 92 37 191L181 240Q181 171 219.5 143.5Q258 116 339 116Q370 116 402 123Q434 130 460.5 146Q487 162 503.5 187.5Q520 213 520 249Q520 291 485 312.5Q450 334 362 341Q312 346 265.5 355.5Q219 365 183 385Q147 405 125 439Q103 473 103 526Q103 596 129.5 646.5Q156 697 200 730Q244 763 300 778.5Q356 794 415 794Q556 794 622.5 740Q689 686 696 590L553 541Q553 610 516.5 637Q480 664 399 664Q379 664 352.5 659Q326 654 302 640.5Q278 627 261 603.5Q244 580 244 543Q244 526 250.5 514Q257 502 273.5 493Q290 484 317 478Q344 472 385 467Q450 461 501.5 451Q553 441 588.5 420Q624 399 642.5 364.5Q661 330 661 276Q661 199 632 144Q603 89 555.5 54Q508 19 447.5 2.5Q387 -14 323 -14ZM485 822H363L234 1030H368L433 934L524 1030H666Z" glyph-name="Scaron" horiz-adv-x="723" unicode="&#352;" /><glyph d="M661 276Q661 206 636.5 154Q612 102 571 66.5Q530 31 477 12Q424 -7 366 -12L357 -35Q372 -39 386.5 -45Q401 -51 412.5 -60.5Q424 -70 431 -83Q438 -96 438 -113Q438 -139 425.5 -158Q413 -177 392 -189.5Q371 -202 343.5 -208Q316 -214 286 -214Q244 -214 217 -206.5Q190 -199 179 -194L208 -130Q209 -132 227 -139Q245 -146 268 -146Q284 -146 299 -139.5Q314 -133 314 -116Q314 -99 292.5 -89.5Q271 -80 236 -76L266 -12Q150 -2 96 49.5Q42 101 37 191L181 240Q181 171 219.5 143.5Q258 116 339 116Q370 116 402 123Q434 130 460.5 146Q487 162 503.5 187.5Q520 213 520 249Q520 291 485 312.5Q450 334 362 341Q312 346 265.5 355.5Q219 365 183 385Q147 405 125 439Q103 473 103 526Q103 596 129.5 646.5Q156 697 200 730Q244 763 300 778.5Q356 794 415 794Q556 794 622.5 740Q689 686 696 590L553 541Q553 610 516.5 637Q480 664 399 664Q379 664 352.5 659Q326 654 302 640.5Q278 627 261 603.5Q244 580 244 543Q244 526 250.5 514Q257 502 273.5 493Q290 484 317 478Q344 472 385 467Q450 461 501.5 451Q553 441 588.5 420Q624 399 642.5 364.5Q661 330 661 276Z" glyph-name="Scedilla" horiz-adv-x="723" unicode="&#350;" /><glyph d="M323 -14Q178 -14 110.5 39Q43 92 37 191L181 240Q181 171 219.5 143.5Q258 116 339 116Q370 116 402 123Q434 130 460.5 146Q487 162 503.5 187.5Q520 213 520 249Q520 291 485 312.5Q450 334 362 341Q312 346 265.5 355.5Q219 365 183 385Q147 405 125 439Q103 473 103 526Q103 596 129.5 646.5Q156 697 200 730Q244 763 300 778.5Q356 794 415 794Q556 794 622.5 740Q689 686 696 590L553 541Q553 610 516.5 637Q480 664 399 664Q379 664 352.5 659Q326 654 302 640.5Q278 627 261 603.5Q244 580 244 543Q244 526 250.5 514Q257 502 273.5 493Q290 484 317 478Q344 472 385 467Q450 461 501.5 451Q553 441 588.5 420Q624 399 642.5 364.5Q661 330 661 276Q661 199 632 144Q603 89 555.5 54Q508 19 447.5 2.5Q387 -14 323 -14ZM389 1030H511L640 822H506L441 918L350 822H208Z" glyph-name="Scircumflex" horiz-adv-x="723" unicode="&#348;" /><glyph d="M323 -14Q178 -14 110.5 39Q43 92 37 191L181 240Q181 171 219.5 143.5Q258 116 339 116Q370 116 402 123Q434 130 460.5 146Q487 162 503.5 187.5Q520 213 520 249Q520 291 485 312.5Q450 334 362 341Q312 346 265.5 355.5Q219 365 183 385Q147 405 125 439Q103 473 103 526Q103 596 129.5 646.5Q156 697 200 730Q244 763 300 778.5Q356 794 415 794Q556 794 622.5 740Q689 686 696 590L553 541Q553 610 516.5 637Q480 664 399 664Q379 664 352.5 659Q326 654 302 640.5Q278 627 261 603.5Q244 580 244 543Q244 526 250.5 514Q257 502 273.5 493Q290 484 317 478Q344 472 385 467Q450 461 501.5 451Q553 441 588.5 420Q624 399 642.5 364.5Q661 330 661 276Q661 199 632 144Q603 89 555.5 54Q508 19 447.5 2.5Q387 -14 323 -14ZM206 -200 237 -62H389L331 -200Z" glyph-name="Scommaaccent" horiz-adv-x="723" unicode="&#536;" /><glyph d="M350 0H210L289 650H62L78 780H672L656 650H429Z" glyph-name="T" horiz-adv-x="640" unicode="T" /><glyph d="M405 452H509L496 348H392L350 0H210L252 348H148L161 452H265L289 650H62L78 780H672L656 650H429Z" glyph-name="Tbar" horiz-adv-x="646" unicode="&#358;" /><glyph d="M350 0H210L289 650H62L78 780H672L656 650H429ZM441 822H319L190 1030H324L389 934L480 1030H622Z" glyph-name="Tcaron" horiz-adv-x="640" unicode="&#356;" /><glyph d="M350 0H210L289 650H62L78 780H672L656 650H429ZM165 -200 196 -62H348L290 -200Z" glyph-name="Tcommaaccent" horiz-adv-x="640" unicode="&#354;" /><glyph d="M649 435Q649 354 623 298.5Q597 243 554.5 209.5Q512 176 458.5 161Q405 146 350 146H193L176 0H36L131 780H271L253 634H410Q455 634 498 625.5Q541 617 574.5 594.5Q608 572 628.5 533.5Q649 495 649 435ZM237 503 210 277H377Q395 277 417.5 281.5Q440 286 459 300Q478 314 491 341.5Q504 369 504 415Q504 444 494.5 461.5Q485 479 470.5 488Q456 497 438.5 500Q421 503 404 503Z" glyph-name="Thorn" horiz-adv-x="674" unicode="&#222;" /><glyph d="M347 -14Q255 -14 197 9Q139 32 107 72Q75 112 66.5 166.5Q58 221 65 285L126 780H266L205 285Q201 249 204.5 218.5Q208 188 224.5 165Q241 142 274.5 129Q308 116 363 116Q419 116 455 129Q491 142 513.5 165Q536 188 546.5 218.5Q557 249 561 285L622 780H762L701 285Q694 221 672 166.5Q650 112 608 72Q566 32 502 9Q438 -14 347 -14Z" glyph-name="U" horiz-adv-x="772" unicode="U" /><glyph d="M347 -14Q256 -14 197.5 9Q139 32 107 72Q75 112 66.5 166.5Q58 221 65 285L126 780H266L205 285Q201 249 204.5 218.5Q208 188 224.5 165Q241 142 274.5 129Q308 116 363 116Q419 116 455 129Q491 142 513.5 165Q536 188 546.5 218.5Q557 249 561 285L622 780H762L701 285Q694 221 671.5 166.5Q649 112 607.5 72Q566 32 502 9Q438 -14 347 -14ZM651 1030 514 822H380L500 1030Z" glyph-name="Uacute" horiz-adv-x="772" unicode="&#218;" /><glyph d="M347 -14Q255 -14 197 9Q139 32 107 72Q75 112 66.5 166.5Q58 221 65 285L126 780H266L205 285Q201 249 204.5 218.5Q208 188 224.5 165Q241 142 274.5 129Q308 116 363 116Q419 116 455 129Q491 142 513.5 165Q536 188 546.5 218.5Q557 249 561 285L622 780H762L701 285Q694 221 672 166.5Q650 112 608 72Q566 32 502 9Q438 -14 347 -14ZM674 1030Q668 979 653 939Q638 899 611 872Q584 845 544 830.5Q504 816 448 816Q392 816 355.5 830.5Q319 845 299 872Q279 899 274 939Q269 979 276 1030H381Q373 979 393 958Q413 937 462 937Q511 937 535 958Q559 979 565 1030Z" glyph-name="Ubreve" horiz-adv-x="772" unicode="&#364;" /><glyph d="M347 -14Q256 -14 197.5 9Q139 32 107 72Q75 112 66.5 166.5Q58 221 65 285L126 780H266L205 285Q201 249 204.5 218.5Q208 188 224.5 165Q241 142 274.5 129Q308 116 363 116Q419 116 455 129Q491 142 513.5 165Q536 188 546.5 218.5Q557 249 561 285L622 780H762L701 285Q694 221 671.5 166.5Q649 112 607.5 72Q566 32 502 9Q438 -14 347 -14ZM414 1030H536L665 822H531L466 918L375 822H233Z" glyph-name="Ucircumflex" horiz-adv-x="772" unicode="&#219;" /><glyph d="M347 -14Q256 -14 197.5 9Q139 32 107 72Q75 112 66.5 166.5Q58 221 65 285L126 780H266L205 285Q201 249 204.5 218.5Q208 188 224.5 165Q241 142 274.5 129Q308 116 363 116Q419 116 455 129Q491 142 513.5 165Q536 188 546.5 218.5Q557 249 561 285L622 780H762L701 285Q694 221 671.5 166.5Q649 112 607.5 72Q566 32 502 9Q438 -14 347 -14ZM636 847H486L505 997H655ZM418 847H268L287 997H437Z" glyph-name="Udieresis" horiz-adv-x="772" unicode="&#220;" /><glyph d="M347 -14Q256 -14 197.5 9Q139 32 107 72Q75 112 66.5 166.5Q58 221 65 285L126 780H266L205 285Q201 249 204.5 218.5Q208 188 224.5 165Q241 142 274.5 129Q308 116 363 116Q419 116 455 129Q491 142 513.5 165Q536 188 546.5 218.5Q557 249 561 285L622 780H762L701 285Q694 221 671.5 166.5Q649 112 607.5 72Q566 32 502 9Q438 -14 347 -14ZM453 1030 521 822H387L302 1030Z" glyph-name="Ugrave" horiz-adv-x="772" unicode="&#217;" /><glyph d="M347 -14Q256 -14 197.5 9Q139 32 107 72Q75 112 66.5 166.5Q58 221 65 285L126 780H266L205 285Q201 249 204.5 218.5Q208 188 224.5 165Q241 142 274.5 129Q308 116 363 116Q419 116 455 129Q491 142 513.5 165Q536 188 546.5 218.5Q557 249 561 285L622 780H762L701 285Q694 221 671.5 166.5Q649 112 607.5 72Q566 32 502 9Q438 -14 347 -14ZM560 1030 423 822H288L408 1030ZM746 1030 609 822H475L595 1030Z" glyph-name="Uhungarumlaut" horiz-adv-x="772" unicode="&#368;" /><glyph d="M347 -14Q256 -14 197.5 9Q139 32 107 72Q75 112 66.5 166.5Q58 221 65 285L126 780H266L205 285Q201 249 204.5 218.5Q208 188 224.5 165Q241 142 274.5 129Q308 116 363 116Q419 116 455 129Q491 142 513.5 165Q536 188 546.5 218.5Q557 249 561 285L622 780H762L701 285Q694 221 671.5 166.5Q649 112 607.5 72Q566 32 502 9Q438 -14 347 -14ZM316 990H624L609 865H301Z" glyph-name="Umacron" horiz-adv-x="772" unicode="&#362;" /><glyph d="M701 285Q695 232 678.5 185.5Q662 139 633.5 101.5Q605 64 562.5 37.5Q520 11 460 -2L459 -3Q415 -15 388 -39.5Q361 -64 361 -88Q361 -99 367.5 -107.5Q374 -116 394 -116Q405 -116 415.5 -113Q426 -110 435 -106.5Q444 -103 450 -100Q456 -97 456 -97L473 -189Q456 -199 428 -206.5Q400 -214 366 -214Q311 -214 281 -188Q251 -162 251 -113Q251 -83 261.5 -58Q272 -33 290 -11Q215 -5 167.5 22Q120 49 95 89.5Q70 130 64 180.5Q58 231 65 285L126 780H266L205 285Q199 250 203 219Q207 188 224.5 165Q242 142 275.5 129Q309 116 363 116Q419 116 455 129Q491 142 513 165Q535 188 546 218.5Q557 249 561 285L622 780H762L701 285Z" glyph-name="Uogonek" horiz-adv-x="772" unicode="&#370;" /><glyph d="M347 -14Q256 -14 197.5 9Q139 32 107 72Q75 112 66.5 166.5Q58 221 65 285L126 780H266L205 285Q201 249 204.5 218.5Q208 188 224.5 165Q241 142 274.5 129Q308 116 363 116Q419 116 455 129Q491 142 513.5 165Q536 188 546.5 218.5Q557 249 561 285L622 780H762L701 285Q694 221 671.5 166.5Q649 112 607.5 72Q566 32 502 9Q438 -14 347 -14ZM447 808Q396 808 369.5 836Q343 864 343 908Q343 936 352.5 961Q362 986 379.5 1004.5Q397 1023 421.5 1033.5Q446 1044 477 1044Q528 1044 554.5 1016Q581 988 581 944Q581 916 571.5 891Q562 866 544.5 847.5Q527 829 502.5 818.5Q478 808 447 808ZM458 891Q476 891 486.5 902.5Q497 914 497 932Q497 961 466 961Q448 961 437.5 949.5Q427 938 427 920Q427 891 458 891Z" glyph-name="Uring" horiz-adv-x="772" unicode="&#366;" /><glyph d="M347 -14Q256 -14 197.5 9Q139 32 107 72Q75 112 66.5 166.5Q58 221 65 285L126 780H266L205 285Q201 249 204.5 218.5Q208 188 224.5 165Q241 142 274.5 129Q308 116 363 116Q419 116 455 129Q491 142 513.5 165Q536 188 546.5 218.5Q557 249 561 285L622 780H762L701 285Q694 221 671.5 166.5Q649 112 607.5 72Q566 32 502 9Q438 -14 347 -14ZM717 1002Q700 914 654 868.5Q608 823 530 825Q494 826 472 837.5Q450 849 434.5 863Q419 877 406 889Q393 901 375 901Q359 902 348 896Q337 890 330 880.5Q323 871 319 859.5Q315 848 313 837L206 850Q223 938 269 983.5Q315 1029 393 1027Q429 1026 451 1014.5Q473 1003 488.5 989Q504 975 517 963Q530 951 548 951Q565 950 575.5 956Q586 962 593 971.5Q600 981 603.5 993Q607 1005 610 1015Z" glyph-name="Utilde" horiz-adv-x="772" unicode="&#360;" /><glyph d="M347 164 433 351 631 780H789L398 -14H260L63 780H214L308 351Z" glyph-name="V" horiz-adv-x="742" unicode="V" /><glyph d="M507 551 444 403 263 -14H146L80 780H225L247 420L253 264L317 420L474 780H592L661 420L689 264L734 418L845 780H990L730 -14H613L534 403Z" glyph-name="W" horiz-adv-x="960" unicode="W" /><glyph d="M752 1030 615 822H481L601 1030ZM507 551 444 403 263 -14H146L80 780H225L247 420L253 264L317 420L474 780H592L661 420L689 264L734 418L845 780H990L730 -14H613L534 403Z" glyph-name="Wacute" horiz-adv-x="960" unicode="&#7810;" /><glyph d="M507 551 444 403 263 -14H146L80 780H225L247 420L253 264L317 420L474 780H592L661 420L689 264L734 418L845 780H990L730 -14H613L534 403ZM505 1030H627L756 822H622L557 918L466 822H324Z" glyph-name="Wcircumflex" horiz-adv-x="960" unicode="&#372;" /><glyph d="M509 847H359L378 997H528ZM727 847H577L596 997H746ZM507 551 444 403 263 -14H146L80 780H225L247 420L253 264L317 420L474 780H592L661 420L689 264L734 418L845 780H990L730 -14H613L534 403Z" glyph-name="Wdieresis" horiz-adv-x="960" unicode="&#7812;" /><glyph d="M531 1030 599 822H465L380 1030ZM507 551 444 403 263 -14H146L80 780H225L247 420L253 264L317 420L474 780H592L661 420L689 264L734 418L845 780H990L730 -14H613L534 403Z" glyph-name="Wgrave" horiz-adv-x="960" unicode="&#7808;" /><glyph d="M378 284 298 180 156 0H-15L245 323L309 400L262 482L95 780H258L348 614L401 515L478 614L608 780H777L538 482L471 400L515 323L697 0H532L434 180Z" glyph-name="X" horiz-adv-x="762" unicode="X" /><glyph d="M390 0H250L289 323L43 780H200L320 548L370 447L446 548L622 780H787L429 323Z" glyph-name="Y" horiz-adv-x="720" unicode="Y" /><glyph d="M622 1030 485 822H351L471 1030ZM390 0H250L289 323L43 780H200L320 548L370 447L446 548L622 780H787L429 323Z" glyph-name="Yacute" horiz-adv-x="720" unicode="&#221;" /><glyph d="M390 0H250L289 323L43 780H200L320 548L370 447L446 548L622 780H787L429 323ZM385 1030H507L636 822H502L437 918L346 822H204Z" glyph-name="Ycircumflex" horiz-adv-x="720" unicode="&#374;" /><glyph d="M607 847H457L476 997H626ZM389 847H239L258 997H408ZM390 0H250L289 323L43 780H200L320 548L370 447L446 548L622 780H787L429 323Z" glyph-name="Ydieresis" horiz-adv-x="720" unicode="&#376;" /><glyph d="M390 0H250L289 323L43 780H204L324 548L372 450L446 548L622 780H787L429 323ZM424 1030 492 822H358L273 1030Z" glyph-name="Ygrave" horiz-adv-x="720" unicode="&#7922;" /><glyph d="M12 108 504 651 350 650H97L113 780H709L695 672L203 129L357 130H629L614 0H-2Z" glyph-name="Z" horiz-adv-x="694" unicode="Z" /><glyph d="M606 1030 469 822H335L455 1030ZM12 108 504 651 350 650H97L113 780H709L695 672L203 129L357 130H629L614 0H-2Z" glyph-name="Zacute" horiz-adv-x="694" unicode="&#377;" /><glyph d="M12 108 504 651 350 650H97L113 780H709L695 672L203 129L357 130H629L614 0H-2ZM465 822H343L214 1030H348L413 934L504 1030H646Z" glyph-name="Zcaron" horiz-adv-x="694" unicode="&#381;" /><glyph d="M482 847H332L351 997H501ZM12 108 504 651 350 650H97L113 780H709L695 672L203 129L357 130H629L614 0H-2Z" glyph-name="Zdotaccent" horiz-adv-x="694" unicode="&#379;" /><glyph d="M569 387 539 143 531 0H406L401 56Q376 25 332.5 5.5Q289 -14 241 -14Q135 -14 82 41.5Q29 97 29 203Q29 278 47.5 340.5Q66 403 101.5 448.5Q137 494 189 519Q241 544 309 544Q357 544 396.5 524.5Q436 505 453 474L471 530H596ZM426 327Q425 344 416.5 359.5Q408 375 393 388Q378 401 357 408.5Q336 416 310 416Q282 416 256.5 405Q231 394 212 371Q193 348 181.5 313.5Q170 279 170 231Q170 171 197 142.5Q224 114 272 114Q298 114 321 121.5Q344 129 362 142Q380 155 392.5 171Q405 187 410 203Z" glyph-name="a" horiz-adv-x="638" unicode="a" /><glyph d="M535 800 398 592H264L384 800ZM569 387 539 143 531 0H406L401 56Q376 25 332.5 5.5Q289 -14 241 -14Q135 -14 82 41.5Q29 97 29 203Q29 278 47.5 340.5Q66 403 101.5 448.5Q137 494 189 519Q241 544 309 544Q357 544 396.5 524.5Q436 505 453 474L471 530H596ZM426 327Q425 344 416.5 359.5Q408 375 393 388Q378 401 357 408.5Q336 416 310 416Q282 416 256.5 405Q231 394 212 371Q193 348 181.5 313.5Q170 279 170 231Q170 171 197 142.5Q224 114 272 114Q298 114 321 121.5Q344 129 362 142Q380 155 392.5 171Q405 187 410 203Z" glyph-name="aacute" horiz-adv-x="638" unicode="&#225;" /><glyph d="M569 387 539 143 531 0H406L401 56Q376 25 332.5 5.5Q289 -14 241 -14Q135 -14 82 41.5Q29 97 29 203Q29 278 47.5 340.5Q66 403 101.5 448.5Q137 494 189 519Q241 544 309 544Q357 544 396.5 524.5Q436 505 453 474L471 530H596ZM426 327Q425 344 416.5 359.5Q408 375 393 388Q378 401 357 408.5Q336 416 310 416Q282 416 256.5 405Q231 394 212 371Q193 348 181.5 313.5Q170 279 170 231Q170 171 197 142.5Q224 114 272 114Q298 114 321 121.5Q344 129 362 142Q380 155 392.5 171Q405 187 410 203ZM558 800Q552 749 537 709Q522 669 495 642Q468 615 428 600.5Q388 586 332 586Q276 586 239.5 600.5Q203 615 183 642Q163 669 158 709Q153 749 160 800H265Q257 749 277 728Q297 707 346 707Q395 707 419 728Q443 749 449 800Z" glyph-name="abreve" horiz-adv-x="638" unicode="&#259;" /><glyph d="M298 800H420L549 592H415L350 688L259 592H117ZM569 387 539 143 531 0H406L401 56Q376 25 332.5 5.5Q289 -14 241 -14Q135 -14 82 41.5Q29 97 29 203Q29 278 47.5 340.5Q66 403 101.5 448.5Q137 494 189 519Q241 544 309 544Q357 544 396.5 524.5Q436 505 453 474L471 530H596ZM426 327Q425 344 416.5 359.5Q408 375 393 388Q378 401 357 408.5Q336 416 310 416Q282 416 256.5 405Q231 394 212 371Q193 348 181.5 313.5Q170 279 170 231Q170 171 197 142.5Q224 114 272 114Q298 114 321 121.5Q344 129 362 142Q380 155 392.5 171Q405 187 410 203Z" glyph-name="acircumflex" horiz-adv-x="638" unicode="&#226;" /><glyph d="M534 800 397 592H263L383 800Z" glyph-name="acute" horiz-adv-x="600" unicode="&#180;" /><glyph d="M520 617H370L389 767H539ZM302 617H152L171 767H321ZM569 387 539 143 531 0H406L401 56Q376 25 332.5 5.5Q289 -14 241 -14Q135 -14 82 41.5Q29 97 29 203Q29 278 47.5 340.5Q66 403 101.5 448.5Q137 494 189 519Q241 544 309 544Q357 544 396.5 524.5Q436 505 453 474L471 530H596ZM426 327Q425 344 416.5 359.5Q408 375 393 388Q378 401 357 408.5Q336 416 310 416Q282 416 256.5 405Q231 394 212 371Q193 348 181.5 313.5Q170 279 170 231Q170 171 197 142.5Q224 114 272 114Q298 114 321 121.5Q344 129 362 142Q380 155 392.5 171Q405 187 410 203Z" glyph-name="adieresis" horiz-adv-x="638" unicode="&#228;" /><glyph d="M254 213Q214 213 190 198.5Q166 184 166 147Q166 126 181 114Q196 102 225 102Q258 102 285 110.5Q312 119 333 132.5Q354 146 367.5 162.5Q381 179 386 196L388 213H254ZM675 425Q624 425 590.5 400Q557 375 545 320H767Q772 369 749.5 397Q727 425 675 425ZM531 213Q527 159 556.5 132Q586 105 638 105Q692 105 717.5 122.5Q743 140 752 168L880 124Q868 95 848.5 70Q829 45 798.5 26Q768 7 726 -3.5Q684 -14 627 -14Q492 -14 431 67Q379 20 323 3Q267 -14 199 -14Q150 -14 116 -4Q82 6 60.5 24Q39 42 29.5 67Q20 92 20 123Q20 175 39.5 212Q59 249 93 273Q127 297 172.5 308.5Q218 320 270 320H401L404 350Q409 393 383 409Q357 425 301 425Q255 425 233 406.5Q211 388 202 357L75 400Q86 431 104 457Q122 483 151 502.5Q180 522 222 533Q264 544 322 544Q447 544 495 479Q572 544 688 544Q798 544 854 488.5Q910 433 910 325Q910 297 907.5 265Q905 233 900 213Z" glyph-name="ae" horiz-adv-x="957" unicode="&#230;" /><glyph d="M254 213Q214 213 190 198.5Q166 184 166 147Q166 126 181 114Q196 102 225 102Q258 102 285 110.5Q312 119 333 132.5Q354 146 367.5 162.5Q381 179 386 196L388 213H254ZM675 425Q624 425 590.5 400Q557 375 545 320H767Q772 369 749.5 397Q727 425 675 425ZM531 213Q527 159 556.5 132Q586 105 638 105Q692 105 717.5 122.5Q743 140 752 168L880 124Q868 95 848.5 70Q829 45 798.5 26Q768 7 726 -3.5Q684 -14 627 -14Q492 -14 431 67Q379 20 323 3Q267 -14 199 -14Q150 -14 116 -4Q82 6 60.5 24Q39 42 29.5 67Q20 92 20 123Q20 175 39.5 212Q59 249 93 273Q127 297 172.5 308.5Q218 320 270 320H401L404 350Q409 393 383 409Q357 425 301 425Q255 425 233 406.5Q211 388 202 357L75 400Q86 431 104 457Q122 483 151 502.5Q180 522 222 533Q264 544 322 544Q447 544 495 479Q572 544 688 544Q798 544 854 488.5Q910 433 910 325Q910 297 907.5 265Q905 233 900 213ZM712 800 575 592H441L561 800Z" glyph-name="aeacute" horiz-adv-x="957" unicode="&#509;" /><glyph d="M1348 272H38L54 400H1364Z" glyph-name="afii00208" horiz-adv-x="1400" unicode="&#8213;" /><glyph d="M346 790H510L698 0H549L509 177H201L119 0H-34ZM355 518 255 295H485L439 518L413 650Z" glyph-name="afii10017" horiz-adv-x="744" unicode="&#1040;" /><glyph d="M231 464H432Q478 464 520 456.5Q562 449 594.5 428Q627 407 646 371Q665 335 665 278Q665 191 639.5 136.5Q614 82 572.5 52Q531 22 479.5 11Q428 0 376 0H35L130 780H640L624 650H254ZM190 130H389Q417 130 440.5 136Q464 142 481.5 156Q499 170 509 193.5Q519 217 519 253Q519 299 491 316.5Q463 334 415 334H216Z" glyph-name="afii10018" horiz-adv-x="719" unicode="&#1041;" /><glyph d="M36 0 131 780H465Q500 780 537 773Q574 766 604 746.5Q634 727 653.5 692Q673 657 673 602Q673 564 665 532.5Q657 501 643.5 477Q630 453 614 436Q598 419 581 409Q615 394 636 358Q657 322 657 266Q657 189 633 137.5Q609 86 569.5 55.5Q530 25 479.5 12.5Q429 0 375 0ZM383 130Q401 130 423.5 133Q446 136 466 148Q486 160 499.5 184.5Q513 209 513 252Q513 280 504 296Q495 312 480.5 320.5Q466 329 448.5 331.5Q431 334 413 334H217L191 130ZM255 650 232 464H416Q439 464 459.5 469Q480 474 495 486.5Q510 499 518.5 521.5Q527 544 527 580Q527 602 521 615.5Q515 629 503.5 636.5Q492 644 476 647Q460 650 439 650Z" glyph-name="afii10019" horiz-adv-x="716" unicode="&#1042;" /><glyph d="M175 0H35L130 780H640L624 650H254Z" glyph-name="afii10020" horiz-adv-x="585" unicode="&#1043;" /><glyph d="M647 130H754L719 -160H581L601 0H112L92 -160H-44L-10 130H10Q45 130 73 146.5Q101 163 125.5 201Q150 239 172 301.5Q194 364 216 456L296 780H727ZM357 432Q339 361 323 311Q307 261 292 226.5Q277 192 261 169.5Q245 147 226 130H507L571 650H411Z" glyph-name="afii10021" horiz-adv-x="803" unicode="&#1044;" /><glyph d="M683 780 667 650H254L231 464H597L582 334H216L190 130H622L607 0H35L130 780Z" glyph-name="afii10022" horiz-adv-x="697" unicode="&#1045;" /><glyph d="M683 780 667 650H254L231 464H597L582 334H216L190 130H622L607 0H35L130 780ZM598 847H448L467 997H617ZM380 847H230L249 997H399Z" glyph-name="afii10023" horiz-adv-x="697" unicode="&#1025;" /><glyph d="M854 482Q837 457 817 435.5Q797 414 771 400Q796 386 812 364Q828 342 839 316L970 0H799L694 279Q682 311 664 323.5Q646 336 615 336H579L538 0H398L439 336H404Q372 336 351.5 323.5Q331 311 311 279L138 0H-33L174 316Q192 342 213 364Q234 386 263 400Q240 414 225.5 435.5Q211 457 200 482L77 780H248L345 519Q357 487 375 474.5Q393 462 424 462H454L493 780H633L594 462H625Q656 462 676.5 474.5Q697 487 717 519L879 780H1050Z" glyph-name="afii10024" horiz-adv-x="1017" unicode="&#1046;" /><glyph d="M652 250Q652 182 625.5 132Q599 82 552 49.5Q505 17 441 1.5Q377 -14 301 -14Q157 -14 90 41.5Q23 97 19 191L163 241Q163 204 173 180Q183 156 202.5 141.5Q222 127 251 121Q280 115 317 115Q410 115 463 143.5Q516 172 516 245Q516 276 503 293.5Q490 311 469 319.5Q448 328 420.5 330Q393 332 364 332H247L263 457H380Q408 457 434.5 460Q461 463 481.5 474Q502 485 514.5 508Q527 531 527 570Q527 594 516 610.5Q505 627 486.5 637Q468 647 443 651Q418 655 389 655Q348 655 317.5 649.5Q287 644 265 630.5Q243 617 229.5 594Q216 571 209 536L76 581Q102 676 181 730Q260 784 400 784Q454 784 502.5 774Q551 764 587.5 741Q624 718 645.5 681Q667 644 667 591Q667 552 657 520Q647 488 630.5 464Q614 440 592.5 424Q571 408 548 400Q568 394 586.5 381.5Q605 369 619.5 350Q634 331 643 306Q652 281 652 250Z" glyph-name="afii10025" horiz-adv-x="704" unicode="&#1047;" /><glyph d="M174 0H35L130 780H270L228 435L203 246L295 368L604 780H743L648 0H508L550 345L575 534L483 412Z" glyph-name="afii10026" horiz-adv-x="763" unicode="&#1048;" /><glyph d="M493 404 181 0H35L130 780H279L237 439L213 253L307 376L618 780H764L669 0H520L561 341L586 527ZM680 1030Q674 978 659 938Q644 898 616.5 870.5Q589 843 548.5 828.5Q508 814 451 814Q394 814 357 828.5Q320 843 300 870.5Q280 898 274.5 938Q269 978 276 1030H390Q383 982 401.5 962.5Q420 943 467 943Q515 943 538 962.5Q561 982 567 1030Z" glyph-name="afii10027" horiz-adv-x="784" unicode="&#1049;" /><glyph d="M554 482Q535 456 513.5 435Q492 414 464 400Q490 386 507.5 364Q525 342 537 316L692 0H521L396 279Q382 311 363.5 323.5Q345 336 314 336H216L175 0H35L130 780H270L231 462H325Q356 462 377.5 474.5Q399 487 421 519L601 780H772Z" glyph-name="afii10028" horiz-adv-x="739" unicode="&#1050;" /><glyph d="M619 0H479L558 650H398L344 432Q314 316 283 234Q252 152 211.5 100Q171 48 118.5 24Q66 0 -7 0H-25L-10 126H1Q34 126 61.5 142.5Q89 159 112.5 197.5Q136 236 158 299.5Q180 363 203 456L283 780H714Z" glyph-name="afii10029" horiz-adv-x="754" unicode="&#1051;" /><glyph d="M358 0 261 390 233 513 208 298 172 0H35L130 780H293L402 355L437 208L508 355L721 780H884L789 0H652L688 298L715 513L657 390L466 0Z" glyph-name="afii10030" horiz-adv-x="904" unicode="&#1052;" /><glyph d="M738 780 643 0H503L544 334H216L175 0H35L130 780H270L231 464H559L598 780Z" glyph-name="afii10031" horiz-adv-x="758" unicode="&#1053;" /><glyph d="M363 -14Q282 -14 224 8Q166 30 129 71Q92 112 74.5 170.5Q57 229 57 302Q57 405 81 494.5Q105 584 155 650.5Q205 717 281 755.5Q357 794 462 794Q542 794 600 772.5Q658 751 695.5 710.5Q733 670 751 612.5Q769 555 769 483Q769 380 745 289.5Q721 199 671.5 131.5Q622 64 545 25Q468 -14 363 -14ZM446 664Q374 664 326 633Q278 602 250 552Q222 502 210.5 440Q199 378 199 315Q199 273 207.5 236.5Q216 200 237 173Q258 146 292.5 131Q327 116 379 116Q452 116 499.5 147.5Q547 179 575 229.5Q603 280 614 342.5Q625 405 625 468Q625 510 616.5 546Q608 582 587.5 608Q567 634 532.5 649Q498 664 446 664Z" glyph-name="afii10032" horiz-adv-x="810" unicode="&#1054;" /><glyph d="M738 780 643 0H503L582 650H254L175 0H35L130 780Z" glyph-name="afii10033" horiz-adv-x="758" unicode="&#1055;" /><glyph d="M176 0H36L131 780H427Q472 780 515 771.5Q558 763 592 740.5Q626 718 646.5 679.5Q667 641 667 582Q667 501 641 445.5Q615 390 572.5 356.5Q530 323 476.5 308Q423 293 368 293H211ZM395 424Q416 424 438.5 430Q461 436 479.5 452Q498 468 510 494.5Q522 521 522 562Q522 591 512.5 608.5Q503 626 488.5 635Q474 644 456.5 647Q439 650 422 650H255L228 424H395Z" glyph-name="afii10034" horiz-adv-x="669" unicode="&#1056;" /><glyph d="M430 664Q383 664 348 649Q313 634 287.5 607.5Q262 581 245 546Q228 511 218 471.5Q208 432 204 390Q200 348 200 307Q200 267 207.5 232Q215 197 233.5 171Q252 145 283.5 130.5Q315 116 363 116Q442 116 483.5 147Q525 178 544 248L675 203Q660 153 633 113Q606 73 565.5 44.5Q525 16 471 1Q417 -14 347 -14Q269 -14 214 8Q159 30 124 70.5Q89 111 72.5 168Q56 225 56 296Q56 397 78.5 487.5Q101 578 148.5 646Q196 714 269.5 754Q343 794 446 794Q515 794 565.5 779Q616 764 649 736Q682 708 699.5 668.5Q717 629 721 580L579 532Q577 602 543 633Q509 664 430 664Z" glyph-name="afii10035" horiz-adv-x="743" unicode="&#1057;" /><glyph d="M350 0H210L289 650H62L78 780H672L656 650H429Z" glyph-name="afii10036" horiz-adv-x="640" unicode="&#1058;" /><glyph d="M174 111Q210 111 234 127.5Q258 144 281 175L293 196L91 780H237L377 347L617 780H769L434 191Q407 144 381.5 106Q356 68 325 41Q294 14 254.5 0Q215 -14 159 -14Q110 -14 79.5 -6Q49 2 29 14L60 140Q80 127 107 119Q134 111 174 111Z" glyph-name="afii10037" horiz-adv-x="720" unicode="&#1059;" /><glyph d="M325 111Q190 111 114.5 171Q39 231 39 346Q39 424 65 484Q91 544 138 585Q185 626 250.5 647.5Q316 669 394 669L407 780H547L534 669Q670 669 745 609Q820 549 820 434Q820 356 794 296Q768 236 721 194.5Q674 153 609 132Q544 111 465 111L452 0H312ZM378 545Q336 545 300 533.5Q264 522 238 499.5Q212 477 197.5 442.5Q183 408 183 362Q183 295 224.5 265Q266 235 340 235L378 545ZM481 235Q523 235 559 246.5Q595 258 621 280.5Q647 303 661.5 337.5Q676 372 676 418Q676 485 634.5 515Q593 545 519 545L481 235Z" glyph-name="afii10038" horiz-adv-x="845" unicode="&#1060;" /><glyph d="M378 284 298 180 156 0H-15L245 323L309 400L262 482L95 780H258L348 614L401 515L478 614L608 780H777L538 482L471 400L515 323L697 0H532L434 180Z" glyph-name="afii10039" horiz-adv-x="762" unicode="&#1061;" /><glyph d="M130 780H270L190 130H525L605 780H745L665 130H772L737 -160H599L619 0H35Z" glyph-name="afii10040" horiz-adv-x="821" unicode="&#1062;" /><glyph d="M606 0H466L510 362Q474 334 421 318Q368 302 302 302Q251 302 207 314Q163 326 132 351Q101 376 85.5 415Q70 454 77 508L110 780H250L221 538Q214 485 247.5 460Q281 435 340 435Q408 435 456 456.5Q504 478 527 504L561 780H701Z" glyph-name="afii10041" horiz-adv-x="716" unicode="&#1063;" /><glyph d="M552 130H774L854 780H994L899 0H35L130 780H270L190 130H412L492 780H632Z" glyph-name="afii10042" horiz-adv-x="1014" unicode="&#1064;" /><glyph d="M552 130H774L854 780H994L914 130H1021L986 -160H849L869 0H35L130 780H270L190 130H412L492 780H632Z" glyph-name="afii10043" horiz-adv-x="1070" unicode="&#1065;" /><glyph d="M336 464H537Q583 464 625 456.5Q667 449 699.5 428Q732 407 751 371Q770 335 770 278Q770 191 744.5 136.5Q719 82 677.5 52Q636 22 584.5 11Q533 0 481 0H140L219 650H49L65 780H375ZM295 130H494Q522 130 545.5 136Q569 142 586.5 156Q604 170 614 193.5Q624 217 624 253Q624 299 596 316.5Q568 334 520 334H321Z" glyph-name="afii10044" horiz-adv-x="824" unicode="&#1066;" /><glyph d="M839 0H699L794 780H934ZM190 130H389Q417 130 440.5 136Q464 142 481.5 156Q499 170 509 193.5Q519 217 519 253Q519 299 491 316.5Q463 334 415 334H216ZM231 464H432Q478 464 520 456.5Q562 449 594.5 428Q627 407 646 371Q665 335 665 278Q665 191 639.5 136.5Q614 82 572.5 52Q531 22 479.5 11Q428 0 376 0H35L130 780H270Z" glyph-name="afii10045" horiz-adv-x="974" unicode="&#1067;" /><glyph d="M190 130H389Q417 130 440.5 136Q464 142 481.5 156Q499 170 509 193.5Q519 217 519 253Q519 299 491 316.5Q463 334 415 334H216ZM231 464H432Q478 464 520 456.5Q562 449 594.5 428Q627 407 646 371Q665 335 665 278Q665 191 639.5 136.5Q614 82 572.5 52Q531 22 479.5 11Q428 0 376 0H35L130 780H270Z" glyph-name="afii10046" horiz-adv-x="719" unicode="&#1068;" /><glyph d="M395 664Q316 664 274.5 633Q233 602 214 532L83 577Q113 677 192.5 735.5Q272 794 411 794Q501 794 561 765Q621 736 654.5 683Q688 630 697 555.5Q706 481 695 390Q684 299 656.5 224.5Q629 150 582.5 97Q536 44 469 15Q402 -14 312 -14Q243 -14 192.5 1Q142 16 109 44Q76 72 58.5 111.5Q41 151 37 200L179 248Q181 178 215 147Q249 116 328 116Q381 116 418 133Q455 150 480 180Q505 210 520 250Q535 290 544 336H215L230 462H557Q558 504 551.5 541Q545 578 527 605.5Q509 633 477 648.5Q445 664 395 664Z" glyph-name="afii10047" horiz-adv-x="738" unicode="&#1069;" /><glyph d="M652 -14Q569 -14 508.5 10Q448 34 410.5 79Q373 124 357 188.5Q341 253 347 334H216L175 0H35L130 780H270L231 464H363Q380 540 411.5 601Q443 662 491 705Q539 748 603.5 771Q668 794 751 794Q831 794 889 772.5Q947 751 984.5 710.5Q1022 670 1039.5 612Q1057 554 1057 482Q1057 370 1031.5 278.5Q1006 187 955.5 122Q905 57 829 21.5Q753 -14 652 -14ZM735 664Q665 664 617.5 634.5Q570 605 541 556.5Q512 508 500 445Q488 382 488 316Q488 273 496.5 236.5Q505 200 526 173Q547 146 581.5 131Q616 116 668 116Q739 116 786 146Q833 176 861.5 225Q890 274 901.5 337Q913 400 913 467Q913 509 904.5 545Q896 581 875.5 607.5Q855 634 820.5 649Q786 664 735 664Z" glyph-name="afii10048" horiz-adv-x="1094" unicode="&#1070;" /><glyph d="M694 780 599 0H459L496 306H411Q379 306 355.5 291.5Q332 277 309 243L141 0H-23L158 255Q172 275 186 289.5Q200 304 222 316Q190 324 163 337Q136 350 116.5 372Q97 394 86 425Q75 456 75 498Q75 584 101.5 639Q128 694 171 725.5Q214 757 267 768.5Q320 780 372 780ZM512 437 538 650H347Q328 650 306 646.5Q284 643 264.5 629.5Q245 616 232 590.5Q219 565 219 520Q219 492 228.5 475Q238 458 253 450Q268 442 286 439.5Q304 437 321 437Z" glyph-name="afii10049" horiz-adv-x="714" unicode="&#1071;" /><glyph d="M624 650H254L175 0H35L130 780H503L523 940H660Z" glyph-name="afii10050" horiz-adv-x="585" unicode="&#1168;" /><glyph d="M348 420Q378 447 425.5 462.5Q473 478 526 478Q635 478 687 425.5Q739 373 739 263Q739 128 668.5 57Q598 -14 478 -14Q447 -14 423 -9Q399 -4 386 2L412 123Q420 120 433.5 116Q447 112 468 112Q522 112 559 144Q596 176 596 244Q596 300 567 326Q538 352 478 352Q452 352 427.5 345.5Q403 339 383 328Q363 317 349 303.5Q335 290 330 275L297 0H157L236 650H49L65 780H579L563 650H376Z" glyph-name="afii10051" horiz-adv-x="758" unicode="&#1026;" /><glyph d="M175 0H35L130 780H646L631 654H255ZM603 1030 466 822H331L451 1030Z" glyph-name="afii10052" horiz-adv-x="591" unicode="&#1027;" /><glyph d="M425 664Q377 664 340.5 648Q304 632 278.5 604.5Q253 577 236.5 540.5Q220 504 211 462H540L525 336H195Q192 285 199 244Q206 203 225.5 174.5Q245 146 277.5 131Q310 116 358 116Q437 116 478.5 147Q520 178 539 248L670 203Q655 153 628 113Q601 73 560.5 44.5Q520 16 466 1Q412 -14 342 -14Q264 -14 209 8Q154 30 119 70.5Q84 111 67.5 168Q51 225 51 296Q51 397 73.5 487.5Q96 578 143.5 646Q191 714 264.5 754Q338 794 441 794Q510 794 560.5 779Q611 764 644 736Q677 708 694.5 668.5Q712 629 716 580L574 532Q572 602 538 633Q504 664 425 664Z" glyph-name="afii10053" horiz-adv-x="738" unicode="&#1028;" /><glyph d="M323 -14Q178 -14 110.5 39Q43 92 37 191L181 240Q181 171 219.5 143.5Q258 116 339 116Q370 116 402 123Q434 130 460.5 146Q487 162 503.5 187.5Q520 213 520 249Q520 291 485 312.5Q450 334 362 341Q312 346 265.5 355.5Q219 365 183 385Q147 405 125 439Q103 473 103 526Q103 596 129.5 646.5Q156 697 200 730Q244 763 300 778.5Q356 794 415 794Q556 794 622.5 740Q689 686 696 590L553 541Q553 610 516.5 637Q480 664 399 664Q379 664 352.5 659Q326 654 302 640.5Q278 627 261 603.5Q244 580 244 543Q244 526 250.5 514Q257 502 273.5 493Q290 484 317 478Q344 472 385 467Q450 461 501.5 451Q553 441 588.5 420Q624 399 642.5 364.5Q661 330 661 276Q661 199 632 144Q603 89 555.5 54Q508 19 447.5 2.5Q387 -14 323 -14Z" glyph-name="afii10054" horiz-adv-x="723" unicode="&#1029;" /><glyph d="M195 0H55L150 780H290Z" glyph-name="afii10055" horiz-adv-x="330" unicode="&#1030;" /><glyph d="M208 0H68L163 780H303ZM425 847H275L294 997H444ZM207 847H57L76 997H226Z" glyph-name="afii10056" horiz-adv-x="356" unicode="&#1031;" /><glyph d="M539 780 470 218Q464 166 448 123.5Q432 81 403 50.5Q374 20 328 3Q282 -14 216 -14Q151 -14 109 0Q67 14 43 38Q19 62 9.5 95Q0 128 0 165L142 214Q141 191 143.5 172.5Q146 154 155 141.5Q164 129 180.5 122Q197 115 223 115Q251 115 270 121Q289 127 301 139Q313 151 319.5 169Q326 187 329 211L399 780Z" glyph-name="afii10057" horiz-adv-x="555" unicode="&#1032;" /><glyph d="M675 464H876Q922 464 964 456.5Q1006 449 1038.5 428Q1071 407 1090 371Q1109 335 1109 278Q1109 191 1083.5 136.5Q1058 82 1016.5 52Q975 22 923.5 11Q872 0 820 0H479L558 650H398L344 432Q315 315 283.5 233Q252 151 211.5 99.5Q171 48 118 24Q65 0 -7 0H-25L-10 126H1Q34 126 61 142.5Q88 159 112 197.5Q136 236 158 299.5Q180 363 203 456L283 780H714ZM634 130H833Q861 130 884.5 136Q908 142 925.5 156Q943 170 953 193.5Q963 217 963 253Q963 299 935 316.5Q907 334 859 334H660Z" glyph-name="afii10058" horiz-adv-x="1141" unicode="&#1033;" /><glyph d="M699 464H900Q946 464 988 456.5Q1030 449 1062.5 428Q1095 407 1114 371Q1133 335 1133 278Q1133 191 1107.5 136.5Q1082 82 1040.5 52Q999 22 947.5 11Q896 0 844 0H503L544 334H216L175 0H35L130 780H270L231 464H559L598 780H738ZM658 130H857Q885 130 908.5 136Q932 142 949.5 156Q967 170 977 193.5Q987 217 987 253Q987 299 959 316.5Q931 334 883 334H684Z" glyph-name="afii10059" horiz-adv-x="1165" unicode="&#1034;" /><glyph d="M157 0 236 650H49L65 780H579L563 650H376L345 395Q388 439 435 458.5Q482 478 539 478Q575 478 606.5 468Q638 458 660 438Q682 418 692.5 388Q703 358 698 317L660 0H520L552 266Q562 349 469 349Q443 349 419 341Q395 333 375.5 318.5Q356 304 343 285Q330 266 326 243L297 0Z" glyph-name="afii10060" horiz-adv-x="746" unicode="&#1035;" /><glyph d="M554 482Q535 456 513.5 435Q492 414 464 400Q490 386 507.5 364Q525 342 537 316L692 0H521L396 279Q382 311 363.5 323.5Q345 336 314 336H216L175 0H35L130 780H270L231 462H325Q356 462 377.5 474.5Q399 487 421 519L601 780H772ZM628 1030 491 822H357L477 1030Z" glyph-name="afii10061" horiz-adv-x="739" unicode="&#1036;" /><glyph d="M174 111Q210 111 234 127.5Q258 144 281 175L293 196L91 780H240L380 347L620 780H769L434 191Q408 144 382.5 106Q357 68 325.5 41.5Q294 15 254 0.5Q214 -14 159 -14Q110 -14 79.5 -6Q49 2 29 14L60 140Q80 127 107 119Q134 111 174 111ZM661 1030Q655 979 640 939Q625 899 598 872Q571 845 531 830.5Q491 816 435 816Q379 816 342.5 830.5Q306 845 286 872Q266 899 260.5 939Q255 979 262 1030H369Q362 979 381.5 958Q401 937 450 937Q499 937 523.5 958Q548 979 553 1030Z" glyph-name="afii10062" horiz-adv-x="720" unicode="&#1038;" /><glyph d="M569 387 539 143 531 0H406L401 56Q376 25 332.5 5.5Q289 -14 241 -14Q135 -14 82 41.5Q29 97 29 203Q29 278 47.5 340.5Q66 403 101.5 448.5Q137 494 189 519Q241 544 309 544Q357 544 396.5 524.5Q436 505 453 474L471 530H596ZM426 327Q425 344 416.5 359.5Q408 375 393 388Q378 401 357 408.5Q336 416 310 416Q282 416 256.5 405Q231 394 212 371Q193 348 181.5 313.5Q170 279 170 231Q170 171 197 142.5Q224 114 272 114Q298 114 321 121.5Q344 129 362 142Q380 155 392.5 171Q405 187 410 203Z" glyph-name="afii10065" horiz-adv-x="638" unicode="&#1072;" /><glyph d="M266 -14Q155 -14 94 41Q33 96 33 218Q33 334 57 433.5Q81 533 128.5 607Q176 681 247.5 724Q319 767 414 770Q471 772 516 780.5Q561 789 601 806L586 677Q554 663 518 654.5Q482 646 426 642Q374 638 338.5 628.5Q303 619 278.5 601Q254 583 238 555Q222 527 210 485Q269 544 359 544Q406 544 445 530Q484 516 511.5 488.5Q539 461 554 419Q569 377 569 321Q569 237 546 174.5Q523 112 482.5 70Q442 28 386.5 7Q331 -14 266 -14ZM319 417Q289 417 262 408Q235 399 215 376.5Q195 354 183.5 317.5Q172 281 172 225Q172 161 201 137Q230 113 281 113Q311 113 338 122Q365 131 384.5 153.5Q404 176 415.5 213Q427 250 427 305Q427 368 398.5 392.5Q370 417 319 417Z" glyph-name="afii10066" horiz-adv-x="614" unicode="&#1073;" /><glyph d="M31 0 96 530H388Q415 530 443 525.5Q471 521 494 508.5Q517 496 532 473.5Q547 451 547 414Q547 359 522.5 326Q498 293 468 281Q499 274 517 246.5Q535 219 535 177Q535 123 516.5 89Q498 55 467.5 35Q437 15 398.5 7.5Q360 0 321 0ZM312 113Q350 113 375.5 126Q401 139 401 180Q401 208 382 217.5Q363 227 331 227H194L180 113ZM218 416 206 318H331Q370 318 389 332Q408 346 408 379Q408 400 393 408Q378 416 343 416Z" glyph-name="afii10067" horiz-adv-x="596" unicode="&#1074;" /><glyph d="M274 216Q245 213 222.5 211Q200 209 184 203Q168 197 160 186Q152 175 152 155Q152 127 181.5 115Q211 103 252 103Q303 103 328 121Q353 139 364 177L493 132Q470 63 409 24.5Q348 -14 238 -14Q196 -14 154.5 -5.5Q113 3 81 21.5Q49 40 29 70.5Q9 101 9 145Q9 210 32.5 244.5Q56 279 92 295.5Q128 312 171.5 316.5Q215 321 255 325Q281 328 301.5 330Q322 332 336.5 337.5Q351 343 358.5 352.5Q366 362 366 378Q366 405 342 416Q318 427 289 427Q239 427 215 409Q191 391 183 359L54 403Q79 475 138.5 509.5Q198 544 303 544Q339 544 376.5 536Q414 528 444 509.5Q474 491 493 461Q512 431 512 388Q512 328 489.5 295Q467 262 432.5 245.5Q398 229 355.5 224Q313 219 274 216Z" glyph-name="afii10068" horiz-adv-x="555" unicode="&#1075;" /><glyph d="M275 -14Q152 -14 91 55.5Q30 125 47 265Q56 335 79.5 387Q103 439 138.5 474Q174 509 219.5 526.5Q265 544 318 544Q367 544 399 529.5Q431 515 451 487Q450 528 442.5 564.5Q435 601 417 628.5Q399 656 367.5 672Q336 688 287 688Q259 688 236 685Q213 682 193.5 677Q174 672 156.5 665.5Q139 659 121 651L137 780Q174 795 214.5 805.5Q255 816 315 816Q409 816 466 780Q523 744 551 675.5Q579 607 581.5 508.5Q584 410 569 285Q550 129 475.5 57.5Q401 -14 275 -14ZM287 113Q342 113 379.5 147.5Q417 182 427 265Q432 306 427 335Q422 364 408.5 382Q395 400 373.5 408Q352 416 325 416Q268 416 231.5 382Q195 348 184 265Q174 183 202.5 148Q231 113 287 113Z" glyph-name="afii10069" horiz-adv-x="614" unicode="&#1076;" /><glyph d="M171 213Q167 159 196.5 132Q226 105 278 105Q332 105 357.5 122.5Q383 140 392 168L520 124Q508 95 488.5 70Q469 45 438.5 26Q408 7 366 -3.5Q324 -14 267 -14Q152 -14 91 44Q30 102 30 214Q30 295 52 356.5Q74 418 114 460Q154 502 208.5 523Q263 544 328 544Q438 544 494 488.5Q550 433 550 325Q550 297 547.5 265Q545 233 540 213ZM315 425Q264 425 230.5 400Q197 375 185 320H407Q412 369 389.5 397Q367 425 315 425Z" glyph-name="afii10070" horiz-adv-x="597" unicode="&#1077;" /><glyph d="M521 617H371L390 767H540ZM303 617H153L172 767H322ZM171 213Q167 159 196.5 132Q226 105 278 105Q332 105 357.5 122.5Q383 140 392 168L520 124Q508 95 488.5 70Q469 45 438.5 26Q408 7 366 -3.5Q324 -14 267 -14Q152 -14 91 44Q30 102 30 214Q30 295 52 356.5Q74 418 114 460Q154 502 208.5 523Q263 544 328 544Q438 544 494 488.5Q550 433 550 325Q550 297 547.5 265Q545 233 540 213ZM315 425Q264 425 230.5 400Q197 375 185 320H407Q412 369 389.5 397Q367 425 315 425Z" glyph-name="afii10071" horiz-adv-x="600" unicode="&#1105;" /><glyph d="M854 530 732 345Q717 323 699 304Q681 285 658 272Q680 260 694 240.5Q708 221 718 198L800 0H642L581 162Q569 192 550.5 204Q532 216 500 216H481L455 0H319L345 216H326Q293 216 272 204Q251 192 231 162L132 0H-26L103 198Q118 221 137 240.5Q156 260 181 272Q161 285 147.5 304Q134 323 126 345L49 530H208L263 381Q275 350 293.5 338Q312 326 345 326H359L384 530H520L495 326H509Q542 326 562.5 338Q583 350 603 381L696 530Z" glyph-name="afii10072" horiz-adv-x="854" unicode="&#1078;" /><glyph d="M514 164Q514 119 494 85.5Q474 52 438 30Q402 8 352 -3Q302 -14 241 -14Q138 -14 81.5 18.5Q25 51 17 120L157 168Q158 133 185.5 117Q213 101 259 101Q313 101 344.5 118.5Q376 136 376 176Q376 208 351 216Q326 224 290 224H191L202 311H297Q335 311 360.5 324.5Q386 338 386 380Q386 408 363 418Q340 428 297 428Q259 428 230.5 415Q202 402 191 364L61 408Q86 483 149 513.5Q212 544 312 544Q353 544 391.5 537Q430 530 459.5 514Q489 498 507 471.5Q525 445 525 405Q525 374 517.5 351Q510 328 498.5 312.5Q487 297 472.5 287.5Q458 278 443 273Q456 269 469 261.5Q482 254 492 241Q502 228 508 209.5Q514 191 514 164Z" glyph-name="afii10073" horiz-adv-x="581" unicode="&#1079;" /><glyph d="M395 71Q362 31 316.5 8.5Q271 -14 220 -14Q174 -14 137.5 -2.5Q101 9 77 32Q53 55 42.5 90Q32 125 38 173L82 530H218L176 193Q171 151 194 132.5Q217 114 259 114Q285 114 308 122Q331 130 350 142.5Q369 155 382.5 171Q396 187 403 202L444 530H579L531 143L523 0H398Z" glyph-name="afii10074" horiz-adv-x="614" unicode="&#1080;" /><glyph d="M563 800Q557 749 542 709Q527 669 500 642Q473 615 433 600.5Q393 586 337 586Q281 586 244.5 600.5Q208 615 188 642Q168 669 163 709Q158 749 165 800H272Q264 749 283.5 728Q303 707 352 707Q401 707 425.5 728Q450 749 456 800ZM395 71Q362 31 316.5 8.5Q271 -14 220 -14Q174 -14 137.5 -2.5Q101 9 77 32Q53 55 42.5 90Q32 125 38 173L82 530H218L176 193Q171 151 194 132.5Q217 114 259 114Q285 114 308 122Q331 130 350 142.5Q369 155 382.5 171Q396 187 403 202L444 530H579L531 143L523 0H398Z" glyph-name="afii10075" horiz-adv-x="614" unicode="&#1081;" /><glyph d="M619 530 482 345Q465 322 446 303.5Q427 285 403 272Q426 260 441.5 240Q457 220 468 198L565 0H404L330 162Q316 192 297.5 204Q279 216 247 216H193L167 0H31L96 530H232L207 326H257Q289 326 310.5 338Q332 350 353 381L457 530Z" glyph-name="afii10076" horiz-adv-x="619" unicode="&#1082;" /><glyph d="M518 0H382L431 407H309L264 254Q241 178 215.5 128.5Q190 79 159.5 50.5Q129 22 93 11Q57 0 12 0H-9L4 122H11Q32 122 48.5 128Q65 134 80.5 153Q96 172 111 207Q126 242 143 300L212 530H583Z" glyph-name="afii10077" horiz-adv-x="629" unicode="&#1083;" /><glyph d="M430 0H268L211 374L166 0H31L96 530H309L352 242L364 127L404 242L519 530H732L667 0H532L577 374Z" glyph-name="afii10078" horiz-adv-x="778" unicode="&#1084;" /><glyph d="M232 530 208 335H430L454 530H590L525 0H389L415 212H193L167 0H31L96 530Z" glyph-name="afii10079" horiz-adv-x="636" unicode="&#1085;" /><glyph d="M312 417Q283 417 257.5 407Q232 397 212.5 374.5Q193 352 182 316Q171 280 171 228Q171 166 198.5 139.5Q226 113 274 113Q304 113 330 123Q356 133 375 156Q394 179 405 215.5Q416 252 416 304Q416 364 389 390.5Q362 417 312 417ZM259 -14Q151 -14 90.5 42Q30 98 30 210Q30 293 52.5 355.5Q75 418 115 460Q155 502 209 523Q263 544 327 544Q435 544 496 488Q557 432 557 320Q557 238 534.5 175.5Q512 113 472 71Q432 29 377.5 7.5Q323 -14 259 -14Z" glyph-name="afii10080" horiz-adv-x="602" unicode="&#1086;" /><glyph d="M209 474Q239 506 284 525Q329 544 377 544Q424 544 461 532Q498 520 523 496.5Q548 473 559 437.5Q570 402 564 354L521 0H385L426 334Q431 376 408 396Q385 416 343 416Q317 416 293 407Q269 398 249.5 384.5Q230 371 216.5 354.5Q203 338 198 323L159 0H24L71 387L80 530H205Z" glyph-name="afii10081" horiz-adv-x="614" unicode="&#1087;" /><glyph d="M135 -200H-1L71 387L80 530H205L208 472Q220 487 239 500.5Q258 514 280.5 523.5Q303 533 327.5 538.5Q352 544 375 544Q480 544 534 488.5Q588 433 588 326Q588 244 568 180.5Q548 117 511 73.5Q474 30 422 8Q370 -14 307 -14Q262 -14 223.5 3.5Q185 21 165 47ZM300 114Q331 114 357.5 127Q384 140 403 164Q422 188 433 221.5Q444 255 444 297Q444 357 414 386.5Q384 416 338 416Q311 416 288.5 408.5Q266 401 248.5 388Q231 375 218.5 359.5Q206 344 200 327L184 203Q186 187 194.5 171Q203 155 217.5 142.5Q232 130 253 122Q274 114 300 114Z" glyph-name="afii10082" horiz-adv-x="633" unicode="&#1088;" /><glyph d="M313 417Q244 417 206.5 366Q169 315 169 229Q169 169 195.5 141Q222 113 271 113Q326 113 350.5 132Q375 151 386 187L515 142Q504 109 485 80.5Q466 52 435.5 31Q405 10 361 -2Q317 -14 257 -14Q148 -14 88.5 43Q29 100 29 209Q29 290 51 352.5Q73 415 112 457.5Q151 500 205.5 522Q260 544 325 544Q385 544 425.5 532Q466 520 491.5 499.5Q517 479 529.5 451Q542 423 545 391L406 343Q405 360 400 374Q395 388 384.5 397.5Q374 407 356.5 412Q339 417 313 417Z" glyph-name="afii10083" horiz-adv-x="576" unicode="&#1089;" /><glyph d="M207 459Q237 497 278 520.5Q319 544 364 544Q416 544 451 523.5Q486 503 503 468Q570 544 678 544Q770 544 812.5 493.5Q855 443 843 349L801 0H665L706 340Q711 378 692.5 397Q674 416 638 416Q594 416 564 389Q534 362 520 328L480 0H344L385 340Q390 378 371.5 397Q353 416 317 416Q273 416 243 389Q213 362 199 328L159 0H24L71 387L80 530H205Z" glyph-name="afii10084" horiz-adv-x="894" unicode="&#1090;" /><glyph d="M55 -89Q86 -89 108.5 -73.5Q131 -58 154 -17L184 36L34 530H180L242 300L273 178L334 298L454 530H606L299 -30Q272 -79 248 -113.5Q224 -148 195.5 -170.5Q167 -193 132.5 -203.5Q98 -214 50 -214Q13 -214 -6.5 -210Q-26 -206 -42 -200L-13 -75Q0 -80 14 -84.5Q28 -89 55 -89Z" glyph-name="afii10085" horiz-adv-x="590" unicode="&#1091;" /><glyph d="M405 -200H269L292 -14Q225 -14 172 3.5Q119 21 84.5 56Q50 91 35 143Q20 195 29 265Q38 335 65.5 387Q93 439 136 474Q179 509 236 526.5Q293 544 360 544L392 801H528L496 544Q563 544 616 526.5Q669 509 703.5 474Q738 439 753 387Q768 335 759 265Q750 195 722.5 143Q695 91 652 56Q609 21 552 3.5Q495 -14 428 -14ZM167 265Q161 220 170.5 190Q180 160 199.5 142Q219 124 247 116.5Q275 109 307 109L345 421Q313 421 283 413.5Q253 406 229 388Q205 370 189 340Q173 310 167 265ZM621 265Q627 310 617.5 340Q608 370 588.5 388Q569 406 541 413.5Q513 421 481 421L443 109Q475 109 505 116.5Q535 124 559 142Q583 160 599 190Q615 220 621 265Z" glyph-name="afii10086" horiz-adv-x="792" unicode="&#1092;" /><glyph d="M280 172 215 90 139 0H-31L145 203L208 274L170 335L47 530H212L267 431L301 369L349 431L430 530H599L428 335L374 274L419 203L547 0H381L327 90Z" glyph-name="afii10087" horiz-adv-x="598" unicode="&#1093;" /><glyph d="M395 71Q362 31 316.5 8.5Q271 -14 220 -14Q174 -14 137.5 -2.5Q101 9 77 32Q53 55 42.5 90Q32 125 38 173L82 530H218L176 193Q171 151 194 132.5Q217 114 259 114Q285 114 308 122Q331 130 350 142.5Q369 155 382.5 171Q396 187 403 202L444 530H579L529 123H618L583 -160H451L471 0H398Z" glyph-name="afii10088" horiz-adv-x="674" unicode="&#1094;" /><glyph d="M540 0H405L433 229Q404 208 359 194.5Q314 181 262 181Q168 181 115.5 225.5Q63 270 74 365L95 530H231L213 383Q208 341 233.5 323Q259 305 309 305Q361 305 396 319.5Q431 334 448 354L470 530H605Z" glyph-name="afii10089" horiz-adv-x="633" unicode="&#1095;" /><glyph d="M680 71Q650 33 609 9.5Q568 -14 523 -14Q471 -14 436 6.5Q401 27 384 62Q317 -14 209 -14Q117 -14 74.5 36.5Q32 87 44 181L87 530H223L181 190Q176 152 194.5 133Q213 114 249 114Q293 114 323 141Q353 168 367 202L408 530H544L502 190Q497 152 515.5 133Q534 114 570 114Q614 114 644 141Q674 168 688 202L729 530H864L816 143L808 0H683Z" glyph-name="afii10090" horiz-adv-x="894" unicode="&#1096;" /><glyph d="M680 71Q650 33 609 9.5Q568 -14 523 -14Q471 -14 436 6.5Q401 27 384 62Q317 -14 209 -14Q117 -14 74.5 36.5Q32 87 44 181L87 530H223L181 190Q176 152 194.5 133Q213 114 249 114Q293 114 323 141Q353 168 367 202L408 530H544L502 190Q497 152 515.5 133Q534 114 570 114Q614 114 644 141Q674 168 688 202L729 530H864L814 123H903L868 -160H736L756 0H683Z" glyph-name="afii10091" horiz-adv-x="954" unicode="&#1097;" /><glyph d="M162 408H30L45 530H313L289 335H425Q464 335 497 329.5Q530 324 554.5 309.5Q579 295 593 269.5Q607 244 607 203Q607 141 588.5 101.5Q570 62 539.5 39.5Q509 17 468.5 8.5Q428 0 384 0H112ZM391 113Q406 113 420.5 115.5Q435 118 446 125Q457 132 464 145.5Q471 159 471 181Q471 210 451.5 218.5Q432 227 405 227H275L261 113Z" glyph-name="afii10092" horiz-adv-x="655" unicode="&#1098;" /><glyph d="M614 530H750L685 0H549ZM310 113Q325 113 339.5 115.5Q354 118 365 125Q376 132 383 145.5Q390 159 390 181Q390 210 370.5 218.5Q351 227 324 227H194L180 113ZM96 530H232L208 335H344Q383 335 416 329.5Q449 324 473.5 309.5Q498 295 512 269.5Q526 244 526 203Q526 141 507.5 101.5Q489 62 458.5 39.5Q428 17 387.5 8.5Q347 0 303 0H31Z" glyph-name="afii10093" horiz-adv-x="796" unicode="&#1099;" /><glyph d="M310 113Q325 113 339.5 115.5Q354 118 365 125Q376 132 383 145.5Q390 159 390 181Q390 210 370.5 218.5Q351 227 324 227H194L180 113ZM96 530H232L208 335H344Q383 335 416 329.5Q449 324 473.5 309.5Q498 295 512 269.5Q526 244 526 203Q526 141 507.5 101.5Q489 62 458.5 39.5Q428 17 387.5 8.5Q347 0 303 0H31Z" glyph-name="afii10094" horiz-adv-x="574" unicode="&#1100;" /><glyph d="M262 113Q313 113 347.5 142.5Q382 172 396 224H207L218 311H406Q404 365 378 391Q352 417 304 417Q249 417 224.5 398Q200 379 189 343L60 388Q71 421 90 449.5Q109 478 139.5 499Q170 520 214 532Q258 544 318 544Q427 544 486.5 487Q546 430 546 321Q546 240 524 177.5Q502 115 463 72.5Q424 30 369.5 8Q315 -14 250 -14Q190 -14 149.5 -2Q109 10 83.5 30.5Q58 51 45.5 79Q33 107 30 139L169 187Q171 170 175.5 156Q180 142 190.5 132.5Q201 123 218.5 118Q236 113 262 113Z" glyph-name="afii10095" horiz-adv-x="592" unicode="&#1101;" /><glyph d="M511 -14Q402 -14 342 43Q282 100 282 212H193L167 0H31L96 530H232L208 335H299Q329 439 401.5 491.5Q474 544 579 544Q687 544 747.5 488Q808 432 808 320Q808 238 785.5 175.5Q763 113 723.5 71Q684 29 629.5 7.5Q575 -14 511 -14ZM564 417Q535 417 509 406.5Q483 396 463.5 373.5Q444 351 433 315Q422 279 422 227Q422 165 449.5 139Q477 113 526 113Q556 113 581.5 123.5Q607 134 626.5 156.5Q646 179 657 216Q668 253 668 305Q668 365 640 391Q612 417 564 417Z" glyph-name="afii10096" horiz-adv-x="854" unicode="&#1102;" /><glyph d="M-1 0 104 157Q118 178 128.5 190.5Q139 203 156 210Q114 223 89 251.5Q64 280 64 334Q64 396 83 434.5Q102 473 133 494Q164 515 204.5 522.5Q245 530 288 530H560L495 0H359L383 200H335Q303 200 284 188Q265 176 247 146L158 0ZM280 422Q265 422 250.5 419.5Q236 417 225 410Q214 403 207 389.5Q200 376 200 354Q200 325 219.5 316.5Q239 308 266 308H396L410 422Z" glyph-name="afii10097" horiz-adv-x="606" unicode="&#1103;" /><glyph d="M459 407H216L167 0H31L96 530H342L361 690H494Z" glyph-name="afii10098" horiz-adv-x="470" unicode="&#1169;" /><glyph d="M403 337Q408 379 385 397.5Q362 416 320 416Q294 416 271 408Q248 400 229 387.5Q210 375 196.5 359Q183 343 176 328L136 0H0L74 607H-16L-3 709H87L98 800H234L223 709H352L339 607H210L194 478Q226 507 271 525.5Q316 544 359 544Q405 544 441.5 532.5Q478 521 502 498Q526 475 536.5 440Q547 405 541 357L497 -2Q492 -43 479.5 -81Q467 -119 441 -148.5Q415 -178 372.5 -196Q330 -214 265 -214Q235 -214 212 -209Q189 -204 175 -198L204 -69Q213 -74 233.5 -81.5Q254 -89 279 -87Q297 -86 311 -82Q325 -78 335.5 -68Q346 -58 352.5 -40.5Q359 -23 362 5Z" glyph-name="afii10099" horiz-adv-x="590" unicode="&#1106;" /><glyph d="M507 800 370 592H235L355 800ZM274 216Q245 213 222.5 211Q200 209 184 203Q168 197 160 186Q152 175 152 155Q152 127 181.5 115Q211 103 252 103Q303 103 328 121Q353 139 364 177L493 132Q470 63 409 24.5Q348 -14 238 -14Q196 -14 154.5 -5.5Q113 3 81 21.5Q49 40 29 70.5Q9 101 9 145Q9 210 32.5 244.5Q56 279 92 295.5Q128 312 171.5 316.5Q215 321 255 325Q281 328 301.5 330Q322 332 336.5 337.5Q351 343 358.5 352.5Q366 362 366 378Q366 405 342 416Q318 427 289 427Q239 427 215 409Q191 391 183 359L54 403Q79 475 138.5 509.5Q198 544 303 544Q339 544 376.5 536Q414 528 444 509.5Q474 491 493 461Q512 431 512 388Q512 328 489.5 295Q467 262 432.5 245.5Q398 229 355.5 224Q313 219 274 216Z" glyph-name="afii10100" horiz-adv-x="555" unicode="&#1107;" /><glyph d="M313 417Q262 417 228 389.5Q194 362 180 311H370L359 224H169Q170 167 196.5 140Q223 113 271 113Q326 113 350.5 132Q375 151 386 187L515 142Q504 109 485 80.5Q466 52 435.5 31Q405 10 361 -2Q317 -14 257 -14Q148 -14 88.5 43Q29 100 29 209Q29 290 51 352.5Q73 415 112 457.5Q151 500 205.5 522Q260 544 325 544Q385 544 425.5 532Q466 520 491.5 499.5Q517 479 529.5 451Q542 423 545 391L406 343Q405 360 400 374Q395 388 384.5 397.5Q374 407 356.5 412Q339 417 313 417Z" glyph-name="afii10101" horiz-adv-x="592" unicode="&#1108;" /><glyph d="M247 103Q270 103 291 106.5Q312 110 328 118.5Q344 127 353.5 140Q363 153 363 171Q363 185 355 192.5Q347 200 332.5 203.5Q318 207 297.5 208.5Q277 210 252 213Q216 216 180.5 221Q145 226 116.5 239Q88 252 70.5 277Q53 302 53 344Q53 401 77 439.5Q101 478 138 501.5Q175 525 219.5 534.5Q264 544 304 544Q407 544 458.5 510Q510 476 518 406L380 359Q379 391 360.5 409Q342 427 294 427Q278 427 261 424.5Q244 422 230.5 415.5Q217 409 208 397.5Q199 386 199 368Q199 344 226 338.5Q253 333 301 328Q337 324 373.5 319.5Q410 315 439.5 302.5Q469 290 487.5 265Q506 240 506 195Q506 136 481.5 96Q457 56 417.5 31.5Q378 7 329.5 -3.5Q281 -14 233 -14Q123 -14 72 23.5Q21 61 13 129L153 177Q155 139 175.5 121Q196 103 247 103Z" glyph-name="afii10102" horiz-adv-x="555" unicode="&#1109;" /><glyph d="M258 617H108L127 767H277ZM105 530H241L176 0H40Z" glyph-name="afii10103" horiz-adv-x="296" unicode="&#1110;" /><glyph d="M121 530H257L192 0H56ZM383 617H233L252 767H402ZM165 617H15L34 767H184Z" glyph-name="afii10104" horiz-adv-x="328" unicode="&#1111;" /><glyph d="M252 617H102L121 767H271ZM99 530H235L169 -2Q164 -43 151.5 -81Q139 -119 113 -148.5Q87 -178 45 -196Q3 -214 -62 -214Q-92 -214 -115 -209Q-138 -204 -152 -198L-123 -69Q-114 -74 -93.5 -81.5Q-73 -89 -48 -87Q-30 -86 -16 -82Q-2 -78 8 -68Q18 -58 24.5 -40.5Q31 -23 34 5Z" glyph-name="afii10105" horiz-adv-x="290" unicode="&#1112;" /><glyph d="M559 335H695Q734 335 767 329.5Q800 324 824.5 309.5Q849 295 863 269.5Q877 244 877 203Q877 141 858.5 101.5Q840 62 809.5 39.5Q779 17 738.5 8.5Q698 0 654 0H382L431 407H309L264 254Q242 177 216 128Q190 79 159.5 50.5Q129 22 92.5 11Q56 0 12 0H-9L4 122H11Q32 122 48.5 128Q65 134 80 153Q95 172 110 207Q125 242 143 300L212 530H583ZM661 113Q676 113 690.5 115.5Q705 118 716 125Q727 132 734 145.5Q741 159 741 181Q741 210 721.5 218.5Q702 227 675 227H545L531 113Z" glyph-name="afii10106" horiz-adv-x="925" unicode="&#1113;" /><glyph d="M222 530 198 335H420L444 530H580L556 335H692Q731 335 764 329.5Q797 324 821.5 309.5Q846 295 860 269.5Q874 244 874 203Q874 141 855.5 101.5Q837 62 806.5 39.5Q776 17 735.5 8.5Q695 0 651 0H379L405 212H183L157 0H21L86 530ZM658 113Q673 113 687.5 115.5Q702 118 713 125Q724 132 731 145.5Q738 159 738 181Q738 210 718.5 218.5Q699 227 672 227H542L528 113Z" glyph-name="afii10107" horiz-adv-x="922" unicode="&#1114;" /><glyph d="M234 800 223 709H352L339 607H210L194 478Q226 507 271 525.5Q316 544 359 544Q405 544 441.5 532.5Q478 521 502 498Q526 475 536.5 440Q547 405 541 357L498 0H362L403 337Q408 379 385 397.5Q362 416 320 416Q294 416 271 408Q248 400 229 387.5Q210 375 196.5 359Q183 343 176 328L136 0H0L74 607H-16L-3 709H87L98 800Z" glyph-name="afii10108" horiz-adv-x="590" unicode="&#1115;" /><glyph d="M619 530 482 345Q465 322 446 303.5Q427 285 403 272Q426 260 441.5 240Q457 220 468 198L565 0H404L330 162Q316 192 297.5 204Q279 216 247 216H193L167 0H31L96 530H232L207 326H257Q289 326 310.5 338Q332 350 353 381L457 530ZM543 800 406 592H271L391 800Z" glyph-name="afii10109" horiz-adv-x="619" unicode="&#1116;" /><glyph d="M551 800Q545 749 530 709Q515 669 488 642Q461 615 420.5 600.5Q380 586 324 586Q268 586 231.5 600.5Q195 615 175 642Q155 669 150 709Q145 749 152 800H259Q252 749 271 728Q290 707 339 707Q388 707 412.5 728Q437 749 443 800ZM55 -89Q86 -89 108.5 -73.5Q131 -58 154 -17L184 36L34 530H180L242 300L273 178L334 298L454 530H606L299 -30Q272 -79 248 -113.5Q224 -148 195.5 -170.5Q167 -193 132.5 -203.5Q98 -214 50 -214Q13 -214 -6.5 -210Q-26 -206 -42 -200L-13 -75Q0 -80 14 -84.5Q28 -89 55 -89Z" glyph-name="afii10110" horiz-adv-x="590" unicode="&#1118;" /><glyph d="M35 0 130 780H270L190 130H518L598 780H738L643 0H408L388 -160H250L270 0Z" glyph-name="afii10145" horiz-adv-x="758" unicode="&#1039;" /><glyph d="M395 71Q362 31 316.5 8.5Q271 -14 220 -14Q174 -14 137.5 -2.5Q101 9 77 32Q53 55 42.5 90Q32 125 38 173L82 530H218L176 193Q171 151 194 132.5Q217 114 259 114Q285 114 308 122Q331 130 350 142.5Q369 155 382.5 171Q396 187 403 202L444 530H579L531 143L523 0H398ZM327 -40 307 -200H175L195 -40Z" glyph-name="afii10193" horiz-adv-x="614" unicode="&#1119;" /><glyph d="M346 764Q441 764 487 717Q533 670 521 575L472 178H376L423 560Q432 637 356 637H235L157 0H18L111 764ZM208 0 279 586H375L319 127H440Q516 127 527 204L595 764H734L664 189Q652 94 595 47Q538 0 443 0Z" glyph-name="afii57636" horiz-adv-x="738" unicode="&#8362;" /><glyph d="M286 0H145L771 780H913ZM59 546Q59 602 75 648Q91 694 120.5 726.5Q150 759 192 776.5Q234 794 287 794Q334 794 366.5 784.5Q399 775 419.5 758.5Q440 742 450 720.5Q460 699 462 674L344 634Q343 657 328 672.5Q313 688 272 688Q229 688 200.5 658Q172 628 172 563Q172 521 191.5 501.5Q211 482 247 482Q289 482 307 497.5Q325 513 332 536L441 498Q433 473 417.5 450.5Q402 428 377.5 411.5Q353 395 318.5 385.5Q284 376 236 376Q150 376 104.5 419.5Q59 463 59 546ZM763 -14Q679 -14 633.5 29Q588 72 588 156Q588 216 605 262.5Q622 309 652 340.5Q682 372 723.5 388Q765 404 814 404Q898 404 943.5 361.5Q989 319 989 236Q989 175 972.5 128.5Q956 82 926 50.5Q896 19 854.5 2.5Q813 -14 763 -14ZM801 297Q780 297 762 290.5Q744 284 730 269Q716 254 708 230.5Q700 207 700 172Q700 128 720.5 110.5Q741 93 776 93Q797 93 815 99.5Q833 106 847 121Q861 136 869 160Q877 184 877 219Q877 262 856.5 279.5Q836 297 801 297Z" glyph-name="afii61248" horiz-adv-x="1053" unicode="&#8453;" /><glyph d="M254 -14Q166 -14 114.5 23.5Q63 61 63 131V164L17 134V257Q27 264 38.5 272Q50 280 63 291V524Q62 582 73 629Q84 676 106 709Q128 742 159.5 760Q191 778 231 778Q302 778 334.5 736Q367 694 367 619Q367 559 351.5 506.5Q336 454 312 409.5Q288 365 258 327.5Q228 290 199 260V179Q199 140 212 126Q225 112 259 111Q285 111 305 117.5Q325 124 334 129L348 1Q334 -4 309 -9Q284 -14 254 -14ZM199 436Q221 468 239.5 517Q258 566 258 622Q258 639 253 649.5Q248 660 234 660Q219 660 209 633Q199 606 199 539Z" glyph-name="afii61289" horiz-adv-x="401" unicode="&#8467;" /><glyph d="M236 506 215 319 176 0H36L129 764H261L531 258L552 445L591 764H731L638 0H506ZM1071 0H921L939 150H1089ZM1076 651Q1047 651 1021.5 641Q996 631 976.5 608.5Q957 586 946 550Q935 514 935 462Q935 400 962.5 373.5Q990 347 1038 347Q1068 347 1094 357Q1120 367 1139 390Q1158 413 1169 449.5Q1180 486 1180 538Q1180 598 1153 624.5Q1126 651 1076 651ZM1023 220Q915 220 854.5 276Q794 332 794 444Q794 527 816.5 589.5Q839 652 879 694Q919 736 973 757Q1027 778 1091 778Q1199 778 1260 722Q1321 666 1321 554Q1321 472 1298.5 409.5Q1276 347 1236 305Q1196 263 1141.5 241.5Q1087 220 1023 220Z" glyph-name="afii61352" horiz-adv-x="1337" unicode="&#8470;" /><glyph d="M337 800 405 592H271L186 800ZM569 387 539 143 531 0H406L401 56Q376 25 332.5 5.5Q289 -14 241 -14Q135 -14 82 41.5Q29 97 29 203Q29 278 47.5 340.5Q66 403 101.5 448.5Q137 494 189 519Q241 544 309 544Q357 544 396.5 524.5Q436 505 453 474L471 530H596ZM426 327Q425 344 416.5 359.5Q408 375 393 388Q378 401 357 408.5Q336 416 310 416Q282 416 256.5 405Q231 394 212 371Q193 348 181.5 313.5Q170 279 170 231Q170 171 197 142.5Q224 114 272 114Q298 114 321 121.5Q344 129 362 142Q380 155 392.5 171Q405 187 410 203Z" glyph-name="agrave" horiz-adv-x="638" unicode="&#224;" /><glyph d="M569 387 539 143 531 0H406L401 56Q376 25 332.5 5.5Q289 -14 241 -14Q135 -14 82 41.5Q29 97 29 203Q29 278 47.5 340.5Q66 403 101.5 448.5Q137 494 189 519Q241 544 309 544Q357 544 396.5 524.5Q436 505 453 474L471 530H596ZM426 327Q425 344 416.5 359.5Q408 375 393 388Q378 401 357 408.5Q336 416 310 416Q282 416 256.5 405Q231 394 212 371Q193 348 181.5 313.5Q170 279 170 231Q170 171 197 142.5Q224 114 272 114Q298 114 321 121.5Q344 129 362 142Q380 155 392.5 171Q405 187 410 203ZM200 760H508L492 635H184Z" glyph-name="amacron" horiz-adv-x="638" unicode="&#257;" /><glyph d="M345 665Q255 665 255 589Q255 560 270 538.5Q285 517 302 499Q365 433 418.5 383.5Q472 334 512 299Q523 319 529 347.5Q535 376 536.5 407.5Q538 439 536.5 472Q535 505 530 533L673 485Q681 417 667 346Q653 275 616 206L666 158L645 -13Q616 12 588 37.5Q560 63 532 89Q429 -14 267 -14Q219 -14 175.5 -3.5Q132 7 98.5 31Q65 55 45 93Q25 131 25 186Q25 232 36.5 270.5Q48 309 68.5 340Q89 371 115.5 395Q142 419 172 435Q151 458 133.5 489.5Q116 521 116 569Q116 623 133.5 665Q151 707 183 735.5Q215 764 260 778.5Q305 793 361 793Q464 793 513.5 753.5Q563 714 571 644L434 597Q433 630 414.5 647.5Q396 665 345 665ZM282 111Q333 111 370 127.5Q407 144 437 175Q397 210 350.5 253.5Q304 297 253 346Q211 320 187.5 288Q164 256 164 205Q164 173 177.5 154.5Q191 136 210 126Q229 116 249 113.5Q269 111 282 111Z" glyph-name="ampersand" horiz-adv-x="733" unicode="&amp;" /><glyph d="M241 -14Q135 -14 82 41.5Q29 97 29 203Q29 278 47.5 340.5Q66 403 101.5 448.5Q137 494 189 519Q241 544 309 544Q357 544 396 524.5Q435 505 452 474L470 530H595L569 387L539 143L530 0Q510 -5 492 -13.5Q474 -22 460 -33.5Q446 -45 437.5 -59Q429 -73 429 -87Q429 -98 437 -107Q445 -116 467 -116Q486 -116 500.5 -110Q515 -104 525 -99L543 -189Q526 -199 499 -206.5Q472 -214 433 -214Q382 -214 349.5 -192Q317 -170 317 -125Q317 -101 324.5 -79.5Q332 -58 345 -40Q358 -22 374 -8Q390 6 406 15L402 64Q390 51 373.5 37Q357 23 336 12Q315 1 291 -6.5Q267 -14 241 -14ZM426 327Q425 344 416.5 359.5Q408 375 393 388Q378 401 357 408.5Q336 416 310 416Q282 416 256.5 405Q231 394 212 371Q193 348 181.5 313.5Q170 279 170 231Q170 171 197 142.5Q224 114 272 114Q298 114 321 121.5Q344 129 362 142Q380 155 392.5 171Q405 187 410 203Z" glyph-name="aogonek" horiz-adv-x="638" unicode="&#261;" /><glyph d="M481 388Q433 388 400.5 397Q368 406 340 417.5Q312 429 283 438Q254 447 215 447Q193 447 173 439.5Q153 432 139 422Q122 411 108 397L51 495Q69 518 95 536Q117 551 148 563.5Q179 576 220 576Q268 576 300.5 567Q333 558 361 546.5Q389 535 418 526Q447 517 486 517Q509 517 528.5 524.5Q548 532 562 542Q579 553 593 567L650 469Q632 447 606 429Q584 414 553 401Q522 388 481 388ZM220 397Q268 397 300.5 388Q333 379 361 367.5Q389 356 418 347Q447 338 486 338Q509 338 528.5 345.5Q548 353 562 363Q579 374 593 388L650 290Q632 268 606 250Q584 235 553 222Q522 209 481 209Q433 209 400.5 218Q368 227 340 238.5Q312 250 283 259Q254 268 215 268Q193 268 173 260.5Q153 253 139 243Q122 232 108 218L51 316Q69 339 95 357Q117 372 148 384.5Q179 397 220 397Z" glyph-name="approxequal" horiz-adv-x="700" unicode="&#8776;" /><glyph d="M361 814Q412 814 438.5 786Q465 758 465 714Q465 686 455.5 661Q446 636 428.5 617.5Q411 599 386.5 588.5Q362 578 331 578Q280 578 253.5 606Q227 634 227 678Q227 706 236.5 731Q246 756 263 774.5Q280 793 305 803.5Q330 814 360 814ZM342 661Q360 661 370.5 672.5Q381 684 381 702Q381 731 350 731Q332 731 321.5 719.5Q311 708 311 690Q311 661 342 661ZM569 387 539 143 531 0H406L401 56Q376 25 332.5 5.5Q289 -14 241 -14Q135 -14 82 41.5Q29 97 29 203Q29 278 47.5 340.5Q66 403 101.5 448.5Q137 494 189 519Q241 544 309 544Q357 544 396.5 524.5Q436 505 453 474L471 530H596ZM426 327Q425 344 416.5 359.5Q408 375 393 388Q378 401 357 408.5Q336 416 310 416Q282 416 256.5 405Q231 394 212 371Q193 348 181.5 313.5Q170 279 170 231Q170 171 197 142.5Q224 114 272 114Q298 114 321 121.5Q344 129 362 142Q380 155 392.5 171Q405 187 410 203Z" glyph-name="aring" horiz-adv-x="638" unicode="&#229;" /><glyph d="M569 387 539 143 531 0H406L401 56Q376 25 332.5 5.5Q289 -14 241 -14Q135 -14 82 41.5Q29 97 29 203Q29 278 47.5 340.5Q66 403 101.5 448.5Q137 494 189 519Q241 544 309 544Q357 544 396.5 524.5Q436 505 453 474L471 530H596ZM426 327Q425 344 416.5 359.5Q408 375 393 388Q378 401 357 408.5Q336 416 310 416Q282 416 256.5 405Q231 394 212 371Q193 348 181.5 313.5Q170 279 170 231Q170 171 197 142.5Q224 114 272 114Q298 114 321 121.5Q344 129 362 142Q380 155 392.5 171Q405 187 410 203ZM446 904 382 812Q420 807 442 780.5Q464 754 464 715Q464 686 454.5 661Q445 636 428 617.5Q411 599 386 588.5Q361 578 331 578Q280 578 253 606Q226 634 226 679Q226 717 244 748L325 904ZM341 661Q359 661 369.5 672.5Q380 684 380 702Q380 731 349 731Q331 731 320.5 719.5Q310 708 310 690Q310 661 341 661Z" glyph-name="aringacute" horiz-adv-x="638" unicode="&#507;" /><glyph d="M120 423H275L373 246L370 444V780H502V444L499 246L597 423H752L483 -14H389Z" glyph-name="arrowdown" horiz-adv-x="876" unicode="&#8595;" /><glyph d="M34 437 471 706V551L294 453L492 456H828V324H492L294 327L471 229V74L34 343Z" glyph-name="arrowleft" horiz-adv-x="876" unicode="&#8592;" /><glyph d="M842 343 405 74V229L582 327L384 324H48V456H384L582 453L405 551V706L842 437Z" glyph-name="arrowright" horiz-adv-x="876" unicode="&#8594;" /><glyph d="M483 794 752 357H597L499 534L502 336V0H370V336L373 534L275 357H120L389 794Z" glyph-name="arrowup" horiz-adv-x="876" unicode="&#8593;" /><glyph d="M315 637 264 546 174 390H25L267 794H395L537 390H394L344 546Z" glyph-name="asciicircum" horiz-adv-x="548" unicode="^" /><glyph d="M413 274Q413 275 408.5 281Q404 287 395.5 294Q387 301 374 307Q361 313 344 313Q323 313 305 300.5Q287 288 266 273Q245 258 218.5 245.5Q192 233 153 233Q117 233 92.5 245.5Q68 258 53 274Q35 292 26 315L86 394Q86 393 90.5 387Q95 381 103.5 374Q112 367 125 361.5Q138 356 155 356Q176 356 194 368.5Q212 381 233 396Q254 411 280.5 423.5Q307 436 346 436Q383 436 407 423.5Q431 411 446 395Q464 377 473 354Z" glyph-name="asciitilde" horiz-adv-x="499" unicode="~" /><glyph d="M247 693 331 727 349 638 261 618 310 552 228 497 193 572 140 497 70 552 135 618 53 638 93 727 169 693 171 780H265Z" glyph-name="asterisk" horiz-adv-x="326" unicode="*" /><glyph d="M674 529H799L774 395L748 184Q789 182 817.5 203.5Q846 225 864 261Q882 297 890.5 343Q899 389 899 435Q899 491 880.5 535Q862 579 823.5 610Q785 641 725 657.5Q665 674 582 674Q488 674 411.5 642.5Q335 611 281 552.5Q227 494 197.5 409.5Q168 325 168 218Q168 64 255 -12Q342 -88 499 -88Q561 -88 608 -79.5Q655 -71 687.5 -57.5Q720 -44 738.5 -27.5Q757 -11 763 5L893 -39Q876 -75 843.5 -106.5Q811 -138 759 -162Q707 -186 635.5 -200Q564 -214 469 -214Q363 -214 281.5 -185Q200 -156 145 -102Q90 -48 62 29.5Q34 107 34 205Q34 336 74.5 445Q115 554 189 633Q263 712 367 756Q471 800 598 800Q708 800 789 774Q870 748 924 701.5Q978 655 1004.5 590Q1031 525 1031 448Q1031 360 1011 288Q991 216 950 165Q909 114 847 86.5Q785 59 700 59H617L612 108Q597 86 560 65Q523 44 469 44Q428 44 391.5 56Q355 68 328 93Q301 118 285.5 156.5Q270 195 270 248Q270 326 293 382Q316 438 352.5 474Q389 510 435.5 527Q482 544 530 544Q584 544 616 523Q648 502 657 480ZM630 330Q629 346 622 361Q615 376 602 388Q589 400 571 407.5Q553 415 529 415Q504 415 481.5 407.5Q459 400 442.5 382.5Q426 365 416 336.5Q406 308 406 265Q406 214 431.5 193.5Q457 173 500 173Q524 173 544 180.5Q564 188 579.5 200Q595 212 605.5 227Q616 242 621 258Z" glyph-name="at" horiz-adv-x="1065" unicode="@" /><glyph d="M601 772Q584 684 538 638.5Q492 593 414 595Q378 596 356 607.5Q334 619 318.5 633Q303 647 290 659Q277 671 259 671Q243 672 232 666Q221 660 214 650.5Q207 641 203 629.5Q199 618 197 607L90 620Q107 708 153 753.5Q199 799 277 797Q313 796 335 784.5Q357 773 372.5 759Q388 745 401 733Q414 721 432 721Q449 720 459.5 726Q470 732 477 741.5Q484 751 487.5 763Q491 775 494 785ZM569 387 539 143 531 0H406L401 56Q376 25 332.5 5.5Q289 -14 241 -14Q135 -14 82 41.5Q29 97 29 203Q29 278 47.5 340.5Q66 403 101.5 448.5Q137 494 189 519Q241 544 309 544Q357 544 396.5 524.5Q436 505 453 474L471 530H596ZM426 327Q425 344 416.5 359.5Q408 375 393 388Q378 401 357 408.5Q336 416 310 416Q282 416 256.5 405Q231 394 212 371Q193 348 181.5 313.5Q170 279 170 231Q170 171 197 142.5Q224 114 272 114Q298 114 321 121.5Q344 129 362 142Q380 155 392.5 171Q405 187 410 203Z" glyph-name="atilde" horiz-adv-x="638" unicode="&#227;" /><glyph d="M219 483Q245 509 287.5 526.5Q330 544 375 544Q480 544 534 488.5Q588 433 588 326Q588 244 568 180.5Q548 117 511 73.5Q474 30 422 8Q370 -14 307 -14Q283 -14 260.5 -8.5Q238 -3 218 6.5Q198 16 182.5 29.5Q167 43 158 58L140 0H15L41 143L122 800H258ZM300 114Q331 114 357.5 127Q384 140 403 164Q422 188 433 221.5Q444 255 444 297Q444 357 414 386.5Q384 416 338 416Q311 416 288.5 408.5Q266 401 248.5 388Q231 375 218.5 359.5Q206 344 200 327L184 203Q186 187 194.5 171Q203 155 217.5 142.5Q232 130 253 122Q274 114 300 114Z" glyph-name="b" horiz-adv-x="633" unicode="b" /><glyph d="M77 870H217L328 -90H188Z" glyph-name="backslash" horiz-adv-x="391" unicode="\" /><glyph d="M166 -130H26L143 830H283Z" glyph-name="bar" horiz-adv-x="304" unicode="|" /><glyph d="M40 414Q69 414 86 427.5Q103 441 108 480L129 649Q133 681 144.5 714Q156 747 180 774Q204 801 243 818Q282 835 341 835H374L358 705H336Q308 705 288.5 691.5Q269 678 264 640L244 479Q239 443 222 408Q205 373 171 350Q200 327 209 292Q218 257 213 222L193 60Q188 22 204.5 8.5Q221 -5 249 -5H271L255 -135H222Q163 -135 128 -118Q93 -101 75.5 -74Q58 -47 55 -14Q52 19 56 51L77 221Q82 259 68 273Q54 287 25 287H4L19 414Z" glyph-name="braceleft" horiz-adv-x="322" unicode="{" /><glyph d="M287 286Q259 286 241.5 272.5Q224 259 219 220L198 51Q194 19 182.5 -14Q171 -47 147 -74Q123 -101 84.5 -118Q46 -135 -13 -135H-45L-30 -5H-9Q20 -5 39 8.5Q58 22 63 60L83 221Q88 257 104.5 292Q121 327 155 350Q126 373 117.5 407.5Q109 442 114 478L134 640Q139 678 123 691.5Q107 705 78 705H57L73 835H106Q165 835 199.5 818Q234 801 251.5 774Q269 747 272 714Q275 681 271 649L250 479Q245 441 259.5 427Q274 413 302 413H324L309 286Z" glyph-name="braceright" horiz-adv-x="322" unicode="}" /><glyph d="M181 0H236L220 -130H25L142 830H337L321 700H266Z" glyph-name="bracketleft" horiz-adv-x="292" unicode="[" /><glyph d="M116 700H61L77 830H272L155 -130H-40L-24 0H31Z" glyph-name="bracketright" horiz-adv-x="292" unicode="]" /><glyph d="M559 800Q553 749 538 709Q523 669 496 642Q469 615 429 600.5Q389 586 333 586Q277 586 240.5 600.5Q204 615 184 642Q164 669 159 709Q154 749 161 800H266Q258 749 278 728Q298 707 347 707Q396 707 420 728Q444 749 450 800Z" glyph-name="breve" horiz-adv-x="600" unicode="&#728;" /><glyph d="M166 -130H26L79 302H219ZM230 398H90L143 830H283Z" glyph-name="brokenbar" horiz-adv-x="304" unicode="&#166;" /><glyph d="M348 180H38L76 490H386Z" glyph-name="bullet" horiz-adv-x="422" unicode="&#8226;" /><glyph d="M313 417Q244 417 206.5 366Q169 315 169 229Q169 169 195.5 141Q222 113 271 113Q326 113 350.5 132Q375 151 386 187L515 142Q504 109 485 80.5Q466 52 435.5 31Q405 10 361 -2Q317 -14 257 -14Q148 -14 88.5 43Q29 100 29 209Q29 290 51 352.5Q73 415 112 457.5Q151 500 205.5 522Q260 544 325 544Q385 544 425.5 532Q466 520 491.5 499.5Q517 479 529.5 451Q542 423 545 391L406 343Q405 360 400 374Q395 388 384.5 397.5Q374 407 356.5 412Q339 417 313 417Z" glyph-name="c" horiz-adv-x="576" unicode="c" /><glyph d="M533 800 396 592H262L382 800ZM313 417Q244 417 206.5 366Q169 315 169 229Q169 169 195.5 141Q222 113 271 113Q326 113 350.5 132Q375 151 386 187L515 142Q504 109 485 80.5Q466 52 435.5 31Q405 10 361 -2Q317 -14 257 -14Q148 -14 88.5 43Q29 100 29 209Q29 290 51 352.5Q73 415 112 457.5Q151 500 205.5 522Q260 544 325 544Q385 544 425.5 532Q466 520 491.5 499.5Q517 479 529.5 451Q542 423 545 391L406 343Q405 360 400 374Q395 388 384.5 397.5Q374 407 356.5 412Q339 417 313 417Z" glyph-name="cacute" horiz-adv-x="576" unicode="&#263;" /><glyph d="M393 592H271L142 800H276L341 704L432 800H574Z" glyph-name="caron" horiz-adv-x="600" unicode="&#711;" /><glyph d="M392 592H270L141 800H275L340 704L431 800H573ZM313 417Q244 417 206.5 366Q169 315 169 229Q169 169 195.5 141Q222 113 271 113Q326 113 350.5 132Q375 151 386 187L515 142Q504 109 485 80.5Q466 52 435.5 31Q405 10 361 -2Q317 -14 257 -14Q148 -14 88.5 43Q29 100 29 209Q29 290 51 352.5Q73 415 112 457.5Q151 500 205.5 522Q260 544 325 544Q385 544 425.5 532Q466 520 491.5 499.5Q517 479 529.5 451Q542 423 545 391L406 343Q405 360 400 374Q395 388 384.5 397.5Q374 407 356.5 412Q339 417 313 417Z" glyph-name="ccaron" horiz-adv-x="576" unicode="&#269;" /><glyph d="M515 142Q505 112 489 86Q473 60 447.5 39.5Q422 19 386 5.5Q350 -8 301 -12L292 -35Q307 -39 321.5 -45Q336 -51 347.5 -60.5Q359 -70 366 -83Q373 -96 373 -113Q373 -139 360.5 -158Q348 -177 327 -189.5Q306 -202 278.5 -208Q251 -214 221 -214Q179 -214 152 -206.5Q125 -199 114 -194L143 -130Q144 -132 162 -139Q180 -146 203 -146Q219 -146 234 -139.5Q249 -133 249 -116Q249 -99 227.5 -89.5Q206 -80 171 -76L202 -10Q118 4 73.5 59Q29 114 29 209Q29 290 51 352.5Q73 415 112 457.5Q151 500 205.5 522Q260 544 325 544Q385 544 425.5 532Q466 520 491.5 499.5Q517 479 529.5 451Q542 423 545 391L406 343Q405 360 400 374Q395 388 384.5 397.5Q374 407 356.5 412Q339 417 313 417Q244 417 206.5 366Q169 315 169 229Q169 169 195.5 141Q222 113 271 113Q326 113 350.5 132Q375 151 386 187Z" glyph-name="ccedilla" horiz-adv-x="576" unicode="&#231;" /><glyph d="M296 800H418L547 592H413L348 688L257 592H115ZM313 417Q244 417 206.5 366Q169 315 169 229Q169 169 195.5 141Q222 113 271 113Q326 113 350.5 132Q375 151 386 187L515 142Q504 109 485 80.5Q466 52 435.5 31Q405 10 361 -2Q317 -14 257 -14Q148 -14 88.5 43Q29 100 29 209Q29 290 51 352.5Q73 415 112 457.5Q151 500 205.5 522Q260 544 325 544Q385 544 425.5 532Q466 520 491.5 499.5Q517 479 529.5 451Q542 423 545 391L406 343Q405 360 400 374Q395 388 384.5 397.5Q374 407 356.5 412Q339 417 313 417Z" glyph-name="ccircumflex" horiz-adv-x="576" unicode="&#265;" /><glyph d="M409 617H259L278 767H428ZM313 417Q244 417 206.5 366Q169 315 169 229Q169 169 195.5 141Q222 113 271 113Q326 113 350.5 132Q375 151 386 187L515 142Q504 109 485 80.5Q466 52 435.5 31Q405 10 361 -2Q317 -14 257 -14Q148 -14 88.5 43Q29 100 29 209Q29 290 51 352.5Q73 415 112 457.5Q151 500 205.5 522Q260 544 325 544Q385 544 425.5 532Q466 520 491.5 499.5Q517 479 529.5 451Q542 423 545 391L406 343Q405 360 400 374Q395 388 384.5 397.5Q374 407 356.5 412Q339 417 313 417Z" glyph-name="cdotaccent" horiz-adv-x="576" unicode="&#267;" /><glyph d="M313 11 294 -35Q309 -39 323.5 -45Q338 -51 349.5 -60.5Q361 -70 368 -83Q375 -96 375 -113Q375 -139 362.5 -158Q350 -177 329 -189.5Q308 -202 280.5 -208Q253 -214 223 -214Q181 -214 154 -206.5Q127 -199 116 -194L145 -130Q145 -130 150 -132.5Q155 -135 163.5 -138Q172 -141 182.5 -143.5Q193 -146 205 -146Q221 -146 236 -139.5Q251 -133 251 -116Q251 -99 229.5 -89.5Q208 -80 173 -76L214 11Z" glyph-name="cedilla" horiz-adv-x="600" unicode="&#184;" /><glyph d="M529 258Q518 225 499 196Q480 167 449.5 146Q419 125 375 113Q331 101 271 101H254L218 0H96L142 130Q44 184 44 325Q44 405 65.5 467Q87 529 125 571Q163 613 216 635.5Q269 658 333 659L371 764H493L450 644Q506 626 530 589.5Q554 553 559 506L420 458Q419 475 414 489Q409 503 398.5 512.5Q388 522 370.5 527Q353 532 327 532Q297 532 270.5 521Q244 510 224.5 487Q205 464 194 429Q183 394 183 345Q183 285 210 257.5Q237 230 285 228Q340 228 365 247Q390 266 401 302Z" glyph-name="cent" horiz-adv-x="573" unicode="&#162;" /><glyph d="M297 800H419L548 592H414L349 688L258 592H116Z" glyph-name="circumflex" horiz-adv-x="600" unicode="&#710;" /><glyph d="M349 0Q368 38 381.5 73.5Q395 109 404.5 147Q414 185 420.5 227Q427 269 431 320L428 321Q415 290 396 261Q377 232 352 209.5Q327 187 296 173.5Q265 160 228 160Q191 160 159 173.5Q127 187 103 210.5Q79 234 65.5 265.5Q52 297 52 334Q52 373 64.5 406Q77 439 100 463Q123 487 155 500.5Q187 514 226 514Q252 514 272.5 507Q293 500 310 491L312 493Q295 518 284.5 547.5Q274 577 274 610Q274 647 287.5 680Q301 713 324.5 737.5Q348 762 380 776Q412 790 450 790Q488 790 520 776Q552 762 575.5 737.5Q599 713 612.5 680Q626 647 626 610Q626 577 615.5 547.5Q605 518 588 493L590 491Q607 500 627.5 507Q648 514 674 514Q713 514 745 500.5Q777 487 800 463Q823 439 835.5 406Q848 373 848 334Q848 297 834.5 265.5Q821 234 797 210.5Q773 187 741 173.5Q709 160 672 160Q635 160 604 173.5Q573 187 548 209.5Q523 232 504 261Q485 290 472 321L469 320Q473 269 479.5 227Q486 185 495.5 147Q505 109 518.5 73.5Q532 38 551 0H349Z" glyph-name="club" horiz-adv-x="900" unicode="&#9827;" /><glyph d="M162 0H12L30 150H180ZM202 332H52L71 482H221Z" glyph-name="colon" horiz-adv-x="254" unicode=":" /><glyph d="M140 -46 175 22Q168 26 162 30Q156 34 149 39L106 -46H21L96 98Q71 136 59.5 185.5Q48 235 48 295Q48 394 71.5 481.5Q95 569 143 635Q191 701 263.5 739.5Q336 778 434 778H447L464 810H549L528 769Q536 767 543 765.5Q550 764 558 762L583 810H668L627 731Q667 705 688.5 664.5Q710 624 712 574L557 522Q557 538 555 552Q553 566 547 578L313 124Q328 120 353 120Q430 120 469.5 152.5Q509 185 522 242L665 192Q638 96 556.5 41Q475 -14 337 -14Q285 -14 246 -4L225 -46ZM376 640Q328 636 294.5 602Q261 568 240 519Q219 470 209.5 412Q200 354 200 301L376 640ZM225 185Q233 172 245 158L491 632Q484 635 476.5 636.5Q469 638 461 640Z" glyph-name="colonmonetary" horiz-adv-x="726" unicode="&#8353;" /><glyph d="M188 149 64 -127H-37L30 149Z" glyph-name="comma" horiz-adv-x="254" unicode="," /><glyph d="M50 341Q50 432 87.5 514Q125 596 188.5 658.5Q252 721 334.5 757.5Q417 794 507 794Q584 794 649.5 767Q715 740 763 692.5Q811 645 838 580.5Q865 516 865 442Q865 350 827.5 267Q790 184 727 121.5Q664 59 581 22.5Q498 -14 408 -14Q331 -14 265.5 13.5Q200 41 152 88.5Q104 136 77 201Q50 266 50 341ZM551 326Q538 291 515.5 271Q493 251 444 251Q395 251 368.5 277.5Q342 304 342 359Q342 404 352.5 436.5Q363 469 382 489.5Q401 510 427 519.5Q453 529 483 529Q529 529 545.5 508.5Q562 488 566 454L705 501Q701 535 688.5 564Q676 593 651.5 614.5Q627 636 588 648Q549 660 491 660Q428 660 374.5 639Q321 618 283 577.5Q245 537 223.5 476.5Q202 416 202 338Q202 231 259.5 175.5Q317 120 424 120Q483 120 525.5 132.5Q568 145 598 167Q628 189 647.5 218.5Q667 248 679 282L551 326Z" glyph-name="copyright" horiz-adv-x="900" unicode="&#169;" /><glyph d="M374 214Q410 214 443.5 225Q477 236 502.5 260Q528 284 543.5 322.5Q559 361 559 415Q559 451 548 477Q537 503 517.5 519Q498 535 472 542.5Q446 550 415 550Q380 550 346.5 539Q313 528 287 504.5Q261 481 245 443Q229 405 229 351Q229 314 240 288Q251 262 270.5 245.5Q290 229 316.5 221.5Q343 214 374 214ZM111 219Q88 270 88 334Q88 400 107.5 456Q127 512 156 552L66 654L172 749L267 642Q302 660 344 669Q386 678 431 678Q476 678 514.5 669Q553 660 585 641L706 749L790 654L674 552Q687 527 694 497.5Q701 468 701 433Q701 368 683.5 313.5Q666 259 637 219L730 114L624 19L530 126Q492 106 449 96Q406 86 358 86Q261 86 196 126L76 19L-8 114Z" glyph-name="currency" horiz-adv-x="776" unicode="&#164;" /><glyph d="M491 800H627L546 143L538 0H413L409 58Q397 43 378 29.5Q359 16 336.5 6.5Q314 -3 289.5 -8.5Q265 -14 242 -14Q138 -14 83.5 41.5Q29 97 29 204Q29 287 49.5 350Q70 413 106.5 456.5Q143 500 195 522Q247 544 310 544Q355 544 393.5 526.5Q432 509 452 483ZM317 416Q287 416 260.5 403Q234 390 214.5 366.5Q195 343 184 309.5Q173 276 173 234Q173 172 202 143Q231 114 279 114Q306 114 328.5 122Q351 130 368.5 142.5Q386 155 398.5 171Q411 187 417 203L433 327Q431 344 422.5 359.5Q414 375 399.5 388Q385 401 364 408.5Q343 416 317 416Z" glyph-name="d" horiz-adv-x="633" unicode="d" /><glyph d="M225 389H109L154 593L42 582L54 680L164 669L166 780H264L240 669L352 680L340 582L230 593Z" glyph-name="dagger" horiz-adv-x="319" unicode="&#8224;" /><glyph d="M206 229H90L135 433L22 422L34 520L144 509L145 551L154 593L42 582L54 680L164 669L166 780H264L240 669L352 680L340 582L230 593L229 551L220 509L332 520L320 422L211 433Z" glyph-name="daggerdbl" horiz-adv-x="320" unicode="&#8225;" /><glyph d="M637 592 710 800H854L759 592ZM491 800H627L546 143L538 0H413L409 58Q397 43 378 29.5Q359 16 336.5 6.5Q314 -3 289.5 -8.5Q265 -14 242 -14Q138 -14 83.5 41.5Q29 97 29 204Q29 287 49.5 350Q70 413 106.5 456.5Q143 500 195 522Q247 544 310 544Q355 544 393.5 526.5Q432 509 452 483ZM317 416Q287 416 260.5 403Q234 390 214.5 366.5Q195 343 184 309.5Q173 276 173 234Q173 172 202 143Q231 114 279 114Q306 114 328.5 122Q351 130 368.5 142.5Q386 155 398.5 171Q411 187 417 203L433 327Q431 344 422.5 359.5Q414 375 399.5 388Q385 401 364 408.5Q343 416 317 416Z" glyph-name="dcaron" horiz-adv-x="633" unicode="&#271;" /><glyph d="M467 607H339L352 709H480L491 800H627L615 709H707L694 607H603L546 143L538 0H413L409 58Q397 43 378 29.5Q359 16 336.5 6.5Q314 -3 289.5 -8.5Q265 -14 242 -14Q138 -14 83.5 41.5Q29 97 29 204Q29 287 49.5 350Q70 413 106.5 456.5Q143 500 195 522Q247 544 310 544Q355 544 393.5 526.5Q432 509 452 483ZM317 416Q287 416 260.5 403Q234 390 214.5 366.5Q195 343 184 309.5Q173 276 173 234Q173 172 202 143Q231 114 279 114Q306 114 328.5 122Q351 130 368.5 142.5Q386 155 398.5 171Q411 187 417 203L433 327Q431 344 422.5 359.5Q414 375 399.5 388Q385 401 364 408.5Q343 416 317 416Z" glyph-name="dcroat" horiz-adv-x="633" unicode="&#273;" /><glyph d="M254 410Q216 410 184.5 419.5Q153 429 130 448Q107 467 94 495.5Q81 524 81 562Q81 617 98.5 657.5Q116 698 146 725Q176 752 215.5 765Q255 778 299 778Q337 778 368.5 768.5Q400 759 423 740Q446 721 459 692.5Q472 664 472 626Q472 571 454.5 530.5Q437 490 407 463Q377 436 337.5 423Q298 410 254 410ZM286 675Q245 674 218.5 651Q192 628 192 579Q192 544 212 528.5Q232 513 266 513Q307 513 334 536Q361 559 361 609Q361 644 341 659.5Q321 675 286 675Z" glyph-name="degree" horiz-adv-x="488" unicode="&#176;" /><glyph d="M817 390Q764 348 712.5 300.5Q661 253 614 201.5Q567 150 525.5 96.5Q484 43 451 -10H449Q416 43 374.5 96.5Q333 150 286 201.5Q239 253 187.5 300.5Q136 348 83 390Q136 432 187.5 479.5Q239 527 286 578.5Q333 630 374.5 683.5Q416 737 449 790H451Q484 737 525.5 683.5Q567 630 614 578.5Q661 527 712.5 479.5Q764 432 817 390Z" glyph-name="diamond" horiz-adv-x="900" unicode="&#9830;" /><glyph d="M301 617H151L170 767H320ZM519 617H369L388 767H538Z" glyph-name="dieresis" horiz-adv-x="600" unicode="&#168;" /><glyph d="M80 323V457H620V323ZM425 510H275V660H425ZM425 120H275V270H425Z" glyph-name="divide" horiz-adv-x="700" unicode="&#247;" /><glyph d="M262 228Q284 228 304 230.5Q324 233 339 239.5Q354 246 363 257.5Q372 269 372 287Q372 312 342.5 318Q313 324 254 331Q224 334 191.5 340.5Q159 347 132 361Q105 375 88 399.5Q71 424 71 463Q71 518 94.5 555.5Q118 593 155 616Q192 639 236.5 649Q281 659 323 659L361 764H482L441 650Q486 642 510.5 629Q535 616 550 605L503 479Q467 502 423 518Q379 534 317 534Q301 534 283.5 532Q266 530 251 524Q236 518 226 508Q216 498 216 482Q216 462 241.5 455.5Q267 449 319 443Q353 439 387 433.5Q421 428 448.5 414.5Q476 401 493.5 376Q511 351 511 308Q511 251 487.5 211.5Q464 172 426 147.5Q388 123 340 112Q292 101 243 101L206 0H86L126 113Q84 123 57.5 135.5Q31 148 17 158L67 285Q86 274 106 264Q126 254 149.5 246Q173 238 200.5 233Q228 228 262 228Z" glyph-name="dollar" horiz-adv-x="557" unicode="$" /><glyph d="M410 617H260L279 767H429Z" glyph-name="dotaccent" horiz-adv-x="600" unicode="&#729;" /><glyph d="M310 -200H160L178 -50H328Z" glyph-name="dotbelowcomb" horiz-adv-x="600" unicode="&#803;" /><glyph d="M96 530H232L167 0H31Z" glyph-name="dotlessi" horiz-adv-x="278" unicode="&#305;" /><glyph d="M171 213Q167 159 196.5 132Q226 105 278 105Q332 105 357.5 122.5Q383 140 392 168L520 124Q508 95 488.5 70Q469 45 438.5 26Q408 7 366 -3.5Q324 -14 267 -14Q152 -14 91 44Q30 102 30 214Q30 295 52 356.5Q74 418 114 460Q154 502 208.5 523Q263 544 328 544Q438 544 494 488.5Q550 433 550 325Q550 297 547.5 265Q545 233 540 213ZM315 425Q264 425 230.5 400Q197 375 185 320H407Q412 369 389.5 397Q367 425 315 425Z" glyph-name="e" horiz-adv-x="597" unicode="e" /><glyph d="M536 800 399 592H265L385 800ZM171 213Q167 159 196.5 132Q226 105 278 105Q332 105 357.5 122.5Q383 140 392 168L520 124Q508 95 488.5 70Q469 45 438.5 26Q408 7 366 -3.5Q324 -14 267 -14Q152 -14 91 44Q30 102 30 214Q30 295 52 356.5Q74 418 114 460Q154 502 208.5 523Q263 544 328 544Q438 544 494 488.5Q550 433 550 325Q550 297 547.5 265Q545 233 540 213ZM315 425Q264 425 230.5 400Q197 375 185 320H407Q412 369 389.5 397Q367 425 315 425Z" glyph-name="eacute" horiz-adv-x="597" unicode="&#233;" /><glyph d="M171 213Q167 159 196.5 132Q226 105 278 105Q332 105 357.5 122.5Q383 140 392 168L520 124Q508 95 488.5 70Q469 45 438.5 26Q408 7 366 -3.5Q324 -14 267 -14Q152 -14 91 44Q30 102 30 214Q30 295 52 356.5Q74 418 114 460Q154 502 208.5 523Q263 544 328 544Q438 544 494 488.5Q550 433 550 325Q550 297 547.5 265Q545 233 540 213ZM315 425Q264 425 230.5 400Q197 375 185 320H407Q412 369 389.5 397Q367 425 315 425ZM559 800Q553 749 538 709Q523 669 496 642Q469 615 429 600.5Q389 586 333 586Q277 586 240.5 600.5Q204 615 184 642Q164 669 159 709Q154 749 161 800H266Q258 749 278 728Q298 707 347 707Q396 707 420 728Q444 749 450 800Z" glyph-name="ebreve" horiz-adv-x="597" unicode="&#277;" /><glyph d="M171 213Q167 159 196.5 132Q226 105 278 105Q332 105 357.5 122.5Q383 140 392 168L520 124Q508 95 488.5 70Q469 45 438.5 26Q408 7 366 -3.5Q324 -14 267 -14Q152 -14 91 44Q30 102 30 214Q30 295 52 356.5Q74 418 114 460Q154 502 208.5 523Q263 544 328 544Q438 544 494 488.5Q550 433 550 325Q550 297 547.5 265Q545 233 540 213ZM315 425Q264 425 230.5 400Q197 375 185 320H407Q412 369 389.5 397Q367 425 315 425ZM395 592H273L144 800H278L343 704L434 800H576Z" glyph-name="ecaron" horiz-adv-x="597" unicode="&#283;" /><glyph d="M171 213Q167 159 196.5 132Q226 105 278 105Q332 105 357.5 122.5Q383 140 392 168L520 124Q508 95 488.5 70Q469 45 438.5 26Q408 7 366 -3.5Q324 -14 267 -14Q152 -14 91 44Q30 102 30 214Q30 295 52 356.5Q74 418 114 460Q154 502 208.5 523Q263 544 328 544Q438 544 494 488.5Q550 433 550 325Q550 297 547.5 265Q545 233 540 213ZM315 425Q264 425 230.5 400Q197 375 185 320H407Q412 369 389.5 397Q367 425 315 425ZM299 800H421L550 592H416L351 688L260 592H118Z" glyph-name="ecircumflex" horiz-adv-x="597" unicode="&#234;" /><glyph d="M521 617H371L390 767H540ZM303 617H153L172 767H322ZM171 213Q167 159 196.5 132Q226 105 278 105Q332 105 357.5 122.5Q383 140 392 168L520 124Q508 95 488.5 70Q469 45 438.5 26Q408 7 366 -3.5Q324 -14 267 -14Q152 -14 91 44Q30 102 30 214Q30 295 52 356.5Q74 418 114 460Q154 502 208.5 523Q263 544 328 544Q438 544 494 488.5Q550 433 550 325Q550 297 547.5 265Q545 233 540 213ZM315 425Q264 425 230.5 400Q197 375 185 320H407Q412 369 389.5 397Q367 425 315 425Z" glyph-name="edieresis" horiz-adv-x="597" unicode="&#235;" /><glyph d="M171 213Q167 159 196.5 132Q226 105 278 105Q332 105 357.5 122.5Q383 140 392 168L520 124Q508 95 488.5 70Q469 45 438.5 26Q408 7 366 -3.5Q324 -14 267 -14Q152 -14 91 44Q30 102 30 214Q30 295 52 356.5Q74 418 114 460Q154 502 208.5 523Q263 544 328 544Q438 544 494 488.5Q550 433 550 325Q550 297 547.5 265Q545 233 540 213ZM315 425Q264 425 230.5 400Q197 375 185 320H407Q412 369 389.5 397Q367 425 315 425ZM412 617H262L281 767H431Z" glyph-name="edotaccent" horiz-adv-x="597" unicode="&#279;" /><glyph d="M338 800 406 592H272L187 800ZM171 213Q167 159 196.5 132Q226 105 278 105Q332 105 357.5 122.5Q383 140 392 168L520 124Q508 95 488.5 70Q469 45 438.5 26Q408 7 366 -3.5Q324 -14 267 -14Q152 -14 91 44Q30 102 30 214Q30 295 52 356.5Q74 418 114 460Q154 502 208.5 523Q263 544 328 544Q438 544 494 488.5Q550 433 550 325Q550 297 547.5 265Q545 233 540 213ZM315 425Q264 425 230.5 400Q197 375 185 320H407Q412 369 389.5 397Q367 425 315 425Z" glyph-name="egrave" horiz-adv-x="597" unicode="&#232;" /><glyph d="M365 451Q392 451 419.5 455Q447 459 468.5 471Q490 483 504 505.5Q518 528 518 565Q518 589 508.5 604.5Q499 620 481.5 629.5Q464 639 440.5 643Q417 647 389 647Q357 647 329 641.5Q301 636 280.5 623Q260 610 248 588.5Q236 567 236 534Q236 507 246.5 491Q257 475 275 466Q293 457 316.5 454Q340 451 365 451ZM324 116Q405 116 451.5 144Q498 172 498 238Q498 268 484.5 286.5Q471 305 450 315.5Q429 326 402.5 329.5Q376 333 350 333Q322 333 290.5 328Q259 323 233.5 309.5Q208 296 191 271Q174 246 174 205Q174 157 214 136.5Q254 116 324 116ZM308 -14Q167 -14 100.5 34.5Q34 83 34 176Q34 223 46 259.5Q58 296 77 323Q96 350 120 368Q144 386 168 396Q137 413 117 447Q97 481 97 530Q97 600 124 647.5Q151 695 194.5 724Q238 753 293 765.5Q348 778 405 778Q456 778 502.5 768.5Q549 759 583.5 738Q618 717 638.5 682Q659 647 659 596Q659 559 650 527Q641 495 626 469.5Q611 444 591 425.5Q571 407 548 396Q583 380 609.5 343.5Q636 307 636 245Q636 120 554 53Q472 -14 308 -14Z" glyph-name="eight" horiz-adv-x="700" unicode="8" /><glyph d="M215 0H65L83 150H233ZM545 0H395L413 150H563ZM875 0H725L743 150H893Z" glyph-name="ellipsis" horiz-adv-x="1020" unicode="&#8230;" /><glyph d="M171 213Q167 159 196.5 132Q226 105 278 105Q332 105 357.5 122.5Q383 140 392 168L520 124Q508 95 488.5 70Q469 45 438.5 26Q408 7 366 -3.5Q324 -14 267 -14Q152 -14 91 44Q30 102 30 214Q30 295 52 356.5Q74 418 114 460Q154 502 208.5 523Q263 544 328 544Q438 544 494 488.5Q550 433 550 325Q550 297 547.5 265Q545 233 540 213ZM315 425Q264 425 230.5 400Q197 375 185 320H407Q412 369 389.5 397Q367 425 315 425ZM201 760H509L493 635H185Z" glyph-name="emacron" horiz-adv-x="597" unicode="&#275;" /><glyph d="M948 272H38L54 400H964Z" glyph-name="emdash" horiz-adv-x="1000" unicode="&#8212;" /><glyph d="M38 272 54 400H464L448 272Z" glyph-name="endash" horiz-adv-x="500" unicode="&#8211;" /><glyph d="M426 334Q431 376 408 396Q385 416 343 416Q317 416 293 407Q269 398 249.5 384.5Q230 371 216.5 354.5Q203 338 198 323L159 0H24L71 387L80 530H205L209 474Q239 506 284.5 525Q330 544 377 544Q423 544 460.5 532Q498 520 523 496.5Q548 473 559 437.5Q570 402 564 354L520 -2Q515 -43 502.5 -81Q490 -119 464 -148.5Q438 -178 395.5 -196Q353 -214 288 -214Q258 -214 235 -209Q212 -204 198 -198L227 -69Q236 -74 256.5 -81.5Q277 -89 302 -87Q320 -86 334 -82Q348 -78 358.5 -68Q369 -58 375.5 -40.5Q382 -23 385 5Z" glyph-name="eng" horiz-adv-x="614" unicode="&#331;" /><glyph d="M315 425Q264 425 230.5 400Q197 375 185 320H407Q412 369 389.5 397Q367 425 315 425ZM30 214Q30 295 52 356.5Q74 418 114 460Q154 502 208.5 523Q263 544 328 544Q438 544 494 488.5Q550 433 550 325Q550 297 547.5 265Q545 233 540 213H171Q167 159 196.5 132Q226 105 278 105Q332 105 357.5 122.5Q383 140 392 168L520 124Q503 82 467.5 48.5Q432 15 371 -2Q326 -14 299 -39Q272 -64 272 -88Q272 -99 278.5 -107.5Q285 -116 305 -116Q316 -116 326.5 -113Q337 -110 346 -106.5Q355 -103 361 -100Q367 -97 367 -97L384 -189Q367 -199 339 -206.5Q311 -214 277 -214Q222 -214 192 -188Q162 -162 162 -113Q162 -83 172.5 -57Q183 -31 203 -9Q118 6 74 63Q30 120 30 214Z" glyph-name="eogonek" horiz-adv-x="597" unicode="&#281;" /><glyph d="M80 208V342H620V208ZM80 438V572H620V438Z" glyph-name="equal" horiz-adv-x="700" unicode="=" /><glyph d="M80 120V254H620V120ZM80 526V660H620V526ZM80 323V457H620V323Z" glyph-name="equivalence" horiz-adv-x="700" unicode="&#8801;" /><glyph d="M778 260Q768 188 736.5 136.5Q705 85 656.5 51.5Q608 18 544 2Q480 -14 403 -14Q317 -14 245 14Q173 42 121.5 94Q70 146 41.5 220Q13 294 13 385Q13 477 41.5 550.5Q70 624 121.5 676Q173 728 245 756Q317 784 403 784Q489 784 561 756Q633 728 684.5 676Q736 624 764.5 550.5Q793 477 793 385V337H172Q176 282 188.5 235.5Q201 189 228 154.5Q255 120 297.5 100.5Q340 81 404 81Q626 81 662 260ZM404 689Q340 689 297.5 669.5Q255 650 228.5 615.5Q202 581 189 534.5Q176 488 173 433H633Q630 488 617 534.5Q604 581 577.5 615.5Q551 650 509 669.5Q467 689 404 689Z" glyph-name="estimated" horiz-adv-x="806" unicode="&#8494;" /><glyph d="M259 -13Q151 -13 90.5 43Q30 99 30 210Q30 292 52 354.5Q74 417 113.5 459Q153 501 207 522Q261 543 325 543Q346 543 367.5 538Q389 533 404 524Q396 556 382 582.5Q368 609 352 631L159 562L170 655L292 698Q249 735 203 759Q157 783 120 800H337Q356 789 377 775.5Q398 762 421 743L557 791L545 700L480 676Q514 628 536.5 555.5Q559 483 559 380Q559 185 483.5 86Q408 -13 259 -13ZM274 113Q303 113 329 123Q355 133 374.5 155.5Q394 178 405 214Q416 250 416 302Q416 364 388 390Q360 416 312 416Q283 416 257 406Q231 396 211.5 374Q192 352 180.5 316Q169 280 169 228Q169 166 196.5 139.5Q224 113 274 113Z" glyph-name="eth" horiz-adv-x="602" unicode="&#240;" /><glyph d="M277 780 181 229H79L117 780ZM177 0H27L45 150H195Z" glyph-name="exclam" horiz-adv-x="284" unicode="!" /><glyph d="M277 780 181 229H79L117 780ZM177 0H27L45 150H195ZM517 780 421 229H319L357 780ZM417 0H267L285 150H435Z" glyph-name="exclamdbl" horiz-adv-x="524" unicode="&#8252;" /><glyph d="M-1 -200 87 300H189L155 -200ZM223 379H73L91 529H241Z" glyph-name="exclamdown" horiz-adv-x="285" unicode="&#161;" /><glyph d="M54 530H158L166 602Q171 643 183.5 681Q196 719 222 748.5Q248 778 290.5 796Q333 814 398 814Q428 814 451 809Q474 804 488 798L460 669Q451 674 430.5 681.5Q410 689 385 687Q367 686 353 682Q339 678 328.5 668Q318 658 311.5 640.5Q305 623 302 595L294 530H436L420 407H278L204 -200H68L142 407H38Z" glyph-name="f" horiz-adv-x="437" unicode="f" /><glyph d="M38 272 54 400H664L648 272Z" glyph-name="figuredash" horiz-adv-x="700" unicode="&#8210;" /><glyph d="M878 0H98V780H878Z" glyph-name="filledbox" horiz-adv-x="976" unicode="&#9632;" /><glyph d="M93 371 180 764H654L638 634H286L255 491Q282 509 318 517Q354 525 389 525Q508 525 573 470.5Q638 416 638 306Q638 224 611.5 163.5Q585 103 539.5 63.5Q494 24 434 5Q374 -14 307 -14Q171 -14 109 38.5Q47 91 43 186L185 235Q185 200 193 177Q201 154 218 140Q235 126 261 120.5Q287 115 323 115Q356 115 387.5 124.5Q419 134 443.5 155Q468 176 483 208.5Q498 241 498 287Q498 402 370 402Q319 402 276.5 387Q234 372 204 333Z" glyph-name="five" horiz-adv-x="700" unicode="5" /><glyph d="M321 0H180L793 764H935ZM89 555 137 764H416L404 662H215L205 622Q216 627 233.5 630Q251 633 267 633Q299 633 325 627.5Q351 622 369 609Q387 596 397 575Q407 554 407 523Q407 476 391 442.5Q375 409 349 388Q323 367 288.5 357Q254 347 216 347Q142 347 105.5 374Q69 401 64 456L174 494Q175 468 187.5 457Q200 446 225 446Q238 446 250.5 449.5Q263 453 273.5 460.5Q284 468 290.5 480Q297 492 297 510Q297 531 285 542.5Q273 554 246 554Q226 554 207.5 547.5Q189 541 178 525ZM881 246Q905 246 924.5 254Q944 262 944 286Q944 304 928.5 310.5Q913 317 890 317Q864 317 846 308.5Q828 300 828 276Q828 258 843 252Q858 246 881 246ZM861 85Q893 85 911.5 94.5Q930 104 930 129Q930 150 911.5 156.5Q893 163 871 163Q859 163 847 161Q835 159 825 154Q815 149 808.5 140.5Q802 132 802 118Q802 100 817.5 92.5Q833 85 861 85ZM849 -14Q691 -14 691 93Q691 141 710 168Q729 195 752 207Q739 218 731.5 234.5Q724 251 724 273Q724 314 739.5 341.5Q755 369 780.5 385.5Q806 402 837.5 409Q869 416 902 416Q932 416 958.5 410.5Q985 405 1005.5 392.5Q1026 380 1038 359.5Q1050 339 1050 309Q1050 274 1036 247.5Q1022 221 1000 207Q1017 197 1028 179Q1039 161 1039 132Q1039 60 990.5 23Q942 -14 849 -14Z" glyph-name="fiveeighths" horiz-adv-x="1108" unicode="&#8541;" /><glyph d="M29 332 44 455H148L162 566Q167 607 179.5 645Q192 683 218 712.5Q244 742 286.5 760Q329 778 394 778Q424 778 447 773Q470 768 484 762L455 633Q446 638 426 645.5Q406 653 380 651Q362 650 348 646Q334 642 323.5 632Q313 622 306.5 604.5Q300 587 297 559L284 455H426L411 332H269L228 -2Q223 -43 210.5 -81Q198 -119 172 -148.5Q146 -178 103.5 -196Q61 -214 -4 -214Q-33 -214 -56 -209Q-79 -204 -93 -198L-64 -69Q-55 -74 -35 -81.5Q-15 -89 10 -87Q28 -86 42 -82Q56 -78 66.5 -68Q77 -58 83.5 -40.5Q90 -23 93 5L133 332Z" glyph-name="florin" horiz-adv-x="447" unicode="&#402;" /><glyph d="M497 168 477 0H341L361 168H25L38 271L449 778H572L513 297H648L632 168ZM408 547 210 297H377Z" glyph-name="four" horiz-adv-x="700" unicode="4" /><glyph d="M-108 0H-249L364 764H506Z" glyph-name="fraction" horiz-adv-x="243" unicode="&#8260;" /><glyph d="M289 269 256 0H106L139 269H34L46 368H151L155 407H50L63 505H168L199 764H667L651 629H333L318 505H552L539 407H305L301 368H535L523 269Z" glyph-name="franc" horiz-adv-x="631" unicode="&#8355;" /><glyph d="M402 75Q376 49 333 31.5Q290 14 245 14Q141 14 86 64Q31 114 31 219Q31 294 49.5 354.5Q68 415 103.5 457Q139 499 191 521.5Q243 544 310 544Q361 544 401.5 523.5Q442 503 459 472L478 530H603L576 387L528 -8Q521 -61 497 -99.5Q473 -138 435.5 -163.5Q398 -189 348.5 -201.5Q299 -214 242 -214Q127 -214 72.5 -178Q18 -142 11 -76L153 -27Q153 -58 172.5 -75Q192 -92 242 -92Q305 -92 345 -74Q385 -56 391 -10ZM317 416Q256 416 215.5 373.5Q175 331 175 248Q175 219 183 198.5Q191 178 205.5 165.5Q220 153 240 147.5Q260 142 283 142Q309 142 331.5 150Q354 158 372 170.5Q390 183 402.5 199Q415 215 421 231L433 327Q431 344 422.5 359.5Q414 375 399.5 388Q385 401 364 408.5Q343 416 317 416Z" glyph-name="g" horiz-adv-x="633" unicode="g" /><glyph d="M402 75Q376 49 333 31.5Q290 14 245 14Q141 14 86 64Q31 114 31 219Q31 294 49.5 354.5Q68 415 103.5 457Q139 499 191 521.5Q243 544 310 544Q361 544 401.5 523.5Q442 503 459 472L478 530H603L576 387L528 -8Q521 -61 497 -99.5Q473 -138 435.5 -163.5Q398 -189 348.5 -201.5Q299 -214 242 -214Q127 -214 72.5 -178Q18 -142 11 -76L153 -27Q153 -58 172.5 -75Q192 -92 242 -92Q305 -92 345 -74Q385 -56 391 -10ZM317 416Q256 416 215.5 373.5Q175 331 175 248Q175 219 183 198.5Q191 178 205.5 165.5Q220 153 240 147.5Q260 142 283 142Q309 142 331.5 150Q354 158 372 170.5Q390 183 402.5 199Q415 215 421 231L433 327Q431 344 422.5 359.5Q414 375 399.5 388Q385 401 364 408.5Q343 416 317 416ZM563 800Q557 749 542 709Q527 669 500 642Q473 615 433 600.5Q393 586 337 586Q281 586 244.5 600.5Q208 615 188 642Q168 669 163 709Q158 749 165 800H270Q262 749 282 728Q302 707 351 707Q400 707 424 728Q448 749 454 800Z" glyph-name="gbreve" horiz-adv-x="633" unicode="&#287;" /><glyph d="M402 75Q376 49 333 31.5Q290 14 245 14Q141 14 86 64Q31 114 31 219Q31 294 49.5 354.5Q68 415 103.5 457Q139 499 191 521.5Q243 544 310 544Q361 544 401.5 523.5Q442 503 459 472L478 530H603L576 387L528 -8Q521 -61 497 -99.5Q473 -138 435.5 -163.5Q398 -189 348.5 -201.5Q299 -214 242 -214Q127 -214 72.5 -178Q18 -142 11 -76L153 -27Q153 -58 172.5 -75Q192 -92 242 -92Q305 -92 345 -74Q385 -56 391 -10ZM317 416Q256 416 215.5 373.5Q175 331 175 248Q175 219 183 198.5Q191 178 205.5 165.5Q220 153 240 147.5Q260 142 283 142Q309 142 331.5 150Q354 158 372 170.5Q390 183 402.5 199Q415 215 421 231L433 327Q431 344 422.5 359.5Q414 375 399.5 388Q385 401 364 408.5Q343 416 317 416ZM399 592H277L148 800H282L347 704L438 800H580Z" glyph-name="gcaron" horiz-adv-x="633" unicode="&#487;" /><glyph d="M402 75Q376 49 333 31.5Q290 14 245 14Q141 14 86 64Q31 114 31 219Q31 294 49.5 354.5Q68 415 103.5 457Q139 499 191 521.5Q243 544 310 544Q361 544 401.5 523.5Q442 503 459 472L478 530H603L576 387L528 -8Q521 -61 497 -99.5Q473 -138 435.5 -163.5Q398 -189 348.5 -201.5Q299 -214 242 -214Q127 -214 72.5 -178Q18 -142 11 -76L153 -27Q153 -58 172.5 -75Q192 -92 242 -92Q305 -92 345 -74Q385 -56 391 -10ZM317 416Q256 416 215.5 373.5Q175 331 175 248Q175 219 183 198.5Q191 178 205.5 165.5Q220 153 240 147.5Q260 142 283 142Q309 142 331.5 150Q354 158 372 170.5Q390 183 402.5 199Q415 215 421 231L433 327Q431 344 422.5 359.5Q414 375 399.5 388Q385 401 364 408.5Q343 416 317 416ZM303 800H425L554 592H420L355 688L264 592H122Z" glyph-name="gcircumflex" horiz-adv-x="633" unicode="&#285;" /><glyph d="M402 75Q376 49 333 31.5Q290 14 245 14Q141 14 86 64Q31 114 31 219Q31 294 49.5 354.5Q68 415 103.5 457Q139 499 191 521.5Q243 544 310 544Q361 544 401.5 523.5Q442 503 459 472L478 530H603L576 387L528 -8Q521 -61 497 -99.5Q473 -138 435.5 -163.5Q398 -189 348.5 -201.5Q299 -214 242 -214Q127 -214 72.5 -178Q18 -142 11 -76L153 -27Q153 -58 172.5 -75Q192 -92 242 -92Q305 -92 345 -74Q385 -56 391 -10ZM317 416Q256 416 215.5 373.5Q175 331 175 248Q175 219 183 198.5Q191 178 205.5 165.5Q220 153 240 147.5Q260 142 283 142Q309 142 331.5 150Q354 158 372 170.5Q390 183 402.5 199Q415 215 421 231L433 327Q431 344 422.5 359.5Q414 375 399.5 388Q385 401 364 408.5Q343 416 317 416ZM473 800 400 592H256L351 800Z" glyph-name="gcommaaccent" horiz-adv-x="633" unicode="&#291;" /><glyph d="M402 75Q376 49 333 31.5Q290 14 245 14Q141 14 86 64Q31 114 31 219Q31 294 49.5 354.5Q68 415 103.5 457Q139 499 191 521.5Q243 544 310 544Q361 544 401.5 523.5Q442 503 459 472L478 530H603L576 387L528 -8Q521 -61 497 -99.5Q473 -138 435.5 -163.5Q398 -189 348.5 -201.5Q299 -214 242 -214Q127 -214 72.5 -178Q18 -142 11 -76L153 -27Q153 -58 172.5 -75Q192 -92 242 -92Q305 -92 345 -74Q385 -56 391 -10ZM317 416Q256 416 215.5 373.5Q175 331 175 248Q175 219 183 198.5Q191 178 205.5 165.5Q220 153 240 147.5Q260 142 283 142Q309 142 331.5 150Q354 158 372 170.5Q390 183 402.5 199Q415 215 421 231L433 327Q431 344 422.5 359.5Q414 375 399.5 388Q385 401 364 408.5Q343 416 317 416ZM416 617H266L285 767H435Z" glyph-name="gdotaccent" horiz-adv-x="633" unicode="&#289;" /><glyph d="M413 809Q461 809 503.5 798Q546 787 578.5 766Q611 745 629.5 713.5Q648 682 648 640Q648 587 631.5 552.5Q615 518 591.5 496.5Q568 475 543 464Q518 453 500 446Q468 434 445 422Q422 410 418 382Q418 369 427 360.5Q436 352 450.5 346.5Q465 341 483 336.5Q501 332 519 327Q537 322 558.5 314.5Q580 307 599.5 293Q619 279 632 255Q645 231 645 193Q645 140 626.5 101Q608 62 576.5 36.5Q545 11 504.5 -1.5Q464 -14 419 -14Q365 -14 329 -3Q293 8 271.5 27.5Q250 47 240.5 74Q231 101 230 134L367 181Q367 149 380 129Q393 109 432 109Q466 109 485.5 124Q505 139 505 170Q505 196 482.5 207Q460 218 417 228Q398 233 374 240Q350 247 329.5 261.5Q309 276 295 298.5Q281 321 281 357Q281 409 299 442Q317 475 341.5 495Q366 515 391.5 525Q417 535 433 541Q471 556 490.5 572.5Q510 589 510 623Q510 652 484 669Q458 686 398 686Q351 686 320 672.5Q289 659 270 636Q251 613 241.5 582Q232 551 227 515L139 -200H4L92 521Q111 668 186.5 738.5Q262 809 413 809Z" glyph-name="germandbls" horiz-adv-x="691" unicode="&#223;" /><glyph d="M119 0H-34L346 790H510L698 0H549L439 518L413 650L355 518Z" glyph-name="glyph00043" horiz-adv-x="742" /><glyph d="M220 640H115L133 790H293ZM703 640H598L561 790H721ZM346 790H510L698 0H549L509 177H201L119 0H-34ZM355 518 255 295H485L439 518L413 650Z" glyph-name="glyph00044" horiz-adv-x="742" /><glyph d="M624 -200H484L511 17L304 402L238 526L217 335L176 0H36L131 780H259L476 378L542 254L563 445L604 780H744Z" glyph-name="glyph00124" horiz-adv-x="765" /><glyph d="M379 116Q433 116 472.5 133Q512 150 539.5 179Q567 208 584 248Q601 288 611 334H200Q198 288 205 248Q212 208 232.5 179Q253 150 288.5 133Q324 116 379 116ZM446 664Q394 664 356 648.5Q318 633 290.5 606Q263 579 245.5 542.5Q228 506 217 464H624Q624 506 615.5 542.5Q607 579 586.5 606Q566 633 532 648.5Q498 664 446 664ZM363 -14Q282 -14 224 8Q166 30 129 71Q92 112 74.5 170.5Q57 229 57 302Q57 405 81 494.5Q105 584 155 650.5Q205 717 281 755.5Q357 794 462 794Q542 794 600 772.5Q658 751 695.5 710.5Q733 670 751 612.5Q769 555 769 483Q769 380 745 289.5Q721 199 671.5 131.5Q622 64 545 25Q468 -14 363 -14Z" glyph-name="glyph00147" horiz-adv-x="810" /><glyph d="M68 630 86 780H247L245 764Q198 743 164.5 712Q131 681 107 630ZM777 630Q765 681 739 712Q713 743 671 764L673 780H834L816 630ZM363 -14Q282 -14 224 8Q166 30 129 71Q92 112 74.5 170.5Q57 229 57 302Q57 405 81 494.5Q105 584 155 650.5Q205 717 281 755.5Q357 794 462 794Q542 794 600 772.5Q658 751 695.5 710.5Q733 670 751 612.5Q769 555 769 483Q769 380 745 289.5Q721 199 671.5 131.5Q622 64 545 25Q468 -14 363 -14ZM446 664Q374 664 326 633Q278 602 250 552Q222 502 210.5 440Q199 378 199 315Q199 273 207.5 236.5Q216 200 237 173Q258 146 292.5 131Q327 116 379 116Q452 116 499.5 147.5Q547 179 575 229.5Q603 280 614 342.5Q625 405 625 468Q625 510 616.5 546Q608 582 587.5 608Q567 634 532.5 649Q498 664 446 664Z" glyph-name="glyph00148" horiz-adv-x="760" /><glyph d="M347 -14Q256 -14 197.5 9Q139 32 107 72Q75 112 66.5 166.5Q58 221 65 285L126 780H266L205 285Q201 249 204.5 218.5Q208 188 224.5 165Q241 142 274.5 129Q308 116 363 116Q419 116 455 129Q491 142 513.5 165Q536 188 546.5 218.5Q557 249 561 285L622 780H762L701 285Q694 221 671.5 166.5Q649 112 607.5 72Q566 32 502 9Q438 -14 347 -14ZM566 630H445L463 780H584ZM407 630H286L304 780H425Z" glyph-name="glyph00185" horiz-adv-x="772" /><glyph d="M209 650H89L105 780H485L469 650H349L285 130H405L390 0H10L25 130H145ZM550 118Q569 119 583.5 123Q598 127 609 137Q620 147 627 164.5Q634 182 637 209L707 780H848L777 200Q772 159 758.5 120.5Q745 82 718 52Q691 22 647 4Q603 -14 538 -14Q507 -14 483.5 -10Q460 -6 446 0L474 134Q482 128 503.5 122Q525 116 550 118Z" glyph-name="glyph00197" horiz-adv-x="864" /><glyph d="M569 387 539 143 531 0H406L401 56Q376 25 332.5 5.5Q289 -14 241 -14Q135 -14 82 41.5Q29 97 29 203Q29 278 47.5 340.5Q66 403 101.5 448.5Q137 494 189 519Q241 544 309 544Q357 544 396.5 524.5Q436 505 453 474L471 530H596ZM426 327Q425 344 416.5 359.5Q408 375 393 388Q378 401 357 408.5Q336 416 310 416Q282 416 256.5 405Q231 394 212 371Q193 348 181.5 313.5Q170 279 170 231Q170 171 197 142.5Q224 114 272 114Q298 114 321 121.5Q344 129 362 142Q380 155 392.5 171Q405 187 410 203ZM426 800 494 592H359L274 800ZM239 800 307 592H173L88 800Z" glyph-name="glyph00257" horiz-adv-x="638" /><glyph d="M249 617H99L118 767H268ZM96 530H232L167 0H31Z" glyph-name="glyph00312" horiz-adv-x="278" /><glyph d="M207 459Q240 499 285.5 521.5Q331 544 382 544Q428 544 464.5 532.5Q501 521 525 498Q549 475 559.5 440Q570 405 564 357L496 -200H360L426 337Q431 379 408 397.5Q385 416 343 416Q317 416 294 408Q271 400 252 387.5Q233 375 219.5 359Q206 343 199 328L159 0H24L71 387L80 530H205Z" glyph-name="glyph00344" horiz-adv-x="614" /><glyph d="M274 113Q299 113 320 117Q341 121 357.5 132Q374 143 386 162.5Q398 182 405 213H168Q167 182 174.5 162.5Q182 143 195.5 132Q209 121 229 117Q249 113 274 113ZM312 417Q287 417 266.5 413Q246 409 229.5 398.5Q213 388 201 369Q189 350 182 320H418Q418 350 411 369Q404 388 390 398.5Q376 409 356 413Q336 417 312 417ZM259 -14Q151 -14 90.5 42Q30 98 30 210Q30 293 52.5 355.5Q75 418 115 460Q155 502 209 523Q263 544 327 544Q435 544 496 488Q557 432 557 320Q557 238 534.5 175.5Q512 113 472 71Q432 29 377.5 7.5Q323 -14 259 -14Z" glyph-name="glyph00367" horiz-adv-x="602" /><glyph d="M157 445H56L71 564H407L392 445H291L251 119H352L338 0H2L16 119H117ZM700 197Q695 157 682.5 118.5Q670 80 644.5 51Q619 22 577 4Q535 -14 470 -14Q440 -14 417 -9Q394 -4 380 2L409 131Q418 126 438 118.5Q458 111 483 113Q502 114 516 118Q530 122 540.5 132Q551 142 557.5 159.5Q564 177 567 205L611 564H745Z" glyph-name="glyph00621" horiz-adv-x="779" /><glyph d="M157 445H56L71 564H407L392 445H291L251 119H352L338 0H2L16 119H117Z" glyph-name="glyph00631" horiz-adv-x="420" /><glyph d="M157 445H56L71 564H407L392 445H291L251 119H352L338 0H2L16 119H117ZM242 810 310 602H176L91 810Z" glyph-name="glyph00632" horiz-adv-x="420" /><glyph d="M448 810 311 602H177L297 810ZM157 445H56L71 564H407L392 445H291L251 119H352L338 0H2L16 119H117Z" glyph-name="glyph00633" horiz-adv-x="420" /><glyph d="M209 810H331L460 602H322L256 696L166 602H28ZM157 445H56L71 564H407L392 445H291L251 119H352L338 0H2L16 119H117Z" glyph-name="glyph00634" horiz-adv-x="420" /><glyph d="M213 627H63L82 777H232ZM430 627H280L299 777H449ZM157 445H56L71 564H407L392 445H291L251 119H352L338 0H2L16 119H117Z" glyph-name="glyph00635" horiz-adv-x="420" /><glyph d="M513 782Q495 694 449 648.5Q403 603 325 605Q289 606 267 617.5Q245 629 229.5 643Q214 657 201 669Q188 681 170 681Q154 682 143 676Q132 670 125 660.5Q118 651 114.5 639.5Q111 628 108 617L1 630Q18 718 64.5 763.5Q111 809 189 807Q225 806 247 794.5Q269 783 284 769Q299 755 312 743Q325 731 343 731Q360 730 370.5 736Q381 742 388 751.5Q395 761 399 773Q403 785 405 795ZM157 445H56L71 564H407L392 445H291L251 119H352L338 0H2L16 119H117Z" glyph-name="glyph00636" horiz-adv-x="420" /><glyph d="M305 602H183L54 810H192L258 716L348 810H486ZM157 445H56L71 564H407L392 445H291L251 119H352L338 0H2L16 119H117Z" glyph-name="glyph00637" horiz-adv-x="420" /><glyph d="M113 770H421L406 645H98ZM157 445H56L71 564H407L392 445H291L251 119H352L338 0H2L16 119H117Z" glyph-name="glyph00638" horiz-adv-x="420" /><glyph d="M469 810Q463 759 448.5 719Q434 679 407 652Q380 625 340 610.5Q300 596 244 596Q188 596 151.5 610.5Q115 625 94.5 652Q74 679 69 719Q64 759 71 810H178Q171 759 190.5 738Q210 717 259 717Q308 717 332.5 738Q357 759 362 810ZM157 445H56L71 564H407L392 445H291L251 119H352L338 0H2L16 119H117Z" glyph-name="glyph00639" horiz-adv-x="420" /><glyph d="M45 602Q51 653 66 693Q81 733 108 760Q135 787 175 801.5Q215 816 271 816Q327 816 363.5 801.5Q400 787 420 760Q440 733 445 693Q450 653 443 602H336Q344 653 324.5 674Q305 695 256 695Q207 695 182.5 674Q158 653 152 602ZM157 445H56L71 564H407L392 445H291L251 119H352L338 0H2L16 119H117Z" glyph-name="glyph00640" horiz-adv-x="420" /><glyph d="M337 810 405 602H270L185 810ZM150 810 218 602H84L-1 810ZM157 445H56L71 564H407L392 445H291L251 119H352L338 0H2L16 119H117Z" glyph-name="glyph00641" horiz-adv-x="420" /><glyph d="M322 627H172L191 777H341ZM157 445H56L71 564H407L392 445H291L251 119H352L338 0H2L16 119H117Z" glyph-name="glyph00642" horiz-adv-x="420" /><glyph d="M223 -200H73L91 -50H241ZM157 445H56L71 564H407L392 445H291L251 119H352L338 0H2L16 119H117Z" glyph-name="glyph00643" horiz-adv-x="420" /><glyph d="M338 0Q312 -3 289 -12Q266 -21 249 -33Q232 -45 222.5 -59.5Q213 -74 213 -88Q213 -99 219.5 -107.5Q226 -116 246 -116Q257 -116 267.5 -113Q278 -110 287 -106.5Q296 -103 302 -100Q308 -97 308 -97L325 -189Q308 -199 280 -206.5Q252 -214 218 -214Q163 -214 133 -188Q103 -162 103 -113Q103 -81 117.5 -52Q132 -23 161 0H2L16 119H117L157 445H56L71 564H407L392 445H291L251 119H352Z" glyph-name="glyph00644" horiz-adv-x="420" /><glyph d="M233 489 194 443 148 390H14L137 527L175 568L149 607L67 733H197L224 687L249 643L286 687L325 733H457L343 607L307 568L335 527L424 390H292L260 443Z" glyph-name="glyph00671" horiz-adv-x="425" /><glyph d="M54 530H158L166 602Q171 643 183.5 681Q196 719 222 748.5Q248 778 290.5 796Q333 814 398 814Q428 814 451 809Q474 804 488 798L460 669Q451 674 430.5 681.5Q410 689 385 687Q367 686 353 682Q339 678 328.5 668Q318 658 311.5 640.5Q305 623 302 595L294 530H436L420 407H278L204 -200H68L142 407H38ZM533 530H669L604 0H468Z" glyph-name="glyph00676" horiz-adv-x="715" /><glyph d="M399 571 570 0H426L401 98H169L120 0H-30L281 571ZM223 206H373L322 404Z" glyph-name="glyph00773" horiz-adv-x="620" /><glyph d="M97 564H517L502 445H215L203 348H357Q396 348 430.5 342.5Q465 337 490.5 322Q516 307 530.5 280Q545 253 545 209Q545 142 525.5 101Q506 60 474 37.5Q442 15 400.5 7.5Q359 0 315 0H28ZM331 111Q363 111 385.5 127Q408 143 408 187Q408 215 391.5 226Q375 237 347 237H190L174 111Z" glyph-name="glyph00774" horiz-adv-x="583" /><glyph d="M28 0 97 564H381Q408 564 438 559.5Q468 555 492.5 541.5Q517 528 533 502.5Q549 477 549 435Q549 388 530.5 351Q512 314 484 297Q512 288 524.5 260Q537 232 537 197Q537 134 517 95.5Q497 57 465.5 36Q434 15 394.5 7.5Q355 0 316 0ZM328 119Q339 119 351.5 121.5Q364 124 375 131.5Q386 139 393.5 152.5Q401 166 401 189Q401 220 383.5 229Q366 238 346 238H190L175 119ZM215 445 202 338H349Q376 338 393 352.5Q410 367 410 405Q410 428 397.5 436.5Q385 445 362 445Z" glyph-name="glyph00775" horiz-adv-x="600" /><glyph d="M161 0H28L97 564H517L502 445H215Z" glyph-name="glyph00776" horiz-adv-x="510" /><glyph d="M33 123Q53 123 70 130.5Q87 138 103 158.5Q119 179 134.5 215.5Q150 252 167 310L240 565H613L559 123H650L615 -160H481L501 0H110L90 -160H-42L-8 123ZM287 265Q271 209 254 175Q237 141 216 123H423L462 442H338Z" glyph-name="glyph00777" horiz-adv-x="703" /><glyph d="M546 564 531 445H215L203 348H480L465 228H188L175 119H505L491 0H28L97 564Z" glyph-name="glyph00778" horiz-adv-x="585" /><glyph d="M219 564 281 399Q292 368 311 356Q330 344 363 344H390L417 564H553L526 344H553Q586 344 606.5 356Q627 368 647 399L750 564H913L779 363Q765 341 747.5 321.5Q730 302 705 289Q728 277 742 257Q756 237 766 214L857 0H694L625 177Q613 208 594.5 220.5Q576 233 543 233H512L484 0H348L376 233H345Q312 233 290 220.5Q268 208 248 177L138 0H-25L118 214Q132 237 151.5 257Q171 277 197 289Q174 302 162.5 321.5Q151 341 140 363L57 564Z" glyph-name="glyph00779" horiz-adv-x="912" /><glyph d="M245 -14Q133 -14 72.5 19.5Q12 53 4 126L153 177Q155 140 185 123.5Q215 107 264 107Q321 107 355.5 125Q390 143 390 186Q390 202 382.5 211Q375 220 362.5 224.5Q350 229 333 230.5Q316 232 296 232H186L199 337H304Q325 337 343 339.5Q361 342 374 349Q387 356 394.5 369.5Q402 383 402 405Q402 434 376.5 445.5Q351 457 305 457Q264 457 233 443Q202 429 190 389L51 436Q77 515 145 546.5Q213 578 321 578Q365 578 406.5 570.5Q448 563 480 546Q512 529 531.5 500Q551 471 551 429Q551 396 543 372Q535 348 521.5 331.5Q508 315 491 305.5Q474 296 456 291Q490 283 514 257.5Q538 232 538 183Q538 91 465 38.5Q392 -14 245 -14Z" glyph-name="glyph00780" horiz-adv-x="590" /><glyph d="M28 0 97 564H232L205 347L183 193L289 337L461 564H616L547 0H412L438 217L460 371L354 227L183 0Z" glyph-name="glyph00781" horiz-adv-x="655" /><glyph d="M585 821Q579 770 564 730Q549 690 522.5 662.5Q496 635 456 621Q416 607 360 607Q304 607 267 621Q230 635 210 662.5Q190 690 184.5 730Q179 770 186 821H294Q287 769 306.5 748.5Q326 728 375 728Q424 728 448.5 748.5Q473 769 478 821ZM28 0 97 564H232L205 347L183 193L289 337L461 564H616L547 0H412L438 217L460 371L354 227L183 0Z" glyph-name="glyph00782" horiz-adv-x="655" /><glyph d="M628 564 481 363Q464 340 445 321Q426 302 401 289Q424 277 439.5 257Q455 237 467 214L572 0H409L329 177Q315 208 296 220.5Q277 233 244 233H192L164 0H28L97 564H233L206 344H253Q286 344 308 356.5Q330 369 351 399L466 564Z" glyph-name="glyph00783" horiz-adv-x="627" /><glyph d="M532 0H396L450 442H306L255 265Q232 184 206 132.5Q180 81 149 51.5Q118 22 80.5 11Q43 0 -2 0H-23L-8 123H-1Q20 123 37.5 130Q55 137 71 157.5Q87 178 102.5 214.5Q118 251 135 310L208 565H601Z" glyph-name="glyph00784" horiz-adv-x="640" /><glyph d="M199 351 160 0H28L97 564H276L366 187L550 564H729L660 0H528L575 351L405 0H283Z" glyph-name="glyph00785" horiz-adv-x="768" /><glyph d="M611 564 542 0H409L436 228H188L161 0H28L97 564H230L203 348H451L478 564Z" glyph-name="glyph00786" horiz-adv-x="650" /><glyph d="M351 458Q297 458 262.5 438Q228 418 209 386.5Q190 355 183 315.5Q176 276 176 236Q176 209 182 185.5Q188 162 203 144Q218 126 243.5 116Q269 106 308 106Q362 106 396 126Q430 146 449 178Q468 210 475 249.5Q482 289 482 329Q482 356 476 379.5Q470 403 455.5 420.5Q441 438 415.5 448Q390 458 351 458ZM293 -14Q224 -14 175.5 2.5Q127 19 96.5 49.5Q66 80 52.5 123.5Q39 167 39 220Q39 298 57.5 364Q76 430 116 477.5Q156 525 217.5 551.5Q279 578 365 578Q434 578 482.5 561.5Q531 545 561 514.5Q591 484 605 441Q619 398 619 345Q619 267 600.5 201Q582 135 542.5 87Q503 39 441 12.5Q379 -14 293 -14Z" glyph-name="glyph00787" horiz-adv-x="670" /><glyph d="M611 564 542 0H409L463 444H215L161 0H28L97 564Z" glyph-name="glyph00788" horiz-adv-x="650" /><glyph d="M335 300Q346 300 358.5 303.5Q371 307 382 316.5Q393 326 400.5 343.5Q408 361 408 389Q408 406 403 417Q398 428 390 434Q382 440 372 442.5Q362 445 353 445H215L197 300ZM161 0H28L97 564H358Q393 564 427 557.5Q461 551 487 533.5Q513 516 529 485.5Q545 455 545 408Q545 338 523.5 293.5Q502 249 468.5 224Q435 199 394 189.5Q353 180 314 180H183Z" glyph-name="glyph00789" horiz-adv-x="570" /><glyph d="M39 219Q39 291 57 356Q75 421 114 470.5Q153 520 213.5 549Q274 578 359 578Q479 578 537.5 535.5Q596 493 598 418L459 370Q459 396 451 413Q443 430 428 440Q413 450 392 454Q371 458 345 458Q292 458 258.5 438Q225 418 206.5 385.5Q188 353 181.5 313Q175 273 175 233Q175 207 180.5 184Q186 161 200.5 143.5Q215 126 239.5 116Q264 106 302 106Q359 106 394 125.5Q429 145 437 194L565 150Q545 73 476.5 29.5Q408 -14 287 -14Q220 -14 172.5 2.5Q125 19 95.5 49.5Q66 80 52.5 123Q39 166 39 219Z" glyph-name="glyph00790" horiz-adv-x="639" /><glyph d="M292 0H158L212 445H37L52 564H536L521 445H346Z" glyph-name="glyph00791" horiz-adv-x="530" /><glyph d="M681 564 421 156Q397 118 371 86.5Q345 55 314.5 33Q284 11 246 -1Q208 -13 159 -13Q110 -13 79 -5.5Q48 2 28 13L59 136Q75 125 105.5 116.5Q136 108 165 108Q186 108 206 113.5Q226 119 244 131L65 564H224L333 249L521 564Z" glyph-name="glyph00792" horiz-adv-x="656" /><glyph d="M411 0H271L279 70Q159 70 91.5 113Q24 156 24 248Q24 312 46 358.5Q68 405 108.5 435Q149 465 205.5 479.5Q262 494 331 494L340 564H480L471 494Q591 494 658.5 451Q726 408 726 315Q726 251 704 205Q682 159 641.5 129Q601 99 544.5 84.5Q488 70 419 70ZM433 181Q467 181 494 187Q521 193 540 207Q559 221 569 244Q579 267 579 302Q579 348 548 365.5Q517 383 458 383ZM318 383Q250 383 211 357.5Q172 332 172 263Q172 216 202.5 198.5Q233 181 293 181Z" glyph-name="glyph00793" horiz-adv-x="762" /><glyph d="M303 199 135 0H-29L229 292L52 564H207L317 376L475 564H636L391 292L579 0H421Z" glyph-name="glyph00794" horiz-adv-x="630" /><glyph d="M646 120 612 -160H479L499 0H28L97 564H230L175 120H423L478 564H611L556 120Z" glyph-name="glyph00795" horiz-adv-x="700" /><glyph d="M536 0H403L434 253Q404 230 356.5 216Q309 202 249 202Q203 202 164 213Q125 224 98.5 247.5Q72 271 60 307.5Q48 344 54 395L75 564H208L190 418Q184 370 213.5 350.5Q243 331 294 331Q353 331 392.5 348Q432 365 450 385L472 564H605Z" glyph-name="glyph00796" horiz-adv-x="640" /><glyph d="M889 120 855 -160H722L742 0H28L97 564H230L175 120H354L409 564H542L487 120H666L721 564H854L799 120Z" glyph-name="glyph00797" horiz-adv-x="943" /><glyph d="M28 0 97 564H230L175 120H354L409 564H542L487 120H666L721 564H854L785 0Z" glyph-name="glyph00798" horiz-adv-x="893" /><glyph d="M184 445H37L52 564H332L305 348H459Q498 348 532.5 342.5Q567 337 592.5 322Q618 307 632.5 280Q647 253 647 209Q647 142 627.5 101Q608 60 576 37.5Q544 15 502.5 7.5Q461 0 417 0H130ZM433 111Q465 111 487.5 127Q510 143 510 187Q510 215 493.5 226Q477 237 449 237H292L276 111Z" glyph-name="glyph00799" horiz-adv-x="685" /><glyph d="M331 111Q363 111 385.5 127Q408 143 408 187Q408 215 391.5 226Q375 237 347 237H190L174 111ZM97 564H230L203 348H357Q396 348 430.5 342.5Q465 337 490.5 322Q516 307 530.5 280Q545 253 545 209Q545 142 525.5 101Q506 60 474 37.5Q442 15 400.5 7.5Q359 0 315 0H28ZM703 0H570L639 564H772Z" glyph-name="glyph00800" horiz-adv-x="819" /><glyph d="M331 111Q363 111 385.5 127Q408 143 408 187Q408 215 391.5 226Q375 237 347 237H190L174 111ZM97 564H230L203 348H357Q396 348 430.5 342.5Q465 337 490.5 322Q516 307 530.5 280Q545 253 545 209Q545 142 525.5 101Q506 60 474 37.5Q442 15 400.5 7.5Q359 0 315 0H28Z" glyph-name="glyph00801" horiz-adv-x="583" /><glyph d="M187 343H454Q449 399 417.5 427Q386 455 329 455Q267 455 236 435.5Q205 416 194 376L64 420Q75 455 96 484Q117 513 150.5 534Q184 555 231.5 566.5Q279 578 343 578Q467 578 530.5 516Q594 454 594 338Q594 254 571 188.5Q548 123 506 78Q464 33 404.5 9.5Q345 -14 271 -14Q208 -14 163.5 -2.5Q119 9 90.5 29.5Q62 50 48 78Q34 106 31 140L171 188Q172 150 197.5 129.5Q223 109 283 109Q345 109 388 140Q431 171 442 234H173Z" glyph-name="glyph00802" horiz-adv-x="646" /><glyph d="M560 -14Q488 -14 439.5 3.5Q391 21 361.5 53Q332 85 319 130Q306 175 306 230H192L164 0H28L97 564H233L207 353H324Q338 404 362 445.5Q386 487 423.5 516.5Q461 546 512.5 562Q564 578 632 578Q701 578 749.5 561.5Q798 545 828 514.5Q858 484 872 441Q886 398 886 345Q886 267 867.5 201Q849 135 809.5 87Q770 39 708 12.5Q646 -14 560 -14ZM618 458Q564 458 529.5 438Q495 418 476 386.5Q457 355 450 315.5Q443 276 443 236Q443 209 449 185.5Q455 162 470 144Q485 126 510.5 116Q536 106 575 106Q629 106 663 126Q697 146 716 178Q735 210 742 249.5Q749 289 749 329Q749 356 743 379.5Q737 403 722.5 420.5Q708 438 682.5 448Q657 458 618 458Z" glyph-name="glyph00803" horiz-adv-x="937" /><glyph d="M519 0H382L407 211H344Q309 211 291.5 198.5Q274 186 256 157L154 0H-7L114 171Q127 188 139 200Q151 212 165 219Q120 230 93.5 260Q67 290 67 351Q67 418 86 459.5Q105 501 137 524.5Q169 548 210.5 556Q252 564 297 564H588ZM290 448Q275 448 259.5 445Q244 442 231.5 433Q219 424 211 408Q203 392 203 366Q203 349 208.5 339Q214 329 224 323.5Q234 318 246.5 316Q259 314 273 314H420L437 448Z" glyph-name="glyph00804" horiz-adv-x="627" /><glyph d="M546 564 531 445H215L203 348H480L465 228H188L175 119H505L491 0H28L97 564ZM297 627H147L166 777H316ZM515 627H365L384 777H534Z" glyph-name="glyph00805" horiz-adv-x="585" /><glyph d="M305 321Q331 339 373.5 349.5Q416 360 459 360Q541 360 590.5 319Q640 278 640 192Q640 142 625 103.5Q610 65 582.5 39Q555 13 517 -0.5Q479 -14 434 -14Q407 -14 384 -9.5Q361 -5 350 -1L371 103Q378 100 388.5 96.5Q399 93 414 93Q445 93 468.5 114Q492 135 492 178Q492 219 468.5 235.5Q445 252 407 252Q369 252 337 237Q305 222 291 205L266 0H129L183 441H37L52 564H482L467 441H320Z" glyph-name="glyph00806" horiz-adv-x="690" /><glyph d="M514 821 378 613H243L362 821ZM161 0H28L97 564H517L502 445H215Z" glyph-name="glyph00807" horiz-adv-x="510" /><glyph d="M449 234H180Q185 109 306 109Q367 109 398.5 128.5Q430 148 441 188L570 143Q559 109 538 80Q517 51 483.5 30Q450 9 402.5 -2.5Q355 -14 291 -14Q167 -14 103 48Q39 110 39 225Q39 309 62 374.5Q85 440 127 485.5Q169 531 229 554.5Q289 578 363 578Q426 578 470.5 566.5Q515 555 543.5 534.5Q572 514 586.5 486Q601 458 604 424L464 376Q462 414 436.5 434.5Q411 455 352 455Q293 455 254.5 428Q216 401 197 343H463Z" glyph-name="glyph00808" horiz-adv-x="646" /><glyph d="M289 234Q249 236 208.5 241.5Q168 247 135 261Q102 275 81.5 301.5Q61 328 61 373Q61 429 81.5 467.5Q102 506 137.5 531Q173 556 221 567Q269 578 323 578Q450 578 510.5 535.5Q571 493 572 418L433 370Q433 397 427 414Q421 431 408 440.5Q395 450 373.5 454Q352 458 322 458Q300 458 277.5 455Q255 452 237 444Q219 436 208 423Q197 410 197 389Q197 362 226.5 354Q256 346 312 343Q365 340 408.5 334Q452 328 483 312Q514 296 531 269Q548 242 548 197Q548 137 526 97Q504 57 466 32Q428 7 378 -3.5Q328 -14 271 -14Q202 -14 154.5 -3Q107 8 77 28.5Q47 49 34 79Q21 109 21 146L161 194Q156 166 165.5 149Q175 132 193.5 122.5Q212 113 235.5 109.5Q259 106 281 106Q309 106 333 110Q357 114 375 122.5Q393 131 403 145.5Q413 160 413 181Q413 208 385.5 218.5Q358 229 289 234Z" glyph-name="glyph00809" horiz-adv-x="611" /><glyph d="M169 0H36L105 564H238Z" glyph-name="glyph00810" horiz-adv-x="285" /><glyph d="M169 0H36L105 564H238ZM145 627H-5L14 777H164ZM362 627H212L231 777H381Z" glyph-name="glyph00811" horiz-adv-x="285" /><glyph d="M456 564 407 168Q402 127 387.5 93.5Q373 60 346.5 36Q320 12 280 -1Q240 -14 185 -14Q128 -14 91 -3.5Q54 7 32 25Q10 43 1 68Q-8 93 -8 121L128 168Q125 139 137 122Q149 105 192 105Q231 105 250 118.5Q269 132 272 158L322 564Z" glyph-name="glyph00812" horiz-adv-x="490" /><glyph d="M442 442H306L255 265Q232 184 206 132.5Q180 81 149 51.5Q118 22 81 11Q44 0 -2 0H-23L-8 123H-1Q20 123 37.5 130Q55 137 71 157.5Q87 178 102.5 214.5Q118 251 135 310L208 565H593L567 353H721Q760 353 794 347.5Q828 342 853 326.5Q878 311 892.5 283.5Q907 256 907 213Q907 146 888 104.5Q869 63 837 40Q805 17 763.5 8.5Q722 0 678 0H388ZM685 116Q700 116 715.5 119Q731 122 743.5 130.5Q756 139 764 155Q772 171 772 197Q772 214 766 224.5Q760 235 750.5 240.5Q741 246 728 248Q715 250 701 250H554L538 116Z" glyph-name="glyph00813" horiz-adv-x="945" /><glyph d="M459 230H192L164 0H28L97 564H233L207 353H474L500 564H636L610 353H764Q803 353 837 347.5Q871 342 896.5 326Q922 310 936.5 283Q951 256 951 212Q951 146 931.5 104.5Q912 63 880 39.5Q848 16 806.5 8Q765 0 721 0H431ZM728 116Q744 116 759.5 119Q775 122 787.5 130.5Q800 139 807.5 155Q815 171 815 197Q815 214 809 224.5Q803 235 793.5 240.5Q784 246 771 248Q758 250 744 250H597L581 116Z" glyph-name="glyph00814" horiz-adv-x="989" /><glyph d="M183 441H37L52 564H482L467 441H320L303 306Q337 335 376.5 347.5Q416 360 465 360Q539 360 580.5 320.5Q622 281 612 201L588 0H451L471 170Q476 206 459.5 221.5Q443 237 405 237Q368 237 339 222Q310 207 288 180L266 0H129Z" glyph-name="glyph00815" horiz-adv-x="675" /><glyph d="M628 564 481 363Q464 340 445 321Q426 302 401 289Q424 277 439.5 257Q455 237 467 214L572 0H409L329 177Q315 208 296 220.5Q277 233 244 233H192L164 0H28L97 564H233L206 344H253Q286 344 308 356Q330 368 351 399L466 564ZM547 821 411 613H277L396 821Z" glyph-name="glyph00816" horiz-adv-x="627" /><glyph d="M681 564 421 156Q397 118 371 86.5Q345 55 314.5 33Q284 11 246 -1Q208 -13 159 -13Q110 -13 79 -5.5Q48 2 28 13L59 136Q75 125 105.5 116.5Q136 108 165 108Q186 108 206 113.5Q226 119 244 131L65 564H224L333 249L521 564ZM378 607Q322 607 285 621Q248 635 228 662.5Q208 690 202.5 730Q197 770 204 821H312Q305 769 324 748.5Q343 728 393 728Q442 728 466 748.5Q490 769 496 821H603Q597 770 582 730Q567 690 540.5 662.5Q514 635 474 621Q434 607 378 607Z" glyph-name="glyph00817" horiz-adv-x="656" /><glyph d="M28 0 97 564H230L175 120H423L478 564H611L542 0H351L331 -160H199L219 0Z" glyph-name="glyph00818" horiz-adv-x="650" /><glyph d="M502 445H215L161 0H28L97 564H383L402 724H536Z" glyph-name="glyph00819" horiz-adv-x="510" /><glyph d="M252 530H402L383 380H233ZM509 -17Q483 -109 412.5 -161.5Q342 -214 217 -214Q165 -214 122.5 -203Q80 -192 50 -170Q20 -148 3.5 -115.5Q-13 -83 -13 -39Q-13 23 6.5 63.5Q26 104 55.5 130Q85 156 119 170.5Q153 185 183 195Q199 200 215 206.5Q231 213 244 223L257 301H339L314 -69Q338 -57 354 -33.5Q370 -10 379 28ZM218 76Q202 72 186 64.5Q170 57 157.5 46Q145 35 137.5 20Q130 5 130 -15Q130 -46 147.5 -60.5Q165 -75 190 -80L218 76Z" glyph-name="glyph00874" horiz-adv-x="575" /><glyph d="M552 184Q538 138 514.5 101Q491 64 455.5 38.5Q420 13 371.5 -0.5Q323 -14 259 -14Q153 -14 90 32.5Q27 79 27 170Q27 214 37 247Q47 280 63.5 304.5Q80 329 102 346Q124 363 147 375.5Q170 388 192.5 396.5Q215 405 234 413Q278 431 296 453L313 551H395L367 139Q405 164 421 229ZM307 780H457L439 630H289ZM172 193Q172 158 191 141.5Q210 125 238 120L270 300Q253 292 235.5 282.5Q218 273 204 260.5Q190 248 181 231.5Q172 215 172 193Z" glyph-name="glyph00875" horiz-adv-x="595" /><glyph d="M216 199 227 455Q205 447 195.5 431.5Q186 416 181 390L43 409Q71 578 299 578Q351 578 393 568Q435 558 464 538.5Q493 519 507 489Q521 459 516 420Q511 377 495.5 350Q480 323 457 306Q434 289 403 280Q372 271 335 263Q319 259 307.5 256Q296 253 288 249L278 199ZM298 0H148L166 150H316ZM361 406Q363 426 358 439Q353 452 330 457L309 353Q337 361 347.5 371.5Q358 382 361 406Z" glyph-name="glyph00876" horiz-adv-x="541" /><glyph d="M305 109Q327 117 336.5 132.5Q346 148 351 174L490 155Q462 -14 233 -14Q181 -14 139 -4Q97 6 68 25.5Q39 45 25 75Q11 105 16 144Q21 187 36.5 214Q52 241 75 258Q98 275 129 284.5Q160 294 197 301Q212 305 223.5 308Q235 311 244 314L254 365H316ZM235 564H385L366 414H216ZM171 158Q168 138 173.5 125Q179 112 202 106L223 211Q195 202 184 192Q173 182 171 158Z" glyph-name="glyph00877" horiz-adv-x="541" /><glyph d="M187 207H37L55 357H205Z" glyph-name="glyph00944" horiz-adv-x="254" /><glyph d="M31 218 47 346H290L274 218Z" glyph-name="glyph00946" horiz-adv-x="333" /><glyph d="M31 218 47 346H457L441 218Z" glyph-name="glyph00947" horiz-adv-x="500" /><glyph d="M31 218 47 346H707L691 218Z" glyph-name="glyph00948" horiz-adv-x="750" /><glyph d="M941 218H31L47 346H957Z" glyph-name="glyph00949" horiz-adv-x="1000" /><glyph d="M31 218 47 346H657L641 218Z" glyph-name="glyph00950" horiz-adv-x="700" /><glyph d="M31 218 47 346H1357L1341 218Z" glyph-name="glyph00951" horiz-adv-x="1400" /><glyph d="M18 312H81Q107 425 180 484.5Q253 544 365 544Q425 544 465.5 532Q506 520 531.5 499.5Q557 479 569.5 451Q582 423 585 391L446 343Q445 360 440 374Q435 388 424.5 397.5Q414 407 396.5 412Q379 417 353 417Q304 417 269.5 391.5Q235 366 220 312H415L372 214H209Q212 163 238.5 138Q265 113 311 113Q366 113 390.5 132Q415 151 426 187L555 142Q544 109 525 80.5Q506 52 475.5 31Q445 10 401 -2Q357 -14 297 -14Q186 -14 128 44Q70 102 70 214H6Z" glyph-name="glyph01048" horiz-adv-x="616" /><glyph d="M454 607 427 533Q471 525 495.5 512Q520 499 535 488L489 362Q452 385 407.5 401Q363 417 299 417Q284 417 266.5 414.5Q249 412 235 406Q221 400 211.5 390Q202 380 202 365Q202 345 227.5 338.5Q253 332 305 326Q338 322 372 316.5Q406 311 434 297.5Q462 284 479.5 259Q497 234 497 192Q497 135 473.5 95Q450 55 413 30.5Q376 6 329.5 -5Q283 -16 238 -16H229L206 -77H86L112 -4Q70 6 43.5 18.5Q17 31 3 41L53 168Q72 157 92 147Q112 137 135.5 129Q159 121 186.5 116Q214 111 248 111Q269 111 289 113.5Q309 116 324 122.5Q339 129 348 140Q357 151 357 169Q357 194 328.5 200.5Q300 207 240 214Q210 217 177.5 223.5Q145 230 118 244Q91 258 74 282.5Q57 307 57 346Q57 401 80.5 438.5Q104 476 141 499Q178 522 222.5 532Q267 542 309 542L332 607Z" glyph-name="glyph01049" horiz-adv-x="557" /><glyph d="M95 -77 128 15Q30 69 30 210Q30 290 51.5 351.5Q73 413 111 455.5Q149 498 202 520.5Q255 543 319 544L342 607H464L435 529Q491 511 515.5 474.5Q540 438 545 391L406 343Q405 360 400 374Q395 388 384.5 397.5Q374 407 356.5 412Q339 417 313 417Q282 417 256 406Q230 395 210.5 372Q191 349 180 313.5Q169 278 169 229Q169 171 196 142Q223 113 271 113Q326 113 350.5 132Q375 151 386 187L515 142Q504 109 485 80.5Q466 52 435.5 31Q405 10 361 -2Q317 -14 257 -14H240L217 -77Z" glyph-name="glyph01050" horiz-adv-x="573" /><glyph d="M19 128H96L107 214H30L42 312H119L124 356Q130 406 154 442Q178 478 213.5 500.5Q249 523 292.5 533.5Q336 544 381 544Q486 544 535.5 507.5Q585 471 592 404L453 357Q453 385 435.5 402.5Q418 420 370 420Q267 420 258 347L254 312H451L439 214H242L231 128H568L553 0H4Z" glyph-name="glyph01051" horiz-adv-x="637" /><glyph d="M267 312H407L395 214H255L228 -2Q223 -43 210.5 -81Q198 -119 172 -148.5Q146 -178 103.5 -196Q61 -214 -4 -214Q-33 -214 -56 -209Q-79 -204 -93 -198L-64 -69Q-55 -74 -35 -81.5Q-15 -89 10 -87Q28 -86 42 -82Q56 -78 66.5 -68Q77 -58 83.5 -40.5Q90 -23 93 5L119 214H18L30 312H131L133 330Q138 371 150.5 409Q163 447 189 476.5Q215 506 257.5 524Q300 542 365 542Q395 542 418 537Q441 532 455 526L426 397Q417 402 397 409.5Q377 417 351 415Q333 414 319 410Q305 406 294.5 396Q284 386 277.5 368.5Q271 351 268 323Z" glyph-name="glyph01052" horiz-adv-x="455" /><glyph d="M217 0 231 116H54L66 214H223L46 530H207L289 371L325 302L377 371L499 530H660L405 214H562L550 116H373L359 0Z" glyph-name="glyph01053" horiz-adv-x="658" /><glyph d="M210 -77H141L179 -4Q163 0 149 6L107 -77H38L97 37Q30 95 30 210Q30 291 51.5 352.5Q73 414 112 456.5Q151 499 205.5 521Q260 543 325 544Q334 544 342.5 544Q351 544 359 543L392 607H461L424 536Q430 535 438.5 533.5Q447 532 455 530L495 607H564L514 510Q524 506 531.5 502Q539 498 544 495Q550 491 555 488L509 362Q495 370 481.5 377.5Q468 385 453 391L308 114Q362 118 404.5 133Q447 148 485 168L501 42Q474 26 439 14Q409 3 366 -5.5Q323 -14 268 -14Q262 -14 255 -13.5Q248 -13 243 -13ZM293 416Q264 416 241 400Q218 384 202 357.5Q186 331 177.5 297.5Q169 264 169 228Q169 216 170 205Q171 194 173 185L293 416ZM212 128Q227 119 241 117L393 410Q385 412 377 413Q369 414 361 415Z" glyph-name="glyph01054" horiz-adv-x="573" /><glyph d="M30 211Q30 282 50 343Q70 404 107 448.5Q144 493 197 518.5Q250 544 316 544Q376 544 421 536Q466 528 495.5 517.5Q525 507 540 498.5Q555 490 555 488L509 362Q472 385 427.5 401Q383 417 319 417Q287 417 259.5 406.5Q232 396 212 373.5Q192 351 180.5 315.5Q169 280 169 230Q169 195 178.5 171.5Q188 148 205 134L211 185L220 328H345L349 271Q377 304 417 321Q457 338 503 338L474 204Q428 199 390 174.5Q352 150 338 117V116Q381 122 416.5 136.5Q452 151 485 168L501 42Q474 26 439 14Q409 3 366 -5.5Q323 -14 268 -14Q153 -14 91.5 42Q30 98 30 211Z" glyph-name="glyph01055" horiz-adv-x="573" /><glyph d="M269 159 250 0H101L120 159H17L25 223H128L132 253H29L36 317H139L166 530H597L580 396H298L288 317H505L498 253H281L277 223H494L486 159Z" glyph-name="glyph01056" horiz-adv-x="597" /><glyph d="M245 174 240 133H586L570 0H1L17 133H95L100 174H22L30 238H108L111 268H33L41 332H119L122 357Q128 408 152.5 443.5Q177 479 213 501.5Q249 524 294.5 534Q340 544 388 544Q498 544 552 508.5Q606 473 610 405L459 354Q461 383 442 400Q423 417 373 416Q321 415 296 397.5Q271 380 266 346L264 332H468L460 268H256L253 238H457L449 174Z" glyph-name="glyph01057" horiz-adv-x="649" /><glyph d="M624 186 602 0H398L322 186H223L201 0H62L84 186H6L14 250H92L96 280H18L26 344H104L127 530H331L406 344H505L528 530H667L644 344H722L714 280H636L632 250H710L702 186ZM231 250H296L284 280H235ZM497 280H432L444 250H493ZM482 158 485 186H470ZM243 344H258L246 372Z" glyph-name="glyph01058" horiz-adv-x="744" /><glyph d="M300 114Q331 114 357 127Q383 140 402.5 164Q422 188 433 222Q444 256 444 297Q444 357 414.5 386.5Q385 416 338 416Q312 416 289 408.5Q266 401 248 388Q230 375 218 359.5Q206 344 200 327L184 203Q186 187 194.5 171Q203 155 217.5 142Q232 129 253 121.5Q274 114 300 114ZM742 21Q685 -3 642.5 -8.5Q600 -14 574 -14Q529 -14 497 -5Q465 4 444 19Q415 3 381 -5.5Q347 -14 307 -14Q262 -14 223.5 3.5Q185 21 165 47L135 -200H-1L71 387L80 530H205L208 472Q220 487 239 500.5Q258 514 280.5 523.5Q303 533 327.5 538.5Q352 544 375 544Q480 544 534 488Q588 432 588 324Q588 269 576 216.5Q564 164 544 126Q552 119 563.5 116.5Q575 114 591 113Q611 111 638.5 116Q666 121 691 132Q689 148 690.5 164.5Q692 181 694 198L719 407H625L641 530H735L752 669L891 695L871 530H1023L1007 407H855L831 205Q828 177 828 159.5Q828 142 834 131.5Q840 121 853 117Q866 113 888 113Q903 113 921.5 115.5Q940 118 968.5 124.5Q997 131 1039 143.5Q1081 156 1144 177Q1146 141 1166 122Q1186 103 1234 103Q1257 103 1278.5 106Q1300 109 1316.5 117Q1333 125 1343 138Q1353 151 1353 170Q1353 184 1345.5 192Q1338 200 1324 203.5Q1310 207 1289.5 209Q1269 211 1243 213Q1207 216 1171.5 221Q1136 226 1107.5 239Q1079 252 1061 276.5Q1043 301 1043 343Q1043 401 1067 439.5Q1091 478 1128.5 501.5Q1166 525 1210.5 534.5Q1255 544 1295 544Q1398 544 1449.5 510Q1501 476 1509 406L1371 359Q1370 390 1351.5 408.5Q1333 427 1285 427Q1269 427 1252.5 424.5Q1236 422 1222 415Q1208 408 1199 397Q1190 386 1190 368Q1190 356 1197 349Q1204 342 1217.5 338.5Q1231 335 1250 333Q1269 331 1292 328Q1328 324 1365 319.5Q1402 315 1431 302.5Q1460 290 1478.5 264.5Q1497 239 1497 194Q1497 135 1472.5 95Q1448 55 1408.5 31Q1369 7 1320.5 -3.5Q1272 -14 1224 -14Q1166 -14 1125 -3Q1084 8 1057 28Q995 -1 948 -7.5Q901 -14 874 -14Q827 -14 795.5 -4.5Q764 5 742 21Z" glyph-name="glyph01059" horiz-adv-x="1546" /><glyph d="M1026 193Q1026 134 999.5 94.5Q973 55 927 31Q881 7 818.5 -3.5Q756 -14 684 -14Q614 -14 552.5 -8Q491 -2 439.5 16.5Q388 35 346.5 67.5Q305 100 275 152H175L157 0H18L83 530H333Q370 530 405 522.5Q440 515 467.5 497Q495 479 511.5 448.5Q528 418 528 372Q528 299 498.5 253.5Q469 208 428 188Q450 157 478 140Q506 123 538.5 115Q571 107 607 105Q643 103 679 103Q785 103 833.5 117Q882 131 882 169Q882 183 874.5 191Q867 199 853 202.5Q839 206 818.5 208Q798 210 772 212Q736 215 700.5 220Q665 225 636.5 238Q608 251 590 275.5Q572 300 572 342Q572 400 596 438.5Q620 477 657.5 500.5Q695 524 739.5 533.5Q784 543 824 543Q927 543 978.5 509Q1030 475 1038 405L899 358Q899 389 880.5 407.5Q862 426 814 426Q798 426 781.5 423.5Q765 421 751 414Q737 407 728 396Q719 385 719 367Q719 355 726 348Q733 341 746.5 337.5Q760 334 779 332Q798 330 821 327Q857 323 894 318.5Q931 314 960 301.5Q989 289 1007.5 263.5Q1026 238 1026 193ZM301 275Q315 275 330.5 277Q346 279 359.5 286.5Q373 294 381.5 310Q390 326 390 354Q390 372 383 382.5Q376 393 365.5 398.5Q355 404 342 405Q329 406 317 406H206L190 275Z" glyph-name="glyph01060" horiz-adv-x="1075" /><glyph d="M668 186 599 -14H433L418 186H339L271 -14H105L87 186H2L10 250H82L79 280H14L22 344H74L58 530H208L216 344H286L346 530H502L516 344H587L641 530H790L724 344H781L773 280H702L691 250H769L761 186ZM361 250H413L411 280H371ZM522 250H559L568 280H520ZM219 250H255L265 280H218ZM540 186H527L530 152ZM394 344H407L405 376ZM224 152 234 186H222Z" glyph-name="glyph01061" horiz-adv-x="799" /><glyph d="M318 530Q413 530 458.5 483Q504 436 492 341L472 178H376L395 326Q404 403 327 403H206L157 0H18L83 530ZM208 0 251 352H347L319 127H440Q516 127 527 204L567 530H706L664 189Q652 94 595 47Q538 0 443 0Z" glyph-name="glyph01062" horiz-adv-x="739" /><glyph d="M29 401 45 530H515L499 401H334L324 318L443 374L435 305L315 249L311 215L431 271L422 202L302 146L285 0H145L154 76L46 26L54 95L162 145L166 179L58 129L67 198L175 248L194 401Z" glyph-name="glyph01063" horiz-adv-x="510" /><glyph d="M647 372 639 308H564Q553 262 528.5 231.5Q504 201 472.5 183Q441 165 404 157.5Q367 150 330 150H219L201 0H62L99 308H21L29 372H107L127 530H377Q414 530 449 522.5Q484 515 511.5 496.5Q539 478 555.5 447.5Q572 417 572 372ZM250 405 246 372H431Q425 395 403.5 400Q382 405 361 405ZM234 275H345Q366 275 388.5 279.5Q411 284 423 308H238Z" glyph-name="glyph01064" horiz-adv-x="662" /><glyph d="M231 0 193 -100H73L110 0H28L97 564H313L349 664H470L432 560Q457 556 480 547Q503 538 519.5 520.5Q536 503 544 476Q552 449 547 408Q542 370 525 341Q508 312 484 297Q517 286 528.5 250Q540 214 535 169Q529 116 508.5 83Q488 50 458 31.5Q428 13 391.5 6.5Q355 0 316 0ZM325 119Q335 119 347 120.5Q359 122 370 127Q381 132 389 142.5Q397 153 400 172Q402 191 397.5 202Q393 213 384 219Q375 225 363.5 226.5Q352 228 341 228H188L175 119ZM215 445 203 348H347Q373 348 389 357.5Q405 367 409 398Q413 427 399 436Q385 445 359 445Z" glyph-name="glyph01065" horiz-adv-x="605" /><glyph d="M116 185 177 345H104L120 473H225L276 607H414L363 473H488L539 607H677L626 473H697L681 345H578L517 185H590L574 57H468L418 -77H280L330 57H205L155 -77H17L67 57H-3L13 185ZM254 185H379L440 345H315Z" glyph-name="glyph01066" horiz-adv-x="709" /><glyph d="M210 0H60L78 150H228Z" glyph-name="glyph01132" horiz-adv-x="350" /><glyph d="M236 149 112 -127H11L78 149Z" glyph-name="glyph01133" horiz-adv-x="350" /><glyph d="M210 0H60L78 150H228ZM250 332H100L119 482H269Z" glyph-name="glyph01134" horiz-adv-x="350" /><glyph d="M236 149 112 -127H11L78 149ZM250 332H100L119 482H269Z" glyph-name="glyph01135" horiz-adv-x="350" /><glyph d="M1317 318Q1287 318 1263 300.5Q1239 283 1231 236Q1248 254 1275 261Q1302 268 1324 268Q1450 268 1450 161Q1450 117 1436 84Q1422 51 1397.5 29.5Q1373 8 1339.5 -3Q1306 -14 1268 -14Q1190 -14 1153.5 24.5Q1117 63 1117 144Q1117 281 1175.5 348.5Q1234 416 1332 416Q1394 416 1427.5 391.5Q1461 367 1467 321L1360 284Q1358 318 1317 318ZM322 0H181L794 764H936ZM669 0 681 102H806L826 266Q807 255 770 242.5Q733 230 688 225L701 330Q755 341 798 364Q841 387 868 416H952L913 102H1035L1023 0ZM40 362 52 464H177L198 628Q179 617 142 604.5Q105 592 60 587L72 692Q126 703 169 726Q212 749 239 778H323L284 464H406L394 362ZM1296 185Q1270 185 1250 171.5Q1230 158 1226 130Q1226 107 1241 95.5Q1256 84 1278 84Q1304 84 1322 98.5Q1340 113 1340 145Q1340 166 1328 175.5Q1316 185 1296 185Z" glyph-name="glyph01153" horiz-adv-x="1521" /><glyph d="M1330 318Q1300 318 1276 300.5Q1252 283 1244 236Q1261 254 1288 261Q1315 268 1337 268Q1463 268 1463 161Q1463 117 1449 84Q1435 51 1410.5 29.5Q1386 8 1352.5 -3Q1319 -14 1281 -14Q1203 -14 1166.5 24.5Q1130 63 1130 144Q1130 281 1188.5 348.5Q1247 416 1345 416Q1407 416 1440.5 391.5Q1474 367 1480 321L1373 284Q1371 318 1330 318ZM335 0H194L807 764H949ZM417 499Q417 431 367 389.5Q317 348 217 348Q71 348 60 459L170 497Q170 470 186 460Q202 450 234 450Q272 450 292 462Q312 474 312 499Q312 519 294.5 525Q277 531 252 531H184L193 605H262Q284 605 300 613.5Q316 622 316 645Q316 679 266 679Q236 679 218.5 668.5Q201 658 194 632L92 667Q110 724 155 751Q200 778 275 778Q305 778 332.5 772Q360 766 381 753.5Q402 741 414.5 720Q427 699 427 669Q427 627 411.5 604.5Q396 582 378 570Q394 562 405.5 545Q417 528 417 499ZM682 0 694 102H819L839 266Q820 255 783 242.5Q746 230 701 225L714 330Q768 341 811 364Q854 387 881 416H965L926 102H1048L1036 0ZM1309 185Q1283 185 1263 171.5Q1243 158 1239 130Q1239 107 1254 95.5Q1269 84 1291 84Q1317 84 1335 98.5Q1353 113 1353 145Q1353 166 1341 175.5Q1329 185 1309 185Z" glyph-name="glyph01154" horiz-adv-x="1534" /><glyph d="M1317 318Q1287 318 1263 300.5Q1239 283 1231 236Q1248 254 1275 261Q1302 268 1324 268Q1450 268 1450 161Q1450 117 1436 84Q1422 51 1397.5 29.5Q1373 8 1339.5 -3Q1306 -14 1268 -14Q1190 -14 1153.5 24.5Q1117 63 1117 144Q1117 281 1175.5 348.5Q1234 416 1332 416Q1394 416 1427.5 391.5Q1461 367 1467 321L1360 284Q1358 318 1317 318ZM321 0H180L793 764H935ZM89 555 137 764H416L404 662H215L205 622Q216 627 233.5 630Q251 633 267 633Q299 633 325 627.5Q351 622 369 609Q387 596 397 575Q407 554 407 523Q407 476 391 442.5Q375 409 349 388Q323 367 288.5 357Q254 347 216 347Q142 347 105.5 374Q69 401 64 456L174 494Q175 468 187.5 457Q200 446 225 446Q238 446 250.5 449.5Q263 453 273.5 460.5Q284 468 290.5 480Q297 492 297 510Q297 531 285 542.5Q273 554 246 554Q226 554 207.5 547.5Q189 541 178 525ZM668 0 680 102H805L825 266Q806 255 769 242.5Q732 230 687 225L700 330Q754 341 797 364Q840 387 867 416H951L912 102H1034L1022 0ZM1296 185Q1270 185 1250 171.5Q1230 158 1226 130Q1226 107 1241 95.5Q1256 84 1278 84Q1304 84 1322 98.5Q1340 113 1340 145Q1340 166 1328 175.5Q1316 185 1296 185Z" glyph-name="glyph01155" horiz-adv-x="1520" /><glyph d="M1260 318Q1230 318 1206 300.5Q1182 283 1174 236Q1191 254 1218 261Q1245 268 1267 268Q1393 268 1393 161Q1393 117 1379 84Q1365 51 1340.5 29.5Q1316 8 1282.5 -3Q1249 -14 1211 -14Q1133 -14 1096.5 24.5Q1060 63 1060 144Q1060 281 1118.5 348.5Q1177 416 1275 416Q1337 416 1370.5 391.5Q1404 367 1410 321L1303 284Q1301 318 1260 318ZM265 0H124L737 764H879ZM612 0 624 102H749L769 266Q750 255 713 242.5Q676 230 631 225L644 330Q698 341 741 364Q784 387 811 416H895L856 102H978L966 0ZM83 362 239 609 274 662 226 661H79L91 764H417L409 694L200 362ZM1239 185Q1213 185 1193 171.5Q1173 158 1169 130Q1169 107 1184 95.5Q1199 84 1221 84Q1247 84 1265 98.5Q1283 113 1283 145Q1283 166 1271 175.5Q1259 185 1239 185Z" glyph-name="glyph01156" horiz-adv-x="1464" /><glyph d="M216 446Q246 446 270 463.5Q294 481 302 528Q285 510 258 503Q231 496 209 496Q83 496 83 603Q83 647 97 680Q111 713 135.5 735Q160 757 193.5 767.5Q227 778 265 778Q343 778 379.5 739.5Q416 701 416 620Q416 483 357.5 415.5Q299 348 201 348Q139 348 105.5 372.5Q72 397 66 443L173 480Q175 446 216 446ZM1325 318Q1295 318 1271 300.5Q1247 283 1239 236Q1256 254 1283 261Q1310 268 1332 268Q1458 268 1458 161Q1458 117 1444 84Q1430 51 1405.5 29.5Q1381 8 1347.5 -3Q1314 -14 1276 -14Q1198 -14 1161.5 24.5Q1125 63 1125 144Q1125 281 1183.5 348.5Q1242 416 1340 416Q1402 416 1435.5 391.5Q1469 367 1475 321L1368 284Q1366 318 1325 318ZM330 0H189L802 764H944ZM677 0 689 102H814L834 266Q815 255 778 242.5Q741 230 696 225L709 330Q763 341 806 364Q849 387 876 416H960L921 102H1043L1031 0ZM237 579Q263 579 283 592.5Q303 606 307 634Q307 657 292 668.5Q277 680 255 680Q229 680 211 665.5Q193 651 193 619Q193 598 205 588.5Q217 579 237 579ZM1304 185Q1278 185 1258 171.5Q1238 158 1234 130Q1234 107 1249 95.5Q1264 84 1286 84Q1312 84 1330 98.5Q1348 113 1348 145Q1348 166 1336 175.5Q1324 185 1304 185Z" glyph-name="glyph01157" horiz-adv-x="1529" /><glyph d="M1747 318Q1717 318 1693 300.5Q1669 283 1661 236Q1678 254 1705 261Q1732 268 1754 268Q1880 268 1880 161Q1880 117 1866 84Q1852 51 1827.5 29.5Q1803 8 1769.5 -3Q1736 -14 1698 -14Q1620 -14 1583.5 24.5Q1547 63 1547 144Q1547 281 1605.5 348.5Q1664 416 1762 416Q1824 416 1857.5 391.5Q1891 367 1897 321L1790 284Q1788 318 1747 318ZM752 0H611L1224 764H1366ZM1099 0 1111 102H1236L1256 266Q1237 255 1200 242.5Q1163 230 1118 225L1131 330Q1185 341 1228 364Q1271 387 1298 416H1382L1343 102H1465L1453 0ZM470 362 482 464H607L628 628Q609 617 572 604.5Q535 592 490 587L502 692Q556 703 599 726Q642 749 669 778H753L714 464H836L824 362ZM40 362 52 464H177L198 628Q179 617 142 604.5Q105 592 60 587L72 692Q126 703 169 726Q212 749 239 778H323L284 464H406L394 362ZM1726 185Q1700 185 1680 171.5Q1660 158 1656 130Q1656 107 1671 95.5Q1686 84 1708 84Q1734 84 1752 98.5Q1770 113 1770 145Q1770 166 1758 175.5Q1746 185 1726 185Z" glyph-name="glyph01158" horiz-adv-x="1951" /><glyph d="M1753 318Q1723 318 1699 300.5Q1675 283 1667 236Q1684 254 1711 261Q1738 268 1760 268Q1886 268 1886 161Q1886 117 1872 84Q1858 51 1833.5 29.5Q1809 8 1775.5 -3Q1742 -14 1704 -14Q1626 -14 1589.5 24.5Q1553 63 1553 144Q1553 281 1611.5 348.5Q1670 416 1768 416Q1830 416 1863.5 391.5Q1897 367 1903 321L1796 284Q1794 318 1753 318ZM758 0H617L1230 764H1372ZM840 499Q840 431 790 389.5Q740 348 640 348Q494 348 483 459L593 497Q593 470 609 460Q625 450 657 450Q695 450 715 462Q735 474 735 499Q735 519 717.5 525Q700 531 675 531H607L616 605H685Q707 605 723 613.5Q739 622 739 645Q739 679 689 679Q659 679 641.5 668.5Q624 658 617 632L515 667Q533 724 578 751Q623 778 698 778Q728 778 755.5 772Q783 766 804 753.5Q825 741 837.5 720Q850 699 850 669Q850 627 834.5 604.5Q819 582 801 570Q817 562 828.5 545Q840 528 840 499ZM1105 0 1117 102H1242L1262 266Q1243 255 1206 242.5Q1169 230 1124 225L1137 330Q1191 341 1234 364Q1277 387 1304 416H1388L1349 102H1471L1459 0ZM40 362 52 464H177L198 628Q179 617 142 604.5Q105 592 60 587L72 692Q126 703 169 726Q212 749 239 778H323L284 464H406L394 362ZM1732 185Q1706 185 1686 171.5Q1666 158 1662 130Q1662 107 1677 95.5Q1692 84 1714 84Q1740 84 1758 98.5Q1776 113 1776 145Q1776 166 1764 175.5Q1752 185 1732 185Z" glyph-name="glyph01159" horiz-adv-x="1957" /><glyph d="M1739 318Q1709 318 1685 300.5Q1661 283 1653 236Q1670 254 1697 261Q1724 268 1746 268Q1872 268 1872 161Q1872 117 1858 84Q1844 51 1819.5 29.5Q1795 8 1761.5 -3Q1728 -14 1690 -14Q1612 -14 1575.5 24.5Q1539 63 1539 144Q1539 281 1597.5 348.5Q1656 416 1754 416Q1816 416 1849.5 391.5Q1883 367 1889 321L1782 284Q1780 318 1739 318ZM744 0H603L1216 764H1358ZM512 555 560 764H839L827 662H638L628 622Q639 627 656.5 630Q674 633 690 633Q722 633 748 627.5Q774 622 792 609Q810 596 820 575Q830 554 830 523Q830 476 814 442.5Q798 409 772 388Q746 367 711.5 357Q677 347 639 347Q565 347 528.5 374Q492 401 487 456L597 494Q598 468 610.5 457Q623 446 648 446Q661 446 673.5 449.5Q686 453 696.5 460.5Q707 468 713.5 480Q720 492 720 510Q720 531 708 542.5Q696 554 669 554Q649 554 630.5 547.5Q612 541 601 525ZM1091 0 1103 102H1228L1248 266Q1229 255 1192 242.5Q1155 230 1110 225L1123 330Q1177 341 1220 364Q1263 387 1290 416H1374L1335 102H1457L1445 0ZM40 362 52 464H177L198 628Q179 617 142 604.5Q105 592 60 587L72 692Q126 703 169 726Q212 749 239 778H323L284 464H406L394 362ZM1718 185Q1692 185 1672 171.5Q1652 158 1648 130Q1648 107 1663 95.5Q1678 84 1700 84Q1726 84 1744 98.5Q1762 113 1762 145Q1762 166 1750 175.5Q1738 185 1718 185Z" glyph-name="glyph01160" horiz-adv-x="1943" /><glyph d="M322 0H181L794 764H936ZM1351 416Q1416 416 1457.5 387.5Q1499 359 1499 302Q1499 261 1485.5 235.5Q1472 210 1450.5 194Q1429 178 1400.5 168.5Q1372 159 1342 151Q1314 143 1289 131.5Q1264 120 1256 100L1327 102H1484L1472 0H1123Q1129 62 1145 101.5Q1161 141 1185.5 166Q1210 191 1242.5 205.5Q1275 220 1314 232Q1352 244 1371.5 252.5Q1391 261 1391 283Q1391 301 1375 308.5Q1359 316 1341 316Q1311 316 1291 305.5Q1271 295 1264 264L1163 298Q1183 359 1230 387.5Q1277 416 1351 416ZM1046 137Q1046 69 996 27.5Q946 -14 846 -14Q700 -14 689 97L799 135Q799 108 815 98Q831 88 863 88Q901 88 921 100Q941 112 941 137Q941 157 923.5 163Q906 169 881 169H813L822 243H891Q913 243 929 251.5Q945 260 945 283Q945 317 895 317Q865 317 847.5 306.5Q830 296 823 270L721 305Q739 362 784 389Q829 416 904 416Q934 416 961.5 410Q989 404 1010 391.5Q1031 379 1043.5 358Q1056 337 1056 307Q1056 265 1040.5 242.5Q1025 220 1007 208Q1023 200 1034.5 183Q1046 166 1046 137ZM40 362 52 464H177L198 628Q179 617 142 604.5Q105 592 60 587L72 692Q126 703 169 726Q212 749 239 778H323L284 464H406L394 362Z" glyph-name="glyph01161" horiz-adv-x="1557" /><glyph d="M335 0H194L807 764H949ZM1364 416Q1429 416 1470.5 387.5Q1512 359 1512 302Q1512 261 1498.5 235.5Q1485 210 1463.5 194Q1442 178 1413.5 168.5Q1385 159 1355 151Q1327 143 1302 131.5Q1277 120 1269 100L1340 102H1497L1485 0H1136Q1142 62 1158 101.5Q1174 141 1198.5 166Q1223 191 1255.5 205.5Q1288 220 1327 232Q1365 244 1384.5 252.5Q1404 261 1404 283Q1404 301 1388 308.5Q1372 316 1354 316Q1324 316 1304 305.5Q1284 295 1277 264L1176 298Q1196 359 1243 387.5Q1290 416 1364 416ZM1059 137Q1059 69 1009 27.5Q959 -14 859 -14Q713 -14 702 97L812 135Q812 108 828 98Q844 88 876 88Q914 88 934 100Q954 112 954 137Q954 157 936.5 163Q919 169 894 169H826L835 243H904Q926 243 942 251.5Q958 260 958 283Q958 317 908 317Q878 317 860.5 306.5Q843 296 836 270L734 305Q752 362 797 389Q842 416 917 416Q947 416 974.5 410Q1002 404 1023 391.5Q1044 379 1056.5 358Q1069 337 1069 307Q1069 265 1053.5 242.5Q1038 220 1020 208Q1036 200 1047.5 183Q1059 166 1059 137ZM417 499Q417 431 367 389.5Q317 348 217 348Q71 348 60 459L170 497Q170 470 186 460Q202 450 234 450Q272 450 292 462Q312 474 312 499Q312 519 294.5 525Q277 531 252 531H184L193 605H262Q284 605 300 613.5Q316 622 316 645Q316 679 266 679Q236 679 218.5 668.5Q201 658 194 632L92 667Q110 724 155 751Q200 778 275 778Q305 778 332.5 772Q360 766 381 753.5Q402 741 414.5 720Q427 699 427 669Q427 627 411.5 604.5Q396 582 378 570Q394 562 405.5 545Q417 528 417 499Z" glyph-name="glyph01162" horiz-adv-x="1570" /><glyph d="M321 0H180L793 764H935ZM89 555 137 764H416L404 662H215L205 622Q216 627 233.5 630Q251 633 267 633Q299 633 325 627.5Q351 622 369 609Q387 596 397 575Q407 554 407 523Q407 476 391 442.5Q375 409 349 388Q323 367 288.5 357Q254 347 216 347Q142 347 105.5 374Q69 401 64 456L174 494Q175 468 187.5 457Q200 446 225 446Q238 446 250.5 449.5Q263 453 273.5 460.5Q284 468 290.5 480Q297 492 297 510Q297 531 285 542.5Q273 554 246 554Q226 554 207.5 547.5Q189 541 178 525ZM1350 416Q1415 416 1456.5 387.5Q1498 359 1498 302Q1498 261 1484.5 235.5Q1471 210 1449.5 194Q1428 178 1399.5 168.5Q1371 159 1341 151Q1313 143 1288 131.5Q1263 120 1255 100L1326 102H1483L1471 0H1122Q1128 62 1144 101.5Q1160 141 1184.5 166Q1209 191 1241.5 205.5Q1274 220 1313 232Q1351 244 1370.5 252.5Q1390 261 1390 283Q1390 301 1374 308.5Q1358 316 1340 316Q1310 316 1290 305.5Q1270 295 1263 264L1162 298Q1182 359 1229 387.5Q1276 416 1350 416ZM1045 137Q1045 69 995 27.5Q945 -14 845 -14Q699 -14 688 97L798 135Q798 108 814 98Q830 88 862 88Q900 88 920 100Q940 112 940 137Q940 157 922.5 163Q905 169 880 169H812L821 243H890Q912 243 928 251.5Q944 260 944 283Q944 317 894 317Q864 317 846.5 306.5Q829 296 822 270L720 305Q738 362 783 389Q828 416 903 416Q933 416 960.5 410Q988 404 1009 391.5Q1030 379 1042.5 358Q1055 337 1055 307Q1055 265 1039.5 242.5Q1024 220 1006 208Q1022 200 1033.5 183Q1045 166 1045 137Z" glyph-name="glyph01163" horiz-adv-x="1556" /><glyph d="M83 362 239 609 274 662 226 661H79L91 764H417L409 694L200 362ZM265 0H124L737 764H879ZM1294 416Q1359 416 1400.5 387.5Q1442 359 1442 302Q1442 261 1428.5 235.5Q1415 210 1393.5 194Q1372 178 1343.5 168.5Q1315 159 1285 151Q1257 143 1232 131.5Q1207 120 1199 100L1270 102H1427L1415 0H1066Q1072 62 1088 101.5Q1104 141 1128.5 166Q1153 191 1185.5 205.5Q1218 220 1257 232Q1295 244 1314.5 252.5Q1334 261 1334 283Q1334 301 1318 308.5Q1302 316 1284 316Q1254 316 1234 305.5Q1214 295 1207 264L1106 298Q1126 359 1173 387.5Q1220 416 1294 416ZM989 137Q989 69 939 27.5Q889 -14 789 -14Q643 -14 632 97L742 135Q742 108 758 98Q774 88 806 88Q844 88 864 100Q884 112 884 137Q884 157 866.5 163Q849 169 824 169H756L765 243H834Q856 243 872 251.5Q888 260 888 283Q888 317 838 317Q808 317 790.5 306.5Q773 296 766 270L664 305Q682 362 727 389Q772 416 847 416Q877 416 904.5 410Q932 404 953 391.5Q974 379 986.5 358Q999 337 999 307Q999 265 983.5 242.5Q968 220 950 208Q966 200 977.5 183Q989 166 989 137Z" glyph-name="glyph01164" horiz-adv-x="1500" /><glyph d="M330 0H189L802 764H944ZM1359 416Q1424 416 1465.5 387.5Q1507 359 1507 302Q1507 261 1493.5 235.5Q1480 210 1458.5 194Q1437 178 1408.5 168.5Q1380 159 1350 151Q1322 143 1297 131.5Q1272 120 1264 100L1335 102H1492L1480 0H1131Q1137 62 1153 101.5Q1169 141 1193.5 166Q1218 191 1250.5 205.5Q1283 220 1322 232Q1360 244 1379.5 252.5Q1399 261 1399 283Q1399 301 1383 308.5Q1367 316 1349 316Q1319 316 1299 305.5Q1279 295 1272 264L1171 298Q1191 359 1238 387.5Q1285 416 1359 416ZM1054 137Q1054 69 1004 27.5Q954 -14 854 -14Q708 -14 697 97L807 135Q807 108 823 98Q839 88 871 88Q909 88 929 100Q949 112 949 137Q949 157 931.5 163Q914 169 889 169H821L830 243H899Q921 243 937 251.5Q953 260 953 283Q953 317 903 317Q873 317 855.5 306.5Q838 296 831 270L729 305Q747 362 792 389Q837 416 912 416Q942 416 969.5 410Q997 404 1018 391.5Q1039 379 1051.5 358Q1064 337 1064 307Q1064 265 1048.5 242.5Q1033 220 1015 208Q1031 200 1042.5 183Q1054 166 1054 137ZM216 446Q246 446 270 463.5Q294 481 302 528Q285 510 258 503Q231 496 209 496Q83 496 83 603Q83 647 97 680Q111 713 135.5 735Q160 757 193.5 767.5Q227 778 265 778Q343 778 379.5 739.5Q416 701 416 620Q416 483 357.5 415.5Q299 348 201 348Q139 348 105.5 372.5Q72 397 66 443L173 480Q175 446 216 446ZM237 579Q263 579 283 592.5Q303 606 307 634Q307 657 292 668.5Q277 680 255 680Q229 680 211 665.5Q193 651 193 619Q193 598 205 588.5Q217 579 237 579Z" glyph-name="glyph01165" horiz-adv-x="1565" /><glyph d="M752 0H611L1224 764H1366ZM1781 416Q1846 416 1887.5 387.5Q1929 359 1929 302Q1929 261 1915.5 235.5Q1902 210 1880.5 194Q1859 178 1830.5 168.5Q1802 159 1772 151Q1744 143 1719 131.5Q1694 120 1686 100L1757 102H1914L1902 0H1553Q1559 62 1575 101.5Q1591 141 1615.5 166Q1640 191 1672.5 205.5Q1705 220 1744 232Q1782 244 1801.5 252.5Q1821 261 1821 283Q1821 301 1805 308.5Q1789 316 1771 316Q1741 316 1721 305.5Q1701 295 1694 264L1593 298Q1613 359 1660 387.5Q1707 416 1781 416ZM1476 137Q1476 69 1426 27.5Q1376 -14 1276 -14Q1130 -14 1119 97L1229 135Q1229 108 1245 98Q1261 88 1293 88Q1331 88 1351 100Q1371 112 1371 137Q1371 157 1353.5 163Q1336 169 1311 169H1243L1252 243H1321Q1343 243 1359 251.5Q1375 260 1375 283Q1375 317 1325 317Q1295 317 1277.5 306.5Q1260 296 1253 270L1151 305Q1169 362 1214 389Q1259 416 1334 416Q1364 416 1391.5 410Q1419 404 1440 391.5Q1461 379 1473.5 358Q1486 337 1486 307Q1486 265 1470.5 242.5Q1455 220 1437 208Q1453 200 1464.5 183Q1476 166 1476 137ZM470 362 482 464H607L628 628Q609 617 572 604.5Q535 592 490 587L502 692Q556 703 599 726Q642 749 669 778H753L714 464H836L824 362ZM40 362 52 464H177L198 628Q179 617 142 604.5Q105 592 60 587L72 692Q126 703 169 726Q212 749 239 778H323L284 464H406L394 362Z" glyph-name="glyph01166" horiz-adv-x="1987" /><glyph d="M758 0H617L1230 764H1372ZM1787 416Q1852 416 1893.5 387.5Q1935 359 1935 302Q1935 261 1921.5 235.5Q1908 210 1886.5 194Q1865 178 1836.5 168.5Q1808 159 1778 151Q1750 143 1725 131.5Q1700 120 1692 100L1763 102H1920L1908 0H1559Q1565 62 1581 101.5Q1597 141 1621.5 166Q1646 191 1678.5 205.5Q1711 220 1750 232Q1788 244 1807.5 252.5Q1827 261 1827 283Q1827 301 1811 308.5Q1795 316 1777 316Q1747 316 1727 305.5Q1707 295 1700 264L1599 298Q1619 359 1666 387.5Q1713 416 1787 416ZM840 499Q840 431 790 389.5Q740 348 640 348Q494 348 483 459L593 497Q593 470 609 460Q625 450 657 450Q695 450 715 462Q735 474 735 499Q735 519 717.5 525Q700 531 675 531H607L616 605H685Q707 605 723 613.5Q739 622 739 645Q739 679 689 679Q659 679 641.5 668.5Q624 658 617 632L515 667Q533 724 578 751Q623 778 698 778Q728 778 755.5 772Q783 766 804 753.5Q825 741 837.5 720Q850 699 850 669Q850 627 834.5 604.5Q819 582 801 570Q817 562 828.5 545Q840 528 840 499ZM1482 137Q1482 69 1432 27.5Q1382 -14 1282 -14Q1136 -14 1125 97L1235 135Q1235 108 1251 98Q1267 88 1299 88Q1337 88 1357 100Q1377 112 1377 137Q1377 157 1359.5 163Q1342 169 1317 169H1249L1258 243H1327Q1349 243 1365 251.5Q1381 260 1381 283Q1381 317 1331 317Q1301 317 1283.5 306.5Q1266 296 1259 270L1157 305Q1175 362 1220 389Q1265 416 1340 416Q1370 416 1397.5 410Q1425 404 1446 391.5Q1467 379 1479.5 358Q1492 337 1492 307Q1492 265 1476.5 242.5Q1461 220 1443 208Q1459 200 1470.5 183Q1482 166 1482 137ZM40 362 52 464H177L198 628Q179 617 142 604.5Q105 592 60 587L72 692Q126 703 169 726Q212 749 239 778H323L284 464H406L394 362Z" glyph-name="glyph01167" horiz-adv-x="1993" /><glyph d="M744 0H603L1216 764H1358ZM1773 416Q1838 416 1879.5 387.5Q1921 359 1921 302Q1921 261 1907.5 235.5Q1894 210 1872.5 194Q1851 178 1822.5 168.5Q1794 159 1764 151Q1736 143 1711 131.5Q1686 120 1678 100L1749 102H1906L1894 0H1545Q1551 62 1567 101.5Q1583 141 1607.5 166Q1632 191 1664.5 205.5Q1697 220 1736 232Q1774 244 1793.5 252.5Q1813 261 1813 283Q1813 301 1797 308.5Q1781 316 1763 316Q1733 316 1713 305.5Q1693 295 1686 264L1585 298Q1605 359 1652 387.5Q1699 416 1773 416ZM512 555 560 764H839L827 662H638L628 622Q639 627 656.5 630Q674 633 690 633Q722 633 748 627.5Q774 622 792 609Q810 596 820 575Q830 554 830 523Q830 476 814 442.5Q798 409 772 388Q746 367 711.5 357Q677 347 639 347Q565 347 528.5 374Q492 401 487 456L597 494Q598 468 610.5 457Q623 446 648 446Q661 446 673.5 449.5Q686 453 696.5 460.5Q707 468 713.5 480Q720 492 720 510Q720 531 708 542.5Q696 554 669 554Q649 554 630.5 547.5Q612 541 601 525ZM1468 137Q1468 69 1418 27.5Q1368 -14 1268 -14Q1122 -14 1111 97L1221 135Q1221 108 1237 98Q1253 88 1285 88Q1323 88 1343 100Q1363 112 1363 137Q1363 157 1345.5 163Q1328 169 1303 169H1235L1244 243H1313Q1335 243 1351 251.5Q1367 260 1367 283Q1367 317 1317 317Q1287 317 1269.5 306.5Q1252 296 1245 270L1143 305Q1161 362 1206 389Q1251 416 1326 416Q1356 416 1383.5 410Q1411 404 1432 391.5Q1453 379 1465.5 358Q1478 337 1478 307Q1478 265 1462.5 242.5Q1447 220 1429 208Q1445 200 1456.5 183Q1468 166 1468 137ZM40 362 52 464H177L198 628Q179 617 142 604.5Q105 592 60 587L72 692Q126 703 169 726Q212 749 239 778H323L284 464H406L394 362Z" glyph-name="glyph01168" horiz-adv-x="1979" /><glyph d="M668 0H527L1140 764H1282ZM1697 416Q1762 416 1803.5 387.5Q1845 359 1845 302Q1845 261 1831.5 235.5Q1818 210 1796.5 194Q1775 178 1746.5 168.5Q1718 159 1688 151Q1660 143 1635 131.5Q1610 120 1602 100L1673 102H1830L1818 0H1469Q1475 62 1491 101.5Q1507 141 1531.5 166Q1556 191 1588.5 205.5Q1621 220 1660 232Q1698 244 1717.5 252.5Q1737 261 1737 283Q1737 301 1721 308.5Q1705 316 1687 316Q1657 316 1637 305.5Q1617 295 1610 264L1509 298Q1529 359 1576 387.5Q1623 416 1697 416ZM1392 137Q1392 69 1342 27.5Q1292 -14 1192 -14Q1046 -14 1035 97L1145 135Q1145 108 1161 98Q1177 88 1209 88Q1247 88 1267 100Q1287 112 1287 137Q1287 157 1269.5 163Q1252 169 1227 169H1159L1168 243H1237Q1259 243 1275 251.5Q1291 260 1291 283Q1291 317 1241 317Q1211 317 1193.5 306.5Q1176 296 1169 270L1067 305Q1085 362 1130 389Q1175 416 1250 416Q1280 416 1307.5 410Q1335 404 1356 391.5Q1377 379 1389.5 358Q1402 337 1402 307Q1402 265 1386.5 242.5Q1371 220 1353 208Q1369 200 1380.5 183Q1392 166 1392 137ZM40 362 52 464H177L198 628Q179 617 142 604.5Q105 592 60 587L72 692Q126 703 169 726Q212 749 239 778H323L284 464H406L394 362ZM486 362 642 609 677 662 629 661H482L494 764H820L812 694L603 362Z" glyph-name="glyph01169" horiz-adv-x="1903" /><glyph d="M639 446Q669 446 693 463.5Q717 481 725 528Q708 510 681 503Q654 496 632 496Q506 496 506 603Q506 647 520 680Q534 713 558.5 735Q583 757 616.5 767.5Q650 778 688 778Q766 778 802.5 739.5Q839 701 839 620Q839 483 780.5 415.5Q722 348 624 348Q562 348 528.5 372.5Q495 397 489 443L596 480Q598 446 639 446ZM753 0H612L1225 764H1367ZM1782 416Q1847 416 1888.5 387.5Q1930 359 1930 302Q1930 261 1916.5 235.5Q1903 210 1881.5 194Q1860 178 1831.5 168.5Q1803 159 1773 151Q1745 143 1720 131.5Q1695 120 1687 100L1758 102H1915L1903 0H1554Q1560 62 1576 101.5Q1592 141 1616.5 166Q1641 191 1673.5 205.5Q1706 220 1745 232Q1783 244 1802.5 252.5Q1822 261 1822 283Q1822 301 1806 308.5Q1790 316 1772 316Q1742 316 1722 305.5Q1702 295 1695 264L1594 298Q1614 359 1661 387.5Q1708 416 1782 416ZM1477 137Q1477 69 1427 27.5Q1377 -14 1277 -14Q1131 -14 1120 97L1230 135Q1230 108 1246 98Q1262 88 1294 88Q1332 88 1352 100Q1372 112 1372 137Q1372 157 1354.5 163Q1337 169 1312 169H1244L1253 243H1322Q1344 243 1360 251.5Q1376 260 1376 283Q1376 317 1326 317Q1296 317 1278.5 306.5Q1261 296 1254 270L1152 305Q1170 362 1215 389Q1260 416 1335 416Q1365 416 1392.5 410Q1420 404 1441 391.5Q1462 379 1474.5 358Q1487 337 1487 307Q1487 265 1471.5 242.5Q1456 220 1438 208Q1454 200 1465.5 183Q1477 166 1477 137ZM40 362 52 464H177L198 628Q179 617 142 604.5Q105 592 60 587L72 692Q126 703 169 726Q212 749 239 778H323L284 464H406L394 362ZM660 579Q686 579 706 592.5Q726 606 730 634Q730 657 715 668.5Q700 680 678 680Q652 680 634 665.5Q616 651 616 619Q616 598 628 588.5Q640 579 660 579Z" glyph-name="glyph01170" horiz-adv-x="1988" /><glyph d="M752 0H611L1224 764H1366ZM279 778Q344 778 385.5 749.5Q427 721 427 664Q427 623 413.5 597.5Q400 572 378.5 556Q357 540 328.5 530.5Q300 521 270 513Q242 505 217 493.5Q192 482 184 462L255 464H412L400 362H51Q57 424 73 463.5Q89 503 113.5 528Q138 553 170.5 567.5Q203 582 242 594Q280 606 299.5 614.5Q319 623 319 645Q319 663 303 670.5Q287 678 269 678Q239 678 219 667.5Q199 657 192 626L91 660Q111 721 158 749.5Q205 778 279 778ZM1781 416Q1846 416 1887.5 387.5Q1929 359 1929 302Q1929 261 1915.5 235.5Q1902 210 1880.5 194Q1859 178 1830.5 168.5Q1802 159 1772 151Q1744 143 1719 131.5Q1694 120 1686 100L1757 102H1914L1902 0H1553Q1559 62 1575 101.5Q1591 141 1615.5 166Q1640 191 1672.5 205.5Q1705 220 1744 232Q1782 244 1801.5 252.5Q1821 261 1821 283Q1821 301 1805 308.5Q1789 316 1771 316Q1741 316 1721 305.5Q1701 295 1694 264L1593 298Q1613 359 1660 387.5Q1707 416 1781 416ZM1476 137Q1476 69 1426 27.5Q1376 -14 1276 -14Q1130 -14 1119 97L1229 135Q1229 108 1245 98Q1261 88 1293 88Q1331 88 1351 100Q1371 112 1371 137Q1371 157 1353.5 163Q1336 169 1311 169H1243L1252 243H1321Q1343 243 1359 251.5Q1375 260 1375 283Q1375 317 1325 317Q1295 317 1277.5 306.5Q1260 296 1253 270L1151 305Q1169 362 1214 389Q1259 416 1334 416Q1364 416 1391.5 410Q1419 404 1440 391.5Q1461 379 1473.5 358Q1486 337 1486 307Q1486 265 1470.5 242.5Q1455 220 1437 208Q1453 200 1464.5 183Q1476 166 1476 137ZM470 362 482 464H607L628 628Q609 617 572 604.5Q535 592 490 587L502 692Q556 703 599 726Q642 749 669 778H753L714 464H836L824 362Z" glyph-name="glyph01171" horiz-adv-x="1987" /><glyph d="M776 0H635L1248 764H1390ZM279 778Q344 778 385.5 749.5Q427 721 427 664Q427 623 413.5 597.5Q400 572 378.5 556Q357 540 328.5 530.5Q300 521 270 513Q242 505 217 493.5Q192 482 184 462L255 464H412L400 362H51Q57 424 73 463.5Q89 503 113.5 528Q138 553 170.5 567.5Q203 582 242 594Q280 606 299.5 614.5Q319 623 319 645Q319 663 303 670.5Q287 678 269 678Q239 678 219 667.5Q199 657 192 626L91 660Q111 721 158 749.5Q205 778 279 778ZM858 499Q858 431 808 389.5Q758 348 658 348Q512 348 501 459L611 497Q611 470 627 460Q643 450 675 450Q713 450 733 462Q753 474 753 499Q753 519 735.5 525Q718 531 693 531H625L634 605H703Q725 605 741 613.5Q757 622 757 645Q757 679 707 679Q677 679 659.5 668.5Q642 658 635 632L533 667Q551 724 596 751Q641 778 716 778Q746 778 773.5 772Q801 766 822 753.5Q843 741 855.5 720Q868 699 868 669Q868 627 852.5 604.5Q837 582 819 570Q835 562 846.5 545Q858 528 858 499ZM1805 416Q1870 416 1911.5 387.5Q1953 359 1953 302Q1953 261 1939.5 235.5Q1926 210 1904.5 194Q1883 178 1854.5 168.5Q1826 159 1796 151Q1768 143 1743 131.5Q1718 120 1710 100L1781 102H1938L1926 0H1577Q1583 62 1599 101.5Q1615 141 1639.5 166Q1664 191 1696.5 205.5Q1729 220 1768 232Q1806 244 1825.5 252.5Q1845 261 1845 283Q1845 301 1829 308.5Q1813 316 1795 316Q1765 316 1745 305.5Q1725 295 1718 264L1617 298Q1637 359 1684 387.5Q1731 416 1805 416ZM1500 137Q1500 69 1450 27.5Q1400 -14 1300 -14Q1154 -14 1143 97L1253 135Q1253 108 1269 98Q1285 88 1317 88Q1355 88 1375 100Q1395 112 1395 137Q1395 157 1377.5 163Q1360 169 1335 169H1267L1276 243H1345Q1367 243 1383 251.5Q1399 260 1399 283Q1399 317 1349 317Q1319 317 1301.5 306.5Q1284 296 1277 270L1175 305Q1193 362 1238 389Q1283 416 1358 416Q1388 416 1415.5 410Q1443 404 1464 391.5Q1485 379 1497.5 358Q1510 337 1510 307Q1510 265 1494.5 242.5Q1479 220 1461 208Q1477 200 1488.5 183Q1500 166 1500 137Z" glyph-name="glyph01172" horiz-adv-x="2011" /><glyph d="M762 0H621L1234 764H1376ZM279 778Q344 778 385.5 749.5Q427 721 427 664Q427 623 413.5 597.5Q400 572 378.5 556Q357 540 328.5 530.5Q300 521 270 513Q242 505 217 493.5Q192 482 184 462L255 464H412L400 362H51Q57 424 73 463.5Q89 503 113.5 528Q138 553 170.5 567.5Q203 582 242 594Q280 606 299.5 614.5Q319 623 319 645Q319 663 303 670.5Q287 678 269 678Q239 678 219 667.5Q199 657 192 626L91 660Q111 721 158 749.5Q205 778 279 778ZM530 555 578 764H857L845 662H656L646 622Q657 627 674.5 630Q692 633 708 633Q740 633 766 627.5Q792 622 810 609Q828 596 838 575Q848 554 848 523Q848 476 832 442.5Q816 409 790 388Q764 367 729.5 357Q695 347 657 347Q583 347 546.5 374Q510 401 505 456L615 494Q616 468 628.5 457Q641 446 666 446Q679 446 691.5 449.5Q704 453 714.5 460.5Q725 468 731.5 480Q738 492 738 510Q738 531 726 542.5Q714 554 687 554Q667 554 648.5 547.5Q630 541 619 525ZM1791 416Q1856 416 1897.5 387.5Q1939 359 1939 302Q1939 261 1925.5 235.5Q1912 210 1890.5 194Q1869 178 1840.5 168.5Q1812 159 1782 151Q1754 143 1729 131.5Q1704 120 1696 100L1767 102H1924L1912 0H1563Q1569 62 1585 101.5Q1601 141 1625.5 166Q1650 191 1682.5 205.5Q1715 220 1754 232Q1792 244 1811.5 252.5Q1831 261 1831 283Q1831 301 1815 308.5Q1799 316 1781 316Q1751 316 1731 305.5Q1711 295 1704 264L1603 298Q1623 359 1670 387.5Q1717 416 1791 416ZM1486 137Q1486 69 1436 27.5Q1386 -14 1286 -14Q1140 -14 1129 97L1239 135Q1239 108 1255 98Q1271 88 1303 88Q1341 88 1361 100Q1381 112 1381 137Q1381 157 1363.5 163Q1346 169 1321 169H1253L1262 243H1331Q1353 243 1369 251.5Q1385 260 1385 283Q1385 317 1335 317Q1305 317 1287.5 306.5Q1270 296 1263 270L1161 305Q1179 362 1224 389Q1269 416 1344 416Q1374 416 1401.5 410Q1429 404 1450 391.5Q1471 379 1483.5 358Q1496 337 1496 307Q1496 265 1480.5 242.5Q1465 220 1447 208Q1463 200 1474.5 183Q1486 166 1486 137Z" glyph-name="glyph01173" horiz-adv-x="1997" /><glyph d="M524 362 680 609 715 662 667 661H520L532 764H858L850 694L641 362ZM706 0H565L1178 764H1320ZM279 778Q344 778 385.5 749.5Q427 721 427 664Q427 623 413.5 597.5Q400 572 378.5 556Q357 540 328.5 530.5Q300 521 270 513Q242 505 217 493.5Q192 482 184 462L255 464H412L400 362H51Q57 424 73 463.5Q89 503 113.5 528Q138 553 170.5 567.5Q203 582 242 594Q280 606 299.5 614.5Q319 623 319 645Q319 663 303 670.5Q287 678 269 678Q239 678 219 667.5Q199 657 192 626L91 660Q111 721 158 749.5Q205 778 279 778ZM1735 416Q1800 416 1841.5 387.5Q1883 359 1883 302Q1883 261 1869.5 235.5Q1856 210 1834.5 194Q1813 178 1784.5 168.5Q1756 159 1726 151Q1698 143 1673 131.5Q1648 120 1640 100L1711 102H1868L1856 0H1507Q1513 62 1529 101.5Q1545 141 1569.5 166Q1594 191 1626.5 205.5Q1659 220 1698 232Q1736 244 1755.5 252.5Q1775 261 1775 283Q1775 301 1759 308.5Q1743 316 1725 316Q1695 316 1675 305.5Q1655 295 1648 264L1547 298Q1567 359 1614 387.5Q1661 416 1735 416ZM1430 137Q1430 69 1380 27.5Q1330 -14 1230 -14Q1084 -14 1073 97L1183 135Q1183 108 1199 98Q1215 88 1247 88Q1285 88 1305 100Q1325 112 1325 137Q1325 157 1307.5 163Q1290 169 1265 169H1197L1206 243H1275Q1297 243 1313 251.5Q1329 260 1329 283Q1329 317 1279 317Q1249 317 1231.5 306.5Q1214 296 1207 270L1105 305Q1123 362 1168 389Q1213 416 1288 416Q1318 416 1345.5 410Q1373 404 1394 391.5Q1415 379 1427.5 358Q1440 337 1440 307Q1440 265 1424.5 242.5Q1409 220 1391 208Q1407 200 1418.5 183Q1430 166 1430 137Z" glyph-name="glyph01174" horiz-adv-x="1941" /></font>
</defs>
</svg>
