<?xml version="1.0" standalone="no"?><!DOCTYPE svg PUBLIC "-//W3C//DTD SVG 1.1//EN" "http://www.w3.org/Graphics/SVG/1.1/DTD/svg11.dtd" ><svg version="1.1" xmlns="http://www.w3.org/2000/svg"><defs><font horiz-adv-x="0" id="font"><font-face ascent="800" bbox="-209 -253 1859 1134" cap-height="780" descent="-200" font-family="Galaxie Polaris" font-stretch="normal" font-style="normal" font-weight="600" units-per-em="1000" x-height="530" /><missing-glyph d="M90 780H870V0H90ZM201 66H759L480 345ZM480 435 759 714H201ZM160 665V115L435 390ZM800 115V665L525 390Z" horiz-adv-x="960" /><glyph d="M314 791H412L713 0H605L522 225H204L121 0H13ZM363 664 236 313H490Z" glyph-name="A" horiz-adv-x="726" unicode="A" /><glyph d="M500 225H239L120 0H3L432 780H989V688H534L569 445H946V354H582L619 92H1009V0H532ZM285 313H487L469 445L445 615Z" glyph-name="AE" horiz-adv-x="1065" unicode="&#198;" /><glyph d="M500 225H239L120 0H3L432 780H989V688H534L569 445H946V354H582L619 92H1009V0H532ZM285 313H487L469 445L445 615ZM677 1030 566 822H471L565 1030Z" glyph-name="AEacute" horiz-adv-x="1065" unicode="&#508;" /><glyph d="M524 1030 413 822H318L412 1030ZM314 791H412L713 0H605L522 225H204L121 0H13ZM363 664 236 313H490Z" glyph-name="Aacute" horiz-adv-x="726" unicode="&#193;" /><glyph d="M314 791H412L713 0H605L522 225H204L121 0H13ZM363 664 236 313H490ZM363 825Q310 825 274 839Q238 853 216 879Q194 905 185 943Q176 981 176 1030H254Q253 963 279 936Q305 909 363 909Q421 909 447 936Q473 963 472 1030H550Q550 981 541 943Q532 905 510 879Q488 853 452 839Q416 825 363 825Z" glyph-name="Abreve" horiz-adv-x="726" unicode="&#258;" /><glyph d="M464 822 363 948 263 822H166L318 1030H409L561 822ZM314 791H412L713 0H605L522 225H204L121 0H13ZM363 664 236 313H490Z" glyph-name="Acircumflex" horiz-adv-x="726" unicode="&#194;" /><glyph d="M319 868H207V979H319ZM519 868H407V979H519ZM314 791H412L713 0H605L522 225H204L121 0H13ZM363 664 236 313H490Z" glyph-name="Adieresis" horiz-adv-x="726" unicode="&#196;" /><glyph d="M314 1030 408 822H313L202 1030ZM314 791H412L713 0H605L522 225H204L121 0H13ZM363 664 236 313H490Z" glyph-name="Agrave" horiz-adv-x="726" unicode="&#192;" /><glyph d="M219 971H507V881H219ZM314 791H412L713 0H605L522 225H204L121 0H13ZM363 664 236 313H490Z" glyph-name="Amacron" horiz-adv-x="726" unicode="&#256;" /><glyph d="M314 791H412L713 0Q688 -3 665 -12Q642 -21 624.5 -34.5Q607 -48 597 -64.5Q587 -81 587 -98Q587 -116 597.5 -127Q608 -138 633 -138Q644 -138 656 -135.5Q668 -133 678.5 -129.5Q689 -126 695.5 -123Q702 -120 702 -119L724 -186Q708 -196 682 -203.5Q656 -211 622 -211Q599 -211 578 -205.5Q557 -200 540.5 -187.5Q524 -175 514.5 -155.5Q505 -136 505 -107Q505 -69 529 -35Q553 -1 596 24L522 225H204L121 0H13ZM363 664 236 313H490Z" glyph-name="Aogonek" horiz-adv-x="726" unicode="&#260;" /><glyph d="M248 926Q248 977 278 1009Q308 1041 363 1041Q418 1041 448.5 1009Q479 977 479 926Q479 875 448.5 842.5Q418 810 363 810Q308 810 278 842.5Q248 875 248 926ZM316 926Q316 904 328.5 890.5Q341 877 363 877Q385 877 397.5 890.5Q410 904 410 926Q410 947 397.5 960.5Q385 974 363 974Q341 974 328.5 960.5Q316 947 316 926ZM314 791H412L713 0H605L522 225H204L121 0H13ZM363 664 236 313H490Z" glyph-name="Aring" horiz-adv-x="726" unicode="&#197;" /><glyph d="M430 1134 371 1041Q422 1039 450.5 1006.5Q479 974 479 926Q479 875 448.5 842.5Q418 810 363 810Q308 810 278 842.5Q248 875 248 926Q248 943 252 959Q256 975 263 989L334 1134ZM316 926Q316 904 328.5 890.5Q341 877 363 877Q385 877 397.5 890.5Q410 904 410 926Q410 947 397.5 960.5Q385 974 363 974Q341 974 328.5 960.5Q316 947 316 926ZM314 791H412L713 0H605L522 225H204L121 0H13ZM363 664 236 313H490Z" glyph-name="Aringacute" horiz-adv-x="726" unicode="&#506;" /><glyph d="M314 791H412L713 0H605L522 225H204L121 0H13ZM363 664 236 313H490ZM278 926Q251 926 240 908.5Q229 891 226 872L150 883Q158 940 188.5 974Q219 1008 283 1008Q316 1008 338.5 995.5Q361 983 379 968Q397 953 413 940.5Q429 928 448 928Q475 928 486 945.5Q497 963 500 982L576 971Q568 914 537.5 880Q507 846 443 846Q410 846 387.5 858.5Q365 871 347 886Q329 901 313 913.5Q297 926 278 926Z" glyph-name="Atilde" horiz-adv-x="726" unicode="&#195;" /><glyph d="M80 0V780H396Q432 780 471.5 772Q511 764 544 741Q577 718 599 678Q621 638 621 573Q621 536 612.5 507.5Q604 479 590.5 458.5Q577 438 560.5 425.5Q544 413 528 407Q552 401 574 386.5Q596 372 612.5 348.5Q629 325 638.5 292.5Q648 260 648 219Q648 151 627.5 108Q607 65 572.5 41Q538 17 493.5 8.5Q449 0 402 0ZM394 92Q416 92 442.5 95Q469 98 491.5 110.5Q514 123 529 148.5Q544 174 544 220Q544 266 530.5 292.5Q517 319 495.5 332.5Q474 346 448 350Q422 354 398 354H180V92ZM180 688V445H386Q415 445 439 450.5Q463 456 480.5 469.5Q498 483 507.5 507.5Q517 532 517 569Q517 606 507.5 629.5Q498 653 481 666Q464 679 440 683.5Q416 688 386 688Z" glyph-name="B" horiz-adv-x="699" unicode="B" /><glyph d="M60 390Q60 482 80 556Q100 630 141.5 682.5Q183 735 247 763.5Q311 792 400 792Q473 792 527.5 776Q582 760 619 731Q656 702 677 661.5Q698 621 704 573L602 562Q591 635 542.5 668Q494 701 400 701Q330 701 284 676Q238 651 211 608Q184 565 173.5 508.5Q163 452 163 390Q163 328 173.5 271.5Q184 215 211 172.5Q238 130 284 104.5Q330 79 400 79Q494 79 542.5 112Q591 145 602 218L704 207Q698 159 677 118.5Q656 78 619 49Q582 20 527.5 4Q473 -12 400 -12Q311 -12 247 16.5Q183 45 141.5 97.5Q100 150 80 224.5Q60 299 60 390Z" glyph-name="C" horiz-adv-x="757" unicode="C" /><glyph d="M60 390Q60 482 80 556Q100 630 141.5 682.5Q183 735 247 763.5Q311 792 400 792Q473 792 527.5 776Q582 760 619 731Q656 702 677 661.5Q698 621 704 573L602 562Q591 635 542.5 668Q494 701 400 701Q330 701 284 676Q238 651 211 608Q184 565 173.5 508.5Q163 452 163 390Q163 328 173.5 271.5Q184 215 211 172.5Q238 130 284 104.5Q330 79 400 79Q494 79 542.5 112Q591 145 602 218L704 207Q698 159 677 118.5Q656 78 619 49Q582 20 527.5 4Q473 -12 400 -12Q311 -12 247 16.5Q183 45 141.5 97.5Q100 150 80 224.5Q60 299 60 390ZM550 1030 439 822H344L438 1030Z" glyph-name="Cacute" horiz-adv-x="757" unicode="&#262;" /><glyph d="M60 390Q60 482 80 556Q100 630 141.5 682.5Q183 735 247 763.5Q311 792 400 792Q473 792 527.5 776Q582 760 619 731Q656 702 677 661.5Q698 621 704 573L602 562Q591 635 542.5 668Q494 701 400 701Q330 701 284 676Q238 651 211 608Q184 565 173.5 508.5Q163 452 163 390Q163 328 173.5 271.5Q184 215 211 172.5Q238 130 284 104.5Q330 79 400 79Q494 79 542.5 112Q591 145 602 218L704 207Q698 159 677 118.5Q656 78 619 49Q582 20 527.5 4Q473 -12 400 -12Q311 -12 247 16.5Q183 45 141.5 97.5Q100 150 80 224.5Q60 299 60 390ZM345 822 193 1030H290L391 903L492 1030H589L437 822Z" glyph-name="Ccaron" horiz-adv-x="757" unicode="&#268;" /><glyph d="M60 390Q60 482 80 556Q100 630 141.5 682.5Q183 735 247 763.5Q311 792 400 792Q473 792 527.5 776Q582 760 619 731Q656 702 677 661.5Q698 621 704 573L602 562Q591 635 542.5 668Q494 701 400 701Q330 701 284 676Q238 651 211 608Q184 565 173.5 508.5Q163 452 163 390Q163 328 173.5 271.5Q184 215 211 172.5Q238 130 284 104.5Q330 79 400 79Q494 79 542.5 112Q591 145 602 218L704 207Q698 161 679 122.5Q660 84 626.5 55.5Q593 27 544 9.5Q495 -8 430 -11L424 -35Q459 -43 486 -64.5Q513 -86 513 -126Q513 -149 503.5 -165Q494 -181 477.5 -191.5Q461 -202 438.5 -207Q416 -212 391 -212Q359 -212 334.5 -205.5Q310 -199 299 -194L316 -141Q324 -144 333 -148Q341 -151 350.5 -153Q360 -155 371 -155Q379 -155 389 -154Q399 -153 407.5 -149.5Q416 -146 421.5 -140Q427 -134 427 -125Q427 -102 401.5 -91Q376 -80 340 -76L362 -10Q283 -4 226 26.5Q169 57 132 109Q95 161 77.5 232Q60 303 60 390Z" glyph-name="Ccedilla" horiz-adv-x="757" unicode="&#199;" /><glyph d="M60 390Q60 482 80 556Q100 630 141.5 682.5Q183 735 247 763.5Q311 792 400 792Q473 792 527.5 776Q582 760 619 731Q656 702 677 661.5Q698 621 704 573L602 562Q591 635 542.5 668Q494 701 400 701Q330 701 284 676Q238 651 211 608Q184 565 173.5 508.5Q163 452 163 390Q163 328 173.5 271.5Q184 215 211 172.5Q238 130 284 104.5Q330 79 400 79Q494 79 542.5 112Q591 145 602 218L704 207Q698 159 677 118.5Q656 78 619 49Q582 20 527.5 4Q473 -12 400 -12Q311 -12 247 16.5Q183 45 141.5 97.5Q100 150 80 224.5Q60 299 60 390ZM437 1030 589 822H492L391 949L290 822H193L345 1030Z" glyph-name="Ccircumflex" horiz-adv-x="757" unicode="&#264;" /><glyph d="M60 390Q60 482 80 556Q100 630 141.5 682.5Q183 735 247 763.5Q311 792 400 792Q473 792 527.5 776Q582 760 619 731Q656 702 677 661.5Q698 621 704 573L602 562Q591 635 542.5 668Q494 701 400 701Q330 701 284 676Q238 651 211 608Q184 565 173.5 508.5Q163 452 163 390Q163 328 173.5 271.5Q184 215 211 172.5Q238 130 284 104.5Q330 79 400 79Q494 79 542.5 112Q591 145 602 218L704 207Q698 159 677 118.5Q656 78 619 49Q582 20 527.5 4Q473 -12 400 -12Q311 -12 247 16.5Q183 45 141.5 97.5Q100 150 80 224.5Q60 299 60 390ZM447 869H335V980H447Z" glyph-name="Cdotaccent" horiz-adv-x="757" unicode="&#266;" /><glyph d="M80 0V780H347Q524 780 615 686Q706 592 706 390Q706 188 615 94Q524 0 347 0ZM347 92Q418 92 466.5 113Q515 134 545.5 173Q576 212 589.5 267Q603 322 603 390Q603 458 589.5 513Q576 568 545.5 607Q515 646 466.5 667Q418 688 347 688H180V92Z" glyph-name="D" horiz-adv-x="764" unicode="D" /><glyph d="M80 0V780H347Q524 780 615 686Q706 592 706 390Q706 188 615 94Q524 0 347 0ZM347 92Q418 92 466.5 113Q515 134 545.5 173Q576 212 589.5 267Q603 322 603 390Q603 458 589.5 513Q576 568 545.5 607Q515 646 466.5 667Q418 688 347 688H180V92ZM295 822 143 1030H240L341 903L442 1030H539L387 822Z" glyph-name="Dcaron" horiz-adv-x="764" unicode="&#270;" /><glyph d="M134 0V354H19V445H134V780H401Q578 780 669 686Q760 592 760 390Q760 188 669 94Q578 0 401 0ZM401 92Q472 92 520.5 113Q569 134 599.5 173Q630 212 643.5 267Q657 322 657 390Q657 458 643.5 513Q630 568 599.5 607Q569 646 520.5 667Q472 688 401 688H234V445H451V354H234V92Z" glyph-name="Dcroat" horiz-adv-x="818" unicode="&#272;" /><glyph d="M617 780V688H180V445H574V354H180V92H637V0H80V780Z" glyph-name="E" horiz-adv-x="693" unicode="E" /><glyph d="M617 780V688H180V445H574V354H180V92H637V0H80V780ZM516 1030 405 822H310L404 1030Z" glyph-name="Eacute" horiz-adv-x="693" unicode="&#201;" /><glyph d="M617 780V688H180V445H574V354H180V92H637V0H80V780ZM357 825Q304 825 268 839Q232 853 210 879Q188 905 179 943Q170 981 170 1030H248Q247 963 273 936Q299 909 357 909Q415 909 441 936Q467 963 466 1030H544Q544 981 535 943Q526 905 504 879Q482 853 446 839Q410 825 357 825Z" glyph-name="Ebreve" horiz-adv-x="693" unicode="&#276;" /><glyph d="M617 780V688H180V445H574V354H180V92H637V0H80V780ZM311 822 159 1030H256L357 903L458 1030H555L403 822Z" glyph-name="Ecaron" horiz-adv-x="693" unicode="&#282;" /><glyph d="M617 780V688H180V445H574V354H180V92H637V0H80V780ZM403 1030 555 822H458L357 949L256 822H159L311 1030Z" glyph-name="Ecircumflex" horiz-adv-x="693" unicode="&#202;" /><glyph d="M617 780V688H180V445H574V354H180V92H637V0H80V780ZM313 869H201V980H313ZM513 869H401V980H513Z" glyph-name="Edieresis" horiz-adv-x="693" unicode="&#203;" /><glyph d="M617 780V688H180V445H574V354H180V92H637V0H80V780ZM413 869H301V980H413Z" glyph-name="Edotaccent" horiz-adv-x="693" unicode="&#278;" /><glyph d="M617 780V688H180V445H574V354H180V92H637V0H80V780ZM317 1030 411 822H316L205 1030Z" glyph-name="Egrave" horiz-adv-x="693" unicode="&#200;" /><glyph d="M617 780V688H180V445H574V354H180V92H637V0H80V780ZM213 882V972H501V882Z" glyph-name="Emacron" horiz-adv-x="693" unicode="&#274;" /><glyph d="M573 15 264 471 178 604 181 369V0H80V780H171L490 309L576 176L573 411V780H674V-7Q674 -47 666 -84Q658 -121 636.5 -149.5Q615 -178 577 -195Q539 -212 478 -212Q457 -212 436.5 -208.5Q416 -205 404 -200L414 -110Q421 -114 437.5 -119Q454 -124 474 -123Q500 -123 518.5 -118Q537 -113 549 -99.5Q561 -86 567 -62.5Q573 -39 573 -1Z" glyph-name="Eng" horiz-adv-x="754" unicode="&#330;" /><glyph d="M617 780V688H180V445H574V354H180V92H637V0Q612 -3 589 -12.5Q566 -22 548.5 -35.5Q531 -49 521 -65.5Q511 -82 511 -99Q511 -117 521.5 -128Q532 -139 557 -139Q568 -139 580 -136.5Q592 -134 602.5 -130.5Q613 -127 619.5 -124Q626 -121 626 -120L648 -187Q632 -197 606 -204.5Q580 -212 546 -212Q523 -212 502 -206.5Q481 -201 464.5 -188.5Q448 -176 438.5 -156.5Q429 -137 429 -108Q429 -78 444.5 -50.5Q460 -23 487 0H80V780Z" glyph-name="Eogonek" horiz-adv-x="693" unicode="&#280;" /><glyph d="M134 0V354H19V445H134V780H401Q578 780 669 686Q760 592 760 390Q760 188 669 94Q578 0 401 0ZM401 92Q472 92 520.5 113Q569 134 599.5 173Q630 212 643.5 267Q657 322 657 390Q657 458 643.5 513Q630 568 599.5 607Q569 646 520.5 667Q472 688 401 688H234V445H451V354H234V92Z" glyph-name="Eth" horiz-adv-x="818" unicode="&#208;" /><glyph d="M548 499 523 422H227V342H498L473 265H237Q269 77 437 77Q522 77 562 111.5Q602 146 613 215L715 205Q709 157 690 117.5Q671 78 637 49.5Q603 21 554 5Q505 -11 437 -11Q305 -11 230 60Q155 131 134 265H27V342H126V422H27V499H134Q155 633 230 704Q305 775 437 775Q505 775 554 759.5Q603 744 637 715.5Q671 687 690 647Q709 607 715 559L613 549Q602 618 562 652.5Q522 687 437 687Q269 687 237 499Z" glyph-name="Euro" horiz-adv-x="769" unicode="&#8364;" /><glyph d="M180 0H80V780H597V688H180V445H553V354H180Z" glyph-name="F" horiz-adv-x="630" unicode="F" /><glyph d="M60 390Q60 482 80 556Q100 630 141.5 682.5Q183 735 247 763.5Q311 792 400 792Q473 792 527.5 776Q582 760 619 731Q656 702 677 661.5Q698 621 704 573L602 562Q591 635 542.5 668Q494 701 400 701Q330 701 284 676Q238 651 211 608Q184 565 173.5 508.5Q163 452 163 390Q163 328 173.5 271.5Q184 215 211 172.5Q238 130 284 104.5Q330 79 400 79Q466 79 518 92.5Q570 106 605 129V327H437V414H704V68Q665 44 629 28.5Q593 13 556 4Q519 -5 481 -8.5Q443 -12 399 -12Q311 -11 246.5 17.5Q182 46 141 98.5Q100 151 80 225Q60 299 60 390Z" glyph-name="G" horiz-adv-x="780" unicode="G" /><glyph d="M60 390Q60 482 80 556Q100 630 141.5 682.5Q183 735 247 763.5Q311 792 400 792Q473 792 527.5 776Q582 760 619 731Q656 702 677 661.5Q698 621 704 573L602 562Q591 635 542.5 668Q494 701 400 701Q330 701 284 676Q238 651 211 608Q184 565 173.5 508.5Q163 452 163 390Q163 328 173.5 271.5Q184 215 211 172.5Q238 130 284 104.5Q330 79 400 79Q466 79 518 92.5Q570 106 605 129V327H437V414H704V68Q665 44 629 28.5Q593 13 556 4Q519 -5 481 -8.5Q443 -12 399 -12Q311 -11 246.5 17.5Q182 46 141 98.5Q100 151 80 225Q60 299 60 390ZM391 825Q338 825 302 839Q266 853 244 879Q222 905 213 943Q204 981 204 1030H282Q281 963 307 936Q333 909 391 909Q449 909 475 936Q501 963 500 1030H578Q578 981 569 943Q560 905 538 879Q516 853 480 839Q444 825 391 825Z" glyph-name="Gbreve" horiz-adv-x="780" unicode="&#286;" /><glyph d="M60 390Q60 482 80 556Q100 630 141.5 682.5Q183 735 247 763.5Q311 792 400 792Q473 792 527.5 776Q582 760 619 731Q656 702 677 661.5Q698 621 704 573L602 562Q591 635 542.5 668Q494 701 400 701Q330 701 284 676Q238 651 211 608Q184 565 173.5 508.5Q163 452 163 390Q163 328 173.5 271.5Q184 215 211 172.5Q238 130 284 104.5Q330 79 400 79Q466 79 518 92.5Q570 106 605 129V327H437V414H704V68Q665 44 629 28.5Q593 13 556 4Q519 -5 481 -8.5Q443 -12 399 -12Q311 -11 246.5 17.5Q182 46 141 98.5Q100 151 80 225Q60 299 60 390ZM345 822 193 1030H290L391 903L492 1030H589L437 822Z" glyph-name="Gcaron" horiz-adv-x="780" unicode="&#486;" /><glyph d="M60 390Q60 482 80 556Q100 630 141.5 682.5Q183 735 247 763.5Q311 792 400 792Q473 792 527.5 776Q582 760 619 731Q656 702 677 661.5Q698 621 704 573L602 562Q591 635 542.5 668Q494 701 400 701Q330 701 284 676Q238 651 211 608Q184 565 173.5 508.5Q163 452 163 390Q163 328 173.5 271.5Q184 215 211 172.5Q238 130 284 104.5Q330 79 400 79Q466 79 518 92.5Q570 106 605 129V327H437V414H704V68Q665 44 629 28.5Q593 13 556 4Q519 -5 481 -8.5Q443 -12 399 -12Q311 -11 246.5 17.5Q182 46 141 98.5Q100 151 80 225Q60 299 60 390ZM437 1030 589 822H492L391 949L290 822H193L345 1030Z" glyph-name="Gcircumflex" horiz-adv-x="780" unicode="&#284;" /><glyph d="M60 390Q60 482 80 556Q100 630 141.5 682.5Q183 735 247 763.5Q311 792 400 792Q473 792 527.5 776Q582 760 619 731Q656 702 677 661.5Q698 621 704 573L602 562Q591 635 542.5 668Q494 701 400 701Q330 701 284 676Q238 651 211 608Q184 565 173.5 508.5Q163 452 163 390Q163 328 173.5 271.5Q184 215 211 172.5Q238 130 284 104.5Q330 79 400 79Q466 79 518 92.5Q570 106 605 129V327H437V414H704V68Q665 44 629 28.5Q593 13 556 4Q519 -5 481 -8.5Q443 -12 399 -12Q311 -11 246.5 17.5Q182 46 141 98.5Q100 151 80 225Q60 299 60 390ZM452 -62 406 -200H318L335 -62Z" glyph-name="Gcommaaccent" horiz-adv-x="780" unicode="&#290;" /><glyph d="M60 390Q60 482 80 556Q100 630 141.5 682.5Q183 735 247 763.5Q311 792 400 792Q473 792 527.5 776Q582 760 619 731Q656 702 677 661.5Q698 621 704 573L602 562Q591 635 542.5 668Q494 701 400 701Q330 701 284 676Q238 651 211 608Q184 565 173.5 508.5Q163 452 163 390Q163 328 173.5 271.5Q184 215 211 172.5Q238 130 284 104.5Q330 79 400 79Q466 79 518 92.5Q570 106 605 129V327H437V414H704V68Q665 44 629 28.5Q593 13 556 4Q519 -5 481 -8.5Q443 -12 399 -12Q311 -11 246.5 17.5Q182 46 141 98.5Q100 151 80 225Q60 299 60 390ZM447 869H335V980H447Z" glyph-name="Gdotaccent" horiz-adv-x="780" unicode="&#288;" /><glyph d="M670 780V0H570V354H180V0H80V780H180V445H570V780Z" glyph-name="H" horiz-adv-x="750" unicode="H" /><glyph d="M90 390Q90 473 121.5 546Q153 619 207 673Q261 727 334 758.5Q407 790 490 790Q573 790 646 758.5Q719 727 773 673Q827 619 858.5 546Q890 473 890 390Q890 307 858.5 234Q827 161 773 107Q719 53 646 21.5Q573 -10 490 -10Q407 -10 334 21.5Q261 53 207 107Q153 161 121.5 234Q90 307 90 390Z" glyph-name="H18533" horiz-adv-x="980" unicode="&#9679;" /><glyph d="M630 0H100V530H630Z" glyph-name="H18543" horiz-adv-x="730" unicode="&#9642;" /><glyph d="M100 530H630V0H100ZM200 434V96H530V434Z" glyph-name="H18551" horiz-adv-x="730" unicode="&#9643;" /><glyph d="M100 780H880V0H100ZM200 684V96H780V684Z" glyph-name="H22073" horiz-adv-x="980" unicode="&#9633;" /><glyph d="M670 780V0H570V354H180V0H80V780H180V640H570V780ZM570 445V560H180V445Z" glyph-name="Hbar" horiz-adv-x="750" unicode="&#294;" /><glyph d="M670 780V0H570V354H180V0H80V780H180V445H570V780ZM421 1030 573 822H476L375 949L274 822H177L329 1030Z" glyph-name="Hcircumflex" horiz-adv-x="750" unicode="&#292;" /><glyph d="M198 0H98V780H198Z" glyph-name="I" horiz-adv-x="296" unicode="I" /><glyph d="M198 0H98V780H198ZM472 780H573V194Q573 154 563.5 117Q554 80 531 51.5Q508 23 468 5.5Q428 -12 367 -12Q345 -12 325.5 -8.5Q306 -5 294 0L304 93Q312 89 328.5 84Q345 79 365 80Q390 80 410 85.5Q430 91 443.5 104.5Q457 118 464.5 141Q472 164 472 200Z" glyph-name="IJ" horiz-adv-x="645" unicode="&#306;" /><glyph d="M198 0H98V780H198ZM307 1030 196 822H101L195 1030Z" glyph-name="Iacute" horiz-adv-x="296" unicode="&#205;" /><glyph d="M198 0H98V780H198ZM148 825Q95 825 59 839Q23 853 1 879Q-21 905 -30 943Q-39 981 -39 1030H39Q38 963 64 936Q90 909 148 909Q206 909 232 936Q258 963 257 1030H335Q335 981 326 943Q317 905 295 879Q273 853 237 839Q201 825 148 825Z" glyph-name="Ibreve" horiz-adv-x="296" unicode="&#300;" /><glyph d="M198 0H98V780H198ZM194 1030 346 822H249L148 949L47 822H-50L102 1030Z" glyph-name="Icircumflex" horiz-adv-x="296" unicode="&#206;" /><glyph d="M198 0H98V780H198ZM104 869H-8V980H104ZM304 869H192V980H304Z" glyph-name="Idieresis" horiz-adv-x="296" unicode="&#207;" /><glyph d="M198 0H98V780H198ZM204 869H92V980H204Z" glyph-name="Idotaccent" horiz-adv-x="296" unicode="&#304;" /><glyph d="M198 0H98V780H198ZM98 1030 192 822H97L-14 1030Z" glyph-name="Igrave" horiz-adv-x="296" unicode="&#204;" /><glyph d="M198 0H98V780H198ZM4 882V972H292V882Z" glyph-name="Imacron" horiz-adv-x="296" unicode="&#298;" /><glyph d="M98 780H198V0Q163 -18 137 -43.5Q111 -69 111 -99Q111 -117 121 -128Q131 -139 157 -139Q185 -138 208 -127.5Q231 -117 234 -113L256 -182Q236 -196 208 -204Q180 -212 146 -212Q123 -212 102 -206.5Q81 -201 64.5 -188.5Q48 -176 38.5 -156.5Q29 -137 29 -109Q29 -71 48 -44Q67 -17 98 7Z" glyph-name="Iogonek" horiz-adv-x="296" unicode="&#302;" /><glyph d="M198 0H98V780H198ZM63 926Q36 926 25 908.5Q14 891 11 872L-65 883Q-57 940 -26.5 974Q4 1008 68 1008Q101 1008 123.5 995.5Q146 983 164 968Q182 953 198 940.5Q214 928 233 928Q260 928 271 945.5Q282 963 285 982L361 971Q353 914 322.5 880Q292 846 228 846Q195 846 172.5 858.5Q150 871 132 886Q114 901 98 913.5Q82 926 63 926Z" glyph-name="Itilde" horiz-adv-x="296" unicode="&#296;" /><glyph d="M440 780V200Q440 158 428 119.5Q416 81 390 51.5Q364 22 322 5Q280 -12 220 -12Q158 -12 119.5 3Q81 18 59 43.5Q37 69 28 101.5Q19 134 16 169L116 182Q118 159 123.5 140Q129 121 140 107.5Q151 94 170.5 86.5Q190 79 220 79Q255 79 278.5 87Q302 95 315.5 111Q329 127 334.5 150Q340 173 340 204V780Z" glyph-name="J" horiz-adv-x="512" unicode="J" /><glyph d="M436 1030 588 822H491L390 949L289 822H192L344 1030ZM440 780V200Q440 158 428 119.5Q416 81 390 51.5Q364 22 322 5Q280 -12 220 -12Q158 -12 119.5 3Q81 18 59 43.5Q37 69 28 101.5Q19 134 16 169L116 182Q118 159 123.5 140Q129 121 140 107.5Q151 94 170.5 86.5Q190 79 220 79Q255 79 278.5 87Q302 95 315.5 111Q329 127 334.5 150Q340 173 340 204V780Z" glyph-name="Jcircumflex" horiz-adv-x="512" unicode="&#308;" /><glyph d="M180 392 537 780H678L343 428L699 0H563L274 355L180 255V0H80V780H180Z" glyph-name="K" horiz-adv-x="712" unicode="K" /><glyph d="M180 392 537 780H678L343 428L699 0H563L274 355L180 255V0H80V780H180ZM412 -62 366 -200H278L295 -62Z" glyph-name="Kcommaaccent" horiz-adv-x="712" unicode="&#310;" /><glyph d="M180 92H576V0H80V780H180Z" glyph-name="L" horiz-adv-x="589" unicode="L" /><glyph d="M180 92H576V0H80V780H180ZM289 1030 178 822H83L177 1030Z" glyph-name="Lacute" horiz-adv-x="589" unicode="&#313;" /><glyph d="M180 92H576V0H80V780H180ZM495 800 426 592H340L387 800Z" glyph-name="Lcaron" horiz-adv-x="589" unicode="&#317;" /><glyph d="M180 92H576V0H80V780H180ZM391 -62 345 -200H257L274 -62Z" glyph-name="Lcommaaccent" horiz-adv-x="589" unicode="&#315;" /><glyph d="M180 92H576V0H80V780H180ZM476 344H364V455H476Z" glyph-name="Ldot" horiz-adv-x="589" unicode="&#319;" /><glyph d="M180 314V92H576V0H80V265L6 228V311L80 348V780H180V397L446 530V447Z" glyph-name="Lslash" horiz-adv-x="589" unicode="&#321;" /><glyph d="M413 0 224 455 175 584 178 285V0H80V780H188L392 288L455 124L518 288L722 780H830V0H732V285L735 584L686 455L497 0Z" glyph-name="M" horiz-adv-x="910" unicode="M" /><glyph d="M490 309 576 176 573 411V780H674V0H583L264 471L178 604L181 369V0H80V780H171Z" glyph-name="N" horiz-adv-x="754" unicode="N" /><glyph d="M490 309 576 176 573 411V780H674V0H583L264 471L178 604L181 369V0H80V780H171ZM536 1030 425 822H330L424 1030Z" glyph-name="Nacute" horiz-adv-x="754" unicode="&#323;" /><glyph d="M490 309 576 176 573 411V780H674V0H583L264 471L178 604L181 369V0H80V780H171ZM331 822 179 1030H276L377 903L478 1030H575L423 822Z" glyph-name="Ncaron" horiz-adv-x="754" unicode="&#327;" /><glyph d="M490 309 576 176 573 411V780H674V0H583L264 471L178 604L181 369V0H80V780H171ZM438 -62 392 -200H304L321 -62Z" glyph-name="Ncommaaccent" horiz-adv-x="754" unicode="&#325;" /><glyph d="M490 309 576 176 573 411V780H674V0H583L264 471L178 604L181 369V0H80V780H171ZM292 926Q265 926 254 908.5Q243 891 240 872L164 883Q172 940 202.5 974Q233 1008 297 1008Q330 1008 352.5 995.5Q375 983 393 968Q411 953 427 940.5Q443 928 462 928Q489 928 500 945.5Q511 963 514 982L590 971Q582 914 551.5 880Q521 846 457 846Q424 846 401.5 858.5Q379 871 361 886Q343 901 327 913.5Q311 926 292 926Z" glyph-name="Ntilde" horiz-adv-x="754" unicode="&#209;" /><glyph d="M400 701Q329 701 283.5 676Q238 651 211.5 608Q185 565 174.5 508.5Q164 452 164 390Q164 328 174.5 271.5Q185 215 211.5 172.5Q238 130 283.5 104.5Q329 79 400 79Q471 79 516.5 104.5Q562 130 588.5 172.5Q615 215 625.5 271.5Q636 328 636 390Q636 452 625.5 508.5Q615 565 588.5 608Q562 651 516.5 676Q471 701 400 701ZM400 -12Q311 -12 246.5 16.5Q182 45 140.5 97.5Q99 150 79.5 224.5Q60 299 60 390Q60 482 79.5 556Q99 630 140.5 682.5Q182 735 246.5 763.5Q311 792 400 792Q489 792 553.5 763.5Q618 735 659.5 682.5Q701 630 720.5 556Q740 482 740 390Q740 299 720.5 224.5Q701 150 659.5 97.5Q618 45 553.5 16.5Q489 -12 400 -12Z" glyph-name="O" horiz-adv-x="800" unicode="O" /><glyph d="M1006 780V688H609V445H963V354H609V92H1026V0H417Q240 0 149 94Q58 188 58 390Q58 592 149 686Q240 780 417 780ZM417 688Q347 688 298 667Q249 646 218.5 607Q188 568 174.5 513Q161 458 161 390Q161 322 174.5 267Q188 212 218.5 173Q249 134 298 113Q347 92 417 92H509V688Z" glyph-name="OE" horiz-adv-x="1082" unicode="&#338;" /><glyph d="M400 -12Q311 -12 246.5 16.5Q182 45 140.5 97.5Q99 150 79.5 224.5Q60 299 60 390Q60 482 79.5 556Q99 630 140.5 682.5Q182 735 246.5 763.5Q311 792 400 792Q489 792 553.5 763.5Q618 735 659.5 682.5Q701 630 720.5 556Q740 482 740 390Q740 299 720.5 224.5Q701 150 659.5 97.5Q618 45 553.5 16.5Q489 -12 400 -12ZM400 701Q329 701 283.5 676Q238 651 211.5 608Q185 565 174.5 508.5Q164 452 164 390Q164 328 174.5 271.5Q185 215 211.5 172.5Q238 130 283.5 104.5Q329 79 400 79Q471 79 516.5 104.5Q562 130 588.5 172.5Q615 215 625.5 271.5Q636 328 636 390Q636 452 625.5 508.5Q615 565 588.5 608Q562 651 516.5 676Q471 701 400 701ZM559 1030 448 822H353L447 1030Z" glyph-name="Oacute" horiz-adv-x="800" unicode="&#211;" /><glyph d="M400 701Q329 701 283.5 676Q238 651 211.5 608Q185 565 174.5 508.5Q164 452 164 390Q164 328 174.5 271.5Q185 215 211.5 172.5Q238 130 283.5 104.5Q329 79 400 79Q471 79 516.5 104.5Q562 130 588.5 172.5Q615 215 625.5 271.5Q636 328 636 390Q636 452 625.5 508.5Q615 565 588.5 608Q562 651 516.5 676Q471 701 400 701ZM400 -12Q311 -12 246.5 16.5Q182 45 140.5 97.5Q99 150 79.5 224.5Q60 299 60 390Q60 482 79.5 556Q99 630 140.5 682.5Q182 735 246.5 763.5Q311 792 400 792Q489 792 553.5 763.5Q618 735 659.5 682.5Q701 630 720.5 556Q740 482 740 390Q740 299 720.5 224.5Q701 150 659.5 97.5Q618 45 553.5 16.5Q489 -12 400 -12ZM400 825Q347 825 311 839Q275 853 253 879Q231 905 222 943Q213 981 213 1030H291Q290 963 316 936Q342 909 400 909Q458 909 484 936Q510 963 509 1030H587Q587 981 578 943Q569 905 547 879Q525 853 489 839Q453 825 400 825Z" glyph-name="Obreve" horiz-adv-x="800" unicode="&#334;" /><glyph d="M400 701Q329 701 283.5 676Q238 651 211.5 608Q185 565 174.5 508.5Q164 452 164 390Q164 328 174.5 271.5Q185 215 211.5 172.5Q238 130 283.5 104.5Q329 79 400 79Q471 79 516.5 104.5Q562 130 588.5 172.5Q615 215 625.5 271.5Q636 328 636 390Q636 452 625.5 508.5Q615 565 588.5 608Q562 651 516.5 676Q471 701 400 701ZM400 -12Q311 -12 246.5 16.5Q182 45 140.5 97.5Q99 150 79.5 224.5Q60 299 60 390Q60 482 79.5 556Q99 630 140.5 682.5Q182 735 246.5 763.5Q311 792 400 792Q489 792 553.5 763.5Q618 735 659.5 682.5Q701 630 720.5 556Q740 482 740 390Q740 299 720.5 224.5Q701 150 659.5 97.5Q618 45 553.5 16.5Q489 -12 400 -12ZM446 1030 598 822H501L400 949L299 822H202L354 1030Z" glyph-name="Ocircumflex" horiz-adv-x="800" unicode="&#212;" /><glyph d="M400 701Q329 701 283.5 676Q238 651 211.5 608Q185 565 174.5 508.5Q164 452 164 390Q164 328 174.5 271.5Q185 215 211.5 172.5Q238 130 283.5 104.5Q329 79 400 79Q471 79 516.5 104.5Q562 130 588.5 172.5Q615 215 625.5 271.5Q636 328 636 390Q636 452 625.5 508.5Q615 565 588.5 608Q562 651 516.5 676Q471 701 400 701ZM400 -12Q311 -12 246.5 16.5Q182 45 140.5 97.5Q99 150 79.5 224.5Q60 299 60 390Q60 482 79.5 556Q99 630 140.5 682.5Q182 735 246.5 763.5Q311 792 400 792Q489 792 553.5 763.5Q618 735 659.5 682.5Q701 630 720.5 556Q740 482 740 390Q740 299 720.5 224.5Q701 150 659.5 97.5Q618 45 553.5 16.5Q489 -12 400 -12ZM356 869H244V980H356ZM556 869H444V980H556Z" glyph-name="Odieresis" horiz-adv-x="800" unicode="&#214;" /><glyph d="M400 -12Q311 -12 246.5 16.5Q182 45 140.5 97.5Q99 150 79.5 224.5Q60 299 60 390Q60 482 79.5 556Q99 630 140.5 682.5Q182 735 246.5 763.5Q311 792 400 792Q489 792 553.5 763.5Q618 735 659.5 682.5Q701 630 720.5 556Q740 482 740 390Q740 299 720.5 224.5Q701 150 659.5 97.5Q618 45 553.5 16.5Q489 -12 400 -12ZM400 701Q329 701 283.5 676Q238 651 211.5 608Q185 565 174.5 508.5Q164 452 164 390Q164 328 174.5 271.5Q185 215 211.5 172.5Q238 130 283.5 104.5Q329 79 400 79Q471 79 516.5 104.5Q562 130 588.5 172.5Q615 215 625.5 271.5Q636 328 636 390Q636 452 625.5 508.5Q615 565 588.5 608Q562 651 516.5 676Q471 701 400 701ZM360 1030 454 822H359L248 1030Z" glyph-name="Ograve" horiz-adv-x="800" unicode="&#210;" /><glyph d="M400 701Q329 701 283.5 676Q238 651 211.5 608Q185 565 174.5 508.5Q164 452 164 390Q164 328 174.5 271.5Q185 215 211.5 172.5Q238 130 283.5 104.5Q329 79 400 79Q471 79 516.5 104.5Q562 130 588.5 172.5Q615 215 625.5 271.5Q636 328 636 390Q636 452 625.5 508.5Q615 565 588.5 608Q562 651 516.5 676Q471 701 400 701ZM400 -12Q311 -12 246.5 16.5Q182 45 140.5 97.5Q99 150 79.5 224.5Q60 299 60 390Q60 482 79.5 556Q99 630 140.5 682.5Q182 735 246.5 763.5Q311 792 400 792Q489 792 553.5 763.5Q618 735 659.5 682.5Q701 630 720.5 556Q740 482 740 390Q740 299 720.5 224.5Q701 150 659.5 97.5Q618 45 553.5 16.5Q489 -12 400 -12ZM477 1030 366 822H271L365 1030ZM637 1030 526 822H431L525 1030Z" glyph-name="Ohungarumlaut" horiz-adv-x="800" unicode="&#336;" /><glyph d="M400 -12Q311 -12 246.5 16.5Q182 45 140.5 97.5Q99 150 79.5 224.5Q60 299 60 390Q60 482 79.5 556Q99 630 140.5 682.5Q182 735 246.5 763.5Q311 792 400 792Q489 792 553.5 763.5Q618 735 659.5 682.5Q701 630 720.5 556Q740 482 740 390Q740 299 720.5 224.5Q701 150 659.5 97.5Q618 45 553.5 16.5Q489 -12 400 -12ZM400 701Q329 701 283.5 676Q238 651 211.5 608Q185 565 174.5 508.5Q164 452 164 390Q164 328 174.5 271.5Q185 215 211.5 172.5Q238 130 283.5 104.5Q329 79 400 79Q471 79 516.5 104.5Q562 130 588.5 172.5Q615 215 625.5 271.5Q636 328 636 390Q636 452 625.5 508.5Q615 565 588.5 608Q562 651 516.5 676Q471 701 400 701ZM256 882V972H544V882Z" glyph-name="Omacron" horiz-adv-x="800" unicode="&#332;" /><glyph d="M740 390Q740 299 720.5 224.5Q701 150 659.5 97.5Q618 45 553.5 16.5Q489 -12 400 -12Q340 -12 292.5 1Q245 14 207 38L182 0H103L156 80Q106 133 83 211.5Q60 290 60 390Q60 482 79.5 556Q99 630 140.5 682.5Q182 735 246.5 763.5Q311 792 400 792Q460 792 507.5 779Q555 766 593 742L618 780H697L644 700Q694 647 717 568.5Q740 490 740 390ZM636 390Q636 454 625 511Q614 568 586 612L260 118Q286 99 320.5 89Q355 79 400 79Q471 79 516.5 104.5Q562 130 588.5 172.5Q615 215 625.5 271.5Q636 328 636 390ZM164 390Q164 326 175 269Q186 212 214 168L540 662Q514 681 479.5 691Q445 701 400 701Q329 701 283.5 676Q238 651 211.5 608Q185 565 174.5 508.5Q164 452 164 390Z" glyph-name="Oslash" horiz-adv-x="800" unicode="&#216;" /><glyph d="M740 390Q740 299 720.5 224.5Q701 150 659.5 97.5Q618 45 553.5 16.5Q489 -12 400 -12Q340 -12 292.5 1Q245 14 207 38L182 0H103L156 80Q106 133 83 211.5Q60 290 60 390Q60 482 79.5 556Q99 630 140.5 682.5Q182 735 246.5 763.5Q311 792 400 792Q460 792 507.5 779Q555 766 593 742L618 780H697L644 700Q694 647 717 568.5Q740 490 740 390ZM164 390Q164 326 175 269Q186 212 214 168L540 662Q514 681 479.5 691Q445 701 400 701Q329 701 283.5 676Q238 651 211.5 608Q185 565 174.5 508.5Q164 452 164 390ZM636 390Q636 454 625 511Q614 568 586 612L260 118Q286 99 320.5 89Q355 79 400 79Q471 79 516.5 104.5Q562 130 588.5 172.5Q615 215 625.5 271.5Q636 328 636 390ZM559 1030 448 822H353L447 1030Z" glyph-name="Oslashacute" horiz-adv-x="800" unicode="&#510;" /><glyph d="M400 -12Q311 -12 246.5 16.5Q182 45 140.5 97.5Q99 150 79.5 224.5Q60 299 60 390Q60 482 79.5 556Q99 630 140.5 682.5Q182 735 246.5 763.5Q311 792 400 792Q489 792 553.5 763.5Q618 735 659.5 682.5Q701 630 720.5 556Q740 482 740 390Q740 299 720.5 224.5Q701 150 659.5 97.5Q618 45 553.5 16.5Q489 -12 400 -12ZM400 701Q329 701 283.5 676Q238 651 211.5 608Q185 565 174.5 508.5Q164 452 164 390Q164 328 174.5 271.5Q185 215 211.5 172.5Q238 130 283.5 104.5Q329 79 400 79Q471 79 516.5 104.5Q562 130 588.5 172.5Q615 215 625.5 271.5Q636 328 636 390Q636 452 625.5 508.5Q615 565 588.5 608Q562 651 516.5 676Q471 701 400 701ZM315 926Q288 926 277 908.5Q266 891 263 872L187 883Q195 940 225.5 974Q256 1008 320 1008Q353 1008 375.5 995.5Q398 983 416 968Q434 953 450 940.5Q466 928 485 928Q512 928 523 945.5Q534 963 537 982L613 971Q605 914 574.5 880Q544 846 480 846Q447 846 424.5 858.5Q402 871 384 886Q366 901 350 913.5Q334 926 315 926Z" glyph-name="Otilde" horiz-adv-x="800" unicode="&#213;" /><glyph d="M379 405Q402 405 426.5 409.5Q451 414 472 429Q493 444 506.5 472Q520 500 520 547Q520 594 506.5 622Q493 650 472 664.5Q451 679 426.5 683.5Q402 688 379 688H180V405ZM180 0H80V780H368Q415 780 461 770Q507 760 543.5 733.5Q580 707 602.5 662Q625 617 625 547Q625 477 602.5 431.5Q580 386 544 360Q508 334 462 323.5Q416 313 369 313H180Z" glyph-name="P" horiz-adv-x="658" unicode="P" /><glyph d="M740 390Q740 312 726 247Q712 182 682.5 131.5Q653 81 608 47.5Q563 14 500 -1V-2L608 -37L803 -104V-211L261 10Q158 52 109 149.5Q60 247 60 390Q60 482 79.5 556Q99 630 140.5 682.5Q182 735 246.5 763.5Q311 792 400 792Q489 792 553.5 763.5Q618 735 659.5 682.5Q701 630 720.5 556Q740 482 740 390ZM400 701Q329 701 283.5 676Q238 651 211.5 608Q185 565 174.5 508.5Q164 452 164 390Q164 328 174.5 271.5Q185 215 211.5 172.5Q238 130 283.5 104.5Q329 79 400 79Q471 79 516.5 104.5Q562 130 588.5 172.5Q615 215 625.5 271.5Q636 328 636 390Q636 452 625.5 508.5Q615 565 588.5 608Q562 651 516.5 676Q471 701 400 701Z" glyph-name="Q" horiz-adv-x="800" unicode="Q" /><glyph d="M180 0H80V780H392Q439 780 484.5 771Q530 762 566 737Q602 712 624.5 668Q647 624 647 554Q647 499 633.5 460.5Q620 422 596.5 396Q573 370 542 355.5Q511 341 476 335L680 0H557L368 327H180ZM402 419Q425 419 449.5 422.5Q474 426 495 439.5Q516 453 529.5 480Q543 507 543 554Q543 601 529.5 628Q516 655 495 668.5Q474 682 449.5 685Q425 688 402 688H180V419Z" glyph-name="R" horiz-adv-x="710" unicode="R" /><glyph d="M180 0H80V780H392Q439 780 484.5 771Q530 762 566 737Q602 712 624.5 668Q647 624 647 554Q647 499 633.5 460.5Q620 422 596.5 396Q573 370 542 355.5Q511 341 476 335L680 0H557L368 327H180ZM402 419Q425 419 449.5 422.5Q474 426 495 439.5Q516 453 529.5 480Q543 507 543 554Q543 601 529.5 628Q516 655 495 668.5Q474 682 449.5 685Q425 688 402 688H180V419ZM493 1030 382 822H287L381 1030Z" glyph-name="Racute" horiz-adv-x="707" unicode="&#340;" /><glyph d="M180 0H80V780H392Q439 780 484.5 771Q530 762 566 737Q602 712 624.5 668Q647 624 647 554Q647 499 633.5 460.5Q620 422 596.5 396Q573 370 542 355.5Q511 341 476 335L680 0H557L368 327H180ZM402 419Q425 419 449.5 422.5Q474 426 495 439.5Q516 453 529.5 480Q543 507 543 554Q543 601 529.5 628Q516 655 495 668.5Q474 682 449.5 685Q425 688 402 688H180V419ZM288 822 136 1030H233L334 903L435 1030H532L380 822Z" glyph-name="Rcaron" horiz-adv-x="707" unicode="&#344;" /><glyph d="M180 0H80V780H392Q439 780 484.5 771Q530 762 566 737Q602 712 624.5 668Q647 624 647 554Q647 499 633.5 460.5Q620 422 596.5 396Q573 370 542 355.5Q511 341 476 335L680 0H557L368 327H180ZM402 419Q425 419 449.5 422.5Q474 426 495 439.5Q516 453 529.5 480Q543 507 543 554Q543 601 529.5 628Q516 655 495 668.5Q474 682 449.5 685Q425 688 402 688H180V419ZM415 -62 369 -200H281L298 -62Z" glyph-name="Rcommaaccent" horiz-adv-x="707" unicode="&#342;" /><glyph d="M358 79Q393 79 428 86.5Q463 94 492 111Q521 128 539 156Q557 184 557 224Q557 257 547.5 280.5Q538 304 515 320.5Q492 337 454 347Q416 357 358 363Q306 368 256.5 378Q207 388 168.5 409.5Q130 431 106.5 468.5Q83 506 83 565Q83 624 104.5 667Q126 710 163.5 737.5Q201 765 250.5 778.5Q300 792 355 792Q430 792 483.5 776.5Q537 761 573 733Q609 705 629 665.5Q649 626 655 579L553 568Q542 639 495.5 670Q449 701 355 701Q331 701 301.5 695.5Q272 690 245.5 675Q219 660 201.5 634Q184 608 184 566Q184 541 191.5 522Q199 503 218.5 489.5Q238 476 272.5 467Q307 458 361 452Q431 445 486 433.5Q541 422 578.5 397.5Q616 373 636 332Q656 291 656 225Q656 163 630.5 118Q605 73 563.5 44Q522 15 468.5 1.5Q415 -12 358 -12Q281 -12 226.5 4Q172 20 136 48.5Q100 77 80.5 117Q61 157 54 206L156 216Q168 143 216 111Q264 79 358 79Z" glyph-name="S" horiz-adv-x="713" unicode="S" /><glyph d="M358 79Q393 79 428 86.5Q463 94 492 111Q521 128 539 156Q557 184 557 224Q557 257 547.5 280.5Q538 304 515 320.5Q492 337 454 347Q416 357 358 363Q306 368 256.5 378Q207 388 168.5 409.5Q130 431 106.5 468.5Q83 506 83 565Q83 624 104.5 667Q126 710 163.5 737.5Q201 765 250.5 778.5Q300 792 355 792Q430 792 483.5 776.5Q537 761 573 733Q609 705 629 665.5Q649 626 655 579L553 568Q542 639 495.5 670Q449 701 355 701Q331 701 301.5 695.5Q272 690 245.5 675Q219 660 201.5 634Q184 608 184 566Q184 541 191.5 522Q199 503 218.5 489.5Q238 476 272.5 467Q307 458 361 452Q431 445 486 433.5Q541 422 578.5 397.5Q616 373 636 332Q656 291 656 225Q656 163 630.5 118Q605 73 563.5 44Q522 15 468.5 1.5Q415 -12 358 -12Q281 -12 226.5 4Q172 20 136 48.5Q100 77 80.5 117Q61 157 54 206L156 216Q168 143 216 111Q264 79 358 79ZM517 1030 406 822H311L405 1030Z" glyph-name="Sacute" horiz-adv-x="713" unicode="&#346;" /><glyph d="M358 79Q393 79 428 86.5Q463 94 492 111Q521 128 539 156Q557 184 557 224Q557 257 547.5 280.5Q538 304 515 320.5Q492 337 454 347Q416 357 358 363Q306 368 256.5 378Q207 388 168.5 409.5Q130 431 106.5 468.5Q83 506 83 565Q83 624 104.5 667Q126 710 163.5 737.5Q201 765 250.5 778.5Q300 792 355 792Q430 792 483.5 776.5Q537 761 573 733Q609 705 629 665.5Q649 626 655 579L553 568Q542 639 495.5 670Q449 701 355 701Q331 701 301.5 695.5Q272 690 245.5 675Q219 660 201.5 634Q184 608 184 566Q184 541 191.5 522Q199 503 218.5 489.5Q238 476 272.5 467Q307 458 361 452Q431 445 486 433.5Q541 422 578.5 397.5Q616 373 636 332Q656 291 656 225Q656 163 630.5 118Q605 73 563.5 44Q522 15 468.5 1.5Q415 -12 358 -12Q281 -12 226.5 4Q172 20 136 48.5Q100 77 80.5 117Q61 157 54 206L156 216Q168 143 216 111Q264 79 358 79ZM312 822 160 1030H257L358 903L459 1030H556L404 822Z" glyph-name="Scaron" horiz-adv-x="713" unicode="&#352;" /><glyph d="M358 79Q393 79 428 86.5Q463 94 492 111Q521 128 539 156Q557 184 557 224Q557 257 547.5 280.5Q538 304 515 320.5Q492 337 454 347Q416 357 358 363Q306 368 256.5 378Q207 388 168.5 409.5Q130 431 106.5 468.5Q83 506 83 565Q83 624 104.5 667Q126 710 163.5 737.5Q201 765 250.5 778.5Q300 792 355 792Q430 792 483.5 776.5Q537 761 573 733Q609 705 629 665.5Q649 626 655 579L553 568Q542 639 495.5 670Q449 701 355 701Q331 701 301.5 695.5Q272 690 245.5 675Q219 660 201.5 634Q184 608 184 566Q184 541 191.5 522Q199 503 218.5 489.5Q238 476 272.5 467Q307 458 361 452Q431 445 486 433.5Q541 422 578.5 397.5Q616 373 636 332Q656 291 656 225Q656 167 633.5 124Q611 81 573.5 52Q536 23 487.5 7.5Q439 -8 386 -11L380 -35Q415 -43 442 -64.5Q469 -86 469 -126Q469 -149 459.5 -165Q450 -181 433.5 -191.5Q417 -202 394.5 -207Q372 -212 347 -212Q315 -212 290.5 -205.5Q266 -199 255 -194L272 -141Q280 -144 289 -148Q297 -151 306.5 -153Q316 -155 327 -155Q335 -155 345 -154Q355 -153 363.5 -149.5Q372 -146 377.5 -140Q383 -134 383 -125Q383 -102 357.5 -91Q332 -80 296 -76L318 -11Q252 -7 205 10.5Q158 28 126.5 56Q95 84 77.5 122Q60 160 54 206L156 216Q168 143 216 111Q264 79 358 79Z" glyph-name="Scedilla" horiz-adv-x="713" unicode="&#350;" /><glyph d="M358 79Q393 79 428 86.5Q463 94 492 111Q521 128 539 156Q557 184 557 224Q557 257 547.5 280.5Q538 304 515 320.5Q492 337 454 347Q416 357 358 363Q306 368 256.5 378Q207 388 168.5 409.5Q130 431 106.5 468.5Q83 506 83 565Q83 624 104.5 667Q126 710 163.5 737.5Q201 765 250.5 778.5Q300 792 355 792Q430 792 483.5 776.5Q537 761 573 733Q609 705 629 665.5Q649 626 655 579L553 568Q542 639 495.5 670Q449 701 355 701Q331 701 301.5 695.5Q272 690 245.5 675Q219 660 201.5 634Q184 608 184 566Q184 541 191.5 522Q199 503 218.5 489.5Q238 476 272.5 467Q307 458 361 452Q431 445 486 433.5Q541 422 578.5 397.5Q616 373 636 332Q656 291 656 225Q656 163 630.5 118Q605 73 563.5 44Q522 15 468.5 1.5Q415 -12 358 -12Q281 -12 226.5 4Q172 20 136 48.5Q100 77 80.5 117Q61 157 54 206L156 216Q168 143 216 111Q264 79 358 79ZM404 1030 556 822H459L358 949L257 822H160L312 1030Z" glyph-name="Scircumflex" horiz-adv-x="713" unicode="&#348;" /><glyph d="M358 79Q393 79 428 86.5Q463 94 492 111Q521 128 539 156Q557 184 557 224Q557 257 547.5 280.5Q538 304 515 320.5Q492 337 454 347Q416 357 358 363Q306 368 256.5 378Q207 388 168.5 409.5Q130 431 106.5 468.5Q83 506 83 565Q83 624 104.5 667Q126 710 163.5 737.5Q201 765 250.5 778.5Q300 792 355 792Q430 792 483.5 776.5Q537 761 573 733Q609 705 629 665.5Q649 626 655 579L553 568Q542 639 495.5 670Q449 701 355 701Q331 701 301.5 695.5Q272 690 245.5 675Q219 660 201.5 634Q184 608 184 566Q184 541 191.5 522Q199 503 218.5 489.5Q238 476 272.5 467Q307 458 361 452Q431 445 486 433.5Q541 422 578.5 397.5Q616 373 636 332Q656 291 656 225Q656 163 630.5 118Q605 73 563.5 44Q522 15 468.5 1.5Q415 -12 358 -12Q281 -12 226.5 4Q172 20 136 48.5Q100 77 80.5 117Q61 157 54 206L156 216Q168 143 216 111Q264 79 358 79ZM415 -62 369 -200H281L298 -62Z" glyph-name="Scommaaccent" horiz-adv-x="713" unicode="&#536;" /><glyph d="M361 0H261V688H20V780H602V688H361Z" glyph-name="T" horiz-adv-x="622" unicode="T" /><glyph d="M361 441H486V359H361V0H261V359H136V441H261V688H20V780H602V688H361Z" glyph-name="Tbar" horiz-adv-x="622" unicode="&#358;" /><glyph d="M360 0H260V688H20V780H601V688H360ZM265 822 113 1030H210L311 903L412 1030H509L357 822Z" glyph-name="Tcaron" horiz-adv-x="622" unicode="&#356;" /><glyph d="M361 0H261V688H20V780H602V688H361ZM369 -62 323 -200H235L252 -62Z" glyph-name="Tcommaaccent" horiz-adv-x="622" unicode="&#354;" /><glyph d="M625 390Q625 320 602.5 274.5Q580 229 544 203Q508 177 462 166.5Q416 156 369 156H180V0H80V780H180V624H369Q416 624 462 613.5Q508 603 544 577Q580 551 602.5 505.5Q625 460 625 390ZM180 248H379Q402 248 426.5 252.5Q451 257 472 272Q493 287 506.5 315Q520 343 520 390Q520 437 506.5 465Q493 493 472 508Q451 523 426.5 527.5Q402 532 379 532H180Z" glyph-name="Thorn" horiz-adv-x="660" unicode="&#222;" /><glyph d="M386 -12Q296 -12 236 10.5Q176 33 139.5 72.5Q103 112 87.5 165.5Q72 219 72 282V780H174V281Q174 239 182.5 202Q191 165 214 138Q237 111 278.5 95Q320 79 386 79Q452 79 493.5 95Q535 111 558 138Q581 165 589.5 202Q598 239 598 281V780H700V282Q700 219 684.5 165.5Q669 112 632.5 72.5Q596 33 536 10.5Q476 -12 386 -12Z" glyph-name="U" horiz-adv-x="772" unicode="U" /><glyph d="M386 -12Q296 -12 236 10.5Q176 33 139.5 72.5Q103 112 87.5 165.5Q72 219 72 282V780H174V281Q174 239 182.5 202Q191 165 214 138Q237 111 278.5 95Q320 79 386 79Q452 79 493.5 95Q535 111 558 138Q581 165 589.5 202Q598 239 598 281V780H700V282Q700 219 684.5 165.5Q669 112 632.5 72.5Q596 33 536 10.5Q476 -12 386 -12ZM545 1030 434 822H339L433 1030Z" glyph-name="Uacute" horiz-adv-x="772" unicode="&#218;" /><glyph d="M386 -12Q296 -12 236 10.5Q176 33 139.5 72.5Q103 112 87.5 165.5Q72 219 72 282V780H174V281Q174 239 182.5 202Q191 165 214 138Q237 111 278.5 95Q320 79 386 79Q452 79 493.5 95Q535 111 558 138Q581 165 589.5 202Q598 239 598 281V780H700V282Q700 219 684.5 165.5Q669 112 632.5 72.5Q596 33 536 10.5Q476 -12 386 -12ZM386 825Q333 825 297 839Q261 853 239 879Q217 905 208 943Q199 981 199 1030H277Q276 963 302 936Q328 909 386 909Q444 909 470 936Q496 963 495 1030H573Q573 981 564 943Q555 905 533 879Q511 853 475 839Q439 825 386 825Z" glyph-name="Ubreve" horiz-adv-x="772" unicode="&#364;" /><glyph d="M386 -12Q296 -12 236 10.5Q176 33 139.5 72.5Q103 112 87.5 165.5Q72 219 72 282V780H174V281Q174 239 182.5 202Q191 165 214 138Q237 111 278.5 95Q320 79 386 79Q452 79 493.5 95Q535 111 558 138Q581 165 589.5 202Q598 239 598 281V780H700V282Q700 219 684.5 165.5Q669 112 632.5 72.5Q596 33 536 10.5Q476 -12 386 -12ZM432 1030 584 822H487L386 949L285 822H188L340 1030Z" glyph-name="Ucircumflex" horiz-adv-x="772" unicode="&#219;" /><glyph d="M386 -12Q296 -12 236 10.5Q176 33 139.5 72.5Q103 112 87.5 165.5Q72 219 72 282V780H174V281Q174 239 182.5 202Q191 165 214 138Q237 111 278.5 95Q320 79 386 79Q452 79 493.5 95Q535 111 558 138Q581 165 589.5 202Q598 239 598 281V780H700V282Q700 219 684.5 165.5Q669 112 632.5 72.5Q596 33 536 10.5Q476 -12 386 -12ZM342 869H230V980H342ZM542 869H430V980H542Z" glyph-name="Udieresis" horiz-adv-x="772" unicode="&#220;" /><glyph d="M386 -12Q296 -12 236 10.5Q176 33 139.5 72.5Q103 112 87.5 165.5Q72 219 72 282V780H174V281Q174 239 182.5 202Q191 165 214 138Q237 111 278.5 95Q320 79 386 79Q452 79 493.5 95Q535 111 558 138Q581 165 589.5 202Q598 239 598 281V780H700V282Q700 219 684.5 165.5Q669 112 632.5 72.5Q596 33 536 10.5Q476 -12 386 -12ZM346 1030 440 822H345L234 1030Z" glyph-name="Ugrave" horiz-adv-x="772" unicode="&#217;" /><glyph d="M386 -12Q296 -12 236 10.5Q176 33 139.5 72.5Q103 112 87.5 165.5Q72 219 72 282V780H174V281Q174 239 182.5 202Q191 165 214 138Q237 111 278.5 95Q320 79 386 79Q452 79 493.5 95Q535 111 558 138Q581 165 589.5 202Q598 239 598 281V780H700V282Q700 219 684.5 165.5Q669 112 632.5 72.5Q596 33 536 10.5Q476 -12 386 -12ZM463 1030 352 822H257L351 1030ZM623 1030 512 822H417L511 1030Z" glyph-name="Uhungarumlaut" horiz-adv-x="772" unicode="&#368;" /><glyph d="M386 -12Q296 -12 236 10.5Q176 33 139.5 72.5Q103 112 87.5 165.5Q72 219 72 282V780H174V281Q174 239 182.5 202Q191 165 214 138Q237 111 278.5 95Q320 79 386 79Q452 79 493.5 95Q535 111 558 138Q581 165 589.5 202Q598 239 598 281V780H700V282Q700 219 684.5 165.5Q669 112 632.5 72.5Q596 33 536 10.5Q476 -12 386 -12ZM242 882V972H530V882Z" glyph-name="Umacron" horiz-adv-x="772" unicode="&#362;" /><glyph d="M72 780H174V281Q174 239 182.5 202Q191 165 214 138Q237 111 278.5 95Q320 79 386 79Q452 79 493.5 95Q535 111 558 138Q581 165 589.5 202Q598 239 598 281V780H700V282Q700 230 689.5 184Q679 138 655.5 101.5Q632 65 593 38.5Q554 12 497 -1Q475 -6 456.5 -17Q438 -28 425 -41.5Q412 -55 405 -70.5Q398 -86 398 -99Q398 -117 408.5 -128Q419 -139 444 -139Q455 -139 467 -136.5Q479 -134 489.5 -130.5Q500 -127 506.5 -124Q513 -121 513 -120L535 -187Q519 -197 493 -204.5Q467 -212 433 -212Q410 -212 389 -206.5Q368 -201 351.5 -188.5Q335 -176 325.5 -156.5Q316 -137 316 -108Q316 -54 361 -11Q279 -8 223.5 15.5Q168 39 134.5 78Q101 117 86.5 169.5Q72 222 72 282Z" glyph-name="Uogonek" horiz-adv-x="772" unicode="&#370;" /><glyph d="M386 -12Q296 -12 236 10.5Q176 33 139.5 72.5Q103 112 87.5 165.5Q72 219 72 282V780H174V281Q174 239 182.5 202Q191 165 214 138Q237 111 278.5 95Q320 79 386 79Q452 79 493.5 95Q535 111 558 138Q581 165 589.5 202Q598 239 598 281V780H700V282Q700 219 684.5 165.5Q669 112 632.5 72.5Q596 33 536 10.5Q476 -12 386 -12ZM270 926Q270 977 300.5 1009.5Q331 1042 386 1042Q441 1042 471.5 1009.5Q502 977 502 926Q502 875 471.5 842.5Q441 810 386 810Q331 810 300.5 842.5Q270 875 270 926ZM433 926Q433 948 420.5 961Q408 974 386 974Q364 974 351.5 961Q339 948 339 926Q339 904 351.5 891Q364 878 386 878Q408 878 420.5 891Q433 904 433 926Z" glyph-name="Uring" horiz-adv-x="772" unicode="&#366;" /><glyph d="M386 -12Q296 -12 236 10.5Q176 33 139.5 72.5Q103 112 87.5 165.5Q72 219 72 282V780H174V281Q174 239 182.5 202Q191 165 214 138Q237 111 278.5 95Q320 79 386 79Q452 79 493.5 95Q535 111 558 138Q581 165 589.5 202Q598 239 598 281V780H700V282Q700 219 684.5 165.5Q669 112 632.5 72.5Q596 33 536 10.5Q476 -12 386 -12ZM301 926Q274 926 263 908.5Q252 891 249 872L173 883Q181 940 211.5 974Q242 1008 306 1008Q339 1008 361.5 995.5Q384 983 402 968Q420 953 436 940.5Q452 928 471 928Q498 928 509 945.5Q520 963 523 982L599 971Q591 914 560.5 880Q530 846 466 846Q433 846 410.5 858.5Q388 871 370 886Q352 901 336 913.5Q320 926 301 926Z" glyph-name="Utilde" horiz-adv-x="772" unicode="&#360;" /><glyph d="M412 -12H314L14 780H121L301 289L363 114L425 289L605 780H713Z" glyph-name="V" horiz-adv-x="727" unicode="V" /><glyph d="M477 645 435 496 276 -12H191L26 780H130L216 320L242 163L287 320L431 780H523L667 320L712 163L738 320L824 780H928L763 -12H678L519 496Z" glyph-name="W" horiz-adv-x="954" unicode="W" /><glyph d="M477 645 435 496 276 -12H191L26 780H130L216 320L242 163L287 320L431 780H523L667 320L712 163L738 320L824 780H928L763 -12H678L519 496ZM636 1030 525 822H430L524 1030Z" glyph-name="Wacute" horiz-adv-x="954" unicode="&#7810;" /><glyph d="M477 645 435 496 276 -12H191L26 780H130L216 320L242 163L287 320L431 780H523L667 320L712 163L738 320L824 780H928L763 -12H678L519 496ZM523 1030 675 822H578L477 949L376 822H279L431 1030Z" glyph-name="Wcircumflex" horiz-adv-x="954" unicode="&#372;" /><glyph d="M477 645 435 496 276 -12H191L26 780H130L216 320L242 163L287 320L431 780H523L667 320L712 163L738 320L824 780H928L763 -12H678L519 496ZM633 869H521V980H633ZM433 869H321V980H433Z" glyph-name="Wdieresis" horiz-adv-x="954" unicode="&#7812;" /><glyph d="M477 645 435 496 276 -12H191L26 780H130L216 320L242 163L287 320L431 780H523L667 320L712 163L738 320L824 780H928L763 -12H678L519 496ZM437 1030 531 822H436L325 1030Z" glyph-name="Wgrave" horiz-adv-x="954" unicode="&#7808;" /><glyph d="M361 481 449 615 559 780H676L457 459L417 402L459 342L694 0H573L447 190L361 321L275 190L149 0H28L263 342L305 402L265 459L46 780H163L273 615Z" glyph-name="X" horiz-adv-x="722" unicode="X" /><glyph d="M365 410 454 551 603 780H718L415 324V0H315V324L12 780H127L276 551Z" glyph-name="Y" horiz-adv-x="730" unicode="Y" /><glyph d="M365 410 454 551 603 780H718L415 324V0H315V324L12 780H127L276 551ZM524 1030 413 822H318L412 1030Z" glyph-name="Yacute" horiz-adv-x="730" unicode="&#221;" /><glyph d="M365 410 454 551 603 780H718L415 324V0H315V324L12 780H127L276 551ZM411 1030 563 822H466L365 949L264 822H167L319 1030Z" glyph-name="Ycircumflex" horiz-adv-x="730" unicode="&#374;" /><glyph d="M365 410 454 551 603 780H718L415 324V0H315V324L12 780H127L276 551ZM521 869H409V980H521ZM321 869H209V980H321Z" glyph-name="Ydieresis" horiz-adv-x="730" unicode="&#376;" /><glyph d="M365 410 454 551 603 780H718L415 324V0H315V324L12 780H127L276 551ZM325 1030 419 822H324L213 1030Z" glyph-name="Ygrave" horiz-adv-x="730" unicode="&#7922;" /><glyph d="M43 75 442 598 515 689 283 688H62V780H645V705L246 182L173 91L406 92H645V0H43Z" glyph-name="Z" horiz-adv-x="688" unicode="Z" /><glyph d="M43 75 442 598 515 689 283 688H62V780H645V705L246 182L173 91L406 92H645V0H43ZM498 1030 387 822H292L386 1030Z" glyph-name="Zacute" horiz-adv-x="688" unicode="&#377;" /><glyph d="M43 75 442 598 515 689 283 688H62V780H645V705L246 182L173 91L406 92H645V0H43ZM293 822 141 1030H238L339 903L440 1030H537L385 822Z" glyph-name="Zcaron" horiz-adv-x="688" unicode="&#381;" /><glyph d="M43 75 442 598 515 689 283 688H62V780H645V705L246 182L173 91L406 92H645V0H43ZM395 869H283V980H395Z" glyph-name="Zdotaccent" horiz-adv-x="688" unicode="&#379;" /><glyph d="M289 459Q226 460 199.5 436.5Q173 413 165 369L66 383Q72 418 85.5 447Q99 476 124.5 497Q150 518 190 530Q230 542 287 542Q396 542 456.5 494.5Q517 447 517 348V132L524 0H437L425 76Q397 33 345 10.5Q293 -12 234 -12Q135 -12 89.5 31Q44 74 44 145Q44 187 59 215.5Q74 244 101 262.5Q128 281 166 292Q204 303 250 310L422 335V355Q422 411 388 434Q354 457 289 459ZM144 148Q144 72 240 72Q276 71 307.5 82.5Q339 94 363 112.5Q387 131 402.5 154Q418 177 422 199V261L259 235Q207 227 175.5 209.5Q144 192 144 148Z" glyph-name="a" horiz-adv-x="581" unicode="a" /><glyph d="M289 459Q226 460 199.5 436.5Q173 413 165 369L66 383Q72 418 85.5 447Q99 476 124.5 497Q150 518 190 530Q230 542 287 542Q396 542 456.5 494.5Q517 447 517 348V132L524 0H437L425 76Q397 33 345 10.5Q293 -12 234 -12Q135 -12 89.5 31Q44 74 44 145Q44 187 59 215.5Q74 244 101 262.5Q128 281 166 292Q204 303 250 310L422 335V355Q422 411 388 434Q354 457 289 459ZM144 148Q144 72 240 72Q276 71 307.5 82.5Q339 94 363 112.5Q387 131 402.5 154Q418 177 422 199V261L259 235Q207 227 175.5 209.5Q144 192 144 148ZM446 800 335 592H240L334 800Z" glyph-name="aacute" horiz-adv-x="581" unicode="&#225;" /><glyph d="M289 459Q226 460 199.5 436.5Q173 413 165 369L66 383Q72 418 85.5 447Q99 476 124.5 497Q150 518 190 530Q230 542 287 542Q396 542 456.5 494.5Q517 447 517 348V132L524 0H437L425 76Q397 33 345 10.5Q293 -12 234 -12Q135 -12 89.5 31Q44 74 44 145Q44 187 59 215.5Q74 244 101 262.5Q128 281 166 292Q204 303 250 310L422 335V355Q422 411 388 434Q354 457 289 459ZM144 148Q144 72 240 72Q276 71 307.5 82.5Q339 94 363 112.5Q387 131 402.5 154Q418 177 422 199V261L259 235Q207 227 175.5 209.5Q144 192 144 148ZM287 595Q234 595 198 609Q162 623 140 649Q118 675 109 713Q100 751 100 800H178Q177 733 203 706Q229 679 287 679Q345 679 371 706Q397 733 396 800H474Q474 751 465 713Q456 675 434 649Q412 623 376 609Q340 595 287 595Z" glyph-name="abreve" horiz-adv-x="581" unicode="&#259;" /><glyph d="M289 459Q226 460 199.5 436.5Q173 413 165 369L66 383Q72 418 85.5 447Q99 476 124.5 497Q150 518 190 530Q230 542 287 542Q396 542 456.5 494.5Q517 447 517 348V132L524 0H437L425 76Q397 33 345 10.5Q293 -12 234 -12Q135 -12 89.5 31Q44 74 44 145Q44 187 59 215.5Q74 244 101 262.5Q128 281 166 292Q204 303 250 310L422 335V355Q422 411 388 434Q354 457 289 459ZM144 148Q144 72 240 72Q276 71 307.5 82.5Q339 94 363 112.5Q387 131 402.5 154Q418 177 422 199V261L259 235Q207 227 175.5 209.5Q144 192 144 148ZM333 800 485 592H388L287 719L186 592H89L241 800Z" glyph-name="acircumflex" horiz-adv-x="581" unicode="&#226;" /><glyph d="M459 800 348 592H253L347 800Z" glyph-name="acute" horiz-adv-x="600" unicode="&#180;" /><glyph d="M289 459Q226 460 199.5 436.5Q173 413 165 369L66 383Q72 418 85.5 447Q99 476 124.5 497Q150 518 190 530Q230 542 287 542Q396 542 456.5 494.5Q517 447 517 348V132L524 0H437L425 76Q397 33 345 10.5Q293 -12 234 -12Q135 -12 89.5 31Q44 74 44 145Q44 187 59 215.5Q74 244 101 262.5Q128 281 166 292Q204 303 250 310L422 335V355Q422 411 388 434Q354 457 289 459ZM144 148Q144 72 240 72Q276 71 307.5 82.5Q339 94 363 112.5Q387 131 402.5 154Q418 177 422 199V261L259 235Q207 227 175.5 209.5Q144 192 144 148ZM243 639H131V750H243ZM443 639H331V750H443Z" glyph-name="adieresis" horiz-adv-x="581" unicode="&#228;" /><glyph d="M147 148Q147 72 243 72Q282 71 314 83Q346 95 369 114Q392 133 406 156Q420 179 422 201V226H267Q214 226 180.5 209.5Q147 193 147 148ZM677 -12Q605 -12 552 14.5Q499 41 468 95Q423 32 363 10Q303 -12 236 -12Q136 -12 90 30.5Q44 73 44 145Q44 187 60.5 218Q77 249 106.5 268.5Q136 288 176.5 297.5Q217 307 265 307H422V352Q422 411 388.5 434Q355 457 289 459Q227 460 200 436.5Q173 413 165 369L66 383Q72 418 85.5 447Q99 476 124.5 497Q150 518 190 530Q230 542 287 542Q430 542 480 457Q512 499 561.5 520.5Q611 542 674 542Q795 542 853.5 470.5Q912 399 912 266V226H522Q527 145 568.5 108.5Q610 72 676 72Q741 71 770.5 94Q800 117 808 156L908 144Q904 113 888.5 84.5Q873 56 845.5 34.5Q818 13 776 0.5Q734 -12 677 -12ZM675 459Q610 459 569 422.5Q528 386 523 307H809Q807 381 774 420.5Q741 460 675 459Z" glyph-name="ae" horiz-adv-x="960" unicode="&#230;" /><glyph d="M677 -12Q605 -12 552 14.5Q499 41 468 95Q423 32 363 10Q303 -12 236 -12Q136 -12 90 30.5Q44 73 44 145Q44 187 60.5 218Q77 249 106.5 268.5Q136 288 176.5 297.5Q217 307 265 307H422V352Q422 411 388.5 434Q355 457 289 459Q227 460 200 436.5Q173 413 165 369L66 383Q72 418 85.5 447Q99 476 124.5 497Q150 518 190 530Q230 542 287 542Q430 542 480 457Q512 499 561.5 520.5Q611 542 674 542Q795 542 853.5 470.5Q912 399 912 266V226H522Q527 145 568.5 108.5Q610 72 676 72Q741 71 770.5 94Q800 117 808 156L908 144Q904 113 888.5 84.5Q873 56 845.5 34.5Q818 13 776 0.5Q734 -12 677 -12ZM675 459Q610 459 569 422.5Q528 386 523 307H809Q807 381 774 420.5Q741 460 675 459ZM147 148Q147 72 243 72Q282 71 314 83Q346 95 369 114Q392 133 406 156Q420 179 422 201V226H267Q214 226 180.5 209.5Q147 193 147 148ZM637 800 526 592H431L525 800Z" glyph-name="aeacute" horiz-adv-x="960" unicode="&#509;" /><glyph d="M1350 290H50V380H1350Z" glyph-name="afii00208" horiz-adv-x="1400" unicode="&#8213;" /><glyph d="M314 791H412L713 0H605L522 225H204L121 0H13ZM363 664 236 313H490Z" glyph-name="afii10017" horiz-adv-x="726" unicode="&#1040;" /><glyph d="M180 688V441H406Q453 441 497 432.5Q541 424 574.5 399.5Q608 375 628 332Q648 289 648 220Q648 151 628 108Q608 65 574.5 41Q541 17 497 8.5Q453 0 406 0H80V780H576V688ZM180 349V92H400Q423 92 448.5 95Q474 98 495 111Q516 124 530 149.5Q544 175 544 220Q544 265 530 291Q516 317 495 330Q474 343 448.5 346Q423 349 400 349Z" glyph-name="afii10018" horiz-adv-x="696" unicode="&#1041;" /><glyph d="M80 0V780H396Q432 780 471.5 772Q511 764 544 741Q577 718 599 678Q621 638 621 573Q621 536 612.5 507.5Q604 479 590.5 458.5Q577 438 560.5 425.5Q544 413 528 407Q552 401 574 386.5Q596 372 612.5 348.5Q629 325 638.5 292.5Q648 260 648 219Q648 151 627.5 108Q607 65 572.5 41Q538 17 493.5 8.5Q449 0 402 0ZM394 92Q416 92 442.5 95Q469 98 491.5 110.5Q514 123 529 148.5Q544 174 544 220Q544 266 530.5 292.5Q517 319 495.5 332.5Q474 346 448 350Q422 354 398 354H180V92ZM180 688V445H386Q415 445 439 450.5Q463 456 480.5 469.5Q498 483 507.5 507.5Q517 532 517 569Q517 606 507.5 629.5Q498 653 481 666Q464 679 440 683.5Q416 688 386 688Z" glyph-name="afii10019" horiz-adv-x="699" unicode="&#1042;" /><glyph d="M180 0H80V780H576V688H180Z" glyph-name="afii10020" horiz-adv-x="589" unicode="&#1043;" /><glyph d="M675 92H761V-160H662V0H133V-160H33V92H50Q93 92 124 115.5Q155 139 177.5 188.5Q200 238 216 313.5Q232 389 246 493L283 780H675ZM350 488Q329 342 300 243.5Q271 145 221 92H575V688H377L350 488Z" glyph-name="afii10021" horiz-adv-x="804" unicode="&#1044;" /><glyph d="M617 780V688H180V445H574V354H180V92H637V0H80V780Z" glyph-name="afii10022" horiz-adv-x="693" unicode="&#1045;" /><glyph d="M612 780V688H180V446H568V354H180V92H632V0H80V780ZM303 869H192V980H303ZM503 869H392V980H503Z" glyph-name="afii10023" horiz-adv-x="688" unicode="&#1025;" /><glyph d="M805 488Q791 464 771.5 440Q752 416 722 400Q754 385 774.5 360.5Q795 336 809 311L988 0H865L711 281Q691 317 668 335.5Q645 354 604 354H556V0H456V354H408Q367 354 344 335.5Q321 317 301 281L147 0H24L203 311Q217 336 237 360.5Q257 385 289 400Q260 416 240.5 440Q221 464 207 488L39 780H162L305 519Q325 482 348 464Q371 446 412 446H456V780H556V446H600Q641 446 664 464Q687 482 707 519L850 780H973Z" glyph-name="afii10024" horiz-adv-x="1012" unicode="&#1046;" /><glyph d="M641 217Q641 168 622 126.5Q603 85 564.5 54Q526 23 467.5 5.5Q409 -12 329 -12Q257 -12 205 3.5Q153 19 118 47.5Q83 76 64 115.5Q45 155 39 202L139 213Q148 141 193 109.5Q238 78 329 77Q432 75 487 109Q542 143 542 217Q542 265 524.5 292Q507 319 479 332.5Q451 346 416 349Q381 352 346 352H237V443H346Q381 443 411.5 446.5Q442 450 465 463.5Q488 477 501 502.5Q514 528 514 572Q514 607 500.5 631Q487 655 463 670Q439 685 406.5 692Q374 699 335 698Q290 697 257 690Q224 683 202 667Q180 651 167.5 626.5Q155 602 150 567L50 577Q56 624 74.5 663Q93 702 127 729.5Q161 757 212.5 772Q264 787 335 787Q391 787 441.5 775.5Q492 764 530 738.5Q568 713 590.5 672Q613 631 613 572Q613 535 603 505.5Q593 476 576 455Q559 434 537.5 421Q516 408 492 403Q517 398 543.5 384.5Q570 371 591.5 348Q613 325 627 292.5Q641 260 641 217Z" glyph-name="afii10025" horiz-adv-x="687" unicode="&#1047;" /><glyph d="M490 473 175 0H80V780H181V409L178 172L264 307L580 780H675V0H574V371L577 608Z" glyph-name="afii10026" horiz-adv-x="755" unicode="&#1048;" /><glyph d="M490 473 175 0H80V780H181V409L178 172L264 307L580 780H675V0H574V371L577 608ZM564 1030Q564 981 555 943Q546 905 524 879Q502 853 466 839Q430 825 377 825Q324 825 288 839Q252 853 230.5 879Q209 905 199.5 943Q190 981 190 1030H268Q268 963 293.5 936Q319 909 377 909Q435 909 461 936Q487 963 487 1030Z" glyph-name="afii10027" horiz-adv-x="755" unicode="&#1049;" /><glyph d="M502 488Q487 464 467 439.5Q447 415 416 400Q448 384 469 360Q490 336 505 311L695 0H571L409 281Q388 317 364.5 335.5Q341 354 300 354H180V0H80V780H180V446H297Q338 446 361 464Q384 482 405 519L556 780H680Z" glyph-name="afii10028" horiz-adv-x="719" unicode="&#1050;" /><glyph d="M663 0H563V688H364L337 488Q320 366 298 274.5Q276 183 242.5 122Q209 61 160.5 30.5Q112 0 41 0H28L27 92H37Q81 92 112 115.5Q143 139 165.5 188Q188 237 204 313Q220 389 234 493L272 780H663Z" glyph-name="afii10029" horiz-adv-x="743" unicode="&#1051;" /><glyph d="M413 0 224 455 175 584 178 285V0H80V780H188L392 288L455 124L518 288L722 780H830V0H732V285L735 584L686 455L497 0Z" glyph-name="afii10030" horiz-adv-x="910" unicode="&#1052;" /><glyph d="M670 780V0H570V354H180V0H80V780H180V445H570V780Z" glyph-name="afii10031" horiz-adv-x="750" unicode="&#1053;" /><glyph d="M400 701Q329 701 283.5 676Q238 651 211.5 608Q185 565 174.5 508.5Q164 452 164 390Q164 328 174.5 271.5Q185 215 211.5 172.5Q238 130 283.5 104.5Q329 79 400 79Q471 79 516.5 104.5Q562 130 588.5 172.5Q615 215 625.5 271.5Q636 328 636 390Q636 452 625.5 508.5Q615 565 588.5 608Q562 651 516.5 676Q471 701 400 701ZM400 -12Q311 -12 246.5 16.5Q182 45 140.5 97.5Q99 150 79.5 224.5Q60 299 60 390Q60 482 79.5 556Q99 630 140.5 682.5Q182 735 246.5 763.5Q311 792 400 792Q489 792 553.5 763.5Q618 735 659.5 682.5Q701 630 720.5 556Q740 482 740 390Q740 299 720.5 224.5Q701 150 659.5 97.5Q618 45 553.5 16.5Q489 -12 400 -12Z" glyph-name="afii10032" horiz-adv-x="800" unicode="&#1054;" /><glyph d="M670 780V0H570V689H180V0H80V780Z" glyph-name="afii10033" horiz-adv-x="750" unicode="&#1055;" /><glyph d="M379 405Q402 405 426.5 409.5Q451 414 472 429Q493 444 506.5 472Q520 500 520 547Q520 594 506.5 622Q493 650 472 664.5Q451 679 426.5 683.5Q402 688 379 688H180V405ZM180 0H80V780H368Q415 780 461 770Q507 760 543.5 733.5Q580 707 602.5 662Q625 617 625 547Q625 477 602.5 431.5Q580 386 544 360Q508 334 462 323.5Q416 313 369 313H180Z" glyph-name="afii10034" horiz-adv-x="658" unicode="&#1056;" /><glyph d="M60 390Q60 482 80 556Q100 630 141.5 682.5Q183 735 247 763.5Q311 792 400 792Q473 792 527.5 776Q582 760 619 731Q656 702 677 661.5Q698 621 704 573L602 562Q591 635 542.5 668Q494 701 400 701Q330 701 284 676Q238 651 211 608Q184 565 173.5 508.5Q163 452 163 390Q163 328 173.5 271.5Q184 215 211 172.5Q238 130 284 104.5Q330 79 400 79Q494 79 542.5 112Q591 145 602 218L704 207Q698 159 677 118.5Q656 78 619 49Q582 20 527.5 4Q473 -12 400 -12Q311 -12 247 16.5Q183 45 141.5 97.5Q100 150 80 224.5Q60 299 60 390Z" glyph-name="afii10035" horiz-adv-x="757" unicode="&#1057;" /><glyph d="M361 0H261V688H20V780H602V688H361Z" glyph-name="afii10036" horiz-adv-x="622" unicode="&#1058;" /><glyph d="M179 78Q222 78 246 103.5Q270 129 291 171L308 211L46 780H152L357 319L560 780H666L392 167Q377 133 359.5 101Q342 69 317.5 44Q293 19 259.5 3.5Q226 -12 179 -12Q137 -12 108.5 -5Q80 2 63 11L74 101Q88 93 115.5 85.5Q143 78 179 78Z" glyph-name="afii10037" horiz-adv-x="684" unicode="&#1059;" /><glyph d="M360 113Q286 113 227 131.5Q168 150 126.5 185Q85 220 63 272Q41 324 41 390Q41 456 63 508Q85 560 126.5 595Q168 630 227 648.5Q286 667 360 667V780H460V667Q534 667 593 648.5Q652 630 693.5 595Q735 560 757 508Q779 456 779 390Q779 324 757 272Q735 220 693.5 185Q652 150 593 131.5Q534 113 460 113V0H360ZM145 390Q145 292 201 247.5Q257 203 360 203V577Q257 577 201 532.5Q145 488 145 390ZM460 203Q563 203 619 247.5Q675 292 675 390Q675 488 619 532.5Q563 577 460 577Z" glyph-name="afii10038" horiz-adv-x="820" unicode="&#1060;" /><glyph d="M361 481 449 615 559 780H676L457 459L417 402L459 342L694 0H573L447 190L361 321L275 190L149 0H28L263 342L305 402L265 459L46 780H163L273 615Z" glyph-name="afii10039" horiz-adv-x="722" unicode="&#1061;" /><glyph d="M80 780H180V92H569V780H669V92H756V-160H656V0H80Z" glyph-name="afii10040" horiz-adv-x="799" unicode="&#1062;" /><glyph d="M615 0H515V336Q483 309 427.5 291Q372 273 303 273Q252 273 207 285Q162 297 128.5 321Q95 345 75.5 381Q56 417 56 465V780H156V485Q156 425 197.5 395.5Q239 366 313 366Q352 366 384.5 373Q417 380 442.5 391.5Q468 403 486.5 417Q505 431 515 444V780H615Z" glyph-name="afii10041" horiz-adv-x="695" unicode="&#1063;" /><glyph d="M550 92H819V780H919V0H80V780H180V92H450V780H550Z" glyph-name="afii10042" horiz-adv-x="999" unicode="&#1064;" /><glyph d="M550 92H819V780H919V92H1006V-160H906V0H80V780H180V92H450V780H550Z" glyph-name="afii10043" horiz-adv-x="1049" unicode="&#1065;" /><glyph d="M300 780V441H526Q573 441 617 432.5Q661 424 694.5 399.5Q728 375 748 332Q768 289 768 220Q768 151 748 108Q728 65 694.5 41Q661 17 617 8.5Q573 0 526 0H200V688H25V780ZM300 349V92H520Q543 92 568.5 95Q594 98 615 111Q636 124 649.5 149.5Q663 175 663 220Q663 265 649.5 291Q636 317 615 330Q594 343 568.5 346Q543 349 520 349Z" glyph-name="afii10044" horiz-adv-x="816" unicode="&#1066;" /><glyph d="M180 780V441H406Q453 441 497 432.5Q541 424 574.5 399.5Q608 375 628 332Q648 289 648 220Q648 151 628 108Q608 65 574.5 41Q541 17 497 8.5Q453 0 406 0H80V780ZM180 349V92H400Q423 92 448.5 95Q474 98 495 111Q516 124 530 149.5Q544 175 544 220Q544 265 530 291Q516 317 495 330Q474 343 448.5 346Q423 349 400 349ZM831 0H731V780H831Z" glyph-name="afii10045" horiz-adv-x="911" unicode="&#1067;" /><glyph d="M180 780V441H406Q453 441 497 432.5Q541 424 574.5 399.5Q608 375 628 332Q648 289 648 220Q648 151 628 108Q608 65 574.5 41Q541 17 497 8.5Q453 0 406 0H80V780ZM180 349V92H400Q423 92 448.5 95Q474 98 495 111Q516 124 530 149.5Q544 175 544 220Q544 265 530 291Q516 317 495 330Q474 343 448.5 346Q423 349 400 349Z" glyph-name="afii10046" horiz-adv-x="696" unicode="&#1068;" /><glyph d="M353 700Q260 700 213 667.5Q166 635 155 562L53 573Q59 621 79.5 661.5Q100 702 136.5 731Q173 760 226.5 776Q280 792 353 792Q442 792 505.5 763.5Q569 735 610 682.5Q651 630 670 556Q689 482 689 390Q689 299 670 224.5Q651 150 610 97.5Q569 45 505.5 16.5Q442 -12 353 -12Q280 -12 226.5 4Q173 20 136.5 49Q100 78 79.5 118.5Q59 159 53 207L155 218Q166 145 213 112.5Q260 80 353 80Q418 80 461.5 101.5Q505 123 531.5 160.5Q558 198 570 248Q582 298 584 354H195V446H584Q580 499 567 545Q554 591 527 625.5Q500 660 457.5 680Q415 700 353 700Z" glyph-name="afii10047" horiz-adv-x="748" unicode="&#1069;" /><glyph d="M662 -12Q577 -12 515 13.5Q453 39 411.5 87Q370 135 348.5 202.5Q327 270 323 354H180V0H80V780H180V446H324Q330 525 352.5 589Q375 653 416.5 698Q458 743 519 767.5Q580 792 662 792Q751 792 815.5 763.5Q880 735 921.5 682.5Q963 630 982.5 556Q1002 482 1002 390Q1002 299 982.5 224.5Q963 150 921.5 97.5Q880 45 816 16.5Q752 -12 662 -12ZM662 700Q591 700 545.5 675Q500 650 473.5 607.5Q447 565 436.5 508.5Q426 452 426 390Q426 328 436.5 271.5Q447 215 473.5 172.5Q500 130 545.5 105Q591 80 662 80Q733 80 778.5 105Q824 130 850.5 172.5Q877 215 887.5 271.5Q898 328 898 390Q898 452 887.5 508.5Q877 565 850.5 607.5Q824 650 778.5 675Q733 700 662 700Z" glyph-name="afii10048" horiz-adv-x="1062" unicode="&#1070;" /><glyph d="M195 272Q205 287 217 303Q229 319 244 333Q208 339 175 353Q142 367 117 393Q92 419 77 458.5Q62 498 62 554Q62 624 84.5 668Q107 712 143 737Q179 762 225 771Q271 780 318 780H630V0H530V327H406Q365 327 342.5 308.5Q320 290 300 254L153 0H30ZM530 419V688H308Q286 688 261 684.5Q236 681 215 667.5Q194 654 180.5 627.5Q167 601 167 554Q167 507 180.5 480Q194 453 215 439.5Q236 426 261 422.5Q286 419 308 419Z" glyph-name="afii10049" horiz-adv-x="710" unicode="&#1071;" /><glyph d="M576 688H180V0H80V780H476V940H576Z" glyph-name="afii10050" horiz-adv-x="589" unicode="&#1168;" /><glyph d="M316 431Q340 455 382.5 472.5Q425 490 485 490Q609 490 668.5 425Q728 360 728 239Q728 118 671 53Q614 -12 507 -12Q486 -12 466.5 -8.5Q447 -5 435 0L444 91Q451 88 464 84.5Q477 81 497 81Q557 81 591.5 122.5Q626 164 626 239Q626 316 588.5 357Q551 398 471 398Q436 398 408 389Q380 380 360.5 366Q341 352 329.5 335Q318 318 316 302V0H216V688H23V780H509V688H316Z" glyph-name="afii10051" horiz-adv-x="756" unicode="&#1026;" /><glyph d="M180 0H80V780H576V688H180ZM487 1030 376 822H281L375 1030Z" glyph-name="afii10052" horiz-adv-x="589" unicode="&#1027;" /><glyph d="M395 700Q332 700 289.5 680Q247 660 220.5 625.5Q194 591 181 545Q168 499 164 446H553V354H163Q166 298 178 248Q190 198 216.5 160.5Q243 123 286.5 101.5Q330 80 395 80Q488 80 535 112.5Q582 145 593 218L696 207Q689 159 668.5 118.5Q648 78 611.5 49Q575 20 521.5 4Q468 -12 395 -12Q306 -12 242.5 16.5Q179 45 138 97.5Q97 150 78 224.5Q59 299 59 390Q59 482 78 556Q97 630 138 682.5Q179 735 242.5 763.5Q306 792 395 792Q468 792 521.5 776Q575 760 611.5 731Q648 702 668.5 661.5Q689 621 696 573L593 562Q582 635 535 667.5Q488 700 395 700Z" glyph-name="afii10053" horiz-adv-x="748" unicode="&#1028;" /><glyph d="M358 79Q393 79 428 86.5Q463 94 492 111Q521 128 539 156Q557 184 557 224Q557 257 547.5 280.5Q538 304 515 320.5Q492 337 454 347Q416 357 358 363Q306 368 256.5 378Q207 388 168.5 409.5Q130 431 106.5 468.5Q83 506 83 565Q83 624 104.5 667Q126 710 163.5 737.5Q201 765 250.5 778.5Q300 792 355 792Q430 792 483.5 776.5Q537 761 573 733Q609 705 629 665.5Q649 626 655 579L553 568Q542 639 495.5 670Q449 701 355 701Q331 701 301.5 695.5Q272 690 245.5 675Q219 660 201.5 634Q184 608 184 566Q184 541 191.5 522Q199 503 218.5 489.5Q238 476 272.5 467Q307 458 361 452Q431 445 486 433.5Q541 422 578.5 397.5Q616 373 636 332Q656 291 656 225Q656 163 630.5 118Q605 73 563.5 44Q522 15 468.5 1.5Q415 -12 358 -12Q281 -12 226.5 4Q172 20 136 48.5Q100 77 80.5 117Q61 157 54 206L156 216Q168 143 216 111Q264 79 358 79Z" glyph-name="afii10054" horiz-adv-x="713" unicode="&#1029;" /><glyph d="M198 0H98V780H198Z" glyph-name="afii10055" horiz-adv-x="295" unicode="&#1030;" /><glyph d="M198 0H98V780H198ZM103 869H-8V980H103ZM303 869H192V980H303Z" glyph-name="afii10056" horiz-adv-x="295" unicode="&#1031;" /><glyph d="M440 780V200Q440 158 428 119.5Q416 81 390 51.5Q364 22 322 5Q280 -12 220 -12Q158 -12 119.5 3Q81 18 59 43.5Q37 69 28 101.5Q19 134 16 169L116 182Q118 159 123.5 140Q129 121 140 107.5Q151 94 170.5 86.5Q190 79 220 79Q255 79 278.5 87Q302 95 315.5 111Q329 127 334.5 150Q340 173 340 204V780Z" glyph-name="afii10057" horiz-adv-x="512" unicode="&#1032;" /><glyph d="M663 441H889Q936 441 980 432.5Q1024 424 1057.5 399.5Q1091 375 1111 332Q1131 289 1131 220Q1131 151 1111 108Q1091 65 1057.5 41Q1024 17 980 8.5Q936 0 889 0H563V688H364L337 488Q320 366 298 274.5Q276 183 242.5 122Q209 61 160.5 30.5Q112 0 41 0H28L27 92H37Q81 92 112 115.5Q143 139 165.5 188Q188 237 204 313Q220 389 234 493L272 780H663ZM663 92H883Q906 92 931.5 95Q957 98 978 111Q999 124 1013 149.5Q1027 175 1027 220Q1027 265 1013 291Q999 317 978 330Q957 343 931.5 346Q906 349 883 349H663Z" glyph-name="afii10058" horiz-adv-x="1163" unicode="&#1033;" /><glyph d="M669 441H896Q943 441 986.5 432.5Q1030 424 1063.5 399.5Q1097 375 1117 332Q1137 289 1137 220Q1137 151 1117 108Q1097 65 1063.5 41Q1030 17 986.5 8.5Q943 0 896 0H569V349H180V0H80V780H180V441H569V780H669ZM669 92H889Q913 92 938.5 95Q964 98 985 111Q1006 124 1019.5 149.5Q1033 175 1033 220Q1033 265 1019.5 291Q1006 317 985 330Q964 343 938.5 346Q913 349 889 349H669Z" glyph-name="afii10059" horiz-adv-x="1169" unicode="&#1034;" /><glyph d="M216 688H23V780H509V688H316V400Q379 490 498 490Q537 490 571.5 479.5Q606 469 631.5 448Q657 427 672 396Q687 365 687 324V0H586V294Q586 346 555 371Q524 396 469 396Q437 396 409.5 385Q382 374 361.5 356Q341 338 329 315Q317 292 316 268V0H216Z" glyph-name="afii10060" horiz-adv-x="743" unicode="&#1035;" /><glyph d="M502 488Q487 464 467 439.5Q447 415 416 400Q448 384 469 360Q490 336 505 311L695 0H571L409 281Q388 317 364.5 335.5Q341 354 300 354H180V0H80V780H180V446H297Q338 446 361 464Q384 482 405 519L556 780H680ZM510 1030 399 822H304L398 1030Z" glyph-name="afii10061" horiz-adv-x="712" unicode="&#1036;" /><glyph d="M179 78Q222 78 246 103.5Q270 129 291 171L308 211L46 780H152L357 319L560 780H666L392 167Q377 133 359.5 101Q342 69 317.5 44Q293 19 259.5 3.5Q226 -12 179 -12Q137 -12 108.5 -5Q80 2 63 11L74 101Q88 93 115.5 85.5Q143 78 179 78ZM544 1030Q544 981 534.5 943Q525 905 503.5 879Q482 853 446 839Q410 825 357 825Q304 825 268 839Q232 853 210 879Q188 905 178.5 943Q169 981 169 1030H247Q247 963 272.5 936Q298 909 357 909Q415 909 440.5 936Q466 963 466 1030Z" glyph-name="afii10062" horiz-adv-x="684" unicode="&#1038;" /><glyph d="M289 459Q226 460 199.5 436.5Q173 413 165 369L66 383Q72 418 85.5 447Q99 476 124.5 497Q150 518 190 530Q230 542 287 542Q396 542 456.5 494.5Q517 447 517 348V132L524 0H437L425 76Q397 33 345 10.5Q293 -12 234 -12Q135 -12 89.5 31Q44 74 44 145Q44 187 59 215.5Q74 244 101 262.5Q128 281 166 292Q204 303 250 310L422 335V355Q422 411 388 434Q354 457 289 459ZM144 148Q144 72 240 72Q276 71 307.5 82.5Q339 94 363 112.5Q387 131 402.5 154Q418 177 422 199V261L259 235Q207 227 175.5 209.5Q144 192 144 148Z" glyph-name="afii10065" horiz-adv-x="581" unicode="&#1072;" /><glyph d="M294 -12Q178 -12 111 57.5Q44 127 44 274Q44 423 64.5 515.5Q85 608 124 661Q163 714 219 736Q275 758 346 764Q377 767 402 770.5Q427 774 448.5 778.5Q470 783 489.5 789Q509 795 529 803V709Q496 694 459.5 685Q423 676 365 671Q314 667 276.5 656.5Q239 646 213 623.5Q187 601 171.5 562.5Q156 524 148 463Q204 542 305 542Q359 542 403.5 524.5Q448 507 479.5 472.5Q511 438 528 386Q545 334 545 265Q545 126 477.5 57Q410 -12 294 -12ZM294 453Q225 453 184 409.5Q143 366 143 265Q143 164 184 120.5Q225 77 294 77Q364 77 405 120.5Q446 164 446 265Q446 366 405 409.5Q364 453 294 453Z" glyph-name="afii10066" horiz-adv-x="589" unicode="&#1073;" /><glyph d="M66 0V530H331Q359 530 389.5 524.5Q420 519 445.5 504Q471 489 488 462Q505 435 505 391Q505 366 498.5 347Q492 328 481 314.5Q470 301 456 292.5Q442 284 427 280Q465 275 493.5 242.5Q522 210 522 152Q522 106 505.5 76.5Q489 47 461.5 30Q434 13 399 6.5Q364 0 327 0ZM319 83Q367 83 396 98.5Q425 114 425 159Q425 205 397.5 221Q370 237 325 237H162V83ZM162 445V310H312Q363 310 385.5 327Q408 344 408 382Q408 417 386.5 431Q365 445 312 445Z" glyph-name="afii10067" horiz-adv-x="565" unicode="&#1074;" /><glyph d="M414 530V442H162V0H66V530Z" glyph-name="afii10068" horiz-adv-x="445" unicode="&#1075;" /><glyph d="M35 -160V88H52Q79 88 98 96.5Q117 105 131 127Q145 149 156 186.5Q167 224 177 282L218 530H530V88H606V-160H511V0H129V-160ZM434 442H297L268 267Q257 200 241.5 157Q226 114 206 88H434Z" glyph-name="afii10069" horiz-adv-x="641" unicode="&#1076;" /><glyph d="M144 226Q149 145 190.5 108.5Q232 72 298 72Q363 71 392.5 94Q422 117 430 156L530 144Q526 113 510.5 84.5Q495 56 467.5 34.5Q440 13 398 0.5Q356 -12 299 -12Q240 -12 192.5 5.5Q145 23 112 57.5Q79 92 61.5 144Q44 196 44 265Q44 403 112 472.5Q180 542 296 542Q417 542 475.5 470.5Q534 399 534 266V226ZM297 459Q232 459 191 422.5Q150 386 145 307H431Q429 381 396 420.5Q363 460 297 459Z" glyph-name="afii10070" horiz-adv-x="582" unicode="&#1077;" /><glyph d="M296 542Q417 542 475.5 470.5Q534 399 534 266V232H144Q148 148 189.5 110Q231 72 298 72Q363 71 392.5 94Q422 117 430 156L530 144Q526 113 510.5 84.5Q495 56 467.5 34.5Q440 13 398 0.5Q356 -12 299 -12Q240 -12 192.5 5.5Q145 23 112 57.5Q79 92 61.5 144Q44 196 44 265Q44 403 112 472.5Q180 542 296 542ZM297 459Q231 459 190.5 422Q150 385 145 304H431Q430 379 397 419.5Q364 460 297 459ZM252 639H141V750H252ZM453 639H341V750H453Z" glyph-name="afii10071" horiz-adv-x="582" unicode="&#1105;" /><glyph d="M770 530 668 354Q655 333 637.5 310.5Q620 288 593 274Q622 260 640 237.5Q658 215 672 193L783 0H669L580 163Q560 198 538.5 215Q517 232 476 232H449V0H353V232H325Q285 232 263 215Q241 198 222 163L133 0H19L130 193Q143 215 161 237.5Q179 260 208 274Q181 288 163 310.5Q145 333 133 354L32 530H146L226 384Q245 349 267 332Q289 315 329 315H353V530H449V315H473Q513 315 535 332Q557 349 576 384L656 530Z" glyph-name="afii10072" horiz-adv-x="802" unicode="&#1078;" /><glyph d="M512 150Q512 79 453 33.5Q394 -12 277 -12Q168 -12 112 32Q56 76 47 148L146 160Q155 118 187 95Q219 72 279 72Q344 72 379 91.5Q414 111 414 156Q414 184 403.5 199.5Q393 215 376.5 222Q360 229 338.5 230.5Q317 232 295 232H207V304H294Q316 304 334.5 307Q353 310 367 318.5Q381 327 389 343Q397 359 397 384Q397 426 366 441.5Q335 457 280 457Q228 457 197 438.5Q166 420 156 372L55 383Q67 463 122 502.5Q177 542 281 542Q322 542 360 534Q398 526 428 508Q458 490 476 460.5Q494 431 494 388Q494 361 487 341.5Q480 322 468.5 308.5Q457 295 442.5 286.5Q428 278 414 274Q430 270 447.5 261.5Q465 253 479 239Q493 225 502.5 203Q512 181 512 150Z" glyph-name="afii10073" horiz-adv-x="522" unicode="&#1079;" /><glyph d="M66 0V530H162L159 271L158 143L228 242L436 530H530V0H434L436 266L438 387L367 287L160 0Z" glyph-name="afii10074" horiz-adv-x="596" unicode="&#1080;" /><glyph d="M66 0V530H162L159 271L158 143L228 242L436 530H530V0H434L436 266L438 387L367 287L160 0ZM298 595Q245 595 209 609Q173 623 151 649Q129 675 120 713Q111 751 111 800H189Q188 733 214 706Q240 679 298 679Q356 679 382 706Q408 733 407 800H485Q485 751 476 713Q467 675 445 649Q423 623 387 609Q351 595 298 595Z" glyph-name="afii10075" horiz-adv-x="596" unicode="&#1081;" /><glyph d="M545 530 437 354Q423 332 405.5 310Q388 288 360 274Q389 260 408 237Q427 214 441 193L559 0H443L349 163Q339 180 329 193Q319 206 307 214.5Q295 223 279.5 227.5Q264 232 244 232H162V0H66V530H162V315H241Q281 315 303 332Q325 349 345 384L430 530Z" glyph-name="afii10076" horiz-adv-x="585" unicode="&#1082;" /><glyph d="M520 0H424V442H287L258 267Q245 189 226 137.5Q207 86 181.5 55.5Q156 25 122.5 12.5Q89 0 45 0H30V88H38Q66 88 86 96Q106 104 121 125.5Q136 147 146.5 184.5Q157 222 167 282L208 530H520Z" glyph-name="afii10077" horiz-adv-x="586" unicode="&#1083;" /><glyph d="M410 222 539 530H658V0H567L568 233L572 392L507 230L408 0H316L217 230L152 392L156 239L157 0H66V530H185L314 222L362 103Z" glyph-name="afii10078" horiz-adv-x="724" unicode="&#1084;" /><glyph d="M162 530V319H430V530H525V0H430V231H162V0H66V530Z" glyph-name="afii10079" horiz-adv-x="591" unicode="&#1085;" /><glyph d="M295 74Q364 74 406.5 119Q449 164 449 265Q449 366 406.5 411Q364 456 295 456Q226 456 183.5 411Q141 366 141 265Q141 164 183.5 119Q226 74 295 74ZM295 -12Q237 -12 191 5.5Q145 23 112.5 57.5Q80 92 62.5 144Q45 196 45 265Q45 334 62.5 386Q80 438 112.5 472.5Q145 507 191 524.5Q237 542 295 542Q411 542 478 473Q545 404 545 265Q545 126 478 57Q411 -12 295 -12Z" glyph-name="afii10080" horiz-adv-x="590" unicode="&#1086;" /><glyph d="M162 0H66V530H525V0H430V442H162Z" glyph-name="afii10081" horiz-adv-x="591" unicode="&#1087;" /><glyph d="M328 -12Q274 -12 230 10.5Q186 33 160 71V-200H65V398L58 530H145L157 454Q182 495 227.5 518.5Q273 542 328 542Q444 542 505.5 470.5Q567 399 567 265Q567 131 505.5 59.5Q444 -12 328 -12ZM160 202Q163 181 175.5 158.5Q188 136 208 118Q228 100 256.5 88.5Q285 77 319 77Q388 77 428 125Q468 173 468 265Q468 358 428 405.5Q388 453 319 453Q285 453 256.5 441.5Q228 430 208 412Q188 394 175.5 372Q163 350 160 328Z" glyph-name="afii10082" horiz-adv-x="611" unicode="&#1088;" /><glyph d="M138 265Q138 172 179.5 123.5Q221 75 292 73Q354 72 384 96.5Q414 121 423 164L522 152Q516 116 501.5 86Q487 56 460 34.5Q433 13 392 0.5Q351 -12 292 -12Q174 -12 109 59.5Q44 131 44 265Q44 399 109 470.5Q174 542 292 542Q351 542 392 529.5Q433 517 460 495.5Q487 474 501.5 444Q516 414 522 378L423 366Q414 409 384 433.5Q354 458 292 457Q221 455 179.5 406.5Q138 358 138 265Z" glyph-name="afii10083" horiz-adv-x="562" unicode="&#1089;" /><glyph d="M33 530H492V442H310V0H214V442H33Z" glyph-name="afii10084" horiz-adv-x="525" unicode="&#1090;" /><glyph d="M103 -122Q137 -122 158.5 -104.5Q180 -87 198 -46L228 26L11 530H121L229 259L281 125L334 259L442 530H551L303 -50Q285 -92 267 -122.5Q249 -153 227 -173Q205 -193 176 -202.5Q147 -212 108 -212Q84 -212 66 -209Q48 -206 35 -201L46 -111Q54 -115 67.5 -118.5Q81 -122 103 -122Z" glyph-name="afii10085" horiz-adv-x="562" unicode="&#1091;" /><glyph d="M336 -6Q276 -6 222.5 10.5Q169 27 129.5 60.5Q90 94 67 145Q44 196 44 265Q44 334 67 385Q90 436 129.5 469.5Q169 503 222.5 519.5Q276 536 336 536V800H432V536Q492 536 545.5 519.5Q599 503 638.5 469.5Q678 436 701 385Q724 334 724 265Q724 196 701 145Q678 94 638.5 60.5Q599 27 545.5 10.5Q492 -6 432 -6V-200H336ZM432 83Q468 83 503 91.5Q538 100 565 120.5Q592 141 609 176Q626 211 626 265Q626 319 609 354Q592 389 565 409.5Q538 430 503 438.5Q468 447 432 447ZM142 265Q142 211 159 176Q176 141 203 120.5Q230 100 265 91.5Q300 83 336 83V447Q300 447 265 438.5Q230 430 203 409.5Q176 389 159 354Q142 319 142 265Z" glyph-name="afii10086" horiz-adv-x="768" unicode="&#1092;" /><glyph d="M279 202 213 111 133 0H14L177 219L219 276L178 331L29 530H146L216 431L279 342L342 431L412 530H529L380 331L339 276L381 219L544 0H425L345 111Z" glyph-name="afii10087" horiz-adv-x="558" unicode="&#1093;" /><glyph d="M601 88V-160H507V0H66V530H162V88H430V530H525V88Z" glyph-name="afii10088" horiz-adv-x="619" unicode="&#1094;" /><glyph d="M535 0H439V206Q416 188 371 173Q326 158 265 158Q223 158 186.5 168Q150 178 122.5 199Q95 220 79 252Q63 284 63 328V530H159V341Q159 288 193.5 267.5Q228 247 285 247Q317 247 343 252.5Q369 258 388.5 266Q408 274 420.5 283Q433 292 439 299V530H535Z" glyph-name="afii10089" horiz-adv-x="591" unicode="&#1095;" /><glyph d="M465 88H673V530H768V0H66V530H162V88H369V530H465Z" glyph-name="afii10090" horiz-adv-x="834" unicode="&#1096;" /><glyph d="M465 88H673V530H768V88H844V-160H750V0H66V530H162V88H369V530H465Z" glyph-name="afii10091" horiz-adv-x="862" unicode="&#1097;" /><glyph d="M30 530H253V317H397Q436 317 471 311Q506 305 532.5 287.5Q559 270 575 239.5Q591 209 591 159Q591 110 575 78.5Q559 47 532.5 30Q506 13 471 6.5Q436 0 397 0H157V442H30ZM403 82Q420 82 436.5 84.5Q453 87 466 95.5Q479 104 486.5 119Q494 134 494 159Q494 184 486.5 199Q479 214 466 222.5Q453 231 436.5 233.5Q420 236 403 236H253V82Z" glyph-name="afii10092" horiz-adv-x="627" unicode="&#1098;" /><glyph d="M312 82Q329 82 345.5 84.5Q362 87 375 95.5Q388 104 395.5 119Q403 134 403 159Q403 184 395.5 199Q388 214 375 222.5Q362 231 345.5 233.5Q329 236 312 236H162V82ZM66 530H162V317H306Q345 317 380 311Q415 305 441.5 287.5Q468 270 484 239.5Q500 209 500 159Q500 110 484 78.5Q468 47 441.5 30Q415 13 380 6.5Q345 0 306 0H66ZM552 530H648V0H552Z" glyph-name="afii10093" horiz-adv-x="714" unicode="&#1099;" /><glyph d="M312 82Q329 82 345.5 84.5Q362 87 375 95.5Q388 104 395.5 119Q403 134 403 159Q403 184 395.5 199Q388 214 375 222.5Q362 231 345.5 233.5Q329 236 312 236H162V82ZM66 530H162V317H306Q345 317 380 311Q415 305 441.5 287.5Q468 270 484 239.5Q500 209 500 159Q500 110 484 78.5Q468 47 441.5 30Q415 13 380 6.5Q345 0 306 0H66Z" glyph-name="afii10094" horiz-adv-x="536" unicode="&#1100;" /><glyph d="M279 542Q396 542 461.5 473Q527 404 527 265Q527 126 461.5 57Q396 -12 279 -12Q220 -12 178 1.5Q136 15 108.5 37.5Q81 60 67 89.5Q53 119 48 152L148 164Q157 123 185.5 99Q214 75 278 76Q342 76 382 112.5Q422 149 427 232H206V304H427Q421 384 381.5 419.5Q342 455 279 455Q218 457 189 433Q160 409 151 366L51 378Q57 414 71.5 444Q86 474 112.5 495.5Q139 517 180 529.5Q221 542 279 542Z" glyph-name="afii10095" horiz-adv-x="572" unicode="&#1101;" /><glyph d="M515 -12Q408 -12 341.5 49Q275 110 267 231H162V0H66V530H162V319H268Q282 431 346.5 486.5Q411 542 515 542Q631 542 698.5 473Q766 404 766 265Q766 126 698.5 57Q631 -12 515 -12ZM515 453Q446 453 405 409.5Q364 366 364 265Q364 164 405 120.5Q446 77 515 77Q585 77 626 120.5Q667 164 667 265Q667 366 626 409.5Q585 453 515 453Z" glyph-name="afii10096" horiz-adv-x="811" unicode="&#1102;" /><glyph d="M40 0 135 164Q143 178 153.5 192.5Q164 207 178 220Q153 225 131.5 235.5Q110 246 94.5 264Q79 282 70 308.5Q61 335 61 371Q61 421 77 452Q93 483 119.5 500Q146 517 181 523.5Q216 530 255 530H495V0H400V213H333Q313 213 298 209Q283 205 272 196.5Q261 188 251.5 175Q242 162 233 145L154 0ZM249 448Q232 448 215.5 445.5Q199 443 186.5 434.5Q174 426 166 411Q158 396 158 371Q158 346 166 331Q174 316 186.5 308Q199 300 215.5 297Q232 294 249 294H400V448Z" glyph-name="afii10097" horiz-adv-x="561" unicode="&#1103;" /><glyph d="M414 442H162V0H66V530H320V690H414Z" glyph-name="afii10098" horiz-adv-x="445" unicode="&#1169;" /><glyph d="M550 -7Q550 -47 542.5 -84Q535 -121 514 -149.5Q493 -178 455.5 -195Q418 -212 357 -212Q336 -212 316.5 -208.5Q297 -205 285 -200L295 -111Q302 -115 318.5 -120Q335 -125 355 -124Q381 -124 399.5 -119Q418 -114 430 -100.5Q442 -87 448 -63Q454 -39 454 -1V346Q454 399 420.5 426Q387 453 332 453Q299 453 272 441Q245 429 225 411Q205 393 193 371Q181 349 178 328V0H83V619H-20V697H83V800H178V697H315V619H178V458Q204 496 248 519Q292 542 346 542Q390 542 427.5 530.5Q465 519 492 496Q519 473 534.5 440Q550 407 550 363Z" glyph-name="afii10099" horiz-adv-x="605" unicode="&#1106;" /><glyph d="M414 530V442H162V0H66V530ZM398 800 287 592H193L287 800Z" glyph-name="afii10100" horiz-adv-x="445" unicode="&#1107;" /><glyph d="M293 542Q351 542 392 529.5Q433 517 459.5 495.5Q486 474 500.5 444Q515 414 521 378L421 366Q417 387 407.5 404Q398 421 383 432.5Q368 444 346 450Q324 456 293 455Q230 455 190.5 419.5Q151 384 145 304H365V232H145Q150 149 190 112.5Q230 76 294 76Q358 75 386.5 99Q415 123 424 164L523 152Q519 119 504.5 89.5Q490 60 463 37.5Q436 15 394 1.5Q352 -12 293 -12Q176 -12 110 57Q44 126 44 265Q44 404 110 473Q176 542 293 542Z" glyph-name="afii10101" horiz-adv-x="572" unicode="&#1108;" /><glyph d="M266 72Q292 73 317.5 77Q343 81 363 90.5Q383 100 395 116Q407 132 407 156Q407 180 397.5 193.5Q388 207 370 214Q352 221 325.5 224Q299 227 265 231Q231 235 193.5 240.5Q156 246 124.5 260.5Q93 275 72.5 301.5Q52 328 52 374Q52 420 72 452Q92 484 123 504Q154 524 192 533Q230 542 266 542Q375 542 428 500.5Q481 459 492 384L392 372Q384 414 355.5 436.5Q327 459 266 458Q247 458 226 454.5Q205 451 188.5 443Q172 435 161 420Q150 405 150 381Q150 361 159 349Q168 337 185.5 330.5Q203 324 227 320.5Q251 317 281 314Q319 310 359 305Q399 300 431.5 285Q464 270 485 241Q506 212 506 161Q506 114 485 81Q464 48 430 27.5Q396 7 353 -2.5Q310 -12 267 -12Q210 -12 168.5 0Q127 12 99 33Q71 54 56 83Q41 112 36 147L136 160Q144 118 173.5 94.5Q203 71 266 72Z" glyph-name="afii10102" horiz-adv-x="540" unicode="&#1109;" /><glyph d="M81 530H177V0H81ZM185 639H73V750H185Z" glyph-name="afii10103" horiz-adv-x="258" unicode="&#1110;" /><glyph d="M82 530H178V0H82ZM86 639H-26V750H86ZM286 639H174V750H286Z" glyph-name="afii10104" horiz-adv-x="260" unicode="&#1111;" /><glyph d="M190 639H78V750H190ZM86 530H182V-7Q182 -47 174.5 -84Q167 -121 146 -149.5Q125 -178 87.5 -195Q50 -212 -11 -212Q-32 -212 -51.5 -208.5Q-71 -205 -83 -200L-73 -111Q-66 -115 -49.5 -120Q-33 -125 -13 -124Q13 -124 31.5 -119Q50 -114 62 -100.5Q74 -87 80 -63Q86 -39 86 -1Z" glyph-name="afii10105" horiz-adv-x="258" unicode="&#1112;" /><glyph d="M428 442H291L262 267Q249 189 230 137.5Q211 86 185.5 55.5Q160 25 126.5 12.5Q93 0 49 0H34V88H42Q70 88 90 96Q110 104 125 125.5Q140 147 150.5 184.5Q161 222 171 282L212 530H524V317H668Q707 317 742.5 311Q778 305 804.5 287.5Q831 270 847 239.5Q863 209 863 159Q863 110 847 78.5Q831 47 804.5 30Q778 13 742.5 6.5Q707 0 668 0H428ZM675 82Q692 82 708.5 84.5Q725 87 737.5 95.5Q750 104 757.5 119Q765 134 765 159Q765 184 757.5 199Q750 214 737.5 222.5Q725 231 708.5 233.5Q692 236 675 236H524V82Z" glyph-name="afii10106" horiz-adv-x="899" unicode="&#1113;" /><glyph d="M430 236H162V0H66V530H162V319H430V530H525V319H670Q709 319 744 312.5Q779 306 805.5 288.5Q832 271 848 240Q864 209 864 159Q864 110 848 78.5Q832 47 805.5 30Q779 13 744 6.5Q709 0 670 0H430ZM676 82Q693 82 709.5 84.5Q726 87 739 95.5Q752 104 759.5 119Q767 134 767 159Q767 184 759.5 199Q752 214 739 222.5Q726 231 709.5 233.5Q693 236 676 236H525V82Z" glyph-name="afii10107" horiz-adv-x="900" unicode="&#1114;" /><glyph d="M178 697H315V619H178V458Q204 496 248 519Q292 542 346 542Q390 542 427.5 530.5Q465 519 492 496Q519 473 534.5 440Q550 407 550 363V0H454V346Q454 399 420.5 426Q387 453 332 453Q299 453 272 441Q245 429 225 411Q205 393 193 371Q181 349 178 328V0H83V619H-20V697H83V800H178Z" glyph-name="afii10108" horiz-adv-x="605" unicode="&#1115;" /><glyph d="M545 530 437 354Q423 332 405.5 310Q388 288 360 274Q389 260 408 237Q427 214 441 193L559 0H443L349 163Q339 180 329 193Q319 206 307 214.5Q295 223 279.5 227.5Q264 232 244 232H162V0H66V530H162V315H241Q281 315 303 332Q325 349 345 384L430 530ZM436 800 325 592H230L324 800Z" glyph-name="afii10109" horiz-adv-x="585" unicode="&#1116;" /><glyph d="M103 -122Q137 -122 158.5 -104.5Q180 -87 198 -46L228 26L11 530H121L229 259L281 125L334 259L442 530H551L303 -50Q285 -92 267 -122.5Q249 -153 227 -173Q205 -193 176 -202.5Q147 -212 108 -212Q84 -212 66 -209Q48 -206 35 -201L46 -111Q54 -115 67.5 -118.5Q81 -122 103 -122ZM281 595Q228 595 192 609Q156 623 134 649Q112 675 103 713Q94 751 94 800H172Q171 733 197 706Q223 679 281 679Q339 679 365 706Q391 733 390 800H468Q468 751 459 713Q450 675 428 649Q406 623 370 609Q334 595 281 595Z" glyph-name="afii10110" horiz-adv-x="562" unicode="&#1118;" /><glyph d="M80 780H180V92H569V780H669V0H425V-160H325V0H80Z" glyph-name="afii10145" horiz-adv-x="764" unicode="&#1039;" /><glyph d="M162 88H430V530H525V0H342V-160H249V0H66V530H162Z" glyph-name="afii10193" horiz-adv-x="591" unicode="&#1119;" /><glyph d="M345 764Q433 764 486.5 719Q540 674 540 586V162H440V571Q440 672 339 672H180V0H80V764ZM260 0V592H360V92H519Q620 92 620 193V764H720V178Q720 90 666.5 45Q613 0 525 0Z" glyph-name="afii57636" horiz-adv-x="800" unicode="&#8362;" /><glyph d="M44 585Q44 685 93.5 738.5Q143 792 233 792Q280 792 312 782Q344 772 365 754.5Q386 737 397 713Q408 689 412 661L325 650Q318 680 298 697.5Q278 715 233 714Q184 713 157 680.5Q130 648 130 585Q130 522 157 489.5Q184 457 233 456Q278 455 298 472.5Q318 490 325 520L412 509Q408 481 397 457Q386 433 365 415.5Q344 398 312 388Q280 378 233 378Q143 378 93.5 431.5Q44 485 44 585ZM304 0H199L728 780H832ZM813 -12Q725 -12 673.5 40.5Q622 93 622 195Q622 297 673.5 349.5Q725 402 813 402Q901 402 952 349.5Q1003 297 1003 195Q1003 93 952 40.5Q901 -12 813 -12ZM813 324Q765 324 736.5 294Q708 264 708 195Q708 126 736.5 96Q765 66 813 66Q861 66 889 96Q917 126 917 195Q917 264 889 294Q861 324 813 324Z" glyph-name="afii61248" horiz-adv-x="1047" unicode="&#8453;" /><glyph d="M28 259Q37 265 46.5 272.5Q56 280 70 291V508Q70 642 104 711Q138 780 215 780Q248 780 270 767.5Q292 755 306 733Q320 711 326 682.5Q332 654 332 621Q332 566 316.5 513Q301 460 276.5 413.5Q252 367 222.5 328Q193 289 166 262V154Q166 111 179 95.5Q192 80 227 79Q250 79 266.5 83.5Q283 88 292 93L305 1Q294 -4 270.5 -7.5Q247 -11 227 -11Q156 -11 113 18Q70 47 70 111V189Q61 183 55.5 178.5Q50 174 45.5 171Q41 168 37 165Q33 162 28 159ZM166 391Q182 411 196.5 438Q211 465 222.5 496.5Q234 528 241 563Q248 598 248 634Q248 660 241.5 677Q235 694 216 694Q193 694 179.5 657Q166 620 166 534Z" glyph-name="afii61289" horiz-adv-x="359" unicode="&#8467;" /><glyph d="M1006 222Q948 222 902 239.5Q856 257 823.5 291.5Q791 326 773.5 378Q756 430 756 499Q756 568 773.5 620Q791 672 823.5 706.5Q856 741 902 758.5Q948 776 1006 776Q1122 776 1189 707Q1256 638 1256 499Q1256 360 1189 291Q1122 222 1006 222ZM260 448 178 576 181 391V0H81V764H172L457 316L539 188L536 373L535 764H636V0H545ZM1006 308Q1075 308 1117.5 353Q1160 398 1160 499Q1160 600 1117.5 645Q1075 690 1006 690Q937 690 894.5 645Q852 600 852 499Q852 398 894.5 353Q937 308 1006 308ZM1062 0H950V111H1062Z" glyph-name="afii61352" horiz-adv-x="1301" unicode="&#8470;" /><glyph d="M289 459Q226 460 199.5 436.5Q173 413 165 369L66 383Q72 418 85.5 447Q99 476 124.5 497Q150 518 190 530Q230 542 287 542Q396 542 456.5 494.5Q517 447 517 348V132L524 0H437L425 76Q397 33 345 10.5Q293 -12 234 -12Q135 -12 89.5 31Q44 74 44 145Q44 187 59 215.5Q74 244 101 262.5Q128 281 166 292Q204 303 250 310L422 335V355Q422 411 388 434Q354 457 289 459ZM144 148Q144 72 240 72Q276 71 307.5 82.5Q339 94 363 112.5Q387 131 402.5 154Q418 177 422 199V261L259 235Q207 227 175.5 209.5Q144 192 144 148ZM247 800 341 592H246L135 800Z" glyph-name="agrave" horiz-adv-x="581" unicode="&#224;" /><glyph d="M289 459Q226 460 199.5 436.5Q173 413 165 369L66 383Q72 418 85.5 447Q99 476 124.5 497Q150 518 190 530Q230 542 287 542Q396 542 456.5 494.5Q517 447 517 348V132L524 0H437L425 76Q397 33 345 10.5Q293 -12 234 -12Q135 -12 89.5 31Q44 74 44 145Q44 187 59 215.5Q74 244 101 262.5Q128 281 166 292Q204 303 250 310L422 335V355Q422 411 388 434Q354 457 289 459ZM144 148Q144 72 240 72Q276 71 307.5 82.5Q339 94 363 112.5Q387 131 402.5 154Q418 177 422 199V261L259 235Q207 227 175.5 209.5Q144 192 144 148ZM143 652V742H431V652Z" glyph-name="amacron" horiz-adv-x="581" unicode="&#257;" /><glyph d="M704 -11Q669 18 633.5 47Q598 76 563 106Q472 -12 300 -12Q252 -12 205 0Q158 12 121 39Q84 66 61 109Q38 152 38 215Q38 257 49 291Q60 325 79.5 352.5Q99 380 124.5 401Q150 422 178 436Q162 450 146 466.5Q130 483 116.5 504.5Q103 526 94.5 552.5Q86 579 86 613Q86 701 139.5 746.5Q193 792 294 792Q347 792 385.5 777Q424 762 449 737Q474 712 486 680Q498 648 498 614Q498 574 483 545Q468 516 444.5 493.5Q421 471 392 454Q363 437 334 421Q360 397 383.5 376.5Q407 356 431 335.5Q455 315 479.5 295Q504 275 532 253Q543 283 548 315Q553 347 554 380Q554 413 550.5 446Q547 479 539 509L637 518Q645 491 649 458.5Q653 426 653 394Q653 341 642 287.5Q631 234 610 190Q633 169 657 149Q681 129 704 108ZM400 614Q400 661 372.5 683Q345 705 294 705Q238 705 211 683.5Q184 662 184 614Q184 590 191.5 570.5Q199 551 210.5 535Q222 519 236.5 505.5Q251 492 265 480Q286 491 310 502.5Q334 514 354 529.5Q374 545 387 565.5Q400 586 400 614ZM487 168Q436 209 371.5 263.5Q307 318 241 375Q215 360 195.5 344Q176 328 163 309.5Q150 291 143.5 268Q137 245 137 215Q137 166 156 138Q175 110 201 96Q227 82 254.5 78Q282 74 300 74Q368 74 411.5 98.5Q455 123 487 168Z" glyph-name="ampersand" horiz-adv-x="736" unicode="&amp;" /><glyph d="M144 148Q144 72 240 72Q276 72 308 84Q340 96 364 114.5Q388 133 403 155.5Q418 178 422 199V261L259 235Q207 227 175.5 209.5Q144 192 144 148ZM423 87Q397 39 345 13.5Q293 -12 234 -12Q135 -12 89.5 31Q44 74 44 145Q44 187 59 215.5Q74 244 101 262.5Q128 281 166 292Q204 303 250 310L422 335V355Q422 411 388 434Q354 457 289 459Q226 460 199.5 436.5Q173 413 165 369L66 383Q72 418 85.5 447Q99 476 124.5 497Q150 518 190 530Q230 542 287 542Q396 542 456.5 494.5Q517 447 517 348V132L524 0Q473 -16 450.5 -43Q428 -70 428 -96Q428 -117 440.5 -128Q453 -139 474 -139Q496 -139 512.5 -134Q529 -129 543 -122L565 -187Q549 -197 523 -204.5Q497 -212 463 -212Q440 -212 419 -206.5Q398 -201 381.5 -188.5Q365 -176 355.5 -156.5Q346 -137 346 -108Q346 -72 368.5 -37.5Q391 -3 433 23Z" glyph-name="aogonek" horiz-adv-x="581" unicode="&#261;" /><glyph d="M486 487Q510 487 529.5 495.5Q549 504 563.5 514.5Q578 525 586 534Q594 543 594 544L638 466Q622 447 599 431Q579 417 550 406Q521 395 480 395Q436 395 403.5 406Q371 417 341.5 429.5Q312 442 282 453Q252 464 214 464Q190 464 170.5 455.5Q151 447 137 436.5Q123 426 114.5 417Q106 408 106 407L62 485Q78 505 101 521Q121 535 150.5 545.5Q180 556 220 556Q264 556 296.5 545Q329 534 358.5 521.5Q388 509 418 498Q448 487 486 487ZM486 318Q510 318 529.5 326.5Q549 335 563.5 345.5Q578 356 586 365Q594 374 594 375L638 297Q622 278 599 262Q579 248 550 237Q521 226 480 226Q436 226 403.5 237Q371 248 341.5 260.5Q312 273 282 284Q252 295 214 295Q190 295 170.5 286.5Q151 278 137 267.5Q123 257 114.5 248Q106 239 106 238L62 316Q78 336 101 352Q121 366 150.5 376.5Q180 387 220 387Q264 387 296.5 376Q329 365 358.5 352.5Q388 340 418 329Q448 318 486 318Z" glyph-name="approxequal" horiz-adv-x="700" unicode="&#8776;" /><glyph d="M289 459Q226 460 199.5 436.5Q173 413 165 369L66 383Q72 418 85.5 447Q99 476 124.5 497Q150 518 190 530Q230 542 287 542Q396 542 456.5 494.5Q517 447 517 348V132L524 0H437L425 76Q397 33 345 10.5Q293 -12 234 -12Q135 -12 89.5 31Q44 74 44 145Q44 187 59 215.5Q74 244 101 262.5Q128 281 166 292Q204 303 250 310L422 335V355Q422 411 388 434Q354 457 289 459ZM144 148Q144 72 240 72Q276 71 307.5 82.5Q339 94 363 112.5Q387 131 402.5 154Q418 177 422 199V261L259 235Q207 227 175.5 209.5Q144 192 144 148ZM171 696Q171 747 201.5 779.5Q232 812 287 812Q342 812 372.5 779.5Q403 747 403 696Q403 645 372.5 612.5Q342 580 287 580Q232 580 201.5 612.5Q171 645 171 696ZM334 696Q334 718 321.5 731Q309 744 287 744Q265 744 252.5 731Q240 718 240 696Q240 674 252.5 661Q265 648 287 648Q309 648 321.5 661Q334 674 334 696Z" glyph-name="aring" horiz-adv-x="581" unicode="&#229;" /><glyph d="M295 811Q346 809 374.5 776.5Q403 744 403 696Q403 645 372.5 612.5Q342 580 287 580Q231 580 201 612.5Q171 645 171 696Q171 713 175 727.5Q179 742 186 756L258 904H353ZM287 744Q264 744 252 731Q240 718 240 696Q240 674 252 661Q264 648 287 648Q309 648 321.5 661Q334 674 334 696Q334 718 321.5 731Q309 744 287 744ZM289 459Q226 460 199.5 436.5Q173 413 165 369L66 383Q72 418 85.5 447Q99 476 124.5 497Q150 518 190 530Q230 542 287 542Q396 542 456.5 494.5Q517 447 517 348V132L524 0H437L425 76Q397 33 345 10.5Q293 -12 234 -12Q135 -12 89.5 31Q44 74 44 145Q44 187 59 215.5Q74 244 101 262.5Q128 281 166 292Q204 303 250 310L422 335V355Q422 411 388 434Q354 457 289 459ZM144 148Q144 72 240 72Q276 71 307.5 82.5Q339 94 363 112.5Q387 131 402.5 154Q418 177 422 199V261L259 235Q207 227 175.5 209.5Q144 192 144 148Z" glyph-name="aringacute" horiz-adv-x="581" unicode="&#507;" /><glyph d="M401 -11 144 406H256L346 253L393 165L392 254V781H487V254L486 165L533 253L623 406H735L478 -11Z" glyph-name="arrowdown" horiz-adv-x="880" unicode="&#8595;" /><glyph d="M38 428 455 685V573L302 483L214 436L303 437H830V342H303L214 343L302 296L455 206V94L38 351Z" glyph-name="arrowleft" horiz-adv-x="880" unicode="&#8592;" /><glyph d="M842 351 425 94V206L578 296L666 343L577 342H50V437H577L666 436L578 483L425 573V685L842 428Z" glyph-name="arrowright" horiz-adv-x="880" unicode="&#8594;" /><glyph d="M478 792 735 375H623L533 528L486 616L487 527V0H392V527L393 616L346 528L256 375H144L401 792Z" glyph-name="arrowup" horiz-adv-x="880" unicode="&#8593;" /><glyph d="M253 691 203 581 120 400H18L204 792H302L488 400H386L303 581Z" glyph-name="asciicircum" horiz-adv-x="506" unicode="^" /><glyph d="M28 346Q40 366 58 381Q74 394 98 404.5Q122 415 157 415Q192 415 215.5 403.5Q239 392 257.5 377.5Q276 363 294.5 351.5Q313 340 338 340Q358 340 373 347Q388 354 398 362.5Q408 371 413 378Q418 385 418 385L457 323Q445 304 427 289Q411 276 387 265Q363 254 328 254Q292 254 268.5 265.5Q245 277 226.5 291.5Q208 306 190 317.5Q172 329 147 329Q127 329 111.5 321.5Q96 314 86 306Q75 296 67 284Z" glyph-name="asciitilde" horiz-adv-x="486" unicode="~" /><glyph d="M110 506 44 555 106 625 13 645 38 725 125 686 116 780H198L189 686L276 725L301 645L208 625L270 555L204 506L157 588Z" glyph-name="asterisk" horiz-adv-x="315" unicode="*" /><glyph d="M648 327Q646 349 635.5 371Q625 393 606 411Q587 429 561 440.5Q535 452 501 452Q471 452 445.5 444Q420 436 401.5 417.5Q383 399 372.5 369Q362 339 362 295Q362 251 372.5 221Q383 191 401.5 172.5Q420 154 445.5 146Q471 138 501 138Q535 138 561 149.5Q587 161 606 179Q625 197 635.5 219Q646 241 648 263ZM662 60 651 132Q633 97 589.5 73Q546 49 493 49Q448 49 407 63Q366 77 335 107Q304 137 285.5 183.5Q267 230 267 295Q267 360 285.5 406.5Q304 453 335 483Q366 513 407 527Q448 541 493 541Q546 541 589.5 517Q633 493 651 458L662 530H750L743 398V146Q792 146 823 163.5Q854 181 872 213.5Q890 246 897 290.5Q904 335 904 389Q904 455 883 514Q862 573 816 617.5Q770 662 698 688Q626 714 524 714Q430 714 358.5 684.5Q287 655 238.5 600.5Q190 546 165.5 468.5Q141 391 141 295Q141 199 166 121.5Q191 44 240.5 -10.5Q290 -65 363.5 -94.5Q437 -124 535 -124Q606 -124 657.5 -113.5Q709 -103 744 -86.5Q779 -70 798.5 -50Q818 -30 824 -10L926 -23Q919 -57 893.5 -90.5Q868 -124 820 -151Q772 -178 700.5 -194.5Q629 -211 529 -211Q414 -211 324.5 -176Q235 -141 173.5 -75.5Q112 -10 79.5 84Q47 178 47 295Q47 412 80 506Q113 600 174.5 665.5Q236 731 324.5 766Q413 801 524 801Q644 801 732.5 770Q821 739 879.5 684Q938 629 966.5 553.5Q995 478 995 389Q995 308 980.5 246.5Q966 185 933 143.5Q900 102 847 81Q794 60 717 60Z" glyph-name="at" horiz-adv-x="1043" unicode="@" /><glyph d="M289 459Q226 460 199.5 436.5Q173 413 165 369L66 383Q72 418 85.5 447Q99 476 124.5 497Q150 518 190 530Q230 542 287 542Q396 542 456.5 494.5Q517 447 517 348V132L524 0H437L425 76Q397 33 345 10.5Q293 -12 234 -12Q135 -12 89.5 31Q44 74 44 145Q44 187 59 215.5Q74 244 101 262.5Q128 281 166 292Q204 303 250 310L422 335V355Q422 411 388 434Q354 457 289 459ZM144 148Q144 72 240 72Q276 71 307.5 82.5Q339 94 363 112.5Q387 131 402.5 154Q418 177 422 199V261L259 235Q207 227 175.5 209.5Q144 192 144 148ZM196 696Q169 696 158 678.5Q147 661 144 642L68 653Q76 710 106.5 744Q137 778 201 778Q234 778 256.5 765.5Q279 753 297 738Q315 723 331 710.5Q347 698 366 698Q393 698 404 715.5Q415 733 418 752L494 741Q486 684 455.5 650Q425 616 361 616Q328 616 305.5 628.5Q283 641 265 656Q247 671 231 683.5Q215 696 196 696Z" glyph-name="atilde" horiz-adv-x="581" unicode="&#227;" /><glyph d="M328 542Q444 542 505.5 470.5Q567 399 567 265Q567 131 505.5 59.5Q444 -12 328 -12Q273 -12 227.5 11.5Q182 35 157 76L145 0H58L65 132V800H160V459Q186 497 230 519.5Q274 542 328 542ZM160 202Q163 180 175.5 158Q188 136 208 118Q228 100 256.5 88.5Q285 77 319 77Q388 77 428 124.5Q468 172 468 265Q468 357 428 405Q388 453 319 453Q285 453 256.5 441.5Q228 430 208 412Q188 394 175.5 371.5Q163 349 160 328Z" glyph-name="b" horiz-adv-x="611" unicode="b" /><glyph d="M10 870H110L340 -90H240Z" glyph-name="backslash" horiz-adv-x="350" unicode="\" /><glyph d="M193 -130H93V830H193Z" glyph-name="bar" horiz-adv-x="286" unicode="|" /><glyph d="M290 -38V-130H265Q212 -130 179.5 -115Q147 -100 129 -76Q111 -52 104.5 -22Q98 8 98 36V221Q98 247 93.5 263.5Q89 280 80.5 289.5Q72 299 59 302.5Q46 306 29 306H8V394H29Q63 394 80.5 410.5Q98 427 98 479V664Q98 693 104.5 722.5Q111 752 129 776Q147 800 179.5 815Q212 830 265 830H290V738H270Q253 738 239 734.5Q225 731 215 721.5Q205 712 199.5 695.5Q194 679 194 653V469Q194 435 182.5 402.5Q171 370 141 350Q171 329 182.5 297Q194 265 194 231V47Q194 21 199.5 4.5Q205 -12 215 -21.5Q225 -31 239 -34.5Q253 -38 270 -38Z" glyph-name="braceleft" horiz-adv-x="301" unicode="{" /><glyph d="M11 738V830H36Q89 830 122 815Q155 800 173 776Q191 752 197.5 722.5Q204 693 204 664V479Q204 427 221.5 410.5Q239 394 273 394H293V306H273Q256 306 243 302.5Q230 299 221.5 289.5Q213 280 208.5 263.5Q204 247 204 221V36Q204 8 197.5 -22Q191 -52 173 -76Q155 -100 122 -115Q89 -130 36 -130H11V-38H32Q49 -38 63 -34.5Q77 -31 87 -21.5Q97 -12 102.5 4.5Q108 21 108 47V231Q108 265 119.5 297.5Q131 330 161 350Q131 371 119.5 403Q108 435 108 469V653Q108 679 102.5 695.5Q97 712 87 721.5Q77 731 63 734.5Q49 738 32 738Z" glyph-name="braceright" horiz-adv-x="301" unicode="}" /><glyph d="M190 738V-38H248V-130H90V830H248V738Z" glyph-name="bracketleft" horiz-adv-x="263" unicode="[" /><glyph d="M73 -38V738H15V830H173V-130H15V-38Z" glyph-name="bracketright" horiz-adv-x="263" unicode="]" /><glyph d="M300 595Q247 595 211 609Q175 623 153 649Q131 675 122 713Q113 751 113 800H191Q190 733 216 706Q242 679 300 679Q358 679 384 706Q410 733 409 800H487Q487 751 478 713Q469 675 447 649Q425 623 389 609Q353 595 300 595Z" glyph-name="breve" horiz-adv-x="600" unicode="&#728;" /><glyph d="M193 -130H93V310H193ZM193 390H93V830H193Z" glyph-name="brokenbar" horiz-adv-x="286" unicode="&#166;" /><glyph d="M335 196H56V474H335Z" glyph-name="bullet" horiz-adv-x="391" unicode="&#8226;" /><glyph d="M138 265Q138 172 179.5 123.5Q221 75 292 73Q354 72 384 96.5Q414 121 423 164L522 152Q516 116 501.5 86Q487 56 460 34.5Q433 13 392 0.5Q351 -12 292 -12Q174 -12 109 59.5Q44 131 44 265Q44 399 109 470.5Q174 542 292 542Q351 542 392 529.5Q433 517 460 495.5Q487 474 501.5 444Q516 414 522 378L423 366Q414 409 384 433.5Q354 458 292 457Q221 455 179.5 406.5Q138 358 138 265Z" glyph-name="c" horiz-adv-x="562" unicode="c" /><glyph d="M451 800 340 592H245L339 800ZM138 265Q138 172 179.5 123.5Q221 75 292 73Q354 72 384 96.5Q414 121 423 164L522 152Q516 116 501.5 86Q487 56 460 34.5Q433 13 392 0.5Q351 -12 292 -12Q174 -12 109 59.5Q44 131 44 265Q44 399 109 470.5Q174 542 292 542Q351 542 392 529.5Q433 517 460 495.5Q487 474 501.5 444Q516 414 522 378L423 366Q414 409 384 433.5Q354 458 292 457Q221 455 179.5 406.5Q138 358 138 265Z" glyph-name="cacute" horiz-adv-x="562" unicode="&#263;" /><glyph d="M254 592 102 800H199L300 673L401 800H498L346 592Z" glyph-name="caron" horiz-adv-x="600" unicode="&#711;" /><glyph d="M246 592 94 800H191L292 673L393 800H490L338 592ZM138 265Q138 172 179.5 123.5Q221 75 292 73Q354 72 384 96.5Q414 121 423 164L522 152Q516 116 501.5 86Q487 56 460 34.5Q433 13 392 0.5Q351 -12 292 -12Q174 -12 109 59.5Q44 131 44 265Q44 399 109 470.5Q174 542 292 542Q351 542 392 529.5Q433 517 460 495.5Q487 474 501.5 444Q516 414 522 378L423 366Q414 409 384 433.5Q354 458 292 457Q221 455 179.5 406.5Q138 358 138 265Z" glyph-name="ccaron" horiz-adv-x="562" unicode="&#269;" /><glyph d="M138 265Q138 172 179.5 123.5Q221 75 292 73Q354 72 384 96.5Q414 121 423 164L522 152Q517 119 504 90.5Q491 62 468 40.5Q445 19 410 5.5Q375 -8 325 -11L318 -35Q353 -43 380 -64.5Q407 -86 407 -126Q407 -149 397.5 -165Q388 -181 371.5 -191.5Q355 -202 332.5 -207Q310 -212 285 -212Q253 -212 228.5 -205.5Q204 -199 193 -194L210 -141Q218 -144 227 -148Q235 -151 244.5 -153Q254 -155 265 -155Q273 -155 283 -154Q293 -153 301.5 -149.5Q310 -146 315.5 -140Q321 -134 321 -125Q321 -102 295.5 -91Q270 -80 234 -76L256 -10Q155 1 99.5 71.5Q44 142 44 265Q44 399 109 470.5Q174 542 292 542Q351 542 392 529.5Q433 517 460 495.5Q487 474 501.5 444Q516 414 522 378L423 366Q414 409 384 433.5Q354 458 292 457Q221 455 179.5 406.5Q138 358 138 265Z" glyph-name="ccedilla" horiz-adv-x="562" unicode="&#231;" /><glyph d="M338 800 490 592H393L292 719L191 592H94L246 800ZM138 265Q138 172 179.5 123.5Q221 75 292 73Q354 72 384 96.5Q414 121 423 164L522 152Q516 116 501.5 86Q487 56 460 34.5Q433 13 392 0.5Q351 -12 292 -12Q174 -12 109 59.5Q44 131 44 265Q44 399 109 470.5Q174 542 292 542Q351 542 392 529.5Q433 517 460 495.5Q487 474 501.5 444Q516 414 522 378L423 366Q414 409 384 433.5Q354 458 292 457Q221 455 179.5 406.5Q138 358 138 265Z" glyph-name="ccircumflex" horiz-adv-x="562" unicode="&#265;" /><glyph d="M348 639H236V750H348ZM138 265Q138 172 179.5 123.5Q221 75 292 73Q354 72 384 96.5Q414 121 423 164L522 152Q516 116 501.5 86Q487 56 460 34.5Q433 13 392 0.5Q351 -12 292 -12Q174 -12 109 59.5Q44 131 44 265Q44 399 109 470.5Q174 542 292 542Q351 542 392 529.5Q433 517 460 495.5Q487 474 501.5 444Q516 414 522 378L423 366Q414 409 384 433.5Q354 458 292 457Q221 455 179.5 406.5Q138 358 138 265Z" glyph-name="cdotaccent" horiz-adv-x="562" unicode="&#267;" /><glyph d="M336 11 323 -35Q358 -43 385 -64.5Q412 -86 412 -126Q412 -149 402.5 -165Q393 -181 376.5 -191.5Q360 -202 337.5 -207Q315 -212 290 -212Q258 -212 233.5 -205.5Q209 -199 198 -194L215 -141Q223 -144 232 -148Q240 -151 249.5 -153Q259 -155 270 -155Q278 -155 288 -154Q298 -153 306.5 -149.5Q315 -146 320.5 -140Q326 -134 326 -125Q326 -102 300.5 -91Q275 -80 239 -76L269 11Z" glyph-name="cedilla" horiz-adv-x="600" unicode="&#184;" /><glyph d="M186 125Q120 154 84.5 218.5Q49 283 49 381Q49 515 114 586.5Q179 658 297 658Q302 658 307 658Q312 658 317 657L344 764H433L403 643Q463 624 491 585Q519 546 527 494L428 482Q423 505 412 524Q401 543 381 554L291 189H297Q359 188 389 212.5Q419 237 428 280L527 268Q521 232 506.5 202Q492 172 465 150.5Q438 129 397 116.5Q356 104 297 104Q290 104 283.5 104Q277 104 270 105L244 0H155ZM143 381Q143 322 160 281Q177 240 208 217L296 573Q226 571 184.5 522.5Q143 474 143 381Z" glyph-name="cent" horiz-adv-x="572" unicode="&#162;" /><glyph d="M346 800 498 592H401L300 719L199 592H102L254 800Z" glyph-name="circumflex" horiz-adv-x="600" unicode="&#710;" /><glyph d="M349 0Q368 38 381.5 73.5Q395 109 404.5 147Q414 185 420.5 227Q427 269 431 320L428 321Q415 290 396 261Q377 232 352 209.5Q327 187 296 173.5Q265 160 228 160Q191 160 159 173.5Q127 187 103 210.5Q79 234 65.5 265.5Q52 297 52 334Q52 373 64.5 406Q77 439 100 463Q123 487 155 500.5Q187 514 226 514Q252 514 272.5 507Q293 500 310 491L312 493Q295 518 284.5 547.5Q274 577 274 610Q274 647 287.5 680Q301 713 324.5 737.5Q348 762 380 776Q412 790 450 790Q488 790 520 776Q552 762 575.5 737.5Q599 713 612.5 680Q626 647 626 610Q626 577 615.5 547.5Q605 518 588 493L590 491Q607 500 627.5 507Q648 514 674 514Q713 514 745 500.5Q777 487 800 463Q823 439 835.5 406Q848 373 848 334Q848 297 834.5 265.5Q821 234 797 210.5Q773 187 741 173.5Q709 160 672 160Q635 160 604 173.5Q573 187 548 209.5Q523 232 504 261Q485 290 472 321L469 320Q473 269 479.5 227Q486 185 495.5 147Q505 109 518.5 73.5Q532 38 551 0H349Z" glyph-name="club" horiz-adv-x="900" unicode="&#9827;" /><glyph d="M176 0H64V111H176ZM176 354H64V465H176Z" glyph-name="colon" horiz-adv-x="240" unicode=":" /><glyph d="M595 810 564 731Q609 702 632.5 657.5Q656 613 664 557L562 546Q553 606 526 637L310 89Q341 79 385 79Q429 79 460 87Q491 95 512 112Q533 129 544.5 155.5Q556 182 562 218L664 207Q658 159 639 118.5Q620 78 586.5 49Q553 20 503.5 4Q454 -12 385 -12Q326 -12 276 2L257 -46H182L212 29Q196 38 184 48L147 -46H72L131 104Q95 155 77.5 224.5Q60 294 60 382Q60 474 79.5 547Q99 620 139 671Q179 722 240 749Q301 776 385 776H396L410 810H485L468 768Q476 766 484 764.5Q492 763 500 761L520 810ZM163 382Q163 340 167 302Q171 264 181 230L360 684Q302 679 263.5 653.5Q225 628 203 587.5Q181 547 172 494Q163 441 163 382ZM223 146Q234 132 248 121L466 675Q458 677 450.5 678.5Q443 680 434 682L223 146Z" glyph-name="colonmonetary" horiz-adv-x="716" unicode="&#8353;" /><glyph d="M179 111 93 -149H32L64 111Z" glyph-name="comma" horiz-adv-x="240" unicode="," /><glyph d="M48 390Q48 473 79.5 546.5Q111 620 165.5 674.5Q220 729 293.5 760.5Q367 792 450 792Q533 792 606.5 760.5Q680 729 734.5 674.5Q789 620 820.5 546.5Q852 473 852 390Q852 307 820.5 233.5Q789 160 734.5 105.5Q680 51 606.5 19.5Q533 -12 450 -12Q367 -12 293.5 19.5Q220 51 165.5 105.5Q111 160 79.5 233.5Q48 307 48 390ZM207 390Q207 513 271 579.5Q335 646 450 646Q507 646 546.5 633Q586 620 612.5 597.5Q639 575 654 544Q669 513 676 477L576 464Q566 508 538 532.5Q510 557 449 555Q381 553 343 512.5Q305 472 305 390Q305 308 343 267.5Q381 227 449 225Q510 223 538 247.5Q566 272 576 316L676 303Q669 267 654 236Q639 205 612.5 182.5Q586 160 546.5 147Q507 134 450 134Q335 134 271 200.5Q207 267 207 390ZM139 390Q139 326 163.5 269Q188 212 230 170Q272 128 329 103.5Q386 79 450 79Q515 79 571.5 103.5Q628 128 670 170Q712 212 736.5 269Q761 326 761 390Q761 455 736.5 511.5Q712 568 670 610Q628 652 571.5 676.5Q515 701 450 701Q386 701 329 676.5Q272 652 230 610Q188 568 163.5 511.5Q139 455 139 390Z" glyph-name="copyright" horiz-adv-x="900" unicode="&#169;" /><glyph d="M82 382Q82 439 94 483Q106 527 129 561L24 666L91 734L198 627Q233 652 278 664Q323 676 373 676Q423 676 468 664Q513 652 548 627L655 734L722 666L617 561Q640 527 652 483Q664 439 664 382Q664 325 652 281Q640 237 617 203L722 98L655 30L548 137Q513 112 468 100Q423 88 373 88Q323 88 278 100Q233 112 198 137L91 30L24 98L129 203Q106 237 94 281Q82 325 82 382ZM566 382Q566 439 550 478Q534 517 507.5 541Q481 565 446 575.5Q411 586 373 586Q335 586 300 575.5Q265 565 238.5 541Q212 517 196 478Q180 439 180 382Q180 325 196 286Q212 247 238.5 223Q265 199 300 188.5Q335 178 373 178Q411 178 446 188.5Q481 199 507.5 223Q534 247 550 286Q566 325 566 382Z" glyph-name="currency" horiz-adv-x="746" unicode="&#164;" /><glyph d="M283 542Q337 542 381 519.5Q425 497 451 459V800H546V132L553 0H466L454 76Q429 35 383.5 11.5Q338 -12 283 -12Q167 -12 105.5 59.5Q44 131 44 265Q44 399 105.5 470.5Q167 542 283 542ZM451 328Q448 349 435.5 371.5Q423 394 403 412Q383 430 355 441.5Q327 453 292 453Q223 453 183 405Q143 357 143 265Q143 172 183 124.5Q223 77 292 77Q327 77 355 88.5Q383 100 403 118Q423 136 435.5 158Q448 180 451 202Z" glyph-name="d" horiz-adv-x="611" unicode="d" /><glyph d="M197 780 185 662 304 673V590L185 602L198 390H112L125 602L6 590V673L125 662L113 780Z" glyph-name="dagger" horiz-adv-x="310" unicode="&#8224;" /><glyph d="M197 780 185 662 304 673V590L185 602L190 551L185 501L304 512V429L185 441L198 229H112L125 441L6 429V512L125 501L120 551L125 602L6 590V673L125 662L113 780Z" glyph-name="daggerdbl" horiz-adv-x="310" unicode="&#8225;" /><glyph d="M283 542Q337 542 381 519.5Q425 497 451 459V800H546V132L553 0H466L454 76Q429 35 383.5 11.5Q338 -12 283 -12Q167 -12 105.5 59.5Q44 131 44 265Q44 399 105.5 470.5Q167 542 283 542ZM451 328Q448 349 435.5 371.5Q423 394 403 412Q383 430 355 441.5Q327 453 292 453Q223 453 183 405Q143 357 143 265Q143 172 183 124.5Q223 77 292 77Q327 77 355 88.5Q383 100 403 118Q423 136 435.5 158Q448 180 451 202ZM745 800 676 592H590L637 800Z" glyph-name="dcaron" horiz-adv-x="611" unicode="&#271;" /><glyph d="M283 542Q337 542 381 519.5Q425 497 451 459V619H315V697H451V800H546V697H649V619H546V132L553 0H466L454 76Q429 35 383.5 11.5Q338 -12 283 -12Q167 -12 105.5 59.5Q44 131 44 265Q44 399 105.5 470.5Q167 542 283 542ZM451 328Q448 349 435.5 371.5Q423 394 403 412Q383 430 355 441.5Q327 453 292 453Q223 453 183 405Q143 357 143 265Q143 172 183 124.5Q223 77 292 77Q327 77 355 88.5Q383 100 403 118Q423 136 435.5 158Q448 180 451 202Z" glyph-name="dcroat" horiz-adv-x="631" unicode="&#273;" /><glyph d="M239 489Q290 489 319 514.5Q348 540 348 594Q348 648 319 673.5Q290 699 239 699Q189 699 159.5 673.5Q130 648 130 594Q130 540 159.5 514.5Q189 489 239 489ZM239 412Q198 412 163 423Q128 434 102.5 456.5Q77 479 62.5 513.5Q48 548 48 594Q48 640 62.5 674.5Q77 709 102.5 731.5Q128 754 163 765Q198 776 239 776Q280 776 315 765Q350 754 375.5 731.5Q401 709 415.5 674.5Q430 640 430 594Q430 548 415.5 513.5Q401 479 375.5 456.5Q350 434 315 423Q280 412 239 412Z" glyph-name="degree" horiz-adv-x="478" unicode="&#176;" /><glyph d="M817 390Q764 348 712.5 300.5Q661 253 614 201.5Q567 150 525.5 96.5Q484 43 451 -10H449Q416 43 374.5 96.5Q333 150 286 201.5Q239 253 187.5 300.5Q136 348 83 390Q136 432 187.5 479.5Q239 527 286 578.5Q333 630 374.5 683.5Q416 737 449 790H451Q484 737 525.5 683.5Q567 630 614 578.5Q661 527 712.5 479.5Q764 432 817 390Z" glyph-name="diamond" horiz-adv-x="900" unicode="&#9830;" /><glyph d="M256 639H144V750H256ZM456 639H344V750H456Z" glyph-name="dieresis" horiz-adv-x="600" unicode="&#168;" /><glyph d="M80 343V437H620V343ZM407 120H293V235H407ZM407 545H293V660H407Z" glyph-name="divide" horiz-adv-x="700" unicode="&#247;" /><glyph d="M157 114Q117 123 90 136Q63 149 46 162L69 249Q89 237 115.5 223.5Q142 210 178 202L216 356Q188 361 159.5 368.5Q131 376 108.5 391.5Q86 407 72 431.5Q58 456 58 493Q58 539 79 570.5Q100 602 133 621.5Q166 641 207.5 649.5Q249 658 291 658L317 764H406L378 650Q423 642 454 628Q485 614 506 600L484 513Q460 528 430 541.5Q400 555 356 563L322 424Q354 420 386 412Q418 404 443.5 388Q469 372 485 345.5Q501 319 501 276Q501 224 478 190.5Q455 157 418.5 137.5Q382 118 336 110.5Q290 103 245 103L218 0H129ZM401 271Q401 306 379 320Q357 334 302 343L265 192H266Q293 192 317.5 197.5Q342 203 360.5 213.5Q379 224 390 238.5Q401 253 401 271ZM160 497Q160 469 176 457Q192 445 236 437L269 570H268Q247 570 227.5 565Q208 560 193 550Q178 540 169 527Q160 514 160 497Z" glyph-name="dollar" horiz-adv-x="553" unicode="$" /><glyph d="M356 639H244V750H356Z" glyph-name="dotaccent" horiz-adv-x="600" unicode="&#729;" /><glyph d="M356 -173H244V-62H356Z" glyph-name="dotbelowcomb" horiz-adv-x="600" unicode="&#803;" /><glyph d="M81 530H177V0H81Z" glyph-name="dotlessi" horiz-adv-x="258" unicode="&#305;" /><glyph d="M144 226Q149 145 190.5 108.5Q232 72 298 72Q363 71 392.5 94Q422 117 430 156L530 144Q526 113 510.5 84.5Q495 56 467.5 34.5Q440 13 398 0.5Q356 -12 299 -12Q240 -12 192.5 5.5Q145 23 112 57.5Q79 92 61.5 144Q44 196 44 265Q44 403 112 472.5Q180 542 296 542Q417 542 475.5 470.5Q534 399 534 266V226ZM297 459Q232 459 191 422.5Q150 386 145 307H431Q429 381 396 420.5Q363 460 297 459Z" glyph-name="e" horiz-adv-x="582" unicode="e" /><glyph d="M144 226Q149 145 190.5 108.5Q232 72 298 72Q363 71 392.5 94Q422 117 430 156L530 144Q526 113 510.5 84.5Q495 56 467.5 34.5Q440 13 398 0.5Q356 -12 299 -12Q240 -12 192.5 5.5Q145 23 112 57.5Q79 92 61.5 144Q44 196 44 265Q44 403 112 472.5Q180 542 296 542Q417 542 475.5 470.5Q534 399 534 266V226ZM297 459Q232 459 191 422.5Q150 386 145 307H431Q429 381 396 420.5Q363 460 297 459ZM455 800 344 592H249L343 800Z" glyph-name="eacute" horiz-adv-x="582" unicode="&#233;" /><glyph d="M144 226Q149 145 190.5 108.5Q232 72 298 72Q363 71 392.5 94Q422 117 430 156L530 144Q526 113 510.5 84.5Q495 56 467.5 34.5Q440 13 398 0.5Q356 -12 299 -12Q240 -12 192.5 5.5Q145 23 112 57.5Q79 92 61.5 144Q44 196 44 265Q44 403 112 472.5Q180 542 296 542Q417 542 475.5 470.5Q534 399 534 266V226ZM297 459Q232 459 191 422.5Q150 386 145 307H431Q429 381 396 420.5Q363 460 297 459ZM296 595Q243 595 207 609Q171 623 149 649Q127 675 118 713Q109 751 109 800H187Q186 733 212 706Q238 679 296 679Q354 679 380 706Q406 733 405 800H483Q483 751 474 713Q465 675 443 649Q421 623 385 609Q349 595 296 595Z" glyph-name="ebreve" horiz-adv-x="582" unicode="&#277;" /><glyph d="M144 226Q149 145 190.5 108.5Q232 72 298 72Q363 71 392.5 94Q422 117 430 156L530 144Q526 113 510.5 84.5Q495 56 467.5 34.5Q440 13 398 0.5Q356 -12 299 -12Q240 -12 192.5 5.5Q145 23 112 57.5Q79 92 61.5 144Q44 196 44 265Q44 403 112 472.5Q180 542 296 542Q417 542 475.5 470.5Q534 399 534 266V226ZM297 459Q232 459 191 422.5Q150 386 145 307H431Q429 381 396 420.5Q363 460 297 459ZM250 592 98 800H195L296 673L397 800H494L342 592Z" glyph-name="ecaron" horiz-adv-x="582" unicode="&#283;" /><glyph d="M144 226Q149 145 190.5 108.5Q232 72 298 72Q363 71 392.5 94Q422 117 430 156L530 144Q526 113 510.5 84.5Q495 56 467.5 34.5Q440 13 398 0.5Q356 -12 299 -12Q240 -12 192.5 5.5Q145 23 112 57.5Q79 92 61.5 144Q44 196 44 265Q44 403 112 472.5Q180 542 296 542Q417 542 475.5 470.5Q534 399 534 266V226ZM297 459Q232 459 191 422.5Q150 386 145 307H431Q429 381 396 420.5Q363 460 297 459ZM342 800 494 592H397L296 719L195 592H98L250 800Z" glyph-name="ecircumflex" horiz-adv-x="582" unicode="&#234;" /><glyph d="M144 226Q149 145 190.5 108.5Q232 72 298 72Q363 71 392.5 94Q422 117 430 156L530 144Q526 113 510.5 84.5Q495 56 467.5 34.5Q440 13 398 0.5Q356 -12 299 -12Q240 -12 192.5 5.5Q145 23 112 57.5Q79 92 61.5 144Q44 196 44 265Q44 403 112 472.5Q180 542 296 542Q417 542 475.5 470.5Q534 399 534 266V226ZM297 459Q232 459 191 422.5Q150 386 145 307H431Q429 381 396 420.5Q363 460 297 459ZM252 639H140V750H252ZM452 639H340V750H452Z" glyph-name="edieresis" horiz-adv-x="582" unicode="&#235;" /><glyph d="M144 226Q149 145 190.5 108.5Q232 72 298 72Q363 71 392.5 94Q422 117 430 156L530 144Q526 113 510.5 84.5Q495 56 467.5 34.5Q440 13 398 0.5Q356 -12 299 -12Q240 -12 192.5 5.5Q145 23 112 57.5Q79 92 61.5 144Q44 196 44 265Q44 403 112 472.5Q180 542 296 542Q417 542 475.5 470.5Q534 399 534 266V226ZM297 459Q232 459 191 422.5Q150 386 145 307H431Q429 381 396 420.5Q363 460 297 459ZM352 639H240V750H352Z" glyph-name="edotaccent" horiz-adv-x="582" unicode="&#279;" /><glyph d="M144 226Q149 145 190.5 108.5Q232 72 298 72Q363 71 392.5 94Q422 117 430 156L530 144Q526 113 510.5 84.5Q495 56 467.5 34.5Q440 13 398 0.5Q356 -12 299 -12Q240 -12 192.5 5.5Q145 23 112 57.5Q79 92 61.5 144Q44 196 44 265Q44 403 112 472.5Q180 542 296 542Q417 542 475.5 470.5Q534 399 534 266V226ZM297 459Q232 459 191 422.5Q150 386 145 307H431Q429 381 396 420.5Q363 460 297 459ZM256 800 350 592H255L144 800Z" glyph-name="egrave" horiz-adv-x="582" unicode="&#232;" /><glyph d="M350 685Q315 685 284 679.5Q253 674 229.5 660Q206 646 192.5 622.5Q179 599 179 563Q179 521 193.5 495.5Q208 470 232 456.5Q256 443 286.5 438.5Q317 434 350 434Q383 434 413.5 438.5Q444 443 468 456.5Q492 470 506.5 495.5Q521 521 521 563Q521 599 507.5 622.5Q494 646 470.5 660Q447 674 416 679.5Q385 685 350 685ZM350 350Q317 350 282.5 344.5Q248 339 220 323.5Q192 308 174.5 280Q157 252 157 207Q157 137 209.5 107Q262 77 350 77Q438 77 490.5 107Q543 137 543 207Q543 252 525.5 280Q508 308 480 323.5Q452 339 417.5 344.5Q383 350 350 350ZM350 -12Q202 -12 130.5 44Q59 100 59 201Q59 247 71.5 280.5Q84 314 104 337.5Q124 361 149.5 374.5Q175 388 201 394Q176 400 154 414.5Q132 429 115.5 451Q99 473 89.5 502.5Q80 532 80 568Q80 625 102 665Q124 705 161.5 729.5Q199 754 248 765Q297 776 350 776Q403 776 452 765Q501 754 538.5 729.5Q576 705 598 665Q620 625 620 568Q620 532 610.5 502.5Q601 473 584.5 451Q568 429 546 414.5Q524 400 499 394Q525 388 550.5 374.5Q576 361 596 337.5Q616 314 628.5 280.5Q641 247 641 201Q641 100 569.5 44Q498 -12 350 -12Z" glyph-name="eight" horiz-adv-x="700" unicode="8" /><glyph d="M236 0H124V111H236ZM566 0H454V111H566ZM896 0H784V111H896Z" glyph-name="ellipsis" horiz-adv-x="1020" unicode="&#8230;" /><glyph d="M144 226Q149 145 190.5 108.5Q232 72 298 72Q363 71 392.5 94Q422 117 430 156L530 144Q526 113 510.5 84.5Q495 56 467.5 34.5Q440 13 398 0.5Q356 -12 299 -12Q240 -12 192.5 5.5Q145 23 112 57.5Q79 92 61.5 144Q44 196 44 265Q44 403 112 472.5Q180 542 296 542Q417 542 475.5 470.5Q534 399 534 266V226ZM297 459Q232 459 191 422.5Q150 386 145 307H431Q429 381 396 420.5Q363 460 297 459ZM152 652V742H440V652Z" glyph-name="emacron" horiz-adv-x="582" unicode="&#275;" /><glyph d="M950 290H50V380H950Z" glyph-name="emdash" horiz-adv-x="1000" unicode="&#8212;" /><glyph d="M50 290V380H450V290Z" glyph-name="endash" horiz-adv-x="500" unicode="&#8211;" /><glyph d="M436 346Q436 399 402.5 426Q369 453 314 453Q281 453 254 441Q227 429 207 411Q187 393 175 371Q163 349 160 328V0H65V399L58 530H145L157 455Q183 494 228 518Q273 542 328 542Q372 542 409.5 530.5Q447 519 474 496Q501 473 516.5 440Q532 407 532 363V-7Q532 -47 524.5 -84Q517 -121 496 -149.5Q475 -178 437.5 -195Q400 -212 339 -212Q318 -212 298.5 -208.5Q279 -205 267 -200L277 -111Q284 -115 300.5 -120Q317 -125 337 -124Q363 -124 381.5 -119Q400 -114 412 -100.5Q424 -87 430 -63Q436 -39 436 -1Z" glyph-name="eng" horiz-adv-x="587" unicode="&#331;" /><glyph d="M144 226Q149 145 190.5 108.5Q232 72 298 72Q363 71 392.5 94Q422 117 430 156L530 144Q523 96 491.5 57Q460 18 397 0Q376 -6 358.5 -17.5Q341 -29 328.5 -42.5Q316 -56 309.5 -71Q303 -86 303 -99Q303 -117 313.5 -128Q324 -139 349 -139Q360 -139 372 -136.5Q384 -134 394.5 -130.5Q405 -127 411.5 -124Q418 -121 418 -120L440 -187Q424 -197 398 -204.5Q372 -212 338 -212Q315 -212 294 -206.5Q273 -201 256.5 -188.5Q240 -176 230.5 -156.5Q221 -137 221 -108Q221 -81 233 -56.5Q245 -32 267 -11Q162 -2 103 66.5Q44 135 44 265Q44 403 112 472.5Q180 542 296 542Q417 542 475.5 470.5Q534 399 534 266V226ZM297 459Q232 459 191 422.5Q150 386 145 307H431Q429 381 396 420.5Q363 460 297 459Z" glyph-name="eogonek" horiz-adv-x="582" unicode="&#281;" /><glyph d="M80 438V532H620V438ZM80 248V342H620V248Z" glyph-name="equal" horiz-adv-x="700" unicode="=" /><glyph d="M80 437H620V343H80ZM80 214H620V120H80ZM80 660H620V566H80Z" glyph-name="equivalence" horiz-adv-x="700" unicode="&#8801;" /><glyph d="M152 349Q155 290 168 238.5Q181 187 209.5 148.5Q238 110 284 87.5Q330 65 398 65Q521 65 591.5 113.5Q662 162 681 263H773Q763 191 731.5 139.5Q700 88 651.5 54Q603 20 539 4Q475 -12 398 -12Q312 -12 240 16Q168 44 116.5 96.5Q65 149 36.5 223Q8 297 8 388Q8 480 36.5 553.5Q65 627 116.5 679Q168 731 240 759Q312 787 398 787Q484 787 556 759Q628 731 679.5 679Q731 627 759.5 553.5Q788 480 788 388V349ZM398 711Q330 711 284 688.5Q238 666 209.5 627.5Q181 589 168 537Q155 485 152 426H643Q640 485 627 537Q614 589 585.5 627.5Q557 666 511.5 688.5Q466 711 398 711Z" glyph-name="estimated" horiz-adv-x="795" unicode="&#8494;" /><glyph d="M407 686Q434 656 459 616.5Q484 577 503 525.5Q522 474 533 409.5Q544 345 544 265Q544 126 477 57Q410 -12 294 -12Q236 -12 190 5.5Q144 23 111.5 57.5Q79 92 61.5 144Q44 196 44 265Q44 334 61.5 386Q79 438 111 472.5Q143 507 189 524.5Q235 542 293 542Q326 542 357.5 532Q389 522 412 505Q397 553 373.5 589Q350 625 321 654L152 591V660L267 703Q222 738 175 760.5Q128 783 88 800H253Q276 789 302 773.5Q328 758 356 736L484 784V715ZM294 454Q224 454 183 410Q142 366 142 265Q142 163 183 119Q224 75 294 75Q364 75 406 119Q448 163 448 265Q448 366 406 410Q364 454 294 454Z" glyph-name="eth" horiz-adv-x="589" unicode="&#240;" /><glyph d="M188 0H76V111H188ZM194 780 165 205H100L70 780Z" glyph-name="exclam" horiz-adv-x="264" unicode="!" /><glyph d="M188 0H76V111H188ZM194 780 165 205H100L70 780ZM392 0H280V111H392ZM398 780 369 205H304L274 780Z" glyph-name="exclamdbl" horiz-adv-x="468" unicode="&#8252;" /><glyph d="M188 419H76V530H188ZM72 -200 100 323H165L192 -200Z" glyph-name="exclamdown" horiz-adv-x="264" unicode="&#161;" /><glyph d="M30 530H137V607Q137 646 144.5 683Q152 720 173 748.5Q194 777 231.5 794.5Q269 812 330 812Q351 812 370.5 808.5Q390 805 402 800L393 711Q385 715 368.5 720Q352 725 332 724Q307 724 288 718.5Q269 713 256.5 699.5Q244 686 238 662.5Q232 639 232 601V530H383V449H232V0H137V449H30Z" glyph-name="f" horiz-adv-x="408" unicode="f" /><glyph d="M650 290H50V380H650Z" glyph-name="figuredash" horiz-adv-x="700" unicode="&#8210;" /><glyph d="M880 0H100V780H880Z" glyph-name="filledbox" horiz-adv-x="980" unicode="&#9632;" /><glyph d="M350 76Q386 77 420 86.5Q454 96 480.5 117Q507 138 523 171Q539 204 539 252Q539 299 527.5 332.5Q516 366 493.5 387.5Q471 409 438.5 419Q406 429 365 430Q308 431 260.5 413.5Q213 396 185 360L101 380L140 764H592V673H223L201 468Q232 492 276.5 503.5Q321 515 367 515Q496 515 566.5 449Q637 383 637 252Q637 187 614.5 137.5Q592 88 553.5 55Q515 22 462.5 5Q410 -12 350 -12Q277 -12 226 3Q175 18 141 45.5Q107 73 89 112.5Q71 152 65 200L165 211Q176 138 218.5 106.5Q261 75 350 76Z" glyph-name="five" horiz-adv-x="700" unicode="5" /><glyph d="M206 432Q235 432 258 447.5Q281 463 281 500Q281 571 211 571Q186 571 166 563Q146 555 134 538L61 554L84 764H345V684H157L149 619Q161 627 179.5 631Q198 635 217 635Q286 636 326 603Q366 570 366 498Q366 461 353.5 434Q341 407 319.5 389.5Q298 372 268.5 363.5Q239 355 205 355Q125 355 88 387Q51 419 45 482L130 490Q135 456 153 443.5Q171 431 206 432ZM306 0H202L720 764H824ZM826 235Q854 235 875.5 244.5Q897 254 897 285Q897 311 876 321.5Q855 332 826 332Q797 332 776 321.5Q755 311 755 285Q755 254 776.5 244.5Q798 235 826 235ZM826 64Q863 64 884 76Q905 88 905 116Q905 133 898 144Q891 155 879.5 161Q868 167 854 169Q840 171 826 171Q812 171 798 169Q784 167 772.5 161Q761 155 754 144Q747 133 747 116Q747 88 768 76Q789 64 826 64ZM826 -12Q661 -12 661 107Q661 150 678.5 172Q696 194 719 204Q699 215 685.5 237.5Q672 260 672 292Q672 325 685 347.5Q698 370 719 383.5Q740 397 768 403Q796 409 826 409Q856 409 884 403Q912 397 933 383.5Q954 370 967 347.5Q980 325 980 292Q980 260 966.5 237.5Q953 215 933 204Q956 194 973.5 172Q991 150 991 107Q991 -12 826 -12Z" glyph-name="fiveeighths" horiz-adv-x="1036" unicode="&#8541;" /><glyph d="M129 355H20V440H129V571Q129 610 136.5 647Q144 684 165 712.5Q186 741 224 758.5Q262 776 323 776Q344 776 363.5 772.5Q383 769 394 764L385 675Q377 679 361 684Q345 689 324 688Q299 688 280 682.5Q261 677 249 663.5Q237 650 231 626.5Q225 603 225 565V440H373V355H225V-7Q225 -46 217.5 -83Q210 -120 189 -148.5Q168 -177 130.5 -194.5Q93 -212 32 -212Q10 -212 -9 -208.5Q-28 -205 -40 -200L-31 -111Q-23 -115 -6.5 -120Q10 -125 30 -124Q56 -124 74.5 -118.5Q93 -113 105 -99.5Q117 -86 123 -62.5Q129 -39 129 -1Z" glyph-name="florin" horiz-adv-x="413" unicode="&#402;" /><glyph d="M503 178V0H407V178H53V246L417 775H503V268H646V178ZM407 524 409 623 349 530 229 355 169 267 264 268H407Z" glyph-name="four" horiz-adv-x="700" unicode="4" /><glyph d="M-105 0H-209L309 764H413Z" glyph-name="fraction" horiz-adv-x="205" unicode="&#8260;" /><glyph d="M155 497V764H602V672H255V497H495V421H255V369H495V293H255V0H155V293H48V369H155V421H48V497Z" glyph-name="franc" horiz-adv-x="630" unicode="&#8355;" /><glyph d="M546 -12Q546 -62 527.5 -99.5Q509 -137 475.5 -162Q442 -187 395.5 -199.5Q349 -212 293 -212Q229 -212 184.5 -200.5Q140 -189 112 -168Q84 -147 70 -117.5Q56 -88 52 -53L152 -39Q159 -81 189.5 -106Q220 -131 290 -129Q325 -129 354 -122.5Q383 -116 405 -102.5Q427 -89 439 -67.5Q451 -46 451 -16V95Q426 57 382 34.5Q338 12 282 12Q227 12 183 28.5Q139 45 108 78.5Q77 112 60.5 161.5Q44 211 44 277Q44 343 60.5 392.5Q77 442 108 475.5Q139 509 183 525.5Q227 542 282 542Q340 542 384.5 518Q429 494 454 454L466 530H553L546 398ZM451 328Q448 350 435.5 372Q423 394 403 412Q383 430 355.5 441.5Q328 453 293 453Q225 453 184.5 411Q144 369 144 277Q144 185 184 143Q224 101 293 101Q328 101 355.5 112.5Q383 124 403 142Q423 160 435.5 182Q448 204 451 226Z" glyph-name="g" horiz-adv-x="611" unicode="g" /><glyph d="M546 -12Q546 -62 527.5 -99.5Q509 -137 475.5 -162Q442 -187 395.5 -199.5Q349 -212 293 -212Q229 -212 184.5 -200.5Q140 -189 112 -168Q84 -147 70 -117.5Q56 -88 52 -53L152 -39Q159 -81 189.5 -106Q220 -131 290 -129Q325 -129 354 -122.5Q383 -116 405 -102.5Q427 -89 439 -67.5Q451 -46 451 -16V95Q426 57 382 34.5Q338 12 282 12Q227 12 183 28.5Q139 45 108 78.5Q77 112 60.5 161.5Q44 211 44 277Q44 343 60.5 392.5Q77 442 108 475.5Q139 509 183 525.5Q227 542 282 542Q340 542 384.5 518Q429 494 454 454L466 530H553L546 398ZM451 328Q448 350 435.5 372Q423 394 403 412Q383 430 355.5 441.5Q328 453 293 453Q225 453 184.5 411Q144 369 144 277Q144 185 184 143Q224 101 293 101Q328 101 355.5 112.5Q383 124 403 142Q423 160 435.5 182Q448 204 451 226ZM292 595Q239 595 203 609Q167 623 145 649Q123 675 114 713Q105 751 105 800H183Q182 733 208 706Q234 679 292 679Q350 679 376 706Q402 733 401 800H479Q479 751 470 713Q461 675 439 649Q417 623 381 609Q345 595 292 595Z" glyph-name="gbreve" horiz-adv-x="611" unicode="&#287;" /><glyph d="M546 -12Q546 -62 527.5 -99.5Q509 -137 475.5 -162Q442 -187 395.5 -199.5Q349 -212 293 -212Q229 -212 184.5 -200.5Q140 -189 112 -168Q84 -147 70 -117.5Q56 -88 52 -53L152 -39Q159 -81 189.5 -106Q220 -131 290 -129Q325 -129 354 -122.5Q383 -116 405 -102.5Q427 -89 439 -67.5Q451 -46 451 -16V95Q426 57 382 34.5Q338 12 282 12Q227 12 183 28.5Q139 45 108 78.5Q77 112 60.5 161.5Q44 211 44 277Q44 343 60.5 392.5Q77 442 108 475.5Q139 509 183 525.5Q227 542 282 542Q340 542 384.5 518Q429 494 454 454L466 530H553L546 398ZM451 328Q448 350 435.5 372Q423 394 403 412Q383 430 355.5 441.5Q328 453 293 453Q225 453 184.5 411Q144 369 144 277Q144 185 184 143Q224 101 293 101Q328 101 355.5 112.5Q383 124 403 142Q423 160 435.5 182Q448 204 451 226ZM246 592 94 800H191L292 673L393 800H490L338 592Z" glyph-name="gcaron" horiz-adv-x="611" unicode="&#487;" /><glyph d="M546 -12Q546 -62 527.5 -99.5Q509 -137 475.5 -162Q442 -187 395.5 -199.5Q349 -212 293 -212Q229 -212 184.5 -200.5Q140 -189 112 -168Q84 -147 70 -117.5Q56 -88 52 -53L152 -39Q159 -81 189.5 -106Q220 -131 290 -129Q325 -129 354 -122.5Q383 -116 405 -102.5Q427 -89 439 -67.5Q451 -46 451 -16V95Q426 57 382 34.5Q338 12 282 12Q227 12 183 28.5Q139 45 108 78.5Q77 112 60.5 161.5Q44 211 44 277Q44 343 60.5 392.5Q77 442 108 475.5Q139 509 183 525.5Q227 542 282 542Q340 542 384.5 518Q429 494 454 454L466 530H553L546 398ZM451 328Q448 350 435.5 372Q423 394 403 412Q383 430 355.5 441.5Q328 453 293 453Q225 453 184.5 411Q144 369 144 277Q144 185 184 143Q224 101 293 101Q328 101 355.5 112.5Q383 124 403 142Q423 160 435.5 182Q448 204 451 226ZM338 800 490 592H393L292 719L191 592H94L246 800Z" glyph-name="gcircumflex" horiz-adv-x="611" unicode="&#285;" /><glyph d="M231 592 300 800H386L339 592ZM546 -12Q546 -62 527.5 -99.5Q509 -137 475.5 -162Q442 -187 395.5 -199.5Q349 -212 293 -212Q229 -212 184.5 -200.5Q140 -189 112 -168Q84 -147 70 -117.5Q56 -88 52 -53L152 -39Q159 -81 189.5 -106Q220 -131 290 -129Q325 -129 354 -122.5Q383 -116 405 -102.5Q427 -89 439 -67.5Q451 -46 451 -16V95Q426 57 382 34.5Q338 12 282 12Q227 12 183 28.5Q139 45 108 78.5Q77 112 60.5 161.5Q44 211 44 277Q44 343 60.5 392.5Q77 442 108 475.5Q139 509 183 525.5Q227 542 282 542Q340 542 384.5 518Q429 494 454 454L466 530H553L546 398ZM451 328Q448 350 435.5 372Q423 394 403 412Q383 430 355.5 441.5Q328 453 293 453Q225 453 184.5 411Q144 369 144 277Q144 185 184 143Q224 101 293 101Q328 101 355.5 112.5Q383 124 403 142Q423 160 435.5 182Q448 204 451 226Z" glyph-name="gcommaaccent" horiz-adv-x="611" unicode="&#291;" /><glyph d="M546 -12Q546 -62 527.5 -99.5Q509 -137 475.5 -162Q442 -187 395.5 -199.5Q349 -212 293 -212Q229 -212 184.5 -200.5Q140 -189 112 -168Q84 -147 70 -117.5Q56 -88 52 -53L152 -39Q159 -81 189.5 -106Q220 -131 290 -129Q325 -129 354 -122.5Q383 -116 405 -102.5Q427 -89 439 -67.5Q451 -46 451 -16V95Q426 57 382 34.5Q338 12 282 12Q227 12 183 28.5Q139 45 108 78.5Q77 112 60.5 161.5Q44 211 44 277Q44 343 60.5 392.5Q77 442 108 475.5Q139 509 183 525.5Q227 542 282 542Q340 542 384.5 518Q429 494 454 454L466 530H553L546 398ZM451 328Q448 350 435.5 372Q423 394 403 412Q383 430 355.5 441.5Q328 453 293 453Q225 453 184.5 411Q144 369 144 277Q144 185 184 143Q224 101 293 101Q328 101 355.5 112.5Q383 124 403 142Q423 160 435.5 182Q448 204 451 226ZM348 639H236V750H348Z" glyph-name="gdotaccent" horiz-adv-x="611" unicode="&#289;" /><glyph d="M339 812Q387 812 429.5 801Q472 790 503.5 767.5Q535 745 553 712Q571 679 571 634Q571 590 557.5 561Q544 532 524 513Q504 494 481 483.5Q458 473 439 465Q421 458 407 451.5Q393 445 382.5 436Q372 427 366.5 415Q361 403 361 384Q361 367 370.5 355.5Q380 344 395 336.5Q410 329 429 324Q448 319 467 313Q491 306 518 297Q545 288 568 270.5Q591 253 606.5 226Q622 199 622 156Q622 114 607 82.5Q592 51 566.5 30Q541 9 506.5 -1.5Q472 -12 432 -12Q378 -12 342 0.5Q306 13 284 35Q262 57 251.5 86.5Q241 116 238 150L336 162Q338 143 343.5 127Q349 111 360 99Q371 87 388 80.5Q405 74 431 74Q476 75 499 93Q522 111 522 153Q522 174 514 187.5Q506 201 492 210Q478 219 458.5 225Q439 231 415 237Q397 242 371 250Q345 258 321 273.5Q297 289 280.5 315Q264 341 264 380Q264 422 278 450Q292 478 312.5 495Q333 512 355 521.5Q377 531 393 537Q414 545 429 553Q444 561 453.5 571.5Q463 582 468 596.5Q473 611 473 631Q473 679 440.5 702.5Q408 726 339 726Q283 726 250.5 710.5Q218 695 201 667.5Q184 640 179.5 603Q175 566 175 524V0H80V530Q80 602 93 655Q106 708 136.5 743Q167 778 216.5 795Q266 812 339 812Z" glyph-name="germandbls" horiz-adv-x="655" unicode="&#223;" /><glyph d="M314 792H412L712 0H605L425 491L363 666L301 491L121 0H13Z" glyph-name="glyph00043" horiz-adv-x="726" /><glyph d="M219 668H107V779H219ZM619 668H507V779H619ZM314 791H412L713 0H605L522 225H204L121 0H13ZM363 664 236 313H490Z" glyph-name="glyph00044" horiz-adv-x="726" /><glyph d="M490 309 576 176 573 411V780H674V-200H574V13L264 471L178 604L181 369V0H80V780H171Z" glyph-name="glyph00124" horiz-adv-x="754" /><glyph d="M400 -12Q311 -12 246.5 16.5Q182 45 140.5 97.5Q99 150 79.5 224.5Q60 299 60 390Q60 482 79.5 556Q99 630 140.5 682.5Q182 735 246.5 763.5Q311 792 400 792Q489 792 553.5 763.5Q618 735 659.5 682.5Q701 630 720.5 556Q740 482 740 390Q740 299 720.5 224.5Q701 150 659.5 97.5Q618 45 553.5 16.5Q489 -12 400 -12ZM400 79Q466 79 510 100.5Q554 122 581 159.5Q608 197 620 247Q632 297 635 354H165Q168 297 180.5 247Q193 197 220 159.5Q247 122 290.5 100.5Q334 79 400 79ZM400 701Q337 701 294 681Q251 661 224 626Q197 591 183.5 544.5Q170 498 166 445H634Q630 498 616.5 544.5Q603 591 575.5 626Q548 661 505.5 681Q463 701 400 701Z" glyph-name="glyph00147" horiz-adv-x="800" /><glyph d="M400 -12Q311 -12 246.5 16.5Q182 45 140.5 97.5Q99 150 79.5 224.5Q60 299 60 390Q60 482 79.5 556Q99 630 140.5 682.5Q182 735 246.5 763.5Q311 792 400 792Q489 792 553.5 763.5Q618 735 659.5 682.5Q701 630 720.5 556Q740 482 740 390Q740 299 720.5 224.5Q701 150 659.5 97.5Q618 45 553.5 16.5Q489 -12 400 -12ZM400 701Q329 701 283.5 676Q238 651 211.5 608Q185 565 174.5 508.5Q164 452 164 390Q164 328 174.5 271.5Q185 215 211.5 172.5Q238 130 283.5 104.5Q329 79 400 79Q471 79 516.5 104.5Q562 130 588.5 172.5Q615 215 625.5 271.5Q636 328 636 390Q636 452 625.5 508.5Q615 565 588.5 608Q562 651 516.5 676Q471 701 400 701ZM172 742Q133 711 105 669H60V780H172ZM740 669H694Q668 710 628 742V780H740Z" glyph-name="glyph00148" horiz-adv-x="800" /><glyph d="M386 -12Q296 -12 236 10.5Q176 33 139.5 72.5Q103 112 87.5 165.5Q72 219 72 282V780H174V281Q174 239 182.5 202Q191 165 214 138Q237 111 278.5 95Q320 79 386 79Q452 79 493.5 95Q535 111 558 138Q581 165 589.5 202Q598 239 598 281V780H700V282Q700 219 684.5 165.5Q669 112 632.5 72.5Q596 33 536 10.5Q476 -12 386 -12ZM352 669H240V780H352ZM532 669H420V780H532Z" glyph-name="glyph00185" horiz-adv-x="772" /><glyph d="M181 688H45V780H417V688H281V92H417V0H45V92H181ZM641 780H742V194Q742 154 732.5 117Q723 80 700 51.5Q677 23 637 5.5Q597 -12 536 -12Q514 -12 494.5 -8.5Q475 -5 463 0L473 93Q481 89 497.5 84Q514 79 534 80Q559 80 579 85.5Q599 91 612.5 104.5Q626 118 633.5 141Q641 164 641 200Z" glyph-name="glyph00197" horiz-adv-x="814" /><glyph d="M289 459Q226 460 199.5 436.5Q173 413 165 369L66 383Q72 418 85.5 447Q99 476 124.5 497Q150 518 190 530Q230 542 287 542Q396 542 456.5 494.5Q517 447 517 348V132L524 0H437L425 76Q397 33 345 10.5Q293 -12 234 -12Q135 -12 89.5 31Q44 74 44 145Q44 187 59 215.5Q74 244 101 262.5Q128 281 166 292Q204 303 250 310L422 335V355Q422 411 388 434Q354 457 289 459ZM144 148Q144 72 240 72Q276 71 307.5 82.5Q339 94 363 112.5Q387 131 402.5 154Q418 177 422 199V261L259 235Q207 227 175.5 209.5Q144 192 144 148ZM316 800 410 592H315L204 800ZM156 800 250 592H155L44 800Z" glyph-name="glyph00257" horiz-adv-x="581" /><glyph d="M81 530H177V0H81ZM185 639H73V750H185Z" glyph-name="glyph00312" horiz-adv-x="258" /><glyph d="M157 455Q183 494 228 518Q273 542 328 542Q372 542 409.5 530.5Q447 519 474 496Q501 473 516.5 440Q532 407 532 363V-200H436V346Q436 399 402.5 426Q369 453 314 453Q281 453 254 441Q227 429 207 411Q187 393 175 371Q163 349 160 328V0H65V399L58 530H145Z" glyph-name="glyph00344" horiz-adv-x="587" /><glyph d="M295 -12Q237 -12 191 5.5Q145 23 112.5 57.5Q80 92 62.5 144Q45 196 45 265Q45 334 62.5 386Q80 438 112.5 472.5Q145 507 191 524.5Q237 542 295 542Q411 542 478 473Q545 404 545 265Q545 126 478 57Q411 -12 295 -12ZM295 74Q357 74 398 110Q439 146 447 226H143Q151 146 192 110Q233 74 295 74ZM295 456Q233 456 192.5 420.5Q152 385 143 307H446Q437 385 397 420.5Q357 456 295 456Z" glyph-name="glyph00367" horiz-adv-x="590" /><glyph d="M157 476H45V564H365V476H253V88H365V0H45V88H157ZM588 564H685V186Q685 146 676.5 110Q668 74 646.5 47Q625 20 589 4Q553 -12 498 -12Q469 -12 449 -8.5Q429 -5 418 0L427 89Q434 85 450.5 80Q467 75 490 76Q512 76 530 81.5Q548 87 561 100Q574 113 581 135Q588 157 588 191Z" glyph-name="glyph00638" horiz-adv-x="754" /><glyph d="M157 476H45V564H365V476H253V88H365V0H45V88H157Z" glyph-name="glyph00648" horiz-adv-x="410" /><glyph d="M365 476H253V88H365V0H45V88H157V476H45V564H365ZM158 810 252 602H157L46 810Z" glyph-name="glyph00649" horiz-adv-x="410" /><glyph d="M157 476H45V564H365V476H253V88H365V0H45V88H157ZM364 810 253 602H158L252 810Z" glyph-name="glyph00650" horiz-adv-x="410" /><glyph d="M157 476H45V564H365V476H253V88H365V0H45V88H157ZM251 810 403 602H306L205 729L104 602H7L159 810Z" glyph-name="glyph00651" horiz-adv-x="410" /><glyph d="M157 476H45V564H253V88H365V0H45V88H157ZM161 649H49V760H161ZM361 649H249V760H361Z" glyph-name="glyph00652" horiz-adv-x="410" /><glyph d="M253 88H365V0H45V88H157V476H45V564H365V476H253ZM120 706Q93 706 82 688.5Q71 671 68 652L-8 663Q0 720 30.5 754Q61 788 125 788Q158 788 180.5 775.5Q203 763 221 748Q239 733 255 720.5Q271 708 290 708Q317 708 328 725.5Q339 743 342 762L418 751Q410 694 379.5 660Q349 626 285 626Q252 626 229.5 638.5Q207 651 189 666Q171 681 155 693.5Q139 706 120 706Z" glyph-name="glyph00653" horiz-adv-x="410" /><glyph d="M157 476H45V564H365V476H253V88H365V0H45V88H157ZM159 602 7 810H104L205 683L306 810H403L251 602Z" glyph-name="glyph00654" horiz-adv-x="410" /><glyph d="M157 476H45V564H365V476H253V88H365V0H45V88H157ZM61 662V752H349V662Z" glyph-name="glyph00655" horiz-adv-x="410" /><glyph d="M253 88H365V0H45V88H157V476H45V564H365V476H253ZM205 605Q151 605 115.5 619Q80 633 58 659Q36 685 27 723Q18 761 18 810H96Q96 743 121 716Q146 689 205 689Q264 689 289 716Q314 743 314 810H392Q392 761 383 723Q374 685 352 659Q330 633 294.5 619Q259 605 205 605Z" glyph-name="glyph00656" horiz-adv-x="410" /><glyph d="M253 88H365V0H45V88H157V476H45V564H365V476H253ZM205 807Q258 807 294 793.5Q330 780 352 753.5Q374 727 383 689Q392 651 392 602H314Q315 669 289 696Q263 723 205 723Q147 723 121 696Q95 669 96 602H18Q18 651 27 689Q36 727 58 753.5Q80 780 116 793.5Q152 807 205 807Z" glyph-name="glyph00657" horiz-adv-x="410" /><glyph d="M157 476H45V564H365V476H253V88H365V0H45V88H157ZM240 810 334 602H239L128 810ZM80 810 174 602H79L-32 810Z" glyph-name="glyph00658" horiz-adv-x="410" /><glyph d="M157 476H45V564H365V476H253V88H365V0H45V88H157ZM261 649H149V760H261Z" glyph-name="glyph00659" horiz-adv-x="410" /><glyph d="M157 476H45V564H365V476H253V88H365V0H45V88H157ZM261 -173H149V-62H261Z" glyph-name="glyph00660" horiz-adv-x="410" /><glyph d="M45 88H157V476H45V564H365V476H253V88H365V0Q340 -3 317 -12.5Q294 -22 276.5 -35.5Q259 -49 249 -65.5Q239 -82 239 -99Q239 -117 249.5 -128Q260 -139 285 -139Q296 -139 308 -136.5Q320 -134 330.5 -130.5Q341 -127 347.5 -124Q354 -121 354 -120L376 -187Q360 -197 334 -204.5Q308 -212 274 -212Q251 -212 230 -206.5Q209 -201 192.5 -188.5Q176 -176 166.5 -156.5Q157 -137 157 -108Q157 -78 172.5 -50.5Q188 -23 215 0H45Z" glyph-name="glyph00661" horiz-adv-x="410" /><glyph d="M192 503 156 452 111 390H14L113 522L144 563L116 600L22 724H118L162 662L192 619L222 662L266 724H361L267 600L240 563L271 522L370 390H273L227 452Z" glyph-name="glyph00688" horiz-adv-x="384" /><glyph d="M367 636V479L372 390H301L293 430Q279 409 250.5 395Q222 381 191 381Q116 381 77.5 426.5Q39 472 39 557Q39 642 77.5 687.5Q116 733 191 733Q222 733 250.5 719.5Q279 706 293 685L301 724H372ZM289 597Q284 620 261.5 639.5Q239 659 203 659Q166 659 143 633.5Q120 608 120 557Q120 506 143 480.5Q166 455 203 455Q239 455 261.5 475Q284 495 289 517Z" glyph-name="glyph00691" horiz-adv-x="425" /><glyph d="M30 530H137V607Q137 646 144.5 683Q152 720 173 748.5Q194 777 231.5 794.5Q269 812 330 812Q351 812 370.5 808.5Q390 805 402 800L393 711Q385 715 368.5 720Q352 725 332 724Q307 724 288 718.5Q269 713 256.5 699.5Q244 686 238 662.5Q232 639 232 601V530H383V449H232V0H137V449H30ZM489 530H585V0H489Z" glyph-name="glyph00694" horiz-adv-x="666" /><glyph d="M345 576 585 0H481L430 131H168L117 0H13L253 576ZM199 211H398L344 350L299 469L254 350Z" glyph-name="glyph00791" horiz-adv-x="598" /><glyph d="M178 336H359Q399 336 435.5 329.5Q472 323 500 304.5Q528 286 544.5 253.5Q561 221 561 169Q561 117 544.5 84Q528 51 500 32Q472 13 435.5 6.5Q399 0 359 0H81V564H503V475H178ZM365 86Q383 86 400.5 89Q418 92 431.5 101Q445 110 453.5 127Q462 144 462 172Q462 199 453.5 215.5Q445 232 431.5 241Q418 250 400.5 253Q383 256 365 256H178V86Z" glyph-name="glyph00792" horiz-adv-x="593" /><glyph d="M81 0V564H369Q397 564 428.5 558.5Q460 553 486.5 536.5Q513 520 530.5 490.5Q548 461 548 413Q548 362 526 334Q504 306 477 298Q514 291 539.5 256Q565 221 565 164Q565 114 548.5 82Q532 50 504 32Q476 14 441 7Q406 0 368 0ZM367 87Q388 87 406 90Q424 93 437.5 102Q451 111 459 126.5Q467 142 467 166Q467 214 439.5 230.5Q412 247 373 247H177V87ZM177 476V334H361Q407 334 428.5 351Q450 368 450 409Q450 447 429.5 461.5Q409 476 361 476Z" glyph-name="glyph00793" horiz-adv-x="610" /><glyph d="M176 0H80V564H471V476H176Z" glyph-name="glyph00794" horiz-adv-x="490" /><glyph d="M75 89Q102 89 122 100Q142 111 157 135.5Q172 160 183.5 200.5Q195 241 205 301L248 564H566V89H643V-160H547V0H131V-160H35V89ZM298 287Q285 205 267 158.5Q249 112 224 89H468V475H328Z" glyph-name="glyph00795" horiz-adv-x="666" /><glyph d="M516 564V476H176V334H478V246H176V88H534V0H80V564Z" glyph-name="glyph00796" horiz-adv-x="593" /><glyph d="M152 564 240 404Q259 368 281.5 350Q304 332 345 332H388V564H485V332H527Q568 332 590.5 350Q613 368 632 404L720 564H837L727 373Q714 351 696.5 328.5Q679 306 651 291Q680 277 699 254Q718 231 731 208L852 0H735L637 178Q617 213 594.5 230.5Q572 248 531 248H485V0H388V248H342Q301 248 278 230.5Q255 213 235 178L138 0H20L141 208Q154 231 173.5 254Q193 277 222 291Q193 306 175.5 328.5Q158 351 145 373L35 564Z" glyph-name="glyph00797" horiz-adv-x="872" /><glyph d="M146 167Q155 122 189.5 98Q224 74 287 74Q356 74 394.5 95.5Q433 117 433 165Q433 196 421.5 212.5Q410 229 392 237Q374 245 351 246.5Q328 248 304 248H210V323H302Q326 323 346.5 326Q367 329 382.5 338Q398 347 406.5 364Q415 381 415 409Q415 455 381.5 472Q348 489 289 489Q232 489 199 468.5Q166 448 156 398L52 410Q64 494 121.5 535Q179 576 289 576Q333 576 374 567.5Q415 559 446.5 540Q478 521 497.5 490Q517 459 517 414Q517 385 509.5 363.5Q502 342 489 327.5Q476 313 460 304Q444 295 427 291Q446 288 465.5 279.5Q485 271 500.5 255Q516 239 526 215.5Q536 192 536 159Q536 84 473.5 36Q411 -12 286 -12Q170 -12 111.5 33.5Q53 79 42 155Z" glyph-name="glyph00798" horiz-adv-x="583" /><glyph d="M80 0V564H177V307L174 142L276 286L486 564H583V0H486V256L489 421L387 278L177 0Z" glyph-name="glyph00799" horiz-adv-x="663" /><glyph d="M80 0V564H177V307L174 142L276 286L486 564H583V0H486V256L489 421L387 278L177 0ZM519 809Q519 760 510 722Q501 684 479 657.5Q457 631 421 617.5Q385 604 332 604Q279 604 243 617.5Q207 631 185 657.5Q163 684 154 722Q145 760 145 809H223Q222 742 248 715Q274 688 332 688Q390 688 415.5 715Q441 742 441 809Z" glyph-name="glyph00800" horiz-adv-x="663" /><glyph d="M567 564 451 373Q437 351 419 328.5Q401 306 372 291Q402 277 421.5 254Q441 231 455 208L582 0H465L362 178Q342 213 318.5 230.5Q295 248 254 248H177V0H80V564H177V332H251Q292 332 314.5 350.5Q337 369 358 404L450 564Z" glyph-name="glyph00801" horiz-adv-x="602" /><glyph d="M574 0H477V475H299L269 287Q255 201 235.5 145.5Q216 90 189.5 57.5Q163 25 128 12.5Q93 0 49 0H34L33 89H41Q70 89 91 99.5Q112 110 128 134.5Q144 159 155.5 199.5Q167 240 177 301L219 564H574Z" glyph-name="glyph00802" horiz-adv-x="654" /><glyph d="M170 416 174 284V0H80V564H198L341 225L389 109L437 225L580 564H698V0H604V280L607 416L435 0H344Z" glyph-name="glyph00803" horiz-adv-x="778" /><glyph d="M586 564V0H490V246H176V0H80V564H176V334H490V564Z" glyph-name="glyph00804" horiz-adv-x="666" /><glyph d="M55 282Q55 422 124 499Q193 576 339 576Q485 576 554 499Q623 422 623 282Q623 142 554 65Q485 -12 339 -12Q193 -12 124 65Q55 142 55 282ZM525 282Q525 380 480.5 434.5Q436 489 339 489Q242 489 197.5 434.5Q153 380 153 282Q153 184 197.5 129.5Q242 75 339 75Q436 75 480.5 129.5Q525 184 525 282Z" glyph-name="glyph00805" horiz-adv-x="678" /><glyph d="M586 564V0H490V476H176V0H80V564Z" glyph-name="glyph00806" horiz-adv-x="666" /><glyph d="M176 476V296H347Q363 296 378.5 299.5Q394 303 406.5 313Q419 323 426.5 340.5Q434 358 434 386Q434 414 426.5 431.5Q419 449 406.5 459Q394 469 378.5 472.5Q363 476 347 476ZM80 564H334Q372 564 408 556.5Q444 549 471.5 529Q499 509 516 474.5Q533 440 533 386Q533 332 516.5 297.5Q500 263 472 243Q444 223 408.5 215.5Q373 208 335 208H176V0H80Z" glyph-name="glyph00807" horiz-adv-x="569" /><glyph d="M54 282Q54 350 71.5 404.5Q89 459 124 497Q159 535 212 555.5Q265 576 337 576Q400 576 447.5 563.5Q495 551 527 528Q559 505 577 472.5Q595 440 599 400L499 389Q491 440 450.5 464Q410 488 340 488Q243 488 198.5 433.5Q154 379 154 282Q154 185 198.5 130.5Q243 76 340 76Q410 76 450.5 100Q491 124 499 175L599 164Q595 124 577 91.5Q559 59 527 36Q495 13 447.5 0.5Q400 -12 337 -12Q265 -12 212 8.5Q159 29 124 67Q89 105 71.5 159.5Q54 214 54 282Z" glyph-name="glyph00808" horiz-adv-x="650" /><glyph d="M301 0H205V476H14V564H492V476H301Z" glyph-name="glyph00809" horiz-adv-x="506" /><glyph d="M190 76Q219 76 242 91Q265 106 284 138L59 564H172L336 228L502 564H614L389 129Q375 101 357.5 76Q340 51 317 31.5Q294 12 264 0.5Q234 -11 194 -11Q155 -11 128 -5Q101 1 86 9L98 96Q109 90 135 83Q161 76 190 76Z" glyph-name="glyph00810" horiz-adv-x="650" /><glyph d="M413 0H315V77Q192 77 119.5 128Q47 179 47 282Q47 385 119.5 436Q192 487 315 487V564H413V487Q536 487 608.5 436Q681 385 681 282Q681 179 608.5 128Q536 77 413 77ZM413 160Q451 160 481.5 166Q512 172 533.5 186Q555 200 566.5 223.5Q578 247 578 282Q578 317 566.5 340.5Q555 364 533.5 378Q512 392 481.5 398Q451 404 413 404ZM315 404Q277 404 246.5 398Q216 392 194.5 378Q173 364 161.5 340.5Q150 317 150 282Q150 247 161.5 223.5Q173 200 194.5 186Q216 172 246.5 166Q277 160 315 160Z" glyph-name="glyph00811" horiz-adv-x="728" /><glyph d="M266 159 148 0H29L220 247L260 297L221 344L48 564H165L274 419L316 362L357 419L467 564H584L411 344L372 297L411 247L603 0H484L365 159L316 226Z" glyph-name="glyph00812" horiz-adv-x="632" /><glyph d="M663 89V-160H567V0H80V564H176V88H490V564H586V89Z" glyph-name="glyph00813" horiz-adv-x="686" /><glyph d="M556 0H458V222Q435 203 388.5 187.5Q342 172 276 172Q234 172 195.5 182.5Q157 193 128 214.5Q99 236 82 269Q65 302 65 348V564H162V364Q162 307 199 285.5Q236 264 294 264Q328 264 355.5 270Q383 276 404 284.5Q425 293 438.5 302.5Q452 312 458 319V564H556Z" glyph-name="glyph00814" horiz-adv-x="636" /><glyph d="M80 564H176V88H398V564H494V88H716V564H812V0H80Z" glyph-name="glyph00815" horiz-adv-x="892" /><glyph d="M889 89V-160H793V0H80V564H176V88H398V564H494V88H716V564H812V89Z" glyph-name="glyph00816" horiz-adv-x="912" /><glyph d="M272 336H453Q493 336 529.5 329.5Q566 323 594 304.5Q622 286 638.5 253.5Q655 221 655 169Q655 117 638.5 84Q622 51 594 32Q566 13 529.5 6.5Q493 0 453 0H175V475H24V564H272ZM459 86Q477 86 495 89Q513 92 526.5 101Q540 110 548.5 127Q557 144 557 172Q557 199 548.5 215.5Q540 232 526.5 241Q513 250 495 253Q477 256 459 256H272V86Z" glyph-name="glyph00817" horiz-adv-x="690" /><glyph d="M620 564H717V0H620ZM364 86Q382 86 399.5 89Q417 92 430.5 101Q444 110 452.5 127Q461 144 461 172Q461 199 452.5 215.5Q444 232 430.5 241Q417 250 399.5 253Q382 256 364 256H177V86ZM80 564H177V336H358Q398 336 434.5 329.5Q471 323 499 304.5Q527 286 543.5 253.5Q560 221 560 169Q560 117 543.5 84Q527 51 499 32Q471 13 434.5 6.5Q398 0 358 0H80Z" glyph-name="glyph00818" horiz-adv-x="797" /><glyph d="M364 86Q382 86 399.5 89Q417 92 430.5 101Q444 110 452.5 127Q461 144 461 172Q461 199 452.5 215.5Q444 232 430.5 241Q417 250 399.5 253Q382 256 364 256H177V86ZM80 564H177V336H358Q398 336 434.5 329.5Q471 323 499 304.5Q527 286 543.5 253.5Q560 221 560 169Q560 117 543.5 84Q527 51 499 32Q471 13 434.5 6.5Q398 0 358 0H80Z" glyph-name="glyph00819" horiz-adv-x="595" /><glyph d="M180 328H477Q467 408 423 447Q379 486 307 487Q238 488 201 463.5Q164 439 155 391L53 402Q59 440 75.5 472Q92 504 122.5 527Q153 550 198.5 563Q244 576 307 576Q439 576 510.5 499.5Q582 423 582 282Q582 141 510.5 64.5Q439 -12 307 -12Q244 -12 198.5 1Q153 14 122.5 37Q92 60 75.5 92Q59 124 53 162L155 173Q164 125 201 100.5Q238 76 307 77Q383 78 427.5 121Q472 164 479 253H180Z" glyph-name="glyph00820" horiz-adv-x="636" /><glyph d="M177 336H301Q314 451 382 513.5Q450 576 583 576Q729 576 798 499Q867 422 867 282Q867 142 798 65Q729 -12 583 -12Q446 -12 377 55.5Q308 123 300 247H177V0H80V564H177ZM769 282Q769 380 724.5 434.5Q680 489 583 489Q486 489 441.5 434.5Q397 380 397 282Q397 184 441.5 129.5Q486 75 583 75Q680 75 724.5 129.5Q769 184 769 282Z" glyph-name="glyph00821" horiz-adv-x="922" /><glyph d="M545 0H448V228H337Q299 226 279.5 208.5Q260 191 242 158L154 0H37L145 179Q168 219 198 233Q170 238 145.5 249Q121 260 103 279Q85 298 74.5 326.5Q64 355 64 395Q64 448 80.5 480.5Q97 513 125 532Q153 551 190 557.5Q227 564 267 564H545ZM261 478Q243 478 225 475Q207 472 193.5 463Q180 454 171.5 437Q163 420 163 392Q163 365 171.5 348.5Q180 332 193.5 323Q207 314 225 311Q243 308 261 308H448V478Z" glyph-name="glyph00822" horiz-adv-x="625" /><glyph d="M516 564V476H176V334H478V246H176V88H534V0H80V564ZM258 649H146V760H258ZM458 649H346V760H458Z" glyph-name="glyph00823" horiz-adv-x="593" /><glyph d="M279 312Q305 334 345 345Q385 356 431 356Q474 356 510 344Q546 332 571.5 309Q597 286 611.5 251.5Q626 217 626 172Q626 81 582 34.5Q538 -12 457 -12Q434 -12 415.5 -8.5Q397 -5 388 0L395 78Q401 76 412 73Q423 70 439 70Q479 70 500.5 95Q522 120 522 172Q522 222 490.5 248Q459 274 408 274Q360 274 326.5 255.5Q293 237 279 217V0H182V475H27V564H433V475H279Z" glyph-name="glyph00824" horiz-adv-x="677" /><glyph d="M435 809 324 601H229L323 809ZM176 0H80V564H471V476H176Z" glyph-name="glyph00825" horiz-adv-x="490" /><glyph d="M454 253H155Q161 164 206 121Q251 78 327 77Q396 76 433 100.5Q470 125 479 173L581 162Q575 124 558.5 92Q542 60 511.5 37Q481 14 435.5 1Q390 -12 327 -12Q195 -12 124 64.5Q53 141 53 282Q53 423 124 499.5Q195 576 327 576Q390 576 435.5 563Q481 550 511.5 527Q542 504 558.5 472Q575 440 581 402L479 391Q470 439 433 463.5Q396 488 327 487Q255 486 211 447Q167 408 157 328H454Z" glyph-name="glyph00826" horiz-adv-x="636" /><glyph d="M305 73Q333 73 359.5 77.5Q386 82 407 92.5Q428 103 441 121Q454 139 454 166Q454 190 445.5 204.5Q437 219 418.5 228.5Q400 238 371.5 243.5Q343 249 303 254Q264 258 224 264.5Q184 271 152 287Q120 303 99.5 331Q79 359 79 405Q79 451 98.5 483.5Q118 516 150 536.5Q182 557 222.5 566.5Q263 576 304 576Q423 576 480.5 534Q538 492 549 411L448 400Q440 450 407.5 471Q375 492 306 491Q285 491 262.5 488Q240 485 222 476Q204 467 192 451Q180 435 180 409Q180 371 212 356.5Q244 342 316 333Q363 328 406 321Q449 314 482 297.5Q515 281 535 251Q555 221 555 169Q555 120 533.5 85.5Q512 51 476.5 29.5Q441 8 396.5 -2Q352 -12 305 -12Q185 -12 124.5 32Q64 76 56 158L156 169Q163 119 201 96Q239 73 305 73Z" glyph-name="glyph00827" horiz-adv-x="614" /><glyph d="M199 0H102V564H199Z" glyph-name="glyph00828" horiz-adv-x="301" /><glyph d="M196 0H100V564H196ZM104 649H-8V760H104ZM304 649H192V760H304Z" glyph-name="glyph00829" horiz-adv-x="296" /><glyph d="M393 564V170Q393 88 341.5 38Q290 -12 190 -12Q133 -12 98 2.5Q63 17 43.5 39.5Q24 62 17 90Q10 118 9 145L105 157Q106 141 109.5 126.5Q113 112 122.5 100.5Q132 89 149 82Q166 75 194 75Q247 75 272 98Q297 121 297 171V564Z" glyph-name="glyph00830" horiz-adv-x="465" /><glyph d="M559 336H740Q780 336 816.5 329.5Q853 323 881 304.5Q909 286 925.5 253.5Q942 221 942 169Q942 117 925.5 84Q909 51 881 32Q853 13 816.5 6.5Q780 0 740 0H462V475H299L269 287Q255 201 235.5 145.5Q216 90 189.5 57.5Q163 25 128 12.5Q93 0 49 0H34L33 89H41Q70 89 91 99.5Q112 110 128 134.5Q144 159 155.5 199.5Q167 240 177 301L219 564H559ZM746 86Q764 86 781.5 89Q799 92 812.5 101Q826 110 834.5 127Q843 144 843 172Q843 199 834.5 215.5Q826 232 812.5 241Q799 250 781.5 253Q764 256 746 256H559V86Z" glyph-name="glyph00831" horiz-adv-x="977" /><glyph d="M478 247H177V0H80V564H177V336H478V564H575V336H756Q796 336 832.5 329.5Q869 323 897 304.5Q925 286 941.5 253.5Q958 221 958 169Q958 117 941.5 84Q925 51 897 32Q869 13 832.5 6.5Q796 0 756 0H478ZM762 86Q780 86 798 89Q816 92 829.5 101Q843 110 851.5 127Q860 144 860 172Q860 199 851.5 215.5Q843 232 829.5 241Q816 250 798 253Q780 256 762 256H575V86Z" glyph-name="glyph00832" horiz-adv-x="993" /><glyph d="M182 475H27V564H433V475H279V292Q306 325 346.5 340.5Q387 356 435 356Q471 356 502 346.5Q533 337 555.5 317.5Q578 298 591 268.5Q604 239 604 199V0H507V180Q507 227 482 246.5Q457 266 409 266Q363 266 330.5 245.5Q298 225 279 188V0H182Z" glyph-name="glyph00833" horiz-adv-x="666" /><glyph d="M567 564 451 373Q437 351 419 328.5Q401 306 372 291Q402 277 421.5 254Q441 231 455 208L582 0H465L362 178Q342 213 318.5 230.5Q295 248 254 248H177V0H80V564H177V332H251Q292 332 315 350Q338 368 358 404L450 564ZM457 809 346 601H251L345 809Z" glyph-name="glyph00834" horiz-adv-x="618" /><glyph d="M190 76Q219 76 242 91Q265 106 284 138L59 564H172L336 228L502 564H614L389 129Q375 101 357.5 76Q340 51 317 31.5Q294 12 264 0.5Q234 -11 194 -11Q155 -11 128 -5Q101 1 86 9L98 96Q109 90 135 83Q161 76 190 76ZM336 604Q283 604 247 617.5Q211 631 189.5 657.5Q168 684 158.5 722Q149 760 149 809H227Q227 742 252.5 715Q278 688 336 688Q395 688 420 715Q445 742 445 809H523Q523 760 514 722Q505 684 483 657.5Q461 631 425.5 617.5Q390 604 336 604Z" glyph-name="glyph00835" horiz-adv-x="650" /><glyph d="M80 0V564H176V88H490V564H586V0H381V-160H285V0Z" glyph-name="glyph00836" horiz-adv-x="666" /><glyph d="M471 476H176V0H80V564H377V724H471Z" glyph-name="glyph00837" horiz-adv-x="496" /><glyph d="M215 182Q230 189 242 194.5Q254 200 264 207L271 323H336L358 -112Q397 -101 419.5 -73Q442 -45 450 6L550 -4Q544 -51 526 -89.5Q508 -128 477 -155Q446 -182 400 -197Q354 -212 291 -212Q237 -212 191.5 -199Q146 -186 113.5 -161Q81 -136 63 -99Q45 -62 45 -14Q45 39 63.5 72.5Q82 106 108.5 127.5Q135 149 164.5 161Q194 173 215 182ZM148 -14Q148 -41 156 -59.5Q164 -78 178 -90Q192 -102 210 -108.5Q228 -115 247 -118L259 101Q249 97 240 93Q231 89 222 85Q193 71 170.5 49.5Q148 28 148 -14ZM359 419H247V530H359Z" glyph-name="glyph00892" horiz-adv-x="558" /><glyph d="M235 407Q247 412 258 417.5Q269 423 279 429L286 575H351L377 88Q415 100 438.5 128Q462 156 470 207L569 196Q563 149 545 110.5Q527 72 495 45Q463 18 416.5 3Q370 -12 307 -12Q252 -12 206.5 1.5Q161 15 128.5 42Q96 69 78 108.5Q60 148 60 199Q60 253 79 288.5Q98 324 125.5 347.5Q153 371 183 384.5Q213 398 235 407ZM164 199Q164 170 172 149.5Q180 129 193 115.5Q206 102 224 94Q242 86 261 83L274 326Q255 317 235 306Q215 295 199.5 280Q184 265 174 245.5Q164 226 164 199ZM263 780H375V669H263Z" glyph-name="glyph00893" horiz-adv-x="606" /><glyph d="M318 275Q304 270 291 265.5Q278 261 268 256L263 183H224L203 488Q165 481 148 461Q131 441 128 406L34 417Q39 490 90.5 533Q142 576 249 576Q350 576 404.5 536.5Q459 497 459 426Q459 389 448.5 364Q438 339 419.5 322.5Q401 306 375 295.5Q349 285 318 275ZM300 0H188V111H300ZM357 419Q357 480 284 490L273 334L281 337Q304 345 318.5 352Q333 359 341.5 367.5Q350 376 353.5 388.5Q357 401 357 419Z" glyph-name="glyph00894" horiz-adv-x="499" /><glyph d="M181 299Q194 304 206.5 308Q219 312 230 317L235 391H275L296 85Q333 92 350.5 112.5Q368 133 371 168L465 157Q460 84 408.5 41Q357 -2 250 -2Q149 -2 94.5 37.5Q40 77 40 148Q40 186 50.5 210.5Q61 235 79.5 251.5Q98 268 124 278.5Q150 289 181 299ZM199 574H311V463H199ZM141 155Q141 94 214 84L224 239Q220 237 218 237Q196 229 181 222Q166 215 157 206.5Q148 198 144.5 185.5Q141 173 141 155Z" glyph-name="glyph00895" horiz-adv-x="499" /><glyph d="M176 227H64V338H176Z" glyph-name="glyph00962" horiz-adv-x="240" /><glyph d="M283 237H50V327H283Z" glyph-name="glyph00964" horiz-adv-x="333" /><glyph d="M50 237V327H450V237Z" glyph-name="glyph00965" horiz-adv-x="500" /><glyph d="M700 237H50V327H700Z" glyph-name="glyph00966" horiz-adv-x="750" /><glyph d="M950 237H50V327H950Z" glyph-name="glyph00967" horiz-adv-x="1000" /><glyph d="M650 237H50V327H650Z" glyph-name="glyph00968" horiz-adv-x="700" /><glyph d="M1350 237H50V327H1350Z" glyph-name="glyph00969" horiz-adv-x="1400" /><glyph d="M25 364H98Q120 451 180.5 496.5Q241 542 335 542Q394 542 435 529.5Q476 517 503 495.5Q530 474 544.5 444Q559 414 565 378L466 366Q457 409 427 433.5Q397 458 335 457Q235 454 198 364H423L398 285H181V245H385L360 166H198Q235 75 335 73Q397 72 427 96.5Q457 121 466 164L565 152Q559 116 544.5 86Q530 56 503 34.5Q476 13 435 0.5Q394 -12 335 -12Q241 -12 180.5 33.5Q120 79 98 166H25V245H87V285H25Z" glyph-name="glyph01066" horiz-adv-x="612" /><glyph d="M228 -77H139L157 -3Q117 6 90 19Q63 32 46 45L69 132Q89 120 115.5 106.5Q142 93 178 85L216 239Q188 244 159.5 251.5Q131 259 108.5 274.5Q86 290 72 314.5Q58 339 58 376Q58 422 79 453.5Q100 485 133 504.5Q166 524 207.5 532.5Q249 541 291 541L307 607H396L378 533Q423 525 454 511Q485 497 506 483L484 396Q460 411 430 424.5Q400 438 356 446L322 307Q354 303 386 295Q418 287 443.5 271Q469 255 485 228.5Q501 202 501 159Q501 107 478 73.5Q455 40 418.5 20.5Q382 1 336 -6.5Q290 -14 245 -14ZM401 154Q401 189 379 203Q357 217 302 226L265 75H266Q293 75 317.5 80.5Q342 86 360.5 96.5Q379 107 390 121.5Q401 136 401 154ZM160 380Q160 352 176 340Q192 328 236 320L269 453H268Q247 453 227.5 448Q208 443 193 433Q178 423 169 410Q160 397 160 380Z" glyph-name="glyph01067" horiz-adv-x="553" /><glyph d="M182 8Q115 37 79.5 102Q44 167 44 265Q44 399 109 470.5Q174 542 292 542Q297 542 302.5 542Q308 542 313 541L329 607H418L398 527Q458 508 486 469Q514 430 522 378L423 366Q418 390 407 408Q396 426 376 438L286 73H295Q356 73 385 97.5Q414 122 423 164L522 152Q516 116 501.5 86Q487 56 460 34.5Q433 13 392 0.5Q351 -12 292 -12Q285 -12 278.5 -11.5Q272 -11 266 -11L250 -77H161ZM138 265Q138 205 155 164Q172 123 204 100L292 457Q221 457 179.5 406.5Q138 356 138 265Z" glyph-name="glyph01068" horiz-adv-x="612" /><glyph d="M224 303H424V227H224V89H576V0H43V89H128V227H43V303H128V349Q128 396 144.5 432Q161 468 191 492.5Q221 517 262.5 529.5Q304 542 353 542Q409 542 449 529.5Q489 517 515.5 495.5Q542 474 555.5 445.5Q569 417 571 385L472 372Q470 390 463 405.5Q456 421 441.5 432Q427 443 405.5 449Q384 455 353 454Q224 452 224 350Z" glyph-name="glyph01069" horiz-adv-x="618" /><glyph d="M23 227V302H132V337Q132 379 141.5 416Q151 453 173.5 480.5Q196 508 233 524.5Q270 541 324 541Q343 541 363.5 538Q384 535 397 530L388 440Q381 443 368 447Q355 451 337 453Q310 453 289.5 448.5Q269 444 255.5 430.5Q242 417 235 393Q228 369 228 330V302H376V227H228V-7Q228 -49 218.5 -86Q209 -123 186.5 -151Q164 -179 127.5 -195Q91 -211 36 -211Q16 -211 -3.5 -208Q-23 -205 -36 -200L-27 -110Q-20 -113 -7 -118Q6 -123 23 -123Q50 -123 70.5 -118.5Q91 -114 104.5 -100.5Q118 -87 125 -63Q132 -39 132 0V227Z" glyph-name="glyph01070" horiz-adv-x="420" /><glyph d="M92 156H250V196H92V275H201L32 530H145L222 411L298 285L374 411L451 530H564L394 275H504V196H347V156H504V77H347V0H250V77H92Z" glyph-name="glyph01071" horiz-adv-x="596" /><glyph d="M493 607 451 502Q483 479 499.5 447.5Q516 416 522 378L423 366Q418 386 411 400L282 73H292Q354 72 384 96.5Q414 121 423 164L522 152Q516 116 501.5 86Q487 56 460 34.5Q433 13 392 0.5Q351 -12 292 -12Q270 -12 249 -9L223 -77H148L182 8Q169 13 161 19L123 -77H48L104 66Q44 138 44 265Q44 399 109 470.5Q174 542 292 542L318 607H393L365 536L388 530L418 607ZM138 265Q138 217 150 181L257 452Q201 440 169.5 393Q138 346 138 265ZM355 448Q350 450 344.5 451Q339 452 333 454L196 107Q201 103 205.5 99.5Q210 96 215 93L355 448Z" glyph-name="glyph01072" horiz-adv-x="560" /><glyph d="M479 235Q445 235 416 224Q387 213 365.5 195Q344 177 330.5 155Q317 133 313 110V74Q364 78 389.5 101.5Q415 125 423 164L522 152Q516 116 501.5 86Q487 56 460 34.5Q433 13 392 0.5Q351 -12 292 -12Q174 -12 109 59.5Q44 131 44 265Q44 399 109 470.5Q174 542 292 542Q351 542 392 529.5Q433 517 460 495.5Q487 474 501.5 444Q516 414 522 378L423 366Q414 409 384 433.5Q354 458 292 457Q221 455 179.5 406.5Q138 358 138 265Q138 199 159 155.5Q180 112 218 91V184L211 315H298L311 234Q334 275 378 301Q422 327 476 327Q488 327 501 326Q514 325 523 323L514 231Q506 233 497.5 234Q489 235 479 235Z" glyph-name="glyph01073" horiz-adv-x="560" /><glyph d="M143 353V530H540V438H243V353H473V274H243V234H473V155H243V0H143V155H36V234H143V274H36V353Z" glyph-name="glyph01074" horiz-adv-x="576" /><glyph d="M224 144V89H576V0H43V89H128V144H43V223H128V263H43V342H128V349Q128 396 144.5 432Q161 468 191 492.5Q221 517 262.5 529.5Q304 542 353 542Q409 542 449 529.5Q489 517 515.5 495.5Q542 474 555.5 445.5Q569 417 571 385L472 372Q470 390 463 405.5Q456 421 441.5 432Q427 443 405.5 449Q384 455 353 454Q224 452 224 350V342H424V263H224V223H424V144Z" glyph-name="glyph01075" horiz-adv-x="622" /><glyph d="M101 364V530H225L339 364H500V530H599V364H672V285H599V245H672V166H599V0H475L360 166H200V0H101V166H28V245H101V285H28V364ZM200 245H306L278 285H200ZM421 245H500V285H394ZM200 364H224L200 399ZM500 131V166H476Z" glyph-name="glyph01076" horiz-adv-x="700" /><glyph d="M1216 72Q1242 73 1267.5 77Q1293 81 1313 90.5Q1333 100 1345 116Q1357 132 1357 156Q1357 180 1347.5 193.5Q1338 207 1320 214Q1302 221 1275.5 224Q1249 227 1215 231Q1181 235 1143.5 240.5Q1106 246 1074.5 260.5Q1043 275 1022.5 301.5Q1002 328 1002 374Q1002 420 1022 452Q1042 484 1073 504Q1104 524 1142 533Q1180 542 1216 542Q1325 542 1378 500.5Q1431 459 1442 384L1342 372Q1334 414 1305.5 436.5Q1277 459 1216 458Q1197 458 1176 454.5Q1155 451 1138.5 443Q1122 435 1111 420Q1100 405 1100 381Q1100 361 1109 349Q1118 337 1135.5 330.5Q1153 324 1177 320.5Q1201 317 1231 314Q1269 310 1309 305Q1349 300 1381.5 285Q1414 270 1435 241Q1456 212 1456 161Q1456 114 1435 81Q1414 48 1380 27.5Q1346 7 1303 -2.5Q1260 -12 1217 -12Q1163 -12 1122.5 -1.5Q1082 9 1054 29Q1030 12 991 0Q952 -12 892 -12Q846 -12 813.5 -2Q781 8 759 25Q735 10 697 -1Q659 -12 603 -12Q555 -12 522.5 -2Q490 8 468 27Q413 -12 328 -12Q274 -12 230 10.5Q186 33 160 71V-200H65V398L58 530H145L157 454Q182 495 227.5 518.5Q273 542 328 542Q444 542 505.5 470.5Q567 399 567 265Q567 214 557.5 172Q548 130 531 98Q543 85 560.5 80.5Q578 76 603 76Q638 76 665 84.5Q692 93 708 107Q703 127 701 148.5Q699 170 699 193V449H603V530H699V672L794 688V530H956V449H794V199Q794 162 800 138Q806 114 818 100Q830 86 848.5 81Q867 76 892 76Q926 76 952.5 84Q979 92 995 106Q989 126 986 147L1086 160Q1094 118 1123.5 94.5Q1153 71 1216 72ZM160 202Q163 181 175.5 158.5Q188 136 208 118Q228 100 256.5 88.5Q285 77 319 77Q388 77 428 125Q468 173 468 265Q468 358 428 405.5Q388 453 319 453Q285 453 256.5 441.5Q228 430 208 412Q188 394 175.5 372Q163 350 160 328Z" glyph-name="glyph01077" horiz-adv-x="1490" /><glyph d="M309 283Q324 283 339.5 284.5Q355 286 368 293.5Q381 301 389.5 316.5Q398 332 398 360Q398 389 389.5 404.5Q381 420 368 427.5Q355 435 339.5 436.5Q324 438 309 438H176V283ZM992 159Q992 111 970.5 78.5Q949 46 911.5 26Q874 6 823.5 -3Q773 -12 713 -12Q660 -12 604 -7Q548 -2 493.5 18.5Q439 39 386.5 79.5Q334 120 289 191H176V0H76V530H305Q340 530 374.5 522.5Q409 515 436 496Q463 477 480 444Q497 411 497 360Q497 326 489.5 301Q482 276 468.5 258Q455 240 437 228.5Q419 217 398 210Q436 155 479 127Q522 99 564.5 87Q607 75 645.5 74.5Q684 74 714 74Q798 74 845.5 91.5Q893 109 893 156Q893 180 883.5 193.5Q874 207 856 214Q838 221 811.5 224Q785 227 751 231Q717 235 679.5 240.5Q642 246 610.5 260.5Q579 275 558.5 301.5Q538 328 538 374Q538 420 558 452Q578 484 609 504Q640 524 678 533Q716 542 752 542Q861 542 914 500.5Q967 459 978 384L878 372Q870 414 841.5 436.5Q813 459 752 458Q733 458 712 454.5Q691 451 674.5 443Q658 435 647 420Q636 405 636 381Q636 361 645 349Q654 337 671.5 330.5Q689 324 713 320.5Q737 317 767 314Q805 310 845 305Q885 300 917.5 284.5Q950 269 971 240Q992 211 992 159Z" glyph-name="glyph01078" horiz-adv-x="1026" /><glyph d="M626 166 591 -12H471L431 166H325L285 -12H165L129 166H29V245H114L106 285H29V364H90L57 530H164L191 364H284L323 530H433L471 364H565L592 530H699L666 364H727V285H650L642 245H727V166ZM343 245H413L404 285H352ZM498 245H546L552 285H489ZM210 245H257L266 285H204ZM526 124 533 166H516ZM230 124 239 166H223ZM369 364H386L378 401Z" glyph-name="glyph01079" horiz-adv-x="756" /><glyph d="M315 530Q403 530 456.5 485Q510 440 510 352V152H410V337Q410 438 309 438H170V0H70V530ZM240 0V368H340V92H479Q580 92 580 193V530H680V178Q680 90 626.5 45Q573 0 485 0Z" glyph-name="glyph01080" horiz-adv-x="750" /><glyph d="M95 247 196 297V438H20V530H472V438H296V347L409 403V321L296 265V215L409 271V189L296 133V0H196V83L95 33V115L196 165V215L95 165Z" glyph-name="glyph01081" horiz-adv-x="492" /><glyph d="M518 320Q511 281 492.5 256.5Q474 232 448.5 217.5Q423 203 392.5 197.5Q362 192 330 192H200V0H101V320H28V399H101V530H330Q362 530 393 524.5Q424 519 450 504Q476 489 494.5 463.5Q513 438 519 399H592V320ZM200 399H417Q412 414 402.5 422Q393 430 382 434Q371 438 358.5 439Q346 440 334 440H200ZM334 283Q345 283 357 283.5Q369 284 380.5 288Q392 292 401 299.5Q410 307 416 320H200V283Z" glyph-name="glyph01082" horiz-adv-x="620" /><glyph d="M244 0 218 -100H129L153 0H79V564H292L317 664H406L381 564Q408 563 437.5 556Q467 549 491 532Q515 515 530.5 486.5Q546 458 546 413Q546 362 524 334Q502 306 475 298Q512 291 537.5 256Q563 221 563 164Q563 114 546.5 82Q530 50 502 32Q474 14 439 7Q404 0 366 0ZM365 87Q386 87 404 90Q422 93 435.5 102Q449 111 457 126.5Q465 142 465 166Q465 214 437.5 230.5Q410 247 371 247H175V87ZM175 476V334H359Q405 334 426.5 351Q448 368 448 409Q448 447 427.5 461.5Q407 476 359 476Z" glyph-name="glyph01083" horiz-adv-x="602" /><glyph d="M226 454 265 607H362L322 454H471L511 607H607L567 454H662V364H544L494 166H590V76H470L431 -77H335L374 76H225L186 -77H90L129 76H35V166H152L203 364H106V454ZM248 166H397L448 364H299Z" glyph-name="glyph01084" horiz-adv-x="696" /><glyph d="M330 77Q368 77 399.5 87.5Q431 98 454.5 122.5Q478 147 491 186Q504 225 504 282Q504 339 491 378Q478 417 454.5 441.5Q431 466 399.5 476.5Q368 487 330 487Q293 487 261 476.5Q229 466 205.5 441.5Q182 417 169 378Q156 339 156 282Q156 225 169 186Q182 147 205.5 122.5Q229 98 261 87.5Q293 77 330 77ZM330 -12Q269 -12 218.5 5.5Q168 23 132 59Q96 95 76.5 150.5Q57 206 57 282Q57 358 76.5 413.5Q96 469 131.5 505Q167 541 217.5 558.5Q268 576 330 576Q392 576 442 558.5Q492 541 528 505Q564 469 583.5 413.5Q603 358 603 282Q603 206 583.5 150.5Q564 95 528.5 59Q493 23 442.5 5.5Q392 -12 330 -12Z" glyph-name="glyph01105" horiz-adv-x="660" /><glyph d="M206 0V431Q168 395 120.5 373Q73 351 31 338V434Q65 447 91 460.5Q117 474 139 490Q161 506 180.5 526.5Q200 547 222 574H303V0Z" glyph-name="glyph01106" horiz-adv-x="420" /><glyph d="M54 3Q52 76 67.5 125.5Q83 175 113.5 207.5Q144 240 189 259.5Q234 279 291 292Q319 298 344.5 306Q370 314 389 326Q408 338 419.5 355Q431 372 431 397Q431 450 394 470.5Q357 491 298 491Q232 491 204 469.5Q176 448 168 402L68 415Q77 489 131 532.5Q185 576 299 576Q343 576 385.5 566.5Q428 557 461 535.5Q494 514 514 479.5Q534 445 534 396Q534 350 515.5 319.5Q497 289 467 269Q437 249 398.5 236.5Q360 224 321 215Q246 197 204 164.5Q162 132 160 89L318 90H544V0H54Z" glyph-name="glyph01107" horiz-adv-x="604" /><glyph d="M311 -91Q354 -92 389.5 -85.5Q425 -79 450.5 -64Q476 -49 490 -24.5Q504 0 504 35Q504 81 489.5 107.5Q475 134 450.5 147Q426 160 394 163.5Q362 167 326 167H217V255H322Q357 255 386 256.5Q415 258 436 268Q457 278 469 301.5Q481 325 481 368Q481 401 469.5 424.5Q458 448 437 462Q416 476 386 482Q356 488 319 488Q241 486 202 456Q163 426 155 360L55 370Q61 417 79 455Q97 493 129 520Q161 547 208 561.5Q255 576 318 576Q372 576 419 565.5Q466 555 501.5 530.5Q537 506 557.5 466.5Q578 427 578 368Q578 331 569.5 304.5Q561 278 547 259.5Q533 241 513.5 230.5Q494 220 471 214Q495 209 518 196Q541 183 560 161.5Q579 140 590.5 108Q602 76 602 32Q602 -15 583.5 -54Q565 -93 529 -120.5Q493 -148 438.5 -163Q384 -178 312 -178Q249 -178 201 -163Q153 -148 120 -121Q87 -94 68.5 -56Q50 -18 44 28L144 39Q153 -27 192 -58Q231 -89 311 -91Z" glyph-name="glyph01108" horiz-adv-x="652" /><glyph d="M485 34V-166H389V34H35V100L401 574H485V122H628V34ZM389 352 391 432 212 195 155 122H389Z" glyph-name="glyph01109" horiz-adv-x="664" /><glyph d="M335 -91Q373 -91 406 -82Q439 -73 463.5 -53Q488 -33 502 -1.5Q516 30 516 76Q516 120 504 151.5Q492 183 469.5 202.5Q447 222 416 231.5Q385 241 346 242Q290 243 243 227Q196 211 167 174L81 195L118 564H572V474H203L184 284Q218 307 261 317Q304 327 349 327Q476 329 544.5 266Q613 203 613 75Q613 12 592 -35.5Q571 -83 534 -114.5Q497 -146 446.5 -162Q396 -178 336 -178Q267 -178 216 -163.5Q165 -149 130.5 -122.5Q96 -96 76.5 -57.5Q57 -19 51 29L152 39Q163 -27 205.5 -60Q248 -93 335 -91Z" glyph-name="glyph01110" horiz-adv-x="659" /><glyph d="M526 605Q507 700 380 700Q334 700 294 683Q254 666 225 631Q196 596 179 541.5Q162 487 162 413Q194 463 246 484Q298 505 373 505Q494 505 562.5 439Q631 373 631 246Q631 183 611 135Q591 87 555 54.5Q519 22 469.5 5Q420 -12 361 -12Q208 -12 137.5 88Q67 188 67 387Q67 583 151 687Q235 791 390 791Q446 791 487 777Q528 763 557 739Q586 715 602.5 683.5Q619 652 625 617L526 605ZM530 246Q530 291 518 323Q506 355 484.5 375Q463 395 433.5 404.5Q404 414 368 414Q325 414 288 401Q251 388 224.5 362.5Q198 337 185 300Q172 263 177 215Q196 143 239.5 111Q283 79 353 79Q390 79 422.5 88Q455 97 479 117Q503 137 516.5 169Q530 201 530 246Z" glyph-name="glyph01111" horiz-adv-x="689" /><glyph d="M124 -166 380 383 424 475 248 474H36V564H536V498L229 -166Z" glyph-name="glyph01112" horiz-adv-x="572" /><glyph d="M343 76Q431 76 483.5 109Q536 142 536 212Q536 257 518.5 285.5Q501 314 473 330Q445 346 410.5 352Q376 358 343 358Q310 358 275.5 352Q241 346 213 330Q185 314 167.5 285.5Q150 257 150 212Q150 142 202.5 109Q255 76 343 76ZM343 792Q393 792 441.5 780.5Q490 769 528 743.5Q566 718 589.5 677.5Q613 637 613 580Q613 544 603.5 514Q594 484 577.5 460.5Q561 437 539 422Q517 407 492 401Q518 395 543.5 381Q569 367 589.5 343.5Q610 320 622.5 286Q635 252 635 207Q635 107 559 47.5Q483 -12 343 -12Q203 -12 127 47.5Q51 107 51 207Q51 252 63.5 286Q76 320 96.5 343.5Q117 367 142.5 381Q168 395 194 401Q169 407 147 422Q125 437 108.5 460.5Q92 484 82.5 514Q73 544 73 580Q73 637 96.5 677.5Q120 718 158 743.5Q196 769 244.5 780.5Q293 792 343 792ZM343 702Q308 702 277 695.5Q246 689 222.5 674Q199 659 185.5 635Q172 611 172 576Q172 534 186.5 507.5Q201 481 225 466.5Q249 452 279.5 446.5Q310 441 343 441Q376 441 406.5 446.5Q437 452 461 466.5Q485 481 499.5 507.5Q514 534 514 576Q514 611 500.5 635Q487 659 464 674Q441 689 409.5 695.5Q378 702 343 702Z" glyph-name="glyph01113" horiz-adv-x="686" /><glyph d="M171 -4Q188 -89 310 -89Q357 -89 396 -77Q435 -65 463 -36.5Q491 -8 507 38.5Q523 85 524 155Q506 131 481 115Q456 99 427.5 88.5Q399 78 369.5 73.5Q340 69 314 69Q196 69 126.5 133.5Q57 198 57 321Q57 383 77 430Q97 477 133 509.5Q169 542 218.5 558.5Q268 575 327 575Q406 575 462 550.5Q518 526 553 477Q588 428 604.5 353.5Q621 279 621 180Q621 86 600 18Q579 -50 538.5 -93Q498 -136 439 -156.5Q380 -177 304 -177Q247 -177 206 -164.5Q165 -152 136.5 -130.5Q108 -109 91.5 -80Q75 -51 69 -17L171 -4ZM318 160Q362 160 399.5 173Q437 186 463.5 210.5Q490 235 502.5 270.5Q515 306 509 351Q489 423 446 453Q403 483 331 483Q295 483 263 474Q231 465 207.5 445.5Q184 426 170.5 395.5Q157 365 157 321Q157 278 169 248Q181 218 202 198.5Q223 179 252.5 169.5Q282 160 318 160Z" glyph-name="glyph01114" horiz-adv-x="689" /><glyph d="M350 78Q389 78 424 88Q459 98 485 122Q511 146 526.5 185Q542 224 542 282Q542 340 526.5 379Q511 418 485 442Q459 466 424 476Q389 486 350 486Q311 486 276 476Q241 466 215 442Q189 418 173.5 379Q158 340 158 282Q158 224 173.5 185Q189 146 215 122Q241 98 276 88Q311 78 350 78ZM350 -12Q288 -12 234.5 5Q181 22 141.5 58Q102 94 79.5 149.5Q57 205 57 282Q57 359 79.5 414.5Q102 470 141 506Q180 542 233.5 559Q287 576 350 576Q412 576 465.5 559Q519 542 558.5 506Q598 470 620.5 414.5Q643 359 643 282Q643 205 620.5 149.5Q598 94 559 58Q520 22 466.5 5Q413 -12 350 -12Z" glyph-name="glyph01115" horiz-adv-x="700" /><glyph d="M114 0V90H324V430Q285 392 226.5 363.5Q168 335 100 318V414Q144 426 178 442Q212 458 240.5 478Q269 498 293 522Q317 546 340 576H421V90H635V0Z" glyph-name="glyph01116" horiz-adv-x="700" /><glyph d="M68 0Q65 70 80 119.5Q95 169 127 203Q159 237 210 258Q261 279 330 292Q383 303 420 309Q457 315 480 324Q503 333 513.5 347Q524 361 524 388Q524 421 510.5 440.5Q497 460 474.5 470.5Q452 481 422 484Q392 487 358 487Q273 487 230 462Q187 437 178 380L78 391Q89 480 155.5 528Q222 576 358 576Q419 576 468.5 566Q518 556 552.5 533.5Q587 511 606 475.5Q625 440 625 389Q625 337 602.5 307.5Q580 278 542 260.5Q504 243 454 233.5Q404 224 349 213Q299 202 265.5 188.5Q232 175 211.5 159.5Q191 144 182.5 126.5Q174 109 173 90L342 91H642V0H68Z" glyph-name="glyph01117" horiz-adv-x="700" /><glyph d="M335 -124Q438 -125 489.5 -92Q541 -59 541 15Q541 63 524.5 89.5Q508 116 481.5 129Q455 142 421 145Q387 148 352 148H243V239H352Q387 239 416.5 242Q446 245 467.5 257.5Q489 270 501 295Q513 320 513 364Q513 433 465.5 460.5Q418 488 341 486Q296 486 264.5 478.5Q233 471 212 455.5Q191 440 179.5 415Q168 390 164 355L64 365Q70 412 87 451Q104 490 137 518Q170 546 220 561Q270 576 341 576Q397 576 446.5 564.5Q496 553 532.5 527.5Q569 502 590.5 461.5Q612 421 612 364Q612 327 602 298Q592 269 575 248.5Q558 228 536 215.5Q514 203 491 198Q516 194 542.5 181Q569 168 590.5 145.5Q612 123 626 90.5Q640 58 640 15Q640 -34 622 -75.5Q604 -117 567 -147.5Q530 -178 472.5 -195Q415 -212 335 -212Q263 -212 212 -196.5Q161 -181 127.5 -152.5Q94 -124 76.5 -84.5Q59 -45 53 2L153 13Q162 -58 203 -90.5Q244 -123 335 -124Z" glyph-name="glyph01118" horiz-adv-x="700" /><glyph d="M504 0V-200H407V0H53V68L417 575H504V91H646V0ZM407 330 408 425 348 336 173 90 263 91H407Z" glyph-name="glyph01119" horiz-adv-x="700" /><glyph d="M350 -124Q386 -123 420 -113.5Q454 -104 480.5 -83Q507 -62 523 -29Q539 4 539 52Q539 99 527.5 132.5Q516 166 493.5 187.5Q471 209 438.5 219Q406 229 365 230Q308 231 260.5 213.5Q213 196 185 160L101 180L140 564H592V473H223L201 268Q232 292 276.5 303.5Q321 315 367 315Q496 315 566.5 249Q637 183 637 52Q637 -13 614.5 -62.5Q592 -112 553.5 -145Q515 -178 462.5 -195Q410 -212 350 -212Q277 -212 226 -197Q175 -182 141 -154.5Q107 -127 89 -87.5Q71 -48 65 0L165 11Q170 -26 183 -52Q196 -78 218 -94Q240 -110 272.5 -117.5Q305 -125 350 -124Z" glyph-name="glyph01120" horiz-adv-x="700" /><glyph d="M525 583Q506 685 377 685Q331 685 291 671Q251 657 222 625.5Q193 594 176 542.5Q159 491 159 417H161Q181 443 206 460.5Q231 478 259 488.5Q287 499 316 503Q345 507 372 507Q432 507 480 489.5Q528 472 562 438.5Q596 405 614.5 356Q633 307 633 245Q633 183 612.5 135Q592 87 555.5 54.5Q519 22 469 5Q419 -12 360 -12Q206 -12 135 86.5Q64 185 64 387Q64 582 148.5 679Q233 776 385 776Q442 776 484.5 761Q527 746 556.5 721Q586 696 603 663Q620 630 625 595ZM529 245Q529 291 516.5 323Q504 355 482 375Q460 395 429 404Q398 413 362 413Q323 413 289 402Q255 391 229.5 369.5Q204 348 189 316Q174 284 174 241Q174 236 174 230Q174 224 175 214Q194 142 238 110Q282 78 352 78Q389 78 421 87Q453 96 477 116Q501 136 515 168Q529 200 529 245Z" glyph-name="glyph01121" horiz-adv-x="700" /><glyph d="M193 -200 486 383 530 474 356 473H60V564H644V498L298 -200Z" glyph-name="glyph01122" horiz-adv-x="700" /><glyph d="M350 685Q315 685 284 679.5Q253 674 229.5 660Q206 646 192.5 622.5Q179 599 179 563Q179 521 193.5 495.5Q208 470 232 456.5Q256 443 286.5 438.5Q317 434 350 434Q383 434 413.5 438.5Q444 443 468 456.5Q492 470 506.5 495.5Q521 521 521 563Q521 599 507.5 622.5Q494 646 470.5 660Q447 674 416 679.5Q385 685 350 685ZM350 350Q317 350 282.5 344.5Q248 339 220 323.5Q192 308 174.5 280Q157 252 157 207Q157 137 209.5 107Q262 77 350 77Q438 77 490.5 107Q543 137 543 207Q543 252 525.5 280Q508 308 480 323.5Q452 339 417.5 344.5Q383 350 350 350ZM350 -12Q202 -12 130.5 44Q59 100 59 201Q59 247 71.5 280.5Q84 314 104 337.5Q124 361 149.5 374.5Q175 388 201 394Q176 400 154 414.5Q132 429 115.5 451Q99 473 89.5 502.5Q80 532 80 568Q80 625 102 665Q124 705 161.5 729.5Q199 754 248 765Q297 776 350 776Q403 776 452 765Q501 754 538.5 729.5Q576 705 598 665Q620 625 620 568Q620 532 610.5 502.5Q601 473 584.5 451Q568 429 546 414.5Q524 400 499 394Q525 388 550.5 374.5Q576 361 596 337.5Q616 314 628.5 280.5Q641 247 641 201Q641 100 569.5 44Q498 -12 350 -12Z" glyph-name="glyph01123" horiz-adv-x="700" /><glyph d="M172 -19Q192 -121 320 -121Q367 -121 406.5 -107Q446 -93 475 -61.5Q504 -30 521 21.5Q538 73 538 147H536Q517 121 491.5 103.5Q466 86 438 75.5Q410 65 381 61Q352 57 325 57Q265 57 217 74.5Q169 92 135 125.5Q101 159 82.5 208Q64 257 64 319Q64 381 84.5 429Q105 477 141.5 509.5Q178 542 228 559Q278 576 337 576Q491 576 562 477.5Q633 379 633 177Q633 -18 548.5 -115Q464 -212 312 -212Q255 -212 212.5 -197Q170 -182 140.5 -157Q111 -132 94 -99Q77 -66 72 -31ZM168 319Q168 273 180.5 241Q193 209 215 189Q237 169 268 160Q299 151 335 151Q374 151 408 162Q442 173 467.5 194.5Q493 216 508 248Q523 280 523 323Q523 328 523 334Q523 340 522 350Q503 422 459 454Q415 486 345 486Q308 486 276 477Q244 468 220 448Q196 428 182 396Q168 364 168 319Z" glyph-name="glyph01124" horiz-adv-x="700" /><glyph d="M231 0H119V111H231Z" glyph-name="glyph01170" horiz-adv-x="350" /><glyph d="M234 111 148 -149H87L119 111Z" glyph-name="glyph01171" horiz-adv-x="350" /><glyph d="M231 0H119V111H231ZM231 354H119V465H231Z" glyph-name="glyph01172" horiz-adv-x="350" /><glyph d="M231 354H119V465H231ZM234 111 148 -149H87L119 111Z" glyph-name="glyph01173" horiz-adv-x="350" /><glyph d="M1230 333Q1192 333 1165 310.5Q1138 288 1137 229Q1169 265 1234 265Q1373 265 1373 129Q1373 58 1330 23Q1287 -12 1219 -12Q1132 -12 1092.5 39.5Q1053 91 1053 200Q1053 306 1099 357.5Q1145 409 1231 409Q1297 409 1333 378.5Q1369 348 1374 297L1288 290Q1279 332 1230 333ZM322 0H218L736 764H840ZM171 446V655Q148 636 115.5 624.5Q83 613 45 606V689Q88 698 123 719.5Q158 741 188 776H255V446H370V367H56V446ZM771 79V288Q748 269 715.5 257.5Q683 246 645 239V322Q688 331 723 352.5Q758 374 788 409H855V79H970V0H656V79ZM1223 195Q1190 195 1167.5 177.5Q1145 160 1145 125Q1146 94 1168 79Q1190 64 1217 64Q1246 64 1266.5 79Q1287 94 1287 129Q1287 164 1269.5 179Q1252 194 1223 195Z" glyph-name="glyph01191" horiz-adv-x="1219" /><glyph d="M1229 333Q1191 333 1164 310.5Q1137 288 1136 229Q1168 265 1233 265Q1372 265 1372 129Q1372 58 1329 23Q1286 -12 1218 -12Q1131 -12 1091.5 39.5Q1052 91 1052 200Q1052 306 1098 357.5Q1144 409 1230 409Q1296 409 1332 378.5Q1368 348 1373 297L1287 290Q1278 332 1229 333ZM321 0H217L735 764H839ZM209 435Q297 433 297 488Q297 506 290.5 516Q284 526 273 530.5Q262 535 248 535.5Q234 536 219 536H155V606H220Q247 606 265 612.5Q283 619 283 650Q283 676 263 687.5Q243 699 213 699Q177 698 157.5 686Q138 674 134 642L48 649Q53 714 92.5 745Q132 776 212 776Q243 776 271 769.5Q299 763 320.5 749Q342 735 355 711.5Q368 688 368 655Q368 620 353 600.5Q338 581 320 573Q342 565 361.5 543.5Q381 522 381 480Q381 424 339 389.5Q297 355 207 355Q127 355 86 388Q45 421 40 485L125 492Q130 460 150.5 447Q171 434 209 435ZM770 79V288Q747 269 714.5 257.5Q682 246 644 239V322Q687 331 722 352.5Q757 374 787 409H854V79H969V0H655V79ZM1222 195Q1189 195 1166.5 177.5Q1144 160 1144 125Q1145 94 1167 79Q1189 64 1216 64Q1245 64 1265.5 79Q1286 94 1286 129Q1286 164 1268.5 179Q1251 194 1222 195Z" glyph-name="glyph01192" horiz-adv-x="1348" /><glyph d="M1214 333Q1176 333 1149 310.5Q1122 288 1121 229Q1153 265 1218 265Q1357 265 1357 129Q1357 58 1314 23Q1271 -12 1203 -12Q1116 -12 1076.5 39.5Q1037 91 1037 200Q1037 306 1083 357.5Q1129 409 1215 409Q1281 409 1317 378.5Q1353 348 1358 297L1272 290Q1263 332 1214 333ZM306 0H202L720 764H824ZM206 432Q235 432 258 447.5Q281 463 281 500Q281 571 211 571Q186 571 166 563Q146 555 134 538L61 554L84 764H345V684H157L149 619Q161 627 179.5 631Q198 635 217 635Q286 636 326 603Q366 570 366 498Q366 461 353.5 434Q341 407 319.5 389.5Q298 372 268.5 363.5Q239 355 205 355Q125 355 88 387Q51 419 45 482L130 490Q135 456 153 443.5Q171 431 206 432ZM755 79V288Q732 269 699.5 257.5Q667 246 629 239V322Q672 331 707 352.5Q742 374 772 409H839V79H954V0H640V79ZM1207 195Q1174 195 1151.5 177.5Q1129 160 1129 125Q1130 94 1152 79Q1174 64 1201 64Q1230 64 1250.5 79Q1271 94 1271 129Q1271 164 1253.5 179Q1236 194 1207 195Z" glyph-name="glyph01193" horiz-adv-x="1333" /><glyph d="M1142 333Q1104 333 1077 310.5Q1050 288 1049 229Q1081 265 1146 265Q1285 265 1285 129Q1285 58 1242 23Q1199 -12 1131 -12Q1044 -12 1004.5 39.5Q965 91 965 200Q965 306 1011 357.5Q1057 409 1143 409Q1209 409 1245 378.5Q1281 348 1286 297L1200 290Q1191 332 1142 333ZM234 0H130L648 764H752ZM683 79V288Q660 269 627.5 257.5Q595 246 557 239V322Q600 331 635 352.5Q670 374 700 409H767V79H882V0H568V79ZM87 367 217 639 239 684H37V764H341V710L180 367ZM1135 195Q1102 195 1079.5 177.5Q1057 160 1057 125Q1058 94 1080 79Q1102 64 1129 64Q1158 64 1178.5 79Q1199 94 1199 129Q1199 164 1181.5 179Q1164 194 1135 195Z" glyph-name="glyph01194" horiz-adv-x="1261" /><glyph d="M189 431Q227 431 254 453.5Q281 476 282 535Q250 499 185 499Q46 499 46 635Q46 671 57.5 697.5Q69 724 89.5 741.5Q110 759 138 767.5Q166 776 200 776Q287 776 326.5 724.5Q366 673 366 564Q366 458 320 406.5Q274 355 188 355Q122 355 86 385.5Q50 416 45 467L131 474Q140 432 189 431ZM1223 333Q1185 333 1158 310.5Q1131 288 1130 229Q1162 265 1227 265Q1366 265 1366 129Q1366 58 1323 23Q1280 -12 1212 -12Q1125 -12 1085.5 39.5Q1046 91 1046 200Q1046 306 1092 357.5Q1138 409 1224 409Q1290 409 1326 378.5Q1362 348 1367 297L1281 290Q1272 332 1223 333ZM315 0H211L729 764H833ZM764 79V288Q741 269 708.5 257.5Q676 246 638 239V322Q681 331 716 352.5Q751 374 781 409H848V79H963V0H649V79ZM1216 195Q1183 195 1160.5 177.5Q1138 160 1138 125Q1139 94 1161 79Q1183 64 1210 64Q1239 64 1259.5 79Q1280 94 1280 129Q1280 164 1262.5 179Q1245 194 1216 195ZM196 569Q229 569 251.5 586.5Q274 604 274 639Q273 670 251 685Q229 700 202 700Q173 700 152.5 685Q132 670 132 635Q132 600 149.5 585Q167 570 196 569Z" glyph-name="glyph01195" horiz-adv-x="1342" /><glyph d="M1630 333Q1592 333 1565 310.5Q1538 288 1537 229Q1569 265 1634 265Q1773 265 1773 129Q1773 58 1730 23Q1687 -12 1619 -12Q1532 -12 1492.5 39.5Q1453 91 1453 200Q1453 306 1499 357.5Q1545 409 1631 409Q1697 409 1733 378.5Q1769 348 1774 297L1688 290Q1679 332 1630 333ZM722 0H618L1136 764H1240ZM1171 79V288Q1148 269 1115.5 257.5Q1083 246 1045 239V322Q1088 331 1123 352.5Q1158 374 1188 409H1255V79H1370V0H1056V79ZM171 446V655Q148 636 115.5 624.5Q83 613 45 606V689Q88 698 123 719.5Q158 741 188 776H255V446H370V367H56V446ZM571 446V655Q548 636 515.5 624.5Q483 613 445 606V689Q488 698 523 719.5Q558 741 588 776H655V446H770V367H456V446ZM1623 195Q1590 195 1567.5 177.5Q1545 160 1545 125Q1546 94 1568 79Q1590 64 1617 64Q1646 64 1666.5 79Q1687 94 1687 129Q1687 164 1669.5 179Q1652 194 1623 195Z" glyph-name="glyph01196" horiz-adv-x="1516" /><glyph d="M1656 333Q1618 333 1591 310.5Q1564 288 1563 229Q1595 265 1660 265Q1799 265 1799 129Q1799 58 1756 23Q1713 -12 1645 -12Q1558 -12 1518.5 39.5Q1479 91 1479 200Q1479 306 1525 357.5Q1571 409 1657 409Q1723 409 1759 378.5Q1795 348 1800 297L1714 290Q1705 332 1656 333ZM748 0H644L1162 764H1266ZM636 435Q724 433 724 488Q724 506 717.5 516Q711 526 700 530.5Q689 535 675 535.5Q661 536 646 536H582V606H647Q674 606 692 612.5Q710 619 710 650Q710 676 690 687.5Q670 699 640 699Q604 698 584.5 686Q565 674 561 642L475 649Q480 714 519.5 745Q559 776 639 776Q670 776 698 769.5Q726 763 747.5 749Q769 735 782 711.5Q795 688 795 655Q795 620 780 600.5Q765 581 747 573Q769 565 788.5 543.5Q808 522 808 480Q808 424 766 389.5Q724 355 634 355Q554 355 513 388Q472 421 467 485L552 492Q557 460 577.5 447Q598 434 636 435ZM1197 79V288Q1174 269 1141.5 257.5Q1109 246 1071 239V322Q1114 331 1149 352.5Q1184 374 1214 409H1281V79H1396V0H1082V79ZM171 446V655Q148 636 115.5 624.5Q83 613 45 606V689Q88 698 123 719.5Q158 741 188 776H255V446H370V367H56V446ZM1649 195Q1616 195 1593.5 177.5Q1571 160 1571 125Q1572 94 1594 79Q1616 64 1643 64Q1672 64 1692.5 79Q1713 94 1713 129Q1713 164 1695.5 179Q1678 194 1649 195Z" glyph-name="glyph01197" horiz-adv-x="1645" /><glyph d="M1641 333Q1603 333 1576 310.5Q1549 288 1548 229Q1580 265 1645 265Q1784 265 1784 129Q1784 58 1741 23Q1698 -12 1630 -12Q1543 -12 1503.5 39.5Q1464 91 1464 200Q1464 306 1510 357.5Q1556 409 1642 409Q1708 409 1744 378.5Q1780 348 1785 297L1699 290Q1690 332 1641 333ZM733 0H629L1147 764H1251ZM633 432Q662 432 685 447.5Q708 463 708 500Q708 571 638 571Q613 571 593 563Q573 555 561 538L488 554L511 764H772V684H584L576 619Q588 627 606.5 631Q625 635 644 635Q713 636 753 603Q793 570 793 498Q793 461 780.5 434Q768 407 746.5 389.5Q725 372 695.5 363.5Q666 355 632 355Q552 355 515 387Q478 419 472 482L557 490Q562 456 580 443.5Q598 431 633 432ZM1182 79V288Q1159 269 1126.5 257.5Q1094 246 1056 239V322Q1099 331 1134 352.5Q1169 374 1199 409H1266V79H1381V0H1067V79ZM171 446V655Q148 636 115.5 624.5Q83 613 45 606V689Q88 698 123 719.5Q158 741 188 776H255V446H370V367H56V446ZM1634 195Q1601 195 1578.5 177.5Q1556 160 1556 125Q1557 94 1579 79Q1601 64 1628 64Q1657 64 1677.5 79Q1698 94 1698 129Q1698 164 1680.5 179Q1663 194 1634 195Z" glyph-name="glyph01198" horiz-adv-x="1630" /><glyph d="M322 0H218L736 764H840ZM841 68Q929 66 929 121Q929 139 922.5 149Q916 159 905 163.5Q894 168 880 168.5Q866 169 851 169H787V239H852Q879 239 897 245.5Q915 252 915 283Q915 309 895 320.5Q875 332 845 332Q809 331 789.5 319Q770 307 766 275L680 282Q685 347 724.5 378Q764 409 844 409Q875 409 903 402.5Q931 396 952.5 382Q974 368 987 344.5Q1000 321 1000 288Q1000 253 985 233.5Q970 214 952 206Q974 198 993.5 176.5Q1013 155 1013 113Q1013 57 971 22.5Q929 -12 839 -12Q759 -12 718 21Q677 54 672 118L757 125Q762 93 782.5 80Q803 67 841 68ZM1270 409Q1303 409 1331 401Q1359 393 1380 377.5Q1401 362 1413 338Q1425 314 1425 282Q1425 250 1414 229.5Q1403 209 1385 195Q1367 181 1343.5 171.5Q1320 162 1294 153Q1255 138 1228 121Q1201 104 1195 77L1283 79H1433V0H1103Q1102 55 1113 90.5Q1124 126 1144.5 149.5Q1165 173 1194 188Q1223 203 1258 216Q1299 233 1320 245Q1341 257 1341 281Q1341 296 1334.5 305.5Q1328 315 1318 321Q1308 327 1296 329Q1284 331 1272 331Q1234 331 1214.5 319Q1195 307 1190 275L1104 282Q1116 409 1270 409ZM171 446V655Q148 636 115.5 624.5Q83 613 45 606V689Q88 698 123 719.5Q158 741 188 776H255V446H370V367H56V446Z" glyph-name="glyph01199" horiz-adv-x="1478" /><glyph d="M209 435Q297 433 297 488Q297 506 290.5 516Q284 526 273 530.5Q262 535 248 535.5Q234 536 219 536H155V606H220Q247 606 265 612.5Q283 619 283 650Q283 676 263 687.5Q243 699 213 699Q177 698 157.5 686Q138 674 134 642L48 649Q53 714 92.5 745Q132 776 212 776Q243 776 271 769.5Q299 763 320.5 749Q342 735 355 711.5Q368 688 368 655Q368 620 353 600.5Q338 581 320 573Q342 565 361.5 543.5Q381 522 381 480Q381 424 339 389.5Q297 355 207 355Q127 355 86 388Q45 421 40 485L125 492Q130 460 150.5 447Q171 434 209 435ZM321 0H217L735 764H839ZM840 68Q928 66 928 121Q928 139 921.5 149Q915 159 904 163.5Q893 168 879 168.5Q865 169 850 169H786V239H851Q878 239 896 245.5Q914 252 914 283Q914 309 894 320.5Q874 332 844 332Q808 331 788.5 319Q769 307 765 275L679 282Q684 347 723.5 378Q763 409 843 409Q874 409 902 402.5Q930 396 951.5 382Q973 368 986 344.5Q999 321 999 288Q999 253 984 233.5Q969 214 951 206Q973 198 992.5 176.5Q1012 155 1012 113Q1012 57 970 22.5Q928 -12 838 -12Q758 -12 717 21Q676 54 671 118L756 125Q761 93 781.5 80Q802 67 840 68ZM1269 409Q1302 409 1330 401Q1358 393 1379 377.5Q1400 362 1412 338Q1424 314 1424 282Q1424 250 1413 229.5Q1402 209 1384 195Q1366 181 1342.5 171.5Q1319 162 1293 153Q1254 138 1227 121Q1200 104 1194 77L1282 79H1432V0H1102Q1101 55 1112 90.5Q1123 126 1143.5 149.5Q1164 173 1193 188Q1222 203 1257 216Q1298 233 1319 245Q1340 257 1340 281Q1340 296 1333.5 305.5Q1327 315 1317 321Q1307 327 1295 329Q1283 331 1271 331Q1233 331 1213.5 319Q1194 307 1189 275L1103 282Q1115 409 1269 409Z" glyph-name="glyph01200" horiz-adv-x="1477" /><glyph d="M206 432Q235 432 258 447.5Q281 463 281 500Q281 571 211 571Q186 571 166 563Q146 555 134 538L61 554L84 764H345V684H157L149 619Q161 627 179.5 631Q198 635 217 635Q286 636 326 603Q366 570 366 498Q366 461 353.5 434Q341 407 319.5 389.5Q298 372 268.5 363.5Q239 355 205 355Q125 355 88 387Q51 419 45 482L130 490Q135 456 153 443.5Q171 431 206 432ZM306 0H202L720 764H824ZM825 68Q913 66 913 121Q913 139 906.5 149Q900 159 889 163.5Q878 168 864 168.5Q850 169 835 169H771V239H836Q863 239 881 245.5Q899 252 899 283Q899 309 879 320.5Q859 332 829 332Q793 331 773.5 319Q754 307 750 275L664 282Q669 347 708.5 378Q748 409 828 409Q859 409 887 402.5Q915 396 936.5 382Q958 368 971 344.5Q984 321 984 288Q984 253 969 233.5Q954 214 936 206Q958 198 977.5 176.5Q997 155 997 113Q997 57 955 22.5Q913 -12 823 -12Q743 -12 702 21Q661 54 656 118L741 125Q746 93 766.5 80Q787 67 825 68ZM1254 409Q1287 409 1315 401Q1343 393 1364 377.5Q1385 362 1397 338Q1409 314 1409 282Q1409 250 1398 229.5Q1387 209 1369 195Q1351 181 1327.5 171.5Q1304 162 1278 153Q1239 138 1212 121Q1185 104 1179 77L1267 79H1417V0H1087Q1086 55 1097 90.5Q1108 126 1128.5 149.5Q1149 173 1178 188Q1207 203 1242 216Q1283 233 1304 245Q1325 257 1325 281Q1325 296 1318.5 305.5Q1312 315 1302 321Q1292 327 1280 329Q1268 331 1256 331Q1218 331 1198.5 319Q1179 307 1174 275L1088 282Q1100 409 1254 409Z" glyph-name="glyph01201" horiz-adv-x="1462" /><glyph d="M87 367 217 639 239 684H37V764H341V710L180 367ZM234 0H130L648 764H752ZM753 68Q841 66 841 121Q841 139 834.5 149Q828 159 817 163.5Q806 168 792 168.5Q778 169 763 169H699V239H764Q791 239 809 245.5Q827 252 827 283Q827 309 807 320.5Q787 332 757 332Q721 331 701.5 319Q682 307 678 275L592 282Q597 347 636.5 378Q676 409 756 409Q787 409 815 402.5Q843 396 864.5 382Q886 368 899 344.5Q912 321 912 288Q912 253 897 233.5Q882 214 864 206Q886 198 905.5 176.5Q925 155 925 113Q925 57 883 22.5Q841 -12 751 -12Q671 -12 630 21Q589 54 584 118L669 125Q674 93 694.5 80Q715 67 753 68ZM1182 409Q1215 409 1243 401Q1271 393 1292 377.5Q1313 362 1325 338Q1337 314 1337 282Q1337 250 1326 229.5Q1315 209 1297 195Q1279 181 1255.5 171.5Q1232 162 1206 153Q1167 138 1140 121Q1113 104 1107 77L1195 79H1345V0H1015Q1014 55 1025 90.5Q1036 126 1056.5 149.5Q1077 173 1106 188Q1135 203 1170 216Q1211 233 1232 245Q1253 257 1253 281Q1253 296 1246.5 305.5Q1240 315 1230 321Q1220 327 1208 329Q1196 331 1184 331Q1146 331 1126.5 319Q1107 307 1102 275L1016 282Q1028 409 1182 409Z" glyph-name="glyph01202" horiz-adv-x="1390" /><glyph d="M189 431Q227 431 254 453.5Q281 476 282 535Q250 499 185 499Q46 499 46 635Q46 671 57.5 697.5Q69 724 89.5 741.5Q110 759 138 767.5Q166 776 200 776Q287 776 326.5 724.5Q366 673 366 564Q366 458 320 406.5Q274 355 188 355Q122 355 86 385.5Q50 416 45 467L131 474Q140 432 189 431ZM196 569Q229 569 251.5 586.5Q274 604 274 639Q273 670 251 685Q229 700 202 700Q173 700 152.5 685Q132 670 132 635Q132 600 149.5 585Q167 570 196 569ZM315 0H211L729 764H833ZM834 68Q922 66 922 121Q922 139 915.5 149Q909 159 898 163.5Q887 168 873 168.5Q859 169 844 169H780V239H845Q872 239 890 245.5Q908 252 908 283Q908 309 888 320.5Q868 332 838 332Q802 331 782.5 319Q763 307 759 275L673 282Q678 347 717.5 378Q757 409 837 409Q868 409 896 402.5Q924 396 945.5 382Q967 368 980 344.5Q993 321 993 288Q993 253 978 233.5Q963 214 945 206Q967 198 986.5 176.5Q1006 155 1006 113Q1006 57 964 22.5Q922 -12 832 -12Q752 -12 711 21Q670 54 665 118L750 125Q755 93 775.5 80Q796 67 834 68ZM1263 409Q1296 409 1324 401Q1352 393 1373 377.5Q1394 362 1406 338Q1418 314 1418 282Q1418 250 1407 229.5Q1396 209 1378 195Q1360 181 1336.5 171.5Q1313 162 1287 153Q1248 138 1221 121Q1194 104 1188 77L1276 79H1426V0H1096Q1095 55 1106 90.5Q1117 126 1137.5 149.5Q1158 173 1187 188Q1216 203 1251 216Q1292 233 1313 245Q1334 257 1334 281Q1334 296 1327.5 305.5Q1321 315 1311 321Q1301 327 1289 329Q1277 331 1265 331Q1227 331 1207.5 319Q1188 307 1183 275L1097 282Q1109 409 1263 409Z" glyph-name="glyph01203" horiz-adv-x="1471" /><glyph d="M722 0H618L1136 764H1240ZM1241 68Q1329 66 1329 121Q1329 139 1322.5 149Q1316 159 1305 163.5Q1294 168 1280 168.5Q1266 169 1251 169H1187V239H1252Q1279 239 1297 245.5Q1315 252 1315 283Q1315 309 1295 320.5Q1275 332 1245 332Q1209 331 1189.5 319Q1170 307 1166 275L1080 282Q1085 347 1124.5 378Q1164 409 1244 409Q1275 409 1303 402.5Q1331 396 1352.5 382Q1374 368 1387 344.5Q1400 321 1400 288Q1400 253 1385 233.5Q1370 214 1352 206Q1374 198 1393.5 176.5Q1413 155 1413 113Q1413 57 1371 22.5Q1329 -12 1239 -12Q1159 -12 1118 21Q1077 54 1072 118L1157 125Q1162 93 1182.5 80Q1203 67 1241 68ZM1670 409Q1703 409 1731 401Q1759 393 1780 377.5Q1801 362 1813 338Q1825 314 1825 282Q1825 250 1814 229.5Q1803 209 1785 195Q1767 181 1743.5 171.5Q1720 162 1694 153Q1655 138 1628 121Q1601 104 1595 77L1683 79H1833V0H1503Q1502 55 1513 90.5Q1524 126 1544.5 149.5Q1565 173 1594 188Q1623 203 1658 216Q1699 233 1720 245Q1741 257 1741 281Q1741 296 1734.5 305.5Q1728 315 1718 321Q1708 327 1696 329Q1684 331 1672 331Q1634 331 1614.5 319Q1595 307 1590 275L1504 282Q1516 409 1670 409ZM571 446V655Q548 636 515.5 624.5Q483 613 445 606V689Q488 698 523 719.5Q558 741 588 776H655V446H770V367H456V446ZM171 446V655Q148 636 115.5 624.5Q83 613 45 606V689Q88 698 123 719.5Q158 741 188 776H255V446H370V367H56V446Z" glyph-name="glyph01204" horiz-adv-x="1878" /><glyph d="M748 0H644L1162 764H1266ZM636 435Q724 433 724 488Q724 506 717.5 516Q711 526 700 530.5Q689 535 675 535.5Q661 536 646 536H582V606H647Q674 606 692 612.5Q710 619 710 650Q710 676 690 687.5Q670 699 640 699Q604 698 584.5 686Q565 674 561 642L475 649Q480 714 519.5 745Q559 776 639 776Q670 776 698 769.5Q726 763 747.5 749Q769 735 782 711.5Q795 688 795 655Q795 620 780 600.5Q765 581 747 573Q769 565 788.5 543.5Q808 522 808 480Q808 424 766 389.5Q724 355 634 355Q554 355 513 388Q472 421 467 485L552 492Q557 460 577.5 447Q598 434 636 435ZM1267 68Q1355 66 1355 121Q1355 139 1348.5 149Q1342 159 1331 163.5Q1320 168 1306 168.5Q1292 169 1277 169H1213V239H1278Q1305 239 1323 245.5Q1341 252 1341 283Q1341 309 1321 320.5Q1301 332 1271 332Q1235 331 1215.5 319Q1196 307 1192 275L1106 282Q1111 347 1150.5 378Q1190 409 1270 409Q1301 409 1329 402.5Q1357 396 1378.5 382Q1400 368 1413 344.5Q1426 321 1426 288Q1426 253 1411 233.5Q1396 214 1378 206Q1400 198 1419.5 176.5Q1439 155 1439 113Q1439 57 1397 22.5Q1355 -12 1265 -12Q1185 -12 1144 21Q1103 54 1098 118L1183 125Q1188 93 1208.5 80Q1229 67 1267 68ZM1696 409Q1729 409 1757 401Q1785 393 1806 377.5Q1827 362 1839 338Q1851 314 1851 282Q1851 250 1840 229.5Q1829 209 1811 195Q1793 181 1769.5 171.5Q1746 162 1720 153Q1681 138 1654 121Q1627 104 1621 77L1709 79H1859V0H1529Q1528 55 1539 90.5Q1550 126 1570.5 149.5Q1591 173 1620 188Q1649 203 1684 216Q1725 233 1746 245Q1767 257 1767 281Q1767 296 1760.5 305.5Q1754 315 1744 321Q1734 327 1722 329Q1710 331 1698 331Q1660 331 1640.5 319Q1621 307 1616 275L1530 282Q1542 409 1696 409ZM171 446V655Q148 636 115.5 624.5Q83 613 45 606V689Q88 698 123 719.5Q158 741 188 776H255V446H370V367H56V446Z" glyph-name="glyph01205" horiz-adv-x="1904" /><glyph d="M733 0H629L1147 764H1251ZM1252 68Q1340 66 1340 121Q1340 139 1333.5 149Q1327 159 1316 163.5Q1305 168 1291 168.5Q1277 169 1262 169H1198V239H1263Q1290 239 1308 245.5Q1326 252 1326 283Q1326 309 1306 320.5Q1286 332 1256 332Q1220 331 1200.5 319Q1181 307 1177 275L1091 282Q1096 347 1135.5 378Q1175 409 1255 409Q1286 409 1314 402.5Q1342 396 1363.5 382Q1385 368 1398 344.5Q1411 321 1411 288Q1411 253 1396 233.5Q1381 214 1363 206Q1385 198 1404.5 176.5Q1424 155 1424 113Q1424 57 1382 22.5Q1340 -12 1250 -12Q1170 -12 1129 21Q1088 54 1083 118L1168 125Q1173 93 1193.5 80Q1214 67 1252 68ZM633 432Q662 432 685 447.5Q708 463 708 500Q708 571 638 571Q613 571 593 563Q573 555 561 538L488 554L511 764H772V684H584L576 619Q588 627 606.5 631Q625 635 644 635Q713 636 753 603Q793 570 793 498Q793 461 780.5 434Q768 407 746.5 389.5Q725 372 695.5 363.5Q666 355 632 355Q552 355 515 387Q478 419 472 482L557 490Q562 456 580 443.5Q598 431 633 432ZM1681 409Q1714 409 1742 401Q1770 393 1791 377.5Q1812 362 1824 338Q1836 314 1836 282Q1836 250 1825 229.5Q1814 209 1796 195Q1778 181 1754.5 171.5Q1731 162 1705 153Q1666 138 1639 121Q1612 104 1606 77L1694 79H1844V0H1514Q1513 55 1524 90.5Q1535 126 1555.5 149.5Q1576 173 1605 188Q1634 203 1669 216Q1710 233 1731 245Q1752 257 1752 281Q1752 296 1745.5 305.5Q1739 315 1729 321Q1719 327 1707 329Q1695 331 1683 331Q1645 331 1625.5 319Q1606 307 1601 275L1515 282Q1527 409 1681 409ZM171 446V655Q148 636 115.5 624.5Q83 613 45 606V689Q88 698 123 719.5Q158 741 188 776H255V446H370V367H56V446Z" glyph-name="glyph01206" horiz-adv-x="1889" /><glyph d="M661 0H557L1075 764H1179ZM1180 68Q1268 66 1268 121Q1268 139 1261.5 149Q1255 159 1244 163.5Q1233 168 1219 168.5Q1205 169 1190 169H1126V239H1191Q1218 239 1236 245.5Q1254 252 1254 283Q1254 309 1234 320.5Q1214 332 1184 332Q1148 331 1128.5 319Q1109 307 1105 275L1019 282Q1024 347 1063.5 378Q1103 409 1183 409Q1214 409 1242 402.5Q1270 396 1291.5 382Q1313 368 1326 344.5Q1339 321 1339 288Q1339 253 1324 233.5Q1309 214 1291 206Q1313 198 1332.5 176.5Q1352 155 1352 113Q1352 57 1310 22.5Q1268 -12 1178 -12Q1098 -12 1057 21Q1016 54 1011 118L1096 125Q1101 93 1121.5 80Q1142 67 1180 68ZM1609 409Q1642 409 1670 401Q1698 393 1719 377.5Q1740 362 1752 338Q1764 314 1764 282Q1764 250 1753 229.5Q1742 209 1724 195Q1706 181 1682.5 171.5Q1659 162 1633 153Q1594 138 1567 121Q1540 104 1534 77L1622 79H1772V0H1442Q1441 55 1452 90.5Q1463 126 1483.5 149.5Q1504 173 1533 188Q1562 203 1597 216Q1638 233 1659 245Q1680 257 1680 281Q1680 296 1673.5 305.5Q1667 315 1657 321Q1647 327 1635 329Q1623 331 1611 331Q1573 331 1553.5 319Q1534 307 1529 275L1443 282Q1455 409 1609 409ZM171 446V655Q148 636 115.5 624.5Q83 613 45 606V689Q88 698 123 719.5Q158 741 188 776H255V446H370V367H56V446ZM514 367 644 639 666 684H464V764H768V710L607 367Z" glyph-name="glyph01207" horiz-adv-x="1817" /><glyph d="M616 431Q654 431 681 453.5Q708 476 709 535Q677 499 612 499Q473 499 473 635Q473 671 484.5 697.5Q496 724 516.5 741.5Q537 759 565 767.5Q593 776 627 776Q714 776 753.5 724.5Q793 673 793 564Q793 458 747 406.5Q701 355 615 355Q549 355 513 385.5Q477 416 472 467L558 474Q567 432 616 431ZM742 0H638L1156 764H1260ZM1261 68Q1349 66 1349 121Q1349 139 1342.5 149Q1336 159 1325 163.5Q1314 168 1300 168.5Q1286 169 1271 169H1207V239H1272Q1299 239 1317 245.5Q1335 252 1335 283Q1335 309 1315 320.5Q1295 332 1265 332Q1229 331 1209.5 319Q1190 307 1186 275L1100 282Q1105 347 1144.5 378Q1184 409 1264 409Q1295 409 1323 402.5Q1351 396 1372.5 382Q1394 368 1407 344.5Q1420 321 1420 288Q1420 253 1405 233.5Q1390 214 1372 206Q1394 198 1413.5 176.5Q1433 155 1433 113Q1433 57 1391 22.5Q1349 -12 1259 -12Q1179 -12 1138 21Q1097 54 1092 118L1177 125Q1182 93 1202.5 80Q1223 67 1261 68ZM1690 409Q1723 409 1751 401Q1779 393 1800 377.5Q1821 362 1833 338Q1845 314 1845 282Q1845 250 1834 229.5Q1823 209 1805 195Q1787 181 1763.5 171.5Q1740 162 1714 153Q1675 138 1648 121Q1621 104 1615 77L1703 79H1853V0H1523Q1522 55 1533 90.5Q1544 126 1564.5 149.5Q1585 173 1614 188Q1643 203 1678 216Q1719 233 1740 245Q1761 257 1761 281Q1761 296 1754.5 305.5Q1748 315 1738 321Q1728 327 1716 329Q1704 331 1692 331Q1654 331 1634.5 319Q1615 307 1610 275L1524 282Q1536 409 1690 409ZM171 446V655Q148 636 115.5 624.5Q83 613 45 606V689Q88 698 123 719.5Q158 741 188 776H255V446H370V367H56V446ZM623 569Q656 569 678.5 586.5Q701 604 701 639Q700 670 678 685Q656 700 629 700Q600 700 579.5 685Q559 670 559 635Q559 600 576.5 585Q594 570 623 569Z" glyph-name="glyph01208" horiz-adv-x="1898" /><glyph d="M743 0H639L1157 764H1261ZM1262 68Q1350 66 1350 121Q1350 139 1343.5 149Q1337 159 1326 163.5Q1315 168 1301 168.5Q1287 169 1272 169H1208V239H1273Q1300 239 1318 245.5Q1336 252 1336 283Q1336 309 1316 320.5Q1296 332 1266 332Q1230 331 1210.5 319Q1191 307 1187 275L1101 282Q1106 347 1145.5 378Q1185 409 1265 409Q1296 409 1324 402.5Q1352 396 1373.5 382Q1395 368 1408 344.5Q1421 321 1421 288Q1421 253 1406 233.5Q1391 214 1373 206Q1395 198 1414.5 176.5Q1434 155 1434 113Q1434 57 1392 22.5Q1350 -12 1260 -12Q1180 -12 1139 21Q1098 54 1093 118L1178 125Q1183 93 1203.5 80Q1224 67 1262 68ZM213 776Q246 776 274 768Q302 760 323 744.5Q344 729 356 705Q368 681 368 649Q368 617 357 596.5Q346 576 328 562Q310 548 286.5 538.5Q263 529 237 520Q198 505 171 488Q144 471 138 444L226 446H376V367H46Q45 422 56 457.5Q67 493 87.5 516.5Q108 540 137 555Q166 570 201 583Q242 600 263 612Q284 624 284 648Q284 663 277.5 672.5Q271 682 261 688Q251 694 239 696Q227 698 215 698Q177 698 157.5 686Q138 674 133 642L47 649Q59 776 213 776ZM1691 409Q1724 409 1752 401Q1780 393 1801 377.5Q1822 362 1834 338Q1846 314 1846 282Q1846 250 1835 229.5Q1824 209 1806 195Q1788 181 1764.5 171.5Q1741 162 1715 153Q1676 138 1649 121Q1622 104 1616 77L1704 79H1854V0H1524Q1523 55 1534 90.5Q1545 126 1565.5 149.5Q1586 173 1615 188Q1644 203 1679 216Q1720 233 1741 245Q1762 257 1762 281Q1762 296 1755.5 305.5Q1749 315 1739 321Q1729 327 1717 329Q1705 331 1693 331Q1655 331 1635.5 319Q1616 307 1611 275L1525 282Q1537 409 1691 409ZM592 446V655Q569 636 536.5 624.5Q504 613 466 606V689Q509 698 544 719.5Q579 741 609 776H676V446H791V367H477V446Z" glyph-name="glyph01209" horiz-adv-x="1898" /></font>
</defs>
</svg>
