<?xml version="1.0" standalone="no"?><!DOCTYPE svg PUBLIC "-//W3C//DTD SVG 1.1//EN" "http://www.w3.org/Graphics/SVG/1.1/DTD/svg11.dtd" ><svg version="1.1" xmlns="http://www.w3.org/2000/svg"><defs><font horiz-adv-x="0" id="font"><font-face ascent="800" bbox="-199 -256 1779 1134" cap-height="780" descent="-200" font-family="Galaxie Polaris" font-stretch="normal" font-style="normal" font-weight="600" units-per-em="1000" x-height="530" /><missing-glyph d="M90 780H870V0H90ZM201 66H759L480 345ZM480 435 759 714H201ZM160 665V115L435 390ZM800 115V665L525 390Z" horiz-adv-x="960" /><glyph d="M322 790H398L699 0H622L530 247H190L98 0H21ZM289 514 214 313H505L431 514L360 712Z" glyph-name="A" horiz-adv-x="720" unicode="A" /><glyph d="M527 247H221L92 0H13L431 780H975V714H508L562 433H935V367H575L633 66H995V0H574ZM256 313H514L473 530L446 674Z" glyph-name="AE" horiz-adv-x="1060" unicode="&#198;" /><glyph d="M527 247H221L92 0H13L431 780H975V714H508L562 433H935V367H575L633 66H995V0H574ZM256 313H514L473 530L446 674ZM646 1030 535 822H470L564 1030Z" glyph-name="AEacute" horiz-adv-x="1060" unicode="&#508;" /><glyph d="M322 790H398L699 0H622L530 247H190L98 0H21ZM289 514 214 313H505L431 514L360 712ZM506 1030 395 822H330L424 1030Z" glyph-name="Aacute" horiz-adv-x="720" unicode="&#193;" /><glyph d="M322 790H398L699 0H622L530 247H190L98 0H21ZM289 514 214 313H505L431 514L360 712ZM538 1030Q538 983 529.5 946Q521 909 500 883.5Q479 858 445 845Q411 832 360 832Q309 832 275 845Q241 858 220 883.5Q199 909 190.5 946Q182 983 182 1030H238Q238 951 266.5 919.5Q295 888 360 888Q425 888 453.5 919.5Q482 951 482 1030Z" glyph-name="Abreve" horiz-adv-x="720" unicode="&#258;" /><glyph d="M322 790H398L699 0H622L530 247H190L98 0H21ZM289 514 214 313H505L431 514L360 712ZM477 822 360 972 243 822H176L326 1030H394L544 822Z" glyph-name="Acircumflex" horiz-adv-x="720" unicode="&#194;" /><glyph d="M322 790H398L699 0H622L530 247H190L98 0H21ZM289 514 214 313H505L431 514L360 712ZM310 883H224V969H310ZM496 883H410V969H496Z" glyph-name="Adieresis" horiz-adv-x="720" unicode="&#196;" /><glyph d="M322 790H398L699 0H622L530 247H190L98 0H21ZM289 514 214 313H505L431 514L360 712ZM296 1030 390 822H325L214 1030Z" glyph-name="Agrave" horiz-adv-x="720" unicode="&#192;" /><glyph d="M322 790H398L699 0H622L530 247H190L98 0H21ZM289 514 214 313H505L431 514L360 712ZM224 958H496V894H224Z" glyph-name="Amacron" horiz-adv-x="720" unicode="&#256;" /><glyph d="M322 790H398L699 0Q673 -4 648.5 -14Q624 -24 605.5 -38.5Q587 -53 576 -71.5Q565 -90 565 -109Q565 -131 578 -143Q591 -155 621 -155Q635 -155 647 -152Q659 -149 670 -145Q682 -141 693 -134L710 -185Q694 -195 669 -202.5Q644 -210 610 -210Q590 -210 570.5 -205Q551 -200 535 -189Q519 -178 509.5 -160.5Q500 -143 500 -117Q500 -78 530 -42Q560 -6 614 20L530 247H190L98 0H21ZM289 514 214 313H505L431 514L360 712Z" glyph-name="Aogonek" horiz-adv-x="720" unicode="&#260;" /><glyph d="M322 790H398L699 0H622L530 247H190L98 0H21ZM289 514 214 313H505L431 514L360 712ZM246 926Q246 976 276 1008Q306 1040 360 1040Q414 1040 444 1008Q474 976 474 926Q474 876 444 844Q414 812 360 812Q306 812 276 844Q246 876 246 926ZM304 926Q304 900 319 884Q334 868 360 868Q386 868 401 884Q416 900 416 926Q416 952 401 968Q386 984 360 984Q334 984 319 968Q304 952 304 926Z" glyph-name="Aring" horiz-adv-x="720" unicode="&#197;" /><glyph d="M322 790H398L699 0H622L530 247H190L98 0H21ZM289 514 214 313H505L431 514L360 712ZM420 1134 360 1040Q414 1040 444 1008Q474 976 474 926Q474 876 444 844Q414 812 360 812Q306 812 276 844Q246 876 246 926Q246 965 264 992L343 1134ZM304 926Q304 900 319 884Q334 868 360 868Q386 868 401 884Q416 900 416 926Q416 952 401 968Q386 984 360 984Q334 984 319 968Q304 952 304 926Z" glyph-name="Aringacute" horiz-adv-x="720" unicode="&#506;" /><glyph d="M322 790H398L699 0H622L530 247H190L98 0H21ZM289 514 214 313H505L431 514L360 712ZM431 860Q401 862 382 873Q363 884 348 897.5Q333 911 319 922.5Q305 934 285 935Q262 937 249.5 929.5Q237 922 229 911Q220 899 217 883L162 891Q167 913 176 932.5Q185 952 200 966Q215 980 237 988Q259 996 289 994Q319 993 338 981.5Q357 970 372 956.5Q387 943 401.5 931.5Q416 920 435 919Q458 917 471 925Q484 933 492 944Q501 956 503 971L558 963Q553 941 544 921.5Q535 902 520 888Q505 874 483 866.5Q461 859 431 860Z" glyph-name="Atilde" horiz-adv-x="720" unicode="&#195;" /><glyph d="M90 0V780H399Q432 780 469 771.5Q506 763 537 740.5Q568 718 588 678Q608 638 608 576Q608 535 598 504.5Q588 474 572.5 453.5Q557 433 539 421.5Q521 410 505 405Q530 400 553.5 386.5Q577 373 595 349.5Q613 326 624 292.5Q635 259 635 214Q635 148 616 106Q597 64 565 40.5Q533 17 491.5 8.5Q450 0 405 0ZM396 66Q421 66 450 69.5Q479 73 503.5 87.5Q528 102 544 131.5Q560 161 560 214Q560 266 545.5 296.5Q531 327 508 342.5Q485 358 456.5 362.5Q428 367 401 367H160V66ZM160 714V433H388Q421 433 448 439Q475 445 493.5 461Q512 477 522.5 505Q533 533 533 576Q533 619 523 646Q513 673 494.5 688Q476 703 449 708.5Q422 714 388 714Z" glyph-name="B" horiz-adv-x="695" unicode="B" /><glyph d="M139 390Q139 323 150.5 262Q162 201 191 155Q220 109 269.5 82Q319 55 395 55Q497 55 548.5 90Q600 125 615 200L687 194Q678 150 658 112.5Q638 75 603 48Q568 21 517 5.5Q466 -10 395 -10Q309 -10 246.5 18Q184 46 143.5 98.5Q103 151 84 225Q65 299 65 390Q65 482 84 555.5Q103 629 143.5 681.5Q184 734 246.5 762Q309 790 395 790Q466 790 517 774.5Q568 759 603 732Q638 705 658 667.5Q678 630 687 586L615 580Q600 655 548.5 690Q497 725 395 725Q319 725 269.5 698Q220 671 191 625Q162 579 150.5 518.5Q139 458 139 390Z" glyph-name="C" horiz-adv-x="750" unicode="C" /><glyph d="M139 390Q139 323 150.5 262Q162 201 191 155Q220 109 269.5 82Q319 55 395 55Q497 55 548.5 90Q600 125 615 200L687 194Q678 150 658 112.5Q638 75 603 48Q568 21 517 5.5Q466 -10 395 -10Q309 -10 246.5 18Q184 46 143.5 98.5Q103 151 84 225Q65 299 65 390Q65 482 84 555.5Q103 629 143.5 681.5Q184 734 246.5 762Q309 790 395 790Q466 790 517 774.5Q568 759 603 732Q638 705 658 667.5Q678 630 687 586L615 580Q600 655 548.5 690Q497 725 395 725Q319 725 269.5 698Q220 671 191 625Q162 579 150.5 518.5Q139 458 139 390ZM531 1030 420 822H355L449 1030Z" glyph-name="Cacute" horiz-adv-x="750" unicode="&#262;" /><glyph d="M139 390Q139 323 150.5 262Q162 201 191 155Q220 109 269.5 82Q319 55 395 55Q497 55 548.5 90Q600 125 615 200L687 194Q678 150 658 112.5Q638 75 603 48Q568 21 517 5.5Q466 -10 395 -10Q309 -10 246.5 18Q184 46 143.5 98.5Q103 151 84 225Q65 299 65 390Q65 482 84 555.5Q103 629 143.5 681.5Q184 734 246.5 762Q309 790 395 790Q466 790 517 774.5Q568 759 603 732Q638 705 658 667.5Q678 630 687 586L615 580Q600 655 548.5 690Q497 725 395 725Q319 725 269.5 698Q220 671 191 625Q162 579 150.5 518.5Q139 458 139 390ZM568 1030 418 822H350L200 1030H267L384 880L501 1030Z" glyph-name="Ccaron" horiz-adv-x="750" unicode="&#268;" /><glyph d="M139 390Q139 323 150.5 262Q162 201 191 155Q220 109 269.5 82Q319 55 395 55Q497 55 548.5 90Q600 125 615 200L687 194Q679 151 660 115Q641 79 608.5 52Q576 25 529 9Q482 -7 417 -9L410 -34Q445 -42 471 -63.5Q497 -85 497 -127Q497 -171 465.5 -190.5Q434 -210 388 -210Q365 -210 342.5 -204.5Q320 -199 309 -193L324 -149Q332 -152 341 -155Q349 -157 359 -159.5Q369 -162 380 -162Q411 -163 425 -153.5Q439 -144 439 -128Q439 -102 412 -90.5Q385 -79 349 -75L371 -9Q291 -5 233.5 24.5Q176 54 138.5 106Q101 158 83 230Q65 302 65 390Q65 482 84 555.5Q103 629 143.5 681.5Q184 734 246.5 762Q309 790 395 790Q466 790 517 774.5Q568 759 603 732Q638 705 658 667.5Q678 630 687 586L615 580Q600 655 548.5 690Q497 725 395 725Q319 725 269.5 698Q220 671 191 625Q162 579 150.5 518.5Q139 458 139 390Z" glyph-name="Ccedilla" horiz-adv-x="750" unicode="&#199;" /><glyph d="M139 390Q139 323 150.5 262Q162 201 191 155Q220 109 269.5 82Q319 55 395 55Q497 55 548.5 90Q600 125 615 200L687 194Q678 150 658 112.5Q638 75 603 48Q568 21 517 5.5Q466 -10 395 -10Q309 -10 246.5 18Q184 46 143.5 98.5Q103 151 84 225Q65 299 65 390Q65 482 84 555.5Q103 629 143.5 681.5Q184 734 246.5 762Q309 790 395 790Q466 790 517 774.5Q568 759 603 732Q638 705 658 667.5Q678 630 687 586L615 580Q600 655 548.5 690Q497 725 395 725Q319 725 269.5 698Q220 671 191 625Q162 579 150.5 518.5Q139 458 139 390ZM502 822 385 972 268 822H201L351 1030H419L569 822Z" glyph-name="Ccircumflex" horiz-adv-x="750" unicode="&#264;" /><glyph d="M139 390Q139 323 150.5 262Q162 201 191 155Q220 109 269.5 82Q319 55 395 55Q497 55 548.5 90Q600 125 615 200L687 194Q678 150 658 112.5Q638 75 603 48Q568 21 517 5.5Q466 -10 395 -10Q309 -10 246.5 18Q184 46 143.5 98.5Q103 151 84 225Q65 299 65 390Q65 482 84 555.5Q103 629 143.5 681.5Q184 734 246.5 762Q309 790 395 790Q466 790 517 774.5Q568 759 603 732Q638 705 658 667.5Q678 630 687 586L615 580Q600 655 548.5 690Q497 725 395 725Q319 725 269.5 698Q220 671 191 625Q162 579 150.5 518.5Q139 458 139 390ZM428 883H342V969H428Z" glyph-name="Cdotaccent" horiz-adv-x="750" unicode="&#266;" /><glyph d="M90 0V780H348Q521 780 610.5 686Q700 592 700 390Q700 188 610.5 94Q521 0 348 0ZM348 66Q424 66 477 89Q530 112 563 154Q596 196 611 256Q626 316 626 390Q626 464 611 524Q596 584 563 626Q530 668 477 691Q424 714 348 714H160V66Z" glyph-name="D" horiz-adv-x="765" unicode="D" /><glyph d="M90 0V780H348Q521 780 610.5 686Q700 592 700 390Q700 188 610.5 94Q521 0 348 0ZM348 66Q424 66 477 89Q530 112 563 154Q596 196 611 256Q626 316 626 390Q626 464 611 524Q596 584 563 626Q530 668 477 691Q424 714 348 714H160V66ZM522 1030 372 822H304L154 1030H221L338 880L455 1030Z" glyph-name="Dcaron" horiz-adv-x="765" unicode="&#270;" /><glyph d="M145 0V367H25V433H145V780H403Q576 780 665.5 686Q755 592 755 390Q755 188 665.5 94Q576 0 403 0ZM403 66Q479 66 532 89Q585 112 618 154Q651 196 666 256Q681 316 681 390Q681 464 666 524Q651 584 618 626Q585 668 532 691Q479 714 403 714H215V433H453V367H215V66Z" glyph-name="Dcroat" horiz-adv-x="820" unicode="&#272;" /><glyph d="M610 780V714H160V433H570V367H160V66H630V0H90V780Z" glyph-name="E" horiz-adv-x="695" unicode="E" /><glyph d="M610 780V714H160V433H570V367H160V66H630V0H90V780ZM491 1030 380 822H315L409 1030Z" glyph-name="Eacute" horiz-adv-x="695" unicode="&#201;" /><glyph d="M610 780V714H160V433H570V367H160V66H630V0H90V780ZM528 1030Q528 983 519.5 946Q511 909 490 883.5Q469 858 435 845Q401 832 350 832Q299 832 265 845Q231 858 210 883.5Q189 909 180.5 946Q172 983 172 1030H228Q228 951 256.5 919.5Q285 888 350 888Q415 888 443.5 919.5Q472 951 472 1030Z" glyph-name="Ebreve" horiz-adv-x="695" unicode="&#276;" /><glyph d="M610 780V714H160V433H570V367H160V66H630V0H90V780ZM534 1030 384 822H316L166 1030H233L350 880L467 1030Z" glyph-name="Ecaron" horiz-adv-x="695" unicode="&#282;" /><glyph d="M610 780V714H160V433H570V367H160V66H630V0H90V780ZM467 822 350 972 233 822H166L316 1030H384L534 822Z" glyph-name="Ecircumflex" horiz-adv-x="695" unicode="&#202;" /><glyph d="M610 780V714H160V433H570V367H160V66H630V0H90V780ZM300 883H214V969H300ZM486 883H400V969H486Z" glyph-name="Edieresis" horiz-adv-x="695" unicode="&#203;" /><glyph d="M610 780V714H160V433H570V367H160V66H630V0H90V780ZM393 883H307V969H393Z" glyph-name="Edotaccent" horiz-adv-x="695" unicode="&#278;" /><glyph d="M610 780V714H160V433H570V367H160V66H630V0H90V780ZM291 1030 385 822H320L209 1030Z" glyph-name="Egrave" horiz-adv-x="695" unicode="&#200;" /><glyph d="M610 780V714H160V433H570V367H160V66H630V0H90V780ZM214 958H486V894H214Z" glyph-name="Emacron" horiz-adv-x="695" unicode="&#274;" /><glyph d="M480 -147Q510 -147 531.5 -141.5Q553 -136 567 -120.5Q581 -105 587.5 -76.5Q594 -48 594 -2V4L249 515L157 657L161 390V0H90V780H153L501 265L593 123L589 390V780H660V-2Q660 -43 654 -81Q648 -119 628.5 -147.5Q609 -176 574 -193Q539 -210 480 -210Q466 -210 450 -208Q434 -206 423 -202L431 -138Q436 -140 449 -143.5Q462 -147 480 -147Z" glyph-name="Eng" horiz-adv-x="750" unicode="&#330;" /><glyph d="M610 780V714H160V433H570V367H160V66H630V0Q604 -4 579.5 -14Q555 -24 536.5 -38.5Q518 -53 507 -71.5Q496 -90 496 -109Q496 -131 509 -143Q522 -155 552 -155Q566 -155 578 -152Q590 -149 601 -145Q613 -141 624 -134L641 -185Q625 -195 600 -202.5Q575 -210 541 -210Q521 -210 501.5 -205Q482 -200 466 -189Q450 -178 440.5 -160.5Q431 -143 431 -117Q431 -85 451.5 -54.5Q472 -24 509 0H90V780Z" glyph-name="Eogonek" horiz-adv-x="695" unicode="&#280;" /><glyph d="M145 0V367H25V433H145V780H403Q576 780 665.5 686Q755 592 755 390Q755 188 665.5 94Q576 0 403 0ZM403 66Q479 66 532 89Q585 112 618 154Q651 196 666 256Q681 316 681 390Q681 464 666 524Q651 584 618 626Q585 668 532 691Q479 714 403 714H215V433H453V367H215V66Z" glyph-name="Eth" horiz-adv-x="820" unicode="&#208;" /><glyph d="M202 382Q202 369 202 357Q202 345 203 334H490L470 270H210Q227 159 282.5 106Q338 53 430 53Q519 53 562 89Q605 125 620 200L692 194Q683 150 665 112.5Q647 75 616 48Q585 21 539.5 5.5Q494 -10 430 -10Q302 -10 230 61.5Q158 133 138 270H30V334H132Q131 345 131 357Q131 369 131 382Q131 394 131 406Q131 418 132 430H30V494H138Q158 631 230 702.5Q302 774 430 774Q494 774 539.5 758.5Q585 743 616 716Q647 689 665 651.5Q683 614 692 570L620 564Q605 639 562 675Q519 711 430 711Q338 711 282.5 658Q227 605 210 494H540L520 430H203Q202 418 202 406Q202 394 202 382Z" glyph-name="Euro" horiz-adv-x="755" unicode="&#8364;" /><glyph d="M160 0H90V780H590V714H160V433H550V367H160Z" glyph-name="F" horiz-adv-x="630" unicode="F" /><glyph d="M395 -10Q309 -9 246.5 19Q184 47 143.5 99Q103 151 84 225Q65 299 65 390Q65 482 84 555.5Q103 629 143.5 681.5Q184 734 246.5 762Q309 790 395 790Q466 790 517 774.5Q568 759 603 732Q638 705 658 667.5Q678 630 687 586L615 580Q600 655 548.5 690Q497 725 395 725Q319 725 269.5 698Q220 671 191 625Q162 579 150.5 518.5Q139 458 139 390Q139 323 150.5 262Q162 201 191 155Q220 109 269.5 82Q319 55 395 55Q462 55 521.5 71.5Q581 88 619 114V337H449V403H689V70Q652 46 617 30.5Q582 15 547 6Q512 -3 475 -6.5Q438 -10 395 -10Z" glyph-name="G" horiz-adv-x="774" unicode="G" /><glyph d="M395 55Q462 55 521.5 71.5Q581 88 619 114V337H449V403H689V70Q652 46 617 30.5Q582 15 547 6Q512 -3 475 -6.5Q438 -10 395 -10Q309 -9 246.5 19Q184 47 143.5 99Q103 151 84 225Q65 299 65 390Q65 482 84 555.5Q103 629 143.5 681.5Q184 734 246.5 762Q309 790 395 790Q466 790 517 774.5Q568 759 603 732Q638 705 658 667.5Q678 630 687 586L615 580Q600 655 548.5 690Q497 725 395 725Q319 725 269.5 698Q220 671 191 625Q162 579 150.5 518.5Q139 458 139 390Q139 323 150.5 262Q162 201 191 155Q220 109 269.5 82Q319 55 395 55ZM563 1030Q563 983 554.5 946Q546 909 525 883.5Q504 858 470 845Q436 832 385 832Q334 832 300 845Q266 858 245 883.5Q224 909 215.5 946Q207 983 207 1030H263Q263 951 291.5 919.5Q320 888 385 888Q450 888 478.5 919.5Q507 951 507 1030Z" glyph-name="Gbreve" horiz-adv-x="774" unicode="&#286;" /><glyph d="M395 55Q462 55 521.5 71.5Q581 88 619 114V337H449V403H689V70Q652 46 617 30.5Q582 15 547 6Q512 -3 475 -6.5Q438 -10 395 -10Q309 -9 246.5 19Q184 47 143.5 99Q103 151 84 225Q65 299 65 390Q65 482 84 555.5Q103 629 143.5 681.5Q184 734 246.5 762Q309 790 395 790Q466 790 517 774.5Q568 759 603 732Q638 705 658 667.5Q678 630 687 586L615 580Q600 655 548.5 690Q497 725 395 725Q319 725 269.5 698Q220 671 191 625Q162 579 150.5 518.5Q139 458 139 390Q139 323 150.5 262Q162 201 191 155Q220 109 269.5 82Q319 55 395 55ZM569 1030 419 822H351L201 1030H268L385 880L502 1030Z" glyph-name="Gcaron" horiz-adv-x="774" unicode="&#486;" /><glyph d="M395 55Q462 55 521.5 71.5Q581 88 619 114V337H449V403H689V70Q652 46 617 30.5Q582 15 547 6Q512 -3 475 -6.5Q438 -10 395 -10Q309 -9 246.5 19Q184 47 143.5 99Q103 151 84 225Q65 299 65 390Q65 482 84 555.5Q103 629 143.5 681.5Q184 734 246.5 762Q309 790 395 790Q466 790 517 774.5Q568 759 603 732Q638 705 658 667.5Q678 630 687 586L615 580Q600 655 548.5 690Q497 725 395 725Q319 725 269.5 698Q220 671 191 625Q162 579 150.5 518.5Q139 458 139 390Q139 323 150.5 262Q162 201 191 155Q220 109 269.5 82Q319 55 395 55ZM502 822 385 972 268 822H201L351 1030H419L569 822Z" glyph-name="Gcircumflex" horiz-adv-x="774" unicode="&#284;" /><glyph d="M395 55Q462 55 521.5 71.5Q581 88 619 114V337H449V403H689V70Q652 46 617 30.5Q582 15 547 6Q512 -3 475 -6.5Q438 -10 395 -10Q309 -9 246.5 19Q184 47 143.5 99Q103 151 84 225Q65 299 65 390Q65 482 84 555.5Q103 629 143.5 681.5Q184 734 246.5 762Q309 790 395 790Q466 790 517 774.5Q568 759 603 732Q638 705 658 667.5Q678 630 687 586L615 580Q600 655 548.5 690Q497 725 395 725Q319 725 269.5 698Q220 671 191 625Q162 579 150.5 518.5Q139 458 139 390Q139 323 150.5 262Q162 201 191 155Q220 109 269.5 82Q319 55 395 55ZM434 -62 384 -200H317L355 -62Z" glyph-name="Gcommaaccent" horiz-adv-x="774" unicode="&#290;" /><glyph d="M395 55Q462 55 521.5 71.5Q581 88 619 114V337H449V403H689V70Q652 46 617 30.5Q582 15 547 6Q512 -3 475 -6.5Q438 -10 395 -10Q309 -9 246.5 19Q184 47 143.5 99Q103 151 84 225Q65 299 65 390Q65 482 84 555.5Q103 629 143.5 681.5Q184 734 246.5 762Q309 790 395 790Q466 790 517 774.5Q568 759 603 732Q638 705 658 667.5Q678 630 687 586L615 580Q600 655 548.5 690Q497 725 395 725Q319 725 269.5 698Q220 671 191 625Q162 579 150.5 518.5Q139 458 139 390Q139 323 150.5 262Q162 201 191 155Q220 109 269.5 82Q319 55 395 55ZM428 883H342V969H428Z" glyph-name="Gdotaccent" horiz-adv-x="774" unicode="&#288;" /><glyph d="M660 780V0H590V367H160V0H90V780H160V433H590V780Z" glyph-name="H" horiz-adv-x="750" unicode="H" /><glyph d="M80 390Q80 473 111.5 546Q143 619 197 673Q251 727 324 758.5Q397 790 480 790Q563 790 636 758.5Q709 727 763 673Q817 619 848.5 546Q880 473 880 390Q880 307 848.5 234Q817 161 763 107Q709 53 636 21.5Q563 -10 480 -10Q397 -10 324 21.5Q251 53 197 107Q143 161 111.5 234Q80 307 80 390Z" glyph-name="H18533" horiz-adv-x="960" unicode="&#9679;" /><glyph d="M620 0H90V530H620Z" glyph-name="H18543" horiz-adv-x="710" unicode="&#9642;" /><glyph d="M90 530H620V0H90ZM160 464V66H550V464Z" glyph-name="H18551" horiz-adv-x="710" unicode="&#9643;" /><glyph d="M90 780H870V0H90ZM160 714V66H800V714Z" glyph-name="H22073" horiz-adv-x="960" unicode="&#9633;" /><glyph d="M660 780V0H590V367H160V0H90V780H160V627H590V780ZM590 433V563H160V433Z" glyph-name="Hbar" horiz-adv-x="750" unicode="&#294;" /><glyph d="M660 780V0H590V367H160V0H90V780H160V433H590V780ZM492 822 375 972 258 822H191L341 1030H409L559 822Z" glyph-name="Hcircumflex" horiz-adv-x="750" unicode="&#292;" /><glyph d="M180 0H110V780H180Z" glyph-name="I" horiz-adv-x="290" unicode="I" /><glyph d="M180 0H110V780H180ZM349 56Q378 56 401 62Q424 68 440 84Q456 100 465 127.5Q474 155 474 198V780H544V198Q544 157 535.5 119Q527 81 505 52.5Q483 24 445.5 7Q408 -10 349 -10Q335 -10 319 -8Q303 -6 292 -2L301 65Q306 63 318.5 59.5Q331 56 349 56Z" glyph-name="IJ" horiz-adv-x="630" unicode="&#306;" /><glyph d="M180 0H110V780H180ZM290 1030 179 822H114L208 1030Z" glyph-name="Iacute" horiz-adv-x="290" unicode="&#205;" /><glyph d="M180 0H110V780H180ZM323 1030Q323 983 314.5 946Q306 909 285 883.5Q264 858 230 845Q196 832 145 832Q94 832 60 845Q26 858 5 883.5Q-16 909 -24.5 946Q-33 983 -33 1030H23Q23 951 51.5 919.5Q80 888 145 888Q210 888 238.5 919.5Q267 951 267 1030Z" glyph-name="Ibreve" horiz-adv-x="290" unicode="&#300;" /><glyph d="M180 0H110V780H180ZM262 822 145 972 28 822H-39L111 1030H179L329 822Z" glyph-name="Icircumflex" horiz-adv-x="290" unicode="&#206;" /><glyph d="M180 0H110V780H180ZM95 883H9V969H95ZM281 883H195V969H281Z" glyph-name="Idieresis" horiz-adv-x="290" unicode="&#207;" /><glyph d="M180 0H110V780H180ZM188 883H102V969H188Z" glyph-name="Idotaccent" horiz-adv-x="290" unicode="&#304;" /><glyph d="M180 0H110V780H180ZM82 1030 176 822H111L0 1030Z" glyph-name="Igrave" horiz-adv-x="290" unicode="&#204;" /><glyph d="M180 0H110V780H180ZM9 958H281V894H9Z" glyph-name="Imacron" horiz-adv-x="290" unicode="&#298;" /><glyph d="M180 0Q148 -23 122.5 -49.5Q97 -76 97 -109Q97 -131 110 -143Q123 -155 153 -155Q167 -155 179 -152Q191 -149 202 -145Q214 -141 225 -134L242 -185Q226 -195 201 -202.5Q176 -210 142 -210Q122 -210 102.5 -205Q83 -200 67 -189Q51 -178 41.5 -160.5Q32 -143 32 -117Q32 -76 55 -50Q78 -24 110 0V780H180Z" glyph-name="Iogonek" horiz-adv-x="290" unicode="&#302;" /><glyph d="M180 0H110V780H180ZM216 860Q186 862 167 873Q148 884 133 897.5Q118 911 104 922.5Q90 934 70 935Q47 937 34.5 929.5Q22 922 14 911Q5 899 2 883L-53 891Q-48 913 -39 932.5Q-30 952 -15 966Q0 980 22 988Q44 996 74 994Q104 993 123 981.5Q142 970 157 956.5Q172 943 186.5 931.5Q201 920 220 919Q243 917 256 925Q269 933 277 944Q286 956 288 971L343 963Q338 941 329 921.5Q320 902 305 888Q290 874 268 866.5Q246 859 216 860Z" glyph-name="Itilde" horiz-adv-x="290" unicode="&#296;" /><glyph d="M422 780V210Q422 162 409 121.5Q396 81 370 51.5Q344 22 306 6Q268 -10 218 -10Q164 -10 127 3.5Q90 17 67 39.5Q44 62 32.5 92Q21 122 18 155L89 164Q93 112 123 82.5Q153 53 218 55Q351 59 351 199V780Z" glyph-name="J" horiz-adv-x="507" unicode="J" /><glyph d="M502 822 385 972 268 822H201L351 1030H419L569 822ZM422 780V210Q422 162 409 121.5Q396 81 370 51.5Q344 22 306 6Q268 -10 218 -10Q164 -10 127 3.5Q90 17 67 39.5Q44 62 32.5 92Q21 122 18 155L89 164Q93 112 123 82.5Q153 53 218 55Q351 59 351 199V780Z" glyph-name="Jcircumflex" horiz-adv-x="507" unicode="&#308;" /><glyph d="M160 357 551 780H648L320 430L673 0H579L270 376L160 258V0H90V780H160Z" glyph-name="K" horiz-adv-x="695" unicode="K" /><glyph d="M160 357 551 780H648L320 430L673 0H579L270 376L160 258V0H90V780H160ZM409 -62 359 -200H292L330 -62Z" glyph-name="Kcommaaccent" horiz-adv-x="695" unicode="&#310;" /><glyph d="M160 66H570V0H90V780H160Z" glyph-name="L" horiz-adv-x="585" unicode="L" /><glyph d="M160 66H570V0H90V780H160ZM271 1030 160 822H95L189 1030Z" glyph-name="Lacute" horiz-adv-x="585" unicode="&#313;" /><glyph d="M160 66H570V0H90V780H160ZM472 800 397 592H336L393 800Z" glyph-name="Lcaron" horiz-adv-x="585" unicode="&#317;" /><glyph d="M160 66H570V0H90V780H160ZM376 -62 326 -200H259L297 -62Z" glyph-name="Lcommaaccent" horiz-adv-x="585" unicode="&#315;" /><glyph d="M160 66H570V0H90V780H160ZM461 357H375V443H461Z" glyph-name="Ldot" horiz-adv-x="585" unicode="&#319;" /><glyph d="M160 311V66H570V0H90V276L10 236V301L90 341V780H160V377L445 520V455Z" glyph-name="Lslash" horiz-adv-x="585" unicode="&#321;" /><glyph d="M211 483 154 624 158 290V0H90V780H151L381 265L456 76L531 265L761 780H822V0H754V290L758 630L701 483L489 0H423Z" glyph-name="M" horiz-adv-x="912" unicode="M" /><glyph d="M249 515 157 657 161 390V0H90V780H153L501 265L593 123L589 390V780H660V0H597Z" glyph-name="N" horiz-adv-x="750" unicode="N" /><glyph d="M249 515 157 657 161 390V0H90V780H153L501 265L593 123L589 390V780H660V0H597ZM521 1030 410 822H345L439 1030Z" glyph-name="Nacute" horiz-adv-x="750" unicode="&#323;" /><glyph d="M249 515 157 657 161 390V0H90V780H153L501 265L593 123L589 390V780H660V0H597ZM559 1030 409 822H341L191 1030H258L375 880L492 1030Z" glyph-name="Ncaron" horiz-adv-x="750" unicode="&#327;" /><glyph d="M249 515 157 657 161 390V0H90V780H153L501 265L593 123L589 390V780H660V0H597ZM424 -62 374 -200H307L345 -62Z" glyph-name="Ncommaaccent" horiz-adv-x="750" unicode="&#325;" /><glyph d="M249 515 157 657 161 390V0H90V780H153L501 265L593 123L589 390V780H660V0H597ZM446 860Q416 862 397 873Q378 884 363 897.5Q348 911 334 922.5Q320 934 300 935Q277 937 264.5 929.5Q252 922 244 911Q235 899 232 883L177 891Q182 913 191 932.5Q200 952 215 966Q230 980 252 988Q274 996 304 994Q334 993 353 981.5Q372 970 387 956.5Q402 943 416.5 931.5Q431 920 450 919Q473 917 486 925Q499 933 507 944Q516 956 518 971L573 963Q568 941 559 921.5Q550 902 535 888Q520 874 498 866.5Q476 859 446 860Z" glyph-name="Ntilde" horiz-adv-x="750" unicode="&#209;" /><glyph d="M395 -10Q309 -10 246.5 18Q184 46 143.5 98.5Q103 151 84 225Q65 299 65 390Q65 482 84 555.5Q103 629 143.5 681.5Q184 734 246.5 762Q309 790 395 790Q481 790 543.5 762Q606 734 646.5 681.5Q687 629 706 555.5Q725 482 725 390Q725 299 706 225Q687 151 646.5 98.5Q606 46 543.5 18Q481 -10 395 -10ZM395 725Q319 725 269.5 698Q220 671 191 625Q162 579 150.5 518.5Q139 458 139 390Q139 323 150.5 262Q162 201 191 155Q220 109 269.5 82Q319 55 395 55Q471 55 520.5 82Q570 109 599 155Q628 201 639.5 262Q651 323 651 390Q651 458 639.5 518.5Q628 579 599 625Q570 671 520.5 698Q471 725 395 725Z" glyph-name="O" horiz-adv-x="790" unicode="O" /><glyph d="M417 714Q341 714 288 691Q235 668 202 626Q169 584 154 524Q139 464 139 390Q139 316 154 256Q169 196 202 154Q235 112 288 89Q341 66 417 66H515V714ZM985 780V714H585V433H945V367H585V66H1005V0H417Q245 0 155 94Q65 188 65 390Q65 592 155 686Q245 780 417 780Z" glyph-name="OE" horiz-adv-x="1070" unicode="&#338;" /><glyph d="M395 -10Q309 -10 246.5 18Q184 46 143.5 98.5Q103 151 84 225Q65 299 65 390Q65 482 84 555.5Q103 629 143.5 681.5Q184 734 246.5 762Q309 790 395 790Q481 790 543.5 762Q606 734 646.5 681.5Q687 629 706 555.5Q725 482 725 390Q725 299 706 225Q687 151 646.5 98.5Q606 46 543.5 18Q481 -10 395 -10ZM395 725Q319 725 269.5 698Q220 671 191 625Q162 579 150.5 518.5Q139 458 139 390Q139 323 150.5 262Q162 201 191 155Q220 109 269.5 82Q319 55 395 55Q471 55 520.5 82Q570 109 599 155Q628 201 639.5 262Q651 323 651 390Q651 458 639.5 518.5Q628 579 599 625Q570 671 520.5 698Q471 725 395 725ZM541 1030 430 822H365L459 1030Z" glyph-name="Oacute" horiz-adv-x="790" unicode="&#211;" /><glyph d="M395 -10Q309 -10 246.5 18Q184 46 143.5 98.5Q103 151 84 225Q65 299 65 390Q65 482 84 555.5Q103 629 143.5 681.5Q184 734 246.5 762Q309 790 395 790Q481 790 543.5 762Q606 734 646.5 681.5Q687 629 706 555.5Q725 482 725 390Q725 299 706 225Q687 151 646.5 98.5Q606 46 543.5 18Q481 -10 395 -10ZM395 725Q319 725 269.5 698Q220 671 191 625Q162 579 150.5 518.5Q139 458 139 390Q139 323 150.5 262Q162 201 191 155Q220 109 269.5 82Q319 55 395 55Q471 55 520.5 82Q570 109 599 155Q628 201 639.5 262Q651 323 651 390Q651 458 639.5 518.5Q628 579 599 625Q570 671 520.5 698Q471 725 395 725ZM573 1030Q573 983 564.5 946Q556 909 535 883.5Q514 858 480 845Q446 832 395 832Q344 832 310 845Q276 858 255 883.5Q234 909 225.5 946Q217 983 217 1030H273Q273 951 301.5 919.5Q330 888 395 888Q460 888 488.5 919.5Q517 951 517 1030Z" glyph-name="Obreve" horiz-adv-x="790" unicode="&#334;" /><glyph d="M395 -10Q309 -10 246.5 18Q184 46 143.5 98.5Q103 151 84 225Q65 299 65 390Q65 482 84 555.5Q103 629 143.5 681.5Q184 734 246.5 762Q309 790 395 790Q481 790 543.5 762Q606 734 646.5 681.5Q687 629 706 555.5Q725 482 725 390Q725 299 706 225Q687 151 646.5 98.5Q606 46 543.5 18Q481 -10 395 -10ZM395 725Q319 725 269.5 698Q220 671 191 625Q162 579 150.5 518.5Q139 458 139 390Q139 323 150.5 262Q162 201 191 155Q220 109 269.5 82Q319 55 395 55Q471 55 520.5 82Q570 109 599 155Q628 201 639.5 262Q651 323 651 390Q651 458 639.5 518.5Q628 579 599 625Q570 671 520.5 698Q471 725 395 725ZM512 822 395 972 278 822H211L361 1030H429L579 822Z" glyph-name="Ocircumflex" horiz-adv-x="790" unicode="&#212;" /><glyph d="M395 -10Q309 -10 246.5 18Q184 46 143.5 98.5Q103 151 84 225Q65 299 65 390Q65 482 84 555.5Q103 629 143.5 681.5Q184 734 246.5 762Q309 790 395 790Q481 790 543.5 762Q606 734 646.5 681.5Q687 629 706 555.5Q725 482 725 390Q725 299 706 225Q687 151 646.5 98.5Q606 46 543.5 18Q481 -10 395 -10ZM395 725Q319 725 269.5 698Q220 671 191 625Q162 579 150.5 518.5Q139 458 139 390Q139 323 150.5 262Q162 201 191 155Q220 109 269.5 82Q319 55 395 55Q471 55 520.5 82Q570 109 599 155Q628 201 639.5 262Q651 323 651 390Q651 458 639.5 518.5Q628 579 599 625Q570 671 520.5 698Q471 725 395 725ZM345 883H259V969H345ZM531 883H445V969H531Z" glyph-name="Odieresis" horiz-adv-x="790" unicode="&#214;" /><glyph d="M395 -10Q309 -10 246.5 18Q184 46 143.5 98.5Q103 151 84 225Q65 299 65 390Q65 482 84 555.5Q103 629 143.5 681.5Q184 734 246.5 762Q309 790 395 790Q481 790 543.5 762Q606 734 646.5 681.5Q687 629 706 555.5Q725 482 725 390Q725 299 706 225Q687 151 646.5 98.5Q606 46 543.5 18Q481 -10 395 -10ZM395 725Q319 725 269.5 698Q220 671 191 625Q162 579 150.5 518.5Q139 458 139 390Q139 323 150.5 262Q162 201 191 155Q220 109 269.5 82Q319 55 395 55Q471 55 520.5 82Q570 109 599 155Q628 201 639.5 262Q651 323 651 390Q651 458 639.5 518.5Q628 579 599 625Q570 671 520.5 698Q471 725 395 725ZM341 1030 435 822H370L259 1030Z" glyph-name="Ograve" horiz-adv-x="790" unicode="&#210;" /><glyph d="M395 -10Q309 -10 246.5 18Q184 46 143.5 98.5Q103 151 84 225Q65 299 65 390Q65 482 84 555.5Q103 629 143.5 681.5Q184 734 246.5 762Q309 790 395 790Q481 790 543.5 762Q606 734 646.5 681.5Q687 629 706 555.5Q725 482 725 390Q725 299 706 225Q687 151 646.5 98.5Q606 46 543.5 18Q481 -10 395 -10ZM395 725Q319 725 269.5 698Q220 671 191 625Q162 579 150.5 518.5Q139 458 139 390Q139 323 150.5 262Q162 201 191 155Q220 109 269.5 82Q319 55 395 55Q471 55 520.5 82Q570 109 599 155Q628 201 639.5 262Q651 323 651 390Q651 458 639.5 518.5Q628 579 599 625Q570 671 520.5 698Q471 725 395 725ZM461 1030 350 822H285L379 1030ZM601 1030 490 822H425L519 1030Z" glyph-name="Ohungarumlaut" horiz-adv-x="790" unicode="&#336;" /><glyph d="M395 -10Q309 -10 246.5 18Q184 46 143.5 98.5Q103 151 84 225Q65 299 65 390Q65 482 84 555.5Q103 629 143.5 681.5Q184 734 246.5 762Q309 790 395 790Q481 790 543.5 762Q606 734 646.5 681.5Q687 629 706 555.5Q725 482 725 390Q725 299 706 225Q687 151 646.5 98.5Q606 46 543.5 18Q481 -10 395 -10ZM395 725Q319 725 269.5 698Q220 671 191 625Q162 579 150.5 518.5Q139 458 139 390Q139 323 150.5 262Q162 201 191 155Q220 109 269.5 82Q319 55 395 55Q471 55 520.5 82Q570 109 599 155Q628 201 639.5 262Q651 323 651 390Q651 458 639.5 518.5Q628 579 599 625Q570 671 520.5 698Q471 725 395 725ZM259 958H531V894H259Z" glyph-name="Omacron" horiz-adv-x="790" unicode="&#332;" /><glyph d="M395 -10Q278 -10 203 42L175 0H107L159 80Q110 132 87.5 211Q65 290 65 390Q65 482 84 555.5Q103 629 143.5 681.5Q184 734 246.5 762Q309 790 395 790Q455 790 502.5 776.5Q550 763 588 737L616 780H684L631 699Q679 646 702 568Q725 490 725 390Q725 299 706 225Q687 151 646.5 98.5Q606 46 543.5 18Q481 -10 395 -10ZM395 725Q319 725 269.5 698Q220 671 191 625Q162 579 150.5 518.5Q139 458 139 390Q139 317 152 253Q165 189 199 142L550 679Q521 701 483.5 713Q446 725 395 725ZM651 390Q651 462 638 526Q625 590 591 637L240 100Q269 78 306.5 66.5Q344 55 395 55Q471 55 520.5 82Q570 109 599 155Q628 201 639.5 262Q651 323 651 390Z" glyph-name="Oslash" horiz-adv-x="790" unicode="&#216;" /><glyph d="M395 -10Q278 -10 203 42L175 0H107L159 80Q110 132 87.5 211Q65 290 65 390Q65 482 84 555.5Q103 629 143.5 681.5Q184 734 246.5 762Q309 790 395 790Q455 790 502.5 776.5Q550 763 588 737L616 780H684L631 699Q679 646 702 568Q725 490 725 390Q725 299 706 225Q687 151 646.5 98.5Q606 46 543.5 18Q481 -10 395 -10ZM395 725Q319 725 269.5 698Q220 671 191 625Q162 579 150.5 518.5Q139 458 139 390Q139 317 152 253Q165 189 199 142L550 679Q521 701 483.5 713Q446 725 395 725ZM651 390Q651 462 638 526Q625 590 591 637L240 100Q269 78 306.5 66.5Q344 55 395 55Q471 55 520.5 82Q570 109 599 155Q628 201 639.5 262Q651 323 651 390ZM541 1030 430 822H365L459 1030Z" glyph-name="Oslashacute" horiz-adv-x="790" unicode="&#510;" /><glyph d="M395 -10Q309 -10 246.5 18Q184 46 143.5 98.5Q103 151 84 225Q65 299 65 390Q65 482 84 555.5Q103 629 143.5 681.5Q184 734 246.5 762Q309 790 395 790Q481 790 543.5 762Q606 734 646.5 681.5Q687 629 706 555.5Q725 482 725 390Q725 299 706 225Q687 151 646.5 98.5Q606 46 543.5 18Q481 -10 395 -10ZM395 725Q319 725 269.5 698Q220 671 191 625Q162 579 150.5 518.5Q139 458 139 390Q139 323 150.5 262Q162 201 191 155Q220 109 269.5 82Q319 55 395 55Q471 55 520.5 82Q570 109 599 155Q628 201 639.5 262Q651 323 651 390Q651 458 639.5 518.5Q628 579 599 625Q570 671 520.5 698Q471 725 395 725ZM466 860Q436 862 417 873Q398 884 383 897.5Q368 911 354 922.5Q340 934 320 935Q297 937 284.5 929.5Q272 922 264 911Q255 899 252 883L197 891Q202 913 211 932.5Q220 952 235 966Q250 980 272 988Q294 996 324 994Q354 993 373 981.5Q392 970 407 956.5Q422 943 436.5 931.5Q451 920 470 919Q493 917 506 925Q519 933 527 944Q536 956 538 971L593 963Q588 941 579 921.5Q570 902 555 888Q540 874 518 866.5Q496 859 466 860Z" glyph-name="Otilde" horiz-adv-x="790" unicode="&#213;" /><glyph d="M377 402Q402 402 430 406.5Q458 411 482 427Q506 443 521.5 474Q537 505 537 558Q537 611 521.5 642Q506 673 482 689Q458 705 430 709.5Q402 714 377 714H160V402ZM160 0H90V780H366Q411 780 455 770Q499 760 534 735Q569 710 590.5 667Q612 624 612 558Q612 492 590.5 449Q569 406 534 381Q499 356 455 346Q411 336 366 336H160Z" glyph-name="P" horiz-adv-x="650" unicode="P" /><glyph d="M795 -210 254 15Q156 56 110.5 152.5Q65 249 65 390Q65 482 84 555.5Q103 629 143.5 681.5Q184 734 246.5 762Q309 790 395 790Q481 790 543.5 762Q606 734 646.5 681.5Q687 629 706 555.5Q725 482 725 390Q725 212 657 114.5Q589 17 463 -5V-9L570 -50L795 -131ZM395 725Q319 725 269.5 698Q220 671 191 625Q162 579 150.5 518.5Q139 458 139 390Q139 323 150.5 262Q162 201 191 155Q220 109 269.5 82Q319 55 395 55Q471 55 520.5 82Q570 109 599 155Q628 201 639.5 262Q651 323 651 390Q651 458 639.5 518.5Q628 579 599 625Q570 671 520.5 698Q471 725 395 725Z" glyph-name="Q" horiz-adv-x="790" unicode="Q" /><glyph d="M160 0H90V780H390Q435 780 478.5 771Q522 762 556 738Q590 714 611 672Q632 630 632 564Q632 508 617 469.5Q602 431 577 406Q552 381 519 368Q486 355 450 350L663 0H579L376 347H160ZM399 413Q424 413 452 417Q480 421 503 436Q526 451 541.5 481Q557 511 557 564Q557 617 541.5 647Q526 677 503 692Q480 707 452 710.5Q424 714 399 714H160V413Z" glyph-name="R" horiz-adv-x="705" unicode="R" /><glyph d="M160 0H90V780H390Q435 780 478.5 771Q522 762 556 738Q590 714 611 672Q632 630 632 564Q632 508 617 469.5Q602 431 577 406Q552 381 519 368Q486 355 450 350L663 0H579L376 347H160ZM399 413Q424 413 452 417Q480 421 503 436Q526 451 541.5 481Q557 511 557 564Q557 617 541.5 647Q526 677 503 692Q480 707 452 710.5Q424 714 399 714H160V413ZM474 1030 363 822H298L392 1030Z" glyph-name="Racute" horiz-adv-x="705" unicode="&#340;" /><glyph d="M514 1030 364 822H296L146 1030H213L330 880L447 1030ZM160 0H90V780H390Q435 780 478.5 771Q522 762 556 738Q590 714 611 672Q632 630 632 564Q632 508 617 469.5Q602 431 577 406Q552 381 519 368Q486 355 450 350L663 0H579L376 347H160ZM399 413Q424 413 452 417Q480 421 503 436Q526 451 541.5 481Q557 511 557 564Q557 617 541.5 647Q526 677 503 692Q480 707 452 710.5Q424 714 399 714H160V413Z" glyph-name="Rcaron" horiz-adv-x="705" unicode="&#344;" /><glyph d="M389 -62 339 -200H272L310 -62ZM160 0H90V780H390Q435 780 478.5 771Q522 762 556 738Q590 714 611 672Q632 630 632 564Q632 508 617 469.5Q602 431 577 406Q552 381 519 368Q486 355 450 350L663 0H579L376 347H160ZM399 413Q424 413 452 417Q480 421 503 436Q526 451 541.5 481Q557 511 557 564Q557 617 541.5 647Q526 677 503 692Q480 707 452 710.5Q424 714 399 714H160V413Z" glyph-name="Rcommaaccent" horiz-adv-x="705" unicode="&#342;" /><glyph d="M355 -10Q284 -10 233 5Q182 20 147.5 47Q113 74 93 111Q73 148 64 192L136 198Q151 123 202.5 89Q254 55 355 55Q392 55 431 63.5Q470 72 501.5 91.5Q533 111 553 142Q573 173 573 219Q573 256 562.5 283Q552 310 527.5 329Q503 348 461.5 360Q420 372 357 379Q307 385 260 395.5Q213 406 176.5 427.5Q140 449 118 484.5Q96 520 96 576Q96 632 117 672Q138 712 173.5 738.5Q209 765 256 777.5Q303 790 356 790Q427 790 477.5 775.5Q528 761 561.5 734.5Q595 708 614.5 672Q634 636 642 594L570 588Q556 660 506.5 692.5Q457 725 356 725Q331 725 298.5 719.5Q266 714 237 698Q208 682 187.5 652.5Q167 623 167 576Q167 548 175 526Q183 504 204.5 488Q226 472 263.5 461Q301 450 359 443Q426 435 478.5 423Q531 411 567.5 386.5Q604 362 623 322Q642 282 642 219Q642 159 617.5 116Q593 73 553 45Q513 17 461.5 3.5Q410 -10 355 -10Z" glyph-name="S" horiz-adv-x="710" unicode="S" /><glyph d="M355 -10Q284 -10 233 5Q182 20 147.5 47Q113 74 93 111Q73 148 64 192L136 198Q151 123 202.5 89Q254 55 355 55Q392 55 431 63.5Q470 72 501.5 91.5Q533 111 553 142Q573 173 573 219Q573 256 562.5 283Q552 310 527.5 329Q503 348 461.5 360Q420 372 357 379Q307 385 260 395.5Q213 406 176.5 427.5Q140 449 118 484.5Q96 520 96 576Q96 632 117 672Q138 712 173.5 738.5Q209 765 256 777.5Q303 790 356 790Q427 790 477.5 775.5Q528 761 561.5 734.5Q595 708 614.5 672Q634 636 642 594L570 588Q556 660 506.5 692.5Q457 725 356 725Q331 725 298.5 719.5Q266 714 237 698Q208 682 187.5 652.5Q167 623 167 576Q167 548 175 526Q183 504 204.5 488Q226 472 263.5 461Q301 450 359 443Q426 435 478.5 423Q531 411 567.5 386.5Q604 362 623 322Q642 282 642 219Q642 159 617.5 116Q593 73 553 45Q513 17 461.5 3.5Q410 -10 355 -10ZM502 1030 391 822H326L420 1030Z" glyph-name="Sacute" horiz-adv-x="710" unicode="&#346;" /><glyph d="M355 -10Q284 -10 233 5Q182 20 147.5 47Q113 74 93 111Q73 148 64 192L136 198Q151 123 202.5 89Q254 55 355 55Q392 55 431 63.5Q470 72 501.5 91.5Q533 111 553 142Q573 173 573 219Q573 256 562.5 283Q552 310 527.5 329Q503 348 461.5 360Q420 372 357 379Q307 385 260 395.5Q213 406 176.5 427.5Q140 449 118 484.5Q96 520 96 576Q96 632 117 672Q138 712 173.5 738.5Q209 765 256 777.5Q303 790 356 790Q427 790 477.5 775.5Q528 761 561.5 734.5Q595 708 614.5 672Q634 636 642 594L570 588Q556 660 506.5 692.5Q457 725 356 725Q331 725 298.5 719.5Q266 714 237 698Q208 682 187.5 652.5Q167 623 167 576Q167 548 175 526Q183 504 204.5 488Q226 472 263.5 461Q301 450 359 443Q426 435 478.5 423Q531 411 567.5 386.5Q604 362 623 322Q642 282 642 219Q642 159 617.5 116Q593 73 553 45Q513 17 461.5 3.5Q410 -10 355 -10ZM540 1030 390 822H322L172 1030H239L356 880L473 1030Z" glyph-name="Scaron" horiz-adv-x="710" unicode="&#352;" /><glyph d="M642 219Q642 162 620 120.5Q598 79 561.5 51Q525 23 477 8Q429 -7 377 -9L370 -34Q405 -42 431 -63.5Q457 -85 457 -127Q457 -171 425.5 -190.5Q394 -210 348 -210Q325 -210 302.5 -204.5Q280 -199 269 -193L284 -149Q292 -152 301 -155Q309 -157 319 -159.5Q329 -162 340 -162Q371 -163 385 -153.5Q399 -144 399 -128Q399 -102 372 -90.5Q345 -79 309 -75L331 -9Q267 -6 220 9.5Q173 25 141 51.5Q109 78 90.5 114Q72 150 64 192L136 198Q151 123 202.5 89Q254 55 355 55Q392 55 431 63.5Q470 72 501.5 91.5Q533 111 553 142Q573 173 573 219Q573 256 562.5 283Q552 310 527.5 329Q503 348 461.5 360Q420 372 357 379Q307 385 260 395.5Q213 406 176.5 427.5Q140 449 118 484.5Q96 520 96 576Q96 632 117 672Q138 712 173.5 738.5Q209 765 256 777.5Q303 790 356 790Q427 790 477.5 775.5Q528 761 561.5 734.5Q595 708 614.5 672Q634 636 642 594L570 588Q556 660 506.5 692.5Q457 725 356 725Q331 725 298.5 719.5Q266 714 237 698Q208 682 187.5 652.5Q167 623 167 576Q167 548 175 526Q183 504 204.5 488Q226 472 263.5 461Q301 450 359 443Q426 435 478.5 423Q531 411 567.5 386.5Q604 362 623 322Q642 282 642 219Z" glyph-name="Scedilla" horiz-adv-x="710" unicode="&#350;" /><glyph d="M355 -10Q284 -10 233 5Q182 20 147.5 47Q113 74 93 111Q73 148 64 192L136 198Q151 123 202.5 89Q254 55 355 55Q392 55 431 63.5Q470 72 501.5 91.5Q533 111 553 142Q573 173 573 219Q573 256 562.5 283Q552 310 527.5 329Q503 348 461.5 360Q420 372 357 379Q307 385 260 395.5Q213 406 176.5 427.5Q140 449 118 484.5Q96 520 96 576Q96 632 117 672Q138 712 173.5 738.5Q209 765 256 777.5Q303 790 356 790Q427 790 477.5 775.5Q528 761 561.5 734.5Q595 708 614.5 672Q634 636 642 594L570 588Q556 660 506.5 692.5Q457 725 356 725Q331 725 298.5 719.5Q266 714 237 698Q208 682 187.5 652.5Q167 623 167 576Q167 548 175 526Q183 504 204.5 488Q226 472 263.5 461Q301 450 359 443Q426 435 478.5 423Q531 411 567.5 386.5Q604 362 623 322Q642 282 642 219Q642 159 617.5 116Q593 73 553 45Q513 17 461.5 3.5Q410 -10 355 -10ZM473 822 356 972 239 822H172L322 1030H390L540 822Z" glyph-name="Scircumflex" horiz-adv-x="710" unicode="&#348;" /><glyph d="M355 -10Q284 -10 233 5Q182 20 147.5 47Q113 74 93 111Q73 148 64 192L136 198Q151 123 202.5 89Q254 55 355 55Q392 55 431 63.5Q470 72 501.5 91.5Q533 111 553 142Q573 173 573 219Q573 256 562.5 283Q552 310 527.5 329Q503 348 461.5 360Q420 372 357 379Q307 385 260 395.5Q213 406 176.5 427.5Q140 449 118 484.5Q96 520 96 576Q96 632 117 672Q138 712 173.5 738.5Q209 765 256 777.5Q303 790 356 790Q427 790 477.5 775.5Q528 761 561.5 734.5Q595 708 614.5 672Q634 636 642 594L570 588Q556 660 506.5 692.5Q457 725 356 725Q331 725 298.5 719.5Q266 714 237 698Q208 682 187.5 652.5Q167 623 167 576Q167 548 175 526Q183 504 204.5 488Q226 472 263.5 461Q301 450 359 443Q426 435 478.5 423Q531 411 567.5 386.5Q604 362 623 322Q642 282 642 219Q642 159 617.5 116Q593 73 553 45Q513 17 461.5 3.5Q410 -10 355 -10ZM401 -62 351 -200H284L322 -62Z" glyph-name="Scommaaccent" horiz-adv-x="710" unicode="&#536;" /><glyph d="M345 0H275V714H25V780H595V714H345Z" glyph-name="T" horiz-adv-x="620" unicode="T" /><glyph d="M345 367V0H275V367H155V433H275V714H25V780H595V714H345V433H465V367Z" glyph-name="Tbar" horiz-adv-x="620" unicode="&#358;" /><glyph d="M345 0H275V714H25V780H595V714H345ZM494 1030 344 822H276L126 1030H193L310 880L427 1030Z" glyph-name="Tcaron" horiz-adv-x="620" unicode="&#356;" /><glyph d="M345 0H275V714H25V780H595V714H345ZM349 -62 299 -200H232L270 -62Z" glyph-name="Tcommaaccent" horiz-adv-x="620" unicode="&#354;" /><glyph d="M160 622H366Q411 622 455 612Q499 602 534 577Q569 552 590.5 509Q612 466 612 400Q612 334 590.5 291Q569 248 534 223Q499 198 455 188Q411 178 366 178H160V0H90V780H160ZM377 244Q402 244 430 248.5Q458 253 482 269Q506 285 521.5 316Q537 347 537 400Q537 453 521.5 484Q506 515 482 531Q458 547 430 551.5Q402 556 377 556H160V244Z" glyph-name="Thorn" horiz-adv-x="650" unicode="&#222;" /><glyph d="M387 -10Q300 -10 241.5 12.5Q183 35 147 74Q111 113 95.5 166Q80 219 80 280V780H152V278Q152 231 162 190.5Q172 150 198 120Q224 90 269.5 72.5Q315 55 387 55Q459 55 504.5 72.5Q550 90 576 120Q602 150 612 190.5Q622 231 622 278V780H694V280Q694 219 678.5 166Q663 113 627 74Q591 35 532.5 12.5Q474 -10 387 -10Z" glyph-name="U" horiz-adv-x="774" unicode="U" /><glyph d="M387 -10Q300 -10 241.5 12.5Q183 35 147 74Q111 113 95.5 166Q80 219 80 280V780H152V278Q152 231 162 190.5Q172 150 198 120Q224 90 269.5 72.5Q315 55 387 55Q459 55 504.5 72.5Q550 90 576 120Q602 150 612 190.5Q622 231 622 278V780H694V280Q694 219 678.5 166Q663 113 627 74Q591 35 532.5 12.5Q474 -10 387 -10ZM533 1030 422 822H357L451 1030Z" glyph-name="Uacute" horiz-adv-x="774" unicode="&#218;" /><glyph d="M387 -10Q300 -10 241.5 12.5Q183 35 147 74Q111 113 95.5 166Q80 219 80 280V780H152V278Q152 231 162 190.5Q172 150 198 120Q224 90 269.5 72.5Q315 55 387 55Q459 55 504.5 72.5Q550 90 576 120Q602 150 612 190.5Q622 231 622 278V780H694V280Q694 219 678.5 166Q663 113 627 74Q591 35 532.5 12.5Q474 -10 387 -10ZM565 1030Q565 983 556.5 946Q548 909 527 883.5Q506 858 472 845Q438 832 387 832Q336 832 302 845Q268 858 247 883.5Q226 909 217.5 946Q209 983 209 1030H265Q265 951 293.5 919.5Q322 888 387 888Q452 888 480.5 919.5Q509 951 509 1030Z" glyph-name="Ubreve" horiz-adv-x="774" unicode="&#364;" /><glyph d="M387 -10Q300 -10 241.5 12.5Q183 35 147 74Q111 113 95.5 166Q80 219 80 280V780H152V278Q152 231 162 190.5Q172 150 198 120Q224 90 269.5 72.5Q315 55 387 55Q459 55 504.5 72.5Q550 90 576 120Q602 150 612 190.5Q622 231 622 278V780H694V280Q694 219 678.5 166Q663 113 627 74Q591 35 532.5 12.5Q474 -10 387 -10ZM504 822 387 972 270 822H203L353 1030H421L571 822Z" glyph-name="Ucircumflex" horiz-adv-x="774" unicode="&#219;" /><glyph d="M387 -10Q300 -10 241.5 12.5Q183 35 147 74Q111 113 95.5 166Q80 219 80 280V780H152V278Q152 231 162 190.5Q172 150 198 120Q224 90 269.5 72.5Q315 55 387 55Q459 55 504.5 72.5Q550 90 576 120Q602 150 612 190.5Q622 231 622 278V780H694V280Q694 219 678.5 166Q663 113 627 74Q591 35 532.5 12.5Q474 -10 387 -10ZM337 883H251V969H337ZM523 883H437V969H523Z" glyph-name="Udieresis" horiz-adv-x="774" unicode="&#220;" /><glyph d="M387 -10Q300 -10 241.5 12.5Q183 35 147 74Q111 113 95.5 166Q80 219 80 280V780H152V278Q152 231 162 190.5Q172 150 198 120Q224 90 269.5 72.5Q315 55 387 55Q459 55 504.5 72.5Q550 90 576 120Q602 150 612 190.5Q622 231 622 278V780H694V280Q694 219 678.5 166Q663 113 627 74Q591 35 532.5 12.5Q474 -10 387 -10ZM334 1030 428 822H363L252 1030Z" glyph-name="Ugrave" horiz-adv-x="774" unicode="&#217;" /><glyph d="M387 -10Q300 -10 241.5 12.5Q183 35 147 74Q111 113 95.5 166Q80 219 80 280V780H152V278Q152 231 162 190.5Q172 150 198 120Q224 90 269.5 72.5Q315 55 387 55Q459 55 504.5 72.5Q550 90 576 120Q602 150 612 190.5Q622 231 622 278V780H694V280Q694 219 678.5 166Q663 113 627 74Q591 35 532.5 12.5Q474 -10 387 -10ZM593 1030 482 822H417L511 1030ZM453 1030 342 822H277L371 1030Z" glyph-name="Uhungarumlaut" horiz-adv-x="774" unicode="&#368;" /><glyph d="M387 -10Q300 -10 241.5 12.5Q183 35 147 74Q111 113 95.5 166Q80 219 80 280V780H152V278Q152 231 162 190.5Q172 150 198 120Q224 90 269.5 72.5Q315 55 387 55Q459 55 504.5 72.5Q550 90 576 120Q602 150 612 190.5Q622 231 622 278V780H694V280Q694 219 678.5 166Q663 113 627 74Q591 35 532.5 12.5Q474 -10 387 -10ZM251 958H523V894H251Z" glyph-name="Umacron" horiz-adv-x="774" unicode="&#362;" /><glyph d="M387 -10Q300 -10 241.5 12.5Q183 35 147 74Q111 113 95.5 166Q80 219 80 280V780H152V278Q152 231 162 190.5Q172 150 198 120Q224 90 269.5 72.5Q315 55 387 55Q459 55 504.5 72.5Q550 90 576 120Q602 150 612 190.5Q622 231 622 278V780H694V280Q694 230 684 186Q674 142 651.5 106Q629 70 592.5 43.5Q556 17 503 3Q452 -11 419.5 -43Q387 -75 387 -109Q387 -131 400 -143Q413 -155 443 -155Q457 -155 469 -152Q481 -149 492 -145Q504 -141 515 -134L532 -185Q516 -195 491 -202.5Q466 -210 432 -210Q412 -210 392.5 -205Q373 -200 357 -189Q341 -178 331.5 -160.5Q322 -143 322 -117Q322 -88 339 -60.5Q356 -33 387 -10Z" glyph-name="Uogonek" horiz-adv-x="774" unicode="&#370;" /><glyph d="M387 -10Q300 -10 241.5 12.5Q183 35 147 74Q111 113 95.5 166Q80 219 80 280V780H152V278Q152 231 162 190.5Q172 150 198 120Q224 90 269.5 72.5Q315 55 387 55Q459 55 504.5 72.5Q550 90 576 120Q602 150 612 190.5Q622 231 622 278V780H694V280Q694 219 678.5 166Q663 113 627 74Q591 35 532.5 12.5Q474 -10 387 -10ZM273 926Q273 976 303 1008Q333 1040 387 1040Q441 1040 471 1008Q501 976 501 926Q501 876 471 844Q441 812 387 812Q333 812 303 844Q273 876 273 926ZM331 926Q331 900 346 884Q361 868 387 868Q413 868 428 884Q443 900 443 926Q443 952 428 968Q413 984 387 984Q361 984 346 968Q331 952 331 926Z" glyph-name="Uring" horiz-adv-x="774" unicode="&#366;" /><glyph d="M387 -10Q300 -10 241.5 12.5Q183 35 147 74Q111 113 95.5 166Q80 219 80 280V780H152V278Q152 231 162 190.5Q172 150 198 120Q224 90 269.5 72.5Q315 55 387 55Q459 55 504.5 72.5Q550 90 576 120Q602 150 612 190.5Q622 231 622 278V780H694V280Q694 219 678.5 166Q663 113 627 74Q591 35 532.5 12.5Q474 -10 387 -10ZM458 860Q428 862 409 873Q390 884 375 897.5Q360 911 346 922.5Q332 934 312 935Q289 937 276.5 929.5Q264 922 256 911Q247 899 244 883L189 891Q194 913 203 932.5Q212 952 227 966Q242 980 264 988Q286 996 316 994Q346 993 365 981.5Q384 970 399 956.5Q414 943 428.5 931.5Q443 920 462 919Q485 917 498 925Q511 933 519 944Q528 956 530 971L585 963Q580 941 571 921.5Q562 902 547 888Q532 874 510 866.5Q488 859 458 860Z" glyph-name="Utilde" horiz-adv-x="774" unicode="&#360;" /><glyph d="M398 -10H322L22 780H98L289 266L360 68L431 266L622 780H698Z" glyph-name="V" horiz-adv-x="720" unicode="V" /><glyph d="M443 780H517L665 276L710 107L744 277L858 780H930L744 -10H683L534 499L480 694L426 499L277 -10H216L30 780H102L216 277L250 107L295 276Z" glyph-name="W" horiz-adv-x="960" unicode="W" /><glyph d="M443 780H517L665 276L710 107L744 277L858 780H930L744 -10H683L534 499L480 694L426 499L277 -10H216L30 780H102L216 277L250 107L295 276ZM626 1030 515 822H450L544 1030Z" glyph-name="Wacute" horiz-adv-x="960" unicode="&#7810;" /><glyph d="M443 780H517L665 276L710 107L744 277L858 780H930L744 -10H683L534 499L480 694L426 499L277 -10H216L30 780H102L216 277L250 107L295 276ZM597 822 480 972 363 822H296L446 1030H514L664 822Z" glyph-name="Wcircumflex" horiz-adv-x="960" unicode="&#372;" /><glyph d="M443 780H517L665 276L710 107L744 277L858 780H930L744 -10H683L534 499L480 694L426 499L277 -10H216L30 780H102L216 277L250 107L295 276ZM430 883H344V969H430ZM616 883H530V969H616Z" glyph-name="Wdieresis" horiz-adv-x="960" unicode="&#7812;" /><glyph d="M443 780H517L665 276L710 107L744 277L858 780H930L744 -10H683L534 499L480 694L426 499L277 -10H216L30 780H102L216 277L250 107L295 276ZM416 1030 510 822H445L334 1030Z" glyph-name="Wgrave" horiz-adv-x="960" unicode="&#7808;" /><glyph d="M258 204 123 0H38L270 342L312 403L271 461L56 780H138L258 600L350 460L442 600L562 780H646L431 461L390 403L432 342L662 0H577L442 204L350 345Z" glyph-name="X" horiz-adv-x="700" unicode="X" /><glyph d="M101 780 263 536 355 395 447 536 609 780H690L390 335V0H320V335L20 780Z" glyph-name="Y" horiz-adv-x="710" unicode="Y" /><glyph d="M101 780 263 536 355 395 447 536 609 780H690L390 335V0H320V335L20 780ZM501 1030 390 822H325L419 1030Z" glyph-name="Yacute" horiz-adv-x="710" unicode="&#221;" /><glyph d="M101 780 263 536 355 395 447 536 609 780H690L390 335V0H320V335L20 780ZM472 822 355 972 238 822H171L321 1030H389L539 822Z" glyph-name="Ycircumflex" horiz-adv-x="710" unicode="&#374;" /><glyph d="M101 780 263 536 355 395 447 536 609 780H690L390 335V0H320V335L20 780ZM305 883H219V969H305ZM491 883H405V969H491Z" glyph-name="Ydieresis" horiz-adv-x="710" unicode="&#376;" /><glyph d="M101 780 263 536 355 395 447 536 609 780H690L390 335V0H320V335L20 780ZM301 1030 395 822H330L219 1030Z" glyph-name="Ygrave" horiz-adv-x="710" unicode="&#7922;" /><glyph d="M53 58 469 610 552 715 283 714H73V780H640V722L224 170L141 65L410 66H640V0H53Z" glyph-name="Z" horiz-adv-x="690" unicode="Z" /><glyph d="M53 58 469 610 552 715 283 714H73V780H640V722L224 170L141 65L410 66H640V0H53ZM486 1030 375 822H310L404 1030Z" glyph-name="Zacute" horiz-adv-x="690" unicode="&#377;" /><glyph d="M53 58 469 610 552 715 283 714H73V780H640V722L224 170L141 65L410 66H640V0H53ZM524 1030 374 822H306L156 1030H223L340 880L457 1030Z" glyph-name="Zcaron" horiz-adv-x="690" unicode="&#381;" /><glyph d="M53 58 469 610 552 715 283 714H73V780H640V722L224 170L141 65L410 66H640V0H53ZM383 883H297V969H383Z" glyph-name="Zdotaccent" horiz-adv-x="690" unicode="&#379;" /><glyph d="M52 142Q52 183 66.5 211Q81 239 107.5 257.5Q134 276 171.5 286.5Q209 297 254 304L436 331V356Q436 425 394.5 451.5Q353 478 282 479Q215 481 184.5 453.5Q154 426 143 376L74 386Q81 420 95 448.5Q109 477 133 497Q157 517 193.5 528.5Q230 540 282 540Q385 540 442.5 493.5Q500 447 500 352V124L506 0H448L436 91Q424 69 403 50Q382 31 355.5 18Q329 5 298.5 -2.5Q268 -10 237 -10Q143 -10 97.5 30Q52 70 52 142ZM120 142Q120 94 150 72.5Q180 51 237 51Q279 51 315 65.5Q351 80 377.5 102Q404 124 419.5 151.5Q435 179 436 204V274L253 245Q225 241 201 234.5Q177 228 159 217Q141 206 130.5 188Q120 170 120 142Z" glyph-name="a" horiz-adv-x="570" unicode="a" /><glyph d="M428 800 317 592H252L346 800ZM52 142Q52 183 66.5 211Q81 239 107.5 257.5Q134 276 171.5 286.5Q209 297 254 304L436 331V356Q436 425 394.5 451.5Q353 478 282 479Q215 481 184.5 453.5Q154 426 143 376L74 386Q81 420 95 448.5Q109 477 133 497Q157 517 193.5 528.5Q230 540 282 540Q385 540 442.5 493.5Q500 447 500 352V124L506 0H448L436 91Q424 69 403 50Q382 31 355.5 18Q329 5 298.5 -2.5Q268 -10 237 -10Q143 -10 97.5 30Q52 70 52 142ZM120 142Q120 94 150 72.5Q180 51 237 51Q279 51 315 65.5Q351 80 377.5 102Q404 124 419.5 151.5Q435 179 436 204V274L253 245Q225 241 201 234.5Q177 228 159 217Q141 206 130.5 188Q120 170 120 142Z" glyph-name="aacute" horiz-adv-x="570" unicode="&#225;" /><glyph d="M460 800Q460 753 451.5 716Q443 679 422 653.5Q401 628 367 615Q333 602 282 602Q231 602 197 615Q163 628 142 653.5Q121 679 112.5 716Q104 753 104 800H160Q160 721 188.5 689.5Q217 658 282 658Q347 658 375.5 689.5Q404 721 404 800ZM52 142Q52 183 66.5 211Q81 239 107.5 257.5Q134 276 171.5 286.5Q209 297 254 304L436 331V356Q436 425 394.5 451.5Q353 478 282 479Q215 481 184.5 453.5Q154 426 143 376L74 386Q81 420 95 448.5Q109 477 133 497Q157 517 193.5 528.5Q230 540 282 540Q385 540 442.5 493.5Q500 447 500 352V124L506 0H448L436 91Q424 69 403 50Q382 31 355.5 18Q329 5 298.5 -2.5Q268 -10 237 -10Q143 -10 97.5 30Q52 70 52 142ZM120 142Q120 94 150 72.5Q180 51 237 51Q279 51 315 65.5Q351 80 377.5 102Q404 124 419.5 151.5Q435 179 436 204V274L253 245Q225 241 201 234.5Q177 228 159 217Q141 206 130.5 188Q120 170 120 142Z" glyph-name="abreve" horiz-adv-x="570" unicode="&#259;" /><glyph d="M399 592 282 742 165 592H98L248 800H316L466 592ZM52 142Q52 183 66.5 211Q81 239 107.5 257.5Q134 276 171.5 286.5Q209 297 254 304L436 331V356Q436 425 394.5 451.5Q353 478 282 479Q215 481 184.5 453.5Q154 426 143 376L74 386Q81 420 95 448.5Q109 477 133 497Q157 517 193.5 528.5Q230 540 282 540Q385 540 442.5 493.5Q500 447 500 352V124L506 0H448L436 91Q424 69 403 50Q382 31 355.5 18Q329 5 298.5 -2.5Q268 -10 237 -10Q143 -10 97.5 30Q52 70 52 142ZM120 142Q120 94 150 72.5Q180 51 237 51Q279 51 315 65.5Q351 80 377.5 102Q404 124 419.5 151.5Q435 179 436 204V274L253 245Q225 241 201 234.5Q177 228 159 217Q141 206 130.5 188Q120 170 120 142Z" glyph-name="acircumflex" horiz-adv-x="570" unicode="&#226;" /><glyph d="M446 800 335 592H270L364 800Z" glyph-name="acute" horiz-adv-x="600" unicode="&#180;" /><glyph d="M232 653H146V739H232ZM418 653H332V739H418ZM52 142Q52 183 66.5 211Q81 239 107.5 257.5Q134 276 171.5 286.5Q209 297 254 304L436 331V356Q436 425 394.5 451.5Q353 478 282 479Q215 481 184.5 453.5Q154 426 143 376L74 386Q81 420 95 448.5Q109 477 133 497Q157 517 193.5 528.5Q230 540 282 540Q385 540 442.5 493.5Q500 447 500 352V124L506 0H448L436 91Q424 69 403 50Q382 31 355.5 18Q329 5 298.5 -2.5Q268 -10 237 -10Q143 -10 97.5 30Q52 70 52 142ZM120 142Q120 94 150 72.5Q180 51 237 51Q279 51 315 65.5Q351 80 377.5 102Q404 124 419.5 151.5Q435 179 436 204V274L253 245Q225 241 201 234.5Q177 228 159 217Q141 206 130.5 188Q120 170 120 142Z" glyph-name="adieresis" horiz-adv-x="570" unicode="&#228;" /><glyph d="M675 540Q791 540 845 468.5Q899 397 899 266V239H504Q509 138 555.5 94.5Q602 51 676 51Q747 50 780.5 78Q814 106 825 153L896 144Q890 113 874.5 85Q859 57 832.5 36Q806 15 767 2.5Q728 -10 675 -10Q600 -10 546 22Q492 54 463 116Q443 79 416 55Q389 31 359 16.5Q329 2 297.5 -4Q266 -10 237 -10Q143 -10 97.5 30Q52 70 52 142Q52 183 68 212.5Q84 242 112.5 261Q141 280 179.5 289Q218 298 264 298H434V356Q434 425 393.5 451.5Q353 478 282 479Q215 481 184.5 453.5Q154 426 143 376L74 386Q81 420 95 448.5Q109 477 133 497Q157 517 193.5 528.5Q230 540 282 540Q354 540 404.5 515.5Q455 491 479 443Q511 491 560 515.5Q609 540 675 540ZM675 480Q602 480 555.5 437Q509 394 504 298H827Q825 386 789 434Q753 482 675 480ZM122 142Q122 94 151 73Q180 52 237 52Q279 52 315 66Q351 80 377 102.5Q403 125 418 152Q433 179 434 204V239L263 240Q235 240 209.5 235Q184 230 164.5 218.5Q145 207 133.5 188.5Q122 170 122 142Z" glyph-name="ae" horiz-adv-x="954" unicode="&#230;" /><glyph d="M622 800 511 592H446L540 800ZM675 540Q791 540 845 468.5Q899 397 899 266V239H504Q509 138 555.5 94.5Q602 51 676 51Q747 50 780.5 78Q814 106 825 153L896 144Q890 113 874.5 85Q859 57 832.5 36Q806 15 767 2.5Q728 -10 675 -10Q600 -10 546 22Q492 54 463 116Q443 79 416 55Q389 31 359 16.5Q329 2 297.5 -4Q266 -10 237 -10Q143 -10 97.5 30Q52 70 52 142Q52 183 68 212.5Q84 242 112.5 261Q141 280 179.5 289Q218 298 264 298H434V356Q434 425 393.5 451.5Q353 478 282 479Q215 481 184.5 453.5Q154 426 143 376L74 386Q81 420 95 448.5Q109 477 133 497Q157 517 193.5 528.5Q230 540 282 540Q354 540 404.5 515.5Q455 491 479 443Q511 491 560 515.5Q609 540 675 540ZM675 480Q602 480 555.5 437Q509 394 504 298H827Q825 386 789 434Q753 482 675 480ZM122 142Q122 94 151 73Q180 52 237 52Q279 52 315 66Q351 80 377 102.5Q403 125 418 152Q433 179 434 204V239L263 240Q235 240 209.5 235Q184 230 164.5 218.5Q145 207 133.5 188.5Q122 170 122 142Z" glyph-name="aeacute" horiz-adv-x="954" unicode="&#509;" /><glyph d="M1350 303H50V367H1350Z" glyph-name="afii00208" horiz-adv-x="1400" unicode="&#8213;" /><glyph d="M322 790H398L699 0H622L530 247H190L98 0H21ZM289 514 214 313H505L431 514L360 712Z" glyph-name="afii10017" horiz-adv-x="720" unicode="&#1040;" /><glyph d="M160 714V428H405Q450 428 491.5 419.5Q533 411 565 387.5Q597 364 616 322Q635 280 635 214Q635 148 616 106Q597 64 565 40.5Q533 17 491.5 8.5Q450 0 405 0H90V780H570V714ZM160 362V66H396Q421 66 450 69.5Q479 73 503.5 87.5Q528 102 544 131.5Q560 161 560 214Q560 267 544 296.5Q528 326 503.5 340.5Q479 355 450 358.5Q421 362 396 362Z" glyph-name="afii10018" horiz-adv-x="695" unicode="&#1041;" /><glyph d="M90 0V780H399Q432 780 469 771.5Q506 763 537 740.5Q568 718 588 678Q608 638 608 576Q608 535 598 504.5Q588 474 572.5 453.5Q557 433 539 421.5Q521 410 505 405Q530 400 553.5 386.5Q577 373 595 349.5Q613 326 624 292.5Q635 259 635 214Q635 148 616 106Q597 64 565 40.5Q533 17 491.5 8.5Q450 0 405 0ZM396 66Q421 66 450 69.5Q479 73 503.5 87.5Q528 102 544 131.5Q560 161 560 214Q560 266 545.5 296.5Q531 327 508 342.5Q485 358 456.5 362.5Q428 367 401 367H160V66ZM160 714V433H388Q421 433 448 439Q475 445 493.5 461Q512 477 522.5 505Q533 533 533 576Q533 619 523 646Q513 673 494.5 688Q476 703 449 708.5Q422 714 388 714Z" glyph-name="afii10019" horiz-adv-x="695" unicode="&#1042;" /><glyph d="M160 0H90V780H570V714H160Z" glyph-name="afii10020" horiz-adv-x="585" unicode="&#1043;" /><glyph d="M660 66H731V-160H660V0H101V-160H30V66H40Q91 66 126.5 95Q162 124 187.5 181Q213 238 230.5 323Q248 408 263 520L298 780H660ZM327 465Q315 380 301.5 314.5Q288 249 271 201Q254 153 232 120Q210 87 181 66H590V714H363Z" glyph-name="afii10021" horiz-adv-x="770" unicode="&#1044;" /><glyph d="M610 780V714H160V433H570V367H160V66H630V0H90V780Z" glyph-name="afii10022" horiz-adv-x="695" unicode="&#1045;" /><glyph d="M610 780V714H160V433H570V367H160V66H630V0H90V780ZM300 883H214V969H300ZM486 883H400V969H486Z" glyph-name="afii10023" horiz-adv-x="695" unicode="&#1025;" /><glyph d="M768 492Q754 469 733 443Q712 417 678 400Q713 383 735 357Q757 331 771 308L958 0H875L710 282Q698 302 686.5 318Q675 334 661 345Q647 356 629 361.5Q611 367 587 367H525V0H455V367H393Q369 367 351 361.5Q333 356 319 345Q305 334 293.5 318Q282 302 270 282L105 0H22L209 308Q223 331 245 357Q267 383 302 400Q268 417 247 443Q226 469 212 492L37 780H120L273 518Q285 498 296.5 482Q308 466 322 455Q336 444 354 438.5Q372 433 396 433H455V780H525V433H584Q608 433 626 438.5Q644 444 658 455Q672 466 683.5 482Q695 498 707 518L860 780H943Z" glyph-name="afii10024" horiz-adv-x="980" unicode="&#1046;" /><glyph d="M627 212Q627 166 609 125.5Q591 85 554 55Q517 25 460.5 7.5Q404 -10 327 -10Q258 -10 208.5 5Q159 20 126 46Q93 72 74.5 108.5Q56 145 48 187L117 193Q128 121 178 87Q228 53 327 51Q437 49 497.5 88.5Q558 128 558 212Q558 266 537.5 297Q517 328 485 343.5Q453 359 413.5 363Q374 367 336 367H233V433H336Q376 433 411.5 437.5Q447 442 473.5 457.5Q500 473 515.5 503Q531 533 531 583Q531 622 516.5 649.5Q502 677 476 694.5Q450 712 413 720Q376 728 332 727Q235 726 187.5 693Q140 660 129 588L60 594Q68 636 85.5 672Q103 708 135 734.5Q167 761 215.5 775.5Q264 790 332 790Q386 790 434.5 778.5Q483 767 520 742.5Q557 718 578.5 678.5Q600 639 600 583Q600 541 588 509.5Q576 478 556.5 456Q537 434 512 421Q487 408 461 405Q488 402 517 389Q546 376 570.5 352.5Q595 329 611 294.5Q627 260 627 212Z" glyph-name="afii10025" horiz-adv-x="682" unicode="&#1047;" /><glyph d="M501 515 153 0H90V780H161V390L157 123L249 265L597 780H660V0H589V390L593 657Z" glyph-name="afii10026" horiz-adv-x="750" unicode="&#1048;" /><glyph d="M501 515 153 0H90V780H161V390L157 123L249 265L597 780H660V0H589V390L593 657ZM553 1030Q553 983 544.5 946Q536 909 515 883.5Q494 858 460 845Q426 832 375 832Q324 832 290 845Q256 858 235 883.5Q214 909 205.5 946Q197 983 197 1030H258Q258 991 264 963.5Q270 936 284 919.5Q298 903 320.5 895.5Q343 888 375 888Q407 888 429.5 895.5Q452 903 466 919.5Q480 936 486 963.5Q492 991 492 1030Z" glyph-name="afii10027" horiz-adv-x="750" unicode="&#1049;" /><glyph d="M483 492Q469 469 448 443Q427 417 393 400Q428 383 450 357Q472 331 486 308L673 0H590L425 282Q413 302 401.5 318Q390 334 376 345Q362 356 344 361.5Q326 367 302 367H160V0H90V780H160V433H299Q323 433 341 438.5Q359 444 373 455Q387 466 398.5 482Q410 498 422 518L575 780H658Z" glyph-name="afii10028" horiz-adv-x="695" unicode="&#1050;" /><glyph d="M660 0H590V714H362L336 530Q318 403 295.5 304.5Q273 206 239.5 138.5Q206 71 158.5 35.5Q111 0 42 0H32L30 66H40Q91 66 126.5 95Q162 124 187.5 181Q213 238 230.5 323Q248 408 263 520L298 780H660Z" glyph-name="afii10029" horiz-adv-x="770" unicode="&#1051;" /><glyph d="M211 483 154 624 158 290V0H90V780H151L381 265L456 76L531 265L761 780H822V0H754V290L758 630L701 483L489 0H423Z" glyph-name="afii10030" horiz-adv-x="912" unicode="&#1052;" /><glyph d="M660 780V0H590V367H160V0H90V780H160V433H590V780Z" glyph-name="afii10031" horiz-adv-x="750" unicode="&#1053;" /><glyph d="M395 -10Q309 -10 246.5 18Q184 46 143.5 98.5Q103 151 84 225Q65 299 65 390Q65 482 84 555.5Q103 629 143.5 681.5Q184 734 246.5 762Q309 790 395 790Q481 790 543.5 762Q606 734 646.5 681.5Q687 629 706 555.5Q725 482 725 390Q725 299 706 225Q687 151 646.5 98.5Q606 46 543.5 18Q481 -10 395 -10ZM395 725Q319 725 269.5 698Q220 671 191 625Q162 579 150.5 518.5Q139 458 139 390Q139 323 150.5 262Q162 201 191 155Q220 109 269.5 82Q319 55 395 55Q471 55 520.5 82Q570 109 599 155Q628 201 639.5 262Q651 323 651 390Q651 458 639.5 518.5Q628 579 599 625Q570 671 520.5 698Q471 725 395 725Z" glyph-name="afii10032" horiz-adv-x="790" unicode="&#1054;" /><glyph d="M660 0H590V714H160V0H90V780H660Z" glyph-name="afii10033" horiz-adv-x="750" unicode="&#1055;" /><glyph d="M377 402Q402 402 430 406.5Q458 411 482 427Q506 443 521.5 474Q537 505 537 558Q537 611 521.5 642Q506 673 482 689Q458 705 430 709.5Q402 714 377 714H160V402ZM160 0H90V780H366Q411 780 455 770Q499 760 534 735Q569 710 590.5 667Q612 624 612 558Q612 492 590.5 449Q569 406 534 381Q499 356 455 346Q411 336 366 336H160Z" glyph-name="afii10034" horiz-adv-x="650" unicode="&#1056;" /><glyph d="M139 390Q139 323 150.5 262Q162 201 191 155Q220 109 269.5 82Q319 55 395 55Q497 55 548.5 90Q600 125 615 200L687 194Q678 150 658 112.5Q638 75 603 48Q568 21 517 5.5Q466 -10 395 -10Q309 -10 246.5 18Q184 46 143.5 98.5Q103 151 84 225Q65 299 65 390Q65 482 84 555.5Q103 629 143.5 681.5Q184 734 246.5 762Q309 790 395 790Q466 790 517 774.5Q568 759 603 732Q638 705 658 667.5Q678 630 687 586L615 580Q600 655 548.5 690Q497 725 395 725Q319 725 269.5 698Q220 671 191 625Q162 579 150.5 518.5Q139 458 139 390Z" glyph-name="afii10035" horiz-adv-x="750" unicode="&#1057;" /><glyph d="M345 0H275V714H25V780H595V714H345Z" glyph-name="afii10036" horiz-adv-x="620" unicode="&#1058;" /><glyph d="M161 53Q185 53 202.5 61.5Q220 70 234 85.5Q248 101 259.5 122Q271 143 282 168L306 222L51 780H126L340 298L554 780H629L346 148Q336 124 321 96.5Q306 69 284.5 45.5Q263 22 232.5 6Q202 -10 161 -10Q123 -10 96.5 -4Q70 2 58 8L66 72Q74 68 101 60.5Q128 53 161 53Z" glyph-name="afii10037" horiz-adv-x="650" unicode="&#1059;" /><glyph d="M370 115Q296 115 237 133.5Q178 152 136.5 187.5Q95 223 72.5 274Q50 325 50 390Q50 455 72.5 506.5Q95 558 136.5 593Q178 628 237 646.5Q296 665 370 665V780H440V665Q514 665 573 646.5Q632 628 673.5 593Q715 558 737.5 506.5Q760 455 760 390Q760 325 737.5 274Q715 223 673.5 187.5Q632 152 573 133.5Q514 115 440 115V0H370ZM124 390Q124 281 186.5 230.5Q249 180 370 180V600Q249 600 186.5 549.5Q124 499 124 390ZM440 180Q561 180 623.5 230.5Q686 281 686 390Q686 499 623.5 549.5Q561 600 440 600Z" glyph-name="afii10038" horiz-adv-x="810" unicode="&#1060;" /><glyph d="M258 204 123 0H38L270 342L312 403L271 461L56 780H138L258 600L350 460L442 600L562 780H646L431 461L390 403L432 342L662 0H577L442 204L350 345Z" glyph-name="afii10039" horiz-adv-x="700" unicode="&#1061;" /><glyph d="M90 780H160V66H590V780H660V66H731V-160H660V0H90Z" glyph-name="afii10040" horiz-adv-x="770" unicode="&#1062;" /><glyph d="M600 0H530V353Q498 326 440.5 306.5Q383 287 311 287Q259 287 214 299Q169 311 136 334.5Q103 358 84 391.5Q65 425 65 468V780H135V481Q135 417 181 383.5Q227 350 311 350Q354 350 389.5 358Q425 366 453 379Q481 392 500.5 407Q520 422 530 435V780H600Z" glyph-name="afii10041" horiz-adv-x="690" unicode="&#1063;" /><glyph d="M535 66H840V780H910V0H90V780H160V66H465V780H535Z" glyph-name="afii10042" horiz-adv-x="1000" unicode="&#1064;" /><glyph d="M535 66H840V780H910V66H981V-160H910V0H90V780H160V66H465V780H535Z" glyph-name="afii10043" horiz-adv-x="1020" unicode="&#1065;" /><glyph d="M270 780V428H515Q560 428 601.5 419.5Q643 411 675 387.5Q707 364 726 322Q745 280 745 214Q745 148 726 106Q707 64 675 40.5Q643 17 601.5 8.5Q560 0 515 0H200V714H25V780ZM270 362V66H506Q531 66 560 69.5Q589 73 613.5 87.5Q638 102 654 131.5Q670 161 670 214Q670 267 654 296.5Q638 326 613.5 340.5Q589 355 560 358.5Q531 362 506 362Z" glyph-name="afii10044" horiz-adv-x="805" unicode="&#1066;" /><glyph d="M160 780V428H405Q450 428 491.5 419.5Q533 411 565 387.5Q597 364 616 322Q635 280 635 214Q635 148 616 106Q597 64 565 40.5Q533 17 491.5 8.5Q450 0 405 0H90V780ZM160 362V66H396Q421 66 450 69.5Q479 73 503.5 87.5Q528 102 544 131.5Q560 161 560 214Q560 267 544 296.5Q528 326 503.5 340.5Q479 355 450 358.5Q421 362 396 362ZM800 0H730V780H800Z" glyph-name="afii10045" horiz-adv-x="910" unicode="&#1067;" /><glyph d="M160 780V428H405Q450 428 491.5 419.5Q533 411 565 387.5Q597 364 616 322Q635 280 635 214Q635 148 616 106Q597 64 565 40.5Q533 17 491.5 8.5Q450 0 405 0H90V780ZM160 362V66H396Q421 66 450 69.5Q479 73 503.5 87.5Q528 102 544 131.5Q560 161 560 214Q560 267 544 296.5Q528 326 503.5 340.5Q479 355 450 358.5Q421 362 396 362Z" glyph-name="afii10046" horiz-adv-x="695" unicode="&#1068;" /><glyph d="M355 725Q253 725 201.5 690Q150 655 135 580L63 586Q72 630 92 667.5Q112 705 147 732Q182 759 233 774.5Q284 790 355 790Q441 790 503.5 762Q566 734 606.5 681.5Q647 629 666 555.5Q685 482 685 390Q685 299 666 225Q647 151 606.5 98.5Q566 46 503.5 18Q441 -10 355 -10Q284 -10 233 5.5Q182 21 147 48Q112 75 92 112.5Q72 150 63 194L135 200Q150 125 201.5 90Q253 55 355 55Q428 55 476.5 80Q525 105 554 147.5Q583 190 596 246.5Q609 303 610 367H180V433H610Q607 493 592.5 546.5Q578 600 548.5 639.5Q519 679 472 702Q425 725 355 725Z" glyph-name="afii10047" horiz-adv-x="750" unicode="&#1069;" /><glyph d="M645 -10Q561 -10 500 16.5Q439 43 398.5 92Q358 141 337.5 210.5Q317 280 315 367H160V0H90V780H160V433H316Q320 515 341.5 581Q363 647 403.5 693.5Q444 740 504 765Q564 790 645 790Q731 790 793.5 762Q856 734 896.5 681.5Q937 629 956 555.5Q975 482 975 390Q975 299 956 225Q937 151 896.5 98.5Q856 46 793.5 18Q731 -10 645 -10ZM645 725Q569 725 519.5 698Q470 671 441 625Q412 579 400.5 518.5Q389 458 389 390Q389 323 400.5 262Q412 201 441 155Q470 109 519.5 82Q569 55 645 55Q721 55 770.5 82Q820 109 849 155Q878 201 889.5 262Q901 323 901 390Q901 458 889.5 518.5Q878 579 849 625Q820 671 770.5 698Q721 725 645 725Z" glyph-name="afii10048" horiz-adv-x="1040" unicode="&#1070;" /><glyph d="M207 288Q216 302 227.5 318.5Q239 335 256 349Q218 353 183 365.5Q148 378 121.5 403Q95 428 79 467.5Q63 507 63 564Q63 630 84 672Q105 714 139 738Q173 762 216.5 771Q260 780 305 780H605V0H535V347H396Q372 347 354 341.5Q336 336 322 325Q308 314 296.5 298Q285 282 273 262L120 0H32ZM535 413V714H296Q271 714 243 710.5Q215 707 192 692Q169 677 153.5 647Q138 617 138 564Q138 511 153.5 481Q169 451 192 436Q215 421 243 417Q271 413 296 413Z" glyph-name="afii10049" horiz-adv-x="695" unicode="&#1071;" /><glyph d="M570 714H160V0H90V780H499V940H570Z" glyph-name="afii10050" horiz-adv-x="585" unicode="&#1168;" /><glyph d="M295 372Q305 384 320 396.5Q335 409 357.5 419.5Q380 430 410.5 436.5Q441 443 480 443Q592 443 650 386Q708 329 708 217Q708 105 651.5 47.5Q595 -10 493 -10Q479 -10 463 -8Q447 -6 436 -2L444 67Q449 65 462 61.5Q475 58 493 58Q561 58 598 98.5Q635 139 635 217Q635 376 474 376Q428 376 395 365.5Q362 355 340 338.5Q318 322 307 302.5Q296 283 295 266V0H225V714H25V780H495V714H295Z" glyph-name="afii10051" horiz-adv-x="733" unicode="&#1026;" /><glyph d="M160 0H90V780H570V714H160ZM471 1030 360 822H295L389 1030Z" glyph-name="afii10052" horiz-adv-x="585" unicode="&#1027;" /><glyph d="M395 725Q325 725 277.5 702Q230 679 200.5 639.5Q171 600 157 546.5Q143 493 140 433H570V367H139Q141 303 154 246.5Q167 190 196 147.5Q225 105 273.5 80Q322 55 395 55Q497 55 548.5 90Q600 125 615 200L687 194Q678 150 658 112.5Q638 75 603 48Q568 21 517 5.5Q466 -10 395 -10Q309 -10 246.5 18Q184 46 143.5 98.5Q103 151 84 225Q65 299 65 390Q65 482 84 555.5Q103 629 143.5 681.5Q184 734 246.5 762Q309 790 395 790Q466 790 517 774.5Q568 759 603 732Q638 705 658 667.5Q678 630 687 586L615 580Q600 655 548.5 690Q497 725 395 725Z" glyph-name="afii10053" horiz-adv-x="750" unicode="&#1028;" /><glyph d="M355 -10Q284 -10 233 5Q182 20 147.5 47Q113 74 93 111Q73 148 64 192L136 198Q151 123 202.5 89Q254 55 355 55Q392 55 431 63.5Q470 72 501.5 91.5Q533 111 553 142Q573 173 573 219Q573 256 562.5 283Q552 310 527.5 329Q503 348 461.5 360Q420 372 357 379Q307 385 260 395.5Q213 406 176.5 427.5Q140 449 118 484.5Q96 520 96 576Q96 632 117 672Q138 712 173.5 738.5Q209 765 256 777.5Q303 790 356 790Q427 790 477.5 775.5Q528 761 561.5 734.5Q595 708 614.5 672Q634 636 642 594L570 588Q556 660 506.5 692.5Q457 725 356 725Q331 725 298.5 719.5Q266 714 237 698Q208 682 187.5 652.5Q167 623 167 576Q167 548 175 526Q183 504 204.5 488Q226 472 263.5 461Q301 450 359 443Q426 435 478.5 423Q531 411 567.5 386.5Q604 362 623 322Q642 282 642 219Q642 159 617.5 116Q593 73 553 45Q513 17 461.5 3.5Q410 -10 355 -10Z" glyph-name="afii10054" horiz-adv-x="710" unicode="&#1029;" /><glyph d="M180 0H110V780H180Z" glyph-name="afii10055" horiz-adv-x="290" unicode="&#1030;" /><glyph d="M180 0H110V780H180ZM95 883H9V969H95ZM281 883H195V969H281Z" glyph-name="afii10056" horiz-adv-x="290" unicode="&#1031;" /><glyph d="M422 780V210Q422 162 409 121.5Q396 81 370 51.5Q344 22 306 6Q268 -10 218 -10Q164 -10 127 3.5Q90 17 67 39.5Q44 62 32.5 92Q21 122 18 155L89 164Q93 112 123 82.5Q153 53 218 55Q351 59 351 199V780Z" glyph-name="afii10057" horiz-adv-x="507" unicode="&#1032;" /><glyph d="M660 428H905Q950 428 991.5 419.5Q1033 411 1065 387.5Q1097 364 1116 322Q1135 280 1135 214Q1135 148 1116 106Q1097 64 1065 40.5Q1033 17 991.5 8.5Q950 0 905 0H590V714H362L336 530Q318 403 295.5 304.5Q273 206 239.5 138.5Q206 71 158.5 35.5Q111 0 42 0H32L30 66H40Q91 66 126.5 95Q162 124 187.5 181Q213 238 230.5 323Q248 408 263 520L298 780H660ZM660 66H896Q921 66 950 69.5Q979 73 1003.5 87.5Q1028 102 1044 131.5Q1060 161 1060 214Q1060 267 1044 296.5Q1028 326 1003.5 340.5Q979 355 950 358.5Q921 362 896 362H660Z" glyph-name="afii10058" horiz-adv-x="1173" unicode="&#1033;" /><glyph d="M660 428H905Q950 428 991.5 419.5Q1033 411 1065 387.5Q1097 364 1116 322Q1135 280 1135 214Q1135 148 1116 106Q1097 64 1065 40.5Q1033 17 991.5 8.5Q950 0 905 0H590V362H160V0H90V780H160V428H590V780H660ZM660 66H896Q921 66 950 69.5Q979 73 1003.5 87.5Q1028 102 1044 131.5Q1060 161 1060 214Q1060 267 1044 296.5Q1028 326 1003.5 340.5Q979 355 950 358.5Q921 362 896 362H660Z" glyph-name="afii10059" horiz-adv-x="1173" unicode="&#1034;" /><glyph d="M225 714H25V780H495V714H295V348Q321 392 368.5 417.5Q416 443 476 443Q517 443 553 431.5Q589 420 615.5 398.5Q642 377 657 345.5Q672 314 672 273V0H601V258Q601 318 565 346.5Q529 375 466 375Q429 375 398 361.5Q367 348 344.5 327Q322 306 309 280Q296 254 295 229V0H225Z" glyph-name="afii10060" horiz-adv-x="733" unicode="&#1035;" /><glyph d="M491 1030 380 822H315L409 1030ZM483 492Q469 469 448 443Q427 417 393 400Q428 383 450 357Q472 331 486 308L673 0H590L425 282Q413 302 401.5 318Q390 334 376 345Q362 356 344 361.5Q326 367 302 367H160V0H90V780H160V433H299Q323 433 341 438.5Q359 444 373 455Q387 466 398.5 482Q410 498 422 518L575 780H658Z" glyph-name="afii10061" horiz-adv-x="695" unicode="&#1036;" /><glyph d="M161 53Q185 53 202.5 61.5Q220 70 234 85.5Q248 101 259.5 122Q271 143 282 168L306 222L51 780H126L340 298L554 780H629L346 148Q336 124 321 96.5Q306 69 284.5 45.5Q263 22 232.5 6Q202 -10 161 -10Q123 -10 96.5 -4Q70 2 58 8L66 72Q74 68 101 60.5Q128 53 161 53ZM519 1030Q519 983 510.5 946Q502 909 481 883.5Q460 858 426 845Q392 832 341 832Q290 832 256 845Q222 858 201 883.5Q180 909 171.5 946Q163 983 163 1030H224Q224 991 230 963.5Q236 936 250 919.5Q264 903 286.5 895.5Q309 888 341 888Q373 888 395.5 895.5Q418 903 432 919.5Q446 936 452 963.5Q458 991 458 1030Z" glyph-name="afii10062" horiz-adv-x="650" unicode="&#1038;" /><glyph d="M52 142Q52 183 66.5 211Q81 239 107.5 257.5Q134 276 171.5 286.5Q209 297 254 304L436 331V356Q436 425 394.5 451.5Q353 478 282 479Q215 481 184.5 453.5Q154 426 143 376L74 386Q81 420 95 448.5Q109 477 133 497Q157 517 193.5 528.5Q230 540 282 540Q385 540 442.5 493.5Q500 447 500 352V124L506 0H448L436 91Q424 69 403 50Q382 31 355.5 18Q329 5 298.5 -2.5Q268 -10 237 -10Q143 -10 97.5 30Q52 70 52 142ZM120 142Q120 94 150 72.5Q180 51 237 51Q279 51 315 65.5Q351 80 377.5 102Q404 124 419.5 151.5Q435 179 436 204V274L253 245Q225 241 201 234.5Q177 228 159 217Q141 206 130.5 188Q120 170 120 142Z" glyph-name="afii10065" horiz-adv-x="570" unicode="&#1072;" /><glyph d="M291 -10Q181 -10 116.5 58.5Q52 127 52 265Q52 379 63 458.5Q74 538 93.5 591.5Q113 645 140.5 676.5Q168 708 200 725Q232 742 268.5 749Q305 756 343 760Q376 764 401 767.5Q426 771 447 775.5Q468 780 486.5 786Q505 792 526 800V732Q490 717 452 708Q414 699 355 693Q304 688 264.5 677Q225 666 196.5 640Q168 614 150 568Q132 522 123 447Q181 540 291 540Q401 540 465.5 471.5Q530 403 530 265Q530 127 465.5 58.5Q401 -10 291 -10ZM291 478Q252 478 220.5 466Q189 454 167 428Q145 402 133 361.5Q121 321 121 265Q121 153 167 102.5Q213 52 291 52Q369 52 415 102.5Q461 153 461 265Q461 321 449 361.5Q437 402 415 428Q393 454 361.5 466Q330 478 291 478Z" glyph-name="afii10066" horiz-adv-x="580" unicode="&#1073;" /><glyph d="M80 0V530H325Q352 530 382.5 524.5Q413 519 439 504Q465 489 482 462Q499 435 499 391Q499 363 491 343Q483 323 470.5 310Q458 297 442 290Q426 283 411 280Q430 279 448.5 270Q467 261 482 245.5Q497 230 506 206.5Q515 183 515 152Q515 106 498 76.5Q481 47 453.5 30Q426 13 391 6.5Q356 0 320 0ZM322 61Q379 61 412.5 80Q446 99 446 152Q446 206 413.5 225.5Q381 245 329 245H146V61ZM146 467V304H316Q377 304 404 325Q431 346 431 391Q431 433 405 450Q379 467 316 467Z" glyph-name="afii10067" horiz-adv-x="565" unicode="&#1074;" /><glyph d="M406 530V468H146V0H80V530Z" glyph-name="afii10068" horiz-adv-x="435" unicode="&#1075;" /><glyph d="M49 -160V62H63Q95 63 117 73Q139 83 154.5 107Q170 131 180.5 170Q191 209 201 268L243 530H511V62H577V-160H511V0H115V-160ZM445 468H297L266 277Q252 194 236.5 139.5Q221 85 188 62H445Z" glyph-name="afii10069" horiz-adv-x="621" unicode="&#1076;" /><glyph d="M291 540Q407 540 461 468.5Q515 397 515 266V239H120Q125 138 171.5 94.5Q218 51 292 51Q363 50 396.5 78Q430 106 441 153L512 144Q506 113 490.5 85Q475 57 448.5 36Q422 15 383 2.5Q344 -10 291 -10Q180 -10 115 58.5Q50 127 50 265Q50 403 115 471.5Q180 540 291 540ZM291 480Q218 480 171.5 437Q125 394 120 298H443Q441 386 405 434Q369 482 291 480Z" glyph-name="afii10070" horiz-adv-x="570" unicode="&#1077;" /><glyph d="M291 540Q407 540 461 468.5Q515 397 515 266V239H120Q125 138 171.5 94.5Q218 51 292 51Q363 50 396.5 78Q430 106 441 153L512 144Q506 113 490.5 85Q475 57 448.5 36Q422 15 383 2.5Q344 -10 291 -10Q180 -10 115 58.5Q50 127 50 265Q50 403 115 471.5Q180 540 291 540ZM291 480Q218 480 171.5 437Q125 394 120 298H443Q441 386 405 434Q369 482 291 480ZM241 653H155V739H241ZM427 653H341V739H427Z" glyph-name="afii10071" horiz-adv-x="570" unicode="&#1105;" /><glyph d="M122 530 206 386Q217 367 227.5 352Q238 337 251.5 327Q265 317 281.5 311.5Q298 306 321 306H356V530H422V306H457Q480 306 496.5 311.5Q513 317 526.5 327Q540 337 550.5 352Q561 367 572 386L656 530H733L630 361Q616 340 597 315.5Q578 291 547 275Q579 260 599 235Q619 210 633 189L748 0H671L575 164Q564 183 553.5 198Q543 213 529.5 223Q516 233 499.5 238.5Q483 244 460 244H422V0H356V244H318Q295 244 278.5 238.5Q262 233 248.5 223Q235 213 224.5 198Q214 183 203 164L107 0H30L145 189Q159 210 179 235Q199 260 231 275Q200 291 181 315.5Q162 340 148 361L45 530Z" glyph-name="afii10072" horiz-adv-x="778" unicode="&#1078;" /><glyph d="M491 148Q491 115 476.5 86Q462 57 434 35.5Q406 14 364 2Q322 -10 268 -10Q216 -10 177.5 2.5Q139 15 112 36Q85 57 69.5 85Q54 113 48 144L119 153Q130 105 164 77.5Q198 50 268 50Q343 50 383 73Q423 96 423 148Q423 182 410.5 200.5Q398 219 378.5 227.5Q359 236 334 237.5Q309 239 285 239H204V298H285Q309 298 331 301.5Q353 305 369.5 315Q386 325 395.5 343.5Q405 362 405 393Q405 442 369.5 460.5Q334 479 272 479Q209 479 174.5 455.5Q140 432 128 377L57 386Q65 421 80.5 449.5Q96 478 122 498Q148 518 185 529Q222 540 272 540Q310 540 346 532Q382 524 410 506.5Q438 489 455 461Q472 433 472 393Q472 365 464 344Q456 323 443 309Q430 295 414 286.5Q398 278 382 274Q399 271 418 263Q437 255 453.5 240.5Q470 226 480.5 203.5Q491 181 491 148Z" glyph-name="afii10073" horiz-adv-x="546" unicode="&#1079;" /><glyph d="M80 0V530H146L142 104L456 530H514V0H448L452 426L138 0Z" glyph-name="afii10074" horiz-adv-x="594" unicode="&#1080;" /><glyph d="M70 0V530H136L132 104L446 530H504V0H438L442 426L128 0ZM465 800Q465 753 456.5 716Q448 679 427 653.5Q406 628 372 615Q338 602 287 602Q236 602 202 615Q168 628 147 653.5Q126 679 117.5 716Q109 753 109 800H170Q170 761 176 733.5Q182 706 196 689.5Q210 673 232.5 665.5Q255 658 287 658Q319 658 341.5 665.5Q364 673 378 689.5Q392 706 398 733.5Q404 761 404 800Z" glyph-name="afii10075" horiz-adv-x="584" unicode="&#1081;" /><glyph d="M527 530 424 361Q410 340 391 315.5Q372 291 341 275Q373 260 393 235Q413 210 427 189L542 0H465L369 164Q358 183 347.5 198Q337 213 323.5 223Q310 233 293.5 238.5Q277 244 254 244H146V0H80V530H146V306H251Q274 306 290.5 311.5Q307 317 320.5 327Q334 337 344.5 352Q355 367 366 386L450 530Z" glyph-name="afii10076" horiz-adv-x="572" unicode="&#1082;" /><glyph d="M502 0H436V468H288L257 277Q244 197 226 143.5Q208 90 183 58Q158 26 125 13Q92 0 50 0H40L39 62H48Q82 62 105 71.5Q128 81 144 104.5Q160 128 171 168Q182 208 192 268L234 530H502Z" glyph-name="afii10077" horiz-adv-x="582" unicode="&#1083;" /><glyph d="M399 0H333L139 418L144 259V0H80V530H151L307 196L366 63L425 196L581 530H652V0H588V259L593 418Z" glyph-name="afii10078" horiz-adv-x="732" unicode="&#1084;" /><glyph d="M146 530V308H448V530H514V0H448V246H146V0H80V530Z" glyph-name="afii10079" horiz-adv-x="594" unicode="&#1085;" /><glyph d="M289 -10Q179 -10 114.5 58.5Q50 127 50 265Q50 403 114.5 471.5Q179 540 289 540Q399 540 463.5 471.5Q528 403 528 265Q528 127 463.5 58.5Q399 -10 289 -10ZM289 478Q250 478 218.5 466Q187 454 165 428Q143 402 131 361.5Q119 321 119 265Q119 153 165 102.5Q211 52 289 52Q367 52 413 102.5Q459 153 459 265Q459 321 447 361.5Q435 402 413 428Q391 454 359.5 466Q328 478 289 478Z" glyph-name="afii10080" horiz-adv-x="578" unicode="&#1086;" /><glyph d="M146 0H80V530H514V0H448V468H146Z" glyph-name="afii10081" horiz-adv-x="594" unicode="&#1087;" /><glyph d="M136 -200H70V406L64 530H124L136 439Q162 484 208.5 512Q255 540 314 540Q426 540 487.5 468Q549 396 549 265Q549 134 487.5 62Q426 -10 314 -10Q255 -10 208.5 18Q162 46 136 90ZM479 265Q479 368 434.5 422.5Q390 477 312 477Q272 477 239.5 463Q207 449 184.5 427Q162 405 149.5 378.5Q137 352 136 326V204Q137 179 149.5 152Q162 125 184.5 103Q207 81 239.5 67Q272 53 312 53Q390 53 434.5 107.5Q479 162 479 265Z" glyph-name="afii10082" horiz-adv-x="599" unicode="&#1088;" /><glyph d="M119 265Q119 162 163 107.5Q207 53 286 51Q354 50 387.5 77Q421 104 432 153L503 144Q496 110 480.5 81.5Q465 53 439 33Q413 13 375.5 1.5Q338 -10 287 -10Q175 -10 112.5 62Q50 134 50 265Q50 396 112.5 468Q175 540 287 540Q338 540 375.5 528.5Q413 517 439 497Q465 477 480.5 448.5Q496 420 503 386L432 377Q426 402 415.5 421Q405 440 387.5 453.5Q370 467 345 473.5Q320 480 286 479Q207 477 163 422.5Q119 368 119 265Z" glyph-name="afii10083" horiz-adv-x="550" unicode="&#1089;" /><glyph d="M44 530H456V468H283V0H217V468H44Z" glyph-name="afii10084" horiz-adv-x="500" unicode="&#1090;" /><glyph d="M100 -147Q136 -147 157.5 -128Q179 -109 196 -68L233 20L18 530H96L211 239L270 87L329 239L445 530H522L268 -74Q253 -109 238 -134.5Q223 -160 203.5 -177Q184 -194 159 -202Q134 -210 100 -210Q86 -210 70 -208Q54 -206 43 -202L51 -138Q56 -140 69 -143.5Q82 -147 100 -147Z" glyph-name="afii10085" horiz-adv-x="540" unicode="&#1091;" /><glyph d="M329 -10Q274 -10 222 7Q170 24 129.5 58.5Q89 93 64.5 144.5Q40 196 40 265Q40 334 64.5 385.5Q89 437 129.5 471.5Q170 506 222 523Q274 540 329 540V800H395V540Q450 540 502 523Q554 506 594.5 471.5Q635 437 659.5 385.5Q684 334 684 265Q684 196 659.5 144.5Q635 93 594.5 58.5Q554 24 502 7Q450 -10 395 -10V-200H329ZM395 52Q434 52 473.5 63Q513 74 544.5 98.5Q576 123 595.5 164Q615 205 615 265Q615 325 595.5 366Q576 407 544.5 431.5Q513 456 473.5 467Q434 478 395 478ZM109 265Q109 205 129 164Q149 123 180.5 98.5Q212 74 251 63Q290 52 329 52V478Q290 478 251 467Q212 456 180.5 431.5Q149 407 129 366Q109 325 109 265Z" glyph-name="afii10086" horiz-adv-x="724" unicode="&#1092;" /><glyph d="M196 125 104 0H23L183 220L225 276L183 331L36 530H117L196 419L265 322L333 419L412 530H492L347 331L306 276L347 220L507 0H426L335 125L265 222Z" glyph-name="afii10087" horiz-adv-x="530" unicode="&#1093;" /><glyph d="M580 62V-160H514V0H80V530H146V62H448V530H514V62Z" glyph-name="afii10088" horiz-adv-x="624" unicode="&#1094;" /><glyph d="M513 0H447V219Q427 204 380.5 188Q334 172 266 172Q228 172 192.5 181.5Q157 191 130 210.5Q103 230 86.5 259.5Q70 289 70 330V530H136V340Q136 309 146.5 289Q157 269 175.5 257Q194 245 219.5 240Q245 235 276 235Q313 235 342.5 241.5Q372 248 393.5 256.5Q415 265 428.5 274Q442 283 447 288V530H513Z" glyph-name="afii10089" horiz-adv-x="584" unicode="&#1095;" /><glyph d="M459 62H706V530H772V0H80V530H146V62H393V530H459Z" glyph-name="afii10090" horiz-adv-x="852" unicode="&#1096;" /><glyph d="M449 62H696V530H762V62H828V-160H762V0H70V530H136V62H383V530H449Z" glyph-name="afii10091" horiz-adv-x="872" unicode="&#1097;" /><glyph d="M29 530H217V308H367Q403 308 437.5 302Q472 296 498.5 279Q525 262 541 232Q557 202 557 154Q557 106 541 76Q525 46 498.5 29Q472 12 437.5 6Q403 0 367 0H151V468H29ZM383 62Q402 62 421 65.5Q440 69 455 78.5Q470 88 479 106Q488 124 488 154Q488 184 479 202Q470 220 455 229.5Q440 239 421 242.5Q402 246 383 246H217V62Z" glyph-name="afii10092" horiz-adv-x="596" unicode="&#1098;" /><glyph d="M312 62Q331 62 350 65.5Q369 69 384 78.5Q399 88 408 106Q417 124 417 154Q417 184 408 202Q399 220 384 229.5Q369 239 350 242.5Q331 246 312 246H146V62ZM80 530H146V308H296Q332 308 366.5 302Q401 296 427.5 279Q454 262 470 232Q486 202 486 154Q486 106 470 76Q454 46 427.5 29Q401 12 366.5 6Q332 0 296 0H80ZM542 530H608V0H542Z" glyph-name="afii10093" horiz-adv-x="688" unicode="&#1099;" /><glyph d="M312 62Q331 62 350 65.5Q369 69 384 78.5Q399 88 408 106Q417 124 417 154Q417 184 408 202Q399 220 384 229.5Q369 239 350 242.5Q331 246 312 246H146V62ZM80 530H146V308H296Q332 308 366.5 302Q401 296 427.5 279Q454 262 470 232Q486 202 486 154Q486 106 470 76Q454 46 427.5 29Q401 12 366.5 6Q332 0 296 0H80Z" glyph-name="afii10094" horiz-adv-x="525" unicode="&#1100;" /><glyph d="M279 540Q390 540 455 471.5Q520 403 520 265Q520 127 455 58.5Q390 -10 279 -10Q226 -10 187 2.5Q148 15 121.5 36Q95 57 79.5 85Q64 113 58 144L129 153Q140 106 174 78Q208 50 278 51Q352 51 398.5 94.5Q445 138 450 239H207V298H450Q445 394 398.5 437Q352 480 279 480Q212 482 178 454.5Q144 427 133 377L62 386Q69 420 84.5 448.5Q100 477 126 497Q152 517 190 528.5Q228 540 279 540Z" glyph-name="afii10095" horiz-adv-x="570" unicode="&#1101;" /><glyph d="M499 -10Q392 -10 328.5 53.5Q265 117 260 246H146V0H80V530H146V308H261Q272 425 334.5 482.5Q397 540 499 540Q609 540 673.5 471.5Q738 403 738 265Q738 127 673.5 58.5Q609 -10 499 -10ZM499 478Q460 478 428.5 466Q397 454 375 428Q353 402 341 361.5Q329 321 329 265Q329 153 375 102.5Q421 52 499 52Q577 52 623 102.5Q669 153 669 265Q669 321 657 361.5Q645 402 623 428Q601 454 569.5 466Q538 478 499 478Z" glyph-name="afii10096" horiz-adv-x="788" unicode="&#1102;" /><glyph d="M48 0 151 169Q159 183 170 197.5Q181 212 195 226Q168 231 145 240.5Q122 250 105 268Q88 286 78 312.5Q68 339 68 376Q68 424 84 454Q100 484 126.5 501Q153 518 187.5 524Q222 530 258 530H474V0H408V222H327Q304 222 287.5 217Q271 212 258 202Q245 192 234.5 177.5Q224 163 213 144L129 0ZM242 468Q223 468 204 464.5Q185 461 170 451.5Q155 442 146 424Q137 406 137 376Q137 346 146 328Q155 310 170 300.5Q185 291 204 287.5Q223 284 242 284H408V468Z" glyph-name="afii10097" horiz-adv-x="554" unicode="&#1103;" /><glyph d="M406 468H146V0H80V530H340V690H406Z" glyph-name="afii10098" horiz-adv-x="435" unicode="&#1169;" /><glyph d="M333 -147Q363 -147 384.5 -141.5Q406 -136 420 -120.5Q434 -105 440.5 -76.5Q447 -48 447 -2V355Q447 415 408.5 446Q370 477 307 477Q270 477 239 463Q208 449 185.5 427Q163 405 150 378Q137 351 136 326V0H70V627H-41V689H70V800H136V689H277V627H136V440Q162 484 209.5 512Q257 540 317 540Q358 540 394 528.5Q430 517 456.5 495.5Q483 474 498 442.5Q513 411 513 370V-2Q513 -43 507 -81Q501 -119 481.5 -147.5Q462 -176 427 -193Q392 -210 333 -210Q319 -210 303 -208Q287 -206 276 -202L284 -138Q289 -140 302 -143.5Q315 -147 333 -147Z" glyph-name="afii10099" horiz-adv-x="574" unicode="&#1106;" /><glyph d="M406 530V468H146V0H80V530ZM388 800 277 592H212L306 800Z" glyph-name="afii10100" horiz-adv-x="435" unicode="&#1107;" /><glyph d="M291 540Q342 540 380 528.5Q418 517 444 497Q470 477 485.5 448.5Q501 420 508 386L437 377Q431 402 420.5 421.5Q410 441 392.5 454Q375 467 350 474Q325 481 291 480Q218 480 171.5 437Q125 394 120 298H363V239H120Q125 138 171.5 94.5Q218 51 292 51Q363 50 396.5 78Q430 106 441 153L512 144Q506 113 490.5 85Q475 57 448.5 36Q422 15 383 2.5Q344 -10 291 -10Q180 -10 115 58.5Q50 127 50 265Q50 403 115 471.5Q180 540 291 540Z" glyph-name="afii10101" horiz-adv-x="570" unicode="&#1108;" /><glyph d="M262 51Q290 52 318 56.5Q346 61 368.5 72.5Q391 84 405 103Q419 122 419 152Q419 181 408 197Q397 213 377 222Q357 231 327.5 235Q298 239 261 245Q234 249 199 254.5Q164 260 133 274Q102 288 81 313.5Q60 339 60 382Q60 426 78.5 456Q97 486 125.5 505Q154 524 190 532Q226 540 260 540Q311 540 348.5 528.5Q386 517 412 497Q438 477 453.5 448.5Q469 420 476 386L405 377Q399 402 388.5 421Q378 440 360.5 453.5Q343 467 318 473.5Q293 480 259 479Q238 479 215 475Q192 471 173 461Q154 451 141.5 433Q129 415 129 386Q129 362 139.5 348.5Q150 335 169 327Q188 319 214.5 315Q241 311 272 306Q307 301 345 295Q383 289 415.5 274.5Q448 260 469 232Q490 204 490 155Q490 110 470 78.5Q450 47 418 27.5Q386 8 345 -1Q304 -10 263 -10Q210 -10 171 2.5Q132 15 105.5 36Q79 57 63.5 85Q48 113 42 144L113 153Q124 106 158 78Q192 50 262 51Z" glyph-name="afii10102" horiz-adv-x="530" unicode="&#1109;" /><glyph d="M168 653H82V739H168ZM92 530H158V0H92Z" glyph-name="afii10103" horiz-adv-x="250" unicode="&#1110;" /><glyph d="M92 530H158V0H92ZM75 653H-11V739H75ZM261 653H175V739H261Z" glyph-name="afii10104" horiz-adv-x="250" unicode="&#1111;" /><glyph d="M-22 -147Q8 -147 29.5 -141.5Q51 -136 65 -120.5Q79 -105 85.5 -76.5Q92 -48 92 -2V530H158V-2Q158 -43 152 -81Q146 -119 126.5 -147.5Q107 -176 72 -193Q37 -210 -22 -210Q-36 -210 -52 -208Q-68 -206 -79 -202L-71 -138Q-66 -140 -53 -143.5Q-40 -147 -22 -147ZM168 653H82V739H168Z" glyph-name="afii10105" horiz-adv-x="250" unicode="&#1112;" /><glyph d="M436 468H288L257 277Q244 197 226 143.5Q208 90 183 58Q158 26 125 13Q92 0 50 0H40L39 62H48Q82 62 105 71.5Q128 81 144 104.5Q160 128 171 168Q182 208 192 268L234 530H502V308H652Q688 308 722.5 302Q757 296 783.5 279Q810 262 826 232Q842 202 842 154Q842 106 826 76Q810 46 783.5 29Q757 12 722.5 6Q688 0 652 0H436ZM668 62Q687 62 706 65.5Q725 69 740 78.5Q755 88 764 106Q773 124 773 154Q773 184 764 202Q755 220 740 229.5Q725 239 706 242.5Q687 246 668 246H502V62Z" glyph-name="afii10106" horiz-adv-x="881" unicode="&#1113;" /><glyph d="M438 246H136V0H70V530H136V308H438V530H504V308H654Q690 308 724.5 302Q759 296 785.5 279Q812 262 828 232Q844 202 844 154Q844 106 828 76Q812 46 785.5 29Q759 12 724.5 6Q690 0 654 0H438ZM670 62Q689 62 708 65.5Q727 69 742 78.5Q757 88 766 106Q775 124 775 154Q775 184 766 202Q757 220 742 229.5Q727 239 708 242.5Q689 246 670 246H504V62Z" glyph-name="afii10107" horiz-adv-x="883" unicode="&#1114;" /><glyph d="M136 627V440Q162 484 209.5 512Q257 540 317 540Q358 540 394 528.5Q430 517 456.5 495.5Q483 474 498 442.5Q513 411 513 370V0H447V355Q447 415 408.5 446Q370 477 307 477Q270 477 239 463Q208 449 185.5 427Q163 405 150 378Q137 351 136 326V0H70V627H-41V689H70V800H136V689H277V627Z" glyph-name="afii10108" horiz-adv-x="574" unicode="&#1115;" /><glyph d="M418 800 307 592H242L336 800ZM527 530 424 361Q410 340 391 315.5Q372 291 341 275Q373 260 393 235Q413 210 427 189L542 0H465L369 164Q358 183 347.5 198Q337 213 323.5 223Q310 233 293.5 238.5Q277 244 254 244H146V0H80V530H146V306H251Q274 306 290.5 311.5Q307 317 320.5 327Q334 337 344.5 352Q355 367 366 386L450 530Z" glyph-name="afii10109" horiz-adv-x="572" unicode="&#1116;" /><glyph d="M100 -147Q136 -147 157.5 -128Q179 -109 196 -68L233 20L18 530H96L211 239L270 87L329 239L445 530H522L313 36L268 -74Q254 -109 238.5 -135Q223 -161 203.5 -177.5Q184 -194 159 -202Q134 -210 100 -210Q86 -210 70 -208Q54 -206 43 -202L51 -138Q56 -140 69 -143.5Q82 -147 100 -147ZM448 800Q448 753 439.5 716Q431 679 410 653.5Q389 628 355 615Q321 602 270 602Q219 602 185 615Q151 628 130 653.5Q109 679 100.5 716Q92 753 92 800H153Q153 761 159 733.5Q165 706 179 689.5Q193 673 215.5 665.5Q238 658 270 658Q302 658 324.5 665.5Q347 673 361 689.5Q375 706 381 733.5Q387 761 387 800Z" glyph-name="afii10110" horiz-adv-x="540" unicode="&#1118;" /><glyph d="M90 780H160V66H590V780H660V0H411V-160H339V0H90Z" glyph-name="afii10145" horiz-adv-x="750" unicode="&#1039;" /><glyph d="M146 62H448V530H514V0H330V-160H264V0H80V530H146Z" glyph-name="afii10193" horiz-adv-x="594" unicode="&#1119;" /><glyph d="M265 764Q348 764 394.5 719.5Q441 675 441 594V150H375V579Q375 639 346.5 670Q318 701 255 701H135V0H70V764ZM223 0V614H288V63H408Q471 63 499.5 94Q528 125 528 185V764H594V170Q594 89 547.5 44.5Q501 0 418 0Z" glyph-name="afii57636" horiz-adv-x="664" unicode="&#8362;" /><glyph d="M50 585Q50 683 97 736.5Q144 790 229 790Q269 790 297.5 781Q326 772 345.5 756Q365 740 376.5 718Q388 696 393 670L328 661Q320 695 297.5 714Q275 733 228 732Q174 730 144.5 692.5Q115 655 115 585Q115 515 144.5 477.5Q174 440 228 438Q275 437 297.5 456Q320 475 328 509L393 500Q388 474 376.5 452Q365 430 345.5 414Q326 398 297.5 389Q269 380 229 380Q144 380 97 433.5Q50 487 50 585ZM271 0H199L715 780H787ZM780 -10Q697 -10 648.5 41.5Q600 93 600 195Q600 297 648.5 348.5Q697 400 780 400Q864 400 912 348.5Q960 297 960 195Q960 93 912 41.5Q864 -10 780 -10ZM780 341Q727 341 696 306.5Q665 272 665 195Q665 118 696 83.5Q727 49 780 49Q834 49 864.5 83.5Q895 118 895 195Q895 272 864.5 306.5Q834 341 780 341Z" glyph-name="afii61248" horiz-adv-x="1010" unicode="&#8453;" /><glyph d="M20 259Q27 263 37 270Q47 277 62 290V548Q62 615 72 659Q82 703 99 728.5Q116 754 140 764Q164 774 191 774Q243 774 270.5 735.5Q298 697 298 634Q298 577 282 521.5Q266 466 241 417.5Q216 369 186 329Q156 289 128 262V128Q128 85 142 68Q156 51 196 51Q214 51 228 54Q242 57 250 60L262 1Q257 -1 248 -3Q239 -5 229.5 -6.5Q220 -8 211 -9Q202 -10 196 -10Q133 -10 97.5 18.5Q62 47 62 117V210Q46 197 36 190Q26 183 20 180ZM128 350Q148 373 167 404Q186 435 200.5 472Q215 509 224 551Q233 593 233 638Q233 672 224 693.5Q215 715 191 715Q163 715 145.5 675.5Q128 636 128 543Z" glyph-name="afii61289" horiz-adv-x="330" unicode="&#8467;" /><glyph d="M987 224Q877 224 812.5 292.5Q748 361 748 499Q748 637 812.5 705.5Q877 774 987 774Q1097 774 1161.5 705.5Q1226 637 1226 499Q1226 361 1161.5 292.5Q1097 224 987 224ZM987 712Q948 712 916.5 700Q885 688 863 662Q841 636 829 595.5Q817 555 817 499Q817 387 863 336.5Q909 286 987 286Q1065 286 1111 336.5Q1157 387 1157 499Q1157 555 1145 595.5Q1133 636 1111 662Q1089 688 1057.5 700Q1026 712 987 712ZM1030 0H944V86H1030ZM459 270 541 138 538 320 537 764H608V0H545L239 494L157 626L160 444L161 0H90V764H153Z" glyph-name="afii61352" horiz-adv-x="1276" unicode="&#8470;" /><glyph d="M228 800 322 592H257L146 800ZM52 142Q52 183 66.5 211Q81 239 107.5 257.5Q134 276 171.5 286.5Q209 297 254 304L436 331V356Q436 425 394.5 451.5Q353 478 282 479Q215 481 184.5 453.5Q154 426 143 376L74 386Q81 420 95 448.5Q109 477 133 497Q157 517 193.5 528.5Q230 540 282 540Q385 540 442.5 493.5Q500 447 500 352V124L506 0H448L436 91Q424 69 403 50Q382 31 355.5 18Q329 5 298.5 -2.5Q268 -10 237 -10Q143 -10 97.5 30Q52 70 52 142ZM120 142Q120 94 150 72.5Q180 51 237 51Q279 51 315 65.5Q351 80 377.5 102Q404 124 419.5 151.5Q435 179 436 204V274L253 245Q225 241 201 234.5Q177 228 159 217Q141 206 130.5 188Q120 170 120 142Z" glyph-name="agrave" horiz-adv-x="570" unicode="&#224;" /><glyph d="M146 728H418V664H146ZM52 142Q52 183 66.5 211Q81 239 107.5 257.5Q134 276 171.5 286.5Q209 297 254 304L436 331V356Q436 425 394.5 451.5Q353 478 282 479Q215 481 184.5 453.5Q154 426 143 376L74 386Q81 420 95 448.5Q109 477 133 497Q157 517 193.5 528.5Q230 540 282 540Q385 540 442.5 493.5Q500 447 500 352V124L506 0H448L436 91Q424 69 403 50Q382 31 355.5 18Q329 5 298.5 -2.5Q268 -10 237 -10Q143 -10 97.5 30Q52 70 52 142ZM120 142Q120 94 150 72.5Q180 51 237 51Q279 51 315 65.5Q351 80 377.5 102Q404 124 419.5 151.5Q435 179 436 204V274L253 245Q225 241 201 234.5Q177 228 159 217Q141 206 130.5 188Q120 170 120 142Z" glyph-name="amacron" horiz-adv-x="570" unicode="&#257;" /><glyph d="M706 -10 556 118Q511 54 446.5 22Q382 -10 292 -10Q247 -10 202 1.5Q157 13 121 39Q85 65 62.5 107Q40 149 40 210Q40 254 51.5 289.5Q63 325 83.5 353Q104 381 131 401.5Q158 422 188 437Q172 452 154 469Q136 486 122 508Q108 530 98.5 558Q89 586 89 622Q89 706 139 748Q189 790 284 790Q334 790 370.5 776Q407 762 430.5 739Q454 716 465 686Q476 656 476 624Q476 585 461.5 556Q447 527 423.5 504.5Q400 482 371 465.5Q342 449 312 434L298 427Q362 369 418 321.5Q474 274 535 224Q549 261 556 299.5Q563 338 564 378Q566 417 561 456Q556 495 547 533L616 540Q628 500 632 453Q636 406 632 357Q628 309 616.5 263Q605 217 586 180L706 76ZM408 623Q408 680 376 704.5Q344 729 284 729Q220 729 188.5 704.5Q157 680 157 623Q157 595 166 572.5Q175 550 188.5 531.5Q202 513 219 498Q236 483 252 468L282 483Q304 494 326.5 506.5Q349 519 367 535.5Q385 552 396.5 573.5Q408 595 408 623ZM503 164Q476 186 443.5 213.5Q411 241 375.5 271Q340 301 303.5 332.5Q267 364 232 395Q201 377 178 359Q155 341 139.5 319.5Q124 298 116.5 271.5Q109 245 109 210Q109 154 130.5 122Q152 90 181.5 74.5Q211 59 242 55Q273 51 292 51Q370 51 418.5 80Q467 109 503 164Z" glyph-name="ampersand" horiz-adv-x="731" unicode="&amp;" /><glyph d="M506 0Q455 -17 431.5 -47.5Q408 -78 408 -109Q408 -126 419.5 -140.5Q431 -155 459 -155Q473 -155 485 -152Q497 -149 508 -145Q520 -141 531 -134L548 -185Q532 -195 507 -202.5Q482 -210 448 -210Q429 -210 410 -204Q391 -198 376 -186.5Q361 -175 352 -158Q343 -141 343 -120Q343 -82 365 -42.5Q387 -3 445 25L434 107Q404 48 352 19Q300 -10 237 -10Q143 -10 97.5 30Q52 70 52 142Q52 183 66.5 211Q81 239 107.5 257.5Q134 276 171.5 286.5Q209 297 254 304L436 331V356Q436 425 394.5 451.5Q353 478 282 479Q215 481 184.5 453.5Q154 426 143 376L74 386Q81 420 95 448.5Q109 477 133 497Q157 517 193.5 528.5Q230 540 282 540Q385 540 442.5 493.5Q500 447 500 352V124ZM120 142Q120 94 150 72.5Q180 51 237 51Q279 51 314.5 66.5Q350 82 375.5 106.5Q401 131 417 161.5Q433 192 436 222V274L253 245Q225 241 201 234.5Q177 228 159 217Q141 206 130.5 188Q120 170 120 142Z" glyph-name="aogonek" horiz-adv-x="570" unicode="&#261;" /><glyph d="M70 476Q84 494 105 507Q123 518 151.5 527.5Q180 537 220 537Q264 537 296 526Q328 515 357 501.5Q386 488 416 477Q446 466 485 466Q516 466 537.5 473.5Q559 481 573 490Q590 501 600 514L630 464Q616 447 595 434Q577 423 549 413Q521 403 480 403Q437 403 404.5 414Q372 425 342.5 438.5Q313 452 283.5 463Q254 474 215 474Q185 474 163 466.5Q141 459 127 450Q110 439 100 426ZM630 304Q616 287 595 274Q577 263 549 253Q521 243 480 243Q437 243 404.5 254Q372 265 343 278.5Q314 292 284 303Q254 314 215 314Q185 314 163 306.5Q141 299 127 290Q110 279 100 266L70 316Q84 334 105 347Q123 358 151.5 367.5Q180 377 220 377Q264 377 296 366Q328 355 357.5 341.5Q387 328 416.5 317Q446 306 485 306Q516 306 537.5 313.5Q559 321 573 330Q590 341 600 354Z" glyph-name="approxequal" horiz-adv-x="700" unicode="&#8776;" /><glyph d="M168 696Q168 746 198 778Q228 810 282 810Q336 810 366 778Q396 746 396 696Q396 646 366 614Q336 582 282 582Q228 582 198 614Q168 646 168 696ZM226 696Q226 670 241 654Q256 638 282 638Q308 638 323 654Q338 670 338 696Q338 722 323 738Q308 754 282 754Q256 754 241 738Q226 722 226 696ZM52 142Q52 183 66.5 211Q81 239 107.5 257.5Q134 276 171.5 286.5Q209 297 254 304L436 331V356Q436 425 394.5 451.5Q353 478 282 479Q215 481 184.5 453.5Q154 426 143 376L74 386Q81 420 95 448.5Q109 477 133 497Q157 517 193.5 528.5Q230 540 282 540Q385 540 442.5 493.5Q500 447 500 352V124L506 0H448L436 91Q424 69 403 50Q382 31 355.5 18Q329 5 298.5 -2.5Q268 -10 237 -10Q143 -10 97.5 30Q52 70 52 142ZM120 142Q120 94 150 72.5Q180 51 237 51Q279 51 315 65.5Q351 80 377.5 102Q404 124 419.5 151.5Q435 179 436 204V274L253 245Q225 241 201 234.5Q177 228 159 217Q141 206 130.5 188Q120 170 120 142Z" glyph-name="aring" horiz-adv-x="570" unicode="&#229;" /><glyph d="M342 904 282 810Q336 810 366 778Q396 746 396 696Q396 646 366 614Q336 582 282 582Q228 582 198 614Q168 646 168 696Q168 735 186 762L265 904ZM226 696Q226 670 241 654Q256 638 282 638Q308 638 323 654Q338 670 338 696Q338 722 323 738Q308 754 282 754Q256 754 241 738Q226 722 226 696ZM52 142Q52 183 66.5 211Q81 239 107.5 257.5Q134 276 171.5 286.5Q209 297 254 304L436 331V356Q436 425 394.5 451.5Q353 478 282 479Q215 481 184.5 453.5Q154 426 143 376L74 386Q81 420 95 448.5Q109 477 133 497Q157 517 193.5 528.5Q230 540 282 540Q385 540 442.5 493.5Q500 447 500 352V124L506 0H448L436 91Q424 69 403 50Q382 31 355.5 18Q329 5 298.5 -2.5Q268 -10 237 -10Q143 -10 97.5 30Q52 70 52 142ZM120 142Q120 94 150 72.5Q180 51 237 51Q279 51 315 65.5Q351 80 377.5 102Q404 124 419.5 151.5Q435 179 436 204V274L253 245Q225 241 201 234.5Q177 228 159 217Q141 206 130.5 188Q120 170 120 142Z" glyph-name="aringacute" horiz-adv-x="570" unicode="&#507;" /><glyph d="M401 -10 154 390H229L344 198L399 97L398 200V780H462V200L461 97L516 198L631 390H706L459 -10Z" glyph-name="arrowdown" horiz-adv-x="860" unicode="&#8595;" /><glyph d="M30 419 430 666V591L238 476L137 421L240 422H820V358H240L137 359L238 304L430 189V114L30 361Z" glyph-name="arrowleft" horiz-adv-x="860" unicode="&#8592;" /><glyph d="M830 361 430 114V189L622 304L723 359L620 358H40V422H620L723 421L622 476L430 591V666L830 419Z" glyph-name="arrowright" horiz-adv-x="860" unicode="&#8594;" /><glyph d="M459 790 706 390H631L516 582L461 683L462 580V0H398V580L399 683L344 582L229 390H154L401 790Z" glyph-name="arrowup" horiz-adv-x="860" unicode="&#8593;" /><glyph d="M173 591 83 400H14L199 790H271L456 400H387L297 591L235 725Z" glyph-name="asciicircum" horiz-adv-x="470" unicode="^" /><glyph d="M30 341Q40 359 57 372Q71 383 94.5 392.5Q118 402 150 402Q183 402 204.5 390.5Q226 379 244.5 365.5Q263 352 282 341Q301 330 328 331Q351 332 366 339.5Q381 347 391 356Q402 367 410 379L440 329Q430 312 413 299Q399 288 376 278Q353 268 320 268Q287 268 265.5 279.5Q244 291 225.5 304.5Q207 318 188 329Q169 340 142 339Q120 338 104.5 330.5Q89 323 79 314Q68 303 60 291Z" glyph-name="asciitilde" horiz-adv-x="470" unicode="~" /><glyph d="M187 780 177 681 267 721 290 652 193 631 258 557 199 514 150 598 100 515 41 558 106 631 10 652 33 722 123 682 114 780Z" glyph-name="asterisk" horiz-adv-x="300" unicode="*" /><glyph d="M506 800Q621 800 706 769.5Q791 739 847.5 684Q904 629 932 553.5Q960 478 960 389Q960 308 946.5 246.5Q933 185 902.5 143.5Q872 102 821.5 81Q771 60 696 60H661L649 149Q638 127 620 108.5Q602 90 580 77Q558 64 532.5 57Q507 50 481 50Q437 50 396.5 64Q356 78 325.5 107.5Q295 137 276.5 183.5Q258 230 258 295Q258 360 276.5 406.5Q295 453 325.5 482.5Q356 512 396.5 526Q437 540 481 540Q507 540 532.5 533Q558 526 580 513Q602 500 620 481.5Q638 463 649 441L661 530H721L715 406V184L717 120Q774 120 810 140Q846 160 865.5 195.5Q885 231 892 280.5Q899 330 899 389Q899 455 877.5 517.5Q856 580 809 629.5Q762 679 687.5 709Q613 739 506 739Q409 739 335.5 706Q262 673 213 613.5Q164 554 139 472.5Q114 391 114 295Q114 199 139 117.5Q164 36 214 -23.5Q264 -83 339.5 -116Q415 -149 516 -149Q590 -149 644.5 -137.5Q699 -126 736.5 -107.5Q774 -89 795.5 -66.5Q817 -44 825 -22L896 -31Q887 -61 861.5 -92.5Q836 -124 790 -150Q744 -176 676.5 -193Q609 -210 516 -210Q408 -210 321.5 -175Q235 -140 174.5 -75Q114 -10 82 84Q50 178 50 295Q50 412 82 506Q114 600 173.5 665Q233 730 317 765Q401 800 506 800ZM649 326Q648 352 636.5 378.5Q625 405 604 427Q583 449 552.5 463Q522 477 483 477Q449 477 419.5 468Q390 459 369 437.5Q348 416 336 381Q324 346 324 295Q324 244 336 209Q348 174 369 152.5Q390 131 419.5 122Q449 113 483 113Q522 113 552.5 127Q583 141 604 163Q625 185 636.5 212Q648 239 649 264Z" glyph-name="at" horiz-adv-x="1010" unicode="@" /><glyph d="M353 630Q323 632 304 643Q285 654 270 667.5Q255 681 241 692.5Q227 704 207 705Q184 707 171.5 699.5Q159 692 151 681Q142 669 139 653L84 661Q89 683 98 702.5Q107 722 122 736Q137 750 159 758Q181 766 211 764Q241 763 260 751.5Q279 740 294 726.5Q309 713 323.5 701.5Q338 690 357 689Q380 687 393 695Q406 703 414 714Q423 726 425 741L480 733Q475 711 466 691.5Q457 672 442 658Q427 644 405 636.5Q383 629 353 630ZM52 142Q52 183 66.5 211Q81 239 107.5 257.5Q134 276 171.5 286.5Q209 297 254 304L436 331V356Q436 425 394.5 451.5Q353 478 282 479Q215 481 184.5 453.5Q154 426 143 376L74 386Q81 420 95 448.5Q109 477 133 497Q157 517 193.5 528.5Q230 540 282 540Q385 540 442.5 493.5Q500 447 500 352V124L506 0H448L436 91Q424 69 403 50Q382 31 355.5 18Q329 5 298.5 -2.5Q268 -10 237 -10Q143 -10 97.5 30Q52 70 52 142ZM120 142Q120 94 150 72.5Q180 51 237 51Q279 51 315 65.5Q351 80 377.5 102Q404 124 419.5 151.5Q435 179 436 204V274L253 245Q225 241 201 234.5Q177 228 159 217Q141 206 130.5 188Q120 170 120 142Z" glyph-name="atilde" horiz-adv-x="570" unicode="&#227;" /><glyph d="M136 440Q162 484 208.5 512Q255 540 314 540Q426 540 487.5 468Q549 396 549 265Q549 134 487.5 62Q426 -10 314 -10Q255 -10 208.5 18Q162 46 136 91L124 0H64L70 124V800H136ZM479 265Q479 368 434.5 422.5Q390 477 312 477Q272 477 239.5 463Q207 449 184.5 427Q162 405 149.5 378Q137 351 136 326V204Q137 179 149.5 152Q162 125 184.5 103Q207 81 239.5 67Q272 53 312 53Q390 53 434.5 107.5Q479 162 479 265Z" glyph-name="b" horiz-adv-x="599" unicode="b" /><glyph d="M10 830H80L310 -130H240Z" glyph-name="backslash" horiz-adv-x="320" unicode="\" /><glyph d="M170 -130H100V830H170Z" glyph-name="bar" horiz-adv-x="270" unicode="|" /><glyph d="M27 381Q46 381 60 385Q74 389 83 399.5Q92 410 96.5 429Q101 448 101 479V677Q101 703 106.5 730.5Q112 758 128.5 780Q145 802 174.5 816Q204 830 251 830H270V764H251Q232 764 216.5 760Q201 756 190 745.5Q179 735 173 716Q167 697 167 666V472Q167 439 158 406Q149 373 121 350Q149 327 158 293.5Q167 260 167 228V34Q167 3 173 -16Q179 -35 190 -45.5Q201 -56 216.5 -60Q232 -64 251 -64H270V-130H251Q204 -130 174.5 -116Q145 -102 128.5 -80Q112 -58 106.5 -30.5Q101 -3 101 23V221Q101 252 96.5 271Q92 290 83 300.5Q74 311 60 315Q46 319 27 319H8V381Z" glyph-name="braceleft" horiz-adv-x="280" unicode="{" /><glyph d="M253 319Q234 319 220 315Q206 311 197 300.5Q188 290 183.5 271Q179 252 179 221V23Q179 -3 173.5 -30.5Q168 -58 151.5 -80Q135 -102 105.5 -116Q76 -130 29 -130H10V-64H29Q48 -64 63.5 -60Q79 -56 90 -45.5Q101 -35 107 -16Q113 3 113 34V228Q113 261 122 294Q131 327 159 350Q131 373 122 406.5Q113 440 113 472V666Q113 697 107 716Q101 735 90 745.5Q79 756 63.5 760Q48 764 29 764H10V830H29Q76 830 105.5 816Q135 802 151.5 780Q168 758 173.5 730.5Q179 703 179 677V479Q179 448 183.5 429Q188 410 197 399.5Q206 389 220 385Q234 381 253 381H272V319Z" glyph-name="braceright" horiz-adv-x="280" unicode="}" /><glyph d="M170 -64H230V-130H100V830H230V764H170Z" glyph-name="bracketleft" horiz-adv-x="240" unicode="[" /><glyph d="M70 764H10V830H140V-130H10V-64H70Z" glyph-name="bracketright" horiz-adv-x="240" unicode="]" /><glyph d="M478 800Q478 753 469.5 716Q461 679 440 653.5Q419 628 385 615Q351 602 300 602Q249 602 215 615Q181 628 160 653.5Q139 679 130.5 716Q122 753 122 800H178Q178 721 206.5 689.5Q235 658 300 658Q365 658 393.5 689.5Q422 721 422 800Z" glyph-name="breve" horiz-adv-x="600" unicode="&#728;" /><glyph d="M170 -130H100V315H170ZM170 385H100V830H170Z" glyph-name="brokenbar" horiz-adv-x="270" unicode="&#166;" /><glyph d="M314 206H56V464H314Z" glyph-name="bullet" horiz-adv-x="370" unicode="&#8226;" /><glyph d="M119 265Q119 162 163 107.5Q207 53 286 51Q354 50 387.5 77Q421 104 432 153L503 144Q496 110 480.5 81.5Q465 53 439 33Q413 13 375.5 1.5Q338 -10 287 -10Q175 -10 112.5 62Q50 134 50 265Q50 396 112.5 468Q175 540 287 540Q338 540 375.5 528.5Q413 517 439 497Q465 477 480.5 448.5Q496 420 503 386L432 377Q426 402 415.5 421Q405 440 387.5 453.5Q370 467 345 473.5Q320 480 286 479Q207 477 163 422.5Q119 368 119 265Z" glyph-name="c" horiz-adv-x="550" unicode="c" /><glyph d="M119 265Q119 162 163 107.5Q207 53 286 51Q354 50 387.5 77Q421 104 432 153L503 144Q496 110 480.5 81.5Q465 53 439 33Q413 13 375.5 1.5Q338 -10 287 -10Q175 -10 112.5 62Q50 134 50 265Q50 396 112.5 468Q175 540 287 540Q338 540 375.5 528.5Q413 517 439 497Q465 477 480.5 448.5Q496 420 503 386L432 377Q426 402 415.5 421Q405 440 387.5 453.5Q370 467 345 473.5Q320 480 286 479Q207 477 163 422.5Q119 368 119 265ZM433 800 322 592H257L351 800Z" glyph-name="cacute" horiz-adv-x="550" unicode="&#263;" /><glyph d="M484 800 334 592H266L116 800H183L300 650L417 800Z" glyph-name="caron" horiz-adv-x="600" unicode="&#711;" /><glyph d="M119 265Q119 162 163 107.5Q207 53 286 51Q354 50 387.5 77Q421 104 432 153L503 144Q496 110 480.5 81.5Q465 53 439 33Q413 13 375.5 1.5Q338 -10 287 -10Q175 -10 112.5 62Q50 134 50 265Q50 396 112.5 468Q175 540 287 540Q338 540 375.5 528.5Q413 517 439 497Q465 477 480.5 448.5Q496 420 503 386L432 377Q426 402 415.5 421Q405 440 387.5 453.5Q370 467 345 473.5Q320 480 286 479Q207 477 163 422.5Q119 368 119 265ZM470 800 320 592H252L102 800H169L286 650L403 800Z" glyph-name="ccaron" horiz-adv-x="550" unicode="&#269;" /><glyph d="M119 265Q119 162 163 107.5Q207 53 286 51Q354 50 387.5 77Q421 104 432 153L503 144Q489 79 444.5 37.5Q400 -4 309 -9L302 -34Q337 -42 363 -63.5Q389 -85 389 -127Q389 -171 357.5 -190.5Q326 -210 280 -210Q257 -210 234.5 -204.5Q212 -199 201 -193L216 -149Q224 -152 233 -155Q241 -157 251 -159.5Q261 -162 272 -162Q303 -163 317 -153.5Q331 -144 331 -128Q331 -102 304 -90.5Q277 -79 241 -75L263 -9Q162 -1 106 69.5Q50 140 50 265Q50 396 112.5 468Q175 540 287 540Q338 540 375.5 528.5Q413 517 439 497Q465 477 480.5 448.5Q496 420 503 386L432 377Q426 402 415.5 421Q405 440 387.5 453.5Q370 467 345 473.5Q320 480 286 479Q207 477 163 422.5Q119 368 119 265Z" glyph-name="ccedilla" horiz-adv-x="550" unicode="&#231;" /><glyph d="M119 265Q119 162 163 107.5Q207 53 286 51Q354 50 387.5 77Q421 104 432 153L503 144Q496 110 480.5 81.5Q465 53 439 33Q413 13 375.5 1.5Q338 -10 287 -10Q175 -10 112.5 62Q50 134 50 265Q50 396 112.5 468Q175 540 287 540Q338 540 375.5 528.5Q413 517 439 497Q465 477 480.5 448.5Q496 420 503 386L432 377Q426 402 415.5 421Q405 440 387.5 453.5Q370 467 345 473.5Q320 480 286 479Q207 477 163 422.5Q119 368 119 265ZM404 592 287 742 170 592H103L253 800H321L471 592Z" glyph-name="ccircumflex" horiz-adv-x="550" unicode="&#265;" /><glyph d="M119 265Q119 162 163 107.5Q207 53 286 51Q354 50 387.5 77Q421 104 432 153L503 144Q496 110 480.5 81.5Q465 53 439 33Q413 13 375.5 1.5Q338 -10 287 -10Q175 -10 112.5 62Q50 134 50 265Q50 396 112.5 468Q175 540 287 540Q338 540 375.5 528.5Q413 517 439 497Q465 477 480.5 448.5Q496 420 503 386L432 377Q426 402 415.5 421Q405 440 387.5 453.5Q370 467 345 473.5Q320 480 286 479Q207 477 163 422.5Q119 368 119 265ZM330 653H244V739H330Z" glyph-name="cdotaccent" horiz-adv-x="550" unicode="&#267;" /><glyph d="M325 12 312 -34Q347 -42 373 -63.5Q399 -85 399 -127Q399 -171 367.5 -190.5Q336 -210 290 -210Q267 -210 244.5 -204.5Q222 -199 211 -193L226 -149Q234 -152 243 -155Q251 -157 261 -159.5Q271 -162 282 -162Q313 -163 327 -153.5Q341 -144 341 -128Q341 -102 314 -90.5Q287 -79 251 -75L281 12Z" glyph-name="cedilla" horiz-adv-x="600" unicode="&#184;" /><glyph d="M174 131Q114 161 82 224.5Q50 288 50 382Q50 513 112.5 585Q175 657 287 657Q292 657 296.5 657Q301 657 306 656L333 764H398L368 648Q429 632 460.5 594Q492 556 503 503L432 494Q424 529 405.5 553Q387 577 353 588L249 172Q264 168 286 168Q354 167 387.5 194Q421 221 432 270L503 261Q496 227 480.5 198.5Q465 170 439 150Q413 130 375.5 118.5Q338 107 287 107Q273 107 259.5 108Q246 109 234 111L206 0H141ZM119 382Q119 250 190 198L290 596H286Q207 594 163 539.5Q119 485 119 382Z" glyph-name="cent" horiz-adv-x="550" unicode="&#162;" /><glyph d="M417 592 300 742 183 592H116L266 800H334L484 592Z" glyph-name="circumflex" horiz-adv-x="600" unicode="&#710;" /><glyph d="M349 0Q368 38 381.5 73.5Q395 109 404.5 147Q414 185 420.5 227Q427 269 431 320L428 321Q415 290 396 261Q377 232 352 209.5Q327 187 296 173.5Q265 160 228 160Q191 160 159 173.5Q127 187 103 210.5Q79 234 65.5 265.5Q52 297 52 334Q52 373 64.5 406Q77 439 100 463Q123 487 155 500.5Q187 514 226 514Q252 514 272.5 507Q293 500 310 491L312 493Q295 518 284.5 547.5Q274 577 274 610Q274 647 287.5 680Q301 713 324.5 737.5Q348 762 380 776Q412 790 450 790Q488 790 520 776Q552 762 575.5 737.5Q599 713 612.5 680Q626 647 626 610Q626 577 615.5 547.5Q605 518 588 493L590 491Q607 500 627.5 507Q648 514 674 514Q713 514 745 500.5Q777 487 800 463Q823 439 835.5 406Q848 373 848 334Q848 297 834.5 265.5Q821 234 797 210.5Q773 187 741 173.5Q709 160 672 160Q635 160 604 173.5Q573 187 548 209.5Q523 232 504 261Q485 290 472 321L469 320Q473 269 479.5 227Q486 185 495.5 147Q505 109 518.5 73.5Q532 38 551 0H349Z" glyph-name="club" horiz-adv-x="900" unicode="&#9827;" /><glyph d="M183 0H97V86H183ZM183 367H97V453H183Z" glyph-name="colon" horiz-adv-x="280" unicode=":" /><glyph d="M125 104Q61 202 61 382Q61 573 134.5 673.5Q208 774 360 774Q368 774 375 773.5Q382 773 389 773L404 810H472L453 763Q472 758 483 753L506 810H574L539 722Q574 694 593.5 655.5Q613 617 622 570L550 564Q538 621 512 654L279 65Q297 58 317 55.5Q337 53 360 53Q449 53 492 89Q535 125 550 200L622 194Q613 150 595 112.5Q577 75 546 48Q515 21 469.5 5.5Q424 -10 360 -10Q303 -10 256 5L236 -46H168L198 31Q185 40 172 51L134 -46H66ZM132 382Q132 265 160 191L365 711H360Q247 711 189.5 631Q132 551 132 382ZM460 694Q449 699 430 704L200 120Q211 107 224 96L460 694Z" glyph-name="colonmonetary" horiz-adv-x="685" unicode="&#8353;" /><glyph d="M195 86 105 -164H72L107 86Z" glyph-name="comma" horiz-adv-x="280" unicode="," /><glyph d="M40 390Q40 473 71.5 546Q103 619 157 673Q211 727 284 758.5Q357 790 440 790Q523 790 596 758.5Q669 727 723 673Q777 619 808.5 546Q840 473 840 390Q840 307 808.5 234Q777 161 723 107Q669 53 596 21.5Q523 -10 440 -10Q357 -10 284 21.5Q211 53 157 107Q103 161 71.5 234Q40 307 40 390ZM105 390Q105 321 131.5 260Q158 199 203.5 153.5Q249 108 310 81.5Q371 55 440 55Q509 55 570 81.5Q631 108 676.5 153.5Q722 199 748.5 260Q775 321 775 390Q775 459 748.5 520Q722 581 676.5 626.5Q631 672 570 698.5Q509 725 440 725Q371 725 310 698.5Q249 672 203.5 626.5Q158 581 131.5 520Q105 459 105 390ZM272 390Q272 299 316 253.5Q360 208 439 206Q507 205 540.5 232Q574 259 585 308L656 299Q649 265 633.5 236.5Q618 208 592 188Q566 168 528.5 156.5Q491 145 440 145Q328 145 265.5 209.5Q203 274 203 390Q203 506 265.5 570.5Q328 635 440 635Q491 635 528.5 623.5Q566 612 592 592Q618 572 633.5 543.5Q649 515 656 481L585 472Q579 497 568.5 516Q558 535 540.5 548.5Q523 562 498 568.5Q473 575 439 574Q360 572 316 526.5Q272 481 272 390Z" glyph-name="copyright" horiz-adv-x="880" unicode="&#169;" /><glyph d="M360 153Q401 153 439.5 164Q478 175 507.5 201.5Q537 228 555 272Q573 316 573 382Q573 448 555 492Q537 536 507.5 562.5Q478 589 439.5 600Q401 611 360 611Q319 611 280.5 600Q242 589 212.5 562.5Q183 536 165 492Q147 448 147 382Q147 316 165 272Q183 228 212.5 201.5Q242 175 280.5 164Q319 153 360 153ZM128 195Q104 230 90.5 276Q77 322 77 382Q77 442 90.5 488Q104 534 128 568L20 676L66 722L172 615Q210 646 258 660Q306 674 360 674Q413 674 461.5 660Q510 646 548 615L654 722L700 676L592 568Q616 534 629.5 488Q643 442 643 382Q643 322 629.5 276Q616 230 592 195L700 88L654 42L548 148Q510 118 462 104Q414 90 360 90Q306 90 258 104Q210 118 172 148L66 42L20 88Z" glyph-name="currency" horiz-adv-x="720" unicode="&#164;" /><glyph d="M463 800H529V124L535 0H475L463 91Q437 46 390.5 18Q344 -10 285 -10Q173 -10 111.5 62Q50 134 50 265Q50 396 111.5 468Q173 540 285 540Q344 540 390.5 512Q437 484 463 440ZM120 265Q120 162 164.5 107.5Q209 53 287 53Q328 53 360 67Q392 81 414.5 103Q437 125 449.5 152Q462 179 463 204V326Q462 351 449.5 378Q437 405 414.5 427Q392 449 360 463Q328 477 287 477Q209 477 164.5 422.5Q120 368 120 265Z" glyph-name="d" horiz-adv-x="599" unicode="d" /><glyph d="M185 390H115L126 608L2 595V668L126 656L113 780H187L174 656L298 668V595L174 608Z" glyph-name="dagger" horiz-adv-x="300" unicode="&#8224;" /><glyph d="M298 434 174 447 185 229H115L126 447L2 434V507L126 495L120 551L126 608L2 595V668L126 656L113 780H187L174 656L298 668V595L174 608L180 551L174 495L298 507Z" glyph-name="daggerdbl" horiz-adv-x="300" unicode="&#8225;" /><glyph d="M712 800 637 592H576L633 800ZM463 800H529V124L535 0H475L463 91Q437 46 390.5 18Q344 -10 285 -10Q173 -10 111.5 62Q50 134 50 265Q50 396 111.5 468Q173 540 285 540Q344 540 390.5 512Q437 484 463 440ZM120 265Q120 162 164.5 107.5Q209 53 287 53Q328 53 360 67Q392 81 414.5 103Q437 125 449.5 152Q462 179 463 204V326Q462 351 449.5 378Q437 405 414.5 427Q392 449 360 463Q328 477 287 477Q209 477 164.5 422.5Q120 368 120 265Z" glyph-name="dcaron" horiz-adv-x="599" unicode="&#271;" /><glyph d="M529 627V124L535 0H475L463 91Q437 46 390.5 18Q344 -10 285 -10Q173 -10 111.5 62Q50 134 50 265Q50 396 111.5 468Q173 540 285 540Q344 540 390.5 512Q437 484 463 440V627H322V689H463V800H529V689H640V627ZM120 265Q120 162 164.5 107.5Q209 53 287 53Q328 53 360 67Q392 81 414.5 103Q437 125 449.5 152Q462 179 463 204V326Q462 351 449.5 378Q437 405 414.5 427Q392 449 360 463Q328 477 287 477Q209 477 164.5 422.5Q120 368 120 265Z" glyph-name="dcroat" horiz-adv-x="629" unicode="&#273;" /><glyph d="M240 473Q298 473 332 502Q366 531 366 594Q366 657 332 686Q298 715 240 715Q182 715 148 686Q114 657 114 594Q114 531 148 502Q182 473 240 473ZM240 414Q200 414 165 425Q130 436 105 458.5Q80 481 65.5 514.5Q51 548 51 594Q51 640 65.5 673.5Q80 707 105 729.5Q130 752 165 763Q200 774 240 774Q281 774 315.5 763Q350 752 375 729.5Q400 707 414.5 673.5Q429 640 429 594Q429 548 414.5 514.5Q400 481 375 458.5Q350 436 315.5 425Q281 414 240 414Z" glyph-name="degree" horiz-adv-x="480" unicode="&#176;" /><glyph d="M817 390Q764 348 712.5 300.5Q661 253 614 201.5Q567 150 525.5 96.5Q484 43 451 -10H449Q416 43 374.5 96.5Q333 150 286 201.5Q239 253 187.5 300.5Q136 348 83 390Q136 432 187.5 479.5Q239 527 286 578.5Q333 630 374.5 683.5Q416 737 449 790H451Q484 737 525.5 683.5Q567 630 614 578.5Q661 527 712.5 479.5Q764 432 817 390Z" glyph-name="diamond" horiz-adv-x="900" unicode="&#9830;" /><glyph d="M250 653H164V739H250ZM436 653H350V739H436Z" glyph-name="dieresis" horiz-adv-x="600" unicode="&#168;" /><glyph d="M80 358V422H620V358ZM393 134H307V220H393ZM393 560H307V646H393Z" glyph-name="divide" horiz-adv-x="700" unicode="&#247;" /><glyph d="M351 651Q397 643 431 628.5Q465 614 488 597L473 540Q444 560 410 573.5Q376 587 336 592L293 419Q326 414 359.5 406.5Q393 399 420 383.5Q447 368 464 341Q481 314 480 270Q480 226 460 195Q440 164 407.5 144Q375 124 333.5 114.5Q292 105 250 105Q241 105 232 105Q223 105 215 106L188 0H123L152 116Q116 124 88.5 137.5Q61 151 42 165L57 222Q104 188 167 175L215 367Q188 371 159.5 378.5Q131 386 107 400.5Q83 415 68 438.5Q53 462 53 499Q53 543 73 573Q93 603 125 622Q157 641 198.5 649Q240 657 282 657H288L315 764H380ZM230 166H250Q282 166 311 170.5Q340 175 362.5 186.5Q385 198 398 217.5Q411 237 411 266Q411 293 402 309Q393 325 375.5 334.5Q358 344 333.5 349Q309 354 278 358ZM121 503Q121 482 129 469.5Q137 457 151 449Q165 441 185 436.5Q205 432 230 428L272 596Q242 596 214.5 592Q187 588 166 577.5Q145 567 133 549Q121 531 121 503Z" glyph-name="dollar" horiz-adv-x="530" unicode="$" /><glyph d="M343 653H257V739H343Z" glyph-name="dotaccent" horiz-adv-x="600" unicode="&#729;" /><glyph d="M343 -153H257V-67H343Z" glyph-name="dotbelowcomb" horiz-adv-x="600" unicode="&#803;" /><glyph d="M92 530H158V0H92Z" glyph-name="dotlessi" horiz-adv-x="250" unicode="&#305;" /><glyph d="M291 540Q407 540 461 468.5Q515 397 515 266V239H120Q125 138 171.5 94.5Q218 51 292 51Q363 50 396.5 78Q430 106 441 153L512 144Q506 113 490.5 85Q475 57 448.5 36Q422 15 383 2.5Q344 -10 291 -10Q180 -10 115 58.5Q50 127 50 265Q50 403 115 471.5Q180 540 291 540ZM291 480Q218 480 171.5 437Q125 394 120 298H443Q441 386 405 434Q369 482 291 480Z" glyph-name="e" horiz-adv-x="570" unicode="e" /><glyph d="M291 540Q407 540 461 468.5Q515 397 515 266V239H120Q125 138 171.5 94.5Q218 51 292 51Q363 50 396.5 78Q430 106 441 153L512 144Q506 113 490.5 85Q475 57 448.5 36Q422 15 383 2.5Q344 -10 291 -10Q180 -10 115 58.5Q50 127 50 265Q50 403 115 471.5Q180 540 291 540ZM291 480Q218 480 171.5 437Q125 394 120 298H443Q441 386 405 434Q369 482 291 480ZM437 800 326 592H261L355 800Z" glyph-name="eacute" horiz-adv-x="570" unicode="&#233;" /><glyph d="M291 540Q407 540 461 468.5Q515 397 515 266V239H120Q125 138 171.5 94.5Q218 51 292 51Q363 50 396.5 78Q430 106 441 153L512 144Q506 113 490.5 85Q475 57 448.5 36Q422 15 383 2.5Q344 -10 291 -10Q180 -10 115 58.5Q50 127 50 265Q50 403 115 471.5Q180 540 291 540ZM291 480Q218 480 171.5 437Q125 394 120 298H443Q441 386 405 434Q369 482 291 480ZM469 800Q469 753 460.5 716Q452 679 431 653.5Q410 628 376 615Q342 602 291 602Q240 602 206 615Q172 628 151 653.5Q130 679 121.5 716Q113 753 113 800H169Q169 721 197.5 689.5Q226 658 291 658Q356 658 384.5 689.5Q413 721 413 800Z" glyph-name="ebreve" horiz-adv-x="570" unicode="&#277;" /><glyph d="M291 540Q407 540 461 468.5Q515 397 515 266V239H120Q125 138 171.5 94.5Q218 51 292 51Q363 50 396.5 78Q430 106 441 153L512 144Q506 113 490.5 85Q475 57 448.5 36Q422 15 383 2.5Q344 -10 291 -10Q180 -10 115 58.5Q50 127 50 265Q50 403 115 471.5Q180 540 291 540ZM291 480Q218 480 171.5 437Q125 394 120 298H443Q441 386 405 434Q369 482 291 480ZM475 800 325 592H257L107 800H174L291 650L408 800Z" glyph-name="ecaron" horiz-adv-x="570" unicode="&#283;" /><glyph d="M291 540Q407 540 461 468.5Q515 397 515 266V239H120Q125 138 171.5 94.5Q218 51 292 51Q363 50 396.5 78Q430 106 441 153L512 144Q506 113 490.5 85Q475 57 448.5 36Q422 15 383 2.5Q344 -10 291 -10Q180 -10 115 58.5Q50 127 50 265Q50 403 115 471.5Q180 540 291 540ZM291 480Q218 480 171.5 437Q125 394 120 298H443Q441 386 405 434Q369 482 291 480ZM408 592 291 742 174 592H107L257 800H325L475 592Z" glyph-name="ecircumflex" horiz-adv-x="570" unicode="&#234;" /><glyph d="M291 540Q407 540 461 468.5Q515 397 515 266V239H120Q125 138 171.5 94.5Q218 51 292 51Q363 50 396.5 78Q430 106 441 153L512 144Q506 113 490.5 85Q475 57 448.5 36Q422 15 383 2.5Q344 -10 291 -10Q180 -10 115 58.5Q50 127 50 265Q50 403 115 471.5Q180 540 291 540ZM291 480Q218 480 171.5 437Q125 394 120 298H443Q441 386 405 434Q369 482 291 480ZM241 653H155V739H241ZM427 653H341V739H427Z" glyph-name="edieresis" horiz-adv-x="570" unicode="&#235;" /><glyph d="M291 540Q407 540 461 468.5Q515 397 515 266V239H120Q125 138 171.5 94.5Q218 51 292 51Q363 50 396.5 78Q430 106 441 153L512 144Q506 113 490.5 85Q475 57 448.5 36Q422 15 383 2.5Q344 -10 291 -10Q180 -10 115 58.5Q50 127 50 265Q50 403 115 471.5Q180 540 291 540ZM291 480Q218 480 171.5 437Q125 394 120 298H443Q441 386 405 434Q369 482 291 480ZM334 653H248V739H334Z" glyph-name="edotaccent" horiz-adv-x="570" unicode="&#279;" /><glyph d="M291 540Q407 540 461 468.5Q515 397 515 266V239H120Q125 138 171.5 94.5Q218 51 292 51Q363 50 396.5 78Q430 106 441 153L512 144Q506 113 490.5 85Q475 57 448.5 36Q422 15 383 2.5Q344 -10 291 -10Q180 -10 115 58.5Q50 127 50 265Q50 403 115 471.5Q180 540 291 540ZM291 480Q218 480 171.5 437Q125 394 120 298H443Q441 386 405 434Q369 482 291 480ZM237 800 331 592H266L155 800Z" glyph-name="egrave" horiz-adv-x="570" unicode="&#232;" /><glyph d="M350 423Q386 423 420 428Q454 433 481 449Q508 465 524 494Q540 523 540 571Q540 612 525 639Q510 666 484 682Q458 698 423.5 704.5Q389 711 350 711Q311 711 276.5 704.5Q242 698 216 682Q190 666 175 639Q160 612 160 571Q160 523 176 494Q192 465 219 449Q246 433 280 428Q314 423 350 423ZM350 51Q398 51 437 59Q476 67 504 84.5Q532 102 547 130Q562 158 562 198Q562 249 542.5 281Q523 313 492.5 330.5Q462 348 424 354.5Q386 361 350 361Q314 361 276 354.5Q238 348 207.5 330.5Q177 313 157.5 281Q138 249 138 198Q138 158 153 130Q168 102 196 84.5Q224 67 263 59Q302 51 350 51ZM350 -10Q208 -10 138.5 45Q69 100 69 196Q69 246 83.5 281Q98 316 120.5 339.5Q143 363 172 375.5Q201 388 229 392Q201 396 176 410Q151 424 132 447Q113 470 102 502Q91 534 91 573Q91 628 112.5 666Q134 704 170 728Q206 752 252.5 763Q299 774 350 774Q401 774 447.5 763Q494 752 530 728Q566 704 587.5 666Q609 628 609 573Q609 534 598 502Q587 470 568 447Q549 424 524 410Q499 396 471 392Q500 388 528.5 375.5Q557 363 579.5 339.5Q602 316 616.5 281Q631 246 631 196Q631 100 561.5 45Q492 -10 350 -10Z" glyph-name="eight" horiz-adv-x="700" unicode="8" /><glyph d="M213 0H127V86H213ZM543 0H457V86H543ZM873 0H787V86H873Z" glyph-name="ellipsis" horiz-adv-x="1000" unicode="&#8230;" /><glyph d="M291 540Q407 540 461 468.5Q515 397 515 266V239H120Q125 138 171.5 94.5Q218 51 292 51Q363 50 396.5 78Q430 106 441 153L512 144Q506 113 490.5 85Q475 57 448.5 36Q422 15 383 2.5Q344 -10 291 -10Q180 -10 115 58.5Q50 127 50 265Q50 403 115 471.5Q180 540 291 540ZM291 480Q218 480 171.5 437Q125 394 120 298H443Q441 386 405 434Q369 482 291 480ZM155 728H427V664H155Z" glyph-name="emacron" horiz-adv-x="570" unicode="&#275;" /><glyph d="M950 303H50V367H950Z" glyph-name="emdash" horiz-adv-x="1000" unicode="&#8212;" /><glyph d="M50 303V367H450V303Z" glyph-name="endash" horiz-adv-x="500" unicode="&#8211;" /><glyph d="M333 -147Q363 -147 384.5 -141.5Q406 -136 420 -120.5Q434 -105 440.5 -76.5Q447 -48 447 -2V355Q447 415 408.5 446Q370 477 307 477Q270 477 239 463Q208 449 185.5 427Q163 405 150 378Q137 351 136 326V0H70V407L64 530H124L136 440Q162 484 209.5 512Q257 540 317 540Q358 540 394 528.5Q430 517 456.5 495.5Q483 474 498 442.5Q513 411 513 370V-2Q513 -43 507 -81Q501 -119 481.5 -147.5Q462 -176 427 -193Q392 -210 333 -210Q319 -210 303 -208Q287 -206 276 -202L284 -138Q289 -140 302 -143.5Q315 -147 333 -147Z" glyph-name="eng" horiz-adv-x="574" unicode="&#331;" /><glyph d="M291 540Q407 540 461 468.5Q515 397 515 266V239H120Q125 138 171.5 94.5Q218 51 292 51Q363 50 396.5 78Q430 106 441 153L512 144Q501 90 462 49Q442 28 418.5 10Q395 -8 374.5 -26.5Q354 -45 340.5 -65Q327 -85 327 -109Q327 -131 340 -143Q353 -155 383 -155Q397 -155 409 -152Q421 -149 432 -145Q444 -141 455 -134L472 -185Q456 -195 431 -202.5Q406 -210 372 -210Q352 -210 332.5 -205Q313 -200 297 -189Q281 -178 271.5 -160.5Q262 -143 262 -117Q262 -79 281 -54.5Q300 -30 329 -8Q320 -9 310.5 -9.5Q301 -10 291 -10Q180 -10 115 58.5Q50 127 50 265Q50 403 115 471.5Q180 540 291 540ZM291 480Q218 480 171.5 437Q125 394 120 298H443Q441 386 405 434Q369 482 291 480Z" glyph-name="eogonek" horiz-adv-x="570" unicode="&#281;" /><glyph d="M80 278V342H620V278ZM80 438V502H620V438Z" glyph-name="equal" horiz-adv-x="700" unicode="=" /><glyph d="M80 422H620V358H80ZM80 184H620V120H80ZM80 660H620V596H80Z" glyph-name="equivalence" horiz-adv-x="700" unicode="&#8801;" /><glyph d="M770 265Q760 193 728.5 141.5Q697 90 648.5 56Q600 22 536 6Q472 -10 395 -10Q309 -10 237 18Q165 46 113.5 98.5Q62 151 33.5 225Q5 299 5 390Q5 482 33.5 555.5Q62 629 113.5 681.5Q165 734 237 762Q309 790 395 790Q481 790 553 762Q625 734 676.5 681.5Q728 629 756.5 555.5Q785 482 785 390V358H139Q142 296 155.5 241Q169 186 198 144.5Q227 103 275 79Q323 55 395 55Q526 55 601 105.5Q676 156 694 265ZM395 725Q323 725 275 701Q227 677 198 636Q169 595 155.5 539.5Q142 484 139 422H650Q648 484 634.5 539.5Q621 595 592 636Q563 677 515 701Q467 725 395 725Z" glyph-name="estimated" horiz-adv-x="790" unicode="&#8494;" /><glyph d="M386 694Q414 665 439.5 625.5Q465 586 484.5 534Q504 482 516 415.5Q528 349 528 265Q528 127 463.5 58.5Q399 -10 289 -10Q179 -10 114.5 58.5Q50 127 50 265Q50 403 114.5 471.5Q179 540 289 540Q330 540 366.5 527.5Q403 515 435 488Q414 549 386 593.5Q358 638 325 671L169 611V665L281 708Q238 740 193.5 762Q149 784 109 800H235Q260 789 288 772.5Q316 756 345 732L469 780V726ZM289 478Q250 478 218.5 466Q187 454 165 428Q143 402 131 361.5Q119 321 119 265Q119 153 165 102.5Q211 52 289 52Q367 52 413 102.5Q459 153 459 265Q459 321 447 361.5Q435 402 413 428Q391 454 359.5 466Q328 478 289 478Z" glyph-name="eth" horiz-adv-x="578" unicode="&#240;" /><glyph d="M188 780 158 190H122L92 780ZM183 0H97V86H183Z" glyph-name="exclam" horiz-adv-x="280" unicode="!" /><glyph d="M188 780 158 190H122L92 780ZM183 0H97V86H183ZM388 780 358 190H322L292 780ZM383 0H297V86H383Z" glyph-name="exclamdbl" horiz-adv-x="480" unicode="&#8252;" /><glyph d="M94 -200 122 340H158L186 -200ZM183 444H97V530H183Z" glyph-name="exclamdown" horiz-adv-x="280" unicode="&#161;" /><glyph d="M37 530H143V602Q143 643 149 680.5Q155 718 174.5 747Q194 776 229.5 793Q265 810 324 810Q338 810 354 808Q370 806 381 802L373 738Q367 740 354.5 743.5Q342 747 324 747Q294 747 272.5 741.5Q251 736 236.5 720Q222 704 215.5 675.5Q209 647 209 602V530H362V468H209V0H143V468H37Z" glyph-name="f" horiz-adv-x="385" unicode="f" /><glyph d="M650 303H50V367H650Z" glyph-name="figuredash" horiz-adv-x="700" unicode="&#8210;" /><glyph d="M870 0H90V780H870Z" glyph-name="filledbox" horiz-adv-x="960" unicode="&#9632;" /><glyph d="M115 394 153 764H581V699H207L182 456Q216 482 264.5 495.5Q313 509 367 509Q491 509 559 443.5Q627 378 627 251Q627 188 605.5 139.5Q584 91 546.5 57.5Q509 24 458.5 7Q408 -10 350 -10Q280 -10 231.5 5Q183 20 151 46.5Q119 73 101.5 109.5Q84 146 76 190L145 196Q152 159 166 131Q180 103 204 85Q228 67 264 58.5Q300 50 350 51Q391 52 428.5 62.5Q466 73 494.5 97Q523 121 540.5 158.5Q558 196 558 251Q558 305 545 342Q532 379 507 402.5Q482 426 446.5 437Q411 448 367 448Q305 449 255 431Q205 413 174 378Z" glyph-name="five" horiz-adv-x="700" unicode="5" /><glyph d="M70 561 91 764H325V712H138L126 614Q142 625 163.5 630.5Q185 636 208 636Q275 636 311.5 600.5Q348 565 348 496Q348 462 336.5 436Q325 410 305 392.5Q285 375 258 366.5Q231 358 200 358Q163 358 136.5 366Q110 374 93 389Q76 404 66.5 425Q57 446 53 473L107 479Q115 441 135 424.5Q155 408 200 409Q218 409 235 413.5Q252 418 265 428.5Q278 439 286 455.5Q294 472 294 496Q294 544 271.5 565Q249 586 207 586Q178 587 154.5 578Q131 569 117 550ZM274 0H202L708 764H780ZM783 226Q799 226 814.5 228.5Q830 231 842 237.5Q854 244 861 257Q868 270 868 291Q868 326 843 339.5Q818 353 783 353Q748 353 722.5 339.5Q697 326 697 291Q697 270 704.5 257Q712 244 724 237.5Q736 231 751.5 228.5Q767 226 783 226ZM783 41Q827 41 853 56Q879 71 879 106Q879 129 870 142.5Q861 156 847.5 164Q834 172 817 174.5Q800 177 783 177Q767 177 749.5 174.5Q732 172 718.5 164Q705 156 696 142.5Q687 129 687 106Q687 71 712.5 56Q738 41 783 41ZM783 -10Q707 -10 670 19.5Q633 49 633 103Q633 150 654 172.5Q675 195 701 203Q677 211 660 234.5Q643 258 643 295Q643 325 654.5 346Q666 367 685.5 379.5Q705 392 730.5 398Q756 404 783 404Q810 404 835.5 398Q861 392 880 379.5Q899 367 910.5 346Q922 325 922 295Q922 258 905 234.5Q888 211 864 203Q890 196 911.5 173Q933 150 933 103Q933 49 896 19.5Q859 -10 783 -10Z" glyph-name="fiveeighths" horiz-adv-x="985" unicode="&#8541;" /><glyph d="M23 369V431H133V566Q133 607 139 644.5Q145 682 164.5 711Q184 740 219.5 757Q255 774 314 774Q328 774 344 772Q360 770 371 766L363 702Q357 704 344.5 707.5Q332 711 314 711Q284 711 262.5 705.5Q241 700 226.5 684Q212 668 205.5 639.5Q199 611 199 566V431H348V369H199V-2Q199 -43 193 -80.5Q187 -118 167.5 -147Q148 -176 112.5 -193Q77 -210 18 -210Q4 -210 -12 -208Q-28 -206 -39 -202L-31 -138Q-25 -140 -12.5 -143.5Q0 -147 18 -147Q48 -147 69.5 -141.5Q91 -136 105.5 -120Q120 -104 126.5 -75.5Q133 -47 133 -2V369Z" glyph-name="florin" horiz-adv-x="395" unicode="&#402;" /><glyph d="M491 185V0H425V185H65V236L428 774H491V249H636V185ZM425 559 427 674 357 564 212 351 141 248 251 249H425Z" glyph-name="four" horiz-adv-x="700" unicode="4" /><glyph d="M-127 0H-199L307 764H379Z" glyph-name="fraction" horiz-adv-x="180" unicode="&#8260;" /><glyph d="M234 307V0H164V307H54V369H164V430H54V492H164V764H590V698H234V492H459V430H234V369H459V307Z" glyph-name="franc" horiz-adv-x="630" unicode="&#8355;" /><glyph d="M285 -153Q322 -152 354.5 -144.5Q387 -137 411.5 -121.5Q436 -106 450 -82Q464 -58 464 -23V110Q438 66 391 38Q344 10 285 10Q173 10 111.5 77Q50 144 50 275Q50 406 111.5 473Q173 540 285 540Q344 540 390.5 512Q437 484 463 439L475 530H535L529 406V-16Q529 -111 464 -160.5Q399 -210 285 -210Q227 -210 186.5 -197.5Q146 -185 119.5 -164Q93 -143 79 -115Q65 -87 60 -56L130 -47Q134 -71 144.5 -90.5Q155 -110 173 -124.5Q191 -139 218.5 -146.5Q246 -154 285 -153ZM118 275Q118 172 163.5 122Q209 72 287 72Q328 72 360 86.5Q392 101 415 123Q438 145 450.5 172Q463 199 464 224V326Q463 352 450.5 378.5Q438 405 415 427.5Q392 450 360 464Q328 478 287 478Q209 478 163.5 428Q118 378 118 275Z" glyph-name="g" horiz-adv-x="599" unicode="g" /><glyph d="M463 800Q463 753 454.5 716Q446 679 425 653.5Q404 628 370 615Q336 602 285 602Q234 602 200 615Q166 628 145 653.5Q124 679 115.5 716Q107 753 107 800H163Q163 721 191.5 689.5Q220 658 285 658Q350 658 378.5 689.5Q407 721 407 800ZM285 -153Q322 -152 354.5 -144.5Q387 -137 411.5 -121.5Q436 -106 450 -82Q464 -58 464 -23V110Q438 66 391 38Q344 10 285 10Q173 10 111.5 77Q50 144 50 275Q50 406 111.5 473Q173 540 285 540Q344 540 390.5 512Q437 484 463 439L475 530H535L529 406V-16Q529 -111 464 -160.5Q399 -210 285 -210Q227 -210 186.5 -197.5Q146 -185 119.5 -164Q93 -143 79 -115Q65 -87 60 -56L130 -47Q134 -71 144.5 -90.5Q155 -110 173 -124.5Q191 -139 218.5 -146.5Q246 -154 285 -153ZM118 275Q118 172 163.5 122Q209 72 287 72Q328 72 360 86.5Q392 101 415 123Q438 145 450.5 172Q463 199 464 224V326Q463 352 450.5 378.5Q438 405 415 427.5Q392 450 360 464Q328 478 287 478Q209 478 163.5 428Q118 378 118 275Z" glyph-name="gbreve" horiz-adv-x="599" unicode="&#287;" /><glyph d="M168 800 285 650 402 800H469L319 592H251L101 800ZM285 -153Q322 -152 354.5 -144.5Q387 -137 411.5 -121.5Q436 -106 450 -82Q464 -58 464 -23V110Q438 66 391 38Q344 10 285 10Q173 10 111.5 77Q50 144 50 275Q50 406 111.5 473Q173 540 285 540Q344 540 390.5 512Q437 484 463 439L475 530H535L529 406V-16Q529 -111 464 -160.5Q399 -210 285 -210Q227 -210 186.5 -197.5Q146 -185 119.5 -164Q93 -143 79 -115Q65 -87 60 -56L130 -47Q134 -71 144.5 -90.5Q155 -110 173 -124.5Q191 -139 218.5 -146.5Q246 -154 285 -153ZM118 275Q118 172 163.5 122Q209 72 287 72Q328 72 360 86.5Q392 101 415 123Q438 145 450.5 172Q463 199 464 224V326Q463 352 450.5 378.5Q438 405 415 427.5Q392 450 360 464Q328 478 287 478Q209 478 163.5 428Q118 378 118 275Z" glyph-name="gcaron" horiz-adv-x="599" unicode="&#487;" /><glyph d="M402 592 285 742 168 592H101L251 800H319L469 592ZM285 -153Q322 -152 354.5 -144.5Q387 -137 411.5 -121.5Q436 -106 450 -82Q464 -58 464 -23V110Q438 66 391 38Q344 10 285 10Q173 10 111.5 77Q50 144 50 275Q50 406 111.5 473Q173 540 285 540Q344 540 390.5 512Q437 484 463 439L475 530H535L529 406V-16Q529 -111 464 -160.5Q399 -210 285 -210Q227 -210 186.5 -197.5Q146 -185 119.5 -164Q93 -143 79 -115Q65 -87 60 -56L130 -47Q134 -71 144.5 -90.5Q155 -110 173 -124.5Q191 -139 218.5 -146.5Q246 -154 285 -153ZM118 275Q118 172 163.5 122Q209 72 287 72Q328 72 360 86.5Q392 101 415 123Q438 145 450.5 172Q463 199 464 224V326Q463 352 450.5 378.5Q438 405 415 427.5Q392 450 360 464Q328 478 287 478Q209 478 163.5 428Q118 378 118 275Z" glyph-name="gcircumflex" horiz-adv-x="599" unicode="&#285;" /><glyph d="M237 592 312 800H373L316 592ZM285 -153Q322 -152 354.5 -144.5Q387 -137 411.5 -121.5Q436 -106 450 -82Q464 -58 464 -23V110Q438 66 391 38Q344 10 285 10Q173 10 111.5 77Q50 144 50 275Q50 406 111.5 473Q173 540 285 540Q344 540 390.5 512Q437 484 463 439L475 530H535L529 406V-16Q529 -111 464 -160.5Q399 -210 285 -210Q227 -210 186.5 -197.5Q146 -185 119.5 -164Q93 -143 79 -115Q65 -87 60 -56L130 -47Q134 -71 144.5 -90.5Q155 -110 173 -124.5Q191 -139 218.5 -146.5Q246 -154 285 -153ZM118 275Q118 172 163.5 122Q209 72 287 72Q328 72 360 86.5Q392 101 415 123Q438 145 450.5 172Q463 199 464 224V326Q463 352 450.5 378.5Q438 405 415 427.5Q392 450 360 464Q328 478 287 478Q209 478 163.5 428Q118 378 118 275Z" glyph-name="gcommaaccent" horiz-adv-x="599" unicode="&#291;" /><glyph d="M328 653H242V739H328ZM285 -153Q322 -152 354.5 -144.5Q387 -137 411.5 -121.5Q436 -106 450 -82Q464 -58 464 -23V110Q438 66 391 38Q344 10 285 10Q173 10 111.5 77Q50 144 50 275Q50 406 111.5 473Q173 540 285 540Q344 540 390.5 512Q437 484 463 439L475 530H535L529 406V-16Q529 -111 464 -160.5Q399 -210 285 -210Q227 -210 186.5 -197.5Q146 -185 119.5 -164Q93 -143 79 -115Q65 -87 60 -56L130 -47Q134 -71 144.5 -90.5Q155 -110 173 -124.5Q191 -139 218.5 -146.5Q246 -154 285 -153ZM118 275Q118 172 163.5 122Q209 72 287 72Q328 72 360 86.5Q392 101 415 123Q438 145 450.5 172Q463 199 464 224V326Q463 352 450.5 378.5Q438 405 415 427.5Q392 450 360 464Q328 478 287 478Q209 478 163.5 428Q118 378 118 275Z" glyph-name="gdotaccent" horiz-adv-x="599" unicode="&#289;" /><glyph d="M328 810Q373 810 411 800Q449 790 477.5 769.5Q506 749 522 718Q538 687 538 644Q538 601 525 573Q512 545 492 526.5Q472 508 448.5 497Q425 486 404 477Q385 469 370.5 461.5Q356 454 346.5 444Q337 434 332 420Q327 406 327 385Q327 366 335.5 353Q344 340 358 331Q372 322 390.5 315.5Q409 309 429 303Q453 296 481 286Q509 276 533 259Q557 242 572.5 216Q588 190 588 149Q588 110 574.5 80Q561 50 537 30Q513 10 480.5 0Q448 -10 411 -10Q362 -10 329.5 3Q297 16 277 37Q257 58 247.5 86Q238 114 233 144L301 152Q304 131 310 112.5Q316 94 328.5 80Q341 66 360.5 58.5Q380 51 410 51Q461 52 489 73.5Q517 95 517 146Q517 170 508 186Q499 202 483.5 212.5Q468 223 447.5 230Q427 237 403 244Q388 249 363 257Q338 265 315 280Q292 295 275 319.5Q258 344 258 381Q258 422 271.5 448.5Q285 475 304.5 492.5Q324 510 345.5 519.5Q367 529 383 535Q405 543 421.5 552Q438 561 449 573Q460 585 465.5 601Q471 617 471 641Q471 698 435 723.5Q399 749 328 749Q268 749 234 731.5Q200 714 183 684Q166 654 162 613.5Q158 573 158 526V0H92V532Q92 603 103.5 655Q115 707 142.5 741.5Q170 776 215.5 793Q261 810 328 810Z" glyph-name="germandbls" horiz-adv-x="628" unicode="&#223;" /><glyph d="M322 790H398L698 0H622L431 514L360 712L289 514L98 0H22Z" glyph-name="glyph00043" horiz-adv-x="720" /><glyph d="M322 790H398L699 0H622L530 247H190L98 0H21ZM289 514 214 313H505L431 514L360 712ZM210 693H124V779H210ZM596 693H510V779H596Z" glyph-name="glyph00044" horiz-adv-x="720" /><glyph d="M660 -200H590V10L249 515L157 657L161 390V0H90V780H153L501 265L593 123L589 390V780H660Z" glyph-name="glyph00124" horiz-adv-x="750" /><glyph d="M395 -10Q309 -10 246.5 18Q184 46 143.5 98.5Q103 151 84 225Q65 299 65 390Q65 482 84 555.5Q103 629 143.5 681.5Q184 734 246.5 762Q309 790 395 790Q481 790 543.5 762Q606 734 646.5 681.5Q687 629 706 555.5Q725 482 725 390Q725 299 706 225Q687 151 646.5 98.5Q606 46 543.5 18Q481 -10 395 -10ZM395 55Q468 55 516.5 80Q565 105 594 147.5Q623 190 636 246.5Q649 303 650 367H139Q141 303 154 246.5Q167 190 196 147.5Q225 105 273.5 80Q322 55 395 55ZM395 725Q325 725 277.5 702Q230 679 200.5 639.5Q171 600 157 546.5Q143 493 140 433H650Q647 493 632.5 546.5Q618 600 588.5 639.5Q559 679 512 702Q465 725 395 725Z" glyph-name="glyph00147" horiz-adv-x="790" /><glyph d="M395 -10Q309 -10 246.5 18Q184 46 143.5 98.5Q103 151 84 225Q65 299 65 390Q65 482 84 555.5Q103 629 143.5 681.5Q184 734 246.5 762Q309 790 395 790Q481 790 543.5 762Q606 734 646.5 681.5Q687 629 706 555.5Q725 482 725 390Q725 299 706 225Q687 151 646.5 98.5Q606 46 543.5 18Q481 -10 395 -10ZM395 725Q319 725 269.5 698Q220 671 191 625Q162 579 150.5 518.5Q139 458 139 390Q139 323 150.5 262Q162 201 191 155Q220 109 269.5 82Q319 55 395 55Q471 55 520.5 82Q570 109 599 155Q628 201 639.5 262Q651 323 651 390Q651 458 639.5 518.5Q628 579 599 625Q570 671 520.5 698Q471 725 395 725ZM145 693H59V779H145ZM731 693H645V779H731Z" glyph-name="glyph00148" horiz-adv-x="790" /><glyph d="M387 -10Q300 -10 241.5 12.5Q183 35 147 74Q111 113 95.5 166Q80 219 80 280V780H152V278Q152 231 162 190.5Q172 150 198 120Q224 90 269.5 72.5Q315 55 387 55Q459 55 504.5 72.5Q550 90 576 120Q602 150 612 190.5Q622 231 622 278V780H694V280Q694 219 678.5 166Q663 113 627 74Q591 35 532.5 12.5Q474 -10 387 -10ZM337 693H251V779H337ZM523 693H437V779H523Z" glyph-name="glyph00185" horiz-adv-x="774" /><glyph d="M185 714H55V780H385V714H255V66H385V0H55V66H185ZM489 56Q518 56 541 62Q564 68 580 84Q596 100 605 127.5Q614 155 614 198V780H684V198Q684 157 675.5 119Q667 81 645 52.5Q623 24 585.5 7Q548 -10 489 -10Q475 -10 459 -8Q443 -6 432 -2L441 65Q446 63 458.5 59.5Q471 56 489 56Z" glyph-name="glyph00197" horiz-adv-x="770" /><glyph d="M293 800 387 592H322L211 800ZM153 800 247 592H182L71 800ZM52 142Q52 183 66.5 211Q81 239 107.5 257.5Q134 276 171.5 286.5Q209 297 254 304L436 331V356Q436 425 394.5 451.5Q353 478 282 479Q215 481 184.5 453.5Q154 426 143 376L74 386Q81 420 95 448.5Q109 477 133 497Q157 517 193.5 528.5Q230 540 282 540Q385 540 442.5 493.5Q500 447 500 352V124L506 0H448L436 91Q424 69 403 50Q382 31 355.5 18Q329 5 298.5 -2.5Q268 -10 237 -10Q143 -10 97.5 30Q52 70 52 142ZM120 142Q120 94 150 72.5Q180 51 237 51Q279 51 315 65.5Q351 80 377.5 102Q404 124 419.5 151.5Q435 179 436 204V274L253 245Q225 241 201 234.5Q177 228 159 217Q141 206 130.5 188Q120 170 120 142Z" glyph-name="glyph00257" horiz-adv-x="570" /><glyph d="M168 653H82V739H168ZM92 530H158V0H92Z" glyph-name="glyph00312" horiz-adv-x="250" /><glyph d="M136 440Q162 484 209.5 512Q257 540 317 540Q358 540 394 528.5Q430 517 456.5 495.5Q483 474 498 442.5Q513 411 513 370V-200H447V355Q447 415 408.5 446Q370 477 307 477Q270 477 239 463Q208 449 185.5 427Q163 405 150 378Q137 351 136 326V0H70V407L64 530H124Z" glyph-name="glyph00344" horiz-adv-x="574" /><glyph d="M289 -10Q179 -10 114.5 58.5Q50 127 50 265Q50 403 114.5 471.5Q179 540 289 540Q399 540 463.5 471.5Q528 403 528 265Q528 127 463.5 58.5Q399 -10 289 -10ZM289 52Q363 52 408 96Q453 140 458 239H119Q125 140 170.5 96Q216 52 289 52ZM289 478Q217 478 172 435.5Q127 393 120 298H458Q451 393 406 435.5Q361 478 289 478Z" glyph-name="glyph00367" horiz-adv-x="578" /><glyph d="M151 500H45V564H325V500H219V64H325V0H45V64H151ZM443 -10Q429 -10 411 -8Q393 -6 382 -2L390 62Q395 60 409.5 56.5Q424 53 442 53Q494 53 520.5 79.5Q547 106 547 175V564H616V170Q616 87 572.5 38.5Q529 -10 443 -10Z" glyph-name="glyph00638" horiz-adv-x="698" /><glyph d="M151 500H45V564H325V500H219V64H325V0H45V64H151Z" glyph-name="glyph00648" horiz-adv-x="370" /><glyph d="M121 800 215 592H150L39 800ZM151 500H45V564H325V500H219V64H325V0H45V64H151Z" glyph-name="glyph00649" horiz-adv-x="370" /><glyph d="M151 500H45V564H325V500H219V64H325V0H45V64H151ZM331 800 220 592H155L249 800Z" glyph-name="glyph00650" horiz-adv-x="370" /><glyph d="M151 500H45V564H325V500H219V64H325V0H45V64H151ZM302 592 185 742 68 592H1L151 800H219L369 592Z" glyph-name="glyph00651" horiz-adv-x="370" /><glyph d="M151 500H45V564H325V500H219V64H325V0H45V64H151ZM135 653H49V739H135ZM321 653H235V739H321Z" glyph-name="glyph00652" horiz-adv-x="370" /><glyph d="M151 500H45V564H325V500H219V64H325V0H45V64H151ZM256 630Q226 632 207 643Q188 654 173 667.5Q158 681 144 692.5Q130 704 110 705Q87 707 74.5 699.5Q62 692 54 681Q45 669 42 653L-13 661Q-8 683 1 702.5Q10 722 25 736Q40 750 62 758Q84 766 114 764Q144 763 163 751.5Q182 740 197 726.5Q212 713 226.5 701.5Q241 690 260 689Q283 687 296 695Q309 703 317 714Q326 726 328 741L383 733Q378 711 369 691.5Q360 672 345 658Q330 644 308 636.5Q286 629 256 630Z" glyph-name="glyph00653" horiz-adv-x="370" /><glyph d="M151 500H45V564H325V500H219V64H325V0H45V64H151ZM369 800 219 592H151L1 800H68L185 650L302 800Z" glyph-name="glyph00654" horiz-adv-x="370" /><glyph d="M151 500H45V564H325V500H219V64H325V0H45V64H151ZM49 728H321V664H49Z" glyph-name="glyph00655" horiz-adv-x="370" /><glyph d="M151 500H45V564H325V500H219V64H325V0H45V64H151ZM363 800Q363 753 354.5 716Q346 679 325 653.5Q304 628 270 615Q236 602 185 602Q134 602 100 615Q66 628 45 653.5Q24 679 15.5 716Q7 753 7 800H63Q63 721 91.5 689.5Q120 658 185 658Q250 658 278.5 689.5Q307 721 307 800Z" glyph-name="glyph00656" horiz-adv-x="370" /><glyph d="M151 500H45V564H325V500H219V64H325V0H45V64H151ZM307 592Q307 671 278.5 702.5Q250 734 185 734Q120 734 91.5 702.5Q63 671 63 592H7Q7 639 15.5 676Q24 713 45 738.5Q66 764 100 777Q134 790 185 790Q236 790 270 777Q304 764 325 738.5Q346 713 354.5 676Q363 639 363 592Z" glyph-name="glyph00657" horiz-adv-x="370" /><glyph d="M151 500H45V564H325V500H219V64H325V0H45V64H151ZM196 800 290 592H225L114 800ZM56 800 150 592H85L-26 800Z" glyph-name="glyph00658" horiz-adv-x="370" /><glyph d="M151 500H45V564H325V500H219V64H325V0H45V64H151ZM228 653H142V739H228Z" glyph-name="glyph00659" horiz-adv-x="370" /><glyph d="M151 500H45V564H325V500H219V64H325V0H45V64H151ZM228 -153H142V-67H228Z" glyph-name="glyph00660" horiz-adv-x="370" /><glyph d="M325 0Q299 -4 274.5 -14Q250 -24 231.5 -38.5Q213 -53 202 -71.5Q191 -90 191 -109Q191 -131 204 -143Q217 -155 247 -155Q261 -155 273 -152Q285 -149 296 -145Q308 -141 319 -134L336 -185Q320 -195 295 -202.5Q270 -210 236 -210Q216 -210 196.5 -205Q177 -200 161 -189Q145 -178 135.5 -160.5Q126 -143 126 -117Q126 -85 146.5 -54.5Q167 -24 204 0H45V64H151V500H45V564H325V500H219V64H325Z" glyph-name="glyph00661" horiz-adv-x="370" /><glyph d="M189 516 154 465 98 390H23L129 531L153 563L129 594L33 722H105L150 659L189 604L229 659L274 722H347L251 594L227 563L251 531L356 390H282L226 465Z" glyph-name="glyph00688" horiz-adv-x="379" /><glyph d="M368 390H314L306 438Q291 412 262.5 397Q234 382 199 382Q127 382 88.5 427Q50 472 50 556Q50 639 88.5 684Q127 729 199 729Q234 729 262.5 715Q291 701 306 675L314 722H368L364 640V473ZM305 596Q303 610 295 624Q287 638 274.5 649Q262 660 244 667Q226 674 204 674Q162 674 136.5 644Q111 614 111 556Q111 498 136.5 468Q162 438 204 438Q226 438 244 445Q262 452 274.5 463.5Q287 475 295 489Q303 503 305 516V596Z" glyph-name="glyph00691" horiz-adv-x="432" /><glyph d="M37 530H143V602Q143 643 149 680.5Q155 718 174.5 747Q194 776 229.5 793Q265 810 324 810Q338 810 354 808Q370 806 381 802L373 738Q367 740 354.5 743.5Q342 747 324 747Q294 747 272.5 741.5Q251 736 236.5 720Q222 704 215.5 675.5Q209 647 209 602V530H362V468H209V0H143V468H37ZM477 530H543V0H477Z" glyph-name="glyph00694" horiz-adv-x="635" /><glyph d="M336 574 576 0H504L436 165H163L96 0H24L264 574ZM188 226H411L379 306L300 505L221 306Z" glyph-name="glyph00791" horiz-adv-x="600" /><glyph d="M158 324H359Q397 324 433 317.5Q469 311 496.5 293.5Q524 276 541 244.5Q558 213 558 163Q558 112 541 80.5Q524 49 496.5 31Q469 13 433 6.5Q397 0 359 0H90V564H500V500H158ZM375 64Q396 64 416 67.5Q436 71 451.5 81.5Q467 92 477 111.5Q487 131 487 163Q487 195 477 214Q467 233 451.5 243Q436 253 416 256.5Q396 260 375 260H158V64Z" glyph-name="glyph00792" horiz-adv-x="596" /><glyph d="M90 0V564H365Q392 564 422.5 558Q453 552 479 535.5Q505 519 522 490.5Q539 462 539 417Q539 387 531 365Q523 343 510.5 329Q498 315 482 307.5Q466 300 451 298Q470 297 488.5 287.5Q507 278 522 260.5Q537 243 546 218Q555 193 555 161Q555 113 538 82Q521 51 493.5 32.5Q466 14 431 7Q396 0 360 0ZM362 63Q419 63 452 83.5Q485 104 485 161Q485 217 453 239.5Q421 262 369 262H158V63ZM158 499V323H356Q417 323 443.5 346Q470 369 470 417Q470 463 444.5 481Q419 499 356 499Z" glyph-name="glyph00793" horiz-adv-x="605" /><glyph d="M158 0H90V564H460V500H158Z" glyph-name="glyph00794" horiz-adv-x="490" /><glyph d="M40 64H70Q106 64 130.5 77Q155 90 172.5 118Q190 146 202 189.5Q214 233 224 294L267 564H593V64H661V-160H593V0H108V-160H40ZM291 303Q275 202 254 146.5Q233 91 198 64H525V500H322Z" glyph-name="glyph00795" horiz-adv-x="710" /><glyph d="M500 564V500H158V324H462V260H158V64H520V0H90V564Z" glyph-name="glyph00796" horiz-adv-x="590" /><glyph d="M132 564 224 407Q247 368 271 346Q295 324 342 324H400V564H468V324H526Q573 324 597 346Q621 368 644 407L736 564H815L704 381Q690 359 670.5 334Q651 309 619 292Q652 277 672.5 251.5Q693 226 707 204L832 0H752L648 178Q626 217 601 238.5Q576 260 529 260H468V0H400V260H339Q315 260 298 254.5Q281 249 267.5 238.5Q254 228 242.5 213Q231 198 220 178L116 0H36L161 204Q175 226 195.5 251.5Q216 277 249 292Q217 309 197.5 334Q178 359 164 381L53 564Z" glyph-name="glyph00797" horiz-adv-x="868" /><glyph d="M119 159Q130 108 166.5 79Q203 50 277 50Q358 50 401 75Q444 100 444 157Q444 194 430.5 214Q417 234 395 243.5Q373 253 346 254.5Q319 256 293 256H208V317H293Q320 317 343.5 320.5Q367 324 385 334.5Q403 345 413.5 365Q424 385 424 419Q424 472 385.5 492.5Q347 513 281 513Q212 513 176 487.5Q140 462 128 405L58 414Q66 450 82 479.5Q98 509 124.5 530Q151 551 190 562.5Q229 574 281 574Q322 574 360 565.5Q398 557 427 538.5Q456 520 474 490.5Q492 461 492 419Q492 389 483 366.5Q474 344 460 329Q446 314 428.5 305Q411 296 394 292Q412 289 433 280.5Q454 272 471.5 256.5Q489 241 500.5 216.5Q512 192 512 157Q512 122 497 91.5Q482 61 452.5 38.5Q423 16 379 3Q335 -10 277 -10Q222 -10 182 3Q142 16 114 38Q86 60 70 89Q54 118 48 151Z" glyph-name="glyph00798" horiz-adv-x="567" /><glyph d="M151 0H90V564H159V278L155 104L264 247L512 564H573V0H504V285L508 459L399 317Z" glyph-name="glyph00799" horiz-adv-x="663" /><glyph d="M151 0H90V564H159V278L155 104L264 247L512 564H573V0H504V285L508 459L399 317ZM510 800Q510 753 501.5 716Q493 679 472 653.5Q451 628 417 615Q383 602 332 602Q281 602 247 615Q213 628 192 653.5Q171 679 162.5 716Q154 753 154 800H215Q215 761 221 733.5Q227 706 241 689.5Q255 673 277.5 665.5Q300 658 332 658Q364 658 386.5 665.5Q409 673 423 689.5Q437 706 443 733.5Q449 761 449 800Z" glyph-name="glyph00800" horiz-adv-x="663" /><glyph d="M545 564 434 381Q420 359 400.5 334Q381 309 349 292Q382 277 402.5 251.5Q423 226 437 204L562 0H482L378 178Q356 217 331 238.5Q306 260 259 260H158V0H90V564H158V324H256Q303 324 327 346Q351 368 374 407L466 564Z" glyph-name="glyph00801" horiz-adv-x="598" /><glyph d="M569 0H501V500H298L267 303Q253 213 233.5 154Q214 95 188 61Q162 27 128 13.5Q94 0 50 0H40L39 64H48Q83 64 107.5 76.5Q132 89 149 116.5Q166 144 178 188Q190 232 200 294L243 564H569Z" glyph-name="glyph00802" horiz-adv-x="659" /><glyph d="M152 440 156 286V0H90V564H161L329 206L389 70L449 206L617 564H688V0H622V280L626 440L422 0H356Z" glyph-name="glyph00803" horiz-adv-x="778" /><glyph d="M573 564V0H505V260H158V0H90V564H158V324H505V564Z" glyph-name="glyph00804" horiz-adv-x="663" /><glyph d="M340 -10Q278 -10 227.5 8Q177 26 141 62.5Q105 99 85.5 154Q66 209 66 282Q66 355 85.5 410Q105 465 141 501.5Q177 538 227.5 556Q278 574 340 574Q402 574 452.5 556Q503 538 539 501.5Q575 465 594.5 410Q614 355 614 282Q614 209 594.5 154Q575 99 539 62.5Q503 26 452.5 8Q402 -10 340 -10ZM340 512Q296 512 258.5 498.5Q221 485 194 456.5Q167 428 151.5 385Q136 342 136 282Q136 222 151.5 179Q167 136 194 107.5Q221 79 258.5 65.5Q296 52 340 52Q384 52 421 65.5Q458 79 485 107.5Q512 136 527.5 179Q543 222 543 282Q543 342 527.5 385Q512 428 485 456.5Q458 485 421 498.5Q384 512 340 512Z" glyph-name="glyph00805" horiz-adv-x="680" /><glyph d="M573 564V0H505V500H158V0H90V564Z" glyph-name="glyph00806" horiz-adv-x="663" /><glyph d="M158 500V294H337Q357 294 375.5 298Q394 302 408.5 313.5Q423 325 432 345Q441 365 441 397Q441 429 432 449.5Q423 470 408.5 481Q394 492 375.5 496Q357 500 337 500ZM90 564H321Q359 564 393.5 556.5Q428 549 454 530.5Q480 512 496 479.5Q512 447 512 397Q512 347 496 314.5Q480 282 454 263.5Q428 245 393.5 237.5Q359 230 321 230H158V0H90Z" glyph-name="glyph00807" horiz-adv-x="550" /><glyph d="M138 282Q138 167 190 111Q242 55 332 53Q408 51 450.5 79.5Q493 108 505 161L578 154Q571 118 553 87.5Q535 57 505.5 35.5Q476 14 433.5 2Q391 -10 333 -10Q205 -10 135 66Q65 142 65 282Q65 422 135 498Q205 574 333 574Q391 574 433.5 562Q476 550 505.5 528.5Q535 507 553 476.5Q571 446 578 410L505 403Q493 456 450.5 484.5Q408 513 332 511Q242 509 190 453Q138 397 138 282Z" glyph-name="glyph00808" horiz-adv-x="640" /><glyph d="M310 0H243V500H40V564H513V500H310Z" glyph-name="glyph00809" horiz-adv-x="553" /><glyph d="M56 564H134L311 212L489 564H567L329 108Q319 89 305.5 68Q292 47 273 30Q254 13 228.5 2Q203 -9 169 -9Q137 -9 114 -4Q91 1 81 6L90 67Q96 64 118.5 57.5Q141 51 169 51Q198 51 218.5 71Q239 91 259 129L271 152Z" glyph-name="glyph00810" horiz-adv-x="593" /><glyph d="M374 0H306V82Q248 82 200 95Q152 108 118 133.5Q84 159 65.5 196.5Q47 234 47 282Q47 330 65.5 367.5Q84 405 118 430.5Q152 456 200 469Q248 482 306 482V564H374V482Q433 482 480.5 469Q528 456 562 430.5Q596 405 614.5 367.5Q633 330 633 282Q633 234 614.5 196.5Q596 159 562 133.5Q528 108 480.5 95Q433 82 374 82ZM374 145Q417 145 452 151.5Q487 158 511.5 174Q536 190 549.5 216Q563 242 563 282Q563 322 549.5 348.5Q536 375 511.5 390.5Q487 406 452 412.5Q417 419 374 419ZM306 419Q263 419 228.5 412.5Q194 406 169 390.5Q144 375 130.5 348.5Q117 322 117 282Q117 242 130.5 216Q144 190 169 174Q194 158 228.5 151.5Q263 145 306 145Z" glyph-name="glyph00811" horiz-adv-x="680" /><glyph d="M249 169 121 0H38L230 247L271 299L231 347L59 564H140L262 404L308 343L354 404L476 564H557L385 347L345 299L386 247L578 0H495L367 169L308 248Z" glyph-name="glyph00812" horiz-adv-x="616" /><glyph d="M641 64V-160H573V0H90V564H158V64H505V564H573V64Z" glyph-name="glyph00813" horiz-adv-x="690" /><glyph d="M528 0H460V229Q440 213 392 196.5Q344 180 274 180Q235 180 198.5 189.5Q162 199 134 219.5Q106 240 89 270.5Q72 301 72 343V564H140V353Q140 322 150.5 301Q161 280 180.5 267.5Q200 255 226.5 250Q253 245 284 245Q322 245 352.5 251.5Q383 258 405.5 267Q428 276 441.5 285.5Q455 295 460 300V564H528Z" glyph-name="glyph00814" horiz-adv-x="618" /><glyph d="M432 564H500V64H774V564H842V0H90V564H158V64H432Z" glyph-name="glyph00815" horiz-adv-x="932" /><glyph d="M432 564H500V64H774V564H842V64H910V-160H842V0H90V564H158V64H432Z" glyph-name="glyph00816" horiz-adv-x="959" /><glyph d="M249 324H450Q488 324 524 317.5Q560 311 587.5 293.5Q615 276 632 244.5Q649 213 649 163Q649 112 632 80.5Q615 49 587.5 31Q560 13 524 6.5Q488 0 450 0H181V500H25V564H249ZM466 64Q487 64 507 67.5Q527 71 542.5 81.5Q558 92 568 111.5Q578 131 578 163Q578 195 568 214Q558 233 542.5 243Q527 253 507 256.5Q487 260 466 260H249V64Z" glyph-name="glyph00817" horiz-adv-x="687" /><glyph d="M626 564H694V0H626ZM375 64Q396 64 416 67.5Q436 71 451.5 81.5Q467 92 477 111.5Q487 131 487 163Q487 195 477 214Q467 233 451.5 243Q436 253 416 256.5Q396 260 375 260H158V64ZM90 564H158V324H359Q397 324 433 317.5Q469 311 496.5 293.5Q524 276 541 244.5Q558 213 558 163Q558 112 541 80.5Q524 49 496.5 31Q469 13 433 6.5Q397 0 359 0H90Z" glyph-name="glyph00818" horiz-adv-x="784" /><glyph d="M375 64Q396 64 416 67.5Q436 71 451.5 81.5Q467 92 477 111.5Q487 131 487 163Q487 195 477 214Q467 233 451.5 243Q436 253 416 256.5Q396 260 375 260H158V64ZM90 564H158V324H359Q397 324 433 317.5Q469 311 496.5 293.5Q524 276 541 244.5Q558 213 558 163Q558 112 541 80.5Q524 49 496.5 31Q469 13 433 6.5Q397 0 359 0H90Z" glyph-name="glyph00819" horiz-adv-x="596" /><glyph d="M181 324H500Q490 418 439.5 463.5Q389 509 308 511Q232 513 189.5 484.5Q147 456 135 403L62 410Q70 446 87.5 476.5Q105 507 134.5 528.5Q164 550 206.5 562Q249 574 307 574Q435 574 505 498Q575 422 575 282Q575 142 505 66Q435 -10 307 -10Q249 -10 206.5 2Q164 14 134.5 35.5Q105 57 87.5 87.5Q70 118 62 154L135 161Q147 108 189.5 79.5Q232 51 308 53Q393 55 444.5 105.5Q496 156 501 260H181Z" glyph-name="glyph00820" horiz-adv-x="640" /><glyph d="M570 -10Q450 -10 376 57Q302 124 296 260H158V0H90V564H158V324H298Q309 450 381.5 512Q454 574 570 574Q632 574 682.5 556Q733 538 769 501.5Q805 465 824.5 410Q844 355 844 282Q844 209 824.5 154Q805 99 769 62.5Q733 26 682.5 8Q632 -10 570 -10ZM570 512Q526 512 488.5 498.5Q451 485 424 456.5Q397 428 381.5 385Q366 342 366 282Q366 222 381.5 179Q397 136 424 107.5Q451 79 488.5 65.5Q526 52 570 52Q614 52 651 65.5Q688 79 715 107.5Q742 136 757.5 179Q773 222 773 282Q773 342 757.5 385Q742 428 715 456.5Q688 485 651 498.5Q614 512 570 512Z" glyph-name="glyph00821" horiz-adv-x="910" /><glyph d="M508 0H440V240H299Q256 238 233.5 217.5Q211 197 190 159L98 0H14L127 185Q141 208 153.5 221.5Q166 235 183 243Q153 247 127 257Q101 267 81.5 285.5Q62 304 51 332.5Q40 361 40 401Q40 452 57 483.5Q74 515 101.5 533Q129 551 165 557.5Q201 564 239 564H508ZM223 500Q202 500 182 496.5Q162 493 146.5 482.5Q131 472 121 452.5Q111 433 111 401Q111 370 121 350.5Q131 331 146.5 321Q162 311 182 307.5Q202 304 223 304H440V500Z" glyph-name="glyph00822" horiz-adv-x="544" /><glyph d="M500 564V500H158V324H462V260H158V64H520V0H90V564ZM250 653H164V739H250ZM436 653H350V739H436Z" glyph-name="glyph00823" horiz-adv-x="590" /><glyph d="M258 287Q285 311 324.5 322.5Q364 334 413 334Q455 334 490 322.5Q525 311 550 289Q575 267 589 235Q603 203 603 161Q603 77 561.5 33.5Q520 -10 442 -10Q423 -10 408 -7Q393 -4 385 0L391 60Q396 58 407.5 55Q419 52 435 52Q482 52 506 77Q530 102 530 161Q530 217 493.5 244Q457 271 400 271Q346 271 309.5 250Q273 229 258 206V0H190V500H30V564H418V500H258Z" glyph-name="glyph00824" horiz-adv-x="660" /><glyph d="M158 0H90V564H460V500H158ZM418 800 307 592H242L336 800Z" glyph-name="glyph00825" horiz-adv-x="490" /><glyph d="M456 260H135Q140 156 192 105.5Q244 55 329 53Q405 51 447.5 79.5Q490 108 502 161L575 154Q568 118 550 87.5Q532 57 502.5 35.5Q473 14 430.5 2Q388 -10 330 -10Q202 -10 132 66Q62 142 62 282Q62 422 132 498Q202 574 330 574Q388 574 430.5 562Q473 550 502.5 528.5Q532 507 550 476.5Q568 446 575 410L502 403Q490 456 447.5 484.5Q405 513 329 511Q248 509 197.5 463.5Q147 418 137 324H456Z" glyph-name="glyph00826" horiz-adv-x="640" /><glyph d="M306 53Q337 54 367.5 59Q398 64 422 76Q446 88 461 109Q476 130 476 162Q476 190 466.5 207.5Q457 225 436.5 236Q416 247 384 253.5Q352 260 307 266Q273 271 235 278Q197 285 165.5 300.5Q134 316 113 343Q92 370 92 413Q92 456 110 486.5Q128 517 158 536.5Q188 556 226.5 565Q265 574 305 574Q419 574 474 532.5Q529 491 542 415L470 407Q459 464 421 488Q383 512 305 511Q283 511 257.5 507.5Q232 504 210.5 494Q189 484 175 465.5Q161 447 161 416Q161 372 197.5 355Q234 338 313 327Q357 321 399 313.5Q441 306 474 289.5Q507 273 527 243.5Q547 214 547 164Q547 118 526.5 85Q506 52 472 31Q438 10 395 0Q352 -10 307 -10Q195 -10 135.5 34Q76 78 65 154L136 161Q145 106 189.5 79.5Q234 53 306 53Z" glyph-name="glyph00827" horiz-adv-x="615" /><glyph d="M179 0H111V564H179Z" glyph-name="glyph00828" horiz-adv-x="290" /><glyph d="M179 0H111V564H179ZM95 653H9V739H95ZM281 653H195V739H281Z" glyph-name="glyph00829" horiz-adv-x="290" /><glyph d="M372 564V175Q372 90 330 40Q288 -10 193 -10Q138 -10 103.5 4.5Q69 19 50.5 41Q32 63 26 89.5Q20 116 20 139L89 148Q89 132 92.5 114.5Q96 97 106.5 83.5Q117 70 137.5 61Q158 52 193 52Q255 52 279 83.5Q303 115 303 180V564Z" glyph-name="glyph00830" horiz-adv-x="460" /><glyph d="M549 324H750Q788 324 824 317.5Q860 311 887.5 293.5Q915 276 932 244.5Q949 213 949 163Q949 112 932 80.5Q915 49 887.5 31Q860 13 824 6.5Q788 0 750 0H481V500H298L267 303Q253 213 233.5 154Q214 95 188 61Q162 27 128 13.5Q94 0 50 0H40L39 64H48Q83 64 107.5 76.5Q132 89 149 116.5Q166 144 178 188Q190 232 200 294L243 564H549ZM766 64Q787 64 807 67.5Q827 71 842.5 81.5Q858 92 868 111.5Q878 131 878 163Q878 195 868 214Q858 233 842.5 243Q827 253 807 256.5Q787 260 766 260H549V64Z" glyph-name="glyph00831" horiz-adv-x="987" /><glyph d="M485 260H158V0H90V564H158V324H485V564H553V324H754Q792 324 828 317.5Q864 311 891.5 293.5Q919 276 936 244.5Q953 213 953 163Q953 112 936 80.5Q919 49 891.5 31Q864 13 828 6.5Q792 0 754 0H485ZM770 64Q791 64 811 67.5Q831 71 846.5 81.5Q862 92 872 111.5Q882 131 882 163Q882 195 872 214Q862 233 846.5 243Q831 253 811 256.5Q791 260 770 260H553V64Z" glyph-name="glyph00832" horiz-adv-x="991" /><glyph d="M190 500H30V564H418V500H258V263Q284 300 325 317Q366 334 414 334Q449 334 480.5 324.5Q512 315 535.5 296Q559 277 572.5 247.5Q586 218 586 178V0H518V168Q518 223 489 246Q460 269 404 269Q350 269 313.5 244.5Q277 220 258 175V0H190Z" glyph-name="glyph00833" horiz-adv-x="658" /><glyph d="M436 800 325 592H260L354 800ZM545 564 434 381Q420 359 400.5 334Q381 309 349 292Q382 277 402.5 251.5Q423 226 437 204L562 0H482L378 178Q356 217 331 238.5Q306 260 259 260H158V0H90V564H158V324H256Q303 324 327 346Q351 368 374 407L466 564Z" glyph-name="glyph00834" horiz-adv-x="598" /><glyph d="M56 564H134L311 212L489 564H567L329 108Q319 89 305.5 68Q292 47 273 30Q254 13 228.5 2Q203 -9 169 -9Q137 -9 114 -4Q91 1 81 6L90 67Q96 64 118.5 57.5Q141 51 169 51Q198 51 218.5 71Q239 91 259 129L271 152ZM489 800Q489 753 480.5 716Q472 679 451 653.5Q430 628 396 615Q362 602 311 602Q260 602 226 615Q192 628 171 653.5Q150 679 141.5 716Q133 753 133 800H194Q194 761 200 733.5Q206 706 220 689.5Q234 673 256.5 665.5Q279 658 311 658Q343 658 365.5 665.5Q388 673 402 689.5Q416 706 422 733.5Q428 761 428 800Z" glyph-name="glyph00835" horiz-adv-x="593" /><glyph d="M90 0V564H158V64H505V564H573V0H365V-160H298V0Z" glyph-name="glyph00836" horiz-adv-x="663" /><glyph d="M460 500H158V0H90V564H392V724H460Z" glyph-name="glyph00837" horiz-adv-x="490" /><glyph d="M220 171Q235 179 247.5 185Q260 191 270 199L277 340H313L338 -143Q392 -133 421.5 -100Q451 -67 463 -8L532 -14Q524 -56 507 -92Q490 -128 460.5 -154.5Q431 -181 388.5 -195.5Q346 -210 286 -210Q235 -210 192 -197Q149 -184 117.5 -160Q86 -136 68.5 -100.5Q51 -65 51 -20Q51 33 70.5 66Q90 99 117 119.5Q144 140 173 151Q202 162 220 171ZM121 -20Q121 -54 132 -77Q143 -100 161.5 -114Q180 -128 203.5 -135.5Q227 -143 252 -145L266 125L257 121Q235 110 210.5 100Q186 90 166.5 75.5Q147 61 134 38.5Q121 16 121 -20ZM338 444H252V530H338Z" glyph-name="glyph00892" horiz-adv-x="535" /><glyph d="M340 58Q447 77 469 192L537 186Q529 144 511 108Q493 72 463 45.5Q433 19 389.5 4.5Q346 -10 286 -10Q235 -10 192 4Q149 18 117.5 44Q86 70 68.5 108Q51 146 51 195Q51 248 72 283.5Q93 319 122.5 342Q152 365 182.5 378.5Q213 392 231 401Q242 406 251 410.5Q260 415 269 420L277 590H313ZM122 195Q122 158 133 133Q144 108 162 91.5Q180 75 203 66.5Q226 58 250 55L265 350H264Q242 339 217 327Q192 315 171 297.5Q150 280 136 255.5Q122 231 122 195ZM252 780H338V694H252Z" glyph-name="glyph00893" horiz-adv-x="570" /><glyph d="M299 283Q284 277 272.5 272Q261 267 253 262L247 170H211L189 512Q141 504 120.5 481Q100 458 96 417L33 424Q36 456 49 483Q62 510 86 530.5Q110 551 146.5 562.5Q183 574 234 574Q332 574 379 533.5Q426 493 426 428Q426 395 416.5 372.5Q407 350 390 333.5Q373 317 350 305.5Q327 294 299 283ZM359 429Q359 503 269 513L257 323L274 330Q300 340 316 348.5Q332 357 342 367.5Q352 378 355.5 392.5Q359 407 359 429ZM272 0H186V86H272Z" glyph-name="glyph00894" horiz-adv-x="467" /><glyph d="M168 281Q182 287 193.5 292Q205 297 214 302L220 394H256L277 52Q325 59 346 82.5Q367 106 371 147L434 140Q431 109 418.5 81.5Q406 54 382 33.5Q358 13 321 1.5Q284 -10 233 -10Q135 -10 88 30.5Q41 71 41 136Q41 169 50.5 191.5Q60 214 77 230.5Q94 247 117 258.5Q140 270 168 281ZM108 135Q108 97 129.5 76.5Q151 56 198 51L210 241L193 234Q168 224 151.5 215.5Q135 207 125 196.5Q115 186 111.5 171.5Q108 157 108 135ZM195 564H281V478H195Z" glyph-name="glyph00895" horiz-adv-x="467" /><glyph d="M183 239H97V325H183Z" glyph-name="glyph00962" horiz-adv-x="280" /><glyph d="M283 250H50V314H283Z" glyph-name="glyph00964" horiz-adv-x="333" /><glyph d="M50 250V314H450V250Z" glyph-name="glyph00965" horiz-adv-x="500" /><glyph d="M700 250H50V314H700Z" glyph-name="glyph00966" horiz-adv-x="750" /><glyph d="M950 250H50V314H950Z" glyph-name="glyph00967" horiz-adv-x="1000" /><glyph d="M650 250H50V314H650Z" glyph-name="glyph00968" horiz-adv-x="700" /><glyph d="M1350 250H50V314H1350Z" glyph-name="glyph00969" horiz-adv-x="1400" /><glyph d="M160 293Q159 286 159 279Q159 272 159 265Q159 257 159 250.5Q159 244 160 237H410L390 173H170Q187 114 226.5 83Q266 52 326 51Q394 50 427.5 77Q461 104 472 153L543 144Q536 110 520.5 81.5Q505 53 479 33Q453 13 415.5 1.5Q378 -10 327 -10Q236 -10 177.5 37.5Q119 85 99 173H20V237H90V293H20V357H99Q119 445 177.5 492.5Q236 540 327 540Q378 540 415.5 528.5Q453 517 479 497Q505 477 520.5 448.5Q536 420 543 386L472 377Q466 402 455.5 421Q445 440 427.5 453.5Q410 467 385 473.5Q360 480 326 479Q205 476 170 357H447L427 293Z" glyph-name="glyph01066" horiz-adv-x="593" /><glyph d="M352 534Q397 526 431 511.5Q465 497 488 480L473 423Q444 443 410.5 456.5Q377 470 337 475L293 302Q326 297 359.5 289.5Q393 282 420 266.5Q447 251 464 224Q481 197 480 153Q480 109 460 78Q440 47 407.5 27Q375 7 333.5 -2.5Q292 -12 250 -12Q241 -12 232 -11.5Q223 -11 214 -10L198 -77H133L152 -1Q116 7 88.5 20.5Q61 34 42 48L57 105Q104 71 167 58L215 250Q188 254 159.5 261.5Q131 269 107 283.5Q83 298 68 321.5Q53 345 53 382Q53 426 73 456Q93 486 125 505Q157 524 198.5 532Q240 540 282 540H288L305 607H370ZM229 49H250Q282 49 311 53.5Q340 58 362.5 69.5Q385 81 398 100.5Q411 120 411 149Q411 176 402 192Q393 208 375.5 217.5Q358 227 333.5 232Q309 237 278 241ZM121 386Q121 365 129 352.5Q137 340 151 332Q165 324 185 319.5Q205 315 230 311L272 479Q242 479 214.5 475Q187 471 166 460.5Q145 450 133 432Q121 414 121 386Z" glyph-name="glyph01067" horiz-adv-x="530" /><glyph d="M174 14Q114 44 82 107.5Q50 171 50 265Q50 396 112.5 468Q175 540 287 540Q292 540 296.5 540Q301 540 306 539L323 607H388L368 531Q429 515 460.5 477Q492 439 503 386L432 377Q424 412 405.5 436Q387 460 353 471L249 55Q264 51 286 51Q354 50 387.5 77Q421 104 432 153L503 144Q496 110 480.5 81.5Q465 53 439 33Q413 13 375.5 1.5Q338 -10 287 -10Q273 -10 259.5 -9Q246 -8 234 -6L216 -77H151ZM119 265Q119 133 190 81L290 479H286Q207 477 163 422.5Q119 368 119 265Z" glyph-name="glyph01068" horiz-adv-x="550" /><glyph d="M44 62H134V234H44V296H134V344Q134 389 149 425.5Q164 462 191.5 487.5Q219 513 258.5 526.5Q298 540 347 540Q400 540 437.5 526.5Q475 513 499.5 492Q524 471 536 444.5Q548 418 551 392L482 383Q477 424 446 451.5Q415 479 347 477Q276 475 238 444.5Q200 414 200 353V296H399V234H200V62H555V0H44Z" glyph-name="glyph01069" horiz-adv-x="600" /><glyph d="M23 234V296H133V332Q133 373 139 410.5Q145 448 164.5 477Q184 506 219.5 523Q255 540 314 540Q328 540 344 538Q360 536 371 532L363 468Q357 470 344.5 473.5Q332 477 314 477Q284 477 262.5 471.5Q241 466 226.5 450Q212 434 205.5 405.5Q199 377 199 332V296H348V234H199V-2Q199 -43 193 -80.5Q187 -118 167.5 -147Q148 -176 112.5 -193Q77 -210 18 -210Q4 -210 -12 -208Q-28 -206 -39 -202L-31 -138Q-25 -140 -12.5 -143.5Q0 -147 18 -147Q48 -147 69.5 -141.5Q91 -136 105.5 -120Q120 -104 126.5 -75.5Q133 -47 133 -2V234Z" glyph-name="glyph01070" horiz-adv-x="395" /><glyph d="M101 530 183 402 260 280 337 402 419 530H496L322 266H446V204H293V148H446V86H293V0H227V86H74V148H227V204H74V266H197L24 530Z" glyph-name="glyph01071" horiz-adv-x="520" /><glyph d="M110 65Q50 137 50 265Q50 396 112.5 468Q175 540 287 540H296L322 607H390L361 532Q378 529 391 523L424 607H492L446 491Q469 471 482.5 444.5Q496 418 503 386L432 377Q429 388 425.5 398Q422 408 417 417L274 51H286Q354 50 387.5 77Q421 104 432 153L503 144Q496 110 480.5 81.5Q465 53 439 33Q413 13 375.5 1.5Q338 -10 287 -10Q277 -10 268 -9.5Q259 -9 251 -8L224 -77H156L189 7Q173 14 160 22L122 -77H54ZM119 265Q119 192 141 145L271 478Q199 471 159 416.5Q119 362 119 265ZM368 465Q355 471 338 474L185 85Q192 80 198 75.5Q204 71 212 67L368 465Z" glyph-name="glyph01072" horiz-adv-x="550" /><glyph d="M502 246Q492 248 480 248Q440 248 407.5 234Q375 220 352.5 198Q330 176 317.5 149Q305 122 304 97V51Q362 53 391.5 79.5Q421 106 432 153L503 144Q496 110 480.5 81.5Q465 53 439 33Q413 13 375.5 1.5Q338 -10 287 -10Q175 -10 112.5 62Q50 134 50 265Q50 396 112.5 468Q175 540 287 540Q338 540 375.5 528.5Q413 517 439 497Q465 477 480.5 448.5Q496 420 503 386L432 377Q426 402 415.5 421Q405 440 387.5 453.5Q370 467 345 473.5Q320 480 286 479Q207 477 163 422.5Q119 368 119 265Q119 179 150 126.5Q181 74 238 58V182L232 305H292L304 216Q327 259 374 287Q421 315 480 315Q487 315 495.5 314.5Q504 314 509 313Z" glyph-name="glyph01073" horiz-adv-x="550" /><glyph d="M210 173V0H144V173H44V235H144V296H44V358H144V530H520V467H210V358H449V296H210V235H449V173Z" glyph-name="glyph01074" horiz-adv-x="560" /><glyph d="M200 151V62H555V0H44V62H134V151H44V213H134V274H44V336H134V344Q134 389 149 425.5Q164 462 191.5 487.5Q219 513 258.5 526.5Q298 540 347 540Q400 540 437.5 526.5Q475 513 499.5 492Q524 471 536 444.5Q548 418 551 392L482 383Q477 424 446 451.5Q415 479 347 477Q276 475 238 444.5Q200 414 200 353V336H399V274H200V213H399V151Z" glyph-name="glyph01075" horiz-adv-x="600" /><glyph d="M507 0 366 172H171V0H100V172H30V234H100V296H30V358H100V530H164L304 358H500V530H571V358H641V296H571V234H641V172H571V0ZM171 234H316L265 296H170L171 240ZM405 234H501L500 290V296H355ZM169 358H216L168 419ZM502 172H455L503 111Z" glyph-name="glyph01076" horiz-adv-x="671" /><glyph d="M136 -200H70V406L64 530H124L136 439Q162 484 208.5 512Q255 540 314 540Q426 540 487.5 468Q549 396 549 265Q549 165 511 98Q521 71 537.5 62Q554 53 592 53Q666 55 706 87Q697 112 694 140Q691 168 691 198V468H585V530H691V665L757 687V530H920V468H757V198Q757 153 763.5 124.5Q770 96 784.5 80Q799 64 820.5 58.5Q842 53 872 53Q904 54 931 60.5Q958 67 978 81Q960 109 954 144L1025 153Q1036 106 1070 78Q1104 50 1174 51Q1202 52 1230 56.5Q1258 61 1280.5 72.5Q1303 84 1317 103Q1331 122 1331 152Q1331 181 1320 197Q1309 213 1289 222Q1269 231 1239.5 235Q1210 239 1173 245Q1146 249 1111 254.5Q1076 260 1045 274Q1014 288 993 313.5Q972 339 972 382Q972 426 990.5 456Q1009 486 1037.5 505Q1066 524 1102 532Q1138 540 1172 540Q1223 540 1260.5 528.5Q1298 517 1324 497Q1350 477 1365.5 448.5Q1381 420 1388 386L1317 377Q1311 402 1300.5 421Q1290 440 1272.5 453.5Q1255 467 1230 473.5Q1205 480 1171 479Q1150 479 1127 475Q1104 471 1085 461Q1066 451 1053.5 433Q1041 415 1041 386Q1041 362 1051.5 348.5Q1062 335 1081 327Q1100 319 1126.5 315Q1153 311 1184 306Q1219 301 1257 295Q1295 289 1327.5 274.5Q1360 260 1381 232Q1402 204 1402 155Q1402 110 1382 78.5Q1362 47 1330 27.5Q1298 8 1257 -1Q1216 -10 1175 -10Q1124 -10 1087 0.5Q1050 11 1024 31Q997 12 960 1Q923 -10 872 -10Q826 -10 794 0.5Q762 11 742 30Q716 11 679 0.5Q642 -10 592 -10Q565 -10 545.5 -6.5Q526 -3 511.5 4Q497 11 486.5 21Q476 31 468 43Q409 -10 314 -10Q255 -10 208.5 18Q162 46 136 90ZM479 265Q479 368 434.5 422.5Q390 477 312 477Q272 477 239.5 463Q207 449 184.5 427Q162 405 149.5 378.5Q137 352 136 326V204Q137 179 149.5 152Q162 125 184.5 103Q207 81 239.5 67Q272 53 312 53Q390 53 434.5 107.5Q479 162 479 265Z" glyph-name="glyph01077" horiz-adv-x="1420" /><glyph d="M157 0H90V530H302Q334 530 365 524Q396 518 420.5 501Q445 484 460 454Q475 424 475 376Q475 339 466 313Q457 287 441.5 269.5Q426 252 405 242.5Q384 233 361 228Q407 155 458 118.5Q509 82 556.5 67Q604 52 642.5 51.5Q681 51 703 51Q742 51 775 55.5Q808 60 831 71.5Q854 83 867 102.5Q880 122 880 152Q880 181 869 197Q858 213 838 222Q818 231 788.5 235Q759 239 722 245Q695 249 660 254.5Q625 260 594 274Q563 288 542 313.5Q521 339 521 382Q521 426 539.5 456Q558 486 586.5 505Q615 524 651 532Q687 540 721 540Q772 540 809.5 528.5Q847 517 873 497Q899 477 914.5 448.5Q930 420 937 386L866 377Q860 402 849.5 421Q839 440 821.5 453.5Q804 467 779 473.5Q754 480 720 479Q699 479 676 475Q653 471 634 461Q615 451 602.5 433Q590 415 590 386Q590 362 600.5 348.5Q611 335 630 327Q649 319 675.5 315Q702 311 733 306Q768 301 806 295Q844 289 876.5 274.5Q909 260 930 232Q951 204 951 155Q951 110 932 78.5Q913 47 879.5 27.5Q846 8 800.5 -1Q755 -10 702 -10Q663 -10 613 -5.5Q563 -1 507.5 21Q452 43 394.5 90Q337 137 285 222H157ZM310 285Q325 285 342 287.5Q359 290 373.5 299Q388 308 397 326Q406 344 406 376Q406 408 397 426.5Q388 445 373.5 454Q359 463 342 465Q325 467 310 467H157V285Z" glyph-name="glyph01078" horiz-adv-x="991" /><glyph d="M576 172 542 -10H471L426 172H291L247 -10H176L141 172H33V234H130L118 296H33V358H106L74 530H147L177 358H270L313 530H405L447 358H541L571 530H644L611 358H685V296H599L588 234H685V172ZM307 234H411L396 296H322ZM254 290 255 296H188L189 290L197 234H241ZM529 290 530 296H462L464 290L477 234H520ZM336 358H381L359 458ZM215 121 227 172H207ZM503 121 511 172H491Z" glyph-name="glyph01079" horiz-adv-x="718" /><glyph d="M266 530Q349 530 395.5 485.5Q442 441 442 360V150H376V345Q376 405 347.5 436Q319 467 256 467H136V0H70V530ZM223 0V380H289V63H409Q472 63 500.5 94Q529 125 529 185V530H595V170Q595 89 548.5 44.5Q502 0 419 0Z" glyph-name="glyph01080" horiz-adv-x="665" /><glyph d="M275 157V0H205V122L105 72V147L205 197V257L105 207V282L205 332V464H25V530H455V464H275V367L386 423V348L275 292V232L386 288V213Z" glyph-name="glyph01081" horiz-adv-x="480" /><glyph d="M33 234V296H90V358H33V420H90V530H308Q377 530 422 503Q467 476 486 420H555V358H499Q500 350 500 342.5Q500 335 500 327Q500 319 500 311.5Q500 304 499 296H555V234H486Q467 177 422 150.5Q377 124 308 124H157V0H90V234ZM431 327Q431 335 430.5 342.5Q430 350 429 358H157V296H429Q430 303 430.5 311Q431 319 431 327ZM157 467V420H413Q387 467 324 467ZM157 187H324Q387 187 413 234H157Z" glyph-name="glyph01082" horiz-adv-x="578" /><glyph d="M259 -77V0H90V530H259V607H329V530H345Q371 530 399.5 524.5Q428 519 452 503.5Q476 488 492 461Q508 434 508 392Q508 364 500.5 343.5Q493 323 481 309.5Q469 296 454 289Q439 282 425 280Q443 279 460.5 270Q478 261 492 244.5Q506 228 514.5 204.5Q523 181 523 151Q523 106 507 77Q491 48 465.5 30.5Q440 13 407.5 6.5Q375 0 342 0H329V-77ZM329 244V63H339Q393 63 423.5 80.5Q454 98 454 151Q454 204 424.5 224Q395 244 345 244ZM259 63V244H157V63ZM157 307H259V467H157ZM329 467V307H334Q391 307 415 327Q439 347 439 392Q439 435 416 451Q393 467 334 467Z" glyph-name="glyph01083" horiz-adv-x="580" /><glyph d="M165 153 221 377H110V441H237L279 607H344L302 441H466L508 607H573L531 441H640V377H515L459 153H570V89H443L401 -77H336L378 89H214L172 -77H107L149 89H40V153ZM450 377H286L230 153H394Z" glyph-name="glyph01084" horiz-adv-x="680" /><glyph d="M218 0H132V86H218Z" glyph-name="glyph01150" horiz-adv-x="350" /><glyph d="M230 86 140 -164H107L142 86Z" glyph-name="glyph01151" horiz-adv-x="350" /><glyph d="M218 0H132V86H218ZM218 367H132V453H218Z" glyph-name="glyph01152" horiz-adv-x="350" /><glyph d="M218 367H132V453H218ZM230 86 140 -164H107L142 86Z" glyph-name="glyph01153" horiz-adv-x="350" /><glyph d="M273 0H201L707 764H779ZM48 678Q96 689 130.5 713Q165 737 194 774H240V420H370V370H56V420H186V694Q163 668 129.5 650Q96 632 48 623ZM1172 354Q1148 354 1127 347.5Q1106 341 1091 325.5Q1076 310 1067.5 284Q1059 258 1059 219V215Q1094 265 1166 265Q1229 265 1265 228.5Q1301 192 1301 126Q1301 60 1261.5 25Q1222 -10 1159 -10Q1078 -10 1041.5 42Q1005 94 1005 200Q1005 303 1048.5 353.5Q1092 404 1172 404Q1202 404 1225 396Q1248 388 1263.5 374.5Q1279 361 1287.5 343.5Q1296 326 1299 307L1244 300Q1239 326 1222 339.5Q1205 353 1172 354ZM1163 212Q1121 213 1093 189.5Q1065 166 1067 117Q1070 77 1096.5 58.5Q1123 40 1158 40Q1194 41 1220 60.5Q1246 80 1246 126Q1246 172 1223 191Q1200 210 1163 212ZM607 308Q655 319 689.5 343Q724 367 753 404H799V50H929V0H615V50H745V324Q722 298 688.5 280Q655 262 607 253Z" glyph-name="glyph01171" horiz-adv-x="1353" /><glyph d="M288 0H216L722 764H794ZM362 480Q362 429 322.5 394.5Q283 360 201 360Q126 360 91 391Q56 422 48 475L103 480Q108 443 131 427Q154 411 201 411Q252 410 280 427Q308 444 308 480Q308 504 299 517.5Q290 531 276 537.5Q262 544 244.5 545.5Q227 547 209 547H154V598H209Q226 598 241.5 599.5Q257 601 268.5 607.5Q280 614 287 626.5Q294 639 294 661Q294 696 268 710Q242 724 204 723Q159 722 137 707Q115 692 110 654L56 659Q62 712 96 743Q130 774 204 774Q233 774 259 767.5Q285 761 305 747.5Q325 734 336.5 712.5Q348 691 348 661Q348 623 330 602.5Q312 582 289 575Q301 572 314 565Q327 558 337.5 546.5Q348 535 355 518.5Q362 502 362 480ZM1187 354Q1163 354 1142 347.5Q1121 341 1106 325.5Q1091 310 1082.5 284Q1074 258 1074 219V215Q1109 265 1181 265Q1244 265 1280 228.5Q1316 192 1316 126Q1316 60 1276.5 25Q1237 -10 1174 -10Q1093 -10 1056.5 42Q1020 94 1020 200Q1020 303 1063.5 353.5Q1107 404 1187 404Q1217 404 1240 396Q1263 388 1278.5 374.5Q1294 361 1302.5 343.5Q1311 326 1314 307L1259 300Q1254 326 1237 339.5Q1220 353 1187 354ZM1178 212Q1136 213 1108 189.5Q1080 166 1082 117Q1085 77 1111.5 58.5Q1138 40 1173 40Q1209 41 1235 60.5Q1261 80 1261 126Q1261 172 1238 191Q1215 210 1178 212ZM622 308Q670 319 704.5 343Q739 367 768 404H814V50H944V0H630V50H760V324Q737 298 703.5 280Q670 262 622 253Z" glyph-name="glyph01172" horiz-adv-x="1368" /><glyph d="M274 0H202L708 764H780ZM70 561 91 764H325V712H138L126 614Q142 625 163.5 630.5Q185 636 208 636Q275 636 311.5 600.5Q348 565 348 496Q348 462 336.5 436Q325 410 305 392.5Q285 375 258 366.5Q231 358 200 358Q163 358 136.5 366Q110 374 93 389Q76 404 66.5 425Q57 446 53 473L107 479Q115 441 135 424.5Q155 408 200 409Q218 409 235 413.5Q252 418 265 428.5Q278 439 286 455.5Q294 472 294 496Q294 544 271.5 565Q249 586 207 586Q178 587 154.5 578Q131 569 117 550ZM1173 354Q1149 354 1128 347.5Q1107 341 1092 325.5Q1077 310 1068.5 284Q1060 258 1060 219V215Q1095 265 1167 265Q1230 265 1266 228.5Q1302 192 1302 126Q1302 60 1262.5 25Q1223 -10 1160 -10Q1079 -10 1042.5 42Q1006 94 1006 200Q1006 303 1049.5 353.5Q1093 404 1173 404Q1203 404 1226 396Q1249 388 1264.5 374.5Q1280 361 1288.5 343.5Q1297 326 1300 307L1245 300Q1240 326 1223 339.5Q1206 353 1173 354ZM1164 212Q1122 213 1094 189.5Q1066 166 1068 117Q1071 77 1097.5 58.5Q1124 40 1159 40Q1195 41 1221 60.5Q1247 80 1247 126Q1247 172 1224 191Q1201 210 1164 212ZM608 308Q656 319 690.5 343Q725 367 754 404H800V50H930V0H616V50H746V324Q723 298 689.5 280Q656 262 608 253Z" glyph-name="glyph01173" horiz-adv-x="1354" /><glyph d="M189 0H117L623 764H695ZM98 370 233 667 254 713 168 712H40V764H316V727L155 370ZM1088 354Q1064 354 1043 347.5Q1022 341 1007 325.5Q992 310 983.5 284Q975 258 975 219V215Q1010 265 1082 265Q1145 265 1181 228.5Q1217 192 1217 126Q1217 60 1177.5 25Q1138 -10 1075 -10Q994 -10 957.5 42Q921 94 921 200Q921 303 964.5 353.5Q1008 404 1088 404Q1118 404 1141 396Q1164 388 1179.5 374.5Q1195 361 1203.5 343.5Q1212 326 1215 307L1160 300Q1155 326 1138 339.5Q1121 353 1088 354ZM1079 212Q1037 213 1009 189.5Q981 166 983 117Q986 77 1012.5 58.5Q1039 40 1074 40Q1110 41 1136 60.5Q1162 80 1162 126Q1162 172 1139 191Q1116 210 1079 212ZM523 308Q571 319 605.5 343Q640 367 669 404H715V50H845V0H531V50H661V324Q638 298 604.5 280Q571 262 523 253Z" glyph-name="glyph01174" horiz-adv-x="1269" /><glyph d="M180 410Q204 410 225 416.5Q246 423 261.5 438.5Q277 454 285.5 480Q294 506 294 545V546Q294 548 293 549Q260 499 187 499Q123 499 87.5 535.5Q52 572 52 638Q52 704 91.5 739Q131 774 193 774Q274 774 311 722Q348 670 348 563Q348 461 304.5 410.5Q261 360 180 360Q150 360 127.5 368Q105 376 89.5 389.5Q74 403 65.5 420.5Q57 438 54 457L108 464Q114 438 131 424.5Q148 411 180 410ZM281 0H209L715 764H787ZM189 551Q231 551 259.5 574.5Q288 598 286 647Q283 688 256.5 706Q230 724 195 724Q158 724 132.5 703.5Q107 683 107 638Q107 591 129.5 572Q152 553 189 551ZM1180 354Q1156 354 1135 347.5Q1114 341 1099 325.5Q1084 310 1075.5 284Q1067 258 1067 219V215Q1102 265 1174 265Q1237 265 1273 228.5Q1309 192 1309 126Q1309 60 1269.5 25Q1230 -10 1167 -10Q1086 -10 1049.5 42Q1013 94 1013 200Q1013 303 1056.5 353.5Q1100 404 1180 404Q1210 404 1233 396Q1256 388 1271.5 374.5Q1287 361 1295.5 343.5Q1304 326 1307 307L1252 300Q1247 326 1230 339.5Q1213 353 1180 354ZM1171 212Q1129 213 1101 189.5Q1073 166 1075 117Q1078 77 1104.5 58.5Q1131 40 1166 40Q1202 41 1228 60.5Q1254 80 1254 126Q1254 172 1231 191Q1208 210 1171 212ZM615 308Q663 319 697.5 343Q732 367 761 404H807V50H937V0H623V50H753V324Q730 298 696.5 280Q663 262 615 253Z" glyph-name="glyph01175" horiz-adv-x="1361" /><glyph d="M658 0H586L1092 764H1164ZM48 678Q96 689 130.5 713Q165 737 194 774H240V420H370V370H56V420H186V694Q163 668 129.5 650Q96 632 48 623ZM1557 354Q1533 354 1512 347.5Q1491 341 1476 325.5Q1461 310 1452.5 284Q1444 258 1444 219V215Q1479 265 1551 265Q1614 265 1650 228.5Q1686 192 1686 126Q1686 60 1646.5 25Q1607 -10 1544 -10Q1463 -10 1426.5 42Q1390 94 1390 200Q1390 303 1433.5 353.5Q1477 404 1557 404Q1587 404 1610 396Q1633 388 1648.5 374.5Q1664 361 1672.5 343.5Q1681 326 1684 307L1629 300Q1624 326 1607 339.5Q1590 353 1557 354ZM1548 212Q1506 213 1478 189.5Q1450 166 1452 117Q1455 77 1481.5 58.5Q1508 40 1543 40Q1579 41 1605 60.5Q1631 80 1631 126Q1631 172 1608 191Q1585 210 1548 212ZM992 308Q1040 319 1074.5 343Q1109 367 1138 404H1184V50H1314V0H1000V50H1130V324Q1107 298 1073.5 280Q1040 262 992 253ZM433 678Q481 689 515.5 713Q550 737 579 774H625V420H755V370H441V420H571V694Q548 668 514.5 650Q481 632 433 623Z" glyph-name="glyph01176" horiz-adv-x="1738" /><glyph d="M688 0H616L1122 764H1194ZM762 480Q762 429 722.5 394.5Q683 360 601 360Q526 360 491 391Q456 422 448 475L503 480Q508 443 531 427Q554 411 601 411Q652 410 680 427Q708 444 708 480Q708 504 699 517.5Q690 531 676 537.5Q662 544 644.5 545.5Q627 547 609 547H554V598H609Q626 598 641.5 599.5Q657 601 668.5 607.5Q680 614 687 626.5Q694 639 694 661Q694 696 668 710Q642 724 604 723Q559 722 537 707Q515 692 510 654L456 659Q462 712 496 743Q530 774 604 774Q633 774 659 767.5Q685 761 705 747.5Q725 734 736.5 712.5Q748 691 748 661Q748 623 730 602.5Q712 582 689 575Q701 572 714 565Q727 558 737.5 546.5Q748 535 755 518.5Q762 502 762 480ZM48 678Q96 689 130.5 713Q165 737 194 774H240V420H370V370H56V420H186V694Q163 668 129.5 650Q96 632 48 623ZM1587 354Q1563 354 1542 347.5Q1521 341 1506 325.5Q1491 310 1482.5 284Q1474 258 1474 219V215Q1509 265 1581 265Q1644 265 1680 228.5Q1716 192 1716 126Q1716 60 1676.5 25Q1637 -10 1574 -10Q1493 -10 1456.5 42Q1420 94 1420 200Q1420 303 1463.5 353.5Q1507 404 1587 404Q1617 404 1640 396Q1663 388 1678.5 374.5Q1694 361 1702.5 343.5Q1711 326 1714 307L1659 300Q1654 326 1637 339.5Q1620 353 1587 354ZM1578 212Q1536 213 1508 189.5Q1480 166 1482 117Q1485 77 1511.5 58.5Q1538 40 1573 40Q1609 41 1635 60.5Q1661 80 1661 126Q1661 172 1638 191Q1615 210 1578 212ZM1022 308Q1070 319 1104.5 343Q1139 367 1168 404H1214V50H1344V0H1030V50H1160V324Q1137 298 1103.5 280Q1070 262 1022 253Z" glyph-name="glyph01177" horiz-adv-x="1768" /><glyph d="M1573 354Q1549 354 1528 347.5Q1507 341 1492 325.5Q1477 310 1468.5 284Q1460 258 1460 219V215Q1495 265 1567 265Q1630 265 1666 228.5Q1702 192 1702 126Q1702 60 1662.5 25Q1623 -10 1560 -10Q1479 -10 1442.5 42Q1406 94 1406 200Q1406 303 1449.5 353.5Q1493 404 1573 404Q1603 404 1626 396Q1649 388 1664.5 374.5Q1680 361 1688.5 343.5Q1697 326 1700 307L1645 300Q1640 326 1623 339.5Q1606 353 1573 354ZM674 0H602L1108 764H1180ZM470 561 491 764H725V712H538L526 614Q542 625 563.5 630.5Q585 636 608 636Q675 636 711.5 600.5Q748 565 748 496Q748 462 736.5 436Q725 410 705 392.5Q685 375 658 366.5Q631 358 600 358Q563 358 536.5 366Q510 374 493 389Q476 404 466.5 425Q457 446 453 473L507 479Q515 441 535 424.5Q555 408 600 409Q618 409 635 413.5Q652 418 665 428.5Q678 439 686 455.5Q694 472 694 496Q694 544 671.5 565Q649 586 607 586Q578 587 554.5 578Q531 569 517 550ZM1564 212Q1522 213 1494 189.5Q1466 166 1468 117Q1471 77 1497.5 58.5Q1524 40 1559 40Q1595 41 1621 60.5Q1647 80 1647 126Q1647 172 1624 191Q1601 210 1564 212ZM48 678Q96 689 130.5 713Q165 737 194 774H240V420H370V370H56V420H186V694Q163 668 129.5 650Q96 632 48 623ZM1008 308Q1056 319 1090.5 343Q1125 367 1154 404H1200V50H1330V0H1016V50H1146V324Q1123 298 1089.5 280Q1056 262 1008 253Z" glyph-name="glyph01178" horiz-adv-x="1754" /><glyph d="M273 0H201L707 764H779ZM942 110Q942 59 902.5 24.5Q863 -10 781 -10Q706 -10 671 21Q636 52 628 105L683 110Q688 73 711 57Q734 41 781 41Q832 40 860 57Q888 74 888 110Q888 134 879 147.5Q870 161 856 167.5Q842 174 824.5 175.5Q807 177 789 177H734V228H789Q806 228 821.5 229.5Q837 231 848.5 237.5Q860 244 867 256.5Q874 269 874 291Q874 326 848 340Q822 354 784 353Q739 352 717 337Q695 322 690 284L636 289Q642 342 676 373Q710 404 784 404Q813 404 839 397.5Q865 391 885 377.5Q905 364 916.5 342.5Q928 321 928 291Q928 253 910 232.5Q892 212 869 205Q881 202 894 195Q907 188 917.5 176.5Q928 165 935 148.5Q942 132 942 110ZM1048 0Q1048 48 1059 80Q1070 112 1089.5 133.5Q1109 155 1136 170Q1163 185 1195 200Q1221 211 1239 219.5Q1257 228 1268.5 237Q1280 246 1285.5 257Q1291 268 1291 285Q1291 306 1282 319Q1273 332 1260 339.5Q1247 347 1231.5 349.5Q1216 352 1204 352Q1157 352 1133.5 336.5Q1110 321 1104 284L1050 290Q1058 342 1092.5 373Q1127 404 1204 404Q1232 404 1257.5 396.5Q1283 389 1302 374.5Q1321 360 1332.5 337.5Q1344 315 1344 285Q1344 255 1333.5 235Q1323 215 1306 201Q1289 187 1266.5 177Q1244 167 1221 156Q1169 134 1140 111Q1111 88 1106 50L1215 52H1353V0ZM48 678Q96 689 130.5 713Q165 737 194 774H240V420H370V370H56V420H186V694Q163 668 129.5 650Q96 632 48 623Z" glyph-name="glyph01179" horiz-adv-x="1406" /><glyph d="M362 480Q362 429 322.5 394.5Q283 360 201 360Q126 360 91 391Q56 422 48 475L103 480Q108 443 131 427Q154 411 201 411Q252 410 280 427Q308 444 308 480Q308 504 299 517.5Q290 531 276 537.5Q262 544 244.5 545.5Q227 547 209 547H154V598H209Q226 598 241.5 599.5Q257 601 268.5 607.5Q280 614 287 626.5Q294 639 294 661Q294 696 268 710Q242 724 204 723Q159 722 137 707Q115 692 110 654L56 659Q62 712 96 743Q130 774 204 774Q233 774 259 767.5Q285 761 305 747.5Q325 734 336.5 712.5Q348 691 348 661Q348 623 330 602.5Q312 582 289 575Q301 572 314 565Q327 558 337.5 546.5Q348 535 355 518.5Q362 502 362 480ZM288 0H216L722 764H794ZM957 110Q957 59 917.5 24.5Q878 -10 796 -10Q721 -10 686 21Q651 52 643 105L698 110Q703 73 726 57Q749 41 796 41Q847 40 875 57Q903 74 903 110Q903 134 894 147.5Q885 161 871 167.5Q857 174 839.5 175.5Q822 177 804 177H749V228H804Q821 228 836.5 229.5Q852 231 863.5 237.5Q875 244 882 256.5Q889 269 889 291Q889 326 863 340Q837 354 799 353Q754 352 732 337Q710 322 705 284L651 289Q657 342 691 373Q725 404 799 404Q828 404 854 397.5Q880 391 900 377.5Q920 364 931.5 342.5Q943 321 943 291Q943 253 925 232.5Q907 212 884 205Q896 202 909 195Q922 188 932.5 176.5Q943 165 950 148.5Q957 132 957 110ZM1063 0Q1063 48 1074 80Q1085 112 1104.5 133.5Q1124 155 1151 170Q1178 185 1210 200Q1236 211 1254 219.5Q1272 228 1283.5 237Q1295 246 1300.5 257Q1306 268 1306 285Q1306 306 1297 319Q1288 332 1275 339.5Q1262 347 1246.5 349.5Q1231 352 1219 352Q1172 352 1148.5 336.5Q1125 321 1119 284L1065 290Q1073 342 1107.5 373Q1142 404 1219 404Q1247 404 1272.5 396.5Q1298 389 1317 374.5Q1336 360 1347.5 337.5Q1359 315 1359 285Q1359 255 1348.5 235Q1338 215 1321 201Q1304 187 1281.5 177Q1259 167 1236 156Q1184 134 1155 111Q1126 88 1121 50L1230 52H1368V0Z" glyph-name="glyph01180" horiz-adv-x="1421" /><glyph d="M70 561 91 764H325V712H138L126 614Q142 625 163.5 630.5Q185 636 208 636Q275 636 311.5 600.5Q348 565 348 496Q348 462 336.5 436Q325 410 305 392.5Q285 375 258 366.5Q231 358 200 358Q163 358 136.5 366Q110 374 93 389Q76 404 66.5 425Q57 446 53 473L107 479Q115 441 135 424.5Q155 408 200 409Q218 409 235 413.5Q252 418 265 428.5Q278 439 286 455.5Q294 472 294 496Q294 544 271.5 565Q249 586 207 586Q178 587 154.5 578Q131 569 117 550ZM274 0H202L708 764H780ZM943 110Q943 59 903.5 24.5Q864 -10 782 -10Q707 -10 672 21Q637 52 629 105L684 110Q689 73 712 57Q735 41 782 41Q833 40 861 57Q889 74 889 110Q889 134 880 147.5Q871 161 857 167.5Q843 174 825.5 175.5Q808 177 790 177H735V228H790Q807 228 822.5 229.5Q838 231 849.5 237.5Q861 244 868 256.5Q875 269 875 291Q875 326 849 340Q823 354 785 353Q740 352 718 337Q696 322 691 284L637 289Q643 342 677 373Q711 404 785 404Q814 404 840 397.5Q866 391 886 377.5Q906 364 917.5 342.5Q929 321 929 291Q929 253 911 232.5Q893 212 870 205Q882 202 895 195Q908 188 918.5 176.5Q929 165 936 148.5Q943 132 943 110ZM1049 0Q1049 48 1060 80Q1071 112 1090.5 133.5Q1110 155 1137 170Q1164 185 1196 200Q1222 211 1240 219.5Q1258 228 1269.5 237Q1281 246 1286.5 257Q1292 268 1292 285Q1292 306 1283 319Q1274 332 1261 339.5Q1248 347 1232.5 349.5Q1217 352 1205 352Q1158 352 1134.5 336.5Q1111 321 1105 284L1051 290Q1059 342 1093.5 373Q1128 404 1205 404Q1233 404 1258.5 396.5Q1284 389 1303 374.5Q1322 360 1333.5 337.5Q1345 315 1345 285Q1345 255 1334.5 235Q1324 215 1307 201Q1290 187 1267.5 177Q1245 167 1222 156Q1170 134 1141 111Q1112 88 1107 50L1216 52H1354V0Z" glyph-name="glyph01181" horiz-adv-x="1407" /><glyph d="M98 370 233 667 254 713 168 712H40V764H316V727L155 370ZM189 0H117L623 764H695ZM858 110Q858 59 818.5 24.5Q779 -10 697 -10Q622 -10 587 21Q552 52 544 105L599 110Q604 73 627 57Q650 41 697 41Q748 40 776 57Q804 74 804 110Q804 134 795 147.5Q786 161 772 167.5Q758 174 740.5 175.5Q723 177 705 177H650V228H705Q722 228 737.5 229.5Q753 231 764.5 237.5Q776 244 783 256.5Q790 269 790 291Q790 326 764 340Q738 354 700 353Q655 352 633 337Q611 322 606 284L552 289Q558 342 592 373Q626 404 700 404Q729 404 755 397.5Q781 391 801 377.5Q821 364 832.5 342.5Q844 321 844 291Q844 253 826 232.5Q808 212 785 205Q797 202 810 195Q823 188 833.5 176.5Q844 165 851 148.5Q858 132 858 110ZM964 0Q964 48 975 80Q986 112 1005.5 133.5Q1025 155 1052 170Q1079 185 1111 200Q1137 211 1155 219.5Q1173 228 1184.5 237Q1196 246 1201.5 257Q1207 268 1207 285Q1207 306 1198 319Q1189 332 1176 339.5Q1163 347 1147.5 349.5Q1132 352 1120 352Q1073 352 1049.5 336.5Q1026 321 1020 284L966 290Q974 342 1008.5 373Q1043 404 1120 404Q1148 404 1173.5 396.5Q1199 389 1218 374.5Q1237 360 1248.5 337.5Q1260 315 1260 285Q1260 255 1249.5 235Q1239 215 1222 201Q1205 187 1182.5 177Q1160 167 1137 156Q1085 134 1056 111Q1027 88 1022 50L1131 52H1269V0Z" glyph-name="glyph01182" horiz-adv-x="1322" /><glyph d="M180 410Q204 410 225 416.5Q246 423 261.5 438.5Q277 454 285.5 480Q294 506 294 545V546Q294 548 293 549Q260 499 187 499Q123 499 87.5 535.5Q52 572 52 638Q52 704 91.5 739Q131 774 193 774Q274 774 311 722Q348 670 348 563Q348 461 304.5 410.5Q261 360 180 360Q150 360 127.5 368Q105 376 89.5 389.5Q74 403 65.5 420.5Q57 438 54 457L108 464Q114 438 131 424.5Q148 411 180 410ZM189 551Q231 551 259.5 574.5Q288 598 286 647Q283 688 256.5 706Q230 724 195 724Q158 724 132.5 703.5Q107 683 107 638Q107 591 129.5 572Q152 553 189 551ZM281 0H209L715 764H787ZM950 110Q950 59 910.5 24.5Q871 -10 789 -10Q714 -10 679 21Q644 52 636 105L691 110Q696 73 719 57Q742 41 789 41Q840 40 868 57Q896 74 896 110Q896 134 887 147.5Q878 161 864 167.5Q850 174 832.5 175.5Q815 177 797 177H742V228H797Q814 228 829.5 229.5Q845 231 856.5 237.5Q868 244 875 256.5Q882 269 882 291Q882 326 856 340Q830 354 792 353Q747 352 725 337Q703 322 698 284L644 289Q650 342 684 373Q718 404 792 404Q821 404 847 397.5Q873 391 893 377.5Q913 364 924.5 342.5Q936 321 936 291Q936 253 918 232.5Q900 212 877 205Q889 202 902 195Q915 188 925.5 176.5Q936 165 943 148.5Q950 132 950 110ZM1056 0Q1056 48 1067 80Q1078 112 1097.5 133.5Q1117 155 1144 170Q1171 185 1203 200Q1229 211 1247 219.5Q1265 228 1276.5 237Q1288 246 1293.5 257Q1299 268 1299 285Q1299 306 1290 319Q1281 332 1268 339.5Q1255 347 1239.5 349.5Q1224 352 1212 352Q1165 352 1141.5 336.5Q1118 321 1112 284L1058 290Q1066 342 1100.5 373Q1135 404 1212 404Q1240 404 1265.5 396.5Q1291 389 1310 374.5Q1329 360 1340.5 337.5Q1352 315 1352 285Q1352 255 1341.5 235Q1331 215 1314 201Q1297 187 1274.5 177Q1252 167 1229 156Q1177 134 1148 111Q1119 88 1114 50L1223 52H1361V0Z" glyph-name="glyph01183" horiz-adv-x="1414" /><glyph d="M1327 110Q1327 59 1287.5 24.5Q1248 -10 1166 -10Q1091 -10 1056 21Q1021 52 1013 105L1068 110Q1073 73 1096 57Q1119 41 1166 41Q1217 40 1245 57Q1273 74 1273 110Q1273 134 1264 147.5Q1255 161 1241 167.5Q1227 174 1209.5 175.5Q1192 177 1174 177H1119V228H1174Q1191 228 1206.5 229.5Q1222 231 1233.5 237.5Q1245 244 1252 256.5Q1259 269 1259 291Q1259 326 1233 340Q1207 354 1169 353Q1124 352 1102 337Q1080 322 1075 284L1021 289Q1027 342 1061 373Q1095 404 1169 404Q1198 404 1224 397.5Q1250 391 1270 377.5Q1290 364 1301.5 342.5Q1313 321 1313 291Q1313 253 1295 232.5Q1277 212 1254 205Q1266 202 1279 195Q1292 188 1302.5 176.5Q1313 165 1320 148.5Q1327 132 1327 110ZM1433 0Q1433 48 1444 80Q1455 112 1474.5 133.5Q1494 155 1521 170Q1548 185 1580 200Q1606 211 1624 219.5Q1642 228 1653.5 237Q1665 246 1670.5 257Q1676 268 1676 285Q1676 306 1667 319Q1658 332 1645 339.5Q1632 347 1616.5 349.5Q1601 352 1589 352Q1542 352 1518.5 336.5Q1495 321 1489 284L1435 290Q1443 342 1477.5 373Q1512 404 1589 404Q1617 404 1642.5 396.5Q1668 389 1687 374.5Q1706 360 1717.5 337.5Q1729 315 1729 285Q1729 255 1718.5 235Q1708 215 1691 201Q1674 187 1651.5 177Q1629 167 1606 156Q1554 134 1525 111Q1496 88 1491 50L1600 52H1738V0ZM658 0H586L1092 764H1164ZM48 678Q96 689 130.5 713Q165 737 194 774H240V420H370V370H56V420H186V694Q163 668 129.5 650Q96 632 48 623ZM433 678Q481 689 515.5 713Q550 737 579 774H625V420H755V370H441V420H571V694Q548 668 514.5 650Q481 632 433 623Z" glyph-name="glyph01184" horiz-adv-x="1791" /><glyph d="M762 480Q762 429 722.5 394.5Q683 360 601 360Q526 360 491 391Q456 422 448 475L503 480Q508 443 531 427Q554 411 601 411Q652 410 680 427Q708 444 708 480Q708 504 699 517.5Q690 531 676 537.5Q662 544 644.5 545.5Q627 547 609 547H554V598H609Q626 598 641.5 599.5Q657 601 668.5 607.5Q680 614 687 626.5Q694 639 694 661Q694 696 668 710Q642 724 604 723Q559 722 537 707Q515 692 510 654L456 659Q462 712 496 743Q530 774 604 774Q633 774 659 767.5Q685 761 705 747.5Q725 734 736.5 712.5Q748 691 748 661Q748 623 730 602.5Q712 582 689 575Q701 572 714 565Q727 558 737.5 546.5Q748 535 755 518.5Q762 502 762 480ZM688 0H616L1122 764H1194ZM1357 110Q1357 59 1317.5 24.5Q1278 -10 1196 -10Q1121 -10 1086 21Q1051 52 1043 105L1098 110Q1103 73 1126 57Q1149 41 1196 41Q1247 40 1275 57Q1303 74 1303 110Q1303 134 1294 147.5Q1285 161 1271 167.5Q1257 174 1239.5 175.5Q1222 177 1204 177H1149V228H1204Q1221 228 1236.5 229.5Q1252 231 1263.5 237.5Q1275 244 1282 256.5Q1289 269 1289 291Q1289 326 1263 340Q1237 354 1199 353Q1154 352 1132 337Q1110 322 1105 284L1051 289Q1057 342 1091 373Q1125 404 1199 404Q1228 404 1254 397.5Q1280 391 1300 377.5Q1320 364 1331.5 342.5Q1343 321 1343 291Q1343 253 1325 232.5Q1307 212 1284 205Q1296 202 1309 195Q1322 188 1332.5 176.5Q1343 165 1350 148.5Q1357 132 1357 110ZM1463 0Q1463 48 1474 80Q1485 112 1504.5 133.5Q1524 155 1551 170Q1578 185 1610 200Q1636 211 1654 219.5Q1672 228 1683.5 237Q1695 246 1700.5 257Q1706 268 1706 285Q1706 306 1697 319Q1688 332 1675 339.5Q1662 347 1646.5 349.5Q1631 352 1619 352Q1572 352 1548.5 336.5Q1525 321 1519 284L1465 290Q1473 342 1507.5 373Q1542 404 1619 404Q1647 404 1672.5 396.5Q1698 389 1717 374.5Q1736 360 1747.5 337.5Q1759 315 1759 285Q1759 255 1748.5 235Q1738 215 1721 201Q1704 187 1681.5 177Q1659 167 1636 156Q1584 134 1555 111Q1526 88 1521 50L1630 52H1768V0ZM48 678Q96 689 130.5 713Q165 737 194 774H240V420H370V370H56V420H186V694Q163 668 129.5 650Q96 632 48 623Z" glyph-name="glyph01185" horiz-adv-x="1821" /><glyph d="M470 561 491 764H725V712H538L526 614Q542 625 563.5 630.5Q585 636 608 636Q675 636 711.5 600.5Q748 565 748 496Q748 462 736.5 436Q725 410 705 392.5Q685 375 658 366.5Q631 358 600 358Q563 358 536.5 366Q510 374 493 389Q476 404 466.5 425Q457 446 453 473L507 479Q515 441 535 424.5Q555 408 600 409Q618 409 635 413.5Q652 418 665 428.5Q678 439 686 455.5Q694 472 694 496Q694 544 671.5 565Q649 586 607 586Q578 587 554.5 578Q531 569 517 550ZM674 0H602L1108 764H1180ZM1343 110Q1343 59 1303.5 24.5Q1264 -10 1182 -10Q1107 -10 1072 21Q1037 52 1029 105L1084 110Q1089 73 1112 57Q1135 41 1182 41Q1233 40 1261 57Q1289 74 1289 110Q1289 134 1280 147.5Q1271 161 1257 167.5Q1243 174 1225.5 175.5Q1208 177 1190 177H1135V228H1190Q1207 228 1222.5 229.5Q1238 231 1249.5 237.5Q1261 244 1268 256.5Q1275 269 1275 291Q1275 326 1249 340Q1223 354 1185 353Q1140 352 1118 337Q1096 322 1091 284L1037 289Q1043 342 1077 373Q1111 404 1185 404Q1214 404 1240 397.5Q1266 391 1286 377.5Q1306 364 1317.5 342.5Q1329 321 1329 291Q1329 253 1311 232.5Q1293 212 1270 205Q1282 202 1295 195Q1308 188 1318.5 176.5Q1329 165 1336 148.5Q1343 132 1343 110ZM1449 0Q1449 48 1460 80Q1471 112 1490.5 133.5Q1510 155 1537 170Q1564 185 1596 200Q1622 211 1640 219.5Q1658 228 1669.5 237Q1681 246 1686.5 257Q1692 268 1692 285Q1692 306 1683 319Q1674 332 1661 339.5Q1648 347 1632.5 349.5Q1617 352 1605 352Q1558 352 1534.5 336.5Q1511 321 1505 284L1451 290Q1459 342 1493.5 373Q1528 404 1605 404Q1633 404 1658.5 396.5Q1684 389 1703 374.5Q1722 360 1733.5 337.5Q1745 315 1745 285Q1745 255 1734.5 235Q1724 215 1707 201Q1690 187 1667.5 177Q1645 167 1622 156Q1570 134 1541 111Q1512 88 1507 50L1616 52H1754V0ZM48 678Q96 689 130.5 713Q165 737 194 774H240V420H370V370H56V420H186V694Q163 668 129.5 650Q96 632 48 623Z" glyph-name="glyph01186" horiz-adv-x="1807" /><glyph d="M498 370 633 667 654 713 568 712H440V764H716V727L555 370ZM589 0H517L1023 764H1095ZM1258 110Q1258 59 1218.5 24.5Q1179 -10 1097 -10Q1022 -10 987 21Q952 52 944 105L999 110Q1004 73 1027 57Q1050 41 1097 41Q1148 40 1176 57Q1204 74 1204 110Q1204 134 1195 147.5Q1186 161 1172 167.5Q1158 174 1140.5 175.5Q1123 177 1105 177H1050V228H1105Q1122 228 1137.5 229.5Q1153 231 1164.5 237.5Q1176 244 1183 256.5Q1190 269 1190 291Q1190 326 1164 340Q1138 354 1100 353Q1055 352 1033 337Q1011 322 1006 284L952 289Q958 342 992 373Q1026 404 1100 404Q1129 404 1155 397.5Q1181 391 1201 377.5Q1221 364 1232.5 342.5Q1244 321 1244 291Q1244 253 1226 232.5Q1208 212 1185 205Q1197 202 1210 195Q1223 188 1233.5 176.5Q1244 165 1251 148.5Q1258 132 1258 110ZM1364 0Q1364 48 1375 80Q1386 112 1405.5 133.5Q1425 155 1452 170Q1479 185 1511 200Q1537 211 1555 219.5Q1573 228 1584.5 237Q1596 246 1601.5 257Q1607 268 1607 285Q1607 306 1598 319Q1589 332 1576 339.5Q1563 347 1547.5 349.5Q1532 352 1520 352Q1473 352 1449.5 336.5Q1426 321 1420 284L1366 290Q1374 342 1408.5 373Q1443 404 1520 404Q1548 404 1573.5 396.5Q1599 389 1618 374.5Q1637 360 1648.5 337.5Q1660 315 1660 285Q1660 255 1649.5 235Q1639 215 1622 201Q1605 187 1582.5 177Q1560 167 1537 156Q1485 134 1456 111Q1427 88 1422 50L1531 52H1669V0ZM48 678Q96 689 130.5 713Q165 737 194 774H240V420H370V370H56V420H186V694Q163 668 129.5 650Q96 632 48 623Z" glyph-name="glyph01187" horiz-adv-x="1722" /><glyph d="M580 410Q604 410 625 416.5Q646 423 661.5 438.5Q677 454 685.5 480Q694 506 694 545V546Q694 548 693 549Q660 499 587 499Q523 499 487.5 535.5Q452 572 452 638Q452 704 491.5 739Q531 774 593 774Q674 774 711 722Q748 670 748 563Q748 461 704.5 410.5Q661 360 580 360Q550 360 527.5 368Q505 376 489.5 389.5Q474 403 465.5 420.5Q457 438 454 457L508 464Q514 438 531 424.5Q548 411 580 410ZM589 551Q631 551 659.5 574.5Q688 598 686 647Q683 688 656.5 706Q630 724 595 724Q558 724 532.5 703.5Q507 683 507 638Q507 591 529.5 572Q552 553 589 551ZM681 0H609L1115 764H1187ZM1350 110Q1350 59 1310.5 24.5Q1271 -10 1189 -10Q1114 -10 1079 21Q1044 52 1036 105L1091 110Q1096 73 1119 57Q1142 41 1189 41Q1240 40 1268 57Q1296 74 1296 110Q1296 134 1287 147.5Q1278 161 1264 167.5Q1250 174 1232.5 175.5Q1215 177 1197 177H1142V228H1197Q1214 228 1229.5 229.5Q1245 231 1256.5 237.5Q1268 244 1275 256.5Q1282 269 1282 291Q1282 326 1256 340Q1230 354 1192 353Q1147 352 1125 337Q1103 322 1098 284L1044 289Q1050 342 1084 373Q1118 404 1192 404Q1221 404 1247 397.5Q1273 391 1293 377.5Q1313 364 1324.5 342.5Q1336 321 1336 291Q1336 253 1318 232.5Q1300 212 1277 205Q1289 202 1302 195Q1315 188 1325.5 176.5Q1336 165 1343 148.5Q1350 132 1350 110ZM1456 0Q1456 48 1467 80Q1478 112 1497.5 133.5Q1517 155 1544 170Q1571 185 1603 200Q1629 211 1647 219.5Q1665 228 1676.5 237Q1688 246 1693.5 257Q1699 268 1699 285Q1699 306 1690 319Q1681 332 1668 339.5Q1655 347 1639.5 349.5Q1624 352 1612 352Q1565 352 1541.5 336.5Q1518 321 1512 284L1458 290Q1466 342 1500.5 373Q1535 404 1612 404Q1640 404 1665.5 396.5Q1691 389 1710 374.5Q1729 360 1740.5 337.5Q1752 315 1752 285Q1752 255 1741.5 235Q1731 215 1714 201Q1697 187 1674.5 177Q1652 167 1629 156Q1577 134 1548 111Q1519 88 1514 50L1623 52H1761V0ZM48 678Q96 689 130.5 713Q165 737 194 774H240V420H370V370H56V420H186V694Q163 668 129.5 650Q96 632 48 623Z" glyph-name="glyph01188" horiz-adv-x="1814" /><glyph d="M53 370Q53 418 64 450Q75 482 94.5 503.5Q114 525 141 540Q168 555 200 570Q226 581 244 589.5Q262 598 273.5 607Q285 616 290.5 627Q296 638 296 655Q296 676 287 689Q278 702 265 709.5Q252 717 236.5 719.5Q221 722 209 722Q162 722 138.5 706.5Q115 691 109 654L55 660Q63 712 97.5 743Q132 774 209 774Q237 774 262.5 766.5Q288 759 307 744.5Q326 730 337.5 707.5Q349 685 349 655Q349 625 338.5 605Q328 585 311 571Q294 557 271.5 547Q249 537 226 526Q174 504 145 481Q116 458 111 420L220 422H358V370ZM1338 110Q1338 59 1298.5 24.5Q1259 -10 1177 -10Q1102 -10 1067 21Q1032 52 1024 105L1079 110Q1084 73 1107 57Q1130 41 1177 41Q1228 40 1256 57Q1284 74 1284 110Q1284 134 1275 147.5Q1266 161 1252 167.5Q1238 174 1220.5 175.5Q1203 177 1185 177H1130V228H1185Q1202 228 1217.5 229.5Q1233 231 1244.5 237.5Q1256 244 1263 256.5Q1270 269 1270 291Q1270 326 1244 340Q1218 354 1180 353Q1135 352 1113 337Q1091 322 1086 284L1032 289Q1038 342 1072 373Q1106 404 1180 404Q1209 404 1235 397.5Q1261 391 1281 377.5Q1301 364 1312.5 342.5Q1324 321 1324 291Q1324 253 1306 232.5Q1288 212 1265 205Q1277 202 1290 195Q1303 188 1313.5 176.5Q1324 165 1331 148.5Q1338 132 1338 110ZM1444 0Q1444 48 1455 80Q1466 112 1485.5 133.5Q1505 155 1532 170Q1559 185 1591 200Q1617 211 1635 219.5Q1653 228 1664.5 237Q1676 246 1681.5 257Q1687 268 1687 285Q1687 306 1678 319Q1669 332 1656 339.5Q1643 347 1627.5 349.5Q1612 352 1600 352Q1553 352 1529.5 336.5Q1506 321 1500 284L1446 290Q1454 342 1488.5 373Q1523 404 1600 404Q1628 404 1653.5 396.5Q1679 389 1698 374.5Q1717 360 1728.5 337.5Q1740 315 1740 285Q1740 255 1729.5 235Q1719 215 1702 201Q1685 187 1662.5 177Q1640 167 1617 156Q1565 134 1536 111Q1507 88 1502 50L1611 52H1749V0ZM669 0H597L1103 764H1175ZM444 678Q492 689 526.5 713Q561 737 590 774H636V420H766V370H452V420H582V694Q559 668 525.5 650Q492 632 444 623Z" glyph-name="glyph01189" horiz-adv-x="1802" /><glyph d="M53 370Q53 418 64 450Q75 482 94.5 503.5Q114 525 141 540Q168 555 200 570Q226 581 244 589.5Q262 598 273.5 607Q285 616 290.5 627Q296 638 296 655Q296 676 287 689Q278 702 265 709.5Q252 717 236.5 719.5Q221 722 209 722Q162 722 138.5 706.5Q115 691 109 654L55 660Q63 712 97.5 743Q132 774 209 774Q237 774 262.5 766.5Q288 759 307 744.5Q326 730 337.5 707.5Q349 685 349 655Q349 625 338.5 605Q328 585 311 571Q294 557 271.5 547Q249 537 226 526Q174 504 145 481Q116 458 111 420L220 422H358V370ZM773 480Q773 429 733.5 394.5Q694 360 612 360Q537 360 502 391Q467 422 459 475L514 480Q519 443 542 427Q565 411 612 411Q663 410 691 427Q719 444 719 480Q719 504 710 517.5Q701 531 687 537.5Q673 544 655.5 545.5Q638 547 620 547H565V598H620Q637 598 652.5 599.5Q668 601 679.5 607.5Q691 614 698 626.5Q705 639 705 661Q705 696 679 710Q653 724 615 723Q570 722 548 707Q526 692 521 654L467 659Q473 712 507 743Q541 774 615 774Q644 774 670 767.5Q696 761 716 747.5Q736 734 747.5 712.5Q759 691 759 661Q759 623 741 602.5Q723 582 700 575Q712 572 725 565Q738 558 748.5 546.5Q759 535 766 518.5Q773 502 773 480ZM699 0H627L1133 764H1205ZM1368 110Q1368 59 1328.5 24.5Q1289 -10 1207 -10Q1132 -10 1097 21Q1062 52 1054 105L1109 110Q1114 73 1137 57Q1160 41 1207 41Q1258 40 1286 57Q1314 74 1314 110Q1314 134 1305 147.5Q1296 161 1282 167.5Q1268 174 1250.5 175.5Q1233 177 1215 177H1160V228H1215Q1232 228 1247.5 229.5Q1263 231 1274.5 237.5Q1286 244 1293 256.5Q1300 269 1300 291Q1300 326 1274 340Q1248 354 1210 353Q1165 352 1143 337Q1121 322 1116 284L1062 289Q1068 342 1102 373Q1136 404 1210 404Q1239 404 1265 397.5Q1291 391 1311 377.5Q1331 364 1342.5 342.5Q1354 321 1354 291Q1354 253 1336 232.5Q1318 212 1295 205Q1307 202 1320 195Q1333 188 1343.5 176.5Q1354 165 1361 148.5Q1368 132 1368 110ZM1474 0Q1474 48 1485 80Q1496 112 1515.5 133.5Q1535 155 1562 170Q1589 185 1621 200Q1647 211 1665 219.5Q1683 228 1694.5 237Q1706 246 1711.5 257Q1717 268 1717 285Q1717 306 1708 319Q1699 332 1686 339.5Q1673 347 1657.5 349.5Q1642 352 1630 352Q1583 352 1559.5 336.5Q1536 321 1530 284L1476 290Q1484 342 1518.5 373Q1553 404 1630 404Q1658 404 1683.5 396.5Q1709 389 1728 374.5Q1747 360 1758.5 337.5Q1770 315 1770 285Q1770 255 1759.5 235Q1749 215 1732 201Q1715 187 1692.5 177Q1670 167 1647 156Q1595 134 1566 111Q1537 88 1532 50L1641 52H1779V0Z" glyph-name="glyph01190" horiz-adv-x="1832" /><glyph d="M53 370Q53 418 64 450Q75 482 94.5 503.5Q114 525 141 540Q168 555 200 570Q226 581 244 589.5Q262 598 273.5 607Q285 616 290.5 627Q296 638 296 655Q296 676 287 689Q278 702 265 709.5Q252 717 236.5 719.5Q221 722 209 722Q162 722 138.5 706.5Q115 691 109 654L55 660Q63 712 97.5 743Q132 774 209 774Q237 774 262.5 766.5Q288 759 307 744.5Q326 730 337.5 707.5Q349 685 349 655Q349 625 338.5 605Q328 585 311 571Q294 557 271.5 547Q249 537 226 526Q174 504 145 481Q116 458 111 420L220 422H358V370ZM481 561 502 764H736V712H549L537 614Q553 625 574.5 630.5Q596 636 619 636Q686 636 722.5 600.5Q759 565 759 496Q759 462 747.5 436Q736 410 716 392.5Q696 375 669 366.5Q642 358 611 358Q574 358 547.5 366Q521 374 504 389Q487 404 477.5 425Q468 446 464 473L518 479Q526 441 546 424.5Q566 408 611 409Q629 409 646 413.5Q663 418 676 428.5Q689 439 697 455.5Q705 472 705 496Q705 544 682.5 565Q660 586 618 586Q589 587 565.5 578Q542 569 528 550ZM685 0H613L1119 764H1191ZM1354 110Q1354 59 1314.5 24.5Q1275 -10 1193 -10Q1118 -10 1083 21Q1048 52 1040 105L1095 110Q1100 73 1123 57Q1146 41 1193 41Q1244 40 1272 57Q1300 74 1300 110Q1300 134 1291 147.5Q1282 161 1268 167.5Q1254 174 1236.5 175.5Q1219 177 1201 177H1146V228H1201Q1218 228 1233.5 229.5Q1249 231 1260.5 237.5Q1272 244 1279 256.5Q1286 269 1286 291Q1286 326 1260 340Q1234 354 1196 353Q1151 352 1129 337Q1107 322 1102 284L1048 289Q1054 342 1088 373Q1122 404 1196 404Q1225 404 1251 397.5Q1277 391 1297 377.5Q1317 364 1328.5 342.5Q1340 321 1340 291Q1340 253 1322 232.5Q1304 212 1281 205Q1293 202 1306 195Q1319 188 1329.5 176.5Q1340 165 1347 148.5Q1354 132 1354 110ZM1460 0Q1460 48 1471 80Q1482 112 1501.5 133.5Q1521 155 1548 170Q1575 185 1607 200Q1633 211 1651 219.5Q1669 228 1680.5 237Q1692 246 1697.5 257Q1703 268 1703 285Q1703 306 1694 319Q1685 332 1672 339.5Q1659 347 1643.5 349.5Q1628 352 1616 352Q1569 352 1545.5 336.5Q1522 321 1516 284L1462 290Q1470 342 1504.5 373Q1539 404 1616 404Q1644 404 1669.5 396.5Q1695 389 1714 374.5Q1733 360 1744.5 337.5Q1756 315 1756 285Q1756 255 1745.5 235Q1735 215 1718 201Q1701 187 1678.5 177Q1656 167 1633 156Q1581 134 1552 111Q1523 88 1518 50L1627 52H1765V0Z" glyph-name="glyph01191" horiz-adv-x="1818" /></font>
</defs>
</svg>
