<?xml version="1.0" standalone="no"?><!DOCTYPE svg PUBLIC "-//W3C//DTD SVG 1.1//EN" "http://www.w3.org/Graphics/SVG/1.1/DTD/svg11.dtd" ><svg version="1.1" xmlns="http://www.w3.org/2000/svg"><defs><font horiz-adv-x="0" id="font"><font-face ascent="800" bbox="-249 -253 1846 1134" cap-height="780" descent="-200" font-family="Galaxie Polaris" font-stretch="normal" font-style="normal" font-weight="600" units-per-em="1000" x-height="530" /><missing-glyph d="M90 780H870V0H90ZM201 66H759L480 345ZM480 435 759 714H201ZM160 665V115L435 390ZM800 115V665L525 390Z" horiz-adv-x="960" /><glyph d="M371 791H469L673 0H567L511 225H193L83 0H-27ZM406 664 236 313H490Z" glyph-name="A" horiz-adv-x="726" unicode="A" /><glyph d="M490 225H229L83 0H-37L487 780H1044L1033 688H578L583 445H960L949 354H585L590 92H980L969 0H495ZM286 313H488L486 445L483 615Z" glyph-name="AE" horiz-adv-x="1065" unicode="&#198;" /><glyph d="M763 1030 626 822H531L651 1030ZM490 225H229L83 0H-37L487 780H1044L1033 688H578L583 445H960L949 354H585L590 92H980L969 0H495ZM286 313H488L486 445L483 615Z" glyph-name="AEacute" horiz-adv-x="1065" unicode="&#508;" /><glyph d="M610 1030 473 822H378L498 1030ZM371 791H469L673 0H567L511 225H193L83 0H-27ZM406 664 236 313H490Z" glyph-name="Aacute" horiz-adv-x="726" unicode="&#193;" /><glyph d="M371 791H469L673 0H567L511 225H193L83 0H-27ZM406 664 236 313H490ZM424 825Q371 825 336.5 839Q302 853 283.5 879Q265 905 260.5 943Q256 981 262 1030H338Q329 963 351.5 936Q374 909 432 909Q490 909 519 936Q548 963 556 1030H636Q630 981 616.5 943Q603 905 578 879Q553 853 515 839Q477 825 424 825Z" glyph-name="Abreve" horiz-adv-x="726" unicode="&#258;" /><glyph d="M528 822 443 948 327 822H226L404 1030H495L621 822ZM371 791H469L673 0H567L511 225H193L83 0H-27ZM406 664 236 313H490Z" glyph-name="Acircumflex" horiz-adv-x="726" unicode="&#194;" /><glyph d="M385 868H273L287 979H399ZM585 868H473L487 979H599ZM371 791H469L673 0H567L511 225H193L83 0H-27ZM406 664 236 313H490Z" glyph-name="Adieresis" horiz-adv-x="726" unicode="&#196;" /><glyph d="M400 1030 468 822H373L288 1030ZM371 791H469L673 0H567L511 225H193L83 0H-27ZM406 664 236 313H490Z" glyph-name="Agrave" horiz-adv-x="726" unicode="&#192;" /><glyph d="M298 971H586L575 881H287ZM371 791H469L673 0H567L511 225H193L83 0H-27ZM406 664 236 313H490Z" glyph-name="Amacron" horiz-adv-x="726" unicode="&#256;" /><glyph d="M371 791H469L673 0Q646 -3 620.5 -13.5Q595 -24 576 -38.5Q557 -53 545.5 -70.5Q534 -88 534 -106Q534 -121 543.5 -130Q553 -139 575 -139Q586 -139 598.5 -136.5Q611 -134 622 -130.5Q633 -127 640 -124Q647 -121 647 -120L661 -187Q644 -197 616.5 -204.5Q589 -212 555 -212Q534 -212 515 -207.5Q496 -203 481.5 -192.5Q467 -182 458.5 -165.5Q450 -149 450 -125Q450 -80 480 -41.5Q510 -3 561 25L511 225H193L83 0H-27ZM406 664 236 313H490Z" glyph-name="Aogonek" horiz-adv-x="726" unicode="&#260;" /><glyph d="M371 791H469L673 0H567L511 225H193L83 0H-27ZM406 664 236 313H490ZM430 878Q453 878 468 893.5Q483 909 483 934Q483 974 442 974Q419 974 404 958.5Q389 943 389 918Q389 878 430 878ZM422 810Q372 810 345.5 837.5Q319 865 319 909Q319 937 328.5 961Q338 985 355 1003Q372 1021 396 1031.5Q420 1042 450 1042Q500 1042 526.5 1014.5Q553 987 553 943Q553 915 543.5 891Q534 867 517 849Q500 831 476 820.5Q452 810 422 810Z" glyph-name="Aring" horiz-adv-x="726" unicode="&#197;" /><glyph d="M529 1134 458 1041Q505 1039 529 1012.5Q553 986 553 944Q553 886 517.5 848Q482 810 422 810Q372 810 346 837Q320 864 320 908Q320 929 326.5 950.5Q333 972 344 989L433 1134ZM442 974Q419 974 404 958Q389 942 389 919Q389 900 399.5 888.5Q410 877 430 877Q454 877 469 893Q484 909 484 934Q484 952 473 963Q462 974 442 974ZM371 791H469L673 0H567L511 225H193L83 0H-27ZM406 664 236 313H490Z" glyph-name="Aringacute" horiz-adv-x="726" unicode="&#506;" /><glyph d="M371 791H469L673 0H567L511 225H193L83 0H-27ZM406 664 236 313H490ZM370 1008Q403 1008 423.5 997Q444 986 459 972.5Q474 959 487.5 947.5Q501 936 520 936Q545 936 559 949.5Q573 963 578 982L654 971Q639 914 602.5 880Q566 846 502 846Q469 846 448.5 857.5Q428 869 413 882.5Q398 896 384.5 907Q371 918 352 918Q327 918 313 904.5Q299 891 294 872L218 883Q233 940 269.5 974Q306 1008 370 1008Z" glyph-name="Atilde" horiz-adv-x="726" unicode="&#195;" /><glyph d="M40 0 135 780H451Q484 780 519.5 773Q555 766 585 747.5Q615 729 634 695.5Q653 662 653 609Q653 563 642 528Q631 493 613.5 468.5Q596 444 575.5 428.5Q555 413 537 407Q579 397 608 359.5Q637 322 637 256Q637 181 613.5 132Q590 83 551 53.5Q512 24 462.5 12Q413 0 362 0ZM365 92Q388 92 417 95.5Q446 99 471.5 114Q497 129 515 160.5Q533 192 533 247Q533 283 521 304.5Q509 326 489.5 337Q470 348 447 351Q424 354 401 354H183L151 92ZM224 688 194 445H400Q430 445 457 451.5Q484 458 504.5 475Q525 492 536.5 522Q548 552 548 598Q548 626 539.5 643.5Q531 661 515.5 671Q500 681 478.5 684.5Q457 688 430 688Z" glyph-name="B" horiz-adv-x="699" unicode="B" /><glyph d="M61 300Q61 402 85 491.5Q109 581 158 647.5Q207 714 281.5 753Q356 792 457 792Q525 792 575 778Q625 764 659 738Q693 712 711 676.5Q729 641 733 597L631 562Q628 635 584 668Q540 701 446 701Q367 701 313 667.5Q259 634 226 578.5Q193 523 179 453Q165 383 165 309Q165 261 175 219Q185 177 208.5 146Q232 115 271.5 97Q311 79 369 79Q463 79 515.5 112Q568 145 588 218L682 185Q668 141 641.5 105Q615 69 575 43Q535 17 481 2.5Q427 -12 358 -12Q281 -12 225 10Q169 32 132.5 72.5Q96 113 78.5 170.5Q61 228 61 300Z" glyph-name="C" horiz-adv-x="757" unicode="C" /><glyph d="M636 1030 499 822H404L524 1030ZM61 300Q61 402 85 491.5Q109 581 158 647.5Q207 714 281.5 753Q356 792 457 792Q525 792 575 778Q625 764 659 738Q693 712 711 676.5Q729 641 733 597L631 562Q628 635 584 668Q540 701 446 701Q367 701 313 667.5Q259 634 226 578.5Q193 523 179 453Q165 383 165 309Q165 261 175 219Q185 177 208.5 146Q232 115 271.5 97Q311 79 369 79Q463 79 515.5 112Q568 145 588 218L682 185Q668 141 641.5 105Q615 69 575 43Q535 17 481 2.5Q427 -12 358 -12Q281 -12 225 10Q169 32 132.5 72.5Q96 113 78.5 170.5Q61 228 61 300Z" glyph-name="Cacute" horiz-adv-x="757" unicode="&#262;" /><glyph d="M61 300Q61 402 85 491.5Q109 581 158 647.5Q207 714 281.5 753Q356 792 457 792Q525 792 575 778Q625 764 659 738Q693 712 711 676.5Q729 641 733 597L631 562Q628 635 584 668Q540 701 446 701Q367 701 313 667.5Q259 634 226 578.5Q193 523 179 453Q165 383 165 309Q165 261 175 219Q185 177 208.5 146Q232 115 271.5 97Q311 79 369 79Q463 79 515.5 112Q568 145 588 218L682 185Q668 141 641.5 105Q615 69 575 43Q535 17 481 2.5Q427 -12 358 -12Q281 -12 225 10Q169 32 132.5 72.5Q96 113 78.5 170.5Q61 228 61 300ZM405 822 279 1030H372L457 903L574 1030H675L497 822Z" glyph-name="Ccaron" horiz-adv-x="757" unicode="&#268;" /><glyph d="M61 300Q61 402 85 491.5Q109 581 158 647.5Q207 714 281.5 753Q356 792 457 792Q525 792 575 778Q625 764 659 738Q693 712 711 676.5Q729 641 733 597L631 562Q628 635 584 668Q540 701 446 701Q367 701 313 667.5Q259 634 226 578.5Q193 523 179 453Q165 383 165 309Q165 261 175 219Q185 177 208.5 146Q232 115 271.5 97Q311 79 369 79Q463 79 515.5 112Q568 145 588 218L682 185Q669 144 644.5 109.5Q620 75 583.5 49.5Q547 24 499 8Q451 -8 389 -11L379 -35Q411 -43 434.5 -61Q458 -79 458 -114Q458 -140 447 -158.5Q436 -177 417.5 -189Q399 -201 375 -206.5Q351 -212 324 -212Q292 -212 268.5 -205.5Q245 -199 235 -194L258 -141Q265 -144 274 -148Q282 -151 291 -153Q300 -155 311 -155Q320 -155 330.5 -154Q341 -153 350 -149Q359 -145 365 -138.5Q371 -132 371 -121Q371 -100 348 -90Q325 -80 290 -76L321 -10Q254 -5 204.5 18.5Q155 42 123.5 82Q92 122 76.5 177.5Q61 233 61 300Z" glyph-name="Ccedilla" horiz-adv-x="757" unicode="&#199;" /><glyph d="M61 300Q61 402 85 491.5Q109 581 158 647.5Q207 714 281.5 753Q356 792 457 792Q525 792 575 778Q625 764 659 738Q693 712 711 676.5Q729 641 733 597L631 562Q628 635 584 668Q540 701 446 701Q367 701 313 667.5Q259 634 226 578.5Q193 523 179 453Q165 383 165 309Q165 261 175 219Q185 177 208.5 146Q232 115 271.5 97Q311 79 369 79Q463 79 515.5 112Q568 145 588 218L682 185Q668 141 641.5 105Q615 69 575 43Q535 17 481 2.5Q427 -12 358 -12Q281 -12 225 10Q169 32 132.5 72.5Q96 113 78.5 170.5Q61 228 61 300ZM523 1030 649 822H556L471 949L354 822H253L431 1030Z" glyph-name="Ccircumflex" horiz-adv-x="757" unicode="&#264;" /><glyph d="M513 869H401L415 980H527ZM61 300Q61 402 85 491.5Q109 581 158 647.5Q207 714 281.5 753Q356 792 457 792Q525 792 575 778Q625 764 659 738Q693 712 711 676.5Q729 641 733 597L631 562Q628 635 584 668Q540 701 446 701Q367 701 313 667.5Q259 634 226 578.5Q193 523 179 453Q165 383 165 309Q165 261 175 219Q185 177 208.5 146Q232 115 271.5 97Q311 79 369 79Q463 79 515.5 112Q568 145 588 218L682 185Q668 141 641.5 105Q615 69 575 43Q535 17 481 2.5Q427 -12 358 -12Q281 -12 225 10Q169 32 132.5 72.5Q96 113 78.5 170.5Q61 228 61 300Z" glyph-name="Cdotaccent" horiz-adv-x="757" unicode="&#266;" /><glyph d="M40 0 135 780H402Q559 780 639 707.5Q719 635 719 479Q719 367 692.5 278Q666 189 613.5 127.5Q561 66 484.5 33Q408 0 307 0ZM318 92Q399 92 455.5 121Q512 150 547.5 200.5Q583 251 599 318.5Q615 386 615 463Q615 516 602.5 557.5Q590 599 563 628Q536 657 493.5 672.5Q451 688 391 688H224L151 92Z" glyph-name="D" horiz-adv-x="764" unicode="D" /><glyph d="M355 822 229 1030H322L407 903L524 1030H625L447 822ZM40 0 135 780H402Q559 780 639 707.5Q719 635 719 479Q719 367 692.5 278Q666 189 613.5 127.5Q561 66 484.5 33Q408 0 307 0ZM318 92Q399 92 455.5 121Q512 150 547.5 200.5Q583 251 599 318.5Q615 386 615 463Q615 516 602.5 557.5Q590 599 563 628Q536 657 493.5 672.5Q451 688 391 688H224L151 92Z" glyph-name="Dcaron" horiz-adv-x="764" unicode="&#270;" /><glyph d="M94 0 137 354H22L33 445H148L189 780H456Q613 780 693 707.5Q773 635 773 479Q773 367 746.5 278Q720 189 667.5 127.5Q615 66 538.5 33Q462 0 361 0ZM372 92Q453 92 509.5 121Q566 150 601.5 200.5Q637 251 653 318.5Q669 386 669 463Q669 516 656.5 557.5Q644 599 617 628Q590 657 547.5 672.5Q505 688 445 688H278L248 445H465L454 354H237L205 92Z" glyph-name="Dcroat" horiz-adv-x="818" unicode="&#272;" /><glyph d="M672 780 661 688H224L194 445H588L577 354H183L151 92H608L597 0H40L135 780Z" glyph-name="E" horiz-adv-x="693" unicode="E" /><glyph d="M672 780 661 688H224L194 445H588L577 354H183L151 92H608L597 0H40L135 780ZM592 1030 455 822H360L480 1030Z" glyph-name="Eacute" horiz-adv-x="693" unicode="&#201;" /><glyph d="M672 780 661 688H224L194 445H588L577 354H183L151 92H608L597 0H40L135 780ZM408 825Q355 825 320.5 839Q286 853 267.5 879Q249 905 244.5 943Q240 981 246 1030H322Q313 963 335.5 936Q358 909 416 909Q474 909 503 936Q532 963 540 1030H620Q614 981 600.5 943Q587 905 562 879Q537 853 499 839Q461 825 408 825Z" glyph-name="Ebreve" horiz-adv-x="693" unicode="&#276;" /><glyph d="M672 780 661 688H224L194 445H588L577 354H183L151 92H608L597 0H40L135 780ZM361 822 235 1030H328L413 903L530 1030H631L453 822Z" glyph-name="Ecaron" horiz-adv-x="693" unicode="&#282;" /><glyph d="M672 780 661 688H224L194 445H588L577 354H183L151 92H608L597 0H40L135 780ZM479 1030 605 822H512L427 949L310 822H209L387 1030Z" glyph-name="Ecircumflex" horiz-adv-x="693" unicode="&#202;" /><glyph d="M672 780 661 688H224L194 445H588L577 354H183L151 92H608L597 0H40L135 780ZM369 869H257L271 980H383ZM569 869H457L471 980H583Z" glyph-name="Edieresis" horiz-adv-x="693" unicode="&#203;" /><glyph d="M672 780 661 688H224L194 445H588L577 354H183L151 92H608L597 0H40L135 780ZM469 869H357L371 980H483Z" glyph-name="Edotaccent" horiz-adv-x="693" unicode="&#278;" /><glyph d="M672 780 661 688H224L194 445H588L577 354H183L151 92H608L597 0H40L135 780ZM393 1030 461 822H366L281 1030Z" glyph-name="Egrave" horiz-adv-x="693" unicode="&#200;" /><glyph d="M672 780 661 688H224L194 445H588L577 354H183L151 92H608L597 0H40L135 780ZM271 882 282 972H570L559 882Z" glyph-name="Emacron" horiz-adv-x="693" unicode="&#274;" /><glyph d="M533 9 283 471 214 604 186 369 141 0H40L135 780H231L485 309L555 176L583 411L628 780H729L633 -7Q628 -47 615.5 -84Q603 -121 578 -149.5Q553 -178 512.5 -195Q472 -212 411 -212Q390 -212 370 -208.5Q350 -205 339 -200L360 -110Q366 -114 382 -119Q398 -124 418 -123Q444 -123 463.5 -118Q483 -113 496.5 -99.5Q510 -86 519 -62.5Q528 -39 532 -1Z" glyph-name="Eng" horiz-adv-x="754" unicode="&#330;" /><glyph d="M672 780 661 688H224L194 445H588L577 354H183L151 92H608L597 0Q570 -3 544.5 -13.5Q519 -24 500 -38.5Q481 -53 469.5 -70.5Q458 -88 458 -106Q458 -121 467.5 -130Q477 -139 499 -139Q510 -139 522.5 -136.5Q535 -134 546 -130.5Q557 -127 564 -124Q571 -121 571 -120L585 -187Q568 -197 540.5 -204.5Q513 -212 479 -212Q458 -212 439 -207.5Q420 -203 405.5 -192.5Q391 -182 382.5 -165.5Q374 -149 374 -125Q374 -90 393 -58Q412 -26 447 0H40L135 780Z" glyph-name="Eogonek" horiz-adv-x="693" unicode="&#280;" /><glyph d="M94 0 137 354H22L33 445H148L189 780H456Q613 780 693 707.5Q773 635 773 479Q773 367 746.5 278Q720 189 667.5 127.5Q615 66 538.5 33Q462 0 361 0ZM372 92Q453 92 509.5 121Q566 150 601.5 200.5Q637 251 653 318.5Q669 386 669 463Q669 516 656.5 557.5Q644 599 617 628Q590 657 547.5 672.5Q505 688 445 688H278L248 445H465L454 354H237L205 92Z" glyph-name="Eth" horiz-adv-x="818" unicode="&#208;" /><glyph d="M569 499 534 422H238L228 342H499L465 265H229Q238 77 406 77Q491 77 535 111.5Q579 146 599 215L693 182Q679 139 654.5 103.5Q630 68 593.5 42.5Q557 17 507.5 3Q458 -11 395 -11Q263 -11 197 60Q131 131 126 265H19L28 342H127L137 422H38L48 499H155Q193 633 276.5 704Q360 775 492 775Q555 775 600.5 761Q646 747 676 722Q706 697 722 662Q738 627 742 584L640 549Q637 618 601.5 652.5Q566 687 481 687Q312 687 258 499Z" glyph-name="Euro" horiz-adv-x="769" unicode="&#8364;" /><glyph d="M140 0H40L135 780H652L641 688H224L194 445H567L556 354H183Z" glyph-name="F" horiz-adv-x="630" unicode="F" /><glyph d="M61 300Q61 402 85 491.5Q109 581 158 647.5Q207 714 281.5 753Q356 792 457 792Q525 792 575 778Q625 764 659 738Q693 712 711 676.5Q729 641 733 597L631 562Q628 635 584 668Q540 701 446 701Q367 701 313 667.5Q259 634 226 578.5Q193 523 179 453Q165 383 165 309Q165 261 175 219Q185 177 208.5 146Q232 115 271.5 97Q311 79 369 79Q435 79 489 92.5Q543 106 580 129L605 327H437L447 414H714L672 68Q631 45 594 29.5Q557 14 520.5 5Q484 -4 446.5 -8Q409 -12 367 -12Q287 -12 229.5 9Q172 30 134.5 70.5Q97 111 79 169Q61 227 61 300Z" glyph-name="G" horiz-adv-x="780" unicode="G" /><glyph d="M61 300Q61 402 85 491.5Q109 581 158 647.5Q207 714 281.5 753Q356 792 457 792Q525 792 575 778Q625 764 659 738Q693 712 711 676.5Q729 641 733 597L631 562Q628 635 584 668Q540 701 446 701Q367 701 313 667.5Q259 634 226 578.5Q193 523 179 453Q165 383 165 309Q165 261 175 219Q185 177 208.5 146Q232 115 271.5 97Q311 79 369 79Q435 79 489 92.5Q543 106 580 129L605 327H437L447 414H714L672 68Q631 45 594 29.5Q557 14 520.5 5Q484 -4 446.5 -8Q409 -12 367 -12Q287 -12 229.5 9Q172 30 134.5 70.5Q97 111 79 169Q61 227 61 300ZM452 825Q399 825 364.5 839Q330 853 311.5 879Q293 905 288.5 943Q284 981 290 1030H366Q357 963 379.5 936Q402 909 460 909Q518 909 547 936Q576 963 584 1030H664Q658 981 644.5 943Q631 905 606 879Q581 853 543 839Q505 825 452 825Z" glyph-name="Gbreve" horiz-adv-x="780" unicode="&#286;" /><glyph d="M61 300Q61 402 85 491.5Q109 581 158 647.5Q207 714 281.5 753Q356 792 457 792Q525 792 575 778Q625 764 659 738Q693 712 711 676.5Q729 641 733 597L631 562Q628 635 584 668Q540 701 446 701Q367 701 313 667.5Q259 634 226 578.5Q193 523 179 453Q165 383 165 309Q165 261 175 219Q185 177 208.5 146Q232 115 271.5 97Q311 79 369 79Q435 79 489 92.5Q543 106 580 129L605 327H437L447 414H714L672 68Q631 45 594 29.5Q557 14 520.5 5Q484 -4 446.5 -8Q409 -12 367 -12Q287 -12 229.5 9Q172 30 134.5 70.5Q97 111 79 169Q61 227 61 300ZM405 822 279 1030H372L457 903L574 1030H675L497 822Z" glyph-name="Gcaron" horiz-adv-x="780" unicode="&#486;" /><glyph d="M61 300Q61 402 85 491.5Q109 581 158 647.5Q207 714 281.5 753Q356 792 457 792Q525 792 575 778Q625 764 659 738Q693 712 711 676.5Q729 641 733 597L631 562Q628 635 584 668Q540 701 446 701Q367 701 313 667.5Q259 634 226 578.5Q193 523 179 453Q165 383 165 309Q165 261 175 219Q185 177 208.5 146Q232 115 271.5 97Q311 79 369 79Q435 79 489 92.5Q543 106 580 129L605 327H437L447 414H714L672 68Q631 45 594 29.5Q557 14 520.5 5Q484 -4 446.5 -8Q409 -12 367 -12Q287 -12 229.5 9Q172 30 134.5 70.5Q97 111 79 169Q61 227 61 300ZM523 1030 649 822H556L471 949L354 822H253L431 1030Z" glyph-name="Gcircumflex" horiz-adv-x="780" unicode="&#284;" /><glyph d="M61 300Q61 402 85 491.5Q109 581 158 647.5Q207 714 281.5 753Q356 792 457 792Q525 792 575 778Q625 764 659 738Q693 712 711 676.5Q729 641 733 597L631 562Q628 635 584 668Q540 701 446 701Q367 701 313 667.5Q259 634 226 578.5Q193 523 179 453Q165 383 165 309Q165 261 175 219Q185 177 208.5 146Q232 115 271.5 97Q311 79 369 79Q435 79 489 92.5Q543 106 580 129L605 327H437L447 414H714L672 68Q631 45 594 29.5Q557 14 520.5 5Q484 -4 446.5 -8Q409 -12 367 -12Q287 -12 229.5 9Q172 30 134.5 70.5Q97 111 79 169Q61 227 61 300ZM404 -62 341 -200H253L287 -62Z" glyph-name="Gcommaaccent" horiz-adv-x="780" unicode="&#290;" /><glyph d="M61 300Q61 402 85 491.5Q109 581 158 647.5Q207 714 281.5 753Q356 792 457 792Q525 792 575 778Q625 764 659 738Q693 712 711 676.5Q729 641 733 597L631 562Q628 635 584 668Q540 701 446 701Q367 701 313 667.5Q259 634 226 578.5Q193 523 179 453Q165 383 165 309Q165 261 175 219Q185 177 208.5 146Q232 115 271.5 97Q311 79 369 79Q435 79 489 92.5Q543 106 580 129L605 327H437L447 414H714L672 68Q631 45 594 29.5Q557 14 520.5 5Q484 -4 446.5 -8Q409 -12 367 -12Q287 -12 229.5 9Q172 30 134.5 70.5Q97 111 79 169Q61 227 61 300ZM513 869H401L415 980H527Z" glyph-name="Gdotaccent" horiz-adv-x="780" unicode="&#288;" /><glyph d="M725 780 630 0H530L573 354H183L140 0H40L135 780H235L194 445H584L625 780Z" glyph-name="H" horiz-adv-x="750" unicode="H" /><glyph d="M90 390Q90 473 121.5 546Q153 619 207 673Q261 727 334 758.5Q407 790 490 790Q573 790 646 758.5Q719 727 773 673Q827 619 858.5 546Q890 473 890 390Q890 307 858.5 234Q827 161 773 107Q719 53 646 21.5Q573 -10 490 -10Q407 -10 334 21.5Q261 53 207 107Q153 161 121.5 234Q90 307 90 390Z" glyph-name="H18533" horiz-adv-x="980" unicode="&#9679;" /><glyph d="M630 0H100V530H630Z" glyph-name="H18543" horiz-adv-x="730" unicode="&#9642;" /><glyph d="M100 530H630V0H100ZM200 434V96H530V434Z" glyph-name="H18551" horiz-adv-x="730" unicode="&#9643;" /><glyph d="M100 780H880V0H100ZM200 684V96H780V684Z" glyph-name="H22073" horiz-adv-x="980" unicode="&#9633;" /><glyph d="M725 780 630 0H530L573 354H183L140 0H40L135 780H235L218 640H608L625 780ZM584 445 598 560H208L194 445Z" glyph-name="Hbar" horiz-adv-x="750" unicode="&#294;" /><glyph d="M725 780 630 0H530L573 354H183L140 0H40L135 780H235L194 445H584L625 780ZM507 1030 633 822H540L455 949L338 822H237L415 1030Z" glyph-name="Hcircumflex" horiz-adv-x="750" unicode="&#292;" /><glyph d="M158 0H58L153 780H253Z" glyph-name="I" horiz-adv-x="296" unicode="I" /><glyph d="M158 0H58L153 780H253ZM527 780H628L556 194Q551 154 537.5 117Q524 80 497 51.5Q470 23 428 5.5Q386 -12 325 -12Q303 -12 284 -8.5Q265 -5 254 0L275 93Q282 89 298 84Q314 79 334 80Q359 80 379.5 85.5Q400 91 415.5 104.5Q431 118 441.5 141Q452 164 456 200Z" glyph-name="IJ" horiz-adv-x="645" unicode="&#306;" /><glyph d="M158 0H58L153 780H253ZM393 1030 256 822H161L281 1030Z" glyph-name="Iacute" horiz-adv-x="296" unicode="&#205;" /><glyph d="M160 0H60L155 780H255ZM211 825Q158 825 123.5 839Q89 853 70.5 879Q52 905 47.5 943Q43 981 49 1030H125Q116 963 138.5 936Q161 909 219 909Q277 909 306 936Q335 963 343 1030H423Q417 981 403.5 943Q390 905 365 879Q340 853 302 839Q264 825 211 825Z" glyph-name="Ibreve" horiz-adv-x="296" unicode="&#300;" /><glyph d="M158 0H58L153 780H253ZM280 1030 406 822H313L228 949L111 822H10L188 1030Z" glyph-name="Icircumflex" horiz-adv-x="296" unicode="&#206;" /><glyph d="M158 0H58L153 780H253ZM170 869H58L72 980H184ZM370 869H258L272 980H384Z" glyph-name="Idieresis" horiz-adv-x="296" unicode="&#207;" /><glyph d="M158 0H58L153 780H253ZM270 869H158L172 980H284Z" glyph-name="Idotaccent" horiz-adv-x="296" unicode="&#304;" /><glyph d="M158 0H58L153 780H253ZM187 1030 255 822H160L75 1030Z" glyph-name="Igrave" horiz-adv-x="296" unicode="&#204;" /><glyph d="M158 0H58L153 780H253ZM72 882 83 972H371L360 882Z" glyph-name="Imacron" horiz-adv-x="296" unicode="&#298;" /><glyph d="M153 780H253L158 0Q138 -10 120 -22Q102 -34 88 -47.5Q74 -61 66 -76Q58 -91 58 -107Q58 -122 67 -130.5Q76 -139 99 -139Q113 -139 127 -135.5Q141 -132 152.5 -127.5Q164 -123 171.5 -119Q179 -115 180 -113L193 -182Q171 -196 142 -204Q113 -212 79 -212Q58 -212 39 -207.5Q20 -203 5.5 -192.5Q-9 -182 -17.5 -165.5Q-26 -149 -26 -125Q-26 -81 -2.5 -50Q21 -19 58 7Z" glyph-name="Iogonek" horiz-adv-x="296" unicode="&#302;" /><glyph d="M158 0H58L153 780H253ZM155 1008Q188 1008 208.5 997Q229 986 244 972.5Q259 959 272.5 947.5Q286 936 305 936Q330 936 344 949.5Q358 963 363 982L439 971Q424 914 387.5 880Q351 846 287 846Q254 846 233.5 857.5Q213 869 198 882.5Q183 896 169.5 907Q156 918 137 918Q112 918 98 904.5Q84 891 79 872L3 883Q18 940 54.5 974Q91 1008 155 1008Z" glyph-name="Itilde" horiz-adv-x="296" unicode="&#296;" /><glyph d="M495 780 424 200Q419 158 402.5 119.5Q386 81 356 51.5Q326 22 282 5Q238 -12 178 -12Q121 -12 85.5 1Q50 14 30 35.5Q10 57 3 86Q-4 115 -4 147L98 182Q97 159 100 140Q103 121 112.5 107.5Q122 94 140.5 86.5Q159 79 189 79Q224 79 248.5 87Q273 95 288.5 111Q304 127 312.5 150Q321 173 325 204L395 780Z" glyph-name="J" horiz-adv-x="512" unicode="J" /><glyph d="M495 780 424 200Q419 158 402.5 119.5Q386 81 356 51.5Q326 22 282 5Q238 -12 178 -12Q121 -12 85.5 1Q50 14 30 35.5Q10 57 3 86Q-4 115 -4 147L98 182Q97 159 100 140Q103 121 112.5 107.5Q122 94 140.5 86.5Q159 79 189 79Q224 79 248.5 87Q273 95 288.5 111Q304 127 312.5 150Q321 173 325 204L395 780ZM555 822 470 948 354 822H253L431 1030H522L648 822Z" glyph-name="Jcircumflex" horiz-adv-x="512" unicode="&#308;" /><glyph d="M188 392 594 780H733L355 428L659 0H527L280 358L172 258L140 0H40L135 780H235Z" glyph-name="K" horiz-adv-x="712" unicode="K" /><glyph d="M188 392 594 780H733L355 428L659 0H527L280 358L172 258L140 0H40L135 780H235ZM374 -62 311 -200H223L257 -62Z" glyph-name="Kcommaaccent" horiz-adv-x="712" unicode="&#310;" /><glyph d="M151 92H547L536 0H40L135 780H235Z" glyph-name="L" horiz-adv-x="589" unicode="L" /><glyph d="M151 92H547L536 0H40L135 780H235ZM375 1030 238 822H143L263 1030Z" glyph-name="Lacute" horiz-adv-x="589" unicode="&#313;" /><glyph d="M151 92H547L536 0H40L135 780H235ZM553 800 458 592H372L445 800Z" glyph-name="Lcaron" horiz-adv-x="589" unicode="&#317;" /><glyph d="M151 92H547L536 0H40L135 780H235ZM343 -62 280 -200H192L226 -62Z" glyph-name="Lcommaaccent" horiz-adv-x="589" unicode="&#315;" /><glyph d="M151 92H547L536 0H40L135 780H235ZM513 344H401L414 455H526Z" glyph-name="Ldot" horiz-adv-x="595" unicode="&#319;" /><glyph d="M178 314 151 92H547L536 0H40L72 265L-7 228L4 311L82 348L135 780H235L188 397L471 530L460 447Z" glyph-name="Lslash" horiz-adv-x="595" unicode="&#321;" /><glyph d="M373 0 239 455 206 584 172 285 138 0H40L135 780H241L385 288L428 124L511 288L775 780H885L790 0H692L726 285L766 584L701 455L457 0Z" glyph-name="M" horiz-adv-x="910" unicode="M" /><glyph d="M485 309 555 176 583 411 628 780H729L634 0H538L283 471L214 604L186 369L141 0H40L135 780H231Z" glyph-name="N" horiz-adv-x="754" unicode="N" /><glyph d="M622 1030 485 822H390L510 1030ZM485 309 555 176 583 411 628 780H729L634 0H538L283 471L214 604L186 369L141 0H40L135 780H231Z" glyph-name="Nacute" horiz-adv-x="754" unicode="&#323;" /><glyph d="M485 309 555 176 583 411 628 780H729L634 0H538L283 471L214 604L186 369L141 0H40L135 780H231ZM391 822 265 1030H358L443 903L560 1030H661L483 822Z" glyph-name="Ncaron" horiz-adv-x="754" unicode="&#327;" /><glyph d="M390 -62 327 -200H239L273 -62ZM485 309 555 176 583 411 628 780H729L634 0H538L283 471L214 604L186 369L141 0H40L135 780H231Z" glyph-name="Ncommaaccent" horiz-adv-x="754" unicode="&#325;" /><glyph d="M384 1008Q417 1008 437.5 997Q458 986 473 972.5Q488 959 501.5 947.5Q515 936 534 936Q559 936 573 949.5Q587 963 592 982L668 971Q653 914 616.5 880Q580 846 516 846Q483 846 462.5 857.5Q442 869 427 882.5Q412 896 398.5 907Q385 918 366 918Q341 918 327 904.5Q313 891 308 872L232 883Q247 940 283.5 974Q320 1008 384 1008ZM485 309 555 176 583 411 628 780H729L634 0H538L283 471L214 604L186 369L141 0H40L135 780H231Z" glyph-name="Ntilde" horiz-adv-x="754" unicode="&#209;" /><glyph d="M369 79Q451 79 505 114.5Q559 150 591 206Q623 262 636 332.5Q649 403 649 473Q649 521 639.5 562.5Q630 604 606.5 635Q583 666 544 683.5Q505 701 446 701Q364 701 310 665.5Q256 630 224 574Q192 518 179 447.5Q166 377 166 307Q166 259 175.5 217.5Q185 176 208.5 145Q232 114 271 96.5Q310 79 369 79ZM358 -12Q280 -12 224 10Q168 32 132 72.5Q96 113 78.5 170.5Q61 228 61 300Q61 402 85 491.5Q109 581 158 647.5Q207 714 281.5 753Q356 792 457 792Q535 792 591 770.5Q647 749 683 708.5Q719 668 736.5 610Q754 552 754 480Q754 378 730 288.5Q706 199 657 132.5Q608 66 533.5 27Q459 -12 358 -12Z" glyph-name="O" horiz-adv-x="800" unicode="O" /><glyph d="M1061 780 1050 688H653L623 445H977L966 354H612L580 92H997L986 0H377Q220 0 139.5 73Q59 146 59 302Q59 414 86 503Q113 592 165 653.5Q217 715 294.5 747.5Q372 780 472 780ZM461 688Q381 688 324.5 659Q268 630 232.5 580Q197 530 180.5 463Q164 396 164 319Q164 266 176 224Q188 182 215 152.5Q242 123 284.5 107.5Q327 92 388 92H480L553 688Z" glyph-name="OE" horiz-adv-x="1082" unicode="&#338;" /><glyph d="M369 79Q451 79 505 114.5Q559 150 591 206Q623 262 636 332.5Q649 403 649 473Q649 521 639.5 562.5Q630 604 606.5 635Q583 666 544 683.5Q505 701 446 701Q364 701 310 665.5Q256 630 224 574Q192 518 179 447.5Q166 377 166 307Q166 259 175.5 217.5Q185 176 208.5 145Q232 114 271 96.5Q310 79 369 79ZM358 -12Q280 -12 224 10Q168 32 132 72.5Q96 113 78.5 170.5Q61 228 61 300Q61 402 85 491.5Q109 581 158 647.5Q207 714 281.5 753Q356 792 457 792Q535 792 591 770.5Q647 749 683 708.5Q719 668 736.5 610Q754 552 754 480Q754 378 730 288.5Q706 199 657 132.5Q608 66 533.5 27Q459 -12 358 -12ZM645 1030 508 822H413L533 1030Z" glyph-name="Oacute" horiz-adv-x="800" unicode="&#211;" /><glyph d="M369 79Q451 79 505 114.5Q559 150 591 206Q623 262 636 332.5Q649 403 649 473Q649 521 639.5 562.5Q630 604 606.5 635Q583 666 544 683.5Q505 701 446 701Q364 701 310 665.5Q256 630 224 574Q192 518 179 447.5Q166 377 166 307Q166 259 175.5 217.5Q185 176 208.5 145Q232 114 271 96.5Q310 79 369 79ZM358 -12Q280 -12 224 10Q168 32 132 72.5Q96 113 78.5 170.5Q61 228 61 300Q61 402 85 491.5Q109 581 158 647.5Q207 714 281.5 753Q356 792 457 792Q535 792 591 770.5Q647 749 683 708.5Q719 668 736.5 610Q754 552 754 480Q754 378 730 288.5Q706 199 657 132.5Q608 66 533.5 27Q459 -12 358 -12ZM461 825Q408 825 373.5 839Q339 853 320.5 879Q302 905 297.5 943Q293 981 299 1030H375Q366 963 388.5 936Q411 909 469 909Q527 909 556 936Q585 963 593 1030H673Q667 981 653.5 943Q640 905 615 879Q590 853 552 839Q514 825 461 825Z" glyph-name="Obreve" horiz-adv-x="800" unicode="&#334;" /><glyph d="M369 79Q451 79 505 114.5Q559 150 591 206Q623 262 636 332.5Q649 403 649 473Q649 521 639.5 562.5Q630 604 606.5 635Q583 666 544 683.5Q505 701 446 701Q364 701 310 665.5Q256 630 224 574Q192 518 179 447.5Q166 377 166 307Q166 259 175.5 217.5Q185 176 208.5 145Q232 114 271 96.5Q310 79 369 79ZM358 -12Q280 -12 224 10Q168 32 132 72.5Q96 113 78.5 170.5Q61 228 61 300Q61 402 85 491.5Q109 581 158 647.5Q207 714 281.5 753Q356 792 457 792Q535 792 591 770.5Q647 749 683 708.5Q719 668 736.5 610Q754 552 754 480Q754 378 730 288.5Q706 199 657 132.5Q608 66 533.5 27Q459 -12 358 -12ZM532 1030 658 822H565L480 949L363 822H262L440 1030Z" glyph-name="Ocircumflex" horiz-adv-x="800" unicode="&#212;" /><glyph d="M369 79Q451 79 505 114.5Q559 150 591 206Q623 262 636 332.5Q649 403 649 473Q649 521 639.5 562.5Q630 604 606.5 635Q583 666 544 683.5Q505 701 446 701Q364 701 310 665.5Q256 630 224 574Q192 518 179 447.5Q166 377 166 307Q166 259 175.5 217.5Q185 176 208.5 145Q232 114 271 96.5Q310 79 369 79ZM358 -12Q280 -12 224 10Q168 32 132 72.5Q96 113 78.5 170.5Q61 228 61 300Q61 402 85 491.5Q109 581 158 647.5Q207 714 281.5 753Q356 792 457 792Q535 792 591 770.5Q647 749 683 708.5Q719 668 736.5 610Q754 552 754 480Q754 378 730 288.5Q706 199 657 132.5Q608 66 533.5 27Q459 -12 358 -12ZM422 869H310L324 980H436ZM622 869H510L524 980H636Z" glyph-name="Odieresis" horiz-adv-x="800" unicode="&#214;" /><glyph d="M369 79Q451 79 505 114.5Q559 150 591 206Q623 262 636 332.5Q649 403 649 473Q649 521 639.5 562.5Q630 604 606.5 635Q583 666 544 683.5Q505 701 446 701Q364 701 310 665.5Q256 630 224 574Q192 518 179 447.5Q166 377 166 307Q166 259 175.5 217.5Q185 176 208.5 145Q232 114 271 96.5Q310 79 369 79ZM358 -12Q280 -12 224 10Q168 32 132 72.5Q96 113 78.5 170.5Q61 228 61 300Q61 402 85 491.5Q109 581 158 647.5Q207 714 281.5 753Q356 792 457 792Q535 792 591 770.5Q647 749 683 708.5Q719 668 736.5 610Q754 552 754 480Q754 378 730 288.5Q706 199 657 132.5Q608 66 533.5 27Q459 -12 358 -12ZM446 1030 514 822H419L334 1030Z" glyph-name="Ograve" horiz-adv-x="800" unicode="&#210;" /><glyph d="M563 1030 426 822H331L451 1030ZM723 1030 586 822H491L611 1030ZM369 79Q451 79 505 114.5Q559 150 591 206Q623 262 636 332.5Q649 403 649 473Q649 521 639.5 562.5Q630 604 606.5 635Q583 666 544 683.5Q505 701 446 701Q364 701 310 665.5Q256 630 224 574Q192 518 179 447.5Q166 377 166 307Q166 259 175.5 217.5Q185 176 208.5 145Q232 114 271 96.5Q310 79 369 79ZM358 -12Q280 -12 224 10Q168 32 132 72.5Q96 113 78.5 170.5Q61 228 61 300Q61 402 85 491.5Q109 581 158 647.5Q207 714 281.5 753Q356 792 457 792Q535 792 591 770.5Q647 749 683 708.5Q719 668 736.5 610Q754 552 754 480Q754 378 730 288.5Q706 199 657 132.5Q608 66 533.5 27Q459 -12 358 -12Z" glyph-name="Ohungarumlaut" horiz-adv-x="800" unicode="&#336;" /><glyph d="M369 79Q451 79 505 114.5Q559 150 591 206Q623 262 636 332.5Q649 403 649 473Q649 521 639.5 562.5Q630 604 606.5 635Q583 666 544 683.5Q505 701 446 701Q364 701 310 665.5Q256 630 224 574Q192 518 179 447.5Q166 377 166 307Q166 259 175.5 217.5Q185 176 208.5 145Q232 114 271 96.5Q310 79 369 79ZM358 -12Q280 -12 224 10Q168 32 132 72.5Q96 113 78.5 170.5Q61 228 61 300Q61 402 85 491.5Q109 581 158 647.5Q207 714 281.5 753Q356 792 457 792Q535 792 591 770.5Q647 749 683 708.5Q719 668 736.5 610Q754 552 754 480Q754 378 730 288.5Q706 199 657 132.5Q608 66 533.5 27Q459 -12 358 -12ZM324 882 335 972H623L612 882Z" glyph-name="Omacron" horiz-adv-x="800" unicode="&#332;" /><glyph d="M753 481Q753 379 729 289.5Q705 200 656 133.5Q607 67 532.5 28Q458 -11 357 -11Q297 -11 251 2Q205 15 170 39L141 1H62L125 81Q92 121 76.5 176Q61 231 61 299Q61 401 85 490.5Q109 580 158 647Q207 714 281.5 753Q356 792 457 792Q517 792 563 779Q609 766 644 742L673 780H752L689 700Q722 660 737.5 604.5Q753 549 753 481ZM446 701Q365 701 311 665.5Q257 630 224.5 574Q192 518 179 447.5Q166 377 166 307Q166 267 172.5 231Q179 195 194 166L581 662Q557 681 524 691Q491 701 446 701ZM368 80Q449 80 503 115Q557 150 589.5 206.5Q622 263 635 333Q648 403 648 473Q648 513 641.5 549.5Q635 586 620 615L233 119Q257 100 290 90Q323 80 368 80Z" glyph-name="Oslash" horiz-adv-x="800" unicode="&#216;" /><glyph d="M645 1030 508 822H413L533 1030ZM753 481Q753 379 729 289.5Q705 200 656 133.5Q607 67 532.5 28Q458 -11 357 -11Q297 -11 251 2Q205 15 170 39L141 1H62L125 81Q92 121 76.5 176Q61 231 61 299Q61 401 85 490.5Q109 580 158 647Q207 714 281.5 753Q356 792 457 792Q517 792 563 779Q609 766 644 742L673 780H752L689 700Q722 660 737.5 604.5Q753 549 753 481ZM446 701Q365 701 311 665.5Q257 630 224.5 574Q192 518 179 447.5Q166 377 166 307Q166 267 172.5 231Q179 195 194 166L581 662Q557 681 524 691Q491 701 446 701ZM368 80Q449 80 503 115Q557 150 589.5 206.5Q622 263 635 333Q648 403 648 473Q648 513 641.5 549.5Q635 586 620 615L233 119Q257 100 290 90Q323 80 368 80Z" glyph-name="Oslashacute" horiz-adv-x="800" unicode="&#510;" /><glyph d="M369 79Q451 79 505 114.5Q559 150 591 206Q623 262 636 332.5Q649 403 649 473Q649 521 639.5 562.5Q630 604 606.5 635Q583 666 544 683.5Q505 701 446 701Q364 701 310 665.5Q256 630 224 574Q192 518 179 447.5Q166 377 166 307Q166 259 175.5 217.5Q185 176 208.5 145Q232 114 271 96.5Q310 79 369 79ZM358 -12Q280 -12 224 10Q168 32 132 72.5Q96 113 78.5 170.5Q61 228 61 300Q61 402 85 491.5Q109 581 158 647.5Q207 714 281.5 753Q356 792 457 792Q535 792 591 770.5Q647 749 683 708.5Q719 668 736.5 610Q754 552 754 480Q754 378 730 288.5Q706 199 657 132.5Q608 66 533.5 27Q459 -12 358 -12ZM407 1008Q440 1008 460.5 997Q481 986 496 972.5Q511 959 524.5 947.5Q538 936 557 936Q582 936 596 949.5Q610 963 615 982L691 971Q676 914 639.5 880Q603 846 539 846Q506 846 485.5 857.5Q465 869 450 882.5Q435 896 421.5 907Q408 918 389 918Q364 918 350 904.5Q336 891 331 872L255 883Q270 940 306.5 974Q343 1008 407 1008Z" glyph-name="Otilde" horiz-adv-x="800" unicode="&#213;" /><glyph d="M388 405Q411 405 438.5 410.5Q466 416 491 433.5Q516 451 532.5 485Q549 519 549 576Q549 613 537 635Q525 657 506.5 669Q488 681 466 684.5Q444 688 423 688H224L189 405ZM140 0H40L135 780H423Q466 780 507.5 771.5Q549 763 582 741.5Q615 720 635 683Q655 646 655 589Q655 506 628 452.5Q601 399 559 368Q517 337 466 325Q415 313 367 313H178Z" glyph-name="P" horiz-adv-x="658" unicode="P" /><glyph d="M754 481Q754 379 732.5 296.5Q711 214 672 153Q633 92 579 53Q525 14 459 -1V-2L563 -37L750 -104L737 -211L222 10Q140 45 100.5 117Q61 189 61 300Q61 402 85 491.5Q109 581 158 647.5Q207 714 281.5 753Q356 792 457 792Q535 792 591 770.5Q647 749 683 708.5Q719 668 736.5 610.5Q754 553 754 481ZM446 701Q364 701 310 665.5Q256 630 224 574Q192 518 179 447.5Q166 377 166 307Q166 259 175.5 217.5Q185 176 208.5 145Q232 114 271 96.5Q310 79 369 79Q450 79 504 113Q558 147 590 203Q622 259 635.5 330Q649 401 649 475Q649 523 639 564.5Q629 606 606 636Q583 666 544 683.5Q505 701 446 701Z" glyph-name="Q" horiz-adv-x="800" unicode="Q" /><glyph d="M140 0H40L135 780H447Q490 780 531.5 772.5Q573 765 605.5 744.5Q638 724 658 688Q678 652 678 595Q678 529 660.5 482.5Q643 436 615 405.5Q587 375 551 358.5Q515 342 477 335L640 0H522L371 327H180ZM413 419Q436 419 463.5 423Q491 427 515.5 443.5Q540 460 556.5 493Q573 526 573 583Q573 620 561 641Q549 662 530 672.5Q511 683 489 685.5Q467 688 446 688H224L191 419Z" glyph-name="R" horiz-adv-x="707" unicode="R" /><glyph d="M579 1030 442 822H347L467 1030ZM140 0H40L135 780H447Q490 780 531.5 772.5Q573 765 605.5 744.5Q638 724 658 688Q678 652 678 595Q678 529 660.5 482.5Q643 436 615 405.5Q587 375 551 358.5Q515 342 477 335L640 0H522L371 327H180ZM413 419Q436 419 463.5 423Q491 427 515.5 443.5Q540 460 556.5 493Q573 526 573 583Q573 620 561 641Q549 662 530 672.5Q511 683 489 685.5Q467 688 446 688H224L191 419Z" glyph-name="Racute" horiz-adv-x="707" unicode="&#340;" /><glyph d="M140 0H40L135 780H447Q490 780 531.5 772.5Q573 765 605.5 744.5Q638 724 658 688Q678 652 678 595Q678 529 660.5 482.5Q643 436 615 405.5Q587 375 551 358.5Q515 342 477 335L640 0H522L371 327H180ZM413 419Q436 419 463.5 423Q491 427 515.5 443.5Q540 460 556.5 493Q573 526 573 583Q573 620 561 641Q549 662 530 672.5Q511 683 489 685.5Q467 688 446 688H224L191 419ZM348 822 222 1030H315L400 903L517 1030H618L440 822Z" glyph-name="Rcaron" horiz-adv-x="707" unicode="&#344;" /><glyph d="M367 -62 304 -200H216L250 -62ZM140 0H40L135 780H447Q490 780 531.5 772.5Q573 765 605.5 744.5Q638 724 658 688Q678 652 678 595Q678 529 660.5 482.5Q643 436 615 405.5Q587 375 551 358.5Q515 342 477 335L640 0H522L371 327H180ZM413 419Q436 419 463.5 423Q491 427 515.5 443.5Q540 460 556.5 493Q573 526 573 583Q573 620 561 641Q549 662 530 672.5Q511 683 489 685.5Q467 688 446 688H224L191 419Z" glyph-name="Rcommaaccent" horiz-adv-x="707" unicode="&#342;" /><glyph d="M327 79Q365 79 403.5 88Q442 97 474 117Q506 137 526 169Q546 201 546 249Q546 275 536.5 294Q527 313 505.5 327Q484 341 448.5 349.5Q413 358 362 363Q314 368 268.5 377Q223 386 187.5 404.5Q152 423 131 454.5Q110 486 110 536Q110 602 135.5 650.5Q161 699 203.5 730.5Q246 762 300.5 777Q355 792 412 792Q482 792 531.5 778.5Q581 765 613.5 740Q646 715 663 680Q680 645 684 603L582 568Q580 639 537.5 670Q495 701 401 701Q376 701 343.5 695Q311 689 282 672Q253 655 232.5 625Q212 595 212 547Q212 526 219.5 511Q227 496 246 484.5Q265 473 296.5 465.5Q328 458 376 452Q439 446 489.5 436Q540 426 574.5 405.5Q609 385 627.5 352Q646 319 646 267Q646 194 617.5 141Q589 88 542.5 54Q496 20 437 4Q378 -12 316 -12Q244 -12 193.5 2Q143 16 110 41Q77 66 60.5 102Q44 138 40 181L142 216Q145 143 189 111Q233 79 327 79Z" glyph-name="S" horiz-adv-x="713" unicode="S" /><glyph d="M327 79Q365 79 403.5 88Q442 97 474 117Q506 137 526 169Q546 201 546 249Q546 275 536.5 294Q527 313 505.5 327Q484 341 448.5 349.5Q413 358 362 363Q314 368 268.5 377Q223 386 187.5 404.5Q152 423 131 454.5Q110 486 110 536Q110 602 135.5 650.5Q161 699 203.5 730.5Q246 762 300.5 777Q355 792 412 792Q482 792 531.5 778.5Q581 765 613.5 740Q646 715 663 680Q680 645 684 603L582 568Q580 639 537.5 670Q495 701 401 701Q376 701 343.5 695Q311 689 282 672Q253 655 232.5 625Q212 595 212 547Q212 526 219.5 511Q227 496 246 484.5Q265 473 296.5 465.5Q328 458 376 452Q439 446 489.5 436Q540 426 574.5 405.5Q609 385 627.5 352Q646 319 646 267Q646 194 617.5 141Q589 88 542.5 54Q496 20 437 4Q378 -12 316 -12Q244 -12 193.5 2Q143 16 110 41Q77 66 60.5 102Q44 138 40 181L142 216Q145 143 189 111Q233 79 327 79ZM603 1030 466 822H371L491 1030Z" glyph-name="Sacute" horiz-adv-x="713" unicode="&#346;" /><glyph d="M327 79Q365 79 403.5 88Q442 97 474 117Q506 137 526 169Q546 201 546 249Q546 275 536.5 294Q527 313 505.5 327Q484 341 448.5 349.5Q413 358 362 363Q314 368 268.5 377Q223 386 187.5 404.5Q152 423 131 454.5Q110 486 110 536Q110 602 135.5 650.5Q161 699 203.5 730.5Q246 762 300.5 777Q355 792 412 792Q482 792 531.5 778.5Q581 765 613.5 740Q646 715 663 680Q680 645 684 603L582 568Q580 639 537.5 670Q495 701 401 701Q376 701 343.5 695Q311 689 282 672Q253 655 232.5 625Q212 595 212 547Q212 526 219.5 511Q227 496 246 484.5Q265 473 296.5 465.5Q328 458 376 452Q439 446 489.5 436Q540 426 574.5 405.5Q609 385 627.5 352Q646 319 646 267Q646 194 617.5 141Q589 88 542.5 54Q496 20 437 4Q378 -12 316 -12Q244 -12 193.5 2Q143 16 110 41Q77 66 60.5 102Q44 138 40 181L142 216Q145 143 189 111Q233 79 327 79ZM372 822 246 1030H339L424 903L541 1030H642L464 822Z" glyph-name="Scaron" horiz-adv-x="713" unicode="&#352;" /><glyph d="M327 79Q365 79 403.5 88Q442 97 474 117Q506 137 526 169Q546 201 546 249Q546 275 536.5 294Q527 313 505.5 327Q484 341 448.5 349.5Q413 358 362 363Q314 368 268.5 377Q223 386 187.5 404.5Q152 423 131 454.5Q110 486 110 536Q110 602 135.5 650.5Q161 699 203.5 730.5Q246 762 300.5 777Q355 792 412 792Q482 792 531.5 778.5Q581 765 613.5 740Q646 715 663 680Q680 645 684 603L582 568Q580 639 537.5 670Q495 701 401 701Q376 701 343.5 695Q311 689 282 672Q253 655 232.5 625Q212 595 212 547Q212 526 219.5 511Q227 496 246 484.5Q265 473 296.5 465.5Q328 458 376 452Q439 446 489.5 436Q540 426 574.5 405.5Q609 385 627.5 352Q646 319 646 267Q646 198 620.5 147Q595 96 553 62.5Q511 29 457 11Q403 -7 345 -11L335 -35Q367 -43 390.5 -61Q414 -79 414 -114Q414 -140 403 -158.5Q392 -177 373.5 -189Q355 -201 331 -206.5Q307 -212 280 -212Q248 -212 224.5 -205.5Q201 -199 191 -194L214 -141Q221 -144 230 -148Q238 -151 247 -153Q256 -155 267 -155Q276 -155 286.5 -154Q297 -153 306 -149Q315 -145 321 -138.5Q327 -132 327 -121Q327 -100 304 -90Q281 -80 246 -76L277 -10Q216 -6 172.5 9Q129 24 101 49Q73 74 58.5 107.5Q44 141 40 181L142 216Q145 143 189 111Q233 79 327 79Z" glyph-name="Scedilla" horiz-adv-x="713" unicode="&#350;" /><glyph d="M327 79Q365 79 403.5 88Q442 97 474 117Q506 137 526 169Q546 201 546 249Q546 275 536.5 294Q527 313 505.5 327Q484 341 448.5 349.5Q413 358 362 363Q314 368 268.5 377Q223 386 187.5 404.5Q152 423 131 454.5Q110 486 110 536Q110 602 135.5 650.5Q161 699 203.5 730.5Q246 762 300.5 777Q355 792 412 792Q482 792 531.5 778.5Q581 765 613.5 740Q646 715 663 680Q680 645 684 603L582 568Q580 639 537.5 670Q495 701 401 701Q376 701 343.5 695Q311 689 282 672Q253 655 232.5 625Q212 595 212 547Q212 526 219.5 511Q227 496 246 484.5Q265 473 296.5 465.5Q328 458 376 452Q439 446 489.5 436Q540 426 574.5 405.5Q609 385 627.5 352Q646 319 646 267Q646 194 617.5 141Q589 88 542.5 54Q496 20 437 4Q378 -12 316 -12Q244 -12 193.5 2Q143 16 110 41Q77 66 60.5 102Q44 138 40 181L142 216Q145 143 189 111Q233 79 327 79ZM490 1030 616 822H523L438 949L321 822H220L398 1030Z" glyph-name="Scircumflex" horiz-adv-x="713" unicode="&#348;" /><glyph d="M367 -62 304 -200H216L250 -62ZM327 79Q365 79 403.5 88Q442 97 474 117Q506 137 526 169Q546 201 546 249Q546 275 536.5 294Q527 313 505.5 327Q484 341 448.5 349.5Q413 358 362 363Q314 368 268.5 377Q223 386 187.5 404.5Q152 423 131 454.5Q110 486 110 536Q110 602 135.5 650.5Q161 699 203.5 730.5Q246 762 300.5 777Q355 792 412 792Q482 792 531.5 778.5Q581 765 613.5 740Q646 715 663 680Q680 645 684 603L582 568Q580 639 537.5 670Q495 701 401 701Q376 701 343.5 695Q311 689 282 672Q253 655 232.5 625Q212 595 212 547Q212 526 219.5 511Q227 496 246 484.5Q265 473 296.5 465.5Q328 458 376 452Q439 446 489.5 436Q540 426 574.5 405.5Q609 385 627.5 352Q646 319 646 267Q646 194 617.5 141Q589 88 542.5 54Q496 20 437 4Q378 -12 316 -12Q244 -12 193.5 2Q143 16 110 41Q77 66 60.5 102Q44 138 40 181L142 216Q145 143 189 111Q233 79 327 79Z" glyph-name="Scommaaccent" horiz-adv-x="713" unicode="&#536;" /><glyph d="M321 0H221L305 688H64L75 780H657L646 688H405Z" glyph-name="T" horiz-adv-x="622" unicode="T" /><glyph d="M375 441H490L480 359H365L321 0H221L265 359H150L160 441H275L305 688H64L75 780H657L646 688H405Z" glyph-name="Tbar" horiz-adv-x="622" unicode="&#358;" /><glyph d="M320 0H220L304 688H64L75 780H656L645 688H404ZM325 822 199 1030H292L377 903L494 1030H595L417 822Z" glyph-name="Tcaron" horiz-adv-x="622" unicode="&#356;" /><glyph d="M321 0H221L305 688H64L75 780H657L646 688H405ZM324 -62 261 -200H173L207 -62Z" glyph-name="Tcommaaccent" horiz-adv-x="622" unicode="&#354;" /><glyph d="M635 433Q635 356 610 303Q585 250 544 217.5Q503 185 452 170.5Q401 156 348 156H159L140 0H40L135 780H235L216 624H405Q448 624 489.5 615.5Q531 607 563 585Q595 563 615 526.5Q635 490 635 433ZM170 248H369Q392 248 420 253.5Q448 259 472 277Q496 295 512.5 329Q529 363 529 421Q529 458 517 480Q505 502 487 513.5Q469 525 447 528.5Q425 532 404 532H205Z" glyph-name="Thorn" horiz-adv-x="660" unicode="&#222;" /><glyph d="M347 -12Q257 -12 199.5 10.5Q142 33 110.5 72.5Q79 112 70.5 165.5Q62 219 69 282L130 780H232L171 281Q166 239 169.5 202Q173 165 193 138Q213 111 252.5 95Q292 79 358 79Q424 79 467.5 95Q511 111 537.5 138Q564 165 577 202Q590 239 595 281L656 780H758L697 282Q690 219 667.5 165.5Q645 112 604 72.5Q563 33 500 10.5Q437 -12 347 -12Z" glyph-name="U" horiz-adv-x="772" unicode="U" /><glyph d="M347 -12Q257 -12 199.5 10.5Q142 33 110.5 72.5Q79 112 70.5 165.5Q62 219 69 282L130 780H232L171 281Q166 239 169.5 202Q173 165 193 138Q213 111 252.5 95Q292 79 358 79Q424 79 467.5 95Q511 111 537.5 138Q564 165 577 202Q590 239 595 281L656 780H758L697 282Q690 219 667.5 165.5Q645 112 604 72.5Q563 33 500 10.5Q437 -12 347 -12ZM634 1030 497 822H402L522 1030Z" glyph-name="Uacute" horiz-adv-x="772" unicode="&#218;" /><glyph d="M347 -12Q257 -12 199.5 10.5Q142 33 110.5 72.5Q79 112 70.5 165.5Q62 219 69 282L130 780H232L171 281Q166 239 169.5 202Q173 165 193 138Q213 111 252.5 95Q292 79 358 79Q424 79 467.5 95Q511 111 537.5 138Q564 165 577 202Q590 239 595 281L656 780H758L697 282Q690 219 667.5 165.5Q645 112 604 72.5Q563 33 500 10.5Q437 -12 347 -12ZM450 825Q397 825 362.5 839Q328 853 309.5 879Q291 905 286.5 943Q282 981 288 1030H364Q355 963 377.5 936Q400 909 458 909Q516 909 545 936Q574 963 582 1030H662Q656 981 642.5 943Q629 905 604 879Q579 853 541 839Q503 825 450 825Z" glyph-name="Ubreve" horiz-adv-x="772" unicode="&#364;" /><glyph d="M347 -12Q257 -12 199.5 10.5Q142 33 110.5 72.5Q79 112 70.5 165.5Q62 219 69 282L130 780H232L171 281Q166 239 169.5 202Q173 165 193 138Q213 111 252.5 95Q292 79 358 79Q424 79 467.5 95Q511 111 537.5 138Q564 165 577 202Q590 239 595 281L656 780H758L697 282Q690 219 667.5 165.5Q645 112 604 72.5Q563 33 500 10.5Q437 -12 347 -12ZM521 1030 647 822H554L469 949L352 822H251L429 1030Z" glyph-name="Ucircumflex" horiz-adv-x="772" unicode="&#219;" /><glyph d="M347 -12Q257 -12 199.5 10.5Q142 33 110.5 72.5Q79 112 70.5 165.5Q62 219 69 282L130 780H232L171 281Q166 239 169.5 202Q173 165 193 138Q213 111 252.5 95Q292 79 358 79Q424 79 467.5 95Q511 111 537.5 138Q564 165 577 202Q590 239 595 281L656 780H758L697 282Q690 219 667.5 165.5Q645 112 604 72.5Q563 33 500 10.5Q437 -12 347 -12ZM411 869H299L313 980H425ZM611 869H499L513 980H625Z" glyph-name="Udieresis" horiz-adv-x="772" unicode="&#220;" /><glyph d="M347 -12Q257 -12 199.5 10.5Q142 33 110.5 72.5Q79 112 70.5 165.5Q62 219 69 282L130 780H232L171 281Q166 239 169.5 202Q173 165 193 138Q213 111 252.5 95Q292 79 358 79Q424 79 467.5 95Q511 111 537.5 138Q564 165 577 202Q590 239 595 281L656 780H758L697 282Q690 219 667.5 165.5Q645 112 604 72.5Q563 33 500 10.5Q437 -12 347 -12ZM435 1030 503 822H408L323 1030Z" glyph-name="Ugrave" horiz-adv-x="772" unicode="&#217;" /><glyph d="M347 -12Q257 -12 199.5 10.5Q142 33 110.5 72.5Q79 112 70.5 165.5Q62 219 69 282L130 780H232L171 281Q166 239 169.5 202Q173 165 193 138Q213 111 252.5 95Q292 79 358 79Q424 79 467.5 95Q511 111 537.5 138Q564 165 577 202Q590 239 595 281L656 780H758L697 282Q690 219 667.5 165.5Q645 112 604 72.5Q563 33 500 10.5Q437 -12 347 -12ZM552 1030 415 822H320L440 1030ZM712 1030 575 822H480L600 1030Z" glyph-name="Uhungarumlaut" horiz-adv-x="772" unicode="&#368;" /><glyph d="M347 -12Q257 -12 199.5 10.5Q142 33 110.5 72.5Q79 112 70.5 165.5Q62 219 69 282L130 780H232L171 281Q166 239 169.5 202Q173 165 193 138Q213 111 252.5 95Q292 79 358 79Q424 79 467.5 95Q511 111 537.5 138Q564 165 577 202Q590 239 595 281L656 780H758L697 282Q690 219 667.5 165.5Q645 112 604 72.5Q563 33 500 10.5Q437 -12 347 -12ZM313 882 324 972H612L601 882Z" glyph-name="Umacron" horiz-adv-x="772" unicode="&#362;" /><glyph d="M322 -11Q240 -8 187.5 15.5Q135 39 106 78Q77 117 69.5 169.5Q62 222 69 282L130 780H232L171 281Q166 239 169.5 202Q173 165 193 138Q213 111 252.5 95Q292 79 358 79Q424 79 467.5 95Q511 111 537.5 138Q564 165 577 202Q590 239 595 281L656 780H758L697 282Q691 230 675 184Q659 138 630.5 101.5Q602 65 560 38.5Q518 12 459 -1Q434 -6 413.5 -18Q393 -30 378.5 -45Q364 -60 356 -76.5Q348 -93 348 -106Q348 -121 357.5 -130Q367 -139 389 -139Q400 -139 412.5 -136.5Q425 -134 436 -130.5Q447 -127 454 -124Q461 -121 461 -120L475 -187Q458 -197 430.5 -204.5Q403 -212 369 -212Q348 -212 329 -207.5Q310 -203 295.5 -192.5Q281 -182 272.5 -165.5Q264 -149 264 -125Q264 -93 279 -64Q294 -35 322 -11Z" glyph-name="Uogonek" horiz-adv-x="772" unicode="&#370;" /><glyph d="M347 -12Q257 -12 199.5 10.5Q142 33 110.5 72.5Q79 112 70.5 165.5Q62 219 69 282L130 780H232L171 281Q166 239 169.5 202Q173 165 193 138Q213 111 252.5 95Q292 79 358 79Q424 79 467.5 95Q511 111 537.5 138Q564 165 577 202Q590 239 595 281L656 780H758L697 282Q690 219 667.5 165.5Q645 112 604 72.5Q563 33 500 10.5Q437 -12 347 -12ZM456 878Q479 878 494 893.5Q509 909 509 934Q509 974 468 974Q445 974 430 958.5Q415 943 415 918Q415 878 456 878ZM448 810Q398 810 371.5 837.5Q345 865 345 909Q345 937 354.5 961Q364 985 381 1003Q398 1021 422 1031.5Q446 1042 476 1042Q526 1042 552.5 1014.5Q579 987 579 943Q579 915 569.5 891Q560 867 543 849Q526 831 502 820.5Q478 810 448 810Z" glyph-name="Uring" horiz-adv-x="772" unicode="&#366;" /><glyph d="M347 -12Q257 -12 199.5 10.5Q142 33 110.5 72.5Q79 112 70.5 165.5Q62 219 69 282L130 780H232L171 281Q166 239 169.5 202Q173 165 193 138Q213 111 252.5 95Q292 79 358 79Q424 79 467.5 95Q511 111 537.5 138Q564 165 577 202Q590 239 595 281L656 780H758L697 282Q690 219 667.5 165.5Q645 112 604 72.5Q563 33 500 10.5Q437 -12 347 -12ZM396 1008Q429 1008 449.5 997Q470 986 485 972.5Q500 959 513.5 947.5Q527 936 546 936Q571 936 585 949.5Q599 963 604 982L680 971Q665 914 628.5 880Q592 846 528 846Q495 846 474.5 857.5Q454 869 439 882.5Q424 896 410.5 907Q397 918 378 918Q353 918 339 904.5Q325 891 320 872L244 883Q259 940 295.5 974Q332 1008 396 1008Z" glyph-name="Utilde" horiz-adv-x="772" unicode="&#360;" /><glyph d="M370 -12H272L69 780H173L293 289L333 114L417 289L657 780H768Z" glyph-name="V" horiz-adv-x="727" unicode="V" /><glyph d="M516 642 455 496 234 -12H149L81 780H182L212 320L221 163L283 320L484 780H578L663 320L691 163L734 320L879 780H983L721 -12H636L539 496Z" glyph-name="W" horiz-adv-x="954" unicode="W" /><glyph d="M722 1030 585 822H490L610 1030ZM516 642 455 496 234 -12H149L81 780H182L212 320L221 163L283 320L484 780H578L663 320L691 163L734 320L879 780H983L721 -12H636L539 496Z" glyph-name="Wacute" horiz-adv-x="954" unicode="&#7810;" /><glyph d="M516 642 455 496 234 -12H149L81 780H182L212 320L221 163L283 320L484 780H578L663 320L691 163L734 320L879 780H983L721 -12H636L539 496ZM609 1030 735 822H642L557 949L440 822H339L517 1030Z" glyph-name="Wcircumflex" horiz-adv-x="954" unicode="&#372;" /><glyph d="M699 869H587L601 980H713ZM499 869H387L401 980H513ZM516 642 455 496 234 -12H149L81 780H182L212 320L221 163L283 320L484 780H578L663 320L691 163L734 320L879 780H983L721 -12H636L539 496Z" glyph-name="Wdieresis" horiz-adv-x="954" unicode="&#7812;" /><glyph d="M513 1030 581 822H486L401 1030ZM516 642 455 496 234 -12H149L81 780H182L212 320L221 163L283 320L484 780H578L663 320L691 163L734 320L879 780H983L721 -12H636L539 496Z" glyph-name="Wgrave" horiz-adv-x="954" unicode="&#7808;" /><glyph d="M378 481 482 615 610 780H731L426 402L654 0H535L434 190L362 321L260 190L113 0H-12L314 402L101 780H216L304 615Z" glyph-name="X" horiz-adv-x="722" unicode="X" /><glyph d="M371 410 478 551 655 780H773L414 324L375 0H275L314 324L67 780H179L300 551Z" glyph-name="Y" horiz-adv-x="730" unicode="Y" /><glyph d="M610 1030 473 822H378L498 1030ZM371 410 478 551 655 780H773L414 324L375 0H275L314 324L67 780H179L300 551Z" glyph-name="Yacute" horiz-adv-x="730" unicode="&#221;" /><glyph d="M371 410 478 551 655 780H773L414 324L375 0H275L314 324L67 780H179L300 551ZM289 882 300 972H588L577 882Z" glyph-name="Ycircumflex" horiz-adv-x="730" unicode="&#374;" /><glyph d="M587 869H475L489 980H601ZM387 869H275L289 980H401ZM371 410 478 551 655 780H773L414 324L375 0H275L314 324L67 780H179L300 551Z" glyph-name="Ydieresis" horiz-adv-x="730" unicode="&#376;" /><glyph d="M411 1030 479 822H384L299 1030ZM371 410 478 551 655 780H773L414 324L375 0H275L314 324L67 780H179L300 551Z" glyph-name="Ygrave" horiz-adv-x="730" unicode="&#7922;" /><glyph d="M13 83 562 689 330 688H106L117 780H700L690 697L141 91L374 92H616L605 0H3Z" glyph-name="Z" horiz-adv-x="688" unicode="Z" /><glyph d="M584 1030 447 822H352L472 1030ZM13 83 562 689 330 688H106L117 780H700L690 697L141 91L374 92H616L605 0H3Z" glyph-name="Zacute" horiz-adv-x="688" unicode="&#377;" /><glyph d="M13 83 562 689 330 688H106L117 780H700L690 697L141 91L374 92H616L605 0H3ZM353 822 227 1030H320L405 903L522 1030H623L445 822Z" glyph-name="Zcaron" horiz-adv-x="688" unicode="&#381;" /><glyph d="M461 869H349L363 980H475ZM13 83 562 689 330 688H106L117 780H700L690 697L141 91L374 92H616L605 0H3Z" glyph-name="Zdotaccent" horiz-adv-x="688" unicode="&#379;" /><glyph d="M451 328Q451 350 441 372Q431 394 413 412Q395 430 368.5 441.5Q342 453 307 453Q271 453 239 438Q207 423 183 394Q159 365 145.5 322.5Q132 280 132 224Q132 152 166.5 114.5Q201 77 261 77Q296 77 325 88.5Q354 100 376.5 118Q399 136 414 158Q429 180 435 202ZM522 132 513 0H426L423 76Q393 35 344.5 11.5Q296 -12 241 -12Q138 -12 85 44Q32 100 32 206Q32 286 52 348.5Q72 411 108.5 454Q145 497 196 519.5Q247 542 309 542Q364 542 406.5 518.5Q449 495 469 454L491 530H578L554 398Z" glyph-name="a" horiz-adv-x="616" unicode="a" /><glyph d="M451 328Q451 350 441 372Q431 394 413 412Q395 430 368.5 441.5Q342 453 307 453Q271 453 239 438Q207 423 183 394Q159 365 145.5 322.5Q132 280 132 224Q132 152 166.5 114.5Q201 77 261 77Q296 77 325 88.5Q354 100 376.5 118Q399 136 414 158Q429 180 435 202ZM522 132 513 0H426L423 76Q393 35 344.5 11.5Q296 -12 241 -12Q138 -12 85 44Q32 100 32 206Q32 286 52 348.5Q72 411 108.5 454Q145 497 196 519.5Q247 542 309 542Q364 542 406.5 518.5Q449 495 469 454L491 530H578L554 398ZM510 800 373 592H278L398 800Z" glyph-name="aacute" horiz-adv-x="616" unicode="&#225;" /><glyph d="M451 328Q451 350 441 372Q431 394 413 412Q395 430 368.5 441.5Q342 453 307 453Q271 453 239 438Q207 423 183 394Q159 365 145.5 322.5Q132 280 132 224Q132 152 166.5 114.5Q201 77 261 77Q296 77 325 88.5Q354 100 376.5 118Q399 136 414 158Q429 180 435 202ZM522 132 513 0H426L423 76Q393 35 344.5 11.5Q296 -12 241 -12Q138 -12 85 44Q32 100 32 206Q32 286 52 348.5Q72 411 108.5 454Q145 497 196 519.5Q247 542 309 542Q364 542 406.5 518.5Q449 495 469 454L491 530H578L554 398ZM326 595Q273 595 238.5 609Q204 623 185.5 649Q167 675 162.5 713Q158 751 164 800H240Q231 733 253.5 706Q276 679 334 679Q392 679 421 706Q450 733 458 800H538Q532 751 518.5 713Q505 675 480 649Q455 623 417 609Q379 595 326 595Z" glyph-name="abreve" horiz-adv-x="616" unicode="&#259;" /><glyph d="M451 328Q451 350 441 372Q431 394 413 412Q395 430 368.5 441.5Q342 453 307 453Q271 453 239 438Q207 423 183 394Q159 365 145.5 322.5Q132 280 132 224Q132 152 166.5 114.5Q201 77 261 77Q296 77 325 88.5Q354 100 376.5 118Q399 136 414 158Q429 180 435 202ZM522 132 513 0H426L423 76Q393 35 344.5 11.5Q296 -12 241 -12Q138 -12 85 44Q32 100 32 206Q32 286 52 348.5Q72 411 108.5 454Q145 497 196 519.5Q247 542 309 542Q364 542 406.5 518.5Q449 495 469 454L491 530H578L554 398ZM397 800 523 592H430L345 719L228 592H127L305 800Z" glyph-name="acircumflex" horiz-adv-x="616" unicode="&#226;" /><glyph d="M517 800 380 592H285L405 800Z" glyph-name="acute" horiz-adv-x="600" unicode="&#180;" /><glyph d="M287 639H175L189 750H301ZM487 639H375L389 750H501ZM451 328Q451 350 441 372Q431 394 413 412Q395 430 368.5 441.5Q342 453 307 453Q271 453 239 438Q207 423 183 394Q159 365 145.5 322.5Q132 280 132 224Q132 152 166.5 114.5Q201 77 261 77Q296 77 325 88.5Q354 100 376.5 118Q399 136 414 158Q429 180 435 202ZM522 132 513 0H426L423 76Q393 35 344.5 11.5Q296 -12 241 -12Q138 -12 85 44Q32 100 32 206Q32 286 52 348.5Q72 411 108.5 454Q145 497 196 519.5Q247 542 309 542Q364 542 406.5 518.5Q449 495 469 454L491 530H578L554 398Z" glyph-name="adieresis" horiz-adv-x="616" unicode="&#228;" /><glyph d="M635 -12Q563 -12 513 14.5Q463 41 439 95Q387 32 324 10Q261 -12 194 -12Q103 -12 61.5 23.5Q20 59 20 121Q20 170 39 205Q58 240 91 262.5Q124 285 168 296Q212 307 262 307H419L425 352Q433 406 402 432.5Q371 459 305 459Q274 459 251.5 453Q229 447 213 436Q197 425 187 408Q177 391 170 369L78 400Q89 431 107 457Q125 483 153 502Q181 521 220 531.5Q259 542 313 542Q455 542 496 457Q533 499 585 520.5Q637 542 700 542Q806 542 857 487Q908 432 908 329Q908 314 906.5 286Q905 258 899 226H509Q504 148 540.5 110Q577 72 644 72Q709 72 741 94Q773 116 787 156L879 124Q869 96 849 71Q829 46 799 27.5Q769 9 728.5 -1.5Q688 -12 635 -12ZM691 459Q626 459 580.5 422.5Q535 386 520 307H806Q815 375 787.5 417Q760 459 691 459ZM254 226Q226 226 202 221.5Q178 217 160.5 206.5Q143 196 133.5 178Q124 160 124 134Q124 72 211 72Q250 72 283.5 84Q317 96 342.5 114.5Q368 133 384.5 156Q401 179 406 201L409 226H254Z" glyph-name="ae" horiz-adv-x="960" unicode="&#230;" /><glyph d="M695 800 558 592H463L583 800ZM635 -12Q563 -12 513 14.5Q463 41 439 95Q387 32 324 10Q261 -12 194 -12Q103 -12 61.5 23.5Q20 59 20 121Q20 170 39 205Q58 240 91 262.5Q124 285 168 296Q212 307 262 307H419L425 352Q433 406 402 432.5Q371 459 305 459Q274 459 251.5 453Q229 447 213 436Q197 425 187 408Q177 391 170 369L78 400Q89 431 107 457Q125 483 153 502Q181 521 220 531.5Q259 542 313 542Q455 542 496 457Q533 499 585 520.5Q637 542 700 542Q806 542 857 487Q908 432 908 329Q908 314 906.5 286Q905 258 899 226H509Q504 148 540.5 110Q577 72 644 72Q709 72 741 94Q773 116 787 156L879 124Q869 96 849 71Q829 46 799 27.5Q769 9 728.5 -1.5Q688 -12 635 -12ZM691 459Q626 459 580.5 422.5Q535 386 520 307H806Q815 375 787.5 417Q760 459 691 459ZM254 226Q226 226 202 221.5Q178 217 160.5 206.5Q143 196 133.5 178Q124 160 124 134Q124 72 211 72Q250 72 283.5 84Q317 96 342.5 114.5Q368 133 384.5 156Q401 179 406 201L409 226H254Z" glyph-name="aeacute" horiz-adv-x="960" unicode="&#509;" /><glyph d="M1345 290H45L56 380H1356Z" glyph-name="afii00208" horiz-adv-x="1400" unicode="&#8213;" /><glyph d="M371 791H469L673 0H567L511 225H193L83 0H-27ZM406 664 236 313H490Z" glyph-name="afii10017" horiz-adv-x="726" unicode="&#1040;" /><glyph d="M194 441H421Q459 441 497.5 433Q536 425 567 404Q598 383 618 346.5Q638 310 638 253Q638 174 614.5 125Q591 76 553 48Q515 20 467 10Q419 0 370 0H40L135 780H631L620 688H224ZM151 92H375Q398 92 425.5 95.5Q453 99 476.5 113.5Q500 128 516 156.5Q532 185 532 236Q532 276 521 298.5Q510 321 492.5 332.5Q475 344 453 346.5Q431 349 410 349H182Z" glyph-name="afii10018" horiz-adv-x="696" unicode="&#1041;" /><glyph d="M40 0 135 780H451Q484 780 519.5 773Q555 766 585 747.5Q615 729 634 695.5Q653 662 653 609Q653 563 642 528Q631 493 613.5 468.5Q596 444 575.5 428.5Q555 413 537 407Q579 397 608 359.5Q637 322 637 256Q637 181 613.5 132Q590 83 551 53.5Q512 24 462.5 12Q413 0 362 0ZM365 92Q388 92 417 95.5Q446 99 471.5 114Q497 129 515 160.5Q533 192 533 247Q533 283 521 304.5Q509 326 489.5 337Q470 348 447 351Q424 354 401 354H183L151 92ZM224 688 194 445H400Q430 445 457 451.5Q484 458 504.5 475Q525 492 536.5 522Q548 552 548 598Q548 626 539.5 643.5Q531 661 515.5 671Q500 681 478.5 684.5Q457 688 430 688Z" glyph-name="afii10019" horiz-adv-x="699" unicode="&#1042;" /><glyph d="M140 0H40L135 780H631L620 688H224Z" glyph-name="afii10020" horiz-adv-x="589" unicode="&#1043;" /><glyph d="M646 92H732L701 -160H602L622 0H93L73 -160H-27L4 92H21Q64 92 97.5 115.5Q131 139 160 188.5Q189 238 214.5 313.5Q240 389 266 493L338 780H730ZM369 488Q350 416 331.5 354.5Q313 293 292 243Q271 193 246.5 155.5Q222 118 192 92H546L619 688H421Z" glyph-name="afii10021" horiz-adv-x="804" unicode="&#1044;" /><glyph d="M672 780 661 688H224L194 445H588L577 354H183L151 92H608L597 0H40L135 780Z" glyph-name="afii10022" horiz-adv-x="693" unicode="&#1045;" /><glyph d="M672 780 661 688H224L194 445H588L577 354H183L151 92H608L597 0H40L135 780ZM369 869H257L271 980H383ZM569 869H457L471 980H583Z" glyph-name="afii10023" horiz-adv-x="693" unicode="&#1025;" /><glyph d="M824 488Q807 464 785 440Q763 416 731 400Q760 385 778 360.5Q796 336 807 311L948 0H825L705 281Q689 317 668.5 335.5Q648 354 607 354H559L516 0H416L459 354H411Q370 354 345 335.5Q320 317 295 281L107 0H-16L201 311Q218 336 241 360.5Q264 385 298 400Q270 416 253.5 440Q237 464 226 488L94 780H217L328 519Q344 482 364.5 464Q385 446 426 446H470L511 780H611L570 446H614Q655 446 680 464Q705 482 730 519L905 780H1028Z" glyph-name="afii10024" horiz-adv-x="1012" unicode="&#1046;" /><glyph d="M629 240Q629 174 603.5 126.5Q578 79 533 48.5Q488 18 427 3Q366 -12 294 -12Q227 -12 177.5 2Q128 16 95 41Q62 66 44.5 101Q27 136 24 178L125 213Q125 142 166 109.5Q207 77 298 77Q408 77 469 114.5Q530 152 530 233Q530 275 514 299Q498 323 472 334.5Q446 346 414 349Q382 352 349 352H240L251 443H360Q394 443 427 447Q460 451 486.5 465Q513 479 529 505.5Q545 532 545 578Q545 644 501 671Q457 698 388 698Q294 698 245.5 668.5Q197 639 179 567L86 599Q100 641 123.5 676Q147 711 183 735.5Q219 760 269.5 773.5Q320 787 387 787Q439 787 486 776.5Q533 766 568 742.5Q603 719 624 681.5Q645 644 645 590Q645 545 632.5 512.5Q620 480 599.5 457.5Q579 435 553 422Q527 409 501 403Q523 399 546 386.5Q569 374 587.5 353.5Q606 333 617.5 304.5Q629 276 629 240Z" glyph-name="afii10025" horiz-adv-x="687" unicode="&#1047;" /><glyph d="M508 473 135 0H40L135 780H236L191 409L159 172L261 307L635 780H730L635 0H534L579 371L611 608Z" glyph-name="afii10026" horiz-adv-x="755" unicode="&#1048;" /><glyph d="M508 473 135 0H40L135 780H236L191 409L159 172L261 307L635 780H730L635 0H534L579 371L611 608ZM650 1030Q644 981 630.5 943Q617 905 592 879Q567 853 529 839Q491 825 438 825Q385 825 351 839Q317 853 298 879Q279 905 274.5 943Q270 981 276 1030H354Q346 963 368 936Q390 909 448 909Q506 909 535.5 936Q565 963 573 1030Z" glyph-name="afii10027" horiz-adv-x="755" unicode="&#1049;" /><glyph d="M521 488Q503 464 480 439.5Q457 415 425 400Q455 384 473 360Q491 336 503 311L655 0H531L403 281Q386 317 365.5 335.5Q345 354 303 354H183L140 0H40L135 780H235L194 446H311Q352 446 377.5 464Q403 482 428 519L611 780H735Z" glyph-name="afii10028" horiz-adv-x="719" unicode="&#1050;" /><glyph d="M623 0H523L607 688H408L356 488Q324 366 291 274.5Q258 183 217 122Q176 61 123.5 30.5Q71 0 1 0H-12L-2 92H8Q52 92 85.5 115.5Q119 139 147.5 188Q176 237 201.5 313Q227 389 254 493L327 780H718Z" glyph-name="afii10029" horiz-adv-x="743" unicode="&#1051;" /><glyph d="M373 0 239 455 206 584 172 285 138 0H40L135 780H241L385 288L428 124L511 288L775 780H885L790 0H692L726 285L766 584L701 455L457 0Z" glyph-name="afii10030" horiz-adv-x="910" unicode="&#1052;" /><glyph d="M725 780 630 0H530L573 354H183L140 0H40L135 780H235L194 445H584L625 780Z" glyph-name="afii10031" horiz-adv-x="750" unicode="&#1053;" /><glyph d="M369 79Q451 79 505 114.5Q559 150 591 206Q623 262 636 332.5Q649 403 649 473Q649 521 639.5 562.5Q630 604 606.5 635Q583 666 544 683.5Q505 701 446 701Q364 701 310 665.5Q256 630 224 574Q192 518 179 447.5Q166 377 166 307Q166 259 175.5 217.5Q185 176 208.5 145Q232 114 271 96.5Q310 79 369 79ZM358 -12Q280 -12 224 10Q168 32 132 72.5Q96 113 78.5 170.5Q61 228 61 300Q61 402 85 491.5Q109 581 158 647.5Q207 714 281.5 753Q356 792 457 792Q535 792 591 770.5Q647 749 683 708.5Q719 668 736.5 610Q754 552 754 480Q754 378 730 288.5Q706 199 657 132.5Q608 66 533.5 27Q459 -12 358 -12Z" glyph-name="afii10032" horiz-adv-x="800" unicode="&#1054;" /><glyph d="M725 780 630 0H530L614 689H224L140 0H40L135 780Z" glyph-name="afii10033" horiz-adv-x="750" unicode="&#1055;" /><glyph d="M388 405Q411 405 438.5 410.5Q466 416 491 433.5Q516 451 532.5 485Q549 519 549 576Q549 613 537 635Q525 657 506.5 669Q488 681 466 684.5Q444 688 423 688H224L189 405ZM140 0H40L135 780H423Q466 780 507.5 771.5Q549 763 582 741.5Q615 720 635 683Q655 646 655 589Q655 506 628 452.5Q601 399 559 368Q517 337 466 325Q415 313 367 313H178Z" glyph-name="afii10034" horiz-adv-x="658" unicode="&#1056;" /><glyph d="M61 300Q61 402 85 491.5Q109 581 158 647.5Q207 714 281.5 753Q356 792 457 792Q525 792 575 778Q625 764 659 738Q693 712 711 676.5Q729 641 733 597L631 562Q628 635 584 668Q540 701 446 701Q367 701 313 667.5Q259 634 226 578.5Q193 523 179 453Q165 383 165 309Q165 261 175 219Q185 177 208.5 146Q232 115 271.5 97Q311 79 369 79Q463 79 515.5 112Q568 145 588 218L682 185Q668 141 641.5 105Q615 69 575 43Q535 17 481 2.5Q427 -12 358 -12Q281 -12 225 10Q169 32 132.5 72.5Q96 113 78.5 170.5Q61 228 61 300Z" glyph-name="afii10035" horiz-adv-x="757" unicode="&#1057;" /><glyph d="M321 0H221L305 688H64L75 780H657L646 688H405Z" glyph-name="afii10036" horiz-adv-x="622" unicode="&#1058;" /><glyph d="M148 78Q191 78 219 103Q247 128 271 171L293 211L101 780H204L352 312L612 780H721L372 167Q353 133 331.5 101Q310 69 282.5 44Q255 19 219.5 3.5Q184 -12 137 -12Q95 -12 67 -5Q39 2 24 11L46 101Q59 93 85.5 85.5Q112 78 148 78Z" glyph-name="afii10037" horiz-adv-x="684" unicode="&#1059;" /><glyph d="M390 577Q339 577 295.5 564Q252 551 219.5 525Q187 499 168.5 459Q150 419 150 364Q150 278 200 240.5Q250 203 344 203L390 577ZM320 0 333 113Q196 113 120.5 174.5Q45 236 45 356Q45 429 71 487Q97 545 144.5 585Q192 625 257.5 646Q323 667 401 667L415 780H515L502 667Q639 667 714.5 605.5Q790 544 790 424Q790 351 764 293Q738 235 690.5 195Q643 155 577.5 134Q512 113 434 113L420 0ZM445 203Q496 203 539.5 216Q583 229 615.5 255Q648 281 666.5 321Q685 361 685 416Q685 502 635 539.5Q585 577 491 577L445 203Z" glyph-name="afii10038" horiz-adv-x="820" unicode="&#1060;" /><glyph d="M378 481 482 615 610 780H731L426 402L654 0H535L434 190L362 321L260 190L113 0H-12L314 402L101 780H216L304 615Z" glyph-name="afii10039" horiz-adv-x="722" unicode="&#1061;" /><glyph d="M135 780H235L151 92H540L624 780H724L640 92H727L696 -160H596L616 0H40Z" glyph-name="afii10040" horiz-adv-x="799" unicode="&#1062;" /><glyph d="M579 0H479L520 336Q484 309 426.5 291Q369 273 300 273Q249 273 205.5 285Q162 297 131.5 321Q101 345 86 381Q71 417 77 465L115 780H215L179 485Q171 425 209 395.5Q247 366 321 366Q360 366 393.5 373Q427 380 454 391.5Q481 403 501 417Q521 431 533 444L574 780H674Z" glyph-name="afii10041" horiz-adv-x="695" unicode="&#1063;" /><glyph d="M521 92H790L874 780H974L879 0H40L135 780H235L151 92H421L505 780H605Z" glyph-name="afii10042" horiz-adv-x="999" unicode="&#1064;" /><glyph d="M521 92H790L874 780H974L890 92H977L946 -160H846L866 0H40L135 780H235L151 92H421L505 780H605Z" glyph-name="afii10043" horiz-adv-x="1049" unicode="&#1065;" /><glyph d="M244 688H69L80 780H355L314 441H541Q579 441 617.5 433Q656 425 687 404Q718 383 738 346.5Q758 310 758 253Q758 174 734.5 125Q711 76 673 48Q635 20 587 10Q539 0 490 0H160ZM271 92H495Q518 92 545.5 95.5Q573 99 596.5 113.5Q620 128 636 156.5Q652 185 652 236Q652 276 641 298.5Q630 321 612.5 332.5Q595 344 573 346.5Q551 349 530 349H302Z" glyph-name="afii10044" horiz-adv-x="816" unicode="&#1066;" /><glyph d="M791 0H691L786 780H886ZM135 780H235L194 441H421Q459 441 497.5 433Q536 425 567 404Q598 383 618 346.5Q638 310 638 253Q638 174 614.5 125Q591 76 553 48Q515 20 467 10Q419 0 370 0H40ZM151 92H375Q398 92 425.5 95.5Q453 99 476.5 113.5Q500 128 516 156.5Q532 185 532 236Q532 276 521 298.5Q510 321 492.5 332.5Q475 344 453 346.5Q431 349 410 349H182Z" glyph-name="afii10045" horiz-adv-x="911" unicode="&#1067;" /><glyph d="M135 780H235L194 441H421Q459 441 497.5 433Q536 425 567 404Q598 383 618 346.5Q638 310 638 253Q638 174 614.5 125Q591 76 553 48Q515 20 467 10Q419 0 370 0H40ZM151 92H375Q398 92 425.5 95.5Q453 99 476.5 113.5Q500 128 516 156.5Q532 185 532 236Q532 276 521 298.5Q510 321 492.5 332.5Q475 344 453 346.5Q431 349 410 349H182Z" glyph-name="afii10046" horiz-adv-x="696" unicode="&#1068;" /><glyph d="M398 700Q305 700 254.5 667.5Q204 635 184 562L89 594Q104 638 129.5 674.5Q155 711 193.5 737Q232 763 285 777.5Q338 792 407 792Q484 792 539.5 771Q595 750 631 710Q667 670 684.5 613Q702 556 702 485Q702 374 678 282.5Q654 191 605.5 125.5Q557 60 484.5 24Q412 -12 315 -12Q246 -12 196 2Q146 16 112 42Q78 68 60.5 104Q43 140 39 183L141 218Q143 145 186 112.5Q229 80 322 80Q387 80 433.5 101.5Q480 123 511 160.5Q542 198 560 248Q578 298 587 354H198L209 446H598Q598 454 598.5 461.5Q599 469 599 477Q599 524 589 565Q579 606 556 636Q533 666 494 683Q455 700 398 700Z" glyph-name="afii10047" horiz-adv-x="748" unicode="&#1069;" /><glyph d="M620 -12Q542 -12 486 10Q430 32 394 72.5Q358 113 340.5 170.5Q323 228 323 300Q323 314 323 327Q323 340 324 354H183L140 0H40L135 780H235L194 445H336Q351 520 381.5 583.5Q412 647 459.5 693.5Q507 740 572 766Q637 792 719 792Q797 792 853 770.5Q909 749 945 708.5Q981 668 998.5 610Q1016 552 1016 480Q1016 378 992 288.5Q968 199 919 132.5Q870 66 795.5 27Q721 -12 620 -12ZM631 79Q713 79 767 114.5Q821 150 853 206Q885 262 898 332.5Q911 403 911 473Q911 521 901.5 562.5Q892 604 868.5 635Q845 666 806 683.5Q767 701 708 701Q626 701 572 665.5Q518 630 486 574Q454 518 441 447.5Q428 377 428 307Q428 259 437.5 217.5Q447 176 470.5 145Q494 114 533 96.5Q572 79 631 79Z" glyph-name="afii10048" horiz-adv-x="1062" unicode="&#1070;" /><glyph d="M188 272Q199 287 213 303Q227 319 244 333Q212 338 183.5 351Q155 364 133.5 387Q112 410 99.5 444.5Q87 479 87 527Q87 606 112.5 655.5Q138 705 179 732.5Q220 760 271.5 770Q323 780 375 780H685L590 0H490L530 327H406Q365 327 340.5 308.5Q316 290 291 254L113 0H-10ZM541 419 574 688H354Q331 688 303 685Q275 682 250.5 667.5Q226 653 209.5 622.5Q193 592 193 537Q193 498 205 474.5Q217 451 235.5 438.5Q254 426 276 422.5Q298 419 319 419Z" glyph-name="afii10049" horiz-adv-x="710" unicode="&#1071;" /><glyph d="M620 688H224L140 0H40L135 780H531L551 940H651Z" glyph-name="afii10050" horiz-adv-x="589" unicode="&#1168;" /><glyph d="M328 431Q355 455 400 472.5Q445 490 505 490Q614 490 667 433.5Q720 377 720 268Q720 202 701.5 150Q683 98 649.5 62Q616 26 569 7Q522 -12 465 -12Q444 -12 425 -8.5Q406 -5 395 0L415 91Q421 88 433.5 84.5Q446 81 466 81Q498 81 526 92.5Q554 104 574 125Q594 146 605.5 177Q617 208 617 247Q617 321 583.5 359.5Q550 398 479 398Q444 398 415 389Q386 380 364.5 366Q343 352 330 335Q317 318 313 302L276 0H176L260 688H67L78 780H564L553 688H360Z" glyph-name="afii10051" horiz-adv-x="756" unicode="&#1026;" /><glyph d="M140 0H40L135 780H631L620 688H224ZM573 1030 436 822H341L461 1030Z" glyph-name="afii10052" horiz-adv-x="589" unicode="&#1027;" /><glyph d="M440 700Q377 700 332.5 680Q288 660 257 625.5Q226 591 207.5 545Q189 499 178 446H567L556 354H166Q165 342 164.5 330Q164 318 164 306Q164 258 173.5 217Q183 176 206 145.5Q229 115 267.5 97.5Q306 80 364 80Q457 80 508 112.5Q559 145 579 218L674 185Q659 141 633.5 105Q608 69 569 43Q530 17 477.5 2.5Q425 -12 356 -12Q279 -12 223 9.5Q167 31 131 71.5Q95 112 77.5 169Q60 226 60 298Q60 409 84.5 500Q109 591 157.5 656Q206 721 279 756.5Q352 792 449 792Q517 792 567 778Q617 764 650.5 738Q684 712 702 676.5Q720 641 724 597L622 562Q619 635 576 667.5Q533 700 440 700Z" glyph-name="afii10053" horiz-adv-x="748" unicode="&#1028;" /><glyph d="M327 79Q365 79 403.5 88Q442 97 474 117Q506 137 526 169Q546 201 546 249Q546 275 536.5 294Q527 313 505.5 327Q484 341 448.5 349.5Q413 358 362 363Q314 368 268.5 377Q223 386 187.5 404.5Q152 423 131 454.5Q110 486 110 536Q110 602 135.5 650.5Q161 699 203.5 730.5Q246 762 300.5 777Q355 792 412 792Q482 792 531.5 778.5Q581 765 613.5 740Q646 715 663 680Q680 645 684 603L582 568Q580 639 537.5 670Q495 701 401 701Q376 701 343.5 695Q311 689 282 672Q253 655 232.5 625Q212 595 212 547Q212 526 219.5 511Q227 496 246 484.5Q265 473 296.5 465.5Q328 458 376 452Q439 446 489.5 436Q540 426 574.5 405.5Q609 385 627.5 352Q646 319 646 267Q646 194 617.5 141Q589 88 542.5 54Q496 20 437 4Q378 -12 316 -12Q244 -12 193.5 2Q143 16 110 41Q77 66 60.5 102Q44 138 40 181L142 216Q145 143 189 111Q233 79 327 79Z" glyph-name="afii10054" horiz-adv-x="713" unicode="&#1029;" /><glyph d="M158 0H58L153 780H253Z" glyph-name="afii10055" horiz-adv-x="296" unicode="&#1030;" /><glyph d="M158 0H58L153 780H253ZM170 869H58L72 980H184ZM370 869H258L272 980H384Z" glyph-name="afii10056" horiz-adv-x="296" unicode="&#1031;" /><glyph d="M495 780 424 200Q419 158 402.5 119.5Q386 81 356 51.5Q326 22 282 5Q238 -12 178 -12Q121 -12 85.5 1Q50 14 30 35.5Q10 57 3 86Q-4 115 -4 147L98 182Q97 159 100 140Q103 121 112.5 107.5Q122 94 140.5 86.5Q159 79 189 79Q224 79 248.5 87Q273 95 288.5 111Q304 127 312.5 150Q321 173 325 204L395 780Z" glyph-name="afii10057" horiz-adv-x="512" unicode="&#1032;" /><glyph d="M677 441H904Q942 441 980.5 433Q1019 425 1050 404Q1081 383 1101 346.5Q1121 310 1121 253Q1121 174 1097.5 125Q1074 76 1036 48Q998 20 950 10Q902 0 853 0H523L607 688H408L356 488Q324 366 291 274.5Q258 183 217 122Q176 61 123.5 30.5Q71 0 1 0H-12L-2 92H8Q52 92 85.5 115.5Q119 139 147.5 188Q176 237 201.5 313Q227 389 254 493L327 780H718ZM634 92H858Q881 92 908.5 95.5Q936 99 959.5 113.5Q983 128 999 156.5Q1015 185 1015 236Q1015 276 1004 298.5Q993 321 975.5 332.5Q958 344 936 346.5Q914 349 893 349H665Z" glyph-name="afii10058" horiz-adv-x="1163" unicode="&#1033;" /><glyph d="M571 349H182L140 0H40L135 780H235L194 441H583L624 780H724L683 441H910Q948 441 986.5 433Q1025 425 1056 404Q1087 383 1107 346.5Q1127 310 1127 253Q1127 174 1103.5 125Q1080 76 1042 48Q1004 20 956 10Q908 0 859 0H529ZM640 92H864Q887 92 914.5 95.5Q942 99 965.5 113.5Q989 128 1005 156.5Q1021 185 1021 236Q1021 276 1010 298.5Q999 321 981.5 332.5Q964 344 942 346.5Q920 349 899 349H671Z" glyph-name="afii10059" horiz-adv-x="1169" unicode="&#1034;" /><glyph d="M260 688H67L78 780H564L553 688H360L325 400Q361 445 410 467.5Q459 490 518 490Q557 490 590 479.5Q623 469 646 448Q669 427 680 396Q691 365 686 324L647 0H546L582 294Q588 346 560 371Q532 396 477 396Q445 396 416 385Q387 374 364.5 356Q342 338 327 315Q312 292 308 268L276 0H176Z" glyph-name="afii10060" horiz-adv-x="743" unicode="&#1035;" /><glyph d="M521 488Q503 464 480 439.5Q457 415 425 400Q455 384 473 360Q491 336 503 311L655 0H531L403 281Q386 317 365.5 335.5Q345 354 303 354H183L140 0H40L135 780H235L194 446H311Q352 446 377.5 464Q403 482 428 519L611 780H735ZM596 1030 459 822H364L484 1030Z" glyph-name="afii10061" horiz-adv-x="712" unicode="&#1036;" /><glyph d="M148 78Q191 78 219 103Q247 128 271 171L293 211L101 780H204L352 312L612 780H721L372 167Q353 133 331.5 101Q310 69 282.5 44Q255 19 219.5 3.5Q184 -12 137 -12Q95 -12 67 -5Q39 2 24 11L46 101Q59 93 85.5 85.5Q112 78 148 78ZM630 1030Q624 981 610 943Q596 905 571 879Q546 853 508.5 839Q471 825 418 825Q365 825 330.5 839Q296 853 277.5 879Q259 905 254 943Q249 981 255 1030H333Q325 963 347 936Q369 909 428 909Q486 909 515 936Q544 963 552 1030Z" glyph-name="afii10062" horiz-adv-x="684" unicode="&#1038;" /><glyph d="M451 328Q451 350 441 372Q431 394 413 412Q395 430 368.5 441.5Q342 453 307 453Q271 453 239 438Q207 423 183 394Q159 365 145.5 322.5Q132 280 132 224Q132 152 166.5 114.5Q201 77 261 77Q296 77 325 88.5Q354 100 376.5 118Q399 136 414 158Q429 180 435 202ZM522 132 513 0H426L423 76Q393 35 344.5 11.5Q296 -12 241 -12Q138 -12 85 44Q32 100 32 206Q32 286 52 348.5Q72 411 108.5 454Q145 497 196 519.5Q247 542 309 542Q364 542 406.5 518.5Q449 495 469 454L491 530H578L554 398Z" glyph-name="afii10065" horiz-adv-x="616" unicode="&#1072;" /><glyph d="M256 -12Q198 -12 153.5 5Q109 22 81 57.5Q53 93 42.5 147Q32 201 41 274Q53 373 71.5 446.5Q90 520 114 573Q138 626 168.5 661Q199 696 235 717.5Q271 739 313 749.5Q355 760 403 764Q435 767 460 770.5Q485 774 507.5 778.5Q530 783 550 789Q570 795 591 803L580 709Q562 702 544.5 696Q527 690 507 685.5Q487 681 463.5 677.5Q440 674 411 671Q359 667 320 656.5Q281 646 252.5 623.5Q224 601 203.5 562.5Q183 524 168 463Q235 542 335 542Q444 542 501 473Q558 404 541 265Q524 126 448 57Q372 -12 256 -12ZM313 453Q244 453 198 409.5Q152 366 139 265Q126 164 162 120.5Q198 77 267 77Q337 77 383 120.5Q429 164 442 265Q455 366 419 409.5Q383 453 313 453Z" glyph-name="afii10066" horiz-adv-x="589" unicode="&#1073;" /><glyph d="M26 0 91 530H360Q386 530 413 525Q440 520 462.5 506Q485 492 499.5 467.5Q514 443 514 405Q514 375 505.5 353.5Q497 332 483.5 317Q470 302 453 293Q436 284 420 279Q453 275 477 248.5Q501 222 501 171Q501 119 482 86Q463 53 432 34Q401 15 363 7.5Q325 0 287 0ZM289 83Q340 83 372.5 101Q405 119 405 168Q405 209 380 223Q355 237 314 237H151L132 83ZM176 445 160 310H310Q364 310 389.5 328Q415 346 415 387Q415 419 396.5 432Q378 445 336 445Z" glyph-name="afii10067" horiz-adv-x="565" unicode="&#1074;" /><glyph d="M265 231Q230 227 201.5 224Q173 221 153.5 213.5Q134 206 123.5 191Q113 176 113 149Q113 127 123 112Q133 97 150.5 88Q168 79 190.5 75.5Q213 72 238 72Q304 72 337.5 94.5Q371 117 385 160L478 128Q467 97 448 71Q429 45 399 26.5Q369 8 326.5 -2Q284 -12 226 -12Q189 -12 151 -4Q113 4 82.5 23Q52 42 33 72Q14 102 14 146Q14 202 37.5 234Q61 266 97.5 282.5Q134 299 177 304.5Q220 310 259 314Q291 317 317 321Q343 325 361 333Q379 341 389 355Q399 369 399 391Q399 412 389.5 425.5Q380 439 365 446Q350 453 331 455.5Q312 458 292 458Q234 458 201.5 436Q169 414 155 372L63 403Q86 469 144 505.5Q202 542 296 542Q334 542 370 534.5Q406 527 434 510Q462 493 479 464.5Q496 436 496 394Q496 342 473.5 311.5Q451 281 416.5 264.5Q382 248 341.5 241.5Q301 235 265 231Z" glyph-name="afii10068" horiz-adv-x="540" unicode="&#1075;" /><glyph d="M253 -12Q149 -12 90.5 43.5Q32 99 32 216Q32 297 53.5 358Q75 419 112 460Q149 501 197.5 521.5Q246 542 300 542Q358 542 396 523.5Q434 505 457 463Q456 529 447.5 577.5Q439 626 419.5 657Q400 688 367.5 703Q335 718 285 718Q230 718 187 705.5Q144 693 107 676L118 775Q156 790 198 801Q240 812 300 812Q358 812 404.5 796Q451 780 484 741Q517 702 534.5 636.5Q552 571 552 471Q552 357 536.5 267.5Q521 178 486 116Q451 54 394 21Q337 -12 253 -12ZM310 453Q273 453 240.5 440Q208 427 184 399Q160 371 146 326.5Q132 282 132 218Q132 142 167 109.5Q202 77 264 77Q300 77 332.5 90Q365 103 389 131Q413 159 427 203.5Q441 248 441 312Q441 387 405.5 420Q370 453 310 453Z" glyph-name="afii10069" horiz-adv-x="589" unicode="&#1076;" /><glyph d="M131 226Q126 148 162.5 110Q199 72 266 72Q331 72 363 94Q395 116 409 156L501 124Q491 96 471 71Q451 46 421 27.5Q391 9 350.5 -1.5Q310 -12 257 -12Q151 -12 91.5 43Q32 98 32 209Q32 292 54 354.5Q76 417 115 458.5Q154 500 207 521Q260 542 322 542Q428 542 479 487Q530 432 530 329Q530 314 528.5 289.5Q527 265 521 226ZM313 459Q248 459 202.5 422.5Q157 386 142 307H428Q437 375 409.5 417Q382 459 313 459Z" glyph-name="afii10070" horiz-adv-x="582" unicode="&#1077;" /><glyph d="M290 639H178L192 750H304ZM490 639H378L392 750H504ZM131 226Q126 148 162.5 110Q199 72 266 72Q331 72 363 94Q395 116 409 156L501 124Q491 96 471 71Q451 46 421 27.5Q391 9 350.5 -1.5Q310 -12 257 -12Q151 -12 91.5 43Q32 98 32 209Q32 292 54 354.5Q76 417 115 458.5Q154 500 207 521Q260 542 322 542Q428 542 479 487Q530 432 530 329Q530 314 528.5 289.5Q527 265 521 226ZM313 459Q248 459 202.5 422.5Q157 386 142 307H428Q437 375 409.5 417Q382 459 313 459Z" glyph-name="afii10071" horiz-adv-x="582" unicode="&#1105;" /><glyph d="M795 530 671 354Q656 333 635.5 310.5Q615 288 586 274Q613 260 628.5 237.5Q644 215 655 193L743 0H629L560 163Q544 198 524.5 215Q505 232 464 232H437L409 0H313L341 232H313Q273 232 249 215Q225 198 202 163L93 0H-21L113 193Q129 215 150 237.5Q171 260 201 274Q175 288 160.5 310.5Q146 333 136 354L57 530H171L233 384Q247 349 267 332Q287 315 327 315H351L378 530H474L447 315H471Q511 315 535.5 332Q560 349 583 384L681 530Z" glyph-name="afii10072" horiz-adv-x="802" unicode="&#1078;" /><glyph d="M491 161Q491 117 469.5 84.5Q448 52 413.5 30.5Q379 9 334.5 -1.5Q290 -12 245 -12Q138 -12 85.5 25.5Q33 63 26 126L125 160Q129 118 158 95Q187 72 247 72Q319 72 356.5 95.5Q394 119 394 166Q394 190 384.5 203.5Q375 217 359 223.5Q343 230 323.5 231Q304 232 283 232H195L204 304H291Q312 304 332.5 308Q353 312 369 322Q385 332 394.5 347.5Q404 363 404 387Q404 428 374 442.5Q344 457 296 457Q244 457 210.5 438.5Q177 420 161 372L68 404Q94 473 151 507.5Q208 542 305 542Q343 542 378.5 535Q414 528 441.5 511.5Q469 495 485.5 468Q502 441 502 401Q502 371 493 349.5Q484 328 470 312.5Q456 297 439 288Q422 279 407 274Q421 270 436 262Q451 254 463 240.5Q475 227 483 207.5Q491 188 491 161Z" glyph-name="afii10073" horiz-adv-x="522" unicode="&#1079;" /><glyph d="M403 75Q371 36 323.5 12Q276 -12 221 -12Q177 -12 141 -0.5Q105 11 80.5 34Q56 57 45 90.5Q34 124 39 167L84 530H180L137 184Q130 131 160.5 104Q191 77 246 77Q279 77 307.5 89Q336 101 358.5 119Q381 137 395.5 159Q410 181 415 202L456 530H551L502 131L493 0H406Z" glyph-name="afii10074" horiz-adv-x="587" unicode="&#1080;" /><glyph d="M403 75Q371 36 323.5 12Q276 -12 221 -12Q177 -12 141 -0.5Q105 11 80.5 34Q56 57 45 90.5Q34 124 39 167L84 530H180L137 184Q130 131 160.5 104Q191 77 246 77Q279 77 307.5 89Q336 101 358.5 119Q381 137 395.5 159Q410 181 415 202L456 530H551L502 131L493 0H406ZM324 595Q271 595 236.5 609Q202 623 183.5 649Q165 675 160.5 713Q156 751 162 800H238Q229 733 251.5 706Q274 679 332 679Q390 679 419 706Q448 733 456 800H536Q530 751 516.5 713Q503 675 478 649Q453 623 415 609Q377 595 324 595Z" glyph-name="afii10075" horiz-adv-x="587" unicode="&#1081;" /><glyph d="M570 530 440 354Q423 332 402.5 310Q382 288 353 274Q381 260 397 237Q413 214 424 193L519 0H403L329 163Q313 198 292.5 215Q272 232 232 232H150L122 0H26L91 530H187L160 315H239Q279 315 303 332Q327 349 352 384L455 530Z" glyph-name="afii10076" horiz-adv-x="585" unicode="&#1082;" /><glyph d="M480 0H384L438 442H301L250 267Q227 189 202 137.5Q177 86 148 55.5Q119 25 84 12.5Q49 0 5 0H-10L0 88H8Q37 88 58 96Q79 104 96 125.5Q113 147 128.5 184.5Q144 222 161 282L233 530H545Z" glyph-name="afii10077" horiz-adv-x="586" unicode="&#1083;" /><glyph d="M397 222 564 530H683L618 0H527L556 233L580 392L495 230L368 0H276L205 230L160 392L145 239L117 0H26L91 530H210L301 222L334 103Z" glyph-name="afii10078" horiz-adv-x="724" unicode="&#1084;" /><glyph d="M187 530 161 319H429L455 530H550L485 0H390L418 231H150L122 0H26L91 530Z" glyph-name="afii10079" horiz-adv-x="591" unicode="&#1085;" /><glyph d="M264 74Q300 74 333 87.5Q366 101 390.5 129.5Q415 158 429.5 202.5Q444 247 444 310Q444 388 407.5 422Q371 456 310 456Q274 456 241 442.5Q208 429 183.5 400.5Q159 372 144.5 327.5Q130 283 130 220Q130 142 166.5 108Q203 74 264 74ZM253 -12Q150 -12 91.5 42.5Q33 97 33 208Q33 292 55 354.5Q77 417 115.5 458.5Q154 500 207 521Q260 542 321 542Q424 542 482.5 487.5Q541 433 541 322Q541 238 519 175.5Q497 113 458.5 71.5Q420 30 367.5 9Q315 -12 253 -12Z" glyph-name="afii10080" horiz-adv-x="590" unicode="&#1086;" /><glyph d="M172 455Q204 494 251.5 518Q299 542 354 542Q398 542 434 530.5Q470 519 494.5 496Q519 473 530 440Q541 407 536 363L492 0H396L438 346Q445 399 414.5 426Q384 453 329 453Q296 453 267.5 441Q239 429 217 411Q195 393 180 371Q165 349 160 328L120 0H25L73 399L83 530H170Z" glyph-name="afii10081" horiz-adv-x="587" unicode="&#1087;" /><glyph d="M286 -12Q232 -12 190.5 10.5Q149 33 128 71L95 -200H0L73 398L83 530H170L172 454Q202 495 250.5 518.5Q299 542 354 542Q457 542 510 486Q563 430 563 324Q563 244 543 181.5Q523 119 486.5 76Q450 33 399 10.5Q348 -12 286 -12ZM144 202Q144 181 154 158.5Q164 136 182 118Q200 100 227 88.5Q254 77 288 77Q325 77 357 92Q389 107 412.5 136Q436 165 449.5 208Q463 251 463 306Q463 378 428.5 415.5Q394 453 334 453Q300 453 270.5 441.5Q241 430 218.5 412Q196 394 181 372Q166 350 160 328Z" glyph-name="afii10082" horiz-adv-x="611" unicode="&#1088;" /><glyph d="M250 -12Q145 -12 89 45Q33 102 33 210Q33 289 54 351Q75 413 112.5 455.5Q150 498 202.5 520Q255 542 318 542Q372 542 410 531.5Q448 521 472.5 502.5Q497 484 509.5 458Q522 432 526 400L427 366Q423 408 398 432.5Q373 457 312 457Q273 457 239.5 442Q206 427 181 397.5Q156 368 142 324.5Q128 281 128 225Q128 153 163 113Q198 73 260 73Q323 73 356 96.5Q389 120 403 164L493 132Q482 100 463 73.5Q444 47 415 28Q386 9 345.5 -1.5Q305 -12 250 -12Z" glyph-name="afii10083" horiz-adv-x="562" unicode="&#1089;" /><glyph d="M729 349Q742 453 638 453Q611 453 587 441.5Q563 430 544 412Q525 394 511.5 372Q498 350 492 329L452 0H356L398 349Q411 453 307 453Q280 453 256 441.5Q232 430 212.5 412Q193 394 179.5 372Q166 350 160 329L120 0H25L73 399L83 530H170L172 455Q203 496 245.5 519Q288 542 336 542Q399 542 437.5 516.5Q476 491 487 444Q522 494 569.5 518Q617 542 665 542Q752 542 795 495.5Q838 449 827 362L783 0H687Z" glyph-name="afii10084" horiz-adv-x="879" unicode="&#1090;" /><glyph d="M48 -122Q82 -122 105.5 -104.5Q129 -87 152 -46L191 26L36 530H145L219 259L255 125L324 259L466 530H576L256 -50Q233 -92 211.5 -122.5Q190 -153 165 -173Q140 -193 110 -202.5Q80 -212 41 -212Q17 -212 -0.5 -209Q-18 -206 -30 -201L-8 -111Q0 -115 13 -118.5Q26 -122 48 -122Z" glyph-name="afii10085" horiz-adv-x="562" unicode="&#1091;" /><glyph d="M350 447Q303 446 263 433Q223 420 194 394.5Q165 369 148.5 331.5Q132 294 132 244Q132 197 147 166Q162 135 186 116.5Q210 98 241.5 90.5Q273 83 306 83L350 447ZM367 -200H271L295 -6Q241 -5 193.5 9.5Q146 24 110 53.5Q74 83 53.5 128Q33 173 33 235Q33 312 60.5 368.5Q88 425 133.5 462Q179 499 238 517.5Q297 536 361 536L394 800H490L457 536Q511 535 558.5 520.5Q606 506 642 476.5Q678 447 698.5 402Q719 357 719 295Q719 219 691.5 162Q664 105 618.5 68Q573 31 514 12.5Q455 -6 391 -6ZM402 83Q449 84 489 97Q529 110 558 135.5Q587 161 603.5 199Q620 237 620 286Q620 333 605 364Q590 395 566 413.5Q542 432 510.5 439.5Q479 447 446 447L402 83Z" glyph-name="afii10086" horiz-adv-x="768" unicode="&#1092;" /><glyph d="M265 201 197 120 94 0H-26L168 224L213 275L180 325L53 530H168L226 430L278 342L352 430L436 530H555L376 325L331 275L364 224L504 0H388L313 120Z" glyph-name="afii10087" horiz-adv-x="558" unicode="&#1093;" /><glyph d="M403 75Q371 36 323.5 12Q276 -12 221 -12Q177 -12 141 -0.5Q105 11 80.5 34Q56 57 45 90.5Q34 124 39 167L84 530H180L137 184Q130 131 160.5 104Q191 77 246 77Q279 77 307.5 89Q336 101 358.5 119Q381 137 395.5 159Q410 181 415 202L456 530H551L496 88H572L542 -160H448L468 0H406Z" glyph-name="afii10088" horiz-adv-x="619" unicode="&#1094;" /><glyph d="M499 0H403L428 206Q403 188 356 173Q309 158 248 158Q206 158 170.5 168Q135 178 110 199Q85 220 73 252Q61 284 67 328L92 530H188L164 341Q158 288 190 267.5Q222 247 279 247Q311 247 337.5 252.5Q364 258 384.5 266Q405 274 418.5 283Q432 292 439 299L468 530H564Z" glyph-name="afii10089" horiz-adv-x="591" unicode="&#1095;" /><glyph d="M143 181Q130 77 234 77Q261 77 285 88.5Q309 100 328 118Q347 136 360.5 158Q374 180 380 201L421 530H517L474 181Q461 77 565 77Q592 77 616 88.5Q640 100 659.5 118Q679 136 692.5 158Q706 180 712 201L753 530H848L799 131L790 0H703L700 75Q669 34 626.5 11Q584 -12 536 -12Q473 -12 434.5 13.5Q396 39 385 86Q350 36 302.5 12Q255 -12 207 -12Q120 -12 77 34.5Q34 81 45 168L90 530H186Z" glyph-name="afii10090" horiz-adv-x="879" unicode="&#1096;" /><glyph d="M703 0 700 75Q669 34 626.5 11Q584 -12 536 -12Q473 -12 434.5 13.5Q396 39 385 86Q350 36 302.5 12Q255 -12 207 -12Q120 -12 77 34.5Q34 81 45 168L90 530H186L143 181Q130 77 234 77Q261 77 285 88.5Q309 100 328 118Q347 136 360.5 158Q374 180 380 201L421 530H517L474 181Q461 77 565 77Q592 77 616 88.5Q640 100 659.5 118Q679 136 692.5 158Q706 180 712 201L753 530H848L793 88H869L839 -160H745L765 0Z" glyph-name="afii10091" horiz-adv-x="910" unicode="&#1097;" /><glyph d="M55 530H278L251 317H397Q433 317 464.5 311.5Q496 306 520 291Q544 276 558 248.5Q572 221 572 176Q572 122 553.5 88Q535 54 505 34.5Q475 15 437 7.5Q399 0 359 0H117L171 442H44ZM375 82Q394 82 412 85.5Q430 89 443.5 98Q457 107 465.5 123.5Q474 140 474 167Q474 189 467.5 202.5Q461 216 449.5 223.5Q438 231 423.5 233.5Q409 236 393 236H241L223 82Z" glyph-name="afii10092" horiz-adv-x="627" unicode="&#1098;" /><glyph d="M577 530H673L608 0H512ZM91 530H187L160 317H306Q342 317 373.5 311.5Q405 306 429 291Q453 276 467 248.5Q481 221 481 176Q481 122 462.5 88Q444 54 414 34.5Q384 15 346 7.5Q308 0 268 0H26ZM284 82Q303 82 321 85.5Q339 89 352.5 98Q366 107 374.5 123.5Q383 140 383 167Q383 189 376.5 202.5Q370 216 358.5 223.5Q347 231 332.5 233.5Q318 236 302 236H150L132 82Z" glyph-name="afii10093" horiz-adv-x="714" unicode="&#1099;" /><glyph d="M91 530H187L160 317H306Q342 317 373.5 311.5Q405 306 429 291Q453 276 467 248.5Q481 221 481 176Q481 122 462.5 88Q444 54 414 34.5Q384 15 346 7.5Q308 0 268 0H26ZM284 82Q303 82 321 85.5Q339 89 352.5 98Q366 107 374.5 123.5Q383 140 383 167Q383 189 376.5 202.5Q370 216 358.5 223.5Q347 231 332.5 233.5Q318 236 302 236H150L132 82Z" glyph-name="afii10094" horiz-adv-x="536" unicode="&#1100;" /><glyph d="M311 542Q415 542 469 485Q523 428 523 306Q523 229 502.5 170Q482 111 445 70.5Q408 30 356.5 9Q305 -12 243 -12Q189 -12 149.5 -1Q110 10 84 29Q58 48 44.5 74Q31 100 27 129L128 164Q132 123 156 99.5Q180 76 240 76Q273 76 301.5 84Q330 92 352.5 110.5Q375 129 391 159Q407 189 415 232H194L203 304H424V318Q424 390 389 422.5Q354 455 294 455Q232 455 200.5 432.5Q169 410 155 366L63 397Q75 429 95 455.5Q115 482 145 501.5Q175 521 216 531.5Q257 542 311 542Z" glyph-name="afii10095" horiz-adv-x="572" unicode="&#1101;" /><glyph d="M473 -12Q370 -12 311.5 42.5Q253 97 253 208V231H150L122 0H26L91 530H187L161 319H265Q291 431 365.5 486.5Q440 542 541 542Q644 542 702.5 487.5Q761 433 761 322Q761 238 739 175.5Q717 113 678.5 71.5Q640 30 587.5 9Q535 -12 473 -12ZM484 74Q520 74 553 87.5Q586 101 610.5 129.5Q635 158 649.5 202.5Q664 247 664 310Q664 388 627.5 422Q591 456 530 456Q494 456 461 442.5Q428 429 403.5 400.5Q379 372 364.5 327.5Q350 283 350 220Q350 142 386.5 108Q423 74 484 74Z" glyph-name="afii10096" horiz-adv-x="811" unicode="&#1102;" /><glyph d="M0 0 115 164Q125 178 137 192.5Q149 207 165 220Q120 229 92 261Q64 293 64 352Q64 408 82 442.5Q100 477 129.5 496.5Q159 516 196 523Q233 530 271 530H520L455 0H360L386 213H319Q278 213 255.5 196.5Q233 180 210 145L114 0ZM264 448Q246 448 228 445.5Q210 443 195.5 434Q181 425 171.5 408.5Q162 392 162 364Q162 342 169 328Q176 314 187.5 306.5Q199 299 214 296.5Q229 294 245 294H396L415 448Z" glyph-name="afii10097" horiz-adv-x="561" unicode="&#1103;" /><glyph d="M428 442H176L122 0H26L91 530H345L364 690H458Z" glyph-name="afii10098" horiz-adv-x="445" unicode="&#1169;" /><glyph d="M509 -7Q504 -47 492 -84Q480 -121 455.5 -149.5Q431 -178 391 -195Q351 -212 290 -212Q269 -212 250 -208.5Q231 -205 220 -200L241 -111Q247 -115 263 -120Q279 -125 299 -124Q325 -124 344 -119Q363 -114 377 -100.5Q391 -87 400 -63Q409 -39 413 -1L456 346Q463 399 432.5 426Q402 453 347 453Q314 453 285.5 441Q257 429 235 411Q213 393 198 371Q183 349 178 328L138 0H43L119 619H16L25 697H128L141 800H236L223 697H360L351 619H214L194 458Q225 496 271.5 519Q318 542 372 542Q416 542 452 530.5Q488 519 512.5 496Q537 473 548 440Q559 407 554 363Z" glyph-name="afii10099" horiz-adv-x="605" unicode="&#1106;" /><glyph d="M487 800 350 592H255L375 800ZM265 231Q230 227 201.5 224Q173 221 153.5 213.5Q134 206 123.5 191Q113 176 113 149Q113 127 123 112Q133 97 150.5 88Q168 79 190.5 75.5Q213 72 238 72Q304 72 337.5 94.5Q371 117 385 160L478 128Q467 97 448 71Q429 45 399 26.5Q369 8 326.5 -2Q284 -12 226 -12Q189 -12 151 -4Q113 4 82.5 23Q52 42 33 72Q14 102 14 146Q14 202 37.5 234Q61 266 97.5 282.5Q134 299 177 304.5Q220 310 259 314Q291 317 317 321Q343 325 361 333Q379 341 389 355Q399 369 399 391Q399 412 389.5 425.5Q380 439 365 446Q350 453 331 455.5Q312 458 292 458Q234 458 201.5 436Q169 414 155 372L63 403Q86 469 144 505.5Q202 542 296 542Q334 542 370 534.5Q406 527 434 510Q462 493 479 464.5Q496 436 496 394Q496 342 473.5 311.5Q451 281 416.5 264.5Q382 248 341.5 241.5Q301 235 265 231Z" glyph-name="afii10100" horiz-adv-x="540" unicode="&#1107;" /><glyph d="M313 542Q366 542 404.5 531.5Q443 521 468.5 502.5Q494 484 507.5 458Q521 432 525 400L425 366Q421 408 397 431.5Q373 455 315 455Q249 455 204 421Q159 387 142 304H362L353 232H133Q132 227 132 222.5Q132 218 132 213Q132 140 167.5 108Q203 76 263 76Q323 76 356 98.5Q389 121 404 164L495 132Q485 102 465.5 76Q446 50 416 30.5Q386 11 344 -0.5Q302 -12 245 -12Q141 -12 86.5 46Q32 104 32 224Q32 301 52.5 360Q73 419 110 459.5Q147 500 199 521Q251 542 313 542Z" glyph-name="afii10101" horiz-adv-x="572" unicode="&#1108;" /><glyph d="M234 72Q263 73 290 77.5Q317 82 339 93Q361 104 374 122.5Q387 141 387 169Q387 189 378 199.5Q369 210 351.5 216Q334 222 309.5 225Q285 228 253 231Q221 235 186.5 240Q152 245 123 257.5Q94 270 75 292.5Q56 315 56 354Q56 406 79 441.5Q102 477 137 499.5Q172 522 213.5 532Q255 542 292 542Q392 542 440.5 506.5Q489 471 497 406L397 372Q394 414 369.5 436Q345 458 286 458Q267 458 244 455Q221 452 201.5 443Q182 434 169 417Q156 400 156 373Q156 356 164.5 345.5Q173 335 189 329Q205 323 228 320Q251 317 279 314Q315 311 352 306Q389 301 419 288.5Q449 276 468 251.5Q487 227 487 185Q487 131 463 93.5Q439 56 401.5 32.5Q364 9 317.5 -1.5Q271 -12 225 -12Q121 -12 71.5 26Q22 64 15 125L115 160Q118 117 144.5 94.5Q171 72 234 72Z" glyph-name="afii10102" horiz-adv-x="540" unicode="&#1109;" /><glyph d="M106 530H202L137 0H41ZM223 639H111L125 750H237Z" glyph-name="afii10103" horiz-adv-x="258" unicode="&#1110;" /><glyph d="M106 530H202L137 0H41ZM123 639H11L25 750H137ZM323 639H211L225 750H337Z" glyph-name="afii10104" horiz-adv-x="258" unicode="&#1111;" /><glyph d="M223 639H111L125 750H237ZM106 530H202L136 -7Q131 -47 119 -84Q107 -121 82.5 -149.5Q58 -178 18 -195Q-22 -212 -82 -212Q-103 -212 -122 -208.5Q-141 -205 -152 -200L-131 -111Q-125 -115 -109 -120Q-93 -125 -73 -124Q-48 -124 -29 -119Q-10 -114 4 -100.5Q18 -87 27 -63Q36 -39 40 -1Z" glyph-name="afii10105" horiz-adv-x="258" unicode="&#1112;" /><glyph d="M442 442H305L254 267Q231 189 206 137.5Q181 86 152 55.5Q123 25 88 12.5Q53 0 9 0H-6L4 88H12Q40 88 61 96Q82 104 99.5 125.5Q117 147 132.5 184.5Q148 222 165 282L237 530H549L522 317H668Q704 317 735.5 311.5Q767 306 791 291Q815 276 829 248.5Q843 221 843 176Q843 122 824.5 88Q806 54 776 34.5Q746 15 708 7.5Q670 0 630 0H388ZM646 82Q665 82 683 85.5Q701 89 714.5 98Q728 107 736.5 123.5Q745 140 745 167Q745 189 738.5 202.5Q732 216 720.5 223.5Q709 231 694.5 233.5Q680 236 664 236H512L494 82Z" glyph-name="afii10106" horiz-adv-x="899" unicode="&#1113;" /><glyph d="M390 0 418 236H150L122 0H26L91 530H187L161 319H429L455 530H550L523 319H669Q705 319 736.5 313.5Q768 308 792 292Q816 276 830 248.5Q844 221 844 176Q844 122 825.5 88Q807 54 777 34.5Q747 15 709 7.5Q671 0 631 0ZM647 82Q666 82 684 85.5Q702 89 715.5 98Q729 107 737.5 123.5Q746 140 746 167Q746 189 739.5 202.5Q733 216 721.5 223.5Q710 231 695.5 233.5Q681 236 665 236H513L495 82Z" glyph-name="afii10107" horiz-adv-x="900" unicode="&#1114;" /><glyph d="M223 697H360L351 619H214L194 458Q225 496 271.5 519Q318 542 372 542Q416 542 452 530.5Q488 519 512.5 496Q537 473 548 440Q559 407 554 363L510 0H414L456 346Q463 399 432.5 426Q402 453 347 453Q314 453 285.5 441Q257 429 235 411Q213 393 198 371Q183 349 178 328L138 0H43L119 619H16L25 697H128L141 800H236Z" glyph-name="afii10108" horiz-adv-x="605" unicode="&#1115;" /><glyph d="M570 530 440 354Q423 332 402.5 310Q382 288 353 274Q381 260 397 237Q413 214 424 193L519 0H403L329 163Q313 198 292.5 215Q272 232 232 232H150L122 0H26L91 530H187L160 315H239Q279 315 303 332Q327 349 352 384L455 530ZM494 800 357 592H262L382 800Z" glyph-name="afii10109" horiz-adv-x="585" unicode="&#1116;" /><glyph d="M314 595Q261 595 226.5 609Q192 623 173.5 649Q155 675 150.5 713Q146 751 152 800H230Q221 733 243.5 706Q266 679 324 679Q382 679 411 706Q440 733 448 800H526Q520 751 506.5 713Q493 675 468 649Q443 623 405 609Q367 595 314 595ZM48 -122Q82 -122 105.5 -104.5Q129 -87 152 -46L191 26L36 530H145L219 259L255 125L324 259L466 530H576L256 -50Q233 -92 211.5 -122.5Q190 -153 165 -173Q140 -193 110 -202.5Q80 -212 41 -212Q17 -212 -0.5 -209Q-18 -206 -30 -201L-8 -111Q0 -115 13 -118.5Q26 -122 48 -122Z" glyph-name="afii10110" horiz-adv-x="562" unicode="&#1118;" /><glyph d="M135 780H235L151 92H540L624 780H724L629 0H385L365 -160H265L285 0H40Z" glyph-name="afii10145" horiz-adv-x="764" unicode="&#1039;" /><glyph d="M403 75Q371 36 323.5 12Q276 -12 221 -12Q177 -12 141 -0.5Q105 11 80.5 34Q56 57 45 90.5Q34 124 39 167L84 530H180L137 184Q130 131 160.5 104Q191 77 246 77Q279 77 307.5 89Q336 101 358.5 119Q381 137 395.5 159Q410 181 415 202L456 530H551L502 131L493 0H406ZM181 -200 201 -40H295L275 -200Z" glyph-name="afii10193" horiz-adv-x="587" unicode="&#1119;" /><glyph d="M398 764Q486 764 534 719Q582 674 571 586L519 162H419L470 571Q482 672 381 672H222L140 0H40L133 764ZM220 0 292 592H392L331 92H490Q591 92 603 193L673 764H773L701 178Q690 90 631.5 45Q573 0 485 0Z" glyph-name="afii57636" horiz-adv-x="800" unicode="&#8362;" /><glyph d="M264 0H159L783 780H887ZM73 545Q73 600 88 645.5Q103 691 131 723.5Q159 756 199.5 774Q240 792 290 792Q332 792 361.5 783.5Q391 775 410 760Q429 745 438.5 724.5Q448 704 451 680L364 650Q361 679 344 696.5Q327 714 284 714Q230 714 194.5 674.5Q159 635 159 557Q159 508 182.5 482Q206 456 248 456Q293 456 315 472.5Q337 489 348 520L428 492Q419 467 404.5 446Q390 425 367.5 410Q345 395 313.5 386.5Q282 378 239 378Q159 378 116 421Q73 464 73 545ZM781 66Q806 66 828.5 75Q851 84 867.5 103Q884 122 894 152.5Q904 183 904 225Q904 277 879.5 300.5Q855 324 812 324Q787 324 764.5 315Q742 306 725.5 287Q709 268 699 237.5Q689 207 689 165Q689 113 713.5 89.5Q738 66 780 66ZM771 -12Q692 -12 647.5 30.5Q603 73 603 156Q603 216 620 262Q637 308 666 339Q695 370 735.5 386Q776 402 822 402Q901 402 945.5 359.5Q990 317 990 234Q990 174 973 128Q956 82 927 51Q898 20 858 4Q818 -12 771 -12Z" glyph-name="afii61248" horiz-adv-x="1047" unicode="&#8453;" /><glyph d="M28 259Q37 265 46.5 272.5Q56 280 70 291V508Q70 642 104 711Q138 780 215 780Q248 780 270 767.5Q292 755 306 733Q320 711 326 682.5Q332 654 332 621Q332 566 316.5 513Q301 460 276.5 413.5Q252 367 222.5 328Q193 289 166 262V154Q166 111 179 95.5Q192 80 227 79Q250 79 266.5 83.5Q283 88 292 93L305 1Q294 -4 270.5 -7.5Q247 -11 227 -11Q156 -11 113 18Q70 47 70 111V189Q61 183 55.5 178.5Q50 174 45.5 171Q41 168 37 165Q33 162 28 159ZM166 391Q182 411 196.5 438Q211 465 222.5 496.5Q234 528 241 563Q248 598 248 634Q248 660 241.5 677Q235 694 216 694Q193 694 179.5 657Q166 620 166 534Z" glyph-name="afii61289" horiz-adv-x="359" unicode="&#8467;" /><glyph d="M993 222Q890 222 831.5 276.5Q773 331 773 442Q773 526 795 588.5Q817 651 855.5 692.5Q894 734 946.5 755Q999 776 1061 776Q1165 776 1223 721.5Q1281 667 1281 555Q1281 472 1259 409.5Q1237 347 1198.5 305.5Q1160 264 1107.5 243Q1055 222 993 222ZM277 448 210 581 189 391 141 0H41L134 764H223L453 316L520 183L541 373L588 764H689L596 0H507ZM1003 308Q1039 308 1072 321Q1105 334 1130 362.5Q1155 391 1169.5 435.5Q1184 480 1184 543Q1184 621 1147.5 655.5Q1111 690 1050 690Q1013 690 980.5 676.5Q948 663 923.5 634.5Q899 606 884.5 561Q870 516 870 453Q870 376 906 342Q942 308 1003 308ZM1022 0H910L923 111H1035Z" glyph-name="afii61352" horiz-adv-x="1301" unicode="&#8470;" /><glyph d="M311 800 379 592H284L199 800ZM451 328Q451 350 441 372Q431 394 413 412Q395 430 368.5 441.5Q342 453 307 453Q271 453 239 438Q207 423 183 394Q159 365 145.5 322.5Q132 280 132 224Q132 152 166.5 114.5Q201 77 261 77Q296 77 325 88.5Q354 100 376.5 118Q399 136 414 158Q429 180 435 202ZM522 132 513 0H426L423 76Q393 35 344.5 11.5Q296 -12 241 -12Q138 -12 85 44Q32 100 32 206Q32 286 52 348.5Q72 411 108.5 454Q145 497 196 519.5Q247 542 309 542Q364 542 406.5 518.5Q449 495 469 454L491 530H578L554 398Z" glyph-name="agrave" horiz-adv-x="616" unicode="&#224;" /><glyph d="M189 652 200 742H488L477 652ZM451 328Q451 350 441 372Q431 394 413 412Q395 430 368.5 441.5Q342 453 307 453Q271 453 239 438Q207 423 183 394Q159 365 145.5 322.5Q132 280 132 224Q132 152 166.5 114.5Q201 77 261 77Q296 77 325 88.5Q354 100 376.5 118Q399 136 414 158Q429 180 435 202ZM522 132 513 0H426L423 76Q393 35 344.5 11.5Q296 -12 241 -12Q138 -12 85 44Q32 100 32 206Q32 286 52 348.5Q72 411 108.5 454Q145 497 196 519.5Q247 542 309 542Q364 542 406.5 518.5Q449 495 469 454L491 530H578L554 398Z" glyph-name="amacron" horiz-adv-x="616" unicode="&#257;" /><glyph d="M342 705Q283 705 250.5 679.5Q218 654 218 598Q218 578 224 561.5Q230 545 239.5 530.5Q249 516 260.5 504Q272 492 283 480Q308 455 339.5 424.5Q371 394 403 363.5Q435 333 466.5 304Q498 275 523 253Q550 313 559.5 378.5Q569 444 561 509L665 473Q666 439 661.5 401.5Q657 364 648 327.5Q639 291 625 255.5Q611 220 593 190Q613 169 634.5 149Q656 129 677 108L662 -11Q630 18 599 47Q568 76 536 106Q430 -12 258 -12Q213 -12 170.5 -2Q128 8 95 31Q62 54 42 90.5Q22 127 22 180Q22 229 36 269Q50 309 73.5 341Q97 373 127.5 397Q158 421 191 436Q178 448 165.5 462.5Q153 477 142.5 495Q132 513 125.5 535.5Q119 558 119 585Q119 635 135.5 674Q152 713 182.5 739Q213 765 256.5 778.5Q300 792 353 792Q454 792 501.5 756Q549 720 556 655L455 621Q452 663 427.5 684Q403 705 342 705ZM467 168Q422 209 363.5 263.5Q305 318 247 375Q218 359 194.5 341.5Q171 324 155 302.5Q139 281 130.5 254Q122 227 122 192Q122 152 139 128.5Q156 105 179 93Q202 81 227.5 77.5Q253 74 269 74Q337 74 383 98.5Q429 123 467 168Z" glyph-name="ampersand" horiz-adv-x="736" unicode="&amp;" /><glyph d="M451 328Q451 350 441 372Q431 394 413 412Q395 430 368.5 441.5Q342 453 307 453Q271 453 239 438Q207 423 183 394Q159 365 145.5 322.5Q132 280 132 224Q132 152 166.5 114.5Q201 77 261 77Q296 77 325 88.5Q354 100 376.5 118Q399 136 414 158Q429 180 435 202ZM423 87Q411 67 391.5 49Q372 31 347.5 17.5Q323 4 295.5 -4Q268 -12 241 -12Q138 -12 85 44Q32 100 32 206Q32 286 52 348.5Q72 411 108.5 454Q145 497 196 519.5Q247 542 309 542Q364 542 406.5 518.5Q449 495 469 454L491 530H578L554 398L522 132L513 0Q457 -17 431 -46Q405 -75 405 -103Q405 -139 446 -139Q468 -139 485 -134Q502 -129 517 -122L531 -187Q514 -197 487 -204.5Q460 -212 426 -212Q405 -212 386 -207.5Q367 -203 352.5 -192.5Q338 -182 329.5 -165.5Q321 -149 321 -125Q321 -84 347.5 -45.5Q374 -7 425 23Z" glyph-name="aogonek" horiz-adv-x="616" unicode="&#261;" /><glyph d="M486 487Q510 487 529.5 495.5Q549 504 563.5 514.5Q578 525 586 534Q594 543 594 544L638 466Q622 447 599 431Q579 417 550 406Q521 395 480 395Q436 395 403.5 406Q371 417 341.5 429.5Q312 442 282 453Q252 464 214 464Q190 464 170.5 455.5Q151 447 137 436.5Q123 426 114.5 417Q106 408 106 407L62 485Q78 505 101 521Q121 535 150.5 545.5Q180 556 220 556Q264 556 296.5 545Q329 534 358.5 521.5Q388 509 418 498Q448 487 486 487ZM486 318Q510 318 529.5 326.5Q549 335 563.5 345.5Q578 356 586 365Q594 374 594 375L638 297Q622 278 599 262Q579 248 550 237Q521 226 480 226Q436 226 403.5 237Q371 248 341.5 260.5Q312 273 282 284Q252 295 214 295Q190 295 170.5 286.5Q151 278 137 267.5Q123 257 114.5 248Q106 239 106 238L62 316Q78 336 101 352Q121 366 150.5 376.5Q180 387 220 387Q264 387 296.5 376Q329 365 358.5 352.5Q388 340 418 329Q448 318 486 318Z" glyph-name="approxequal" horiz-adv-x="700" unicode="&#8776;" /><glyph d="M451 328Q451 350 441 372Q431 394 413 412Q395 430 368.5 441.5Q342 453 307 453Q271 453 239 438Q207 423 183 394Q159 365 145.5 322.5Q132 280 132 224Q132 152 166.5 114.5Q201 77 261 77Q296 77 325 88.5Q354 100 376.5 118Q399 136 414 158Q429 180 435 202ZM522 132 513 0H426L423 76Q393 35 344.5 11.5Q296 -12 241 -12Q138 -12 85 44Q32 100 32 206Q32 286 52 348.5Q72 411 108.5 454Q145 497 196 519.5Q247 542 309 542Q364 542 406.5 518.5Q449 495 469 454L491 530H578L554 398ZM332 648Q355 648 370 663.5Q385 679 385 704Q385 744 344 744Q321 744 306 728.5Q291 713 291 688Q291 648 332 648ZM324 580Q274 580 247.5 607.5Q221 635 221 679Q221 707 230.5 731Q240 755 257 773Q274 791 298 801.5Q322 812 352 812Q402 812 428.5 784.5Q455 757 455 713Q455 685 445.5 661Q436 637 419 619Q402 601 378 590.5Q354 580 324 580Z" glyph-name="aring" horiz-adv-x="616" unicode="&#229;" /><glyph d="M451 328Q451 350 441 372Q431 394 413 412Q395 430 368.5 441.5Q342 453 307 453Q271 453 239 438Q207 423 183 394Q159 365 145.5 322.5Q132 280 132 224Q132 152 166.5 114.5Q201 77 261 77Q296 77 325 88.5Q354 100 376.5 118Q399 136 414 158Q429 180 435 202ZM522 132 513 0H426L423 76Q393 35 344.5 11.5Q296 -12 241 -12Q138 -12 85 44Q32 100 32 206Q32 286 52 348.5Q72 411 108.5 454Q145 497 196 519.5Q247 542 309 542Q364 542 406.5 518.5Q449 495 469 454L491 530H578L554 398ZM431 904 360 811Q407 809 431 782.5Q455 756 455 714Q455 656 419.5 618Q384 580 324 580Q274 580 248 607Q222 634 222 678Q222 699 228.5 720.5Q235 742 246 759L335 904ZM344 744Q321 744 306 728Q291 712 291 689Q291 670 301.5 658.5Q312 647 332 647Q356 647 371 663Q386 679 386 704Q386 722 375 733Q364 744 344 744Z" glyph-name="aringacute" horiz-adv-x="616" unicode="&#507;" /><glyph d="M401 -11 144 406H256L346 253L393 165L392 254V781H487V254L486 165L533 253L623 406H735L478 -11Z" glyph-name="arrowdown" horiz-adv-x="880" unicode="&#8595;" /><glyph d="M38 428 455 685V573L302 483L214 436L303 437H830V342H303L214 343L302 296L455 206V94L38 351Z" glyph-name="arrowleft" horiz-adv-x="880" unicode="&#8592;" /><glyph d="M842 351 425 94V206L578 296L666 343L577 342H50V437H577L666 436L578 483L425 573V685L842 428Z" glyph-name="arrowright" horiz-adv-x="880" unicode="&#8594;" /><glyph d="M478 792 735 375H623L533 528L486 616L487 527V0H392V527L393 616L346 528L256 375H144L401 792Z" glyph-name="arrowup" horiz-adv-x="880" unicode="&#8593;" /><glyph d="M299 691 236 581 131 400H27L261 792H359L497 400H397L336 581Z" glyph-name="asciicircum" horiz-adv-x="506" unicode="^" /><glyph d="M30 346Q44 366 64 381Q81 394 106.5 404.5Q132 415 167 415Q202 415 224 403.5Q246 392 263 377.5Q280 363 297 351.5Q314 340 339 340Q359 340 375 347Q391 354 402 362.5Q413 371 419 378Q425 385 425 385L456 323Q442 304 422 289Q405 276 379.5 265Q354 254 319 254Q283 254 261 265.5Q239 277 222 291.5Q205 306 188.5 317.5Q172 329 147 329Q127 329 110.5 321.5Q94 314 83 306Q70 296 61 284Z" glyph-name="asciitilde" horiz-adv-x="486" unicode="~" /><glyph d="M132 506 72 555 142 625 52 645 87 725 169 686 171 780H253L233 686L325 725L340 645L244 625L298 555L226 506L189 588Z" glyph-name="asterisk" horiz-adv-x="315" unicode="*" /><glyph d="M629 60 627 132Q604 97 558.5 73Q513 49 459 49Q418 49 382 60.5Q346 72 319 96Q292 120 276 158Q260 196 260 248Q260 326 282.5 381.5Q305 437 341.5 472.5Q378 508 424.5 524.5Q471 541 519 541Q573 541 613 517Q653 493 667 458L687 530H775L751 398L720 146Q773 143 810 167.5Q847 192 870 234Q893 276 903.5 329.5Q914 383 914 438Q914 495 895 545.5Q876 596 835 633.5Q794 671 728.5 692.5Q663 714 571 714Q469 714 388 678.5Q307 643 250 577.5Q193 512 162.5 420Q132 328 132 214Q132 135 153.5 72.5Q175 10 218.5 -33.5Q262 -77 327 -100.5Q392 -124 479 -124Q550 -124 603 -113.5Q656 -103 693 -86.5Q730 -70 752 -50Q774 -30 782 -10L875 -42Q860 -74 828.5 -104.5Q797 -135 746.5 -158.5Q696 -182 626 -196.5Q556 -211 463 -211Q360 -211 280.5 -182.5Q201 -154 147 -101Q93 -48 65 29Q37 106 37 203Q37 340 77 450.5Q117 561 189.5 639Q262 717 362 759Q462 801 582 801Q691 801 770.5 775.5Q850 750 902.5 703.5Q955 657 980.5 593Q1006 529 1006 452Q1006 364 987 291.5Q968 219 928.5 167.5Q889 116 828 88Q767 60 684 60ZM648 327Q648 349 640 371Q632 393 616 411Q600 429 575 440.5Q550 452 516 452Q484 452 455 442.5Q426 433 404 410.5Q382 388 369 350.5Q356 313 356 258Q356 191 389.5 164.5Q423 138 477 138Q511 138 538.5 149.5Q566 161 587 179Q608 197 621.5 219Q635 241 640 263Z" glyph-name="at" horiz-adv-x="1043" unicode="@" /><glyph d="M451 328Q451 350 441 372Q431 394 413 412Q395 430 368.5 441.5Q342 453 307 453Q271 453 239 438Q207 423 183 394Q159 365 145.5 322.5Q132 280 132 224Q132 152 166.5 114.5Q201 77 261 77Q296 77 325 88.5Q354 100 376.5 118Q399 136 414 158Q429 180 435 202ZM522 132 513 0H426L423 76Q393 35 344.5 11.5Q296 -12 241 -12Q138 -12 85 44Q32 100 32 206Q32 286 52 348.5Q72 411 108.5 454Q145 497 196 519.5Q247 542 309 542Q364 542 406.5 518.5Q449 495 469 454L491 530H578L554 398ZM272 778Q305 778 325.5 767Q346 756 361 742.5Q376 729 389.5 717.5Q403 706 422 706Q447 706 461 719.5Q475 733 480 752L556 741Q541 684 504.5 650Q468 616 404 616Q371 616 350.5 627.5Q330 639 315 652.5Q300 666 286.5 677Q273 688 254 688Q229 688 215 674.5Q201 661 196 642L120 653Q135 710 171.5 744Q208 778 272 778Z" glyph-name="atilde" horiz-adv-x="616" unicode="&#227;" /><glyph d="M354 542Q457 542 510 486Q563 430 563 324Q563 244 543 181.5Q523 119 486.5 76Q450 33 399 10.5Q348 -12 286 -12Q231 -12 188.5 11.5Q146 35 126 76L105 0H18L41 132L123 800H218L176 459Q206 497 253 519.5Q300 542 354 542ZM144 202Q144 180 154 158Q164 136 182 118Q200 100 227 88.5Q254 77 288 77Q325 77 357 92Q389 107 412.5 136Q436 165 449.5 207.5Q463 250 463 306Q463 378 428.5 415.5Q394 453 334 453Q300 453 270.5 441.5Q241 430 218.5 412Q196 394 181 371.5Q166 349 160 328Z" glyph-name="b" horiz-adv-x="611" unicode="b" /><glyph d="M76 870H176L288 -90H188Z" glyph-name="backslash" horiz-adv-x="350" unicode="\" /><glyph d="M137 -130H37L154 830H254Z" glyph-name="bar" horiz-adv-x="286" unicode="|" /><glyph d="M245 -38 234 -130H209Q156 -130 125 -115Q94 -100 79 -76Q64 -52 61.5 -22Q59 8 62 36L85 221Q88 247 85.5 263.5Q83 280 75.5 289.5Q68 299 55.5 302.5Q43 306 26 306H5L16 394H37Q71 394 90.5 410.5Q110 427 116 479L139 664Q142 693 152 722.5Q162 752 183 776Q204 800 238.5 815Q273 830 326 830H351L340 738H320Q303 738 288.5 734.5Q274 731 263 721.5Q252 712 244.5 695.5Q237 679 234 653L211 469Q207 435 191.5 402.5Q176 370 143 350Q171 329 178.5 297Q186 265 182 231L159 47Q156 21 159.5 4.5Q163 -12 172 -21.5Q181 -31 194.5 -34.5Q208 -38 225 -38Z" glyph-name="braceleft" horiz-adv-x="301" unicode="{" /><glyph d="M61 738 72 830H97Q150 830 181 815Q212 800 227.5 776Q243 752 245.5 722.5Q248 693 245 664L222 479Q216 427 231.5 410.5Q247 394 281 394H301L290 306H270Q253 306 239.5 302.5Q226 299 216.5 289.5Q207 280 200.5 263.5Q194 247 191 221L168 36Q165 8 155 -22Q145 -52 123.5 -76Q102 -100 67.5 -115Q33 -130 -20 -130H-44L-34 -38H-13Q4 -38 18.5 -34.5Q33 -31 44 -21.5Q55 -12 62.5 4.5Q70 21 73 47L96 231Q100 265 115.5 297.5Q131 330 163 350Q136 371 128.5 403Q121 435 125 469L148 653Q151 679 147.5 695.5Q144 712 135 721.5Q126 731 112.5 734.5Q99 738 82 738Z" glyph-name="braceright" horiz-adv-x="301" unicode="}" /><glyph d="M240 738 145 -38H203L192 -130H34L151 830H309L298 738Z" glyph-name="bracketleft" horiz-adv-x="263" unicode="[" /><glyph d="M28 -38 123 738H65L76 830H234L117 -130H-40L-30 -38Z" glyph-name="bracketright" horiz-adv-x="263" unicode="]" /><glyph d="M335 595Q282 595 247.5 609Q213 623 194.5 649Q176 675 171.5 713Q167 751 173 800H249Q240 733 262.5 706Q285 679 343 679Q401 679 430 706Q459 733 467 800H547Q541 751 527.5 713Q514 675 489 649Q464 623 426 609Q388 595 335 595Z" glyph-name="breve" horiz-adv-x="600" unicode="&#728;" /><glyph d="M137 -130H37L91 310H191ZM200 390H100L154 830H254Z" glyph-name="brokenbar" horiz-adv-x="282" unicode="&#166;" /><glyph d="M319 196H40L74 474H353Z" glyph-name="bullet" horiz-adv-x="391" unicode="&#8226;" /><glyph d="M250 -12Q145 -12 89 45Q33 102 33 210Q33 289 54 351Q75 413 112.5 455.5Q150 498 202.5 520Q255 542 318 542Q372 542 410 531.5Q448 521 472.5 502.5Q497 484 509.5 458Q522 432 526 400L427 366Q423 408 398 432.5Q373 457 312 457Q273 457 239.5 442Q206 427 181 397.5Q156 368 142 324.5Q128 281 128 225Q128 153 163 113Q198 73 260 73Q323 73 356 96.5Q389 120 403 164L493 132Q482 100 463 73.5Q444 47 415 28Q386 9 345.5 -1.5Q305 -12 250 -12Z" glyph-name="c" horiz-adv-x="562" unicode="c" /><glyph d="M509 800 372 592H277L397 800ZM250 -12Q145 -12 89 45Q33 102 33 210Q33 289 54 351Q75 413 112.5 455.5Q150 498 202.5 520Q255 542 318 542Q372 542 410 531.5Q448 521 472.5 502.5Q497 484 509.5 458Q522 432 526 400L427 366Q423 408 398 432.5Q373 457 312 457Q273 457 239.5 442Q206 427 181 397.5Q156 368 142 324.5Q128 281 128 225Q128 153 163 113Q198 73 260 73Q323 73 356 96.5Q389 120 403 164L493 132Q482 100 463 73.5Q444 47 415 28Q386 9 345.5 -1.5Q305 -12 250 -12Z" glyph-name="cacute" horiz-adv-x="562" unicode="&#263;" /><glyph d="M286 592 160 800H253L338 673L455 800H556L378 592Z" glyph-name="caron" horiz-adv-x="600" unicode="&#711;" /><glyph d="M250 -12Q145 -12 89 45Q33 102 33 210Q33 289 54 351Q75 413 112.5 455.5Q150 498 202.5 520Q255 542 318 542Q372 542 410 531.5Q448 521 472.5 502.5Q497 484 509.5 458Q522 432 526 400L427 366Q423 408 398 432.5Q373 457 312 457Q273 457 239.5 442Q206 427 181 397.5Q156 368 142 324.5Q128 281 128 225Q128 153 163 113Q198 73 260 73Q323 73 356 96.5Q389 120 403 164L493 132Q482 100 463 73.5Q444 47 415 28Q386 9 345.5 -1.5Q305 -12 250 -12ZM278 592 152 800H245L330 673L447 800H548L370 592Z" glyph-name="ccaron" horiz-adv-x="562" unicode="&#269;" /><glyph d="M493 132Q483 102 466 77.5Q449 53 423.5 34.5Q398 16 363.5 4Q329 -8 283 -11L273 -35Q305 -43 328.5 -61Q352 -79 352 -114Q352 -140 341 -158.5Q330 -177 311.5 -189Q293 -201 269 -206.5Q245 -212 218 -212Q186 -212 162.5 -205.5Q139 -199 129 -194L152 -141Q159 -144 168 -148Q176 -151 185 -153Q194 -155 205 -155Q214 -155 224.5 -154Q235 -153 244 -149Q253 -145 259 -138.5Q265 -132 265 -121Q265 -100 242 -90Q219 -80 184 -76L215 -10Q127 -1 80 55Q33 111 33 210Q33 289 54 351Q75 413 112.5 455.5Q150 498 202.5 520Q255 542 318 542Q372 542 410 531.5Q448 521 472.5 502.5Q497 484 509.5 458Q522 432 526 400L427 366Q423 408 398 432.5Q373 457 312 457Q273 457 239.5 442Q206 427 181 397.5Q156 368 142 324.5Q128 281 128 225Q128 153 163 113Q198 73 260 73Q323 73 356 96.5Q389 120 403 164L493 132Z" glyph-name="ccedilla" horiz-adv-x="562" unicode="&#231;" /><glyph d="M250 -12Q145 -12 89 45Q33 102 33 210Q33 289 54 351Q75 413 112.5 455.5Q150 498 202.5 520Q255 542 318 542Q372 542 410 531.5Q448 521 472.5 502.5Q497 484 509.5 458Q522 432 526 400L427 366Q423 408 398 432.5Q373 457 312 457Q273 457 239.5 442Q206 427 181 397.5Q156 368 142 324.5Q128 281 128 225Q128 153 163 113Q198 73 260 73Q323 73 356 96.5Q389 120 403 164L493 132Q482 100 463 73.5Q444 47 415 28Q386 9 345.5 -1.5Q305 -12 250 -12ZM396 800 522 592H429L344 719L227 592H126L304 800Z" glyph-name="ccircumflex" horiz-adv-x="562" unicode="&#265;" /><glyph d="M386 639H274L288 750H400ZM250 -12Q145 -12 89 45Q33 102 33 210Q33 289 54 351Q75 413 112.5 455.5Q150 498 202.5 520Q255 542 318 542Q372 542 410 531.5Q448 521 472.5 502.5Q497 484 509.5 458Q522 432 526 400L427 366Q423 408 398 432.5Q373 457 312 457Q273 457 239.5 442Q206 427 181 397.5Q156 368 142 324.5Q128 281 128 225Q128 153 163 113Q198 73 260 73Q323 73 356 96.5Q389 120 403 164L493 132Q482 100 463 73.5Q444 47 415 28Q386 9 345.5 -1.5Q305 -12 250 -12Z" glyph-name="cdotaccent" horiz-adv-x="562" unicode="&#267;" /><glyph d="M297 11 278 -35Q310 -43 333.5 -61Q357 -79 357 -114Q357 -140 346 -158.5Q335 -177 316.5 -189Q298 -201 274 -206.5Q250 -212 223 -212Q191 -212 167.5 -205.5Q144 -199 134 -194L157 -141Q164 -144 173 -148Q181 -151 190 -153Q199 -155 210 -155Q219 -155 229.5 -154Q240 -153 249 -149Q258 -145 264 -138.5Q270 -132 270 -121Q270 -100 247 -90Q224 -80 189 -76L230 11Z" glyph-name="cedilla" horiz-adv-x="600" unicode="&#184;" /><glyph d="M512 248Q493 178 422.5 137.5Q352 97 242 105L204 0H115L161 124Q52 173 52 325Q52 408 74.5 471.5Q97 535 137.5 577.5Q178 620 234 640.5Q290 661 357 657L397 764H486L441 643Q492 626 516 593.5Q540 561 545 516L446 482Q444 506 435 524.5Q426 543 408 555L273 189H279Q342 189 375 212.5Q408 236 422 280L512 248ZM326 573Q286 575 252.5 557Q219 539 195.5 506.5Q172 474 159 431Q146 388 146 340Q146 297 159 266Q172 235 195 216L326 573Z" glyph-name="cent" horiz-adv-x="572" unicode="&#162;" /><glyph d="M404 800 530 592H437L352 719L235 592H134L312 800Z" glyph-name="circumflex" horiz-adv-x="600" unicode="&#710;" /><glyph d="M349 0Q368 38 381.5 73.5Q395 109 404.5 147Q414 185 420.5 227Q427 269 431 320L428 321Q415 290 396 261Q377 232 352 209.5Q327 187 296 173.5Q265 160 228 160Q191 160 159 173.5Q127 187 103 210.5Q79 234 65.5 265.5Q52 297 52 334Q52 373 64.5 406Q77 439 100 463Q123 487 155 500.5Q187 514 226 514Q252 514 272.5 507Q293 500 310 491L312 493Q295 518 284.5 547.5Q274 577 274 610Q274 647 287.5 680Q301 713 324.5 737.5Q348 762 380 776Q412 790 450 790Q488 790 520 776Q552 762 575.5 737.5Q599 713 612.5 680Q626 647 626 610Q626 577 615.5 547.5Q605 518 588 493L590 491Q607 500 627.5 507Q648 514 674 514Q713 514 745 500.5Q777 487 800 463Q823 439 835.5 406Q848 373 848 334Q848 297 834.5 265.5Q821 234 797 210.5Q773 187 741 173.5Q709 160 672 160Q635 160 604 173.5Q573 187 548 209.5Q523 232 504 261Q485 290 472 321L469 320Q473 269 479.5 227Q486 185 495.5 147Q505 109 518.5 73.5Q532 38 551 0H349Z" glyph-name="club" horiz-adv-x="900" unicode="&#9827;" /><glyph d="M136 0H24L37 111H149ZM179 354H67L81 465H193Z" glyph-name="colon" horiz-adv-x="240" unicode=":" /><glyph d="M654 810 613 731Q650 705 668 667Q686 629 691 581L589 546Q587 575 581.5 597.5Q576 620 564 637L280 89Q311 79 354 79Q398 79 430 87Q462 95 485 112Q508 129 523 155.5Q538 182 548 218L642 185Q628 141 604 105Q580 69 543.5 43Q507 17 457.5 2.5Q408 -12 343 -12Q284 -12 236 2L211 -46H136L175 29Q168 34 162 38Q156 42 149 48L101 -46H26L103 104Q60 177 60 292Q60 393 83.5 481Q107 569 154.5 634.5Q202 700 273 738Q344 776 440 776H451L469 810H544L522 768Q532 767 538.5 765Q545 763 553 761L579 810ZM403 684Q334 681 288 644Q242 607 214.5 551.5Q187 496 175.5 428.5Q164 361 164 297Q164 280 165 263Q166 246 169 230L403 684ZM200 146Q209 132 222 121L508 675Q497 679 477 682L200 146Z" glyph-name="colonmonetary" horiz-adv-x="716" unicode="&#8353;" /><glyph d="M152 111 34 -149H-27L37 111Z" glyph-name="comma" horiz-adv-x="240" unicode="," /><glyph d="M52 341Q52 432 89.5 513.5Q127 595 190 657Q253 719 335.5 755.5Q418 792 507 792Q584 792 649 765Q714 738 761.5 691Q809 644 835.5 579.5Q862 515 862 441Q862 349 824.5 267Q787 185 724.5 123Q662 61 580 24.5Q498 -12 408 -12Q331 -12 266 15Q201 42 153.5 89.5Q106 137 79 201.5Q52 266 52 341ZM496 701Q427 701 363.5 673Q300 645 251 597Q202 549 173 486Q144 423 144 352Q144 294 164.5 244.5Q185 195 222 158Q259 121 309 100Q359 79 419 79Q488 79 552 107Q616 135 664.5 183Q713 231 742 295Q771 359 771 430Q771 487 750.5 536.5Q730 586 693 622.5Q656 659 606 680Q556 701 496 701ZM211 342Q211 410 230.5 466Q250 522 286 562Q322 602 373.5 624Q425 646 489 646Q541 646 577.5 635Q614 624 638 604Q662 584 675 557Q688 530 692 498L592 464Q588 507 564.5 531Q541 555 484 555Q447 555 415 543Q383 531 359.5 506Q336 481 323 444Q310 407 310 356Q310 292 343 258.5Q376 225 436 225Q498 225 528.5 248Q559 271 574 316L666 284Q654 252 635 224.5Q616 197 587 177Q558 157 518.5 145.5Q479 134 426 134Q323 134 267 188Q211 242 211 342Z" glyph-name="copyright" horiz-adv-x="900" unicode="&#169;" /><glyph d="M85 330Q85 361 90 393.5Q95 426 104.5 457Q114 488 127.5 515Q141 542 157 561L65 666L141 734L234 627Q273 652 319.5 664Q366 676 416 676Q466 676 509 664Q552 652 584 627L705 734L763 666L645 561Q674 511 674 437Q674 363 653.5 303.5Q633 244 601 203L694 98L618 30L524 137Q486 112 439.5 100Q393 88 343 88Q293 88 249.5 100Q206 112 174 137L54 30L-4 98L113 203Q85 256 85 330ZM354 178Q398 178 437.5 193Q477 208 508 238Q539 268 557 314Q575 360 575 422Q575 467 561 498.5Q547 530 524 549.5Q501 569 470 577.5Q439 586 404 586Q365 586 325.5 573.5Q286 561 254.5 532.5Q223 504 203.5 457.5Q184 411 184 343Q184 298 197.5 266.5Q211 235 234.5 215.5Q258 196 289 187Q320 178 354 178Z" glyph-name="currency" horiz-adv-x="746" unicode="&#164;" /><glyph d="M309 542Q363 542 404.5 519.5Q446 497 467 459L509 800H604L522 132L513 0H426L423 76Q393 35 344.5 11.5Q296 -12 241 -12Q138 -12 85 44Q32 100 32 206Q32 286 52 348.5Q72 411 108.5 454Q145 497 196 519.5Q247 542 309 542ZM451 328Q451 349 441 371.5Q431 394 413 412Q395 430 368.5 441.5Q342 453 307 453Q270 453 238 438Q206 423 182.5 394Q159 365 145.5 322.5Q132 280 132 224Q132 152 166.5 114.5Q201 77 261 77Q296 77 325 88.5Q354 100 376.5 118Q399 136 414 158Q429 180 435 202Z" glyph-name="d" horiz-adv-x="611" unicode="d" /><glyph d="M252 780 226 662 346 673 336 590 218 602 205 390H119L158 602L38 590L48 673L166 662L168 780Z" glyph-name="dagger" horiz-adv-x="310" unicode="&#8224;" /><glyph d="M252 780 226 662 346 673 336 590 218 602 217 551 206 501 326 512 316 429 199 441 186 229H100L139 441L18 429L28 512L146 501L147 551L158 602L38 590L48 673L166 662L168 780Z" glyph-name="daggerdbl" horiz-adv-x="310" unicode="&#8225;" /><glyph d="M803 800 708 592H622L695 800ZM309 542Q363 542 404.5 519.5Q446 497 467 459L509 800H604L522 132L513 0H426L423 76Q393 35 344.5 11.5Q296 -12 241 -12Q138 -12 85 44Q32 100 32 206Q32 286 52 348.5Q72 411 108.5 454Q145 497 196 519.5Q247 542 309 542ZM451 328Q451 349 441 371.5Q431 394 413 412Q395 430 368.5 441.5Q342 453 307 453Q270 453 238 438Q206 423 182.5 394Q159 365 145.5 322.5Q132 280 132 224Q132 152 166.5 114.5Q201 77 261 77Q296 77 325 88.5Q354 100 376.5 118Q399 136 414 158Q429 180 435 202Z" glyph-name="dcaron" horiz-adv-x="611" unicode="&#271;" /><glyph d="M309 542Q363 542 404.5 519.5Q446 497 467 459L486 619H351L360 697H496L509 800H604L591 697H694L685 619H582L522 132L513 0H426L423 76Q393 35 344.5 11.5Q296 -12 241 -12Q138 -12 85 44Q32 100 32 206Q32 286 52 348.5Q72 411 108.5 454Q145 497 196 519.5Q247 542 309 542ZM451 328Q451 349 441 371.5Q431 394 413 412Q395 430 368.5 441.5Q342 453 307 453Q270 453 238 438Q206 423 182.5 394Q159 365 145.5 322.5Q132 280 132 224Q132 152 166.5 114.5Q201 77 261 77Q296 77 325 88.5Q354 100 376.5 118Q399 136 414 158Q429 180 435 202Z" glyph-name="dcroat" horiz-adv-x="631" unicode="&#273;" /><glyph d="M259 489Q311 489 346.5 518.5Q382 548 382 612Q382 657 355.5 678Q329 699 284 699Q232 699 196.5 669.5Q161 640 161 576Q161 531 187.5 510Q214 489 259 489ZM249 412Q174 412 126 449.5Q78 487 78 564Q78 618 95.5 657.5Q113 697 143 723.5Q173 750 212 763Q251 776 294 776Q369 776 417 738.5Q465 701 465 624Q465 570 447.5 530.5Q430 491 400 464.5Q370 438 331 425Q292 412 249 412Z" glyph-name="degree" horiz-adv-x="478" unicode="&#176;" /><glyph d="M817 390Q764 348 712.5 300.5Q661 253 614 201.5Q567 150 525.5 96.5Q484 43 451 -10H449Q416 43 374.5 96.5Q333 150 286 201.5Q239 253 187.5 300.5Q136 348 83 390Q136 432 187.5 479.5Q239 527 286 578.5Q333 630 374.5 683.5Q416 737 449 790H451Q484 737 525.5 683.5Q567 630 614 578.5Q661 527 712.5 479.5Q764 432 817 390Z" glyph-name="diamond" horiz-adv-x="900" unicode="&#9830;" /><glyph d="M294 639H182L196 750H308ZM494 639H382L396 750H508Z" glyph-name="dieresis" horiz-adv-x="600" unicode="&#168;" /><glyph d="M80 343V437H620V343ZM407 120H293V235H407ZM407 545H293V660H407Z" glyph-name="divide" horiz-adv-x="700" unicode="&#247;" /><glyph d="M130 114Q92 123 66.5 136Q41 149 25 162L59 249Q78 237 102.5 223.5Q127 210 162 202L219 356Q194 360 168.5 367Q143 374 122.5 387.5Q102 401 89.5 422Q77 443 77 474Q77 526 100.5 561Q124 596 161 617.5Q198 639 243 648.5Q288 658 331 658L370 764H459L417 650Q461 642 490.5 628Q520 614 539 600L506 513Q484 528 455.5 541.5Q427 555 385 563L334 424Q363 420 392 413Q421 406 444 392.5Q467 379 481.5 356.5Q496 334 496 299Q496 240 470 202Q444 164 403 142Q362 120 313 111.5Q264 103 217 103L178 0H89ZM249 192Q279 192 305.5 198.5Q332 205 352 216.5Q372 228 383.5 245Q395 262 395 284Q395 312 373.5 323.5Q352 335 304 343L248 192H249ZM297 570Q274 570 252.5 564Q231 558 215 547Q199 536 189.5 521Q180 506 180 486Q180 465 195.5 455Q211 445 249 437L298 570H297Z" glyph-name="dollar" horiz-adv-x="553" unicode="$" /><glyph d="M394 639H282L296 750H408Z" glyph-name="dotaccent" horiz-adv-x="600" unicode="&#729;" /><glyph d="M294 -173H182L196 -62H308Z" glyph-name="dotbelowcomb" horiz-adv-x="600" unicode="&#803;" /><glyph d="M106 530H202L137 0H41Z" glyph-name="dotlessi" horiz-adv-x="258" unicode="&#305;" /><glyph d="M131 226Q126 148 162.5 110Q199 72 266 72Q331 72 363 94Q395 116 409 156L501 124Q491 96 471 71Q451 46 421 27.5Q391 9 350.5 -1.5Q310 -12 257 -12Q151 -12 91.5 43Q32 98 32 209Q32 292 54 354.5Q76 417 115 458.5Q154 500 207 521Q260 542 322 542Q428 542 479 487Q530 432 530 329Q530 314 528.5 289.5Q527 265 521 226ZM313 459Q248 459 202.5 422.5Q157 386 142 307H428Q437 375 409.5 417Q382 459 313 459Z" glyph-name="e" horiz-adv-x="582" unicode="e" /><glyph d="M513 800 376 592H281L401 800ZM131 226Q126 148 162.5 110Q199 72 266 72Q331 72 363 94Q395 116 409 156L501 124Q491 96 471 71Q451 46 421 27.5Q391 9 350.5 -1.5Q310 -12 257 -12Q151 -12 91.5 43Q32 98 32 209Q32 292 54 354.5Q76 417 115 458.5Q154 500 207 521Q260 542 322 542Q428 542 479 487Q530 432 530 329Q530 314 528.5 289.5Q527 265 521 226ZM313 459Q248 459 202.5 422.5Q157 386 142 307H428Q437 375 409.5 417Q382 459 313 459Z" glyph-name="eacute" horiz-adv-x="582" unicode="&#233;" /><glyph d="M131 226Q126 148 162.5 110Q199 72 266 72Q331 72 363 94Q395 116 409 156L501 124Q491 96 471 71Q451 46 421 27.5Q391 9 350.5 -1.5Q310 -12 257 -12Q151 -12 91.5 43Q32 98 32 209Q32 292 54 354.5Q76 417 115 458.5Q154 500 207 521Q260 542 322 542Q428 542 479 487Q530 432 530 329Q530 314 528.5 289.5Q527 265 521 226ZM313 459Q248 459 202.5 422.5Q157 386 142 307H428Q437 375 409.5 417Q382 459 313 459ZM329 595Q276 595 241.5 609Q207 623 188.5 649Q170 675 165.5 713Q161 751 167 800H243Q234 733 256.5 706Q279 679 337 679Q395 679 424 706Q453 733 461 800H541Q535 751 521.5 713Q508 675 483 649Q458 623 420 609Q382 595 329 595Z" glyph-name="ebreve" horiz-adv-x="582" unicode="&#277;" /><glyph d="M131 226Q126 148 162.5 110Q199 72 266 72Q331 72 363 94Q395 116 409 156L501 124Q491 96 471 71Q451 46 421 27.5Q391 9 350.5 -1.5Q310 -12 257 -12Q151 -12 91.5 43Q32 98 32 209Q32 292 54 354.5Q76 417 115 458.5Q154 500 207 521Q260 542 322 542Q428 542 479 487Q530 432 530 329Q530 314 528.5 289.5Q527 265 521 226ZM313 459Q248 459 202.5 422.5Q157 386 142 307H428Q437 375 409.5 417Q382 459 313 459ZM282 592 156 800H249L334 673L451 800H552L374 592Z" glyph-name="ecaron" horiz-adv-x="582" unicode="&#283;" /><glyph d="M131 226Q126 148 162.5 110Q199 72 266 72Q331 72 363 94Q395 116 409 156L501 124Q491 96 471 71Q451 46 421 27.5Q391 9 350.5 -1.5Q310 -12 257 -12Q151 -12 91.5 43Q32 98 32 209Q32 292 54 354.5Q76 417 115 458.5Q154 500 207 521Q260 542 322 542Q428 542 479 487Q530 432 530 329Q530 314 528.5 289.5Q527 265 521 226ZM313 459Q248 459 202.5 422.5Q157 386 142 307H428Q437 375 409.5 417Q382 459 313 459ZM400 800 526 592H433L348 719L231 592H130L308 800Z" glyph-name="ecircumflex" horiz-adv-x="582" unicode="&#234;" /><glyph d="M290 639H178L192 750H304ZM490 639H378L392 750H504ZM131 226Q126 148 162.5 110Q199 72 266 72Q331 72 363 94Q395 116 409 156L501 124Q491 96 471 71Q451 46 421 27.5Q391 9 350.5 -1.5Q310 -12 257 -12Q151 -12 91.5 43Q32 98 32 209Q32 292 54 354.5Q76 417 115 458.5Q154 500 207 521Q260 542 322 542Q428 542 479 487Q530 432 530 329Q530 314 528.5 289.5Q527 265 521 226ZM313 459Q248 459 202.5 422.5Q157 386 142 307H428Q437 375 409.5 417Q382 459 313 459Z" glyph-name="edieresis" horiz-adv-x="582" unicode="&#235;" /><glyph d="M390 639H278L292 750H404ZM131 226Q126 148 162.5 110Q199 72 266 72Q331 72 363 94Q395 116 409 156L501 124Q491 96 471 71Q451 46 421 27.5Q391 9 350.5 -1.5Q310 -12 257 -12Q151 -12 91.5 43Q32 98 32 209Q32 292 54 354.5Q76 417 115 458.5Q154 500 207 521Q260 542 322 542Q428 542 479 487Q530 432 530 329Q530 314 528.5 289.5Q527 265 521 226ZM313 459Q248 459 202.5 422.5Q157 386 142 307H428Q437 375 409.5 417Q382 459 313 459Z" glyph-name="edotaccent" horiz-adv-x="582" unicode="&#279;" /><glyph d="M314 800 382 592H287L202 800ZM131 226Q126 148 162.5 110Q199 72 266 72Q331 72 363 94Q395 116 409 156L501 124Q491 96 471 71Q451 46 421 27.5Q391 9 350.5 -1.5Q310 -12 257 -12Q151 -12 91.5 43Q32 98 32 209Q32 292 54 354.5Q76 417 115 458.5Q154 500 207 521Q260 542 322 542Q428 542 479 487Q530 432 530 329Q530 314 528.5 289.5Q527 265 521 226ZM313 459Q248 459 202.5 422.5Q157 386 142 307H428Q437 375 409.5 417Q382 459 313 459Z" glyph-name="egrave" horiz-adv-x="582" unicode="&#232;" /><glyph d="M394 685Q357 685 323 678.5Q289 672 263 655.5Q237 639 222 610.5Q207 582 207 539Q207 505 220 484.5Q233 464 255 453Q277 442 305 438Q333 434 363 434Q396 434 429.5 439Q463 444 490 459.5Q517 475 534 504Q551 533 551 581Q551 611 538.5 631Q526 651 505 663Q484 675 455.5 680Q427 685 394 685ZM352 350Q319 350 281.5 344Q244 338 213 320.5Q182 303 161.5 271Q141 239 141 188Q141 129 189.5 103Q238 77 319 77Q366 77 405 85.5Q444 94 471.5 112.5Q499 131 514.5 160Q530 189 530 230Q530 268 514 291Q498 314 472.5 327.5Q447 341 415 345.5Q383 350 352 350ZM308 -12Q172 -12 106.5 35.5Q41 83 41 170Q41 224 57 263.5Q73 303 97.5 330Q122 357 151.5 372.5Q181 388 209 394Q165 405 136.5 443Q108 481 108 541Q108 606 134 651Q160 696 202 724Q244 752 297 764Q350 776 405 776Q455 776 499.5 766.5Q544 757 577.5 736Q611 715 631 681.5Q651 648 651 599Q651 557 639 522Q627 487 607 461Q587 435 561 417.5Q535 400 507 394Q530 389 551.5 377.5Q573 366 590 346.5Q607 327 617 299.5Q627 272 627 235Q627 119 547 53.5Q467 -12 308 -12Z" glyph-name="eight" horiz-adv-x="700" unicode="8" /><glyph d="M196 0H84L97 111H209ZM526 0H414L427 111H539ZM856 0H744L757 111H869Z" glyph-name="ellipsis" horiz-adv-x="1020" unicode="&#8230;" /><glyph d="M192 652 203 742H491L480 652ZM131 226Q126 148 162.5 110Q199 72 266 72Q331 72 363 94Q395 116 409 156L501 124Q491 96 471 71Q451 46 421 27.5Q391 9 350.5 -1.5Q310 -12 257 -12Q151 -12 91.5 43Q32 98 32 209Q32 292 54 354.5Q76 417 115 458.5Q154 500 207 521Q260 542 322 542Q428 542 479 487Q530 432 530 329Q530 314 528.5 289.5Q527 265 521 226ZM313 459Q248 459 202.5 422.5Q157 386 142 307H428Q437 375 409.5 417Q382 459 313 459Z" glyph-name="emacron" horiz-adv-x="582" unicode="&#275;" /><glyph d="M945 290H45L56 380H956Z" glyph-name="emdash" horiz-adv-x="1000" unicode="&#8212;" /><glyph d="M45 290 56 380H456L445 290Z" glyph-name="endash" horiz-adv-x="500" unicode="&#8211;" /><glyph d="M438 346Q445 399 414.5 426Q384 453 329 453Q296 453 267.5 441Q239 429 217 411Q195 393 180 371Q165 349 160 328L120 0H25L73 399L83 530H170L172 455Q204 494 251.5 518Q299 542 354 542Q398 542 434 530.5Q470 519 494.5 496Q519 473 530 440Q541 407 536 363L491 -7Q486 -47 474 -84Q462 -121 437.5 -149.5Q413 -178 373 -195Q333 -212 272 -212Q251 -212 232 -208.5Q213 -205 202 -200L223 -111Q229 -115 245 -120Q261 -125 281 -124Q307 -124 326 -119Q345 -114 359 -100.5Q373 -87 382 -63Q391 -39 395 -1Z" glyph-name="eng" horiz-adv-x="587" unicode="&#331;" /><glyph d="M501 124Q484 81 447 47Q410 13 346 -2Q324 -7 306 -19.5Q288 -32 275.5 -47Q263 -62 256.5 -78Q250 -94 250 -106Q250 -121 259.5 -130Q269 -139 291 -139Q302 -139 314.5 -136.5Q327 -134 338 -130.5Q349 -127 356 -124Q363 -121 363 -120L377 -187Q360 -197 332.5 -204.5Q305 -212 271 -212Q250 -212 231 -207.5Q212 -203 197.5 -192.5Q183 -182 174.5 -165.5Q166 -149 166 -125Q166 -93 181 -63.5Q196 -34 224 -10Q133 -2 82.5 53Q32 108 32 211Q32 294 54 356Q76 418 115 459.5Q154 501 207 521.5Q260 542 322 542Q428 542 479 487Q530 432 530 329Q530 314 528.5 289.5Q527 265 521 226H131Q126 148 162.5 110Q199 72 266 72Q331 72 363 94Q395 116 409 156ZM313 459Q248 459 202.5 422.5Q157 386 142 307H428Q437 375 409.5 417Q382 459 313 459Z" glyph-name="eogonek" horiz-adv-x="582" unicode="&#281;" /><glyph d="M80 438V532H620V438ZM80 248V342H620V248Z" glyph-name="equal" horiz-adv-x="700" unicode="=" /><glyph d="M80 437H620V343H80ZM80 214H620V120H80ZM80 660H620V566H80Z" glyph-name="equivalence" horiz-adv-x="700" unicode="&#8801;" /><glyph d="M152 349Q155 290 168 238.5Q181 187 209.5 148.5Q238 110 284 87.5Q330 65 398 65Q521 65 591.5 113.5Q662 162 681 263H773Q763 191 731.5 139.5Q700 88 651.5 54Q603 20 539 4Q475 -12 398 -12Q312 -12 240 16Q168 44 116.5 96.5Q65 149 36.5 223Q8 297 8 388Q8 480 36.5 553.5Q65 627 116.5 679Q168 731 240 759Q312 787 398 787Q484 787 556 759Q628 731 679.5 679Q731 627 759.5 553.5Q788 480 788 388V349ZM398 711Q330 711 284 688.5Q238 666 209.5 627.5Q181 589 168 537Q155 485 152 426H643Q640 485 627 537Q614 589 585.5 627.5Q557 666 511.5 688.5Q466 711 398 711Z" glyph-name="estimated" horiz-adv-x="795" unicode="&#8494;" /><glyph d="M451 686Q489 638 516 563Q543 488 543 377Q543 182 468.5 85Q394 -12 252 -12Q149 -12 90.5 42.5Q32 97 32 208Q32 291 54 353.5Q76 416 114 458Q152 500 205 521Q258 542 319 542Q354 542 384.5 531.5Q415 521 435 504Q425 552 405.5 588.5Q386 625 361 654L184 591L193 660L313 703Q271 738 227.5 760.5Q184 783 146 800H311Q333 789 356.5 773.5Q380 758 406 736L540 784L531 715ZM309 454Q272 454 239.5 441Q207 428 183 399.5Q159 371 145 326Q131 281 131 218Q131 141 166.5 108Q202 75 263 75Q300 75 332.5 88Q365 101 389.5 129.5Q414 158 428.5 202.5Q443 247 443 311Q443 388 407 421Q371 454 309 454Z" glyph-name="eth" horiz-adv-x="589" unicode="&#240;" /><glyph d="M148 0H36L49 111H161ZM249 780 150 205H85L125 780Z" glyph-name="exclam" horiz-adv-x="264" unicode="!" /><glyph d="M148 0H36L49 111H161ZM249 780 150 205H85L125 780ZM352 0H240L253 111H365ZM453 780 354 205H289L329 780Z" glyph-name="exclamdbl" horiz-adv-x="468" unicode="&#8252;" /><glyph d="M199 419H87L101 530H213ZM7 -200 99 324H164L127 -200Z" glyph-name="exclamdown" horiz-adv-x="264" unicode="&#161;" /><glyph d="M55 530H162L171 607Q176 646 188 683Q200 720 224.5 748.5Q249 777 288.5 794.5Q328 812 389 812Q410 812 429 808.5Q448 805 460 800L440 711Q432 715 416.5 720Q401 725 380 724Q355 724 335.5 718.5Q316 713 302 699.5Q288 686 279 662.5Q270 639 265 601L257 530H408L398 449H247L167 -200H72L152 449H45Z" glyph-name="f" horiz-adv-x="408" unicode="f" /><glyph d="M645 290H45L56 380H656Z" glyph-name="figuredash" horiz-adv-x="700" unicode="&#8210;" /><glyph d="M880 0H100V780H880Z" glyph-name="filledbox" horiz-adv-x="980" unicode="&#9632;" /><glyph d="M319 76Q359 77 397.5 88.5Q436 100 466 125.5Q496 151 514 192Q532 233 532 292Q532 364 491.5 397Q451 430 377 430Q320 430 271 413.5Q222 397 189 360L108 387L193 764H645L634 673H265L218 468Q252 492 298 503.5Q344 515 390 515Q506 515 568 461.5Q630 408 630 302Q630 225 604.5 166Q579 107 535 67.5Q491 28 432.5 8Q374 -12 308 -12Q240 -12 192 1Q144 14 113.5 38.5Q83 63 68 98Q53 133 50 176L150 211Q152 137 191 106.5Q230 76 319 76Z" glyph-name="five" horiz-adv-x="700" unicode="5" /><glyph d="M219 432Q235 432 250 436.5Q265 441 277 451Q289 461 296 477Q303 493 303 515Q303 571 241 571Q216 571 195 563Q174 555 160 538L91 562L137 764H398L388 684H200L185 619Q198 627 216.5 631Q235 635 254 635Q318 635 353.5 609Q389 583 389 523Q389 479 374 447.5Q359 416 334 395.5Q309 375 276.5 365Q244 355 208 355Q135 355 101.5 381.5Q68 408 64 460L150 490Q151 455 167.5 443.5Q184 432 219 432ZM266 0H162L773 764H877ZM814 235Q828 235 842 237Q856 239 867 245Q878 251 885 262Q892 273 892 291Q892 314 873 323Q854 332 826 332Q794 332 771.5 320Q749 308 749 276Q749 250 768.5 242.5Q788 235 814 235ZM793 64Q831 64 855.5 78Q880 92 880 124Q880 139 873.5 148Q867 157 856.5 162Q846 167 833 169Q820 171 807 171Q792 171 777 168.5Q762 166 749.5 159.5Q737 153 729 140.5Q721 128 721 108Q721 85 740 74.5Q759 64 793 64ZM784 -12Q633 -12 633 88Q633 114 639.5 133.5Q646 153 656 167Q666 181 678.5 190Q691 199 704 204Q687 213 676.5 232Q666 251 666 277Q666 315 681 340Q696 365 720 380.5Q744 396 774.5 402.5Q805 409 836 409Q864 409 889.5 404Q915 399 934 387.5Q953 376 964.5 357Q976 338 976 310Q976 271 959 243.5Q942 216 918 204Q937 196 951 177.5Q965 159 965 126Q965 58 918.5 23Q872 -12 784 -12Z" glyph-name="fiveeighths" horiz-adv-x="1036" unicode="&#8541;" /><glyph d="M132 355H23L34 440H143L159 571Q164 610 176 647Q188 684 212.5 712.5Q237 741 277 758.5Q317 776 378 776Q399 776 417.5 772.5Q436 769 447 764L427 675Q420 679 404.5 684Q389 689 368 688Q343 688 323.5 682.5Q304 677 290 663.5Q276 650 267.5 626.5Q259 603 254 565L239 440H387L376 355H228L184 -7Q179 -46 167 -83Q155 -120 130.5 -148.5Q106 -177 66 -194.5Q26 -212 -35 -212Q-56 -212 -74.5 -208.5Q-93 -205 -104 -200L-84 -111Q-76 -115 -61 -120Q-46 -125 -26 -124Q-1 -124 18.5 -118.5Q38 -113 52 -99.5Q66 -86 75 -62.5Q84 -39 88 -1Z" glyph-name="florin" horiz-adv-x="413" unicode="&#402;" /><glyph d="M484 178 463 0H367L388 178H34L43 246L472 775H558L495 268H638L627 178ZM430 518 444 615 375 521 241 355 170 267 265 268H399Z" glyph-name="four" horiz-adv-x="700" unicode="4" /><glyph d="M-145 0H-249L362 764H466Z" glyph-name="fraction" horiz-adv-x="205" unicode="&#8260;" /><glyph d="M176 497 208 764H655L644 672H297L276 497H516L506 421H266L260 369H500L490 293H250L215 0H115L150 293H43L53 369H160L166 421H59L69 497Z" glyph-name="franc" horiz-adv-x="630" unicode="&#8355;" /><glyph d="M504 -12Q498 -62 475 -99.5Q452 -137 415.5 -162Q379 -187 330.5 -199.5Q282 -212 226 -212Q166 -212 125 -202Q84 -192 58.5 -174Q33 -156 20.5 -130.5Q8 -105 5 -74L107 -39Q108 -60 114 -76.5Q120 -93 134 -104.5Q148 -116 170.5 -122.5Q193 -129 227 -129Q263 -129 294.5 -123Q326 -117 350 -104Q374 -91 389.5 -69.5Q405 -48 409 -16L422 95Q393 57 346 34.5Q299 12 243 12Q145 12 90 64.5Q35 117 35 223Q35 303 55.5 362.5Q76 422 112.5 462Q149 502 199 522Q249 542 308 542Q366 542 407.5 518Q449 494 469 454L491 530H578L554 398ZM451 328Q450 350 440.5 372Q431 394 413 412Q395 430 369 441.5Q343 453 308 453Q272 453 240.5 440.5Q209 428 185.5 402Q162 376 149 335Q136 294 136 237Q136 166 170.5 133.5Q205 101 265 101Q300 101 329 112.5Q358 124 380 142Q402 160 417 182Q432 204 438 226Z" glyph-name="g" horiz-adv-x="611" unicode="g" /><glyph d="M325 595Q272 595 237.5 609Q203 623 184.5 649Q166 675 161.5 713Q157 751 163 800H239Q230 733 252.5 706Q275 679 333 679Q391 679 420 706Q449 733 457 800H537Q531 751 517.5 713Q504 675 479 649Q454 623 416 609Q378 595 325 595ZM504 -12Q498 -62 475 -99.5Q452 -137 415.5 -162Q379 -187 330.5 -199.5Q282 -212 226 -212Q166 -212 125 -202Q84 -192 58.5 -174Q33 -156 20.5 -130.5Q8 -105 5 -74L107 -39Q108 -60 114 -76.5Q120 -93 134 -104.5Q148 -116 170.5 -122.5Q193 -129 227 -129Q263 -129 294.5 -123Q326 -117 350 -104Q374 -91 389.5 -69.5Q405 -48 409 -16L422 95Q393 57 346 34.5Q299 12 243 12Q145 12 90 64.5Q35 117 35 223Q35 303 55.5 362.5Q76 422 112.5 462Q149 502 199 522Q249 542 308 542Q366 542 407.5 518Q449 494 469 454L491 530H578L554 398ZM451 328Q450 350 440.5 372Q431 394 413 412Q395 430 369 441.5Q343 453 308 453Q272 453 240.5 440.5Q209 428 185.5 402Q162 376 149 335Q136 294 136 237Q136 166 170.5 133.5Q205 101 265 101Q300 101 329 112.5Q358 124 380 142Q402 160 417 182Q432 204 438 226Z" glyph-name="gbreve" horiz-adv-x="611" unicode="&#287;" /><glyph d="M504 -12Q498 -62 475 -99.5Q452 -137 415.5 -162Q379 -187 330.5 -199.5Q282 -212 226 -212Q166 -212 125 -202Q84 -192 58.5 -174Q33 -156 20.5 -130.5Q8 -105 5 -74L107 -39Q108 -60 114 -76.5Q120 -93 134 -104.5Q148 -116 170.5 -122.5Q193 -129 227 -129Q263 -129 294.5 -123Q326 -117 350 -104Q374 -91 389.5 -69.5Q405 -48 409 -16L422 95Q393 57 346 34.5Q299 12 243 12Q145 12 90 64.5Q35 117 35 223Q35 303 55.5 362.5Q76 422 112.5 462Q149 502 199 522Q249 542 308 542Q366 542 407.5 518Q449 494 469 454L491 530H578L554 398ZM451 328Q450 350 440.5 372Q431 394 413 412Q395 430 369 441.5Q343 453 308 453Q272 453 240.5 440.5Q209 428 185.5 402Q162 376 149 335Q136 294 136 237Q136 166 170.5 133.5Q205 101 265 101Q300 101 329 112.5Q358 124 380 142Q402 160 417 182Q432 204 438 226ZM278 592 152 800H245L330 673L447 800H548L370 592Z" glyph-name="gcaron" horiz-adv-x="611" unicode="&#487;" /><glyph d="M396 800 522 592H429L344 719L227 592H126L304 800ZM504 -12Q498 -62 475 -99.5Q452 -137 415.5 -162Q379 -187 330.5 -199.5Q282 -212 226 -212Q166 -212 125 -202Q84 -192 58.5 -174Q33 -156 20.5 -130.5Q8 -105 5 -74L107 -39Q108 -60 114 -76.5Q120 -93 134 -104.5Q148 -116 170.5 -122.5Q193 -129 227 -129Q263 -129 294.5 -123Q326 -117 350 -104Q374 -91 389.5 -69.5Q405 -48 409 -16L422 95Q393 57 346 34.5Q299 12 243 12Q145 12 90 64.5Q35 117 35 223Q35 303 55.5 362.5Q76 422 112.5 462Q149 502 199 522Q249 542 308 542Q366 542 407.5 518Q449 494 469 454L491 530H578L554 398ZM451 328Q450 350 440.5 372Q431 394 413 412Q395 430 369 441.5Q343 453 308 453Q272 453 240.5 440.5Q209 428 185.5 402Q162 376 149 335Q136 294 136 237Q136 166 170.5 133.5Q205 101 265 101Q300 101 329 112.5Q358 124 380 142Q402 160 417 182Q432 204 438 226Z" glyph-name="gcircumflex" horiz-adv-x="611" unicode="&#285;" /><glyph d="M263 592 358 800H444L371 592ZM504 -12Q498 -62 475 -99.5Q452 -137 415.5 -162Q379 -187 330.5 -199.5Q282 -212 226 -212Q166 -212 125 -202Q84 -192 58.5 -174Q33 -156 20.5 -130.5Q8 -105 5 -74L107 -39Q108 -60 114 -76.5Q120 -93 134 -104.5Q148 -116 170.5 -122.5Q193 -129 227 -129Q263 -129 294.5 -123Q326 -117 350 -104Q374 -91 389.5 -69.5Q405 -48 409 -16L422 95Q393 57 346 34.5Q299 12 243 12Q145 12 90 64.5Q35 117 35 223Q35 303 55.5 362.5Q76 422 112.5 462Q149 502 199 522Q249 542 308 542Q366 542 407.5 518Q449 494 469 454L491 530H578L554 398ZM451 328Q450 350 440.5 372Q431 394 413 412Q395 430 369 441.5Q343 453 308 453Q272 453 240.5 440.5Q209 428 185.5 402Q162 376 149 335Q136 294 136 237Q136 166 170.5 133.5Q205 101 265 101Q300 101 329 112.5Q358 124 380 142Q402 160 417 182Q432 204 438 226Z" glyph-name="gcommaaccent" horiz-adv-x="611" unicode="&#291;" /><glyph d="M386 639H274L288 750H400ZM504 -12Q498 -62 475 -99.5Q452 -137 415.5 -162Q379 -187 330.5 -199.5Q282 -212 226 -212Q166 -212 125 -202Q84 -192 58.5 -174Q33 -156 20.5 -130.5Q8 -105 5 -74L107 -39Q108 -60 114 -76.5Q120 -93 134 -104.5Q148 -116 170.5 -122.5Q193 -129 227 -129Q263 -129 294.5 -123Q326 -117 350 -104Q374 -91 389.5 -69.5Q405 -48 409 -16L422 95Q393 57 346 34.5Q299 12 243 12Q145 12 90 64.5Q35 117 35 223Q35 303 55.5 362.5Q76 422 112.5 462Q149 502 199 522Q249 542 308 542Q366 542 407.5 518Q449 494 469 454L491 530H578L554 398ZM451 328Q450 350 440.5 372Q431 394 413 412Q395 430 369 441.5Q343 453 308 453Q272 453 240.5 440.5Q209 428 185.5 402Q162 376 149 335Q136 294 136 237Q136 166 170.5 133.5Q205 101 265 101Q300 101 329 112.5Q358 124 380 142Q402 160 417 182Q432 204 438 226Z" glyph-name="gdotaccent" horiz-adv-x="611" unicode="&#289;" /><glyph d="M398 812Q443 812 482 802.5Q521 793 549.5 773.5Q578 754 594 725.5Q610 697 610 658Q610 607 593.5 573.5Q577 540 553 518.5Q529 497 502.5 485Q476 473 456 465Q438 458 422 451Q406 444 394 434.5Q382 425 375 411.5Q368 398 368 377Q368 362 376.5 352Q385 342 399 335Q413 328 430 323Q447 318 465 313Q486 307 510.5 298.5Q535 290 555.5 275.5Q576 261 589.5 238Q603 215 603 179Q603 131 585 95Q567 59 537.5 35.5Q508 12 469.5 0Q431 -12 390 -12Q340 -12 307 -1.5Q274 9 254 28Q234 47 225.5 72.5Q217 98 216 128L315 162Q315 143 318.5 127Q322 111 331.5 99Q341 87 357.5 80.5Q374 74 400 74Q445 74 473 95.5Q501 117 501 165Q501 182 494 193.5Q487 205 474 213Q461 221 443 226.5Q425 232 404 237Q387 241 364 248.5Q341 256 320 270Q299 284 284 306Q269 328 269 362Q269 410 286 441Q303 472 327 491.5Q351 511 376.5 521Q402 531 418 537Q441 545 458.5 554Q476 563 487.5 575.5Q499 588 505 605Q511 622 511 647Q511 686 481 706Q451 726 388 726Q332 726 297.5 710.5Q263 695 243 667.5Q223 640 213.5 603Q204 566 199 524L110 -200H15L105 530Q114 602 133.5 655Q153 708 187.5 743Q222 778 273.5 795Q325 812 398 812Z" glyph-name="germandbls" horiz-adv-x="655" unicode="&#223;" /><glyph d="M406 664 83 0H-27L371 791H469L673 0H567Z" glyph-name="glyph00043" horiz-adv-x="726" /><glyph d="M261 668H149L162 779H274ZM661 668H549L562 779H674ZM371 791H469L673 0H567L511 225H193L83 0H-27ZM406 664 236 313H490Z" glyph-name="glyph00044" horiz-adv-x="726" /><glyph d="M487 309 557 176 583 411 628 780H729L609 -200H509L535 13L281 471L212 604L186 369L141 0H40L135 780H226Z" glyph-name="glyph00124" horiz-adv-x="754" /><glyph d="M369 79Q435 79 481.5 100.5Q528 122 559.5 159.5Q591 197 609.5 247Q628 297 638 354H168Q164 297 170 247Q176 197 198.5 159.5Q221 122 262 100.5Q303 79 369 79ZM446 701Q383 701 337.5 681Q292 661 260.5 626Q229 591 209.5 544.5Q190 498 180 445H648Q650 498 642.5 544.5Q635 591 612 626Q589 661 549 681Q509 701 446 701ZM358 -12Q280 -12 224 10Q168 32 132 72.5Q96 113 78.5 170.5Q61 228 61 300Q61 402 85 491.5Q109 581 158 647.5Q207 714 281.5 753Q356 792 457 792Q535 792 591 770.5Q647 749 683 708.5Q719 668 736.5 610Q754 552 754 480Q754 378 730 288.5Q706 199 657 132.5Q608 66 533.5 27Q459 -12 358 -12Z" glyph-name="glyph00147" horiz-adv-x="800" /><glyph d="M223 742Q180 711 147 669H102L115 780H227ZM782 669H736Q714 710 679 742L683 780H795ZM369 79Q451 79 505 114.5Q559 150 591 206Q623 262 636 332.5Q649 403 649 473Q649 521 639.5 562.5Q630 604 606.5 635Q583 666 544 683.5Q505 701 446 701Q364 701 310 665.5Q256 630 224 574Q192 518 179 447.5Q166 377 166 307Q166 259 175.5 217.5Q185 176 208.5 145Q232 114 271 96.5Q310 79 369 79ZM358 -12Q280 -12 224 10Q168 32 132 72.5Q96 113 78.5 170.5Q61 228 61 300Q61 402 85 491.5Q109 581 158 647.5Q207 714 281.5 753Q356 792 457 792Q535 792 591 770.5Q647 749 683 708.5Q719 668 736.5 610Q754 552 754 480Q754 378 730 288.5Q706 199 657 132.5Q608 66 533.5 27Q459 -12 358 -12Z" glyph-name="glyph00148" horiz-adv-x="800" /><glyph d="M347 -12Q257 -12 199.5 10.5Q142 33 110.5 72.5Q79 112 70.5 165.5Q62 219 69 282L130 780H232L171 281Q166 239 169.5 202Q173 165 193 138Q213 111 252.5 95Q292 79 358 79Q424 79 467.5 95Q511 111 537.5 138Q564 165 577 202Q590 239 595 281L656 780H758L697 282Q690 219 667.5 165.5Q645 112 604 72.5Q563 33 500 10.5Q437 -12 347 -12ZM397 669H285L298 780H410ZM577 669H465L478 780H590Z" glyph-name="glyph00185" horiz-adv-x="772" /><glyph d="M225 688H89L100 780H472L461 688H325L252 92H388L377 0H5L16 92H152ZM696 780H797L725 194Q720 154 706.5 117Q693 80 666 51.5Q639 23 597 5.5Q555 -12 494 -12Q472 -12 453 -8.5Q434 -5 423 0L444 93Q450 89 464.5 84.5Q479 80 499 80Q525 80 546 85Q567 90 583 103.5Q599 117 610 140.5Q621 164 625 200Z" glyph-name="glyph00197" horiz-adv-x="814" /><glyph d="M451 328Q451 350 441 372Q431 394 413 412Q395 430 368.5 441.5Q342 453 307 453Q271 453 239 438Q207 423 183 394Q159 365 145.5 322.5Q132 280 132 224Q132 152 166.5 114.5Q201 77 261 77Q296 77 325 88.5Q354 100 376.5 118Q399 136 414 158Q429 180 435 202ZM522 132 513 0H426L423 76Q393 35 344.5 11.5Q296 -12 241 -12Q138 -12 85 44Q32 100 32 206Q32 286 52 348.5Q72 411 108.5 454Q145 497 196 519.5Q247 542 309 542Q364 542 406.5 518.5Q449 495 469 454L491 530H578L554 398ZM386 800 454 592H359L274 800ZM226 800 294 592H199L114 800Z" glyph-name="glyph00257" horiz-adv-x="616" /><glyph d="M106 530H202L137 0H41ZM223 639H111L125 750H237Z" glyph-name="glyph00312" horiz-adv-x="258" /><glyph d="M172 455Q204 494 251.5 518Q299 542 354 542Q398 542 434 530.5Q470 519 494.5 496Q519 473 530 440Q541 407 536 363L467 -200H371L438 346Q445 399 414.5 426Q384 453 329 453Q296 453 267.5 441Q239 429 217 411Q195 393 180 371Q165 349 160 328L120 0H25L73 399L83 530H170Z" glyph-name="glyph00344" horiz-adv-x="587" /><glyph d="M264 74Q326 74 371 109.5Q416 145 434 226H130Q129 146 165.5 110Q202 74 264 74ZM310 456Q248 456 203.5 420.5Q159 385 140 307H443Q444 385 408 420.5Q372 456 310 456ZM253 -12Q150 -12 91.5 42.5Q33 97 33 208Q33 292 55 354.5Q77 417 115.5 458.5Q154 500 207 521Q260 542 321 542Q424 542 482.5 487.5Q541 433 541 322Q541 238 519 175.5Q497 113 458.5 71.5Q420 30 367.5 9Q315 -12 253 -12Z" glyph-name="glyph00367" horiz-adv-x="590" /><glyph d="M175 476H63L74 564H394L383 476H271L223 88H335L325 0H5L15 88H127ZM617 564H714L667 186Q662 146 649 110Q636 74 611.5 47Q587 20 549 4Q511 -12 456 -12Q427 -12 407.5 -8.5Q388 -5 378 0L397 89Q404 85 420 80Q436 75 459 76Q481 76 500 81.5Q519 87 533 100Q547 113 557 135Q567 157 571 191Z" glyph-name="glyph00621" horiz-adv-x="754" /><glyph d="M175 476H63L74 564H394L383 476H271L223 88H335L325 0H5L15 88H127Z" glyph-name="glyph00631" horiz-adv-x="410" /><glyph d="M383 476H271L223 88H335L325 0H5L15 88H127L175 476H63L74 564H394ZM217 810 285 602H190L105 810Z" glyph-name="glyph00632" horiz-adv-x="410" /><glyph d="M175 476H63L74 564H394L383 476H271L223 88H335L325 0H5L15 88H127ZM423 810 286 602H191L311 810Z" glyph-name="glyph00633" horiz-adv-x="410" /><glyph d="M175 476H63L74 564H394L383 476H271L223 88H335L325 0H5L15 88H127ZM310 810 436 602H339L254 729L137 602H40L218 810Z" glyph-name="glyph00634" horiz-adv-x="410" /><glyph d="M175 476H63L74 564H282L223 88H335L325 0H5L15 88H127ZM200 649H88L102 760H214ZM400 649H288L302 760H414Z" glyph-name="glyph00635" horiz-adv-x="410" /><glyph d="M223 88H335L325 0H5L15 88H127L175 476H63L74 564H394L383 476H271ZM166 706Q139 706 126 688.5Q113 671 108 652L33 663Q48 720 82.5 754Q117 788 181 788Q214 788 235 775.5Q256 763 272 748Q288 733 302.5 720.5Q317 708 336 708Q363 708 376.5 725.5Q390 743 395 762L470 751Q455 694 420 660Q385 626 321 626Q288 626 267 638.5Q246 651 230 666Q214 681 199.5 693.5Q185 706 166 706Z" glyph-name="glyph00636" horiz-adv-x="410" /><glyph d="M175 476H63L74 564H394L383 476H271L223 88H335L325 0H5L15 88H127ZM192 602 66 810H163L248 683L365 810H462L284 602Z" glyph-name="glyph00637" horiz-adv-x="410" /><glyph d="M175 476H63L74 564H394L383 476H271L223 88H335L325 0H5L15 88H127ZM102 662 113 752H401L390 662Z" glyph-name="glyph00638" horiz-adv-x="410" /><glyph d="M223 88H335L325 0H5L15 88H127L175 476H63L74 564H394L383 476H271ZM239 605Q185 605 151 619Q117 633 98.5 659Q80 685 75.5 723Q71 761 77 810H155Q147 743 168.5 716Q190 689 249 689Q308 689 336.5 716Q365 743 373 810H451Q445 761 431 723Q417 685 392.5 659Q368 633 330.5 619Q293 605 239 605Z" glyph-name="glyph00639" horiz-adv-x="410" /><glyph d="M223 88H335L325 0H5L15 88H127L175 476H63L74 564H394L383 476H271ZM264 807Q317 807 351.5 793.5Q386 780 404.5 753.5Q423 727 427 689Q431 651 425 602H347Q356 669 333.5 696Q311 723 253 723Q195 723 166 696Q137 669 129 602H51Q62 700 110 753.5Q158 807 264 807Z" glyph-name="glyph00640" horiz-adv-x="410" /><glyph d="M175 476H63L74 564H394L383 476H271L223 88H335L325 0H5L15 88H127ZM299 810 367 602H272L187 810ZM139 810 207 602H112L27 810Z" glyph-name="glyph00641" horiz-adv-x="410" /><glyph d="M175 476H63L74 564H394L383 476H271L223 88H335L325 0H5L15 88H127ZM300 649H188L202 760H314Z" glyph-name="glyph00642" horiz-adv-x="410" /><glyph d="M175 476H63L74 564H394L383 476H271L223 88H335L325 0H5L15 88H127ZM199 -173H87L101 -62H213Z" glyph-name="glyph00643" horiz-adv-x="410" /><glyph d="M15 88H127L175 476H63L74 564H394L383 476H271L223 88H335L325 0Q299 -3 275 -12.5Q251 -22 232 -35.5Q213 -49 200.5 -65.5Q188 -82 186 -99Q184 -117 193 -128Q202 -139 227 -139Q238 -139 250.5 -136.5Q263 -134 274 -130.5Q285 -127 292 -124Q299 -121 299 -120L313 -187Q296 -197 268.5 -204.5Q241 -212 207 -212Q184 -212 163.5 -206.5Q143 -201 128.5 -188.5Q114 -176 107 -156.5Q100 -137 103 -108Q107 -78 126 -50.5Q145 -23 175 0H5Z" glyph-name="glyph00644" horiz-adv-x="410" /><glyph d="M214 503 172 452 119 390H21L137 522L173 563L149 600L70 724H165L202 662L227 619L262 662L313 724H409L300 600L269 563L295 522L377 390H281L243 452Z" glyph-name="glyph00671" horiz-adv-x="384" /><glyph d="M514 530H610L545 0H449ZM55 530H162L171 607Q176 646 188 683Q200 720 224.5 748.5Q249 777 288.5 794.5Q328 812 389 812Q410 812 429 808.5Q448 805 460 800L440 711Q432 715 416.5 720Q401 725 380 724Q355 724 335.5 718.5Q316 713 302 699.5Q288 686 279 662.5Q270 639 265 601L257 530H408L398 449H247L167 -200H72L152 449H45Z" glyph-name="glyph00676" horiz-adv-x="666" /><glyph d="M375 576 545 0H443L408 131H146L79 0H-27L283 576ZM186 211H385L348 350L317 472L258 350Z" glyph-name="glyph00773" horiz-adv-x="598" /><glyph d="M337 84Q356 84 375 87.5Q394 91 409 101Q424 111 433.5 129.5Q443 148 443 178Q443 203 435.5 218Q428 233 416 241.5Q404 250 388 252.5Q372 255 355 255H168L147 84ZM195 475 178 339H361Q397 339 430 332.5Q463 326 488 308.5Q513 291 527.5 261.5Q542 232 542 186Q542 129 523 93Q504 57 472.5 36.5Q441 16 401.5 8Q362 0 321 0H40L109 564H531L520 475Z" glyph-name="glyph00774" horiz-adv-x="593" /><glyph d="M39 0 108 564H396Q422 564 450.5 559Q479 554 503 539.5Q527 525 542.5 500.5Q558 476 558 437Q558 406 550 382Q542 358 529.5 340.5Q517 323 501.5 312.5Q486 302 471 298Q503 292 523.5 261Q544 230 544 184Q544 126 524.5 90Q505 54 474 34Q443 14 405 7Q367 0 329 0ZM335 87Q356 87 376 90.5Q396 94 411.5 104.5Q427 115 436.5 133.5Q446 152 446 181Q446 220 421 233.5Q396 247 361 247H165L145 87ZM193 476 176 334H360Q408 334 433.5 354.5Q459 375 459 423Q459 453 439.5 464.5Q420 476 377 476Z" glyph-name="glyph00775" horiz-adv-x="602" /><glyph d="M136 0H40L109 564H500L489 476H194Z" glyph-name="glyph00776" horiz-adv-x="490" /><glyph d="M45 89Q72 89 93 100Q114 111 132.5 135.5Q151 160 167.5 200.5Q184 241 201 301L277 564H595L536 89H613L583 -160H487L507 0H91L71 -160H-25L5 89ZM293 287Q270 205 246 158.5Q222 112 194 89H438L486 475H346Z" glyph-name="glyph00777" horiz-adv-x="666" /><glyph d="M544 564 533 476H193L176 334H478L467 246H165L145 88H503L493 0H39L108 564Z" glyph-name="glyph00778" horiz-adv-x="592" /><glyph d="M181 564 249 404Q263 368 283.5 350Q304 332 345 332H388L417 564H514L485 332H527Q568 332 593 350Q618 368 641 404L749 564H866L732 373Q717 351 696.5 328.5Q676 306 646 291Q674 277 690 254Q706 231 716 208L812 0H695L618 178Q603 213 582.5 230.5Q562 248 521 248H475L445 0H348L378 248H332Q291 248 266 230.5Q241 213 216 178L98 0H-20L126 208Q142 231 164 254Q186 277 217 291Q191 306 176 328.5Q161 351 150 373L64 564Z" glyph-name="glyph00779" horiz-adv-x="872" /><glyph d="M250 -12Q143 -12 86.5 26.5Q30 65 22 131L126 167Q130 122 161.5 98Q193 74 256 74Q331 74 372.5 98Q414 122 414 176Q414 203 403.5 217.5Q393 232 376 238.5Q359 245 337.5 246.5Q316 248 294 248H200L209 323H301Q325 323 347.5 326Q370 329 387.5 339Q405 349 415.5 366.5Q426 384 426 413Q426 457 395 473Q364 489 309 489Q252 489 216 468.5Q180 448 164 398L68 431Q119 576 312 576Q356 576 395 568.5Q434 561 463.5 543.5Q493 526 510.5 498Q528 470 528 428Q528 396 518.5 372.5Q509 349 494 332.5Q479 316 460 306Q441 296 422 291Q439 288 455.5 280Q472 272 485.5 256Q499 240 507.5 216.5Q516 193 516 158Q516 123 500 92Q484 61 451 38Q418 15 368 1.5Q318 -12 250 -12Z" glyph-name="glyph00780" horiz-adv-x="583" /><glyph d="M40 0 109 564H206L174 307L151 142L271 286L515 564H612L543 0H446L477 256L500 421L381 278L137 0Z" glyph-name="glyph00781" horiz-adv-x="663" /><glyph d="M40 0 109 564H206L174 307L151 142L271 286L515 564H612L543 0H446L477 256L500 421L381 278L137 0ZM578 809Q572 760 558 722Q544 684 519 657.5Q494 631 456.5 617.5Q419 604 366 604Q313 604 278.5 617.5Q244 631 225.5 657.5Q207 684 202.5 722Q198 760 204 809H282Q273 742 295.5 715Q318 688 376 688Q434 688 463 715Q492 742 500 809Z" glyph-name="glyph00782" horiz-adv-x="663" /><glyph d="M596 564 456 373Q440 351 419 328.5Q398 306 367 291Q396 277 412.5 254Q429 231 440 208L542 0H425L343 178Q327 213 306 230.5Q285 248 244 248H167L137 0H40L109 564H206L177 332H251Q292 332 317 350.5Q342 369 367 404L479 564Z" glyph-name="glyph00783" horiz-adv-x="602" /><glyph d="M534 0H437L495 475H317L264 287Q240 201 213.5 145.5Q187 90 156 57.5Q125 25 89 12.5Q53 0 9 0H-6L3 89H11Q40 89 62.5 99.5Q85 110 103.5 134.5Q122 159 139 199.5Q156 240 173 301L248 564H603Z" glyph-name="glyph00784" horiz-adv-x="654" /><glyph d="M385 0H301L217 276L179 397L135 0H39L108 564H222L326 229L358 125L416 229L602 564H716L647 0H551L603 397L535 276Z" glyph-name="glyph00785" horiz-adv-x="766" /><glyph d="M614 564 545 0H449L479 246H165L135 0H39L108 564H204L176 334H490L518 564Z" glyph-name="glyph00786" horiz-adv-x="664" /><glyph d="M297 -12Q232 -12 184.5 5Q137 22 106 53.5Q75 85 60 130Q45 175 45 231Q45 303 64.5 366Q84 429 123.5 475.5Q163 522 224 549Q285 576 369 576Q434 576 481.5 559Q529 542 560 510.5Q591 479 606 434Q621 389 621 333Q621 261 601.5 198Q582 135 542.5 88.5Q503 42 442 15Q381 -12 297 -12ZM308 75Q413 75 467.5 143Q522 211 522 329Q522 406 483 447.5Q444 489 359 489Q253 489 198.5 421Q144 353 144 235Q144 158 183.5 116.5Q223 75 308 75Z" glyph-name="glyph00787" horiz-adv-x="678" /><glyph d="M615 564 546 0H450L508 476H194L136 0H40L109 564Z" glyph-name="glyph00788" horiz-adv-x="666" /><glyph d="M193 476 171 296H342Q361 296 379 300.5Q397 305 410.5 317Q424 329 432.5 348.5Q441 368 441 398Q441 422 434.5 437Q428 452 417.5 460.5Q407 469 393.5 472.5Q380 476 365 476ZM108 564H363Q398 564 430 557Q462 550 487 533Q512 516 526.5 486Q541 456 541 410Q541 349 521 309.5Q501 270 469 247.5Q437 225 397.5 216.5Q358 208 319 208H160L135 0H39Z" glyph-name="glyph00789" horiz-adv-x="568" /><glyph d="M44 233Q44 303 63.5 365.5Q83 428 123 474.5Q163 521 223 548.5Q283 576 364 576Q482 576 540.5 534.5Q599 493 607 423L506 389Q504 440 466.5 464Q429 488 359 488Q254 488 199.5 420.5Q145 353 145 237Q145 161 184.5 118.5Q224 76 309 76Q379 76 422.5 100Q466 124 480 175L573 143Q549 72 483 30Q417 -12 299 -12Q235 -12 187.5 5.5Q140 23 108 55.5Q76 88 60 133Q44 178 44 233Z" glyph-name="glyph00790" horiz-adv-x="650" /><glyph d="M261 0H165L223 476H32L43 564H521L510 476H319Z" glyph-name="glyph00791" horiz-adv-x="506" /><glyph d="M159 76Q188 76 213 91Q238 106 261 138L88 564H197L320 228L526 564H643L364 129Q346 101 326 76Q306 51 280.5 31.5Q255 12 223.5 0.5Q192 -11 152 -11Q113 -11 87 -5Q61 1 47 9L69 96Q80 90 105 83Q130 76 159 76Z" glyph-name="glyph00792" horiz-adv-x="650" /><glyph d="M433 487Q553 484 615.5 437.5Q678 391 678 298Q678 244 656 202.5Q634 161 595 133Q556 105 502 91Q448 77 383 77L373 0H275L284 77Q164 80 101.5 126.5Q39 173 39 266Q39 320 61 361.5Q83 403 122 431Q161 459 215 473Q269 487 334 487L344 564H442ZM324 404Q287 404 254 397Q221 390 196 374Q171 358 157 332Q143 306 143 267Q143 236 153.5 215.5Q164 195 183.5 182.5Q203 170 231 165Q259 160 294 160ZM393 160Q431 160 463.5 167Q496 174 521 190Q546 206 560 232Q574 258 574 297Q574 359 534 381.5Q494 404 423 404Z" glyph-name="glyph00793" horiz-adv-x="728" /><glyph d="M307 227 253 164 106 0H-13L259 295L228 341L74 564H186L284 409L318 357L366 409L502 564H618L408 341L364 295L401 245L567 0H454L347 164Z" glyph-name="glyph00794" horiz-adv-x="634" /><glyph d="M633 89 603 -160H507L527 0H40L109 564H205L146 88H460L519 564H615L556 89Z" glyph-name="glyph00795" horiz-adv-x="686" /><glyph d="M520 0H422L449 222Q424 203 375.5 187.5Q327 172 261 172Q219 172 181.5 182.5Q144 193 118 214.5Q92 236 78.5 269Q65 302 71 348L98 564H195L170 364Q167 336 174.5 316.5Q182 297 198 285.5Q214 274 237.5 269Q261 264 290 264Q324 264 352.5 270Q381 276 402.5 284.5Q424 293 439 302.5Q454 312 461 319L491 564H589Z" glyph-name="glyph00796" horiz-adv-x="636" /><glyph d="M109 564H205L146 88H368L427 564H523L464 88H686L745 564H841L772 0H40Z" glyph-name="glyph00797" horiz-adv-x="892" /><glyph d="M859 89 829 -160H733L753 0H40L109 564H205L146 88H368L427 564H523L464 88H686L745 564H841L782 89Z" glyph-name="glyph00798" horiz-adv-x="912" /><glyph d="M135 0 193 475H42L53 564H301L273 339H456Q492 339 525 332.5Q558 326 583 308.5Q608 291 622.5 261.5Q637 232 637 186Q637 129 618 93Q599 57 567.5 36.5Q536 16 496.5 8Q457 0 416 0ZM432 84Q451 84 470 87.5Q489 91 504 101Q519 111 528.5 129.5Q538 148 538 178Q538 203 530.5 218Q523 233 511 241.5Q499 250 483 252.5Q467 255 450 255H263L242 84Z" glyph-name="glyph00799" horiz-adv-x="690" /><glyph d="M649 564H746L677 0H580ZM40 0 109 564H206L178 339H361Q397 339 430 332.5Q463 326 488 308.5Q513 291 527.5 261.5Q542 232 542 186Q542 129 523 93Q504 57 472.5 36.5Q441 16 401.5 8Q362 0 321 0ZM337 84Q356 84 375 87.5Q394 91 409 101Q424 111 433.5 129.5Q443 148 443 178Q443 203 435.5 218Q428 233 416 241.5Q404 250 388 252.5Q372 255 355 255H168L147 84Z" glyph-name="glyph00800" horiz-adv-x="797" /><glyph d="M337 84Q356 84 375 87.5Q394 91 409 101Q424 111 433.5 129.5Q443 148 443 178Q443 203 435.5 218Q428 233 416 241.5Q404 250 388 252.5Q372 255 355 255H168L147 84ZM40 0 109 564H206L178 339H361Q397 339 430 332.5Q463 326 488 308.5Q513 291 527.5 261.5Q542 232 542 186Q542 129 523 93Q504 57 472.5 36.5Q441 16 401.5 8Q362 0 321 0Z" glyph-name="glyph00801" horiz-adv-x="595" /><glyph d="M180 328H477Q477 407 437.5 447Q398 487 326 487Q257 487 217 463Q177 439 163 391L69 423Q81 457 102 485Q123 513 154.5 533.5Q186 554 230 565Q274 576 333 576Q451 576 515.5 513Q580 450 580 335Q580 252 558 187.5Q536 123 495 78.5Q454 34 397 11Q340 -12 269 -12Q211 -12 168.5 -1Q126 10 97.5 29.5Q69 49 54 77Q39 105 34 138L136 173Q139 126 172 101.5Q205 77 272 77Q350 77 400.5 119.5Q451 162 470 253H171Z" glyph-name="glyph00802" horiz-adv-x="636" /><glyph d="M542 -12Q477 -12 429.5 5Q382 22 351 53.5Q320 85 305 130Q290 175 290 231V246H165L135 0H39L108 564H204L176 334H301Q313 387 337.5 431.5Q362 476 401 508Q440 540 493 558Q546 576 614 576Q679 576 726.5 559Q774 542 805 510.5Q836 479 851 434Q866 389 866 333Q866 261 846.5 198Q827 135 787.5 88.5Q748 42 687 15Q626 -12 542 -12ZM553 75Q658 75 712.5 143Q767 211 767 329Q767 406 728 447.5Q689 489 604 489Q498 489 443.5 421Q389 353 389 235Q389 158 428.5 116.5Q468 75 553 75Z" glyph-name="glyph00803" horiz-adv-x="923" /><glyph d="M505 0H408L435 228H324Q286 226 264.5 208.5Q243 191 221 158L114 0H-3L126 179Q141 200 155 212.5Q169 225 186 233Q161 238 139.5 247Q118 256 102.5 273.5Q87 291 78.5 317Q70 343 70 380Q70 437 89 472.5Q108 508 139.5 528.5Q171 549 211 556.5Q251 564 293 564H574ZM276 478Q257 478 238 474.5Q219 471 204 460.5Q189 450 179.5 431.5Q170 413 170 382Q170 358 177.5 343.5Q185 329 197 321Q209 313 225 310.5Q241 308 258 308H445L466 478Z" glyph-name="glyph00804" horiz-adv-x="625" /><glyph d="M544 564 533 476H193L176 334H478L467 246H165L145 88H503L493 0H39L108 564ZM296 649H184L198 760H310ZM496 649H384L398 760H510Z" glyph-name="glyph00805" horiz-adv-x="592" /><glyph d="M277 312Q305 334 346.5 345Q388 356 434 356Q513 356 561 315Q609 274 609 188Q609 141 594.5 103.5Q580 66 554 40.5Q528 15 492.5 1.5Q457 -12 415 -12Q392 -12 374 -8.5Q356 -5 348 0L364 78Q370 76 380.5 73Q391 70 407 70Q447 70 475.5 97.5Q504 125 504 179Q504 227 476 250.5Q448 274 401 274Q353 274 317 255.5Q281 237 265 217L239 0H142L200 475H45L56 564H462L451 475H297Z" glyph-name="glyph00806" horiz-adv-x="677" /><glyph d="M494 809 357 601H262L382 809ZM136 0H40L109 564H500L489 476H194Z" glyph-name="glyph00807" horiz-adv-x="490" /><glyph d="M445 253H146Q145 248 145 243.5Q145 239 145 234Q145 155 184.5 116Q224 77 296 77Q365 77 405 101Q445 125 460 173L553 141Q541 107 520.5 79Q500 51 468.5 31Q437 11 393 -0.5Q349 -12 290 -12Q172 -12 107.5 50.5Q43 113 43 237Q43 316 65 378.5Q87 441 127 485Q167 529 224.5 552.5Q282 576 352 576Q468 576 523.5 534Q579 492 588 425L487 391Q483 438 450 462.5Q417 487 350 487Q276 487 226.5 448Q177 409 157 328H454Z" glyph-name="glyph00808" horiz-adv-x="636" /><glyph d="M316 333Q362 329 403.5 322Q445 315 476.5 299.5Q508 284 526.5 256.5Q545 229 545 182Q545 130 521.5 93.5Q498 57 460.5 33.5Q423 10 375.5 -1Q328 -12 280 -12Q214 -12 167.5 -1.5Q121 9 92 29Q63 49 49 77Q35 105 33 141L133 175Q133 122 167 99Q201 76 274 76Q307 76 338 81Q369 86 393 97.5Q417 109 431.5 128.5Q446 148 446 178Q446 216 410.5 230Q375 244 298 251Q263 254 225 260.5Q187 267 155.5 282Q124 297 103.5 323.5Q83 350 83 393Q83 440 104.5 474.5Q126 509 160.5 531.5Q195 554 238.5 565Q282 576 326 576Q448 576 505.5 536Q563 496 568 425L468 391Q468 443 439 465.5Q410 488 338 488Q314 488 286 485Q258 482 234.5 472Q211 462 195.5 444.5Q180 427 180 398Q180 365 215 352Q250 339 316 333Z" glyph-name="glyph00809" horiz-adv-x="620" /><glyph d="M156 0H60L129 564H225Z" glyph-name="glyph00810" horiz-adv-x="296" /><glyph d="M156 0H60L129 564H225ZM143 649H31L45 760H157ZM343 649H231L245 760H357Z" glyph-name="glyph00811" horiz-adv-x="296" /><glyph d="M422 564 373 170Q363 88 305.5 38Q248 -12 148 -12Q96 -12 64 -0.5Q32 11 14.5 30Q-3 49 -9 73.5Q-15 98 -15 123L84 157Q83 141 84.5 126.5Q86 112 94.5 100.5Q103 89 119 82Q135 75 163 75Q216 75 243.5 98Q271 121 277 171L326 564Z" glyph-name="glyph00812" horiz-adv-x="465" /><glyph d="M719 84Q738 84 757 87.5Q776 91 791 101Q806 111 815.5 129.5Q825 148 825 178Q825 203 817.5 218Q810 233 798 241.5Q786 250 770 252.5Q754 255 737 255H550L529 84ZM480 475H317L264 287Q240 201 213.5 145.5Q187 90 156 57.5Q125 25 89 12.5Q53 0 9 0H-6L3 89H11Q40 89 62.5 99.5Q85 110 103.5 134.5Q122 159 139 199.5Q156 240 173 301L248 564H588L560 339H743Q779 339 812 332.5Q845 326 870 308.5Q895 291 909.5 261.5Q924 232 924 186Q924 129 905 93Q886 57 854.5 36.5Q823 16 783.5 8Q744 0 703 0H422Z" glyph-name="glyph00813" horiz-adv-x="977" /><glyph d="M735 84Q754 84 773 88Q792 92 807 102.5Q822 113 831.5 131.5Q841 150 841 179Q841 203 833.5 216.5Q826 230 813.5 236.5Q801 243 785 245Q769 247 752 247H565L545 84ZM468 247H167L137 0H40L109 564H206L178 336H479L507 564H604L576 336H759Q795 336 828 330Q861 324 886 307.5Q911 291 925.5 261.5Q940 232 940 186Q940 129 921 93Q902 57 870.5 36.5Q839 16 799.5 8Q760 0 719 0H438Z" glyph-name="glyph00814" horiz-adv-x="993" /><glyph d="M200 475H45L56 564H462L451 475H297L274 292Q306 325 348 340.5Q390 356 438 356Q474 356 504 346.5Q534 337 554 317.5Q574 298 583.5 268.5Q593 239 588 199L564 0H467L489 180Q494 227 471.5 246.5Q449 266 401 266Q355 266 320 245.5Q285 225 262 188L239 0H142Z" glyph-name="glyph00815" horiz-adv-x="666" /><glyph d="M596 564 456 373Q440 351 419 328.5Q398 306 367 291Q396 277 412.5 254Q429 231 440 208L542 0H425L343 178Q327 213 306 230.5Q285 248 244 248H167L137 0H40L109 564H206L177 332H251Q292 332 317 350Q342 368 367 404L479 564ZM516 809 379 601H284L404 809Z" glyph-name="glyph00816" horiz-adv-x="618" /><glyph d="M370 604Q317 604 283 617.5Q249 631 230 657.5Q211 684 206.5 722Q202 760 208 809H286Q278 742 300 715Q322 688 380 688Q438 688 467 715Q496 742 504 809H582Q576 760 562.5 722Q549 684 524 657.5Q499 631 461 617.5Q423 604 370 604ZM159 76Q188 76 213 91Q238 106 261 138L88 564H197L320 228L526 564H643L364 129Q346 101 326 76Q306 51 280.5 31.5Q255 12 223.5 0.5Q192 -11 152 -11Q113 -11 87 -5Q61 1 47 9L69 96Q80 90 105 83Q130 76 159 76Z" glyph-name="glyph00817" horiz-adv-x="650" /><glyph d="M40 0 109 564H205L146 88H460L519 564H615L546 0H341L321 -160H225L245 0Z" glyph-name="glyph00818" horiz-adv-x="666" /><glyph d="M489 476H194L136 0H40L109 564H406L425 724H519Z" glyph-name="glyph00819" horiz-adv-x="496" /><glyph d="M374 419H262L276 530H388ZM507 -26Q494 -68 470.5 -102.5Q447 -137 413 -161Q379 -185 333 -198.5Q287 -212 228 -212Q174 -212 130 -199Q86 -186 57 -161Q28 -136 14.5 -99Q1 -62 7 -14Q13 39 36 72.5Q59 106 88 127.5Q117 149 148 161Q179 173 201 182Q217 189 229.5 194.5Q242 200 253 207L274 323H339L308 -112Q349 -101 374.5 -73Q400 -45 414 6ZM110 -14Q107 -41 112.5 -59.5Q118 -78 130.5 -90Q143 -102 160 -108.5Q177 -115 196 -118L235 101Q224 97 215 93Q206 89 196 85Q181 78 166.5 69.5Q152 61 140.5 49.5Q129 38 121 22.5Q113 7 110 -14Z" glyph-name="glyph00874" horiz-adv-x="558" /><glyph d="M245 407Q258 412 269.5 417.5Q281 423 291 429L316 575H381L347 88Q388 100 414.5 128Q441 156 455 207L548 176Q534 133 510.5 98.5Q487 64 452 39.5Q417 15 370.5 1.5Q324 -12 265 -12Q214 -12 173 -0.5Q132 11 103 34Q74 57 58 90.5Q42 124 42 167Q42 230 64.5 271.5Q87 313 119.5 340Q152 367 186.5 382Q221 397 245 407ZM274 327Q250 317 227 304Q204 291 186.5 273Q169 255 158 232Q147 209 147 179Q147 155 154 138.5Q161 122 172.5 110.5Q184 99 199.5 92.5Q215 86 232 83L274 327ZM318 780H430L417 669H305Z" glyph-name="glyph00875" horiz-adv-x="606" /><glyph d="M206 183 223 488Q185 481 165 461Q145 441 137 406L49 436Q68 501 123 538.5Q178 576 279 576Q370 576 421 540.5Q472 505 472 436Q472 396 459 369.5Q446 343 424 325.5Q402 308 373 296.5Q344 285 311 275Q297 270 283.5 265.5Q270 261 259 256L245 183ZM260 0H148L161 111H273ZM369 425Q369 480 303 489L274 334L282 337Q306 345 322.5 352.5Q339 360 349.5 370Q360 380 364.5 393Q369 406 369 425Z" glyph-name="glyph00876" horiz-adv-x="499" /><glyph d="M266 85Q304 92 324 112.5Q344 133 352 168L440 138Q421 73 366 35.5Q311 -2 210 -2Q119 -2 68 33.5Q17 69 17 138Q17 178 30 204.5Q43 231 65 248.5Q87 266 116 277.5Q145 289 178 299Q192 303 205.5 307.5Q219 312 230 317L244 391H283ZM229 574H341L328 463H216ZM120 149Q120 120 136.5 104.5Q153 89 185 84L215 239L207 237Q183 229 166.5 221.5Q150 214 139.5 204Q129 194 124.5 181Q120 168 120 149Z" glyph-name="glyph00877" horiz-adv-x="499" /><glyph d="M163 227H51L65 338H177Z" glyph-name="glyph00944" horiz-adv-x="240" /><glyph d="M272 237H39L50 327H283Z" glyph-name="glyph00946" horiz-adv-x="333" /><glyph d="M39 237 50 327H450L439 237Z" glyph-name="glyph00947" horiz-adv-x="500" /><glyph d="M689 237H39L50 327H700Z" glyph-name="glyph00948" horiz-adv-x="750" /><glyph d="M939 237H39L50 327H950Z" glyph-name="glyph00949" horiz-adv-x="1000" /><glyph d="M639 237H39L50 327H650Z" glyph-name="glyph00950" horiz-adv-x="700" /><glyph d="M1339 237H39L50 327H1350Z" glyph-name="glyph00951" horiz-adv-x="1400" /><glyph d="M29 364H103Q135 451 201 496.5Q267 542 361 542Q415 542 453 531.5Q491 521 515.5 502.5Q540 484 552.5 458Q565 432 569 400L470 366Q466 408 441 432.5Q416 457 355 457Q304 457 264.5 433Q225 409 202 364H427L392 285H176Q174 275 172.5 265Q171 255 171 245H375L340 166H178Q191 121 223 97Q255 73 303 73Q366 73 399 96.5Q432 120 446 164L536 132Q525 100 506 73.5Q487 47 458 28Q429 9 388.5 -1.5Q348 -12 293 -12Q199 -12 144 33.5Q89 79 78 166H5L15 245H77Q77 255 78.5 265Q80 275 82 285H19Z" glyph-name="glyph01048" horiz-adv-x="612" /><glyph d="M178 -77H89L116 -3Q78 6 52.5 19Q27 32 11 45L45 132Q64 120 88.5 106.5Q113 93 148 85L205 239Q180 243 154.5 250Q129 257 108.5 270Q88 283 75.5 303.5Q63 324 63 355Q63 407 86.5 442.5Q110 478 147 500Q184 522 229 531.5Q274 541 317 541L341 607H430L403 533Q447 525 476 511Q505 497 525 483L492 396Q470 411 441.5 424.5Q413 438 370 446L319 307Q348 303 377.5 296Q407 289 430 275.5Q453 262 467.5 239.5Q482 217 482 182Q482 123 456 85Q430 47 389 25Q348 3 299 -5.5Q250 -14 203 -14ZM235 75Q265 75 291.5 81.5Q318 88 337.5 99.5Q357 111 368.5 128Q380 145 380 167Q380 195 359 206.5Q338 218 289 226L234 75H235ZM283 453Q260 453 239 447Q218 441 201.5 430.5Q185 420 175.5 404.5Q166 389 166 370Q166 348 181.5 338Q197 328 235 320L284 453H283Z" glyph-name="glyph01049" horiz-adv-x="553" /><glyph d="M498 132Q479 62 408.5 21.5Q338 -19 228 -11L204 -77H115L147 9Q38 58 38 210Q38 293 61 356.5Q84 420 124.5 462.5Q165 505 221 525.5Q277 546 344 541L368 607H457L427 527Q478 510 502 477.5Q526 445 531 400L432 366Q430 390 421 408.5Q412 427 394 439L259 73Q326 73 360 96.5Q394 120 408 164L498 132ZM312 457Q272 459 238.5 441Q205 423 181.5 390.5Q158 358 145 315Q132 272 132 224Q132 181 145 150Q158 119 181 100L312 457Z" glyph-name="glyph01050" horiz-adv-x="572" /><glyph d="M221 303H421L411 227H211L194 89H546L536 0H3L13 89H98L115 227H30L40 303H125L130 349Q136 396 157 432Q178 468 211 492.5Q244 517 287 529.5Q330 542 379 542Q430 542 466.5 531.5Q503 521 527 502.5Q551 484 563.5 459.5Q576 435 578 406L477 372Q477 390 471.5 405.5Q466 421 453.5 432Q441 443 420 449Q399 455 368 454Q240 452 226 350Z" glyph-name="glyph01051" horiz-adv-x="618" /><glyph d="M10 227 20 302H129L133 337Q138 379 152.5 416Q167 453 192.5 480.5Q218 508 257 524.5Q296 541 350 541Q369 541 389 538Q409 535 422 530L402 440Q395 443 382.5 447Q370 451 352 453Q325 453 304 448.5Q283 444 268 430.5Q253 417 243 393Q233 369 228 330L225 302H373L363 227H215L187 -7Q182 -49 168 -86Q154 -123 128 -151Q102 -179 63.5 -195Q25 -211 -30 -211Q-49 -211 -68.5 -208Q-88 -205 -100 -200L-80 -110Q-73 -113 -61.5 -118Q-50 -123 -33 -123Q-6 -123 15.5 -118.5Q37 -114 52 -100.5Q67 -87 77 -63Q87 -39 92 0L119 227Z" glyph-name="glyph01052" horiz-adv-x="420" /><glyph d="M71 156H229L234 196H76L85 275H194L57 530H170L232 411L292 285L384 411L476 530H589L387 275H497L488 196H331L326 156H483L473 77H316L307 0H210L219 77H61Z" glyph-name="glyph01053" horiz-adv-x="596" /><glyph d="M527 607 472 502Q496 482 508.5 456.5Q521 431 526 400L427 366Q426 375 424 383.5Q422 392 420 400L250 73H260Q323 73 356 96.5Q389 120 403 164L493 132Q482 100 463 73.5Q444 47 415 28Q386 9 345.5 -1.5Q305 -12 250 -12Q228 -12 207 -9L173 -77H98L142 8Q137 10 132 13Q127 16 123 19L73 -77H-2L72 66Q33 120 33 210Q33 289 54 351Q75 413 112.5 455.5Q150 498 202.5 520Q255 542 318 542L352 607H427L390 536L413 530L452 607ZM272 452Q239 448 212.5 427.5Q186 407 167 376.5Q148 346 138 307Q128 268 128 227Q128 200 132 181L272 452ZM370 448Q365 450 359.5 451Q354 452 348 454L169 107Q173 103 177 99.5Q181 96 186 93L370 448Z" glyph-name="glyph01054" horiz-adv-x="560" /><glyph d="M479 235Q445 235 415 224Q385 213 361 195Q337 177 320.5 155Q304 133 298 110L294 74Q345 78 373 101.5Q401 125 415 164L505 132Q494 100 475 73.5Q456 47 427 28Q398 9 357.5 -1.5Q317 -12 262 -12Q145 -12 88.5 60Q32 132 48 265Q65 399 138.5 470.5Q212 542 330 542Q384 542 422 531.5Q460 521 484.5 502Q509 483 521.5 457Q534 431 538 400L439 366Q435 409 408.5 433.5Q382 458 320 457Q248 455 200.5 406.5Q153 358 142 265Q134 199 149.5 155.5Q165 112 201 91L212 184L221 315H308L311 234Q339 275 386.5 301Q434 327 488 327Q500 327 513 326Q526 325 534 323L514 231Q506 233 497.5 234Q489 235 479 235Z" glyph-name="glyph01055" horiz-adv-x="560" /><glyph d="M146 353 168 530H565L553 438H256L246 353H476L466 274H236L231 234H461L452 155H222L203 0H103L122 155H15L24 234H131L136 274H29L39 353Z" glyph-name="glyph01056" horiz-adv-x="576" /><glyph d="M201 144 194 89H546L536 0H3L13 89H98L105 144H20L30 223H115L120 263H35L44 342H129L130 349Q136 396 157 432Q178 468 211 492.5Q244 517 287 529.5Q330 542 379 542Q430 542 466.5 531.5Q503 521 527 502.5Q551 484 563.5 459.5Q576 435 578 406L477 372Q477 390 471.5 405.5Q466 421 453.5 432Q441 443 420 449Q399 455 368 454Q240 452 226 350L225 342H425L416 263H216L211 223H411L401 144Z" glyph-name="glyph01057" horiz-adv-x="622" /><glyph d="M105 364 126 530H250L343 364H504L525 530H624L603 364H676L666 285H593L589 245H662L652 166H579L559 0H435L340 166H180L160 0H61L81 166H8L18 245H91L95 285H22L32 364ZM190 245H296L272 285H194ZM411 245H490L494 285H388ZM204 364H228L208 399ZM476 131 480 166H456Z" glyph-name="glyph01058" horiz-adv-x="700" /><glyph d="M850 -12Q804 -12 773 -2Q742 8 722 25Q696 10 656.5 -1Q617 -12 561 -12Q513 -12 482 -2Q451 8 431 27Q371 -12 286 -12Q232 -12 190.5 10.5Q149 33 128 71L95 -200H0L73 398L83 530H170L172 454Q202 495 250.5 518.5Q299 542 354 542Q457 542 510 486Q563 430 563 324Q563 257 546 198Q529 139 503 98Q513 85 530 80.5Q547 76 572 76Q607 76 635 84.5Q663 93 681 107Q678 127 679 148.5Q680 170 682 193L714 449H618L628 530H724L741 672L838 688L819 530H981L971 449H809L778 199Q774 162 776.5 138Q779 114 789.5 100Q800 86 818 81Q836 76 861 76Q895 76 922.5 84Q950 92 968 106Q966 111 965.5 115.5Q965 120 964 125L1065 160Q1068 117 1094.5 94.5Q1121 72 1184 72Q1213 73 1240 77.5Q1267 82 1289 93Q1311 104 1324 122.5Q1337 141 1337 169Q1337 189 1328 199.5Q1319 210 1301.5 216Q1284 222 1259.5 225Q1235 228 1203 231Q1171 235 1136.5 240Q1102 245 1073 257.5Q1044 270 1025 292.5Q1006 315 1006 354Q1006 406 1029 441.5Q1052 477 1087 499.5Q1122 522 1163.5 532Q1205 542 1242 542Q1342 542 1390.5 506.5Q1439 471 1447 406L1347 372Q1344 414 1319.5 436Q1295 458 1236 458Q1217 458 1194 455Q1171 452 1151.5 443Q1132 434 1119 417Q1106 400 1106 373Q1106 356 1114.5 345.5Q1123 335 1139 329Q1155 323 1178 320Q1201 317 1229 314Q1265 311 1302 306Q1339 301 1369 288.5Q1399 276 1418 251.5Q1437 227 1437 185Q1437 131 1413 93.5Q1389 56 1351.5 32.5Q1314 9 1267.5 -1.5Q1221 -12 1175 -12Q1121 -12 1082 -1.5Q1043 9 1017 29Q991 12 950.5 0Q910 -12 850 -12ZM144 202Q144 181 154 158.5Q164 136 182 118Q200 100 227 88.5Q254 77 288 77Q325 77 357 92Q389 107 412.5 136Q436 165 449.5 208Q463 251 463 306Q463 378 428.5 415.5Q394 453 334 453Q300 453 270.5 441.5Q241 430 218.5 412Q196 394 181 372Q166 350 160 328Z" glyph-name="glyph01059" horiz-adv-x="1490" /><glyph d="M971 159Q965 111 939.5 78.5Q914 46 874.5 26Q835 6 783 -3Q731 -12 671 -12Q618 -12 563 -7Q508 -2 455.5 18.5Q403 39 356 79.5Q309 120 272 191H159L136 0H36L101 530H330Q363 530 394 524Q425 518 449 502Q473 486 488 459.5Q503 433 503 391Q503 349 493 318.5Q483 288 466.5 266.5Q450 245 428 231.5Q406 218 383 210Q410 162 443.5 135Q477 108 513 94.5Q549 81 584.5 77.5Q620 74 650 74Q702 74 743.5 77.5Q785 81 813.5 91Q842 101 857.5 119.5Q873 138 873 169Q873 189 864 199.5Q855 210 837.5 216Q820 222 795.5 225Q771 228 739 231Q707 235 672.5 240Q638 245 609 257.5Q580 270 561 292.5Q542 315 542 354Q542 406 565 441.5Q588 477 623 499.5Q658 522 699.5 532Q741 542 778 542Q878 542 926.5 506.5Q975 471 983 406L883 372Q880 414 855.5 436Q831 458 772 458Q753 458 730 455Q707 452 687.5 443Q668 434 655 417Q642 400 642 373Q642 356 650.5 345.5Q659 335 675 329Q691 323 714 320Q737 317 765 314Q801 311 838 306Q875 301 905 288.5Q935 276 954 251.5Q973 227 973 184Q973 178 972.5 172Q972 166 971 159ZM303 283Q318 283 335.5 285Q353 287 368 296Q383 305 393 324Q403 343 403 377Q403 399 395.5 411.5Q388 424 376 430Q364 436 350 437Q336 438 322 438H189L170 283Z" glyph-name="glyph01060" horiz-adv-x="1026" /><glyph d="M606 166 549 -12H429L411 166H305L243 -12H123L109 166H9L19 245H104L100 285H23L33 364H94L82 530H189L195 364H288L348 530H458L475 364H569L617 530H724L670 364H731L721 285H644L632 245H717L707 166ZM333 245H403L398 285H346ZM488 245H536L546 285H483ZM200 245H247L260 285H198ZM501 124 513 166H496ZM205 124 219 166H203ZM373 364H390L387 401Z" glyph-name="glyph01061" horiz-adv-x="756" /><glyph d="M340 530Q384 530 418.5 518.5Q453 507 475.5 484.5Q498 462 508 429Q518 396 513 352L488 152H388L411 337Q423 438 322 438H183L130 0H30L95 530ZM200 0 245 368H345L311 92H450Q551 92 563 193L605 530H705L661 178Q650 90 591.5 45Q533 0 445 0Z" glyph-name="glyph01062" horiz-adv-x="750" /><glyph d="M85 247 192 297 209 438H33L45 530H497L485 438H309L298 347L418 403L408 321L288 265L282 215L402 271L392 189L272 133L256 0H156L166 83L59 33L69 115L176 165L182 215L75 165Z" glyph-name="glyph01063" horiz-adv-x="492" /><glyph d="M517 320Q505 281 483.5 256.5Q462 232 434.5 217.5Q407 203 376 197.5Q345 192 313 192H183L160 0H61L100 320H27L36 399H109L126 530H355Q387 530 417 524.5Q447 519 471 504Q495 489 510.5 463.5Q526 438 527 399H600L591 320ZM208 399H425Q422 414 413.5 422Q405 430 394.5 434Q384 438 372 439Q360 440 348 440H214ZM328 283Q351 283 375.5 288Q400 293 415 320H199L194 283Z" glyph-name="glyph01064" horiz-adv-x="620" /><glyph d="M204 0 165 -100H76L113 0H39L108 564H321L358 664H447L410 564Q437 563 465.5 556Q494 549 516 532Q538 515 550 486.5Q562 458 556 413Q550 362 524.5 334Q499 306 471 298Q507 291 528.5 256Q550 221 543 164Q537 114 516 82Q495 50 465.5 32Q436 14 400 7Q364 0 326 0ZM335 87Q356 87 374.5 90Q393 93 407.5 102Q422 111 432 126.5Q442 142 445 166Q448 190 442.5 205.5Q437 221 425.5 230.5Q414 240 397.5 243.5Q381 247 361 247H165L145 87ZM193 476 176 334H360Q406 334 429.5 351Q453 368 458 409Q463 447 444 461.5Q425 476 377 476Z" glyph-name="glyph01065" horiz-adv-x="602" /><glyph d="M241 454 299 607H396L337 454H486L545 607H641L582 454H677L666 364H548L474 166H570L559 76H439L381 -77H285L343 76H194L136 -77H40L98 76H4L15 166H132L207 364H110L121 454ZM228 166H377L452 364H303Z" glyph-name="glyph01066" horiz-adv-x="696" /><glyph d="M191 0H79L92 111H204Z" glyph-name="glyph01132" horiz-adv-x="350" /><glyph d="M207 111 89 -149H28L92 111Z" glyph-name="glyph01133" horiz-adv-x="350" /><glyph d="M191 0H79L92 111H204ZM234 354H122L136 465H248Z" glyph-name="glyph01134" horiz-adv-x="350" /><glyph d="M234 354H122L136 465H248ZM207 111 89 -149H28L92 111Z" glyph-name="glyph01135" horiz-adv-x="350" /><glyph d="M1230 333Q1192 333 1162.5 310.5Q1133 288 1125 229Q1161 265 1226 265Q1350 265 1350 156Q1350 114 1337 82.5Q1324 51 1300.5 30Q1277 9 1245.5 -1.5Q1214 -12 1177 -12Q1103 -12 1068 26Q1033 64 1033 142Q1033 209 1048 259Q1063 309 1090 342.5Q1117 376 1155.5 392.5Q1194 409 1241 409Q1299 409 1330.5 385Q1362 361 1368 319L1283 290Q1281 310 1268.5 321Q1256 332 1230 333ZM282 0H178L789 764H893ZM185 446 211 655Q186 636 152 624.5Q118 613 79 606L89 689Q134 698 171 719.5Q208 741 243 776H310L269 446H384L375 367H61L70 446ZM740 79 766 288Q741 269 707 257.5Q673 246 634 239L644 322Q689 331 726 352.5Q763 374 798 409H865L824 79H939L930 0H616L625 79ZM1207 195Q1174 195 1147 176Q1120 157 1120 118Q1120 91 1139 77.5Q1158 64 1184 64Q1216 64 1239.5 82.5Q1263 101 1263 143Q1263 171 1247.5 182.5Q1232 194 1207 195Z" glyph-name="glyph01153" horiz-adv-x="1420" /><glyph d="M1229 333Q1191 333 1161.5 310.5Q1132 288 1124 229Q1160 265 1225 265Q1349 265 1349 156Q1349 114 1336 82.5Q1323 51 1299.5 30Q1276 9 1244.5 -1.5Q1213 -12 1176 -12Q1102 -12 1067 26Q1032 64 1032 142Q1032 209 1047 259Q1062 309 1089 342.5Q1116 376 1154.5 392.5Q1193 409 1240 409Q1298 409 1329.5 385Q1361 361 1367 319L1282 290Q1280 310 1267.5 321Q1255 332 1229 333ZM281 0H177L788 764H892ZM222 435Q269 435 293 449.5Q317 464 317 498Q317 512 311 520Q305 528 294.5 531.5Q284 535 271 535.5Q258 536 244 536H180L189 606H254Q268 606 280 607.5Q292 609 302 614Q312 619 317.5 629.5Q323 640 323 658Q323 680 304.5 689.5Q286 699 258 699Q222 699 201 686.5Q180 674 172 642L92 669Q123 776 267 776Q296 776 321.5 770.5Q347 765 366.5 752.5Q386 740 397.5 720.5Q409 701 409 673Q409 629 390 605.5Q371 582 350 573Q369 566 384.5 548Q400 530 400 497Q400 434 353 394.5Q306 355 210 355Q137 355 100.5 382Q64 409 59 462L145 492Q146 459 165 447Q184 435 222 435ZM739 79 765 288Q740 269 706 257.5Q672 246 633 239L643 322Q688 331 725 352.5Q762 374 797 409H864L823 79H938L929 0H615L624 79ZM1206 195Q1173 195 1146 176Q1119 157 1119 118Q1119 91 1138 77.5Q1157 64 1183 64Q1215 64 1238.5 82.5Q1262 101 1262 143Q1262 171 1246.5 182.5Q1231 194 1206 195Z" glyph-name="glyph01154" horiz-adv-x="1419" /><glyph d="M1214 333Q1176 333 1146.5 310.5Q1117 288 1109 229Q1145 265 1210 265Q1334 265 1334 156Q1334 114 1321 82.5Q1308 51 1284.5 30Q1261 9 1229.5 -1.5Q1198 -12 1161 -12Q1087 -12 1052 26Q1017 64 1017 142Q1017 209 1032 259Q1047 309 1074 342.5Q1101 376 1139.5 392.5Q1178 409 1225 409Q1283 409 1314.5 385Q1346 361 1352 319L1267 290Q1265 310 1252.5 321Q1240 332 1214 333ZM266 0H162L773 764H877ZM219 432Q235 432 250 436.5Q265 441 277 451Q289 461 296 477Q303 493 303 515Q303 571 241 571Q216 571 195 563Q174 555 160 538L91 562L137 764H398L388 684H200L185 619Q198 627 216.5 631Q235 635 254 635Q318 635 353.5 609Q389 583 389 523Q389 479 374 447.5Q359 416 334 395.5Q309 375 276.5 365Q244 355 208 355Q135 355 101.5 381.5Q68 408 64 460L150 490Q151 455 167.5 443.5Q184 432 219 432ZM724 79 750 288Q725 269 691 257.5Q657 246 618 239L628 322Q673 331 710 352.5Q747 374 782 409H849L808 79H923L914 0H600L609 79ZM1191 195Q1158 195 1131 176Q1104 157 1104 118Q1104 91 1123 77.5Q1142 64 1168 64Q1200 64 1223.5 82.5Q1247 101 1247 143Q1247 171 1231.5 182.5Q1216 194 1191 195Z" glyph-name="glyph01155" horiz-adv-x="1404" /><glyph d="M1142 333Q1104 333 1074.5 310.5Q1045 288 1037 229Q1073 265 1138 265Q1262 265 1262 156Q1262 114 1249 82.5Q1236 51 1212.5 30Q1189 9 1157.5 -1.5Q1126 -12 1089 -12Q1015 -12 980 26Q945 64 945 142Q945 209 960 259Q975 309 1002 342.5Q1029 376 1067.5 392.5Q1106 409 1153 409Q1211 409 1242.5 385Q1274 361 1280 319L1195 290Q1193 310 1180.5 321Q1168 332 1142 333ZM194 0H90L701 764H805ZM652 79 678 288Q653 269 619 257.5Q585 246 546 239L556 322Q601 331 638 352.5Q675 374 710 409H777L736 79H851L842 0H528L537 79ZM89 367 252 639 280 684H80L90 764H394L388 710L185 367ZM1119 195Q1086 195 1059 176Q1032 157 1032 118Q1032 91 1051 77.5Q1070 64 1096 64Q1128 64 1151.5 82.5Q1175 101 1175 143Q1175 171 1159.5 182.5Q1144 194 1119 195Z" glyph-name="glyph01156" horiz-adv-x="1332" /><glyph d="M202 431Q240 431 269.5 453.5Q299 476 307 535Q271 499 206 499Q82 499 82 608Q82 650 95.5 681.5Q109 713 132 734Q155 755 186.5 765.5Q218 776 255 776Q329 776 364 738Q399 700 399 622Q399 488 342.5 421.5Q286 355 191 355Q133 355 101.5 379Q70 403 64 445L149 474Q151 454 163.5 443Q176 432 202 431ZM1223 333Q1185 333 1155.5 310.5Q1126 288 1118 229Q1154 265 1219 265Q1343 265 1343 156Q1343 114 1330 82.5Q1317 51 1293.5 30Q1270 9 1238.5 -1.5Q1207 -12 1170 -12Q1096 -12 1061 26Q1026 64 1026 142Q1026 209 1041 259Q1056 309 1083 342.5Q1110 376 1148.5 392.5Q1187 409 1234 409Q1292 409 1323.5 385Q1355 361 1361 319L1276 290Q1274 310 1261.5 321Q1249 332 1223 333ZM275 0H171L782 764H886ZM733 79 759 288Q734 269 700 257.5Q666 246 627 239L637 322Q682 331 719 352.5Q756 374 791 409H858L817 79H932L923 0H609L618 79ZM225 569Q258 569 285 588Q312 607 312 646Q312 673 293 686.5Q274 700 248 700Q216 700 192.5 681.5Q169 663 169 621Q169 593 184.5 581.5Q200 570 225 569ZM1200 195Q1167 195 1140 176Q1113 157 1113 118Q1113 91 1132 77.5Q1151 64 1177 64Q1209 64 1232.5 82.5Q1256 101 1256 143Q1256 171 1240.5 182.5Q1225 194 1200 195Z" glyph-name="glyph01157" horiz-adv-x="1413" /><glyph d="M1630 333Q1592 333 1562.5 310.5Q1533 288 1525 229Q1561 265 1626 265Q1750 265 1750 156Q1750 114 1737 82.5Q1724 51 1700.5 30Q1677 9 1645.5 -1.5Q1614 -12 1577 -12Q1503 -12 1468 26Q1433 64 1433 142Q1433 209 1448 259Q1463 309 1490 342.5Q1517 376 1555.5 392.5Q1594 409 1641 409Q1699 409 1730.5 385Q1762 361 1768 319L1683 290Q1681 310 1668.5 321Q1656 332 1630 333ZM682 0H578L1189 764H1293ZM185 446 211 655Q186 636 152 624.5Q118 613 79 606L89 689Q134 698 171 719.5Q208 741 243 776H310L269 446H384L375 367H61L70 446ZM1140 79 1166 288Q1141 269 1107 257.5Q1073 246 1034 239L1044 322Q1089 331 1126 352.5Q1163 374 1198 409H1265L1224 79H1339L1330 0H1016L1025 79ZM585 446 611 655Q586 636 552 624.5Q518 613 479 606L489 689Q534 698 571 719.5Q608 741 643 776H710L669 446H784L775 367H461L470 446ZM1607 195Q1574 195 1547 176Q1520 157 1520 118Q1520 91 1539 77.5Q1558 64 1584 64Q1616 64 1639.5 82.5Q1663 101 1663 143Q1663 171 1647.5 182.5Q1632 194 1607 195Z" glyph-name="glyph01158" horiz-adv-x="1820" /><glyph d="M1656 333Q1618 333 1588.5 310.5Q1559 288 1551 229Q1587 265 1652 265Q1776 265 1776 156Q1776 114 1763 82.5Q1750 51 1726.5 30Q1703 9 1671.5 -1.5Q1640 -12 1603 -12Q1529 -12 1494 26Q1459 64 1459 142Q1459 209 1474 259Q1489 309 1516 342.5Q1543 376 1581.5 392.5Q1620 409 1667 409Q1725 409 1756.5 385Q1788 361 1794 319L1709 290Q1707 310 1694.5 321Q1682 332 1656 333ZM708 0H604L1215 764H1319ZM649 435Q696 435 720 449.5Q744 464 744 498Q744 512 738 520Q732 528 721.5 531.5Q711 535 698 535.5Q685 536 671 536H607L616 606H681Q695 606 707 607.5Q719 609 729 614Q739 619 744.5 629.5Q750 640 750 658Q750 680 731.5 689.5Q713 699 685 699Q649 699 628 686.5Q607 674 599 642L519 669Q550 776 694 776Q723 776 748.5 770.5Q774 765 793.5 752.5Q813 740 824.5 720.5Q836 701 836 673Q836 629 817 605.5Q798 582 777 573Q796 566 811.5 548Q827 530 827 497Q827 434 780 394.5Q733 355 637 355Q564 355 527.5 382Q491 409 486 462L572 492Q573 459 592 447Q611 435 649 435ZM1166 79 1192 288Q1167 269 1133 257.5Q1099 246 1060 239L1070 322Q1115 331 1152 352.5Q1189 374 1224 409H1291L1250 79H1365L1356 0H1042L1051 79ZM185 446 211 655Q186 636 152 624.5Q118 613 79 606L89 689Q134 698 171 719.5Q208 741 243 776H310L269 446H384L375 367H61L70 446ZM1633 195Q1600 195 1573 176Q1546 157 1546 118Q1546 91 1565 77.5Q1584 64 1610 64Q1642 64 1665.5 82.5Q1689 101 1689 143Q1689 171 1673.5 182.5Q1658 194 1633 195Z" glyph-name="glyph01159" horiz-adv-x="1846" /><glyph d="M1641 333Q1603 333 1573.5 310.5Q1544 288 1536 229Q1572 265 1637 265Q1761 265 1761 156Q1761 114 1748 82.5Q1735 51 1711.5 30Q1688 9 1656.5 -1.5Q1625 -12 1588 -12Q1514 -12 1479 26Q1444 64 1444 142Q1444 209 1459 259Q1474 309 1501 342.5Q1528 376 1566.5 392.5Q1605 409 1652 409Q1710 409 1741.5 385Q1773 361 1779 319L1694 290Q1692 310 1679.5 321Q1667 332 1641 333ZM693 0H589L1200 764H1304ZM646 432Q662 432 677 436.5Q692 441 704 451Q716 461 723 477Q730 493 730 515Q730 571 668 571Q643 571 622 563Q601 555 587 538L518 562L564 764H825L815 684H627L612 619Q625 627 643.5 631Q662 635 681 635Q745 635 780.5 609Q816 583 816 523Q816 479 801 447.5Q786 416 761 395.5Q736 375 703.5 365Q671 355 635 355Q562 355 528.5 381.5Q495 408 491 460L577 490Q578 455 594.5 443.5Q611 432 646 432ZM1151 79 1177 288Q1152 269 1118 257.5Q1084 246 1045 239L1055 322Q1100 331 1137 352.5Q1174 374 1209 409H1276L1235 79H1350L1341 0H1027L1036 79ZM185 446 211 655Q186 636 152 624.5Q118 613 79 606L89 689Q134 698 171 719.5Q208 741 243 776H310L269 446H384L375 367H61L70 446ZM1618 195Q1585 195 1558 176Q1531 157 1531 118Q1531 91 1550 77.5Q1569 64 1595 64Q1627 64 1650.5 82.5Q1674 101 1674 143Q1674 171 1658.5 182.5Q1643 194 1618 195Z" glyph-name="glyph01160" horiz-adv-x="1831" /><glyph d="M282 0H178L789 764H893ZM1280 409Q1340 409 1380 382Q1420 355 1420 301Q1420 263 1407.5 239Q1395 215 1374 199Q1353 183 1326.5 173Q1300 163 1272 153Q1231 139 1202 121Q1173 103 1164 77L1252 79H1402L1393 0H1063Q1069 56 1084.5 91.5Q1100 127 1123 150Q1146 173 1176.5 188Q1207 203 1244 216Q1291 233 1313.5 246.5Q1336 260 1336 288Q1336 301 1330 309Q1324 317 1315 322Q1306 327 1294.5 329Q1283 331 1272 331Q1234 331 1213 319Q1192 307 1183 275L1103 302Q1139 409 1280 409ZM809 68Q856 68 880 82.5Q904 97 904 131Q904 145 898 153Q892 161 881.5 164.5Q871 168 858 168.5Q845 169 831 169H767L776 239H841Q855 239 867 240.5Q879 242 889 247Q899 252 904.5 262.5Q910 273 910 291Q910 313 891.5 322.5Q873 332 845 332Q809 332 788 319.5Q767 307 759 275L679 302Q710 409 854 409Q883 409 908.5 403.5Q934 398 953.5 385.5Q973 373 984.5 353.5Q996 334 996 306Q996 262 977 238.5Q958 215 937 206Q956 199 971.5 181Q987 163 987 130Q987 67 940 27.5Q893 -12 797 -12Q724 -12 687.5 15Q651 42 646 95L732 125Q733 92 752 80Q771 68 809 68ZM185 446 211 655Q186 636 152 624.5Q118 613 79 606L89 689Q134 698 171 719.5Q208 741 243 776H310L269 446H384L375 367H61L70 446Z" glyph-name="glyph01161" horiz-adv-x="1478" /><glyph d="M222 435Q269 435 293 449.5Q317 464 317 498Q317 512 311 520Q305 528 294.5 531.5Q284 535 271 535.5Q258 536 244 536H180L189 606H254Q268 606 280 607.5Q292 609 302 614Q312 619 317.5 629.5Q323 640 323 658Q323 680 304.5 689.5Q286 699 258 699Q222 699 201 686.5Q180 674 172 642L92 669Q123 776 267 776Q296 776 321.5 770.5Q347 765 366.5 752.5Q386 740 397.5 720.5Q409 701 409 673Q409 629 390 605.5Q371 582 350 573Q369 566 384.5 548Q400 530 400 497Q400 434 353 394.5Q306 355 210 355Q137 355 100.5 382Q64 409 59 462L145 492Q146 459 165 447Q184 435 222 435ZM281 0H177L788 764H892ZM808 68Q855 68 879 82.5Q903 97 903 131Q903 145 897 153Q891 161 880.5 164.5Q870 168 857 168.5Q844 169 830 169H766L775 239H840Q854 239 866 240.5Q878 242 888 247Q898 252 903.5 262.5Q909 273 909 291Q909 313 890.5 322.5Q872 332 844 332Q808 332 787 319.5Q766 307 758 275L678 302Q709 409 853 409Q882 409 907.5 403.5Q933 398 952.5 385.5Q972 373 983.5 353.5Q995 334 995 306Q995 262 976 238.5Q957 215 936 206Q955 199 970.5 181Q986 163 986 130Q986 67 939 27.5Q892 -12 796 -12Q723 -12 686.5 15Q650 42 645 95L731 125Q732 92 751 80Q770 68 808 68ZM1279 409Q1339 409 1379 382Q1419 355 1419 301Q1419 263 1406.5 239Q1394 215 1373 199Q1352 183 1325.5 173Q1299 163 1271 153Q1230 139 1201 121Q1172 103 1163 77L1251 79H1401L1392 0H1062Q1068 56 1083.5 91.5Q1099 127 1122 150Q1145 173 1175.5 188Q1206 203 1243 216Q1290 233 1312.5 246.5Q1335 260 1335 288Q1335 301 1329 309Q1323 317 1314 322Q1305 327 1293.5 329Q1282 331 1271 331Q1233 331 1212 319Q1191 307 1182 275L1102 302Q1138 409 1279 409Z" glyph-name="glyph01162" horiz-adv-x="1477" /><glyph d="M219 432Q235 432 250 436.5Q265 441 277 451Q289 461 296 477Q303 493 303 515Q303 571 241 571Q216 571 195 563Q174 555 160 538L91 562L137 764H398L388 684H200L185 619Q198 627 216.5 631Q235 635 254 635Q318 635 353.5 609Q389 583 389 523Q389 479 374 447.5Q359 416 334 395.5Q309 375 276.5 365Q244 355 208 355Q135 355 101.5 381.5Q68 408 64 460L150 490Q151 455 167.5 443.5Q184 432 219 432ZM266 0H162L773 764H877ZM793 68Q840 68 864 82.5Q888 97 888 131Q888 145 882 153Q876 161 865.5 164.5Q855 168 842 168.5Q829 169 815 169H751L760 239H825Q839 239 851 240.5Q863 242 873 247Q883 252 888.5 262.5Q894 273 894 291Q894 313 875.5 322.5Q857 332 829 332Q793 332 772 319.5Q751 307 743 275L663 302Q694 409 838 409Q867 409 892.5 403.5Q918 398 937.5 385.5Q957 373 968.5 353.5Q980 334 980 306Q980 262 961 238.5Q942 215 921 206Q940 199 955.5 181Q971 163 971 130Q971 67 924 27.5Q877 -12 781 -12Q708 -12 671.5 15Q635 42 630 95L716 125Q717 92 736 80Q755 68 793 68ZM1264 409Q1324 409 1364 382Q1404 355 1404 301Q1404 263 1391.5 239Q1379 215 1358 199Q1337 183 1310.5 173Q1284 163 1256 153Q1215 139 1186 121Q1157 103 1148 77L1236 79H1386L1377 0H1047Q1053 56 1068.5 91.5Q1084 127 1107 150Q1130 173 1160.5 188Q1191 203 1228 216Q1275 233 1297.5 246.5Q1320 260 1320 288Q1320 301 1314 309Q1308 317 1299 322Q1290 327 1278.5 329Q1267 331 1256 331Q1218 331 1197 319Q1176 307 1167 275L1087 302Q1123 409 1264 409Z" glyph-name="glyph01163" horiz-adv-x="1462" /><glyph d="M89 367 252 639 280 684H80L90 764H394L388 710L185 367ZM194 0H90L701 764H805ZM721 68Q768 68 792 82.5Q816 97 816 131Q816 145 810 153Q804 161 793.5 164.5Q783 168 770 168.5Q757 169 743 169H679L688 239H753Q767 239 779 240.5Q791 242 801 247Q811 252 816.5 262.5Q822 273 822 291Q822 313 803.5 322.5Q785 332 757 332Q721 332 700 319.5Q679 307 671 275L591 302Q622 409 766 409Q795 409 820.5 403.5Q846 398 865.5 385.5Q885 373 896.5 353.5Q908 334 908 306Q908 262 889 238.5Q870 215 849 206Q868 199 883.5 181Q899 163 899 130Q899 67 852 27.5Q805 -12 709 -12Q636 -12 599.5 15Q563 42 558 95L644 125Q645 92 664 80Q683 68 721 68ZM1192 409Q1252 409 1292 382Q1332 355 1332 301Q1332 263 1319.5 239Q1307 215 1286 199Q1265 183 1238.5 173Q1212 163 1184 153Q1143 139 1114 121Q1085 103 1076 77L1164 79H1314L1305 0H975Q981 56 996.5 91.5Q1012 127 1035 150Q1058 173 1088.5 188Q1119 203 1156 216Q1203 233 1225.5 246.5Q1248 260 1248 288Q1248 301 1242 309Q1236 317 1227 322Q1218 327 1206.5 329Q1195 331 1184 331Q1146 331 1125 319Q1104 307 1095 275L1015 302Q1051 409 1192 409Z" glyph-name="glyph01164" horiz-adv-x="1390" /><glyph d="M202 431Q240 431 269.5 453.5Q299 476 307 535Q271 499 206 499Q82 499 82 608Q82 650 95.5 681.5Q109 713 132 734Q155 755 186.5 765.5Q218 776 255 776Q329 776 364 738Q399 700 399 622Q399 488 342.5 421.5Q286 355 191 355Q133 355 101.5 379Q70 403 64 445L149 474Q151 454 163.5 443Q176 432 202 431ZM225 569Q258 569 285 588Q312 607 312 646Q312 673 293 686.5Q274 700 248 700Q216 700 192.5 681.5Q169 663 169 621Q169 593 184.5 581.5Q200 570 225 569ZM275 0H171L782 764H886ZM802 68Q849 68 873 82.5Q897 97 897 131Q897 145 891 153Q885 161 874.5 164.5Q864 168 851 168.5Q838 169 824 169H760L769 239H834Q848 239 860 240.5Q872 242 882 247Q892 252 897.5 262.5Q903 273 903 291Q903 313 884.5 322.5Q866 332 838 332Q802 332 781 319.5Q760 307 752 275L672 302Q703 409 847 409Q876 409 901.5 403.5Q927 398 946.5 385.5Q966 373 977.5 353.5Q989 334 989 306Q989 262 970 238.5Q951 215 930 206Q949 199 964.5 181Q980 163 980 130Q980 67 933 27.5Q886 -12 790 -12Q717 -12 680.5 15Q644 42 639 95L725 125Q726 92 745 80Q764 68 802 68ZM1273 409Q1333 409 1373 382Q1413 355 1413 301Q1413 263 1400.5 239Q1388 215 1367 199Q1346 183 1319.5 173Q1293 163 1265 153Q1224 139 1195 121Q1166 103 1157 77L1245 79H1395L1386 0H1056Q1062 56 1077.5 91.5Q1093 127 1116 150Q1139 173 1169.5 188Q1200 203 1237 216Q1284 233 1306.5 246.5Q1329 260 1329 288Q1329 301 1323 309Q1317 317 1308 322Q1299 327 1287.5 329Q1276 331 1265 331Q1227 331 1206 319Q1185 307 1176 275L1096 302Q1132 409 1273 409Z" glyph-name="glyph01165" horiz-adv-x="1471" /><glyph d="M682 0H578L1189 764H1293ZM1680 409Q1740 409 1780 382Q1820 355 1820 301Q1820 263 1807.5 239Q1795 215 1774 199Q1753 183 1726.5 173Q1700 163 1672 153Q1631 139 1602 121Q1573 103 1564 77L1652 79H1802L1793 0H1463Q1469 56 1484.5 91.5Q1500 127 1523 150Q1546 173 1576.5 188Q1607 203 1644 216Q1691 233 1713.5 246.5Q1736 260 1736 288Q1736 301 1730 309Q1724 317 1715 322Q1706 327 1694.5 329Q1683 331 1672 331Q1634 331 1613 319Q1592 307 1583 275L1503 302Q1539 409 1680 409ZM1209 68Q1256 68 1280 82.5Q1304 97 1304 131Q1304 145 1298 153Q1292 161 1281.5 164.5Q1271 168 1258 168.5Q1245 169 1231 169H1167L1176 239H1241Q1255 239 1267 240.5Q1279 242 1289 247Q1299 252 1304.5 262.5Q1310 273 1310 291Q1310 313 1291.5 322.5Q1273 332 1245 332Q1209 332 1188 319.5Q1167 307 1159 275L1079 302Q1110 409 1254 409Q1283 409 1308.5 403.5Q1334 398 1353.5 385.5Q1373 373 1384.5 353.5Q1396 334 1396 306Q1396 262 1377 238.5Q1358 215 1337 206Q1356 199 1371.5 181Q1387 163 1387 130Q1387 67 1340 27.5Q1293 -12 1197 -12Q1124 -12 1087.5 15Q1051 42 1046 95L1132 125Q1133 92 1152 80Q1171 68 1209 68ZM585 446 611 655Q586 636 552 624.5Q518 613 479 606L489 689Q534 698 571 719.5Q608 741 643 776H710L669 446H784L775 367H461L470 446ZM185 446 211 655Q186 636 152 624.5Q118 613 79 606L89 689Q134 698 171 719.5Q208 741 243 776H310L269 446H384L375 367H61L70 446Z" glyph-name="glyph01166" horiz-adv-x="1878" /><glyph d="M708 0H604L1215 764H1319ZM1706 409Q1766 409 1806 382Q1846 355 1846 301Q1846 263 1833.5 239Q1821 215 1800 199Q1779 183 1752.5 173Q1726 163 1698 153Q1657 139 1628 121Q1599 103 1590 77L1678 79H1828L1819 0H1489Q1495 56 1510.5 91.5Q1526 127 1549 150Q1572 173 1602.5 188Q1633 203 1670 216Q1717 233 1739.5 246.5Q1762 260 1762 288Q1762 301 1756 309Q1750 317 1741 322Q1732 327 1720.5 329Q1709 331 1698 331Q1660 331 1639 319Q1618 307 1609 275L1529 302Q1565 409 1706 409ZM1235 68Q1282 68 1306 82.5Q1330 97 1330 131Q1330 145 1324 153Q1318 161 1307.5 164.5Q1297 168 1284 168.5Q1271 169 1257 169H1193L1202 239H1267Q1281 239 1293 240.5Q1305 242 1315 247Q1325 252 1330.5 262.5Q1336 273 1336 291Q1336 313 1317.5 322.5Q1299 332 1271 332Q1235 332 1214 319.5Q1193 307 1185 275L1105 302Q1136 409 1280 409Q1309 409 1334.5 403.5Q1360 398 1379.5 385.5Q1399 373 1410.5 353.5Q1422 334 1422 306Q1422 262 1403 238.5Q1384 215 1363 206Q1382 199 1397.5 181Q1413 163 1413 130Q1413 67 1366 27.5Q1319 -12 1223 -12Q1150 -12 1113.5 15Q1077 42 1072 95L1158 125Q1159 92 1178 80Q1197 68 1235 68ZM649 435Q696 435 720 449.5Q744 464 744 498Q744 512 738 520Q732 528 721.5 531.5Q711 535 698 535.5Q685 536 671 536H607L616 606H681Q695 606 707 607.5Q719 609 729 614Q739 619 744.5 629.5Q750 640 750 658Q750 680 731.5 689.5Q713 699 685 699Q649 699 628 686.5Q607 674 599 642L519 669Q550 776 694 776Q723 776 748.5 770.5Q774 765 793.5 752.5Q813 740 824.5 720.5Q836 701 836 673Q836 629 817 605.5Q798 582 777 573Q796 566 811.5 548Q827 530 827 497Q827 434 780 394.5Q733 355 637 355Q564 355 527.5 382Q491 409 486 462L572 492Q573 459 592 447Q611 435 649 435ZM185 446 211 655Q186 636 152 624.5Q118 613 79 606L89 689Q134 698 171 719.5Q208 741 243 776H310L269 446H384L375 367H61L70 446Z" glyph-name="glyph01167" horiz-adv-x="1904" /><glyph d="M693 0H589L1200 764H1304ZM646 432Q662 432 677 436.5Q692 441 704 451Q716 461 723 477Q730 493 730 515Q730 571 668 571Q643 571 622 563Q601 555 587 538L518 562L564 764H825L815 684H627L612 619Q625 627 643.5 631Q662 635 681 635Q745 635 780.5 609Q816 583 816 523Q816 479 801 447.5Q786 416 761 395.5Q736 375 703.5 365Q671 355 635 355Q562 355 528.5 381.5Q495 408 491 460L577 490Q578 455 594.5 443.5Q611 432 646 432ZM1691 409Q1751 409 1791 382Q1831 355 1831 301Q1831 263 1818.5 239Q1806 215 1785 199Q1764 183 1737.5 173Q1711 163 1683 153Q1642 139 1613 121Q1584 103 1575 77L1663 79H1813L1804 0H1474Q1480 56 1495.5 91.5Q1511 127 1534 150Q1557 173 1587.5 188Q1618 203 1655 216Q1702 233 1724.5 246.5Q1747 260 1747 288Q1747 301 1741 309Q1735 317 1726 322Q1717 327 1705.5 329Q1694 331 1683 331Q1645 331 1624 319Q1603 307 1594 275L1514 302Q1550 409 1691 409ZM1220 68Q1267 68 1291 82.5Q1315 97 1315 131Q1315 145 1309 153Q1303 161 1292.5 164.5Q1282 168 1269 168.5Q1256 169 1242 169H1178L1187 239H1252Q1266 239 1278 240.5Q1290 242 1300 247Q1310 252 1315.5 262.5Q1321 273 1321 291Q1321 313 1302.5 322.5Q1284 332 1256 332Q1220 332 1199 319.5Q1178 307 1170 275L1090 302Q1121 409 1265 409Q1294 409 1319.5 403.5Q1345 398 1364.5 385.5Q1384 373 1395.5 353.5Q1407 334 1407 306Q1407 262 1388 238.5Q1369 215 1348 206Q1367 199 1382.5 181Q1398 163 1398 130Q1398 67 1351 27.5Q1304 -12 1208 -12Q1135 -12 1098.5 15Q1062 42 1057 95L1143 125Q1144 92 1163 80Q1182 68 1220 68ZM185 446 211 655Q186 636 152 624.5Q118 613 79 606L89 689Q134 698 171 719.5Q208 741 243 776H310L269 446H384L375 367H61L70 446Z" glyph-name="glyph01168" horiz-adv-x="1889" /><glyph d="M621 0H517L1128 764H1232ZM1619 409Q1679 409 1719 382Q1759 355 1759 301Q1759 263 1746.5 239Q1734 215 1713 199Q1692 183 1665.5 173Q1639 163 1611 153Q1570 139 1541 121Q1512 103 1503 77L1591 79H1741L1732 0H1402Q1408 56 1423.5 91.5Q1439 127 1462 150Q1485 173 1515.5 188Q1546 203 1583 216Q1630 233 1652.5 246.5Q1675 260 1675 288Q1675 301 1669 309Q1663 317 1654 322Q1645 327 1633.5 329Q1622 331 1611 331Q1573 331 1552 319Q1531 307 1522 275L1442 302Q1478 409 1619 409ZM1148 68Q1195 68 1219 82.5Q1243 97 1243 131Q1243 145 1237 153Q1231 161 1220.5 164.5Q1210 168 1197 168.5Q1184 169 1170 169H1106L1115 239H1180Q1194 239 1206 240.5Q1218 242 1228 247Q1238 252 1243.5 262.5Q1249 273 1249 291Q1249 313 1230.5 322.5Q1212 332 1184 332Q1148 332 1127 319.5Q1106 307 1098 275L1018 302Q1049 409 1193 409Q1222 409 1247.5 403.5Q1273 398 1292.5 385.5Q1312 373 1323.5 353.5Q1335 334 1335 306Q1335 262 1316 238.5Q1297 215 1276 206Q1295 199 1310.5 181Q1326 163 1326 130Q1326 67 1279 27.5Q1232 -12 1136 -12Q1063 -12 1026.5 15Q990 42 985 95L1071 125Q1072 92 1091 80Q1110 68 1148 68ZM185 446 211 655Q186 636 152 624.5Q118 613 79 606L89 689Q134 698 171 719.5Q208 741 243 776H310L269 446H384L375 367H61L70 446ZM516 367 679 639 707 684H507L517 764H821L815 710L612 367Z" glyph-name="glyph01169" horiz-adv-x="1817" /><glyph d="M629 431Q667 431 696.5 453.5Q726 476 734 535Q698 499 633 499Q509 499 509 608Q509 650 522.5 681.5Q536 713 559 734Q582 755 613.5 765.5Q645 776 682 776Q756 776 791 738Q826 700 826 622Q826 488 769.5 421.5Q713 355 618 355Q560 355 528.5 379Q497 403 491 445L576 474Q578 454 590.5 443Q603 432 629 431ZM702 0H598L1209 764H1313ZM1700 409Q1760 409 1800 382Q1840 355 1840 301Q1840 263 1827.5 239Q1815 215 1794 199Q1773 183 1746.5 173Q1720 163 1692 153Q1651 139 1622 121Q1593 103 1584 77L1672 79H1822L1813 0H1483Q1489 56 1504.5 91.5Q1520 127 1543 150Q1566 173 1596.5 188Q1627 203 1664 216Q1711 233 1733.5 246.5Q1756 260 1756 288Q1756 301 1750 309Q1744 317 1735 322Q1726 327 1714.5 329Q1703 331 1692 331Q1654 331 1633 319Q1612 307 1603 275L1523 302Q1559 409 1700 409ZM1229 68Q1276 68 1300 82.5Q1324 97 1324 131Q1324 145 1318 153Q1312 161 1301.5 164.5Q1291 168 1278 168.5Q1265 169 1251 169H1187L1196 239H1261Q1275 239 1287 240.5Q1299 242 1309 247Q1319 252 1324.5 262.5Q1330 273 1330 291Q1330 313 1311.5 322.5Q1293 332 1265 332Q1229 332 1208 319.5Q1187 307 1179 275L1099 302Q1130 409 1274 409Q1303 409 1328.5 403.5Q1354 398 1373.5 385.5Q1393 373 1404.5 353.5Q1416 334 1416 306Q1416 262 1397 238.5Q1378 215 1357 206Q1376 199 1391.5 181Q1407 163 1407 130Q1407 67 1360 27.5Q1313 -12 1217 -12Q1144 -12 1107.5 15Q1071 42 1066 95L1152 125Q1153 92 1172 80Q1191 68 1229 68ZM185 446 211 655Q186 636 152 624.5Q118 613 79 606L89 689Q134 698 171 719.5Q208 741 243 776H310L269 446H384L375 367H61L70 446ZM652 569Q685 569 712 588Q739 607 739 646Q739 673 720 686.5Q701 700 675 700Q643 700 619.5 681.5Q596 663 596 621Q596 593 611.5 581.5Q627 570 652 569Z" glyph-name="glyph01170" horiz-adv-x="1898" /><glyph d="M702 0H598L1209 764H1313ZM267 776Q327 776 367 749Q407 722 407 668Q407 630 394.5 606Q382 582 361 566Q340 550 313.5 540Q287 530 259 520Q218 506 189 488Q160 470 151 444L239 446H389L380 367H50Q56 423 71.5 458.5Q87 494 110 517Q133 540 163.5 555Q194 570 231 583Q278 600 300.5 613.5Q323 627 323 655Q323 668 317 676Q311 684 302 689Q293 694 281.5 696Q270 698 259 698Q221 698 200 686Q179 674 170 642L90 669Q126 776 267 776ZM1700 409Q1760 409 1800 382Q1840 355 1840 301Q1840 263 1827.5 239Q1815 215 1794 199Q1773 183 1746.5 173Q1720 163 1692 153Q1651 139 1622 121Q1593 103 1584 77L1672 79H1822L1813 0H1483Q1489 56 1504.5 91.5Q1520 127 1543 150Q1566 173 1596.5 188Q1627 203 1664 216Q1711 233 1733.5 246.5Q1756 260 1756 288Q1756 301 1750 309Q1744 317 1735 322Q1726 327 1714.5 329Q1703 331 1692 331Q1654 331 1633 319Q1612 307 1603 275L1523 302Q1559 409 1700 409ZM1229 68Q1276 68 1300 82.5Q1324 97 1324 131Q1324 145 1318 153Q1312 161 1301.5 164.5Q1291 168 1278 168.5Q1265 169 1251 169H1187L1196 239H1261Q1275 239 1287 240.5Q1299 242 1309 247Q1319 252 1324.5 262.5Q1330 273 1330 291Q1330 313 1311.5 322.5Q1293 332 1265 332Q1229 332 1208 319.5Q1187 307 1179 275L1099 302Q1130 409 1274 409Q1303 409 1328.5 403.5Q1354 398 1373.5 385.5Q1393 373 1404.5 353.5Q1416 334 1416 306Q1416 262 1397 238.5Q1378 215 1357 206Q1376 199 1391.5 181Q1407 163 1407 130Q1407 67 1360 27.5Q1313 -12 1217 -12Q1144 -12 1107.5 15Q1071 42 1066 95L1152 125Q1153 92 1172 80Q1191 68 1229 68ZM605 446 631 655Q606 636 572 624.5Q538 613 499 606L509 689Q554 698 591 719.5Q628 741 663 776H730L689 446H804L795 367H481L490 446Z" glyph-name="glyph01171" horiz-adv-x="1898" /></font>
</defs>
</svg>
