<?xml version="1.0" standalone="no"?><!DOCTYPE svg PUBLIC "-//W3C//DTD SVG 1.1//EN" "http://www.w3.org/Graphics/SVG/1.1/DTD/svg11.dtd" ><svg version="1.1" xmlns="http://www.w3.org/2000/svg"><defs><font horiz-adv-x="0" id="font"><font-face ascent="800" bbox="-209 -248 1967 1140" cap-height="780" descent="-200" font-family="Galaxie Polaris" font-stretch="normal" font-style="normal" font-weight="600" units-per-em="1000" x-height="530" /><missing-glyph d="M90 780H870V0H90ZM201 66H759L480 345ZM480 435 759 714H201ZM160 665V115L435 390ZM800 115V665L525 390Z" horiz-adv-x="960" /><glyph d="M289 790H453L737 0H586L525 177H217L156 0H5ZM329 518 256 295H486L413 518L371 650Z" glyph-name="A" horiz-adv-x="742" unicode="A" /><glyph d="M535 177H254L165 0H5L424 780H1012V650H605L634 464H962V334H654L686 130H1032V0H563ZM314 295H517L482 525L471 606Z" glyph-name="AE" horiz-adv-x="1092" unicode="&#198;" /><glyph d="M535 177H254L165 0H5L424 780H1012V650H605L634 464H962V334H654L686 130H1032V0H563ZM314 295H517L482 525L471 606ZM707 1030 596 822H462L556 1030Z" glyph-name="AEacute" horiz-adv-x="1092" unicode="&#508;" /><glyph d="M516 186H226L159 0H8L309 794H433L734 0H583ZM371 613 270 313H472ZM555 1030 444 822H310L404 1030Z" glyph-name="Aacute" horiz-adv-x="742" unicode="&#193;" /><glyph d="M516 186H226L159 0H8L309 794H433L734 0H583ZM371 613 270 313H472ZM570 1030Q571 979 561 939Q551 899 527.5 872Q504 845 465.5 830.5Q427 816 371 816Q315 816 276.5 830.5Q238 845 214.5 872Q191 899 181 939Q171 979 172 1030H279Q278 979 300 958Q322 937 371 937Q420 937 442 958Q464 979 463 1030Z" glyph-name="Abreve" horiz-adv-x="742" unicode="&#258;" /><glyph d="M516 186H226L159 0H8L309 794H433L734 0H583ZM371 613 270 313H472ZM310 1030H432L587 822H449L371 916L293 822H155Z" glyph-name="Acircumflex" horiz-adv-x="742" unicode="&#194;" /><glyph d="M516 186H226L159 0H8L309 794H433L734 0H583ZM371 613 270 313H472ZM337 847H187V997H337ZM555 847H405V997H555Z" glyph-name="Adieresis" horiz-adv-x="742" unicode="&#196;" /><glyph d="M516 186H226L159 0H8L309 794H433L734 0H583ZM371 613 270 313H472ZM338 1030 432 822H298L187 1030Z" glyph-name="Agrave" horiz-adv-x="742" unicode="&#192;" /><glyph d="M516 186H226L159 0H8L309 794H433L734 0H583ZM217 990H525V865H217ZM371 613 270 313H472Z" glyph-name="Amacron" horiz-adv-x="742" unicode="&#256;" /><glyph d="M734 0Q710 -3 689 -11Q668 -19 652.5 -30Q637 -41 628.5 -55Q620 -69 620 -82Q620 -95 627.5 -105.5Q635 -116 657 -116Q668 -116 678.5 -113Q689 -110 697 -106.5Q705 -103 710.5 -100Q716 -97 716 -97L745 -189Q729 -199 702 -206.5Q675 -214 641 -214Q581 -214 546.5 -182.5Q512 -151 512 -93Q513 -58 529.5 -29Q546 0 574 23L516 186H226L159 0H8L309 794H433ZM371 613 270 313H472Z" glyph-name="Aogonek" horiz-adv-x="742" unicode="&#260;" /><glyph d="M516 186H226L159 0H8L309 794H433L734 0H583ZM371 613 270 313H472ZM253 926Q253 977 284 1010.5Q315 1044 371 1044Q427 1044 458 1010.5Q489 977 489 926Q489 875 458 841.5Q427 808 371 808Q315 808 284 841.5Q253 875 253 926ZM336 926Q336 891 371 891Q406 891 406 926Q406 961 371 961Q336 961 336 926Z" glyph-name="Aring" horiz-adv-x="742" unicode="&#197;" /><glyph d="M516 186H226L159 0H8L309 794H433L734 0H583ZM371 613 270 313H472ZM336 926Q336 891 371 891Q406 891 406 926Q406 961 371 961Q336 961 336 926ZM446 1134 394 1042Q437 1037 463 1005Q489 973 489 926Q489 875 458.5 841.5Q428 808 371 808Q315 808 284 841.5Q253 875 253 926Q253 954 263 978L325 1134Z" glyph-name="Aringacute" horiz-adv-x="742" unicode="&#506;" /><glyph d="M516 186H226L159 0H8L309 794H433L734 0H583ZM371 613 270 313H472ZM617 1002Q610 914 569.5 868.5Q529 823 451 825Q415 826 391.5 837.5Q368 849 350.5 863Q333 877 319 889Q305 901 287 901Q271 902 260.5 896Q250 890 244.5 880.5Q239 871 236.5 859.5Q234 848 233 837L124 850Q131 938 171.5 983.5Q212 1029 290 1027Q326 1026 349.5 1014.5Q373 1003 390.5 989Q408 975 422 963Q436 951 454 951Q471 950 481 956Q491 962 496.5 971.5Q502 981 504.5 993Q507 1005 508 1015Z" glyph-name="Atilde" horiz-adv-x="742" unicode="&#195;" /><glyph d="M76 0V780H410Q447 780 488 771.5Q529 763 563 739.5Q597 716 619.5 674Q642 632 642 564Q642 503 620 464.5Q598 426 571 409Q613 392 640 345.5Q667 299 667 228Q667 157 646 112.5Q625 68 590.5 43Q556 18 510.5 9Q465 0 415 0ZM408 130Q425 130 445.5 132.5Q466 135 483.5 145Q501 155 512.5 175Q524 195 524 230Q524 265 513.5 286Q503 307 487 317.5Q471 328 451 331Q431 334 412 334H216V130ZM216 650V464H400Q423 464 441 468Q459 472 471.5 482.5Q484 493 491 511.5Q498 530 498 559Q498 587 491.5 605Q485 623 472 633Q459 643 441 646.5Q423 650 400 650Z" glyph-name="B" horiz-adv-x="716" unicode="B" /><glyph d="M198 390Q198 336 205.5 286Q213 236 233.5 198.5Q254 161 291.5 138.5Q329 116 389 116Q468 116 505.5 147Q543 178 554 248L695 233Q689 177 668.5 131.5Q648 86 611 53.5Q574 21 519 3.5Q464 -14 389 -14Q299 -14 235.5 15Q172 44 132 97Q92 150 73.5 224.5Q55 299 55 390Q55 481 73.5 555.5Q92 630 132 683Q172 736 235.5 765Q299 794 389 794Q464 794 519 776.5Q574 759 611 727Q648 695 668.5 649Q689 603 695 547L554 532Q543 602 505.5 633Q468 664 389 664Q329 664 291.5 641.5Q254 619 233.5 581.5Q213 544 205.5 494Q198 444 198 390Z" glyph-name="C" horiz-adv-x="743" unicode="C" /><glyph d="M205 390Q205 336 212.5 286Q220 236 240.5 198.5Q261 161 298.5 138.5Q336 116 396 116Q475 116 512.5 147Q550 178 561 248L702 233Q696 177 675.5 131.5Q655 86 618 53.5Q581 21 526 3.5Q471 -14 396 -14Q306 -14 242.5 15Q179 44 139 97Q99 150 80.5 224.5Q62 299 62 390Q62 481 80.5 555.5Q99 630 139 683Q179 736 242.5 765Q306 794 396 794Q471 794 526 776.5Q581 759 618 727Q655 695 675.5 649Q696 603 702 547L561 532Q550 602 512.5 633Q475 664 396 664Q336 664 298.5 641.5Q261 619 240.5 581.5Q220 544 212.5 494Q205 444 205 390ZM572 1030 461 822H327L421 1030Z" glyph-name="Cacute" horiz-adv-x="750" unicode="&#262;" /><glyph d="M205 390Q205 336 212.5 286Q220 236 240.5 198.5Q261 161 298.5 138.5Q336 116 396 116Q475 116 512.5 147Q550 178 561 248L702 233Q696 177 675.5 131.5Q655 86 618 53.5Q581 21 526 3.5Q471 -14 396 -14Q306 -14 242.5 15Q179 44 139 97Q99 150 80.5 224.5Q62 299 62 390Q62 481 80.5 555.5Q99 630 139 683Q179 736 242.5 765Q306 794 396 794Q471 794 526 776.5Q581 759 618 727Q655 695 675.5 649Q696 603 702 547L561 532Q550 602 512.5 633Q475 664 396 664Q336 664 298.5 641.5Q261 619 240.5 581.5Q220 544 212.5 494Q205 444 205 390ZM457 822H335L180 1030H318L396 936L474 1030H612Z" glyph-name="Ccaron" horiz-adv-x="750" unicode="&#268;" /><glyph d="M205 390Q205 336 212.5 286Q220 236 240.5 198.5Q261 161 298.5 138.5Q336 116 396 116Q475 116 512.5 147Q550 178 561 248L702 233Q696 181 678.5 138.5Q661 96 629 64Q597 32 550.5 12.5Q504 -7 441 -12L435 -35Q452 -39 468 -46Q484 -53 496.5 -63.5Q509 -74 517 -88.5Q525 -103 525 -122Q525 -146 514.5 -163Q504 -180 485 -191.5Q466 -203 441 -208.5Q416 -214 386 -214Q344 -214 315.5 -206.5Q287 -199 276 -194L297 -130Q304 -133 313 -137Q329 -143 349 -145Q358 -145 367 -144.5Q376 -144 384 -141Q392 -138 397 -133Q402 -128 402 -119Q402 -101 378.5 -90.5Q355 -80 319 -76L341 -11Q266 -2 213 30Q160 62 126.5 114Q93 166 77.5 236Q62 306 62 390Q62 481 80.5 555.5Q99 630 139 683Q179 736 242.5 765Q306 794 396 794Q471 794 526 776.5Q581 759 618 727Q655 695 675.5 649Q696 603 702 547L561 532Q550 602 512.5 633Q475 664 396 664Q336 664 298.5 641.5Q261 619 240.5 581.5Q220 544 212.5 494Q205 444 205 390Z" glyph-name="Ccedilla" horiz-adv-x="750" unicode="&#199;" /><glyph d="M205 390Q205 336 212.5 286Q220 236 240.5 198.5Q261 161 298.5 138.5Q336 116 396 116Q475 116 512.5 147Q550 178 561 248L702 233Q696 177 675.5 131.5Q655 86 618 53.5Q581 21 526 3.5Q471 -14 396 -14Q306 -14 242.5 15Q179 44 139 97Q99 150 80.5 224.5Q62 299 62 390Q62 481 80.5 555.5Q99 630 139 683Q179 736 242.5 765Q306 794 396 794Q471 794 526 776.5Q581 759 618 727Q655 695 675.5 649Q696 603 702 547L561 532Q550 602 512.5 633Q475 664 396 664Q336 664 298.5 641.5Q261 619 240.5 581.5Q220 544 212.5 494Q205 444 205 390ZM335 1030H457L612 822H474L396 916L318 822H180Z" glyph-name="Ccircumflex" horiz-adv-x="750" unicode="&#264;" /><glyph d="M205 390Q205 336 212.5 286Q220 236 240.5 198.5Q261 161 298.5 138.5Q336 116 396 116Q475 116 512.5 147Q550 178 561 248L702 233Q696 177 675.5 131.5Q655 86 618 53.5Q581 21 526 3.5Q471 -14 396 -14Q306 -14 242.5 15Q179 44 139 97Q99 150 80.5 224.5Q62 299 62 390Q62 481 80.5 555.5Q99 630 139 683Q179 736 242.5 765Q306 794 396 794Q471 794 526 776.5Q581 759 618 727Q655 695 675.5 649Q696 603 702 547L561 532Q550 602 512.5 633Q475 664 396 664Q336 664 298.5 641.5Q261 619 240.5 581.5Q220 544 212.5 494Q205 444 205 390ZM471 847H321V997H471Z" glyph-name="Cdotaccent" horiz-adv-x="750" unicode="&#266;" /><glyph d="M76 0V780H352Q531 780 622.5 686Q714 592 714 390Q714 188 622.5 94Q531 0 352 0ZM352 130Q413 130 454.5 148.5Q496 167 522 200.5Q548 234 559.5 282Q571 330 571 390Q571 450 559.5 498Q548 546 522 579.5Q496 613 454.5 631.5Q413 650 352 650H216V130Z" glyph-name="D" horiz-adv-x="771" unicode="D" /><glyph d="M76 0V780H352Q531 780 622.5 686Q714 592 714 390Q714 188 622.5 94Q531 0 352 0ZM352 130Q413 130 454.5 148.5Q496 167 522 200.5Q548 234 559.5 282Q571 330 571 390Q571 450 559.5 498Q548 546 522 579.5Q496 613 454.5 631.5Q413 650 352 650H216V130ZM404 822H282L127 1030H265L343 936L421 1030H559Z" glyph-name="Dcaron" horiz-adv-x="771" unicode="&#270;" /><glyph d="M105 0V348H-2V452H105V780H381Q560 780 651.5 686Q743 592 743 390Q743 188 651.5 94Q560 0 381 0ZM381 130Q442 130 483.5 148.5Q525 167 551 200.5Q577 234 588.5 282Q600 330 600 390Q600 450 588.5 498Q577 546 551 579.5Q525 613 483.5 631.5Q442 650 381 650H245V452H430V348H245V130Z" glyph-name="Dcroat" horiz-adv-x="800" unicode="&#272;" /><glyph d="M629 780V650H216V464H582V334H216V130H648V0H76V780Z" glyph-name="E" horiz-adv-x="708" unicode="E" /><glyph d="M629 780V650H216V464H582V334H216V130H648V0H76V780ZM528 1030 417 822H283L377 1030Z" glyph-name="Eacute" horiz-adv-x="708" unicode="&#201;" /><glyph d="M629 780V650H216V464H582V334H216V130H648V0H76V780ZM551 1030Q552 979 542 939Q532 899 508.5 872Q485 845 446.5 830.5Q408 816 352 816Q296 816 257.5 830.5Q219 845 195.5 872Q172 899 162 939Q152 979 153 1030H260Q259 979 281 958Q303 937 352 937Q401 937 423 958Q445 979 444 1030Z" glyph-name="Ebreve" horiz-adv-x="708" unicode="&#276;" /><glyph d="M629 780V650H216V464H582V334H216V130H648V0H76V780ZM413 822H291L136 1030H274L352 936L430 1030H568Z" glyph-name="Ecaron" horiz-adv-x="708" unicode="&#282;" /><glyph d="M629 780V650H216V464H582V334H216V130H648V0H76V780ZM291 1030H413L568 822H430L352 916L274 822H136Z" glyph-name="Ecircumflex" horiz-adv-x="708" unicode="&#202;" /><glyph d="M629 780V650H216V464H582V334H216V130H648V0H76V780ZM536 847H386V997H536ZM318 847H168V997H318Z" glyph-name="Edieresis" horiz-adv-x="708" unicode="&#203;" /><glyph d="M629 780V650H216V464H582V334H216V130H648V0H76V780ZM427 847H277V997H427Z" glyph-name="Edotaccent" horiz-adv-x="708" unicode="&#278;" /><glyph d="M629 780V650H216V464H582V334H216V130H648V0H76V780ZM330 1030 424 822H290L179 1030Z" glyph-name="Egrave" horiz-adv-x="708" unicode="&#200;" /><glyph d="M629 780V650H216V464H582V334H216V130H648V0H76V780ZM198 990H506V865H198Z" glyph-name="Emacron" horiz-adv-x="708" unicode="&#274;" /><glyph d="M549 16 291 402 214 522 216 335V0H76V780H205L474 378L551 258L549 445V780H689V-2Q689 -43 681 -81Q673 -119 650 -148.5Q627 -178 586.5 -196Q546 -214 481 -214Q451 -214 426 -209Q401 -204 387 -198L400 -66Q410 -71 431 -78.5Q452 -86 477 -84Q495 -83 508.5 -79Q522 -75 531 -65Q540 -55 544.5 -37.5Q549 -20 549 8Z" glyph-name="Eng" horiz-adv-x="765" unicode="&#330;" /><glyph d="M629 780V650H216V464H582V334H216V130H648V0Q624 -3 603 -11Q582 -19 566.5 -30Q551 -41 542.5 -55Q534 -69 534 -82Q534 -95 541.5 -105.5Q549 -116 571 -116Q582 -116 592.5 -113Q603 -110 611 -106.5Q619 -103 624.5 -100Q630 -97 630 -97L659 -189Q643 -199 616 -206.5Q589 -214 555 -214Q495 -214 460.5 -182.5Q426 -151 426 -93Q427 -40 463 0H76V780Z" glyph-name="Eogonek" horiz-adv-x="708" unicode="&#280;" /><glyph d="M105 0V348H-2V452H105V780H381Q560 780 651.5 686Q743 592 743 390Q743 188 651.5 94Q560 0 381 0ZM381 130Q442 130 483.5 148.5Q525 167 551 200.5Q577 234 588.5 282Q600 330 600 390Q600 450 588.5 498Q577 546 551 579.5Q525 613 483.5 631.5Q442 650 381 650H245V452H430V348H245V130Z" glyph-name="Eth" horiz-adv-x="800" unicode="&#208;" /><glyph d="M127 505Q150 634 227 706Q304 778 436 778Q507 778 559 760.5Q611 743 647 711.5Q683 680 703.5 636.5Q724 593 730 541L588 527Q580 584 546 617Q512 650 436 650Q367 650 326.5 612Q286 574 272 505H546L514 408H260V401Q260 397 259.5 392.5Q259 388 259 382Q259 376 259.5 371.5Q260 367 260 363V356H498L466 259H272Q286 190 326.5 152Q367 114 436 114Q512 114 546 147Q580 180 588 237L730 223Q724 171 703.5 127.5Q683 84 647 52.5Q611 21 559 3.5Q507 -14 436 -14Q304 -14 227 58Q150 130 127 259H25V356H117V363Q117 367 116.5 371.5Q116 376 116 382Q116 388 116.5 392.5Q117 397 117 401V408H25V505Z" glyph-name="Euro" horiz-adv-x="779" unicode="&#8364;" /><glyph d="M216 0H76V780H609V650H216V464H561V334H216Z" glyph-name="F" horiz-adv-x="644" unicode="F" /><glyph d="M198 390Q198 336 207 286Q216 236 238.5 198.5Q261 161 300 138.5Q339 116 399 116Q456 116 499 125.5Q542 135 572 152V309H413V434H711V68Q671 43 633 27Q595 11 557.5 2Q520 -7 481 -10.5Q442 -14 399 -14Q309 -14 244 15Q179 44 137 96.5Q95 149 75 224Q55 299 55 390Q55 481 75 555.5Q95 630 137 683Q179 736 244 765Q309 794 399 794Q474 794 530.5 776.5Q587 759 626 727Q665 695 687 649Q709 603 715 547L574 532Q563 602 520.5 633Q478 664 399 664Q339 664 300 641.5Q261 619 238.5 581.5Q216 544 207 494Q198 444 198 390Z" glyph-name="G" horiz-adv-x="790" unicode="G" /><glyph d="M198 390Q198 336 207 286Q216 236 238.5 198.5Q261 161 300 138.5Q339 116 399 116Q456 116 499 125.5Q542 135 572 152V309H413V434H711V68Q671 43 633 27Q595 11 557.5 2Q520 -7 481 -10.5Q442 -14 399 -14Q309 -14 244 15Q179 44 137 96.5Q95 149 75 224Q55 299 55 390Q55 481 75 555.5Q95 630 137 683Q179 736 244 765Q309 794 399 794Q474 794 530.5 776.5Q587 759 626 727Q665 695 687 649Q709 603 715 547L574 532Q563 602 520.5 633Q478 664 399 664Q339 664 300 641.5Q261 619 238.5 581.5Q216 544 207 494Q198 444 198 390ZM598 1030Q599 979 589 939Q579 899 555.5 872Q532 845 493.5 830.5Q455 816 399 816Q343 816 304.5 830.5Q266 845 242.5 872Q219 899 209 939Q199 979 200 1030H307Q306 979 328 958Q350 937 399 937Q448 937 470 958Q492 979 491 1030Z" glyph-name="Gbreve" horiz-adv-x="790" unicode="&#286;" /><glyph d="M198 390Q198 336 207 286Q216 236 238.5 198.5Q261 161 300 138.5Q339 116 399 116Q456 116 499 125.5Q542 135 572 152V309H413V434H711V68Q671 43 633 27Q595 11 557.5 2Q520 -7 481 -10.5Q442 -14 399 -14Q309 -14 244 15Q179 44 137 96.5Q95 149 75 224Q55 299 55 390Q55 481 75 555.5Q95 630 137 683Q179 736 244 765Q309 794 399 794Q474 794 530.5 776.5Q587 759 626 727Q665 695 687 649Q709 603 715 547L574 532Q563 602 520.5 633Q478 664 399 664Q339 664 300 641.5Q261 619 238.5 581.5Q216 544 207 494Q198 444 198 390ZM460 822H338L183 1030H321L399 936L477 1030H615Z" glyph-name="Gcaron" horiz-adv-x="790" unicode="&#486;" /><glyph d="M198 390Q198 336 207 286Q216 236 238.5 198.5Q261 161 300 138.5Q339 116 399 116Q456 116 499 125.5Q542 135 572 152V309H413V434H711V68Q671 43 633 27Q595 11 557.5 2Q520 -7 481 -10.5Q442 -14 399 -14Q309 -14 244 15Q179 44 137 96.5Q95 149 75 224Q55 299 55 390Q55 481 75 555.5Q95 630 137 683Q179 736 244 765Q309 794 399 794Q474 794 530.5 776.5Q587 759 626 727Q665 695 687 649Q709 603 715 547L574 532Q563 602 520.5 633Q478 664 399 664Q339 664 300 641.5Q261 619 238.5 581.5Q216 544 207 494Q198 444 198 390ZM338 1030H460L615 822H477L399 916L321 822H183Z" glyph-name="Gcircumflex" horiz-adv-x="790" unicode="&#284;" /><glyph d="M198 390Q198 336 207 286Q216 236 238.5 198.5Q261 161 300 138.5Q339 116 399 116Q456 116 499 125.5Q542 135 572 152V309H413V434H711V68Q671 43 633 27Q595 11 557.5 2Q520 -7 481 -10.5Q442 -14 399 -14Q309 -14 244 15Q179 44 137 96.5Q95 149 75 224Q55 299 55 390Q55 481 75 555.5Q95 630 137 683Q179 736 244 765Q309 794 399 794Q474 794 530.5 776.5Q587 759 626 727Q665 695 687 649Q709 603 715 547L574 532Q563 602 520.5 633Q478 664 399 664Q339 664 300 641.5Q261 619 238.5 581.5Q216 544 207 494Q198 444 198 390ZM311 -200 325 -62H477L436 -200Z" glyph-name="Gcommaaccent" horiz-adv-x="790" unicode="&#290;" /><glyph d="M198 390Q198 336 207 286Q216 236 238.5 198.5Q261 161 300 138.5Q339 116 399 116Q456 116 499 125.5Q542 135 572 152V309H413V434H711V68Q671 43 633 27Q595 11 557.5 2Q520 -7 481 -10.5Q442 -14 399 -14Q309 -14 244 15Q179 44 137 96.5Q95 149 75 224Q55 299 55 390Q55 481 75 555.5Q95 630 137 683Q179 736 244 765Q309 794 399 794Q474 794 530.5 776.5Q587 759 626 727Q665 695 687 649Q709 603 715 547L574 532Q563 602 520.5 633Q478 664 399 664Q339 664 300 641.5Q261 619 238.5 581.5Q216 544 207 494Q198 444 198 390ZM474 847H324V997H474Z" glyph-name="Gdotaccent" horiz-adv-x="790" unicode="&#288;" /><glyph d="M684 780V0H544V334H216V0H76V780H216V464H544V780Z" glyph-name="H" horiz-adv-x="760" unicode="H" /><glyph d="M86 390Q86 474 118 547.5Q150 621 204.5 675.5Q259 730 332.5 762Q406 794 490 794Q574 794 647.5 762Q721 730 775.5 675.5Q830 621 862 547.5Q894 474 894 390Q894 306 862 232.5Q830 159 775.5 104.5Q721 50 647.5 18Q574 -14 490 -14Q406 -14 332.5 18Q259 50 204.5 104.5Q150 159 118 232.5Q86 306 86 390Z" glyph-name="H18533" horiz-adv-x="980" unicode="&#9679;" /><glyph d="M628 0H98V530H628Z" glyph-name="H18543" horiz-adv-x="726" unicode="&#9642;" /><glyph d="M98 530H628V0H98ZM233 399V131H493V399Z" glyph-name="H18551" horiz-adv-x="726" unicode="&#9643;" /><glyph d="M98 780H878V0H98ZM233 649V131H743V649Z" glyph-name="H22073" horiz-adv-x="976" unicode="&#9633;" /><glyph d="M684 780V0H544V334H216V0H76V780H216V660H544V780ZM544 464V556H216V464Z" glyph-name="Hbar" horiz-adv-x="760" unicode="&#294;" /><glyph d="M684 780V0H544V334H216V0H76V780H216V464H544V780ZM319 1030H441L596 822H458L380 916L302 822H164Z" glyph-name="Hcircumflex" horiz-adv-x="760" unicode="&#292;" /><glyph d="M230 0H90V780H230Z" glyph-name="I" horiz-adv-x="320" unicode="I" /><glyph d="M406 118Q425 119 439 123Q453 127 462.5 137Q472 147 477 164.5Q482 182 482 209V780H623V200Q623 159 614 120.5Q605 82 581.5 52Q558 22 516.5 4Q475 -14 410 -14Q379 -14 354.5 -10Q330 -6 316 0L328 134Q337 128 359 122Q381 116 406 118ZM230 0H90V780H230Z" glyph-name="IJ" horiz-adv-x="694" unicode="&#306;" /><glyph d="M230 0H90V780H230ZM341 1030 230 822H96L190 1030Z" glyph-name="Iacute" horiz-adv-x="320" unicode="&#205;" /><glyph d="M231 0H91V780H231ZM360 1030Q361 979 351 939Q341 899 317.5 872Q294 845 255.5 830.5Q217 816 161 816Q105 816 66.5 830.5Q28 845 4.5 872Q-19 899 -29 939Q-39 979 -38 1030H69Q68 979 90 958Q112 937 161 937Q210 937 232 958Q254 979 253 1030Z" glyph-name="Ibreve" horiz-adv-x="320" unicode="&#300;" /><glyph d="M230 0H90V780H230ZM99 1030H221L376 822H238L160 916L82 822H-56Z" glyph-name="Icircumflex" horiz-adv-x="320" unicode="&#206;" /><glyph d="M230 0H90V780H230ZM344 847H194V997H344ZM126 847H-24V997H126Z" glyph-name="Idieresis" horiz-adv-x="320" unicode="&#207;" /><glyph d="M230 0H90V780H230ZM235 847H85V997H235Z" glyph-name="Idotaccent" horiz-adv-x="320" unicode="&#304;" /><glyph d="M230 0H90V780H230ZM130 1030 224 822H90L-21 1030Z" glyph-name="Igrave" horiz-adv-x="320" unicode="&#204;" /><glyph d="M230 0H90V780H230ZM6 990H314V865H6Z" glyph-name="Imacron" horiz-adv-x="320" unicode="&#298;" /><glyph d="M230 0Q185 -8 159 -33Q133 -58 133 -84Q133 -96 141 -106Q149 -116 169 -116Q184 -116 197.5 -112Q211 -108 221.5 -103Q232 -98 238.5 -93.5Q245 -89 247 -87L275 -181Q254 -197 222.5 -205.5Q191 -214 153 -214Q96 -214 60.5 -185.5Q25 -157 25 -95Q25 -22 90 28V780H230Z" glyph-name="Iogonek" horiz-adv-x="320" unicode="&#302;" /><glyph d="M230 0H90V780H230ZM406 1002Q399 914 358.5 868.5Q318 823 240 825Q204 826 180.5 837.5Q157 849 139.5 863Q122 877 108 889Q94 901 76 901Q60 902 49.5 896Q39 890 33.5 880.5Q28 871 25.5 859.5Q23 848 22 837L-87 850Q-80 938 -39.5 983.5Q1 1029 79 1027Q115 1026 138.5 1014.5Q162 1003 179.5 989Q197 975 211 963Q225 951 243 951Q260 950 270 956Q280 962 285.5 971.5Q291 981 293.5 993Q296 1005 297 1015Z" glyph-name="Itilde" horiz-adv-x="320" unicode="&#296;" /><glyph d="M484 780V218Q484 166 472.5 123.5Q461 81 434 50.5Q407 20 362.5 3Q318 -14 252 -14Q180 -14 135.5 3Q91 20 65.5 48.5Q40 77 29.5 115Q19 153 17 196L156 214Q158 191 162.5 172.5Q167 154 177.5 141.5Q188 129 205.5 122Q223 115 249 115Q305 115 324.5 139Q344 163 344 211V780Z" glyph-name="J" horiz-adv-x="555" unicode="J" /><glyph d="M353 1030H475L630 822H492L414 916L336 822H198ZM484 780V218Q484 166 472.5 123.5Q461 81 434 50.5Q407 20 362.5 3Q318 -14 252 -14Q180 -14 135.5 3Q91 20 65.5 48.5Q40 77 29.5 115Q19 153 17 196L156 214Q158 191 162.5 172.5Q167 154 177.5 141.5Q188 129 205.5 122Q223 115 249 115Q305 115 324.5 139Q344 163 344 211V780Z" glyph-name="Jcircumflex" horiz-adv-x="555" unicode="&#308;" /><glyph d="M216 437 310 545 524 780H714L378 425L729 0H543L284 325L216 254V0H76V780H216Z" glyph-name="K" horiz-adv-x="742" unicode="K" /><glyph d="M216 437 310 545 524 780H714L378 425L729 0H543L284 325L216 254V0H76V780H216ZM285 -200 299 -62H451L410 -200Z" glyph-name="Kcommaaccent" horiz-adv-x="742" unicode="&#310;" /><glyph d="M216 130H586V0H76V780H216Z" glyph-name="L" horiz-adv-x="606" unicode="L" /><glyph d="M216 130H586V0H76V780H216ZM327 1030 216 822H82L176 1030Z" glyph-name="Lacute" horiz-adv-x="606" unicode="&#313;" /><glyph d="M216 130H586V0H76V780H216ZM363 592 410 800H554L485 592Z" glyph-name="Lcaron" horiz-adv-x="606" unicode="&#317;" /><glyph d="M216 130H586V0H76V780H216ZM242 -200 256 -62H408L367 -200Z" glyph-name="Lcommaaccent" horiz-adv-x="606" unicode="&#315;" /><glyph d="M216 130H586V0H76V780H216ZM534 324H384V474H534Z" glyph-name="Ldot" horiz-adv-x="606" unicode="&#319;" /><glyph d="M226 310V130H596V0H86V240L11 203V315L86 352V780H226V422L461 540V428Z" glyph-name="Lslash" horiz-adv-x="616" unicode="&#321;" /><glyph d="M399 0 255 390 212 513 213 298V0H76V780H239L400 355L453 208L506 355L667 780H830V0H693V298L694 513L651 390L507 0Z" glyph-name="M" horiz-adv-x="906" unicode="M" /><glyph d="M291 402 214 522 216 335V0H76V780H205L474 378L551 258L549 445V780H689V0H560Z" glyph-name="N" horiz-adv-x="765" unicode="N" /><glyph d="M291 402 214 522 216 335V0H76V780H205L474 378L551 258L549 445V780H689V0H560ZM558 1030 447 822H313L407 1030Z" glyph-name="Nacute" horiz-adv-x="765" unicode="&#323;" /><glyph d="M291 402 214 522 216 335V0H76V780H205L474 378L551 258L549 445V780H689V0H560ZM443 822H321L166 1030H304L382 936L460 1030H598Z" glyph-name="Ncaron" horiz-adv-x="765" unicode="&#327;" /><glyph d="M291 402 214 522 216 335V0H76V780H205L474 378L551 258L549 445V780H689V0H560ZM294 -200 308 -62H460L419 -200Z" glyph-name="Ncommaaccent" horiz-adv-x="765" unicode="&#325;" /><glyph d="M291 402 214 522 216 335V0H76V780H205L474 378L551 258L549 445V780H689V0H560ZM628 1002Q621 914 580.5 868.5Q540 823 462 825Q426 826 402.5 837.5Q379 849 361.5 863Q344 877 330 889Q316 901 298 901Q282 902 271.5 896Q261 890 255.5 880.5Q250 871 247.5 859.5Q245 848 244 837L135 850Q142 938 182.5 983.5Q223 1029 301 1027Q337 1026 360.5 1014.5Q384 1003 401.5 989Q419 975 433 963Q447 951 465 951Q482 950 492 956Q502 962 507.5 971.5Q513 981 515.5 993Q518 1005 519 1015Z" glyph-name="Ntilde" horiz-adv-x="765" unicode="&#209;" /><glyph d="M405 -14Q312 -14 246 14.5Q180 43 137.5 95.5Q95 148 75 223Q55 298 55 390Q55 482 75 557Q95 632 137.5 684.5Q180 737 246 765.5Q312 794 405 794Q498 794 564 765.5Q630 737 672.5 684.5Q715 632 735 557Q755 482 755 390Q755 298 735 223Q715 148 672.5 95.5Q630 43 564 14.5Q498 -14 405 -14ZM405 664Q342 664 302 642Q262 620 238.5 582.5Q215 545 206 495.5Q197 446 197 390Q197 335 206 285Q215 235 238.5 197.5Q262 160 302 138Q342 116 405 116Q468 116 508 138Q548 160 571 197.5Q594 235 603 285Q612 335 612 390Q612 446 603 495.5Q594 545 571 582.5Q548 620 508 642Q468 664 405 664Z" glyph-name="O" horiz-adv-x="810" unicode="O" /><glyph d="M1038 780V650H655V464H991V334H655V130H1057V0H419Q241 0 149 94Q57 188 57 390Q57 592 149 686Q241 780 419 780ZM419 650Q358 650 316.5 631.5Q275 613 249 579.5Q223 546 211.5 498Q200 450 200 390Q200 330 211.5 282Q223 234 249 200.5Q275 167 316.5 148.5Q358 130 419 130H515V650Z" glyph-name="OE" horiz-adv-x="1117" unicode="&#338;" /><glyph d="M405 -14Q312 -14 246 14.5Q180 43 137.5 95.5Q95 148 75 223Q55 298 55 390Q55 482 75 557Q95 632 137.5 684.5Q180 737 246 765.5Q312 794 405 794Q498 794 564 765.5Q630 737 672.5 684.5Q715 632 735 557Q755 482 755 390Q755 298 735 223Q715 148 672.5 95.5Q630 43 564 14.5Q498 -14 405 -14ZM405 664Q342 664 302 642Q262 620 238.5 582.5Q215 545 206 495.5Q197 446 197 390Q197 335 206 285Q215 235 238.5 197.5Q262 160 302 138Q342 116 405 116Q468 116 508 138Q548 160 571 197.5Q594 235 603 285Q612 335 612 390Q612 446 603 495.5Q594 545 571 582.5Q548 620 508 642Q468 664 405 664ZM581 1030 470 822H336L430 1030Z" glyph-name="Oacute" horiz-adv-x="810" unicode="&#211;" /><glyph d="M405 -14Q312 -14 246 14.5Q180 43 137.5 95.5Q95 148 75 223Q55 298 55 390Q55 482 75 557Q95 632 137.5 684.5Q180 737 246 765.5Q312 794 405 794Q498 794 564 765.5Q630 737 672.5 684.5Q715 632 735 557Q755 482 755 390Q755 298 735 223Q715 148 672.5 95.5Q630 43 564 14.5Q498 -14 405 -14ZM405 664Q342 664 302 642Q262 620 238.5 582.5Q215 545 206 495.5Q197 446 197 390Q197 335 206 285Q215 235 238.5 197.5Q262 160 302 138Q342 116 405 116Q468 116 508 138Q548 160 571 197.5Q594 235 603 285Q612 335 612 390Q612 446 603 495.5Q594 545 571 582.5Q548 620 508 642Q468 664 405 664ZM604 1030Q605 979 595 939Q585 899 561.5 872Q538 845 499.5 830.5Q461 816 405 816Q349 816 310.5 830.5Q272 845 248.5 872Q225 899 215 939Q205 979 206 1030H313Q312 979 334 958Q356 937 405 937Q454 937 476 958Q498 979 497 1030Z" glyph-name="Obreve" horiz-adv-x="810" unicode="&#334;" /><glyph d="M405 -14Q312 -14 246 14.5Q180 43 137.5 95.5Q95 148 75 223Q55 298 55 390Q55 482 75 557Q95 632 137.5 684.5Q180 737 246 765.5Q312 794 405 794Q498 794 564 765.5Q630 737 672.5 684.5Q715 632 735 557Q755 482 755 390Q755 298 735 223Q715 148 672.5 95.5Q630 43 564 14.5Q498 -14 405 -14ZM405 664Q342 664 302 642Q262 620 238.5 582.5Q215 545 206 495.5Q197 446 197 390Q197 335 206 285Q215 235 238.5 197.5Q262 160 302 138Q342 116 405 116Q468 116 508 138Q548 160 571 197.5Q594 235 603 285Q612 335 612 390Q612 446 603 495.5Q594 545 571 582.5Q548 620 508 642Q468 664 405 664ZM344 1030H466L621 822H483L405 916L327 822H189Z" glyph-name="Ocircumflex" horiz-adv-x="810" unicode="&#212;" /><glyph d="M405 -14Q312 -14 246 14.5Q180 43 137.5 95.5Q95 148 75 223Q55 298 55 390Q55 482 75 557Q95 632 137.5 684.5Q180 737 246 765.5Q312 794 405 794Q498 794 564 765.5Q630 737 672.5 684.5Q715 632 735 557Q755 482 755 390Q755 298 735 223Q715 148 672.5 95.5Q630 43 564 14.5Q498 -14 405 -14ZM405 664Q342 664 302 642Q262 620 238.5 582.5Q215 545 206 495.5Q197 446 197 390Q197 335 206 285Q215 235 238.5 197.5Q262 160 302 138Q342 116 405 116Q468 116 508 138Q548 160 571 197.5Q594 235 603 285Q612 335 612 390Q612 446 603 495.5Q594 545 571 582.5Q548 620 508 642Q468 664 405 664ZM371 847H221V997H371ZM589 847H439V997H589Z" glyph-name="Odieresis" horiz-adv-x="760" unicode="&#214;" /><glyph d="M405 -14Q312 -14 246 14.5Q180 43 137.5 95.5Q95 148 75 223Q55 298 55 390Q55 482 75 557Q95 632 137.5 684.5Q180 737 246 765.5Q312 794 405 794Q498 794 564 765.5Q630 737 672.5 684.5Q715 632 735 557Q755 482 755 390Q755 298 735 223Q715 148 672.5 95.5Q630 43 564 14.5Q498 -14 405 -14ZM405 664Q342 664 302 642Q262 620 238.5 582.5Q215 545 206 495.5Q197 446 197 390Q197 335 206 285Q215 235 238.5 197.5Q262 160 302 138Q342 116 405 116Q468 116 508 138Q548 160 571 197.5Q594 235 603 285Q612 335 612 390Q612 446 603 495.5Q594 545 571 582.5Q548 620 508 642Q468 664 405 664ZM383 1030 477 822H343L232 1030Z" glyph-name="Ograve" horiz-adv-x="810" unicode="&#210;" /><glyph d="M405 -14Q312 -14 246 14.5Q180 43 137.5 95.5Q95 148 75 223Q55 298 55 390Q55 482 75 557Q95 632 137.5 684.5Q180 737 246 765.5Q312 794 405 794Q498 794 564 765.5Q630 737 672.5 684.5Q715 632 735 557Q755 482 755 390Q755 298 735 223Q715 148 672.5 95.5Q630 43 564 14.5Q498 -14 405 -14ZM405 664Q342 664 302 642Q262 620 238.5 582.5Q215 545 206 495.5Q197 446 197 390Q197 335 206 285Q215 235 238.5 197.5Q262 160 302 138Q342 116 405 116Q468 116 508 138Q548 160 571 197.5Q594 235 603 285Q612 335 612 390Q612 446 603 495.5Q594 545 571 582.5Q548 620 508 642Q468 664 405 664ZM490 1030 379 822H244L338 1030ZM676 1030 565 822H431L525 1030Z" glyph-name="Ohungarumlaut" horiz-adv-x="810" unicode="&#336;" /><glyph d="M405 -14Q312 -14 246 14.5Q180 43 137.5 95.5Q95 148 75 223Q55 298 55 390Q55 482 75 557Q95 632 137.5 684.5Q180 737 246 765.5Q312 794 405 794Q498 794 564 765.5Q630 737 672.5 684.5Q715 632 735 557Q755 482 755 390Q755 298 735 223Q715 148 672.5 95.5Q630 43 564 14.5Q498 -14 405 -14ZM405 664Q342 664 302 642Q262 620 238.5 582.5Q215 545 206 495.5Q197 446 197 390Q197 335 206 285Q215 235 238.5 197.5Q262 160 302 138Q342 116 405 116Q468 116 508 138Q548 160 571 197.5Q594 235 603 285Q612 335 612 390Q612 446 603 495.5Q594 545 571 582.5Q548 620 508 642Q468 664 405 664ZM251 990H559V865H251Z" glyph-name="Omacron" horiz-adv-x="810" unicode="&#332;" /><glyph d="M755 390Q755 298 735 223Q715 148 672.5 95.5Q630 43 564 14.5Q498 -14 405 -14Q347 -14 300 -2.5Q253 9 215 31L194 0H89L147 85Q99 139 77 216Q55 293 55 390Q55 482 75 557Q95 632 137.5 684.5Q180 737 246 765.5Q312 794 405 794Q463 794 510 782.5Q557 771 595 749L616 780H721L663 695Q711 641 733 564Q755 487 755 390ZM405 664Q342 664 302 642Q262 620 238.5 582.5Q215 545 206 495.5Q197 446 197 390Q197 339 204 292.5Q211 246 231 210L518 636Q473 664 405 664ZM405 116Q468 116 508 138Q548 160 571.5 197.5Q595 235 604 285Q613 335 613 390Q613 441 606 487.5Q599 534 579 570L292 144Q337 116 405 116Z" glyph-name="Oslash" horiz-adv-x="810" unicode="&#216;" /><glyph d="M755 390Q755 298 735 223Q715 148 672.5 95.5Q630 43 564 14.5Q498 -14 405 -14Q347 -14 300 -2.5Q253 9 215 31L194 0H89L147 85Q99 139 77 216Q55 293 55 390Q55 482 75 557Q95 632 137.5 684.5Q180 737 246 765.5Q312 794 405 794Q463 794 510 782.5Q557 771 595 749L616 780H721L663 695Q711 641 733 564Q755 487 755 390ZM405 116Q468 116 508 138Q548 160 571.5 197.5Q595 235 604 285Q613 335 613 390Q613 441 606 487.5Q599 534 579 570L292 144Q337 116 405 116ZM405 664Q342 664 302 642Q262 620 238.5 582.5Q215 545 206 495.5Q197 446 197 390Q197 339 204 292.5Q211 246 231 210L518 636Q473 664 405 664ZM581 1030 470 822H336L430 1030Z" glyph-name="Oslashacute" horiz-adv-x="810" unicode="&#510;" /><glyph d="M405 -14Q312 -14 246 14.5Q180 43 137.5 95.5Q95 148 75 223Q55 298 55 390Q55 482 75 557Q95 632 137.5 684.5Q180 737 246 765.5Q312 794 405 794Q498 794 564 765.5Q630 737 672.5 684.5Q715 632 735 557Q755 482 755 390Q755 298 735 223Q715 148 672.5 95.5Q630 43 564 14.5Q498 -14 405 -14ZM405 664Q342 664 302 642Q262 620 238.5 582.5Q215 545 206 495.5Q197 446 197 390Q197 335 206 285Q215 235 238.5 197.5Q262 160 302 138Q342 116 405 116Q468 116 508 138Q548 160 571 197.5Q594 235 603 285Q612 335 612 390Q612 446 603 495.5Q594 545 571 582.5Q548 620 508 642Q468 664 405 664ZM651 1002Q644 914 603.5 868.5Q563 823 485 825Q449 826 425.5 837.5Q402 849 384.5 863Q367 877 353 889Q339 901 321 901Q305 902 294.5 896Q284 890 278.5 880.5Q273 871 270.5 859.5Q268 848 267 837L158 850Q165 938 205.5 983.5Q246 1029 324 1027Q360 1026 383.5 1014.5Q407 1003 424.5 989Q442 975 456 963Q470 951 488 951Q505 950 515 956Q525 962 530.5 971.5Q536 981 538.5 993Q541 1005 542 1015Z" glyph-name="Otilde" horiz-adv-x="810" unicode="&#213;" /><glyph d="M216 0H76V780H372Q421 780 468.5 769.5Q516 759 554 731.5Q592 704 615.5 657Q639 610 639 537Q639 464 616 416.5Q593 369 555.5 341.5Q518 314 470 303.5Q422 293 373 293H216ZM495 537Q495 574 484.5 596.5Q474 619 457.5 631Q441 643 421 646.5Q401 650 383 650H216V424H383Q401 424 421 427.5Q441 431 457.5 443Q474 455 484.5 477.5Q495 500 495 537Z" glyph-name="P" horiz-adv-x="669" unicode="P" /><glyph d="M405 664Q342 664 302 642Q262 620 238.5 582.5Q215 545 206 495.5Q197 446 197 390Q197 335 206 285Q215 235 238.5 197.5Q262 160 302 138Q342 116 405 116Q468 116 508 138Q548 160 571 197.5Q594 235 603 285Q612 335 612 390Q612 446 603 495.5Q594 545 571 582.5Q548 620 508 642Q468 664 405 664ZM610 0 798 -64V-211L260 8Q206 28 167.5 63Q129 98 104 147Q79 196 67 257Q55 318 55 390Q55 482 75 557Q95 632 137.5 684.5Q180 737 246 765.5Q312 794 405 794Q498 794 564 765.5Q630 737 672.5 684.5Q715 632 735 557Q755 482 755 390Q755 251 710 154.5Q665 58 566 15V14Z" glyph-name="Q" horiz-adv-x="810" unicode="Q" /><glyph d="M216 0H76V780H398Q449 780 496.5 770Q544 760 581 733.5Q618 707 640.5 661Q663 615 663 543Q663 491 651 453Q639 415 618.5 388.5Q598 362 570 346Q542 330 509 321L698 0H534L359 306H216ZM407 437Q425 437 445 440Q465 443 481.5 453.5Q498 464 509 485.5Q520 507 520 543Q520 580 509 601Q498 622 481.5 633Q465 644 445 647Q425 650 407 650H216V437Z" glyph-name="R" horiz-adv-x="726" unicode="R" /><glyph d="M216 0H76V780H398Q449 780 496.5 770Q544 760 581 733.5Q618 707 640.5 661Q663 615 663 543Q663 491 651 453Q639 415 618.5 388.5Q598 362 570 346Q542 330 509 321L698 0H534L359 306H216ZM407 437Q425 437 445 440Q465 443 481.5 453.5Q498 464 509 485.5Q520 507 520 543Q520 580 509 601Q498 622 481.5 633Q465 644 445 647Q425 650 407 650H216V437ZM521 1030 410 822H276L370 1030Z" glyph-name="Racute" horiz-adv-x="725" unicode="&#340;" /><glyph d="M216 0H76V780H398Q449 780 496.5 770Q544 760 581 733.5Q618 707 640.5 661Q663 615 663 543Q663 491 651 453Q639 415 618.5 388.5Q598 362 570 346Q542 330 509 321L698 0H534L359 306H216ZM407 437Q425 437 445 440Q465 443 481.5 453.5Q498 464 509 485.5Q520 507 520 543Q520 580 509 601Q498 622 481.5 633Q465 644 445 647Q425 650 407 650H216V437ZM406 822H284L129 1030H267L345 936L423 1030H561Z" glyph-name="Rcaron" horiz-adv-x="725" unicode="&#344;" /><glyph d="M216 0H76V780H398Q449 780 496.5 770Q544 760 581 733.5Q618 707 640.5 661Q663 615 663 543Q663 491 651 453Q639 415 618.5 388.5Q598 362 570 346Q542 330 509 321L698 0H534L359 306H216ZM407 437Q425 437 445 440Q465 443 481.5 453.5Q498 464 509 485.5Q520 507 520 543Q520 580 509 601Q498 622 481.5 633Q465 644 445 647Q425 650 407 650H216V437ZM276 -200 290 -62H442L401 -200Z" glyph-name="Rcommaaccent" horiz-adv-x="725" unicode="&#342;" /><glyph d="M365 -14Q286 -14 229 1.5Q172 17 134.5 47.5Q97 78 76.5 122.5Q56 167 50 225L192 240Q200 171 242.5 143.5Q285 116 365 116Q394 116 423.5 122.5Q453 129 477 142.5Q501 156 516 178Q531 200 531 232Q531 258 522.5 276.5Q514 295 494.5 307.5Q475 320 442 328.5Q409 337 361 341Q307 346 256.5 356.5Q206 367 166 391Q126 415 101.5 454.5Q77 494 77 557Q77 619 99.5 663.5Q122 708 160.5 737Q199 766 250 780Q301 794 358 794Q435 794 491 777.5Q547 761 585 730.5Q623 700 643.5 656Q664 612 669 556L527 541Q519 610 478.5 637Q438 664 358 664Q338 664 313.5 659.5Q289 655 267.5 643Q246 631 231.5 610Q217 589 217 556Q217 536 224 521Q231 506 248 495.5Q265 485 294 478.5Q323 472 368 467Q440 461 496 449Q552 437 590.5 411.5Q629 386 649.5 343.5Q670 301 670 232Q670 167 644.5 120.5Q619 74 576 44Q533 14 478 0Q423 -14 365 -14Z" glyph-name="S" horiz-adv-x="723" unicode="S" /><glyph d="M365 -14Q286 -14 229 1.5Q172 17 134.5 47.5Q97 78 76.5 122.5Q56 167 50 225L192 240Q200 171 242.5 143.5Q285 116 365 116Q394 116 423.5 122.5Q453 129 477 142.5Q501 156 516 178Q531 200 531 232Q531 258 522.5 276.5Q514 295 494.5 307.5Q475 320 442 328.5Q409 337 361 341Q307 346 256.5 356.5Q206 367 166 391Q126 415 101.5 454.5Q77 494 77 557Q77 619 99.5 663.5Q122 708 160.5 737Q199 766 250 780Q301 794 358 794Q435 794 491 777.5Q547 761 585 730.5Q623 700 643.5 656Q664 612 669 556L527 541Q519 610 478.5 637Q438 664 358 664Q338 664 313.5 659.5Q289 655 267.5 643Q246 631 231.5 610Q217 589 217 556Q217 536 224 521Q231 506 248 495.5Q265 485 294 478.5Q323 472 368 467Q440 461 496 449Q552 437 590.5 411.5Q629 386 649.5 343.5Q670 301 670 232Q670 167 644.5 120.5Q619 74 576 44Q533 14 478 0Q423 -14 365 -14ZM540 1030 429 822H295L389 1030Z" glyph-name="Sacute" horiz-adv-x="723" unicode="&#346;" /><glyph d="M365 -14Q286 -14 229 1.5Q172 17 134.5 47.5Q97 78 76.5 122.5Q56 167 50 225L192 240Q200 171 242.5 143.5Q285 116 365 116Q394 116 423.5 122.5Q453 129 477 142.5Q501 156 516 178Q531 200 531 232Q531 258 522.5 276.5Q514 295 494.5 307.5Q475 320 442 328.5Q409 337 361 341Q307 346 256.5 356.5Q206 367 166 391Q126 415 101.5 454.5Q77 494 77 557Q77 619 99.5 663.5Q122 708 160.5 737Q199 766 250 780Q301 794 358 794Q435 794 491 777.5Q547 761 585 730.5Q623 700 643.5 656Q664 612 669 556L527 541Q519 610 478.5 637Q438 664 358 664Q338 664 313.5 659.5Q289 655 267.5 643Q246 631 231.5 610Q217 589 217 556Q217 536 224 521Q231 506 248 495.5Q265 485 294 478.5Q323 472 368 467Q440 461 496 449Q552 437 590.5 411.5Q629 386 649.5 343.5Q670 301 670 232Q670 167 644.5 120.5Q619 74 576 44Q533 14 478 0Q423 -14 365 -14ZM425 822H303L148 1030H286L364 936L442 1030H580Z" glyph-name="Scaron" horiz-adv-x="723" unicode="&#352;" /><glyph d="M670 232Q670 173 649 129Q628 85 591.5 55Q555 25 507.5 8.5Q460 -8 408 -12L402 -35Q419 -39 435 -46Q451 -53 463.5 -63.5Q476 -74 484 -88.5Q492 -103 492 -122Q492 -146 481.5 -163Q471 -180 452 -191.5Q433 -203 408 -208.5Q383 -214 353 -214Q311 -214 282.5 -206.5Q254 -199 243 -194L264 -130Q271 -133 280 -137Q296 -143 316 -145Q325 -145 334 -144.5Q343 -144 351 -141Q359 -138 364 -133Q369 -128 369 -119Q369 -101 345.5 -90.5Q322 -80 286 -76L308 -11Q180 0 120.5 59.5Q61 119 50 225L192 240Q200 171 242.5 143.5Q285 116 365 116Q394 116 423.5 122.5Q453 129 477 142.5Q501 156 516 178Q531 200 531 232Q531 258 522.5 276.5Q514 295 494.5 307.5Q475 320 442 328.5Q409 337 361 341Q307 346 256.5 356.5Q206 367 166 391Q126 415 101.5 454.5Q77 494 77 557Q77 619 99.5 663.5Q122 708 160.5 737Q199 766 250 780Q301 794 358 794Q435 794 491 777.5Q547 761 585 730.5Q623 700 643.5 656Q664 612 669 556L527 541Q519 610 478.5 637Q438 664 358 664Q338 664 313.5 659.5Q289 655 267.5 643Q246 631 231.5 610Q217 589 217 556Q217 536 224 521Q231 506 248 495.5Q265 485 294 478.5Q323 472 368 467Q440 461 496 449Q552 437 590.5 411.5Q629 386 649.5 343.5Q670 301 670 232Z" glyph-name="Scedilla" horiz-adv-x="723" unicode="&#350;" /><glyph d="M365 -14Q286 -14 229 1.5Q172 17 134.5 47.5Q97 78 76.5 122.5Q56 167 50 225L192 240Q200 171 242.5 143.5Q285 116 365 116Q394 116 423.5 122.5Q453 129 477 142.5Q501 156 516 178Q531 200 531 232Q531 258 522.5 276.5Q514 295 494.5 307.5Q475 320 442 328.5Q409 337 361 341Q307 346 256.5 356.5Q206 367 166 391Q126 415 101.5 454.5Q77 494 77 557Q77 619 99.5 663.5Q122 708 160.5 737Q199 766 250 780Q301 794 358 794Q435 794 491 777.5Q547 761 585 730.5Q623 700 643.5 656Q664 612 669 556L527 541Q519 610 478.5 637Q438 664 358 664Q338 664 313.5 659.5Q289 655 267.5 643Q246 631 231.5 610Q217 589 217 556Q217 536 224 521Q231 506 248 495.5Q265 485 294 478.5Q323 472 368 467Q440 461 496 449Q552 437 590.5 411.5Q629 386 649.5 343.5Q670 301 670 232Q670 167 644.5 120.5Q619 74 576 44Q533 14 478 0Q423 -14 365 -14ZM303 1030H425L580 822H442L364 916L286 822H148Z" glyph-name="Scircumflex" horiz-adv-x="723" unicode="&#348;" /><glyph d="M365 -14Q286 -14 229 1.5Q172 17 134.5 47.5Q97 78 76.5 122.5Q56 167 50 225L192 240Q200 171 242.5 143.5Q285 116 365 116Q394 116 423.5 122.5Q453 129 477 142.5Q501 156 516 178Q531 200 531 232Q531 258 522.5 276.5Q514 295 494.5 307.5Q475 320 442 328.5Q409 337 361 341Q307 346 256.5 356.5Q206 367 166 391Q126 415 101.5 454.5Q77 494 77 557Q77 619 99.5 663.5Q122 708 160.5 737Q199 766 250 780Q301 794 358 794Q435 794 491 777.5Q547 761 585 730.5Q623 700 643.5 656Q664 612 669 556L527 541Q519 610 478.5 637Q438 664 358 664Q338 664 313.5 659.5Q289 655 267.5 643Q246 631 231.5 610Q217 589 217 556Q217 536 224 521Q231 506 248 495.5Q265 485 294 478.5Q323 472 368 467Q440 461 496 449Q552 437 590.5 411.5Q629 386 649.5 343.5Q670 301 670 232Q670 167 644.5 120.5Q619 74 576 44Q533 14 478 0Q423 -14 365 -14ZM271 -200 285 -62H437L396 -200Z" glyph-name="Scommaaccent" horiz-adv-x="723" unicode="&#536;" /><glyph d="M390 0H250V650H23V780H617V650H390Z" glyph-name="T" horiz-adv-x="640" unicode="T" /><glyph d="M390 452H494V348H390V0H250V348H146V452H250V650H23V780H617V650H390Z" glyph-name="Tbar" horiz-adv-x="646" unicode="&#358;" /><glyph d="M390 0H250V650H23V780H617V650H390ZM381 822H259L104 1030H242L320 936L398 1030H536Z" glyph-name="Tcaron" horiz-adv-x="640" unicode="&#356;" /><glyph d="M390 0H250V650H23V780H617V650H390ZM230 -200 244 -62H396L355 -200Z" glyph-name="Tcommaaccent" horiz-adv-x="640" unicode="&#354;" /><glyph d="M639 390Q639 317 616 269.5Q593 222 555.5 194.5Q518 167 470 156.5Q422 146 373 146H216V0H76V780H216V634H373Q422 634 470 623.5Q518 613 555.5 585.5Q593 558 616 511Q639 464 639 390ZM216 503V277H383Q401 277 421 280.5Q441 284 457.5 296Q474 308 484.5 330.5Q495 353 495 390Q495 427 484.5 449.5Q474 472 457.5 484Q441 496 421 499.5Q401 503 383 503Z" glyph-name="Thorn" horiz-adv-x="674" unicode="&#222;" /><glyph d="M386 -14Q295 -14 234 9Q173 32 136 72Q99 112 83.5 166.5Q68 221 68 285V780H208V285Q208 249 215 218.5Q222 188 241.5 165Q261 142 296 129Q331 116 386 116Q442 116 476.5 129Q511 142 530.5 165Q550 188 557 218.5Q564 249 564 285V780H704V285Q704 221 688.5 166.5Q673 112 636 72Q599 32 538 9Q477 -14 386 -14Z" glyph-name="U" horiz-adv-x="772" unicode="U" /><glyph d="M386 -14Q295 -14 234 9Q173 32 136 72Q99 112 83.5 166.5Q68 221 68 285V780H208V285Q208 249 215 218.5Q222 188 241.5 165Q261 142 296 129Q331 116 386 116Q442 116 476.5 129Q511 142 530.5 165Q550 188 557 218.5Q564 249 564 285V780H704V285Q704 221 688.5 166.5Q673 112 636 72Q599 32 538 9Q477 -14 386 -14ZM562 1030 451 822H317L411 1030Z" glyph-name="Uacute" horiz-adv-x="772" unicode="&#218;" /><glyph d="M386 -14Q295 -14 234 9Q173 32 136 72Q99 112 83.5 166.5Q68 221 68 285V780H208V285Q208 249 215 218.5Q222 188 241.5 165Q261 142 296 129Q331 116 386 116Q442 116 476.5 129Q511 142 530.5 165Q550 188 557 218.5Q564 249 564 285V780H704V285Q704 221 688.5 166.5Q673 112 636 72Q599 32 538 9Q477 -14 386 -14ZM585 1030Q586 979 576 939Q566 899 542.5 872Q519 845 480.5 830.5Q442 816 386 816Q330 816 291.5 830.5Q253 845 229.5 872Q206 899 196 939Q186 979 187 1030H294Q293 979 315 958Q337 937 386 937Q435 937 457 958Q479 979 478 1030Z" glyph-name="Ubreve" horiz-adv-x="772" unicode="&#364;" /><glyph d="M386 -14Q295 -14 234 9Q173 32 136 72Q99 112 83.5 166.5Q68 221 68 285V780H208V285Q208 249 215 218.5Q222 188 241.5 165Q261 142 296 129Q331 116 386 116Q442 116 476.5 129Q511 142 530.5 165Q550 188 557 218.5Q564 249 564 285V780H704V285Q704 221 688.5 166.5Q673 112 636 72Q599 32 538 9Q477 -14 386 -14ZM325 1030H447L602 822H464L386 916L308 822H170Z" glyph-name="Ucircumflex" horiz-adv-x="772" unicode="&#219;" /><glyph d="M386 -14Q295 -14 234 9Q173 32 136 72Q99 112 83.5 166.5Q68 221 68 285V780H208V285Q208 249 215 218.5Q222 188 241.5 165Q261 142 296 129Q331 116 386 116Q442 116 476.5 129Q511 142 530.5 165Q550 188 557 218.5Q564 249 564 285V780H704V285Q704 221 688.5 166.5Q673 112 636 72Q599 32 538 9Q477 -14 386 -14ZM570 847H420V997H570ZM352 847H202V997H352Z" glyph-name="Udieresis" horiz-adv-x="772" unicode="&#220;" /><glyph d="M386 -14Q295 -14 234 9Q173 32 136 72Q99 112 83.5 166.5Q68 221 68 285V780H208V285Q208 249 215 218.5Q222 188 241.5 165Q261 142 296 129Q331 116 386 116Q442 116 476.5 129Q511 142 530.5 165Q550 188 557 218.5Q564 249 564 285V780H704V285Q704 221 688.5 166.5Q673 112 636 72Q599 32 538 9Q477 -14 386 -14ZM364 1030 458 822H324L213 1030Z" glyph-name="Ugrave" horiz-adv-x="772" unicode="&#217;" /><glyph d="M386 -14Q295 -14 234 9Q173 32 136 72Q99 112 83.5 166.5Q68 221 68 285V780H208V285Q208 249 215 218.5Q222 188 241.5 165Q261 142 296 129Q331 116 386 116Q442 116 476.5 129Q511 142 530.5 165Q550 188 557 218.5Q564 249 564 285V780H704V285Q704 221 688.5 166.5Q673 112 636 72Q599 32 538 9Q477 -14 386 -14ZM471 1030 360 822H225L319 1030ZM657 1030 546 822H412L506 1030Z" glyph-name="Uhungarumlaut" horiz-adv-x="772" unicode="&#368;" /><glyph d="M386 -14Q295 -14 234 9Q173 32 136 72Q99 112 83.5 166.5Q68 221 68 285V780H208V285Q208 249 215 218.5Q222 188 241.5 165Q261 142 296 129Q331 116 386 116Q442 116 476.5 129Q511 142 530.5 165Q550 188 557 218.5Q564 249 564 285V780H704V285Q704 221 688.5 166.5Q673 112 636 72Q599 32 538 9Q477 -14 386 -14ZM232 990H540V865H232Z" glyph-name="Umacron" horiz-adv-x="772" unicode="&#362;" /><glyph d="M704 285Q704 232 693.5 185.5Q683 139 659 101.5Q635 64 595.5 37Q556 10 497 -3Q457 -12 433 -35.5Q409 -59 409 -82Q409 -95 416.5 -105.5Q424 -116 446 -116Q457 -116 467.5 -113Q478 -110 486 -106.5Q494 -103 499.5 -100Q505 -97 505 -97L534 -189Q518 -199 491 -206.5Q464 -214 430 -214Q370 -214 335.5 -182.5Q301 -151 301 -93Q301 -70 308.5 -49.5Q316 -29 329 -11Q255 -4 205 21Q155 46 124.5 85Q94 124 81 175.5Q68 227 68 285V780H208V285Q208 249 215 218.5Q222 188 241.5 165Q261 142 296 129Q331 116 386 116Q442 116 476.5 129Q511 142 530.5 165Q550 188 557 218.5Q564 249 564 285V780H704V285Z" glyph-name="Uogonek" horiz-adv-x="772" unicode="&#370;" /><glyph d="M386 -14Q295 -14 234 9Q173 32 136 72Q99 112 83.5 166.5Q68 221 68 285V780H208V285Q208 249 215 218.5Q222 188 241.5 165Q261 142 296 129Q331 116 386 116Q442 116 476.5 129Q511 142 530.5 165Q550 188 557 218.5Q564 249 564 285V780H704V285Q704 221 688.5 166.5Q673 112 636 72Q599 32 538 9Q477 -14 386 -14ZM268 926Q268 977 299 1010.5Q330 1044 386 1044Q442 1044 473 1010.5Q504 977 504 926Q504 875 473 841.5Q442 808 386 808Q330 808 299 841.5Q268 875 268 926ZM351 926Q351 891 386 891Q421 891 421 926Q421 961 386 961Q351 961 351 926Z" glyph-name="Uring" horiz-adv-x="772" unicode="&#366;" /><glyph d="M386 -14Q295 -14 234 9Q173 32 136 72Q99 112 83.5 166.5Q68 221 68 285V780H208V285Q208 249 215 218.5Q222 188 241.5 165Q261 142 296 129Q331 116 386 116Q442 116 476.5 129Q511 142 530.5 165Q550 188 557 218.5Q564 249 564 285V780H704V285Q704 221 688.5 166.5Q673 112 636 72Q599 32 538 9Q477 -14 386 -14ZM632 1002Q625 914 584.5 868.5Q544 823 466 825Q430 826 406.5 837.5Q383 849 365.5 863Q348 877 334 889Q320 901 302 901Q286 902 275.5 896Q265 890 259.5 880.5Q254 871 251.5 859.5Q249 848 248 837L139 850Q146 938 186.5 983.5Q227 1029 305 1027Q341 1026 364.5 1014.5Q388 1003 405.5 989Q423 975 437 963Q451 951 469 951Q486 950 496 956Q506 962 511.5 971.5Q517 981 519.5 993Q522 1005 523 1015Z" glyph-name="Utilde" horiz-adv-x="772" unicode="&#360;" /><glyph d="M371 167 433 351 579 780H734L440 -14H302L8 780H163L309 351Z" glyph-name="V" horiz-adv-x="742" unicode="V" /><glyph d="M480 551 435 403 305 -14H188L25 780H170L236 420L262 264L308 420L421 780H539L652 420L698 264L724 420L790 780H935L772 -14H655L525 403Z" glyph-name="W" horiz-adv-x="960" unicode="W" /><glyph d="M480 551 435 403 305 -14H188L25 780H170L236 420L262 264L308 420L421 780H539L652 420L698 264L724 420L790 780H935L772 -14H655L525 403ZM666 1030 555 822H421L515 1030Z" glyph-name="Wacute" horiz-adv-x="960" unicode="&#7810;" /><glyph d="M480 551 435 403 305 -14H188L25 780H170L236 420L262 264L308 420L421 780H539L652 420L698 264L724 420L790 780H935L772 -14H655L525 403ZM419 1030H541L696 822H558L480 916L402 822H264Z" glyph-name="Wcircumflex" horiz-adv-x="960" unicode="&#372;" /><glyph d="M480 551 435 403 305 -14H188L25 780H170L236 420L262 264L308 420L421 780H539L652 420L698 264L724 420L790 780H935L772 -14H655L525 403ZM446 847H296V997H446ZM664 847H514V997H664Z" glyph-name="Wdieresis" horiz-adv-x="960" unicode="&#7812;" /><glyph d="M480 551 435 403 305 -14H188L25 780H170L236 420L262 264L308 420L421 780H539L652 420L698 264L724 420L790 780H935L772 -14H655L525 403ZM445 1030 539 822H405L294 1030Z" glyph-name="Wgrave" horiz-adv-x="960" unicode="&#7808;" /><glyph d="M381 284 313 180 193 0H25L246 323L300 400L243 482L40 780H206L316 614L381 515L446 614L556 780H722L519 482L462 400L516 323L737 0H569L449 180Z" glyph-name="X" horiz-adv-x="762" unicode="X" /><glyph d="M430 0H290V323L-12 780H149L297 548L360 447L423 548L571 780H732L430 323Z" glyph-name="Y" horiz-adv-x="720" unicode="Y" /><glyph d="M430 0H290V323L-12 780H149L297 548L360 447L423 548L571 780H732L430 323ZM536 1030 425 822H291L385 1030Z" glyph-name="Yacute" horiz-adv-x="720" unicode="&#221;" /><glyph d="M430 0H290V323L-12 780H149L297 548L360 447L423 548L571 780H732L430 323ZM299 1030H421L576 822H438L360 916L282 822H144Z" glyph-name="Ycircumflex" horiz-adv-x="720" unicode="&#374;" /><glyph d="M430 0H290V323L-12 780H149L297 548L360 447L423 548L571 780H732L430 323ZM544 847H394V997H544ZM326 847H176V997H326Z" glyph-name="Ydieresis" horiz-adv-x="720" unicode="&#376;" /><glyph d="M430 0H290V323L-12 780H149L297 548L360 447L423 548L571 780H732L430 323ZM338 1030 432 822H298L187 1030Z" glyph-name="Ygrave" horiz-adv-x="720" unicode="&#7922;" /><glyph d="M39 100 407 581 463 651 309 650H58V780H654V680L286 199L230 129L384 130H654V0H39Z" glyph-name="Z" horiz-adv-x="694" unicode="Z" /><glyph d="M39 100 407 581 463 651 309 650H58V780H654V680L286 199L230 129L384 130H654V0H39ZM520 1030 409 822H275L369 1030Z" glyph-name="Zacute" horiz-adv-x="694" unicode="&#377;" /><glyph d="M39 100 407 581 463 651 309 650H58V780H654V680L286 199L230 129L384 130H654V0H39ZM405 822H283L128 1030H266L344 936L422 1030H560Z" glyph-name="Zcaron" horiz-adv-x="694" unicode="&#381;" /><glyph d="M39 100 407 581 463 651 309 650H58V780H654V680L286 199L230 129L384 130H654V0H39ZM419 847H269V997H419Z" glyph-name="Zdotaccent" horiz-adv-x="694" unicode="&#379;" /><glyph d="M44 151Q44 195 58 224.5Q72 254 97.5 273Q123 292 159 303Q195 314 240 320L402 343V354Q402 425 300 425Q246 426 225.5 407.5Q205 389 200 357L61 375Q67 411 80.5 441.5Q94 472 120.5 495Q147 518 189.5 531Q232 544 296 544Q410 544 474 495.5Q538 447 538 343V143L547 0H422L411 66Q381 28 335 7Q289 -14 229 -14Q180 -14 145 -1.5Q110 11 87.5 32.5Q65 54 54.5 84.5Q44 115 44 151ZM188 157Q188 131 206 117Q224 103 256 102Q285 101 309.5 109.5Q334 118 353 132Q372 146 384.5 163.5Q397 181 402 198V241L261 218Q220 211 204 197.5Q188 184 188 157Z" glyph-name="a" horiz-adv-x="600" unicode="a" /><glyph d="M44 151Q44 195 58 224.5Q72 254 97.5 273Q123 292 159 303Q195 314 240 320L402 343V354Q402 425 300 425Q246 426 225.5 407.5Q205 389 200 357L61 375Q67 411 80.5 441.5Q94 472 120.5 495Q147 518 189.5 531Q232 544 296 544Q410 544 474 495.5Q538 447 538 343V143L547 0H422L411 56Q380 21 336 3.5Q292 -14 239 -14Q186 -14 149 -1.5Q112 11 88.5 32.5Q65 54 54.5 84.5Q44 115 44 151ZM472 800 361 592H227L321 800ZM188 157Q188 131 206 117Q224 103 256 102Q285 101 309.5 109.5Q334 118 353 132Q372 146 384.5 163.5Q397 181 402 198V241L261 218Q220 211 204 197.5Q188 184 188 157Z" glyph-name="aacute" horiz-adv-x="600" unicode="&#225;" /><glyph d="M495 800Q496 749 486 709Q476 669 452.5 642Q429 615 390.5 600.5Q352 586 296 586Q240 586 201.5 600.5Q163 615 139.5 642Q116 669 106 709Q96 749 97 800H204Q203 749 225 728Q247 707 296 707Q345 707 367 728Q389 749 388 800ZM44 151Q44 195 58 224.5Q72 254 97.5 273Q123 292 159 303Q195 314 240 320L402 343V354Q402 425 300 425Q246 426 225.5 407.5Q205 389 200 357L61 375Q67 411 80.5 441.5Q94 472 120.5 495Q147 518 189.5 531Q232 544 296 544Q410 544 474 495.5Q538 447 538 343V143L547 0H422L411 56Q380 21 336 3.5Q292 -14 239 -14Q186 -14 149 -1.5Q112 11 88.5 32.5Q65 54 54.5 84.5Q44 115 44 151ZM188 157Q188 131 206 117Q224 103 256 102Q285 101 309.5 109.5Q334 118 353 132Q372 146 384.5 163.5Q397 181 402 198V241L261 218Q220 211 204 197.5Q188 184 188 157Z" glyph-name="abreve" horiz-adv-x="600" unicode="&#259;" /><glyph d="M235 800H357L512 592H374L296 686L218 592H80ZM44 151Q44 195 58 224.5Q72 254 97.5 273Q123 292 159 303Q195 314 240 320L402 343V354Q402 425 300 425Q246 426 225.5 407.5Q205 389 200 357L61 375Q67 411 80.5 441.5Q94 472 120.5 495Q147 518 189.5 531Q232 544 296 544Q410 544 474 495.5Q538 447 538 343V143L547 0H422L411 56Q380 21 336 3.5Q292 -14 239 -14Q186 -14 149 -1.5Q112 11 88.5 32.5Q65 54 54.5 84.5Q44 115 44 151ZM188 157Q188 131 206 117Q224 103 256 102Q285 101 309.5 109.5Q334 118 353 132Q372 146 384.5 163.5Q397 181 402 198V241L261 218Q220 211 204 197.5Q188 184 188 157Z" glyph-name="acircumflex" horiz-adv-x="600" unicode="&#226;" /><glyph d="M476 800 365 592H231L325 800Z" glyph-name="acute" horiz-adv-x="600" unicode="&#180;" /><glyph d="M44 151Q44 195 58 224.5Q72 254 97.5 273Q123 292 159 303Q195 314 240 320L402 343V354Q402 425 300 425Q246 426 225.5 407.5Q205 389 200 357L61 375Q67 411 80.5 441.5Q94 472 120.5 495Q147 518 189.5 531Q232 544 296 544Q410 544 474 495.5Q538 447 538 343V143L547 0H422L411 56Q380 21 336 3.5Q292 -14 239 -14Q186 -14 149 -1.5Q112 11 88.5 32.5Q65 54 54.5 84.5Q44 115 44 151ZM480 617H330V767H480ZM262 617H112V767H262ZM188 157Q188 131 206 117Q224 103 256 102Q285 101 309.5 109.5Q334 118 353 132Q372 146 384.5 163.5Q397 181 402 198V241L261 218Q220 211 204 197.5Q188 184 188 157Z" glyph-name="adieresis" horiz-adv-x="600" unicode="&#228;" /><glyph d="M188 157Q188 104 253 102Q285 101 311.5 109.5Q338 118 357 132Q376 146 387.5 163Q399 180 402 196V213H268Q231 213 209.5 201Q188 189 188 157ZM669 -14Q534 -14 464 65Q422 21 367 3.5Q312 -14 241 -14Q187 -14 149.5 -2Q112 10 88.5 31.5Q65 53 54.5 83.5Q44 114 44 150Q44 195 61 227Q78 259 108.5 279.5Q139 300 180.5 310Q222 320 271 320H402V350Q402 389 376.5 407Q351 425 299 425Q273 426 255 421.5Q237 417 226 408Q215 399 208.5 386Q202 373 199 357L61 375Q66 410 79.5 441Q93 472 119.5 495Q146 518 189 531Q232 544 296 544Q421 544 477 479Q545 544 662 544Q786 544 850 472.5Q914 401 914 265V213H545Q548 156 581.5 130.5Q615 105 666 105Q719 104 742.5 122.5Q766 141 772 168L911 151Q906 118 891 88Q876 58 848 35.5Q820 13 776 -0.5Q732 -14 669 -14ZM663 425Q613 425 582 400Q551 375 546 320H768Q764 425 663 425Z" glyph-name="ae" horiz-adv-x="957" unicode="&#230;" /><glyph d="M655 800 544 592H409L503 800ZM188 157Q188 104 253 102Q285 101 311.5 109.5Q338 118 357 132Q376 146 387.5 163Q399 180 402 196V213H268Q231 213 209.5 201Q188 189 188 157ZM669 -14Q534 -14 464 65Q422 21 367 3.5Q312 -14 241 -14Q187 -14 149.5 -2Q112 10 88.5 31.5Q65 53 54.5 83.5Q44 114 44 150Q44 195 61 227Q78 259 108.5 279.5Q139 300 180.5 310Q222 320 271 320H402V350Q402 389 376.5 407Q351 425 299 425Q273 426 255 421.5Q237 417 226 408Q215 399 208.5 386Q202 373 199 357L61 375Q66 410 79.5 441Q93 472 119.5 495Q146 518 189 531Q232 544 296 544Q421 544 477 479Q545 544 662 544Q786 544 850 472.5Q914 401 914 265V213H545Q548 156 581.5 130.5Q615 105 666 105Q719 104 742.5 122.5Q766 141 772 168L911 151Q906 118 891 88Q876 58 848 35.5Q820 13 776 -0.5Q732 -14 669 -14ZM663 425Q613 425 582 400Q551 375 546 320H768Q764 425 663 425Z" glyph-name="aeacute" horiz-adv-x="957" unicode="&#509;" /><glyph d="M45 272V400H1355V272Z" glyph-name="afii00208" horiz-adv-x="1400" unicode="&#8213;" /><glyph d="M290 790H454L738 0H587L526 177H218L157 0H6ZM330 518 257 295H487L414 518L372 650Z" glyph-name="afii10017" horiz-adv-x="744" unicode="&#1040;" /><glyph d="M215 464H416Q466 464 512.5 455Q559 446 595 420.5Q631 395 652.5 349.5Q674 304 674 232Q674 160 652.5 115Q631 70 595 44.5Q559 19 512.5 9.5Q466 0 416 0H75V780H585V650H215ZM215 130H414Q467 130 498.5 152Q530 174 530 232Q530 261 522 280.5Q514 300 499 312Q484 324 462.5 329Q441 334 414 334H215Z" glyph-name="afii10018" horiz-adv-x="719" unicode="&#1041;" /><glyph d="M75 0V780H409Q446 780 487 771.5Q528 763 562 739.5Q596 716 618.5 674Q641 632 641 564Q641 503 619 464.5Q597 426 570 409Q612 392 639 345.5Q666 299 666 228Q666 157 645 112.5Q624 68 589.5 43Q555 18 509.5 9Q464 0 414 0ZM407 130Q424 130 444.5 132.5Q465 135 482.5 145Q500 155 511.5 175Q523 195 523 230Q523 265 512.5 286Q502 307 486 317.5Q470 328 450 331Q430 334 411 334H215V130ZM215 650V464H399Q422 464 440 468Q458 472 470.5 482.5Q483 493 490 511.5Q497 530 497 559Q497 587 490.5 605Q484 623 471 633Q458 643 440 646.5Q422 650 399 650Z" glyph-name="afii10019" horiz-adv-x="711" unicode="&#1042;" /><glyph d="M215 0H75V780H585V650H215Z" glyph-name="afii10020" horiz-adv-x="585" unicode="&#1043;" /><glyph d="M672 130H779V-160H641V0H152V-160H15V130H35Q70 130 96 146.5Q122 163 141.5 201Q161 239 175.5 301.5Q190 364 201 456L241 780H672ZM344 432Q335 361 325.5 311Q316 261 305 226.5Q294 192 281 169.5Q268 147 251 130H532V650H372Z" glyph-name="afii10021" horiz-adv-x="803" unicode="&#1044;" /><glyph d="M628 780V650H215V464H581V334H215V130H647V0H75V780Z" glyph-name="afii10022" horiz-adv-x="697" unicode="&#1045;" /><glyph d="M628 780V650H215V464H581V334H215V130H647V0H75V780ZM535 847H385V997H535ZM317 847H167V997H317Z" glyph-name="afii10023" horiz-adv-x="697" unicode="&#1025;" /><glyph d="M835 482Q821 457 803.5 435.5Q786 414 762 400Q789 386 808 364Q827 342 841 316L1010 0H839L700 279Q684 311 664.5 323.5Q645 336 614 336H578V0H438V336H403Q371 336 352 323.5Q333 311 317 279L178 0H7L176 316Q190 342 208.5 364Q227 386 254 400Q229 414 212 435.5Q195 457 181 482L22 780H193L322 519Q338 487 357.5 474.5Q377 462 408 462H438V780H578V462H609Q640 462 659 474.5Q678 487 694 519L824 780H995Z" glyph-name="afii10024" horiz-adv-x="1017" unicode="&#1046;" /><glyph d="M664 225Q664 172 644 128Q624 84 584.5 52.5Q545 21 484.5 3.5Q424 -14 343 -14Q265 -14 208 3Q151 20 113.5 51.5Q76 83 56 126.5Q36 170 33 224L174 241Q180 173 219 144Q258 115 343 115Q429 115 478.5 139.5Q528 164 528 225Q528 263 514 284.5Q500 306 477.5 316.5Q455 327 425.5 329.5Q396 332 364 332H247V457H364Q393 457 417.5 459.5Q442 462 460 472Q478 482 488 502Q498 522 498 557Q498 585 486 604Q474 623 454 634Q434 645 406.5 650Q379 655 349 655Q308 655 278 649.5Q248 644 228 630.5Q208 617 197.5 594Q187 571 184 536L42 552Q49 660 121 722Q193 784 344 784Q402 784 455 772Q508 760 548.5 733.5Q589 707 613 663.5Q637 620 637 557Q637 493 608 454Q579 415 539 400Q562 393 584 378.5Q606 364 624 342.5Q642 321 653 291.5Q664 262 664 225Z" glyph-name="afii10025" horiz-adv-x="704" unicode="&#1047;" /><glyph d="M214 0H75V780H215V435L213 246L290 368L549 780H688V0H548V345L550 534L473 412Z" glyph-name="afii10026" horiz-adv-x="763" unicode="&#1048;" /><glyph d="M484 404 221 0H75V780H224V439L222 253L301 376L563 780H709V0H560V341L562 527ZM594 1030Q596 927 550.5 870.5Q505 814 392 814Q335 814 296.5 828.5Q258 843 234 870.5Q210 898 200 938Q190 978 190 1030H304Q303 982 324 962.5Q345 943 392 943Q440 943 460.5 962.5Q481 982 481 1030Z" glyph-name="afii10027" horiz-adv-x="784" unicode="&#1049;" /><glyph d="M535 482Q519 456 500 435Q481 414 455 400Q483 386 503 364Q523 342 539 316L732 0H561L402 279Q384 311 364 323.5Q344 336 313 336H215V0H75V780H215V462H309Q340 462 360 474.5Q380 487 398 519L546 780H717Z" glyph-name="afii10028" horiz-adv-x="739" unicode="&#1050;" /><glyph d="M659 0H519V650H359L331 432Q316 316 295 234Q274 152 240 100Q206 48 156 24Q106 0 33 0H15V126H26Q59 126 84.5 142.5Q110 159 129 197.5Q148 236 162 299.5Q176 363 188 456L228 780H659Z" glyph-name="afii10029" horiz-adv-x="754" unicode="&#1051;" /><glyph d="M398 0 254 390 211 513 212 298V0H75V780H238L399 355L452 208L505 355L666 780H829V0H692V298L693 513L650 390L506 0Z" glyph-name="afii10030" horiz-adv-x="904" unicode="&#1052;" /><glyph d="M683 780V0H543V334H215V0H75V780H215V464H543V780Z" glyph-name="afii10031" horiz-adv-x="758" unicode="&#1053;" /><glyph d="M400 -14Q307 -14 241 14.5Q175 43 132.5 95.5Q90 148 70 223Q50 298 50 390Q50 482 70 557Q90 632 132.5 684.5Q175 737 241 765.5Q307 794 400 794Q493 794 559 765.5Q625 737 667.5 684.5Q710 632 730 557Q750 482 750 390Q750 298 730 223Q710 148 667.5 95.5Q625 43 559 14.5Q493 -14 400 -14ZM400 664Q337 664 297 642Q257 620 233.5 582.5Q210 545 201 495.5Q192 446 192 390Q192 335 201 285Q210 235 233.5 197.5Q257 160 297 138Q337 116 400 116Q463 116 503 138Q543 160 566 197.5Q589 235 598 285Q607 335 607 390Q607 446 598 495.5Q589 545 566 582.5Q543 620 503 642Q463 664 400 664Z" glyph-name="afii10032" horiz-adv-x="800" unicode="&#1054;" /><glyph d="M683 780V0H543V650H215V0H75V780Z" glyph-name="afii10033" horiz-adv-x="758" unicode="&#1055;" /><glyph d="M215 0H75V780H371Q420 780 467.5 769.5Q515 759 553 731.5Q591 704 614.5 657Q638 610 638 537Q638 464 615 416.5Q592 369 554.5 341.5Q517 314 469 303.5Q421 293 372 293H215ZM494 537Q494 574 483.5 596.5Q473 619 456.5 631Q440 643 420 646.5Q400 650 382 650H215V424H382Q400 424 420 427.5Q440 431 456.5 443Q473 455 483.5 477.5Q494 500 494 537Z" glyph-name="afii10034" horiz-adv-x="661" unicode="&#1056;" /><glyph d="M193 390Q193 336 200.5 286Q208 236 228.5 198.5Q249 161 286.5 138.5Q324 116 384 116Q463 116 500.5 147Q538 178 549 248L690 233Q684 177 663.5 131.5Q643 86 606 53.5Q569 21 514 3.5Q459 -14 384 -14Q294 -14 230.5 15Q167 44 127 97Q87 150 68.5 224.5Q50 299 50 390Q50 481 68.5 555.5Q87 630 127 683Q167 736 230.5 765Q294 794 384 794Q459 794 514 776.5Q569 759 606 727Q643 695 663.5 649Q684 603 690 547L549 532Q538 602 500.5 633Q463 664 384 664Q324 664 286.5 641.5Q249 619 228.5 581.5Q208 544 200.5 494Q193 444 193 390Z" glyph-name="afii10035" horiz-adv-x="738" unicode="&#1057;" /><glyph d="M377 0H237V650H10V780H604V650H377Z" glyph-name="afii10036" horiz-adv-x="614" unicode="&#1058;" /><glyph d="M201 111Q272 111 300 175L309 196L36 780H185L378 347L565 780H714L451 191Q430 144 409 106Q388 68 360.5 41.5Q333 15 294.5 0.5Q256 -14 201 -14Q152 -14 121 -6Q90 2 68 14L83 140Q105 127 133 119Q161 111 201 111Z" glyph-name="afii10037" horiz-adv-x="720" unicode="&#1059;" /><glyph d="M352 111Q279 111 220 129.5Q161 148 120 183Q79 218 57 270.5Q35 323 35 390Q35 458 57 510Q79 562 120 597Q161 632 220 650.5Q279 669 352 669V780H492V669Q566 669 625 650.5Q684 632 725 597Q766 562 788 510Q810 458 810 390Q810 323 788 270.5Q766 218 725 183Q684 148 625 129.5Q566 111 492 111V0H352ZM178 390Q178 308 224.5 271.5Q271 235 352 235V545Q271 545 224.5 508.5Q178 472 178 390ZM492 235Q573 235 619.5 271.5Q666 308 666 390Q666 472 619.5 508.5Q573 545 492 545Z" glyph-name="afii10038" horiz-adv-x="845" unicode="&#1060;" /><glyph d="M379 284 311 180 191 0H23L244 323L298 400L241 482L38 780H204L314 614L379 515L444 614L554 780H720L517 482L460 400L514 323L735 0H567L447 180Z" glyph-name="afii10039" horiz-adv-x="758" unicode="&#1061;" /><glyph d="M75 780H215V130H550V780H690V130H797V-160H659V0H75Z" glyph-name="afii10040" horiz-adv-x="821" unicode="&#1062;" /><glyph d="M641 0H501V362Q469 334 417.5 318Q366 302 300 302Q249 302 203.5 314Q158 326 124 351Q90 376 70 415Q50 454 50 508V780H190V538Q190 484 226 459.5Q262 435 322 435Q390 435 435.5 456.5Q481 478 501 504V780H641Z" glyph-name="afii10041" horiz-adv-x="716" unicode="&#1063;" /><glyph d="M577 130H799V780H939V0H75V780H215V130H437V780H577Z" glyph-name="afii10042" horiz-adv-x="1014" unicode="&#1064;" /><glyph d="M577 130H799V780H939V130H1046V-160H909V0H75V780H215V130H437V780H577Z" glyph-name="afii10043" horiz-adv-x="1070" unicode="&#1065;" /><glyph d="M320 464H521Q571 464 617.5 455Q664 446 700 420.5Q736 395 757.5 349.5Q779 304 779 232Q779 160 757.5 115Q736 70 700 44.5Q664 19 617.5 9.5Q571 0 521 0H180V650H10V780H320ZM320 130H519Q572 130 603.5 152Q635 174 635 232Q635 261 627 280.5Q619 300 604 312Q589 324 567.5 329Q546 334 519 334H320Z" glyph-name="afii10044" horiz-adv-x="824" unicode="&#1066;" /><glyph d="M879 0H739V780H879ZM215 130H414Q467 130 498.5 152Q530 174 530 232Q530 261 522 280.5Q514 300 499 312Q484 324 462.5 329Q441 334 414 334H215ZM215 464H416Q466 464 512.5 455Q559 446 595 420.5Q631 395 652.5 349.5Q674 304 674 232Q674 160 652.5 115Q631 70 595 44.5Q559 19 512.5 9.5Q466 0 416 0H75V780H215Z" glyph-name="afii10045" horiz-adv-x="974" unicode="&#1067;" /><glyph d="M215 130H414Q467 130 498.5 152Q530 174 530 232Q530 261 522 280.5Q514 300 499 312Q484 324 462.5 329Q441 334 414 334H215ZM215 464H416Q466 464 512.5 455Q559 446 595 420.5Q631 395 652.5 349.5Q674 304 674 232Q674 160 652.5 115Q631 70 595 44.5Q559 19 512.5 9.5Q466 0 416 0H75V780H215Z" glyph-name="afii10046" horiz-adv-x="719" unicode="&#1068;" /><glyph d="M214 462H541Q537 504 526 541Q515 578 493.5 605.5Q472 633 438 648.5Q404 664 354 664Q275 664 237.5 633Q200 602 189 532L48 547Q54 603 74.5 649Q95 695 132 727Q169 759 224 776.5Q279 794 354 794Q444 794 507.5 765Q571 736 611 683Q651 630 669.5 555.5Q688 481 688 390Q688 299 669.5 224.5Q651 150 611 97Q571 44 507.5 15Q444 -14 354 -14Q279 -14 224 3.5Q169 21 132 53.5Q95 86 74.5 131.5Q54 177 48 233L189 248Q200 178 237.5 147Q275 116 354 116Q407 116 441.5 133Q476 150 498 180Q520 210 530 250Q540 290 543 336H214Z" glyph-name="afii10047" horiz-adv-x="738" unicode="&#1069;" /><glyph d="M694 -14Q609 -14 546 10.5Q483 35 440.5 80Q398 125 375 189.5Q352 254 346 334H215V0H75V780H215V464H347Q355 540 379 601Q403 662 445.5 705Q488 748 549.5 771Q611 794 694 794Q787 794 853 765.5Q919 737 961.5 684.5Q1004 632 1024 557Q1044 482 1044 390Q1044 298 1024 223Q1004 148 961.5 95.5Q919 43 853 14.5Q787 -14 694 -14ZM694 664Q631 664 591 642Q551 620 527.5 582.5Q504 545 495 495.5Q486 446 486 390Q486 335 495 285Q504 235 527.5 197.5Q551 160 591 138Q631 116 694 116Q757 116 797 138Q837 160 860 197.5Q883 235 892 285Q901 335 901 390Q901 446 892 495.5Q883 545 860 582.5Q837 620 797 642Q757 664 694 664Z" glyph-name="afii10048" horiz-adv-x="1094" unicode="&#1070;" /><glyph d="M639 780V0H499V306H414Q382 306 361 291.5Q340 277 320 243L181 0H17L167 255Q179 275 191.5 289.5Q204 304 224 316Q187 325 155.5 341Q124 357 101 384Q78 411 65 450Q52 489 52 543Q52 615 74.5 661Q97 707 134 733.5Q171 760 218.5 770Q266 780 317 780ZM499 437V650H308Q290 650 270 647Q250 644 233.5 633Q217 622 206 601Q195 580 195 543Q195 507 206 485.5Q217 464 233.5 453.5Q250 443 270 440Q290 437 308 437Z" glyph-name="afii10049" horiz-adv-x="714" unicode="&#1071;" /><glyph d="M585 650H215V0H75V780H448V940H585Z" glyph-name="afii10050" horiz-adv-x="585" unicode="&#1168;" /><glyph d="M337 420Q364 447 409.5 462.5Q455 478 508 478Q630 478 689 416Q748 354 748 231Q748 108 690.5 47Q633 -14 520 -14Q489 -14 464.5 -9Q440 -4 426 2L437 123Q445 120 459.5 116Q474 112 495 112Q546 112 576.5 140.5Q607 169 607 231Q607 294 574 323Q541 352 475 352Q449 352 425.5 345.5Q402 339 383 328Q364 317 352 303.5Q340 290 337 275V0H197V650H10V780H524V650H337Z" glyph-name="afii10051" horiz-adv-x="758" unicode="&#1026;" /><glyph d="M215 0H75V780H591V654H215ZM517 1030 406 822H271L365 1030Z" glyph-name="afii10052" horiz-adv-x="591" unicode="&#1027;" /><glyph d="M194 336Q197 290 207.5 250Q218 210 239.5 180Q261 150 296.5 133Q332 116 384 116Q463 116 500.5 147Q538 178 549 248L690 233Q684 177 663.5 131.5Q643 86 606 53.5Q569 21 514 3.5Q459 -14 384 -14Q294 -14 230.5 15Q167 44 127 97Q87 150 68.5 224.5Q50 299 50 390Q50 481 68.5 555.5Q87 630 127 683Q167 736 230.5 765Q294 794 384 794Q459 794 514 776.5Q569 759 606 727Q643 695 663.5 649Q684 603 690 547L549 532Q538 602 500.5 633Q463 664 384 664Q334 664 300 648.5Q266 633 244.5 605.5Q223 578 211.5 541Q200 504 196 462H524V336Z" glyph-name="afii10053" horiz-adv-x="738" unicode="&#1028;" /><glyph d="M364 -14Q285 -14 228 1.5Q171 17 133.5 47.5Q96 78 75.5 122.5Q55 167 49 225L191 240Q199 171 241.5 143.5Q284 116 364 116Q393 116 422.5 122.5Q452 129 476 142.5Q500 156 515 178Q530 200 530 232Q530 258 521.5 276.5Q513 295 493.5 307.5Q474 320 441 328.5Q408 337 360 341Q306 346 255.5 356.5Q205 367 165 391Q125 415 100.5 454.5Q76 494 76 557Q76 619 98.5 663.5Q121 708 159.5 737Q198 766 249 780Q300 794 357 794Q434 794 490 777.5Q546 761 584 730.5Q622 700 642.5 656Q663 612 668 556L526 541Q518 610 477.5 637Q437 664 357 664Q337 664 312.5 659.5Q288 655 266.5 643Q245 631 230.5 610Q216 589 216 556Q216 536 223 521Q230 506 247 495.5Q264 485 293 478.5Q322 472 367 467Q439 461 495 449Q551 437 589.5 411.5Q628 386 648.5 343.5Q669 301 669 232Q669 167 643.5 120.5Q618 74 575 44Q532 14 477 0Q422 -14 364 -14Z" glyph-name="afii10054" horiz-adv-x="723" unicode="&#1029;" /><glyph d="M235 0H95V780H235Z" glyph-name="afii10055" horiz-adv-x="330" unicode="&#1030;" /><glyph d="M248 0H108V780H248ZM362 847H212V997H362ZM144 847H-6V997H144Z" glyph-name="afii10056" horiz-adv-x="356" unicode="&#1031;" /><glyph d="M510 780V213Q510 109 444 47.5Q378 -14 252 -14Q183 -14 136.5 3.5Q90 21 61.5 50.5Q33 80 19.5 118Q6 156 3 196L142 214Q145 192 151.5 173.5Q158 155 170.5 142Q183 129 202.5 122Q222 115 251 115Q309 116 339.5 139.5Q370 163 370 211V780Z" glyph-name="afii10057" horiz-adv-x="578" unicode="&#1032;" /><glyph d="M659 464H860Q910 464 956.5 455Q1003 446 1039 420.5Q1075 395 1096.5 349.5Q1118 304 1118 232Q1118 160 1096.5 115Q1075 70 1039 44.5Q1003 19 956.5 9.5Q910 0 860 0H519V650H359L331 432Q316 316 295 234Q274 152 240 100Q206 48 156 24Q106 0 33 0H15V126H26Q59 126 84.5 142.5Q110 159 129 197.5Q148 236 162 299.5Q176 363 188 456L228 780H659ZM659 130H858Q911 130 942.5 152Q974 174 974 232Q974 261 966 280.5Q958 300 943 312Q928 324 906.5 329Q885 334 858 334H659Z" glyph-name="afii10058" horiz-adv-x="1141" unicode="&#1033;" /><glyph d="M683 464H884Q934 464 980.5 455Q1027 446 1063 420.5Q1099 395 1120.5 349.5Q1142 304 1142 232Q1142 160 1120.5 115Q1099 70 1063 44.5Q1027 19 980.5 9.5Q934 0 884 0H543V334H215V0H75V780H215V464H543V780H683ZM683 130H882Q935 130 966.5 152Q998 174 998 232Q998 261 990 280.5Q982 300 967 312Q952 324 930.5 329Q909 334 882 334H683Z" glyph-name="afii10059" horiz-adv-x="1165" unicode="&#1034;" /><glyph d="M197 0V650H10V780H524V650H337V395Q375 439 419.5 458.5Q464 478 521 478Q557 478 589.5 468Q622 458 646.5 438Q671 418 685.5 388Q700 358 700 317V0H560V266Q560 349 467 349Q441 349 418 341Q395 333 377.5 318.5Q360 304 349 285Q338 266 337 243V0Z" glyph-name="afii10060" horiz-adv-x="746" unicode="&#1035;" /><glyph d="M535 482Q519 456 500 435Q481 414 455 400Q483 386 503 364Q523 342 539 316L732 0H561L402 279Q384 311 364 323.5Q344 336 313 336H215V0H75V780H215V462H309Q340 462 360 474.5Q380 487 398 519L546 780H717ZM542 1030 431 822H297L391 1030Z" glyph-name="afii10061" horiz-adv-x="739" unicode="&#1036;" /><glyph d="M201 111Q272 111 300 175L309 196L36 780H185L378 347L565 780H714L451 191Q430 144 409 106Q388 68 360.5 41.5Q333 15 294.5 0.5Q256 -14 201 -14Q152 -14 121 -6Q90 2 68 14L83 140Q105 127 133 119Q161 111 201 111ZM575 1030Q575 979 565 939Q555 899 531.5 872Q508 845 469.5 830.5Q431 816 375 816Q319 816 281 830.5Q243 845 219.5 872Q196 899 186 939Q176 979 176 1030H283Q282 979 304 958Q326 937 375 937Q424 937 446 958Q468 979 467 1030Z" glyph-name="afii10062" horiz-adv-x="720" unicode="&#1038;" /><glyph d="M43 151Q43 195 57 224.5Q71 254 96.5 273Q122 292 158 303Q194 314 239 320L401 343V354Q401 425 299 425Q245 426 224.5 407.5Q204 389 199 357L60 375Q66 411 79.5 441.5Q93 472 119.5 495Q146 518 188.5 531Q231 544 295 544Q409 544 473 495.5Q537 447 537 343V143L546 0H421L410 66Q380 28 334 7Q288 -14 228 -14Q179 -14 144 -1.5Q109 11 86.5 32.5Q64 54 53.5 84.5Q43 115 43 151ZM187 157Q187 131 205 117Q223 103 255 102Q284 101 308.5 109.5Q333 118 352 132Q371 146 383.5 163.5Q396 181 401 198V241L260 218Q219 211 203 197.5Q187 184 187 157Z" glyph-name="afii10065" horiz-adv-x="601" unicode="&#1072;" /><glyph d="M308 -14Q245 -14 196 3Q147 20 113 56.5Q79 93 61 149.5Q43 206 43 285Q43 405 59 493Q75 581 111.5 640.5Q148 700 209 731.5Q270 763 360 770Q416 775 460.5 782Q505 789 543 806V677Q514 663 478.5 655Q443 647 388 642Q337 638 302 628.5Q267 619 244.5 601Q222 583 210 555Q198 527 191 485Q242 544 333 544Q386 544 430 526.5Q474 509 506 474Q538 439 555.5 387Q573 335 573 265Q573 195 554.5 143Q536 91 501.5 56Q467 21 418 3.5Q369 -14 308 -14ZM308 417Q279 417 256 409.5Q233 402 216.5 384.5Q200 367 191.5 338Q183 309 183 265Q183 222 191.5 192.5Q200 163 216.5 145.5Q233 128 256 120.5Q279 113 308 113Q337 113 360 120.5Q383 128 399.5 145.5Q416 163 424.5 192.5Q433 222 433 265Q433 309 424.5 338Q416 367 399.5 384.5Q383 402 360 409.5Q337 417 308 417Z" glyph-name="afii10066" horiz-adv-x="614" unicode="&#1073;" /><glyph d="M71 0V530H363Q392 530 422.5 525Q453 520 479 505Q505 490 521.5 463Q538 436 538 392Q538 347 519 319.5Q500 292 474 281Q510 273 532.5 238Q555 203 555 152Q555 106 539 76.5Q523 47 496 30Q469 13 434 6.5Q399 0 361 0ZM339 113Q374 113 397 123.5Q420 134 420 169Q420 204 399.5 215.5Q379 227 344 227H207V113ZM207 416V318H332Q370 318 386.5 330Q403 342 403 370Q403 396 386.5 406Q370 416 332 416Z" glyph-name="afii10067" horiz-adv-x="596" unicode="&#1074;" /><glyph d="M450 530V407H207V0H71V530Z" glyph-name="afii10068" horiz-adv-x="470" unicode="&#1075;" /><glyph d="M40 -160V123H61Q81 123 96.5 129Q112 135 124.5 154Q137 173 148 207.5Q159 242 169 300L209 530H579V123H668V-160H536V0H172V-160ZM444 407H322L295 254Q287 207 276 175Q265 143 248 123H444Z" glyph-name="afii10069" horiz-adv-x="703" unicode="&#1076;" /><glyph d="M185 213Q188 156 221.5 130.5Q255 105 306 105Q359 104 382.5 122.5Q406 141 412 168L551 151Q546 118 531 88Q516 58 488 35.5Q460 13 416 -0.5Q372 -14 309 -14Q181 -14 111 57Q41 128 41 265Q41 402 110.5 473Q180 544 302 544Q426 544 490 472.5Q554 401 554 265V213ZM303 425Q253 425 222 400Q191 375 186 320H408Q404 425 303 425Z" glyph-name="afii10070" horiz-adv-x="600" unicode="&#1077;" /><glyph d="M185 213Q188 156 221.5 130.5Q255 105 306 105Q359 104 382.5 122.5Q406 141 412 168L551 151Q546 118 531 88Q516 58 488 35.5Q460 13 416 -0.5Q372 -14 309 -14Q181 -14 111 57Q41 128 41 265Q41 402 110.5 473Q180 544 302 544Q426 544 490 472.5Q554 401 554 265V213ZM486 617H336V767H486ZM268 617H118V767H268ZM303 425Q253 425 222 400Q191 375 186 320H408Q404 425 303 425Z" glyph-name="afii10071" horiz-adv-x="600" unicode="&#1105;" /><glyph d="M829 530 730 345Q718 323 702.5 304Q687 285 665 272Q688 260 705 240.5Q722 221 734 198L840 0H682L602 162Q586 192 566 204Q546 216 514 216H495V0H359V216H340Q307 216 287.5 204Q268 192 252 162L172 0H14L119 198Q132 221 148.5 240.5Q165 260 188 272Q166 285 150.5 304Q135 323 124 345L24 530H183L257 381Q273 350 292.5 338Q312 326 345 326H359V530H495V326H509Q542 326 561.5 338Q581 350 597 381L671 530Z" glyph-name="afii10072" horiz-adv-x="854" unicode="&#1078;" /><glyph d="M535 152Q535 74 473 30Q411 -14 283 -14Q168 -14 106.5 26Q45 66 39 153L177 168Q182 133 211.5 117Q241 101 287 101Q338 101 367 116Q396 131 396 166Q396 186 388.5 197.5Q381 209 368.5 215Q356 221 339 222.5Q322 224 303 224H204V311H299Q337 311 359 323Q381 335 381 372Q381 404 356 416Q331 428 285 428Q247 428 220 415Q193 402 187 364L47 379Q51 425 68.5 456.5Q86 488 116.5 507.5Q147 527 189.5 535.5Q232 544 286 544Q330 544 371.5 536Q413 528 445.5 509.5Q478 491 498 460Q518 429 518 382Q518 331 497 307Q476 283 450 273Q465 268 480.5 259.5Q496 251 508 236.5Q520 222 527.5 201.5Q535 181 535 152Z" glyph-name="afii10073" horiz-adv-x="581" unicode="&#1079;" /><glyph d="M71 0V530H207L201 188L424 530H575V0H439L445 342L222 0Z" glyph-name="afii10074" horiz-adv-x="646" unicode="&#1080;" /><glyph d="M61 0V530H197L191 188L414 530H565V0H429L435 342L212 0ZM512 800Q513 749 503 709Q493 669 469.5 642Q446 615 407.5 600.5Q369 586 313 586Q257 586 218.5 600.5Q180 615 156.5 642Q133 669 123 709Q113 749 114 800H221Q220 749 242 728Q264 707 313 707Q362 707 384 728Q406 749 405 800Z" glyph-name="afii10075" horiz-adv-x="636" unicode="&#1081;" /><glyph d="M594 530 480 345Q466 322 449.5 303.5Q433 285 410 272Q434 260 452 240Q470 220 484 198L605 0H444L351 162Q334 192 313.5 204Q293 216 261 216H207V0H71V530H207V326H257Q289 326 309.5 338Q330 350 347 381L432 530Z" glyph-name="afii10076" horiz-adv-x="619" unicode="&#1082;" /><glyph d="M558 0H422V407H300L273 254Q259 178 239.5 128.5Q220 79 193 50.5Q166 22 131.5 11Q97 0 52 0H31L30 122H37Q58 122 74 128Q90 134 102.5 153Q115 172 126 207Q137 242 147 300L187 530H558Z" glyph-name="afii10077" horiz-adv-x="629" unicode="&#1083;" /><glyph d="M470 0H308L206 374V0H71V530H284L363 242L389 127L415 242L494 530H707V0H572V374Z" glyph-name="afii10078" horiz-adv-x="778" unicode="&#1084;" /><glyph d="M207 530V335H429V530H565V0H429V212H207V0H71V530Z" glyph-name="afii10079" horiz-adv-x="636" unicode="&#1085;" /><glyph d="M301 417Q245 417 213 382.5Q181 348 181 265Q181 182 213 147.5Q245 113 301 113Q357 113 389 147.5Q421 182 421 265Q421 348 389 382.5Q357 417 301 417ZM301 -14Q181 -14 111 56.5Q41 127 41 265Q41 403 111 473.5Q181 544 301 544Q421 544 491 473.5Q561 403 561 265Q561 127 491 56.5Q421 -14 301 -14Z" glyph-name="afii10080" horiz-adv-x="602" unicode="&#1086;" /><glyph d="M207 0H71V530H565V0H429V407H207Z" glyph-name="afii10081" horiz-adv-x="636" unicode="&#1087;" /><glyph d="M450 265Q450 342 415 379Q380 416 327 416Q301 416 279 408.5Q257 401 241 388Q225 375 214.5 359.5Q204 344 200 327V203Q204 187 214.5 171Q225 155 241 142Q257 129 279 121.5Q301 114 327 114Q380 114 415 151Q450 188 450 265ZM355 -14Q307 -14 267.5 3Q228 20 200 57V-200H64V387L55 530H180L191 462Q217 500 257.5 522Q298 544 355 544Q468 544 530 472.5Q592 401 592 265Q592 129 530 57.5Q468 -14 355 -14Z" glyph-name="afii10082" horiz-adv-x="633" unicode="&#1088;" /><glyph d="M179 265Q179 187 210.5 151Q242 115 298 113Q353 112 375 132Q397 152 404 187L543 169Q538 131 524 97.5Q510 64 482.5 39.5Q455 15 410 0.5Q365 -14 299 -14Q177 -14 109 57.5Q41 129 41 265Q41 401 109 472.5Q177 544 299 544Q365 544 410 529.5Q455 515 482.5 490.5Q510 466 524 432.5Q538 399 543 361L404 343Q397 378 375 398Q353 418 298 417Q242 415 210.5 379Q179 343 179 265Z" glyph-name="afii10083" horiz-adv-x="581" unicode="&#1089;" /><glyph d="M22 530H518V407H338V0H202V407H22Z" glyph-name="afii10084" horiz-adv-x="540" unicode="&#1090;" /><glyph d="M106 -89Q137 -89 158 -73.5Q179 -58 197 -17L220 36L9 530H158L249 300L295 179L341 300L432 530H581L343 -30Q322 -79 302 -113.5Q282 -148 257 -170.5Q232 -193 198.5 -203.5Q165 -214 117 -214Q80 -214 59.5 -210Q39 -206 22 -200L37 -75Q51 -80 65 -84.5Q79 -89 106 -89Z" glyph-name="afii10085" horiz-adv-x="590" unicode="&#1091;" /><glyph d="M464 -200H328V-14Q261 -14 206 3.5Q151 21 112 56Q73 91 52 143Q31 195 31 265Q31 335 52 387Q73 439 112 474Q151 509 206 526.5Q261 544 328 544V801H464V544Q531 544 586 526.5Q641 509 680 474Q719 439 740 387Q761 335 761 265Q761 195 740 143Q719 91 680 56Q641 21 586 3.5Q531 -14 464 -14ZM169 265Q169 220 182 190Q195 160 216.5 142Q238 124 267 116.5Q296 109 328 109V421Q296 421 267 413.5Q238 406 216.5 388Q195 370 182 340Q169 310 169 265ZM623 265Q623 310 610.5 340Q598 370 576 388Q554 406 525 413.5Q496 421 464 421V109Q496 109 525 116.5Q554 124 576 142Q598 160 610.5 190Q623 220 623 265Z" glyph-name="afii10086" horiz-adv-x="792" unicode="&#1092;" /><glyph d="M303 170 247 90 182 0H14L166 203L220 274L174 335L27 530H194L262 431L303 371L344 431L412 530H579L432 335L386 274L440 203L592 0H424L359 90Z" glyph-name="afii10087" horiz-adv-x="606" unicode="&#1093;" /><glyph d="M654 123V-160H522V0H71V530H207V123H429V530H565V123Z" glyph-name="afii10088" horiz-adv-x="689" unicode="&#1094;" /><glyph d="M571 0H436V229Q410 208 366.5 194.5Q323 181 271 181Q224 181 185.5 192Q147 203 119 225.5Q91 248 76 282.5Q61 317 61 365V530H197V383Q197 341 225 323Q253 305 303 305Q355 305 388 319.5Q421 334 436 354V530H571Z" glyph-name="afii10089" horiz-adv-x="633" unicode="&#1095;" /><glyph d="M362 530H497V123H652V530H788V0H71V530H207V123H362Z" glyph-name="afii10090" horiz-adv-x="859" unicode="&#1096;" /><glyph d="M487 123H642V530H778V123H867V-160H735V0H61V530H197V123H352V530H487Z" glyph-name="afii10091" horiz-adv-x="902" unicode="&#1097;" /><glyph d="M152 408H20V530H288V335H424Q466 335 503 328.5Q540 322 567 304Q594 286 609.5 254Q625 222 625 170Q625 118 609.5 85Q594 52 567 33Q540 14 503 7Q466 0 424 0H152ZM418 113Q433 113 446 115Q459 117 468.5 123Q478 129 484 140.5Q490 152 490 170Q490 188 484 199.5Q478 211 468.5 217Q459 223 446 225Q433 227 418 227H288V113Z" glyph-name="afii10092" horiz-adv-x="655" unicode="&#1098;" /><glyph d="M589 530H725V0H589ZM337 113Q352 113 365 115Q378 117 387.5 123Q397 129 403 140.5Q409 152 409 170Q409 188 403 199.5Q397 211 387.5 217Q378 223 365 225Q352 227 337 227H207V113ZM71 530H207V335H343Q385 335 422 328.5Q459 322 486 304Q513 286 528.5 254Q544 222 544 170Q544 118 528.5 85Q513 52 486 33Q459 14 422 7Q385 0 343 0H71Z" glyph-name="afii10093" horiz-adv-x="796" unicode="&#1099;" /><glyph d="M337 113Q352 113 365 115Q378 117 387.5 123Q397 129 403 140.5Q409 152 409 170Q409 188 403 199.5Q397 211 387.5 217Q378 223 365 225Q352 227 337 227H207V113ZM71 530H207V335H343Q385 335 422 328.5Q459 322 486 304Q513 286 528.5 254Q544 222 544 170Q544 118 528.5 85Q513 52 486 33Q459 14 422 7Q385 0 343 0H71Z" glyph-name="afii10094" horiz-adv-x="574" unicode="&#1100;" /><glyph d="M220 311H409Q400 365 370.5 390Q341 415 294 417Q239 418 217 398Q195 378 188 343L49 361Q54 399 68 432.5Q82 466 109.5 490.5Q137 515 182 529.5Q227 544 293 544Q415 544 483 472.5Q551 401 551 265Q551 129 483 57.5Q415 -14 293 -14Q227 -14 182 0.5Q137 15 109.5 39.5Q82 64 68 97.5Q54 131 49 169L188 187Q195 152 217 132Q239 112 294 113Q342 114 372 140.5Q402 167 410 224H220Z" glyph-name="afii10095" horiz-adv-x="592" unicode="&#1101;" /><glyph d="M553 -14Q444 -14 377 43Q310 100 296 212H207V0H71V530H207V335H298Q315 439 381.5 491.5Q448 544 553 544Q673 544 743 473.5Q813 403 813 265Q813 127 743 56.5Q673 -14 553 -14ZM553 417Q497 417 465 382.5Q433 348 433 265Q433 182 465 147.5Q497 113 553 113Q609 113 641 147.5Q673 182 673 265Q673 348 641 382.5Q609 417 553 417Z" glyph-name="afii10096" horiz-adv-x="854" unicode="&#1102;" /><glyph d="M39 0 125 157Q136 178 146 190.5Q156 203 171 210Q122 224 92 259.5Q62 295 62 365Q62 417 77.5 449Q93 481 120.5 499Q148 517 184.5 523.5Q221 530 263 530H535V0H399V200H351Q319 200 302 188Q285 176 270 146L198 0ZM269 422Q254 422 241 420Q228 418 218.5 412Q209 406 203 394.5Q197 383 197 365Q197 347 203 335.5Q209 324 218.5 318Q228 312 241 310Q254 308 269 308H399V422Z" glyph-name="afii10097" horiz-adv-x="606" unicode="&#1103;" /><glyph d="M450 407H207V0H71V530H317V690H450Z" glyph-name="afii10098" horiz-adv-x="470" unicode="&#1169;" /><glyph d="M402 337Q402 379 376.5 397.5Q351 416 309 416Q283 416 261 408Q239 400 221.5 387.5Q204 375 192.5 359Q181 343 176 328V0H40V607H-50V709H40V800H176V709H305V607H176V478Q204 507 247 525.5Q290 544 333 544Q379 544 417 532.5Q455 521 482 498Q509 475 523.5 440Q538 405 538 357V-2Q538 -43 530 -81Q522 -119 499.5 -148.5Q477 -178 437 -196Q397 -214 332 -214Q302 -214 278 -209Q254 -204 240 -198L253 -69Q263 -74 284 -81.5Q305 -89 330 -87Q348 -86 361.5 -82Q375 -78 384 -68Q393 -58 397.5 -40.5Q402 -23 402 5Z" glyph-name="afii10099" horiz-adv-x="590" unicode="&#1106;" /><glyph d="M450 530V408H207V0H71V530ZM437 800 326 592H191L285 800Z" glyph-name="afii10100" horiz-adv-x="470" unicode="&#1107;" /><glyph d="M182 224Q190 167 220 140.5Q250 114 298 113Q353 112 375 132Q397 152 404 187L543 169Q538 131 524 97.5Q510 64 482.5 39.5Q455 15 410 0.5Q365 -14 299 -14Q177 -14 109 57.5Q41 129 41 265Q41 401 109 472.5Q177 544 299 544Q365 544 410 529.5Q455 515 482.5 490.5Q510 466 524 432.5Q538 399 543 361L404 343Q397 378 375 398Q353 418 298 417Q251 415 221 390Q191 365 182 311H372V224Z" glyph-name="afii10101" horiz-adv-x="592" unicode="&#1108;" /><glyph d="M275 103Q297 103 316.5 106.5Q336 110 351 117Q366 124 374 135.5Q382 147 382 164Q382 181 374 189.5Q366 198 351 202.5Q336 207 314.5 208.5Q293 210 266 213Q227 216 188.5 221.5Q150 227 119 243Q88 259 68.5 288.5Q49 318 49 369Q49 419 70.5 452.5Q92 486 125 506.5Q158 527 198.5 535.5Q239 544 278 544Q392 544 447.5 503Q503 462 514 377L376 359Q371 391 349.5 409.5Q328 428 278 427Q262 427 247 424Q232 421 220 415Q208 409 201 398.5Q194 388 194 372Q194 358 202 350.5Q210 343 223.5 339Q237 335 257 333Q277 331 301 328Q341 324 380.5 319Q420 314 452 298.5Q484 283 504 252Q524 221 524 165Q524 114 502 80Q480 46 444.5 25Q409 4 364.5 -5Q320 -14 275 -14Q215 -14 171 -2Q127 10 98 32Q69 54 53.5 86.5Q38 119 33 159L172 177Q178 140 201 121Q224 102 275 103Z" glyph-name="afii10102" horiz-adv-x="555" unicode="&#1109;" /><glyph d="M223 617H73V767H223ZM80 530H216V0H80Z" glyph-name="afii10103" horiz-adv-x="296" unicode="&#1110;" /><glyph d="M96 530H232V0H96ZM348 617H198V767H348ZM130 617H-20V767H130Z" glyph-name="afii10104" horiz-adv-x="328" unicode="&#1111;" /><glyph d="M217 617H67V767H217ZM74 530H210V-2Q210 -43 202 -81Q194 -119 171.5 -148.5Q149 -178 109 -196Q69 -214 4 -214Q-26 -214 -50 -209Q-74 -204 -88 -198L-75 -69Q-65 -74 -44 -81.5Q-23 -89 2 -87Q20 -86 33.5 -82Q47 -78 56 -68Q65 -58 69.5 -40.5Q74 -23 74 5Z" glyph-name="afii10105" horiz-adv-x="290" unicode="&#1112;" /><glyph d="M558 335H694Q736 335 773 328.5Q810 322 837 304Q864 286 879.5 254Q895 222 895 170Q895 118 879.5 85Q864 52 837 33Q810 14 773 7Q736 0 694 0H422V407H300L273 254Q259 178 239.5 128.5Q220 79 193 50.5Q166 22 131.5 11Q97 0 52 0H31L30 122H37Q58 122 74 128Q90 134 102.5 153Q115 172 126 207Q137 242 147 300L187 530H558ZM688 113Q703 113 716 115Q729 117 738.5 123Q748 129 754 140.5Q760 152 760 170Q760 188 754 199.5Q748 211 738.5 217Q729 223 716 225Q703 227 688 227H558V113Z" glyph-name="afii10106" horiz-adv-x="925" unicode="&#1113;" /><glyph d="M197 530V335H419V530H555V335H691Q733 335 770 328.5Q807 322 834 304Q861 286 876.5 254Q892 222 892 170Q892 118 876.5 85Q861 52 834 33Q807 14 770 7Q733 0 691 0H419V212H197V0H61V530ZM685 113Q700 113 713 115Q726 117 735.5 123Q745 129 751 140.5Q757 152 757 170Q757 188 751 199.5Q745 211 735.5 217Q726 223 713 225Q700 227 685 227H555V113Z" glyph-name="afii10107" horiz-adv-x="922" unicode="&#1114;" /><glyph d="M176 800V709H305V607H176V478Q204 507 247 525.5Q290 544 333 544Q379 544 417 532.5Q455 521 482 498Q509 475 523.5 440Q538 405 538 357V0H402V337Q402 379 376.5 397.5Q351 416 309 416Q283 416 261 408Q239 400 221.5 387.5Q204 375 192.5 359Q181 343 176 328V0H40V607H-50V709H40V800Z" glyph-name="afii10108" horiz-adv-x="590" unicode="&#1115;" /><glyph d="M594 530 480 345Q466 322 449.5 303.5Q433 285 410 272Q434 260 452 240Q470 220 484 198L605 0H444L351 162Q334 192 313.5 204Q293 216 261 216H207V0H71V530H207V326H257Q289 326 309.5 338Q330 350 347 381L432 530ZM485 800 374 592H239L333 800Z" glyph-name="afii10109" horiz-adv-x="619" unicode="&#1116;" /><glyph d="M494 800Q494 749 484 709Q474 669 450.5 642Q427 615 388.5 600.5Q350 586 294 586Q238 586 200 600.5Q162 615 138.5 642Q115 669 105 709Q95 749 95 800H202Q202 749 223.5 728Q245 707 294 707Q343 707 365 728Q387 749 386 800ZM106 -89Q137 -89 158 -73.5Q179 -58 197 -17L220 36L9 530H158L249 300L295 179L341 300L432 530H581L343 -30Q322 -79 302 -113.5Q282 -148 257 -170.5Q232 -193 198.5 -203.5Q165 -214 117 -214Q80 -214 59.5 -210Q39 -206 22 -200L37 -75Q51 -80 65 -84.5Q79 -89 106 -89Z" glyph-name="afii10110" horiz-adv-x="590" unicode="&#1118;" /><glyph d="M75 0V780H215V130H543V780H683V0H448V-160H310V0Z" glyph-name="afii10145" horiz-adv-x="758" unicode="&#1039;" /><glyph d="M207 123H429V530H565V0H383V-160H253V0H71V530H207Z" glyph-name="afii10193" horiz-adv-x="636" unicode="&#1119;" /><glyph d="M293 764Q388 764 439.5 717Q491 670 491 575V178H395V560Q395 637 318 637H197V0H58V764ZM248 0V586H344V127H465Q542 127 542 204V764H681V189Q681 94 629.5 47Q578 0 483 0Z" glyph-name="afii57636" horiz-adv-x="738" unicode="&#8362;" /><glyph d="M40 585Q40 687 92 740.5Q144 794 240 794Q293 794 328.5 782Q364 770 386.5 750Q409 730 420 704Q431 678 434 649L317 634Q312 657 296 672.5Q280 688 238 688Q197 687 174.5 663Q152 639 152 585Q152 531 174.5 507Q197 483 238 482Q280 482 296 497.5Q312 513 317 536L434 521Q431 492 420 466Q409 440 386.5 420Q364 400 328.5 388Q293 376 240 376Q144 376 92 429.5Q40 483 40 585ZM336 0H195L726 780H868ZM815 -14Q722 -14 669.5 39.5Q617 93 617 195Q617 297 669.5 350.5Q722 404 815 404Q908 404 960.5 350.5Q1013 297 1013 195Q1013 93 960.5 39.5Q908 -14 815 -14ZM815 297Q776 297 752 274Q728 251 728 195Q728 139 752 116Q776 93 815 93Q854 93 878 116Q902 139 902 195Q902 251 878 274Q854 297 815 297Z" glyph-name="afii61248" horiz-adv-x="1053" unicode="&#8453;" /><glyph d="M254 -14Q166 -14 114.5 23.5Q63 61 63 131V164L17 134V257Q27 264 38.5 272Q50 280 63 291V524Q62 582 73 629Q84 676 106 709Q128 742 159.5 760Q191 778 231 778Q302 778 334.5 736Q367 694 367 619Q367 559 351.5 506.5Q336 454 312 409.5Q288 365 258 327.5Q228 290 199 260V179Q199 140 212 126Q225 112 259 111Q285 111 305 117.5Q325 124 334 129L348 1Q334 -4 309 -9Q284 -14 254 -14ZM199 436Q221 468 239.5 517Q258 566 258 622Q258 639 253 649.5Q248 660 234 660Q219 660 209 633Q199 606 199 539Z" glyph-name="afii61289" horiz-adv-x="401" unicode="&#8467;" /><glyph d="M291 386 214 506 216 319V0H76V764H205L463 378L540 258L538 445V764H678V0H549ZM1036 220Q916 220 846 290.5Q776 361 776 499Q776 637 846 707.5Q916 778 1036 778Q1156 778 1226 707.5Q1296 637 1296 499Q1296 361 1226 290.5Q1156 220 1036 220ZM1036 651Q980 651 948 616.5Q916 582 916 499Q916 416 948 381.5Q980 347 1036 347Q1092 347 1124 381.5Q1156 416 1156 499Q1156 582 1124 616.5Q1092 651 1036 651ZM1111 0H961V150H1111Z" glyph-name="afii61352" horiz-adv-x="1337" unicode="&#8470;" /><glyph d="M44 151Q44 195 58 224.5Q72 254 97.5 273Q123 292 159 303Q195 314 240 320L402 343V354Q402 425 300 425Q246 426 225.5 407.5Q205 389 200 357L61 375Q67 411 80.5 441.5Q94 472 120.5 495Q147 518 189.5 531Q232 544 296 544Q410 544 474 495.5Q538 447 538 343V143L547 0H422L411 56Q380 21 336 3.5Q292 -14 239 -14Q186 -14 149 -1.5Q112 11 88.5 32.5Q65 54 54.5 84.5Q44 115 44 151ZM274 800 368 592H234L123 800ZM188 157Q188 131 206 117Q224 103 256 102Q285 101 309.5 109.5Q334 118 353 132Q372 146 384.5 163.5Q397 181 402 198V241L261 218Q220 211 204 197.5Q188 184 188 157Z" glyph-name="agrave" horiz-adv-x="600" unicode="&#224;" /><glyph d="M44 151Q44 195 58 224.5Q72 254 97.5 273Q123 292 159 303Q195 314 240 320L402 343V354Q402 425 300 425Q246 426 225.5 407.5Q205 389 200 357L61 375Q67 411 80.5 441.5Q94 472 120.5 495Q147 518 189.5 531Q232 544 296 544Q410 544 474 495.5Q538 447 538 343V143L547 0H422L411 56Q380 21 336 3.5Q292 -14 239 -14Q186 -14 149 -1.5Q112 11 88.5 32.5Q65 54 54.5 84.5Q44 115 44 151ZM142 760H450V635H142ZM188 157Q188 131 206 117Q224 103 256 102Q285 101 309.5 109.5Q334 118 353 132Q372 146 384.5 163.5Q397 181 402 198V241L261 218Q220 211 204 197.5Q188 184 188 157Z" glyph-name="amacron" horiz-adv-x="600" unicode="&#257;" /><glyph d="M687 -13Q655 12 624 37.5Q593 63 562 89Q471 -14 309 -14Q258 -14 209.5 -1.5Q161 11 123.5 39Q86 67 63 112Q40 157 40 223Q40 261 49.5 293.5Q59 326 75 352.5Q91 379 112.5 399.5Q134 420 159 435Q146 448 132.5 464Q119 480 108.5 500Q98 520 91.5 544.5Q85 569 85 599Q85 693 141.5 743Q198 793 304 793Q358 793 398 778Q438 763 465 737Q492 711 505 676.5Q518 642 518 603Q518 549 491 509Q464 469 426 441Q415 433 403.5 425.5Q392 418 380 412Q397 397 412 384Q427 371 442.5 358Q458 345 476 330.5Q494 316 516 299Q527 334 527 381Q527 405 524.5 429.5Q522 454 517 474L654 485Q659 465 662 439.5Q665 414 666 391Q666 346 658.5 298Q651 250 631 206L687 158ZM309 111Q360 111 395 127.5Q430 144 456 175Q411 210 359.5 253.5Q308 297 251 346Q216 322 197 294Q178 266 178 223Q178 185 193 162.5Q208 140 229 128.5Q250 117 272.5 114Q295 111 309 111ZM382 600Q382 632 362 648.5Q342 665 304 665Q222 665 222 600Q222 566 241 542.5Q260 519 281 499L307 512Q336 527 359 548.5Q382 570 382 600Z" glyph-name="ampersand" horiz-adv-x="733" unicode="&amp;" /><glyph d="M547 0Q509 -9 482.5 -32Q456 -55 456 -82Q456 -95 465 -105.5Q474 -116 498 -116Q517 -116 531 -110Q545 -104 554 -99L583 -189Q567 -199 541 -206.5Q515 -214 476 -214Q421 -214 384.5 -188Q348 -162 348 -110Q348 -89 354.5 -70.5Q361 -52 371.5 -35.5Q382 -19 394.5 -6.5Q407 6 419 15L409 64Q368 21 330 3.5Q292 -14 239 -14Q186 -14 149 -1.5Q112 11 88.5 32.5Q65 54 54.5 84.5Q44 115 44 151Q44 195 58 224.5Q72 254 97.5 273Q123 292 159 303Q195 314 240 320L402 343V354Q402 425 300 425Q246 426 225.5 407.5Q205 389 200 357L61 375Q67 411 80.5 441.5Q94 472 120.5 495Q147 518 189.5 531Q232 544 296 544Q410 544 474 495.5Q538 447 538 343V143ZM188 157Q188 131 206 117Q224 103 256 102Q285 101 309.5 109.5Q334 118 353 132Q372 146 384.5 163.5Q397 181 402 198V241L261 218Q220 211 204 197.5Q188 184 188 157Z" glyph-name="aogonek" horiz-adv-x="600" unicode="&#261;" /><glyph d="M481 388Q433 388 400.5 397Q368 406 340 417.5Q312 429 283 438Q254 447 215 447Q193 447 173 439.5Q153 432 139 422Q122 411 108 397L51 495Q69 518 95 536Q117 551 148 563.5Q179 576 220 576Q268 576 300.5 567Q333 558 361 546.5Q389 535 418 526Q447 517 486 517Q509 517 528.5 524.5Q548 532 562 542Q579 553 593 567L650 469Q632 447 606 429Q584 414 553 401Q522 388 481 388ZM220 397Q268 397 300.5 388Q333 379 361 367.5Q389 356 418 347Q447 338 486 338Q509 338 528.5 345.5Q548 353 562 363Q579 374 593 388L650 290Q632 268 606 250Q584 235 553 222Q522 209 481 209Q433 209 400.5 218Q368 227 340 238.5Q312 250 283 259Q254 268 215 268Q193 268 173 260.5Q153 253 139 243Q122 232 108 218L51 316Q69 339 95 357Q117 372 148 384.5Q179 397 220 397Z" glyph-name="approxequal" horiz-adv-x="700" unicode="&#8776;" /><glyph d="M178 696Q178 747 209 780.5Q240 814 296 814Q352 814 383 780.5Q414 747 414 696Q414 645 383 611.5Q352 578 296 578Q240 578 209 611.5Q178 645 178 696ZM261 696Q261 661 296 661Q331 661 331 696Q331 731 296 731Q261 731 261 696ZM44 151Q44 195 58 224.5Q72 254 97.5 273Q123 292 159 303Q195 314 240 320L402 343V354Q402 425 300 425Q246 426 225.5 407.5Q205 389 200 357L61 375Q67 411 80.5 441.5Q94 472 120.5 495Q147 518 189.5 531Q232 544 296 544Q410 544 474 495.5Q538 447 538 343V143L547 0H422L411 56Q380 21 336 3.5Q292 -14 239 -14Q186 -14 149 -1.5Q112 11 88.5 32.5Q65 54 54.5 84.5Q44 115 44 151ZM188 157Q188 131 206 117Q224 103 256 102Q285 101 309.5 109.5Q334 118 353 132Q372 146 384.5 163.5Q397 181 402 198V241L261 218Q220 211 204 197.5Q188 184 188 157Z" glyph-name="aring" horiz-adv-x="600" unicode="&#229;" /><glyph d="M261 696Q261 661 296 661Q331 661 331 696Q331 731 296 731Q261 731 261 696ZM371 904 319 812Q362 807 388 775Q414 743 414 696Q414 645 383.5 611.5Q353 578 296 578Q240 578 209 611.5Q178 645 178 696Q178 724 188 748L250 904ZM44 151Q44 195 58 224.5Q72 254 97.5 273Q123 292 159 303Q195 314 240 320L402 343V354Q402 425 300 425Q246 426 225.5 407.5Q205 389 200 357L61 375Q67 411 80.5 441.5Q94 472 120.5 495Q147 518 189.5 531Q232 544 296 544Q410 544 474 495.5Q538 447 538 343V143L547 0H422L411 56Q380 21 336 3.5Q292 -14 239 -14Q186 -14 149 -1.5Q112 11 88.5 32.5Q65 54 54.5 84.5Q44 115 44 151ZM188 157Q188 131 206 117Q224 103 256 102Q285 101 309.5 109.5Q334 118 353 132Q372 146 384.5 163.5Q397 181 402 198V241L261 218Q220 211 204 197.5Q188 184 188 157Z" glyph-name="aringacute" horiz-adv-x="600" unicode="&#507;" /><glyph d="M120 423H275L373 246L370 444V780H502V444L499 246L597 423H752L483 -14H389Z" glyph-name="arrowdown" horiz-adv-x="876" unicode="&#8595;" /><glyph d="M34 437 471 706V551L294 453L492 456H828V324H492L294 327L471 229V74L34 343Z" glyph-name="arrowleft" horiz-adv-x="876" unicode="&#8592;" /><glyph d="M842 343 405 74V229L582 327L384 324H48V456H384L582 453L405 551V706L842 437Z" glyph-name="arrowright" horiz-adv-x="876" unicode="&#8594;" /><glyph d="M483 794 752 357H597L499 534L502 336V0H370V336L373 534L275 357H120L389 794Z" glyph-name="arrowup" horiz-adv-x="876" unicode="&#8593;" /><glyph d="M274 637 234 546 164 390H18L210 794H338L530 390H384L314 546Z" glyph-name="asciicircum" horiz-adv-x="548" unicode="^" /><glyph d="M420 274Q412 285 401 294Q391 302 377.5 307.5Q364 313 346 313Q325 313 308.5 300.5Q292 288 273 273Q254 258 229 245.5Q204 233 165 233Q129 233 103 245.5Q77 258 60 274Q41 292 28 315L78 395Q86 385 97 376Q107 368 120.5 362Q134 356 152 356Q173 356 189.5 368.5Q206 381 225 396Q244 411 269 423.5Q294 436 333 436Q370 436 395.5 423.5Q421 411 438 395Q457 377 470 354Z" glyph-name="asciitilde" horiz-adv-x="499" unicode="~" /><glyph d="M202 693 282 727 311 638 226 618 283 552 207 497 163 572 119 497 43 552 100 618 15 638 44 727 124 693 116 780H210Z" glyph-name="asterisk" horiz-adv-x="326" unicode="*" /><glyph d="M650 529H775L766 395V184Q803 185 826.5 199.5Q850 214 864 240.5Q878 267 883.5 304.5Q889 342 889 388Q889 454 869 506.5Q849 559 806.5 596.5Q764 634 698 654Q632 674 540 674Q456 674 389 650.5Q322 627 275 580Q228 533 203 461Q178 389 178 293Q178 197 203 125Q228 53 276 6Q324 -41 393 -64.5Q462 -88 550 -88Q612 -88 658 -79.5Q704 -71 734.5 -57.5Q765 -44 782 -27.5Q799 -11 803 5L946 -12Q939 -52 913 -88.5Q887 -125 838 -153Q789 -181 714.5 -197.5Q640 -214 536 -214Q418 -214 326.5 -179Q235 -144 172 -78Q109 -12 76.5 82Q44 176 44 293Q44 410 78.5 504Q113 598 177.5 664Q242 730 333.5 765Q425 800 540 800Q660 800 750 769Q840 738 900 683Q960 628 990 552.5Q1020 477 1020 388Q1020 307 1004 245.5Q988 184 953.5 142.5Q919 101 864.5 80Q810 59 733 59H650L639 108Q627 86 592 65Q557 44 504 44Q459 44 417.5 58.5Q376 73 345 103.5Q314 134 295.5 181.5Q277 229 277 294Q277 359 295.5 406.5Q314 454 345 484.5Q376 515 417.5 529.5Q459 544 504 544Q557 544 592 523Q627 502 639 480ZM630 330Q627 346 618 361Q609 376 595 388Q581 400 562 407.5Q543 415 519 415Q470 415 441 388.5Q412 362 412 294Q412 226 441 199.5Q470 173 519 173Q543 173 562 180.5Q581 188 595 200Q609 212 618 227Q627 242 630 258Z" glyph-name="at" horiz-adv-x="1065" unicode="@" /><glyph d="M44 151Q44 195 58 224.5Q72 254 97.5 273Q123 292 159 303Q195 314 240 320L402 343V354Q402 425 300 425Q246 426 225.5 407.5Q205 389 200 357L61 375Q67 411 80.5 441.5Q94 472 120.5 495Q147 518 189.5 531Q232 544 296 544Q410 544 474 495.5Q538 447 538 343V143L547 0H422L411 56Q380 21 336 3.5Q292 -14 239 -14Q186 -14 149 -1.5Q112 11 88.5 32.5Q65 54 54.5 84.5Q44 115 44 151ZM188 157Q188 131 206 117Q224 103 256 102Q285 101 309.5 109.5Q334 118 353 132Q372 146 384.5 163.5Q397 181 402 198V241L261 218Q220 211 204 197.5Q188 184 188 157ZM542 772Q535 684 494.5 638.5Q454 593 376 595Q340 596 316.5 607.5Q293 619 275.5 633Q258 647 244 659Q230 671 212 671Q196 672 185.5 666Q175 660 169.5 650.5Q164 641 161.5 629.5Q159 618 158 607L49 620Q56 708 96.5 753.5Q137 799 215 797Q251 796 274.5 784.5Q298 773 315.5 759Q333 745 347 733Q361 721 379 721Q396 720 406 726Q416 732 421.5 741.5Q427 751 429.5 763Q432 775 433 785Z" glyph-name="atilde" horiz-adv-x="600" unicode="&#227;" /><glyph d="M450 265Q450 342 415 379Q380 416 327 416Q301 416 279 408.5Q257 401 241 388Q225 375 214.5 359.5Q204 344 200 327V203Q204 187 214.5 171Q225 155 241 142Q257 129 279 121.5Q301 114 327 114Q380 114 415 151Q450 188 450 265ZM355 544Q468 544 530 472.5Q592 401 592 265Q592 129 530 57.5Q468 -14 355 -14Q298 -14 257.5 8Q217 30 191 68L180 0H55L64 143V800H200V473Q228 510 267.5 527Q307 544 355 544Z" glyph-name="b" horiz-adv-x="633" unicode="b" /><glyph d="M11 870H151L380 -90H240Z" glyph-name="backslash" horiz-adv-x="391" unicode="\" /><glyph d="M222 -130H82V830H222Z" glyph-name="bar" horiz-adv-x="304" unicode="|" /><glyph d="M30 414Q59 414 74.5 427.5Q90 441 90 480V649Q90 681 97.5 714Q105 747 125.5 774Q146 801 183 818Q220 835 279 835H312V705H290Q262 705 244 691.5Q226 678 226 640V479Q226 443 213 408Q200 373 169 350Q200 327 213 292Q226 257 226 222V60Q226 22 244 8.5Q262 -5 290 -5H312V-135H279Q220 -135 183 -118Q146 -101 125.5 -74Q105 -47 97.5 -14Q90 19 90 51V221Q90 259 74.5 273Q59 287 30 287H9V414Z" glyph-name="braceleft" horiz-adv-x="322" unicode="{" /><glyph d="M292 286Q264 286 248 272.5Q232 259 232 220V51Q232 19 224.5 -14Q217 -47 196.5 -74Q176 -101 139.5 -118Q103 -135 44 -135H11V-5H32Q61 -5 78.5 8.5Q96 22 96 60V221Q96 257 108.5 292Q121 327 153 350Q121 373 108.5 407.5Q96 442 96 478V640Q96 678 78.5 691.5Q61 705 32 705H11V835H44Q103 835 139.5 818Q176 801 196.5 774Q217 747 224.5 714Q232 681 232 649V479Q232 441 248 427Q264 413 292 413H314V286Z" glyph-name="braceright" horiz-adv-x="322" unicode="}" /><glyph d="M221 0H276V-130H81V830H276V700H221Z" glyph-name="bracketleft" horiz-adv-x="292" unicode="[" /><glyph d="M71 700H16V830H211V-130H16V0H71Z" glyph-name="bracketright" horiz-adv-x="292" unicode="]" /><glyph d="M500 800Q501 749 491 709Q481 669 457.5 642Q434 615 395.5 600.5Q357 586 301 586Q245 586 206.5 600.5Q168 615 144.5 642Q121 669 111 709Q101 749 102 800H209Q208 749 230 728Q252 707 301 707Q350 707 372 728Q394 749 393 800Z" glyph-name="breve" horiz-adv-x="600" unicode="&#728;" /><glyph d="M222 -130H82V302H222ZM222 398H82V830H222Z" glyph-name="brokenbar" horiz-adv-x="304" unicode="&#166;" /><glyph d="M366 180H56V490H366Z" glyph-name="bullet" horiz-adv-x="422" unicode="&#8226;" /><glyph d="M179 265Q179 187 210.5 151Q242 115 298 113Q353 112 375 132Q397 152 404 187L543 169Q538 131 524 97.5Q510 64 482.5 39.5Q455 15 410 0.5Q365 -14 299 -14Q177 -14 109 57.5Q41 129 41 265Q41 401 109 472.5Q177 544 299 544Q365 544 410 529.5Q455 515 482.5 490.5Q510 466 524 432.5Q538 399 543 361L404 343Q397 378 375 398Q353 418 298 417Q242 415 210.5 379Q179 343 179 265Z" glyph-name="c" horiz-adv-x="576" unicode="c" /><glyph d="M179 265Q179 187 210.5 151Q242 115 298 113Q353 112 375 132Q397 152 404 187L543 169Q538 131 524 97.5Q510 64 482.5 39.5Q455 15 410 0.5Q365 -14 299 -14Q177 -14 109 57.5Q41 129 41 265Q41 401 109 472.5Q177 544 299 544Q365 544 410 529.5Q455 515 482.5 490.5Q510 466 524 432.5Q538 399 543 361L404 343Q397 378 375 398Q353 418 298 417Q242 415 210.5 379Q179 343 179 265ZM475 800 364 592H230L324 800Z" glyph-name="cacute" horiz-adv-x="576" unicode="&#263;" /><glyph d="M361 592H239L84 800H222L300 706L378 800H516Z" glyph-name="caron" horiz-adv-x="600" unicode="&#711;" /><glyph d="M179 265Q179 187 210.5 151Q242 115 298 113Q353 112 375 132Q397 152 404 187L543 169Q538 131 524 97.5Q510 64 482.5 39.5Q455 15 410 0.5Q365 -14 299 -14Q177 -14 109 57.5Q41 129 41 265Q41 401 109 472.5Q177 544 299 544Q365 544 410 529.5Q455 515 482.5 490.5Q510 466 524 432.5Q538 399 543 361L404 343Q397 378 375 398Q353 418 298 417Q242 415 210.5 379Q179 343 179 265ZM360 592H238L83 800H221L299 706L377 800H515Z" glyph-name="ccaron" horiz-adv-x="576" unicode="&#269;" /><glyph d="M179 265Q179 187 210.5 151Q242 115 298 113Q353 112 375 132Q397 152 404 187L543 169Q539 135 527 104Q515 73 492 48.5Q469 24 432.5 8Q396 -8 343 -12L337 -34Q354 -38 370 -45Q386 -52 398.5 -62.5Q411 -73 419 -87.5Q427 -102 427 -121Q427 -145 416.5 -162Q406 -179 387 -190.5Q368 -202 343 -207.5Q318 -213 288 -213Q246 -213 217.5 -205.5Q189 -198 178 -193L199 -129Q206 -132 215 -136Q231 -142 251 -144Q260 -144 269 -143.5Q278 -143 286 -140Q294 -137 299 -132Q304 -127 304 -118Q304 -100 280.5 -89.5Q257 -79 221 -75L243 -10Q146 5 93.5 75Q41 145 41 265Q41 401 109 472.5Q177 544 299 544Q365 544 410 529.5Q455 515 482.5 490.5Q510 466 524 432.5Q538 399 543 361L404 343Q397 378 375 398Q353 418 298 417Q242 415 210.5 379Q179 343 179 265Z" glyph-name="ccedilla" horiz-adv-x="576" unicode="&#231;" /><glyph d="M179 265Q179 187 210.5 151Q242 115 298 113Q353 112 375 132Q397 152 404 187L543 169Q538 131 524 97.5Q510 64 482.5 39.5Q455 15 410 0.5Q365 -14 299 -14Q177 -14 109 57.5Q41 129 41 265Q41 401 109 472.5Q177 544 299 544Q365 544 410 529.5Q455 515 482.5 490.5Q510 466 524 432.5Q538 399 543 361L404 343Q397 378 375 398Q353 418 298 417Q242 415 210.5 379Q179 343 179 265ZM238 800H360L515 592H377L299 686L221 592H83Z" glyph-name="ccircumflex" horiz-adv-x="576" unicode="&#265;" /><glyph d="M179 265Q179 187 210.5 151Q242 115 298 113Q353 112 375 132Q397 152 404 187L543 169Q538 131 524 97.5Q510 64 482.5 39.5Q455 15 410 0.5Q365 -14 299 -14Q177 -14 109 57.5Q41 129 41 265Q41 401 109 472.5Q177 544 299 544Q365 544 410 529.5Q455 515 482.5 490.5Q510 466 524 432.5Q538 399 543 361L404 343Q397 378 375 398Q353 418 298 417Q242 415 210.5 379Q179 343 179 265ZM374 617H224V767H374Z" glyph-name="cdotaccent" horiz-adv-x="576" unicode="&#267;" /><glyph d="M352 11 339 -35Q356 -39 372 -46Q388 -53 400.5 -63.5Q413 -74 421 -88.5Q429 -103 429 -122Q429 -146 418.5 -163Q408 -180 389 -191.5Q370 -203 345 -208.5Q320 -214 290 -214Q248 -214 219.5 -206.5Q191 -199 180 -194L201 -130Q208 -133 217 -137Q233 -143 253 -145Q270 -147 288 -142Q306 -137 306 -119Q306 -101 282.5 -90.5Q259 -80 223 -76L253 11Z" glyph-name="cedilla" horiz-adv-x="600" unicode="&#184;" /><glyph d="M543 284Q538 246 524 212.5Q510 179 482.5 154.5Q455 130 410 115.5Q365 101 299 101H282L258 0H136L167 130Q106 161 73.5 223.5Q41 286 41 380Q41 514 107 585.5Q173 657 293 659L318 764H440L411 644Q445 634 468.5 616.5Q492 599 507 577.5Q522 556 530.5 530Q539 504 543 476L404 458Q397 493 375 513Q353 533 298 532Q242 530 210.5 494Q179 458 179 380Q179 302 210.5 266Q242 230 298 228Q353 227 375 247Q397 267 404 302Z" glyph-name="cent" horiz-adv-x="573" unicode="&#162;" /><glyph d="M239 800H361L516 592H378L300 686L222 592H84Z" glyph-name="circumflex" horiz-adv-x="600" unicode="&#710;" /><glyph d="M349 0Q368 38 381.5 73.5Q395 109 404.5 147Q414 185 420.5 227Q427 269 431 320L428 321Q415 290 396 261Q377 232 352 209.5Q327 187 296 173.5Q265 160 228 160Q191 160 159 173.5Q127 187 103 210.5Q79 234 65.5 265.5Q52 297 52 334Q52 373 64.5 406Q77 439 100 463Q123 487 155 500.5Q187 514 226 514Q252 514 272.5 507Q293 500 310 491L312 493Q295 518 284.5 547.5Q274 577 274 610Q274 647 287.5 680Q301 713 324.5 737.5Q348 762 380 776Q412 790 450 790Q488 790 520 776Q552 762 575.5 737.5Q599 713 612.5 680Q626 647 626 610Q626 577 615.5 547.5Q605 518 588 493L590 491Q607 500 627.5 507Q648 514 674 514Q713 514 745 500.5Q777 487 800 463Q823 439 835.5 406Q848 373 848 334Q848 297 834.5 265.5Q821 234 797 210.5Q773 187 741 173.5Q709 160 672 160Q635 160 604 173.5Q573 187 548 209.5Q523 232 504 261Q485 290 472 321L469 320Q473 269 479.5 227Q486 185 495.5 147Q505 109 518.5 73.5Q532 38 551 0H349Z" glyph-name="club" horiz-adv-x="900" unicode="&#9827;" /><glyph d="M202 0H52V150H202ZM202 332H52V482H202Z" glyph-name="colon" horiz-adv-x="254" unicode=":" /><glyph d="M186 -46 213 22Q205 26 198.5 30Q192 34 185 39L152 -46H67L124 98Q84 150 65.5 222Q47 294 47 382Q47 471 66.5 544Q86 617 126.5 669Q167 721 229.5 749.5Q292 778 379 778H392L405 810H490L474 769Q482 767 489.5 765.5Q497 764 505 762L524 810H609L578 731Q629 700 655.5 651.5Q682 603 686 540L533 522Q530 555 517 578L338 124Q354 120 379 120Q456 120 491.5 152.5Q527 185 533 242L686 224Q683 170 662.5 126Q642 82 603.5 51Q565 20 509 3Q453 -14 379 -14Q327 -14 287 -4L271 -46ZM199 382Q199 360 200 340Q201 320 204 301L338 640Q300 633 273.5 611Q247 589 230.5 556Q214 523 206.5 479Q199 435 199 382ZM243 185Q248 177 254 170.5Q260 164 266 158L454 632Q446 635 438.5 636.5Q431 638 423 640Z" glyph-name="colonmonetary" horiz-adv-x="726" unicode="&#8353;" /><glyph d="M210 149 120 -127H19L52 149Z" glyph-name="comma" horiz-adv-x="254" unicode="," /><glyph d="M46 390Q46 474 78 547.5Q110 621 164.5 675.5Q219 730 292.5 762Q366 794 450 794Q534 794 607.5 762Q681 730 735.5 675.5Q790 621 822 547.5Q854 474 854 390Q854 306 822 232.5Q790 159 735.5 104.5Q681 50 607.5 18Q534 -14 450 -14Q366 -14 292.5 18Q219 50 164.5 104.5Q110 159 78 232.5Q46 306 46 390ZM337 390Q337 461 366.5 494Q396 527 450 529Q476 530 493 525Q510 520 521.5 510Q533 500 540 486Q547 472 551 454L690 472Q684 511 670 545Q656 579 628.5 604.5Q601 630 557.5 645Q514 660 450 660Q331 660 264.5 591Q198 522 198 390Q198 258 264.5 189Q331 120 450 120Q514 120 557.5 135Q601 150 628.5 175.5Q656 201 670 235Q684 269 690 308L551 326Q547 308 540 294Q533 280 521.5 270Q510 260 493 255Q476 250 450 251Q396 253 366.5 286Q337 319 337 390Z" glyph-name="copyright" horiz-adv-x="900" unicode="&#169;" /><glyph d="M388 214Q422 214 451.5 223Q481 232 503 252.5Q525 273 538 305Q551 337 551 382Q551 427 538 459Q525 491 503 511.5Q481 532 451.5 541Q422 550 388 550Q354 550 324.5 541Q295 532 273 511.5Q251 491 238 459Q225 427 225 382Q225 337 238 305Q251 273 273 252.5Q295 232 324.5 223Q354 214 388 214ZM125 219Q85 287 85 382Q85 434 96.5 476.5Q108 519 129 552L26 654L121 749L229 642Q262 660 302.5 669Q343 678 388 678Q433 678 473 669Q513 660 547 641L655 749L750 654L647 552Q668 519 679.5 476.5Q691 434 691 382Q691 332 680.5 291.5Q670 251 651 219L757 114L662 19L555 126Q485 86 388 86Q291 86 221 126L114 19L19 114Z" glyph-name="currency" horiz-adv-x="776" unicode="&#164;" /><glyph d="M183 265Q183 188 218 151Q253 114 306 114Q332 114 354 121.5Q376 129 392 142Q408 155 418.5 171Q429 187 433 203V327Q429 344 418.5 359.5Q408 375 392 388Q376 401 354 408.5Q332 416 306 416Q253 416 218 379Q183 342 183 265ZM278 544Q326 544 365.5 527Q405 510 433 473V800H569V143L578 0H453L442 68Q416 30 375.5 8Q335 -14 278 -14Q165 -14 103 57.5Q41 129 41 265Q41 401 103 472.5Q165 544 278 544Z" glyph-name="d" horiz-adv-x="633" unicode="d" /><glyph d="M218 389H102L122 593L11 582V680L122 669L111 780H209L198 669L309 680V582L198 593Z" glyph-name="dagger" horiz-adv-x="319" unicode="&#8224;" /><glyph d="M218 229H102L122 433L11 422V520L122 509L118 551L122 593L11 582V680L122 669L111 780H209L198 669L309 680V582L198 593L202 551L198 509L309 520V422L198 433Z" glyph-name="daggerdbl" horiz-adv-x="320" unicode="&#8225;" /><glyph d="M433 800H569V143L578 0H453L442 58Q432 43 414.5 29.5Q397 16 376 6.5Q355 -3 331 -8.5Q307 -14 284 -14Q166 -14 103.5 57.5Q41 129 41 265Q41 401 103.5 472.5Q166 544 284 544Q329 544 369.5 526.5Q410 509 433 483ZM183 265Q183 188 218 151Q253 114 306 114Q332 114 354 121.5Q376 129 392 142Q408 155 418.5 171Q429 187 433 203V327Q429 344 418.5 359.5Q408 375 392 388Q376 401 354 408.5Q332 416 306 416Q253 416 218 379Q183 342 183 265ZM605 592 652 800H796L727 592Z" glyph-name="dcaron" horiz-adv-x="633" unicode="&#271;" /><glyph d="M433 800H569V709H660V607H569V143L578 0H453L442 58Q432 43 414.5 29.5Q397 16 376 6.5Q355 -3 331 -8.5Q307 -14 284 -14Q166 -14 103.5 57.5Q41 129 41 265Q41 401 103.5 472.5Q166 544 284 544Q329 544 369.5 526.5Q410 509 433 483V607H305V709H433ZM183 265Q183 188 218 151Q253 114 306 114Q332 114 354 121.5Q376 129 392 142Q408 155 418.5 171Q429 187 433 203V327Q429 344 418.5 359.5Q408 375 392 388Q376 401 354 408.5Q332 416 306 416Q253 416 218 379Q183 342 183 265Z" glyph-name="dcroat" horiz-adv-x="633" unicode="&#273;" /><glyph d="M50 594Q50 641 64.5 675.5Q79 710 105 732.5Q131 755 166.5 766.5Q202 778 244 778Q286 778 321.5 766.5Q357 755 383 732.5Q409 710 423.5 675.5Q438 641 438 594Q438 548 423.5 513Q409 478 383 455.5Q357 433 321.5 421.5Q286 410 244 410Q202 410 166.5 421.5Q131 433 105 455.5Q79 478 64.5 513Q50 548 50 594ZM160 594Q160 552 183 532.5Q206 513 244 513Q282 513 305 532.5Q328 552 328 594Q328 636 305 655.5Q282 675 244 675Q206 675 183 655.5Q160 636 160 594Z" glyph-name="degree" horiz-adv-x="488" unicode="&#176;" /><glyph d="M817 390Q764 348 712.5 300.5Q661 253 614 201.5Q567 150 525.5 96.5Q484 43 451 -10H449Q416 43 374.5 96.5Q333 150 286 201.5Q239 253 187.5 300.5Q136 348 83 390Q136 432 187.5 479.5Q239 527 286 578.5Q333 630 374.5 683.5Q416 737 449 790H451Q484 737 525.5 683.5Q567 630 614 578.5Q661 527 712.5 479.5Q764 432 817 390Z" glyph-name="diamond" horiz-adv-x="900" unicode="&#9830;" /><glyph d="M266 617H116V767H266ZM484 617H334V767H484Z" glyph-name="dieresis" horiz-adv-x="600" unicode="&#168;" /><glyph d="M80 323V457H620V323ZM425 510H275V660H425ZM425 120H275V270H425Z" glyph-name="divide" horiz-adv-x="700" unicode="&#247;" /><glyph d="M275 228Q317 228 347 238.5Q377 249 377 280Q377 309 347.5 316.5Q318 324 254 331Q221 335 185.5 342Q150 349 120.5 365Q91 381 72 410Q53 439 53 486Q53 534 74 567Q95 600 128 620.5Q161 641 202 650Q243 659 283 659L308 764H429L402 650Q447 642 473 629Q499 616 516 605L485 479Q444 502 395 519Q346 536 278 534Q264 534 249.5 531Q235 528 223.5 522.5Q212 517 204.5 508Q197 499 197 487Q197 464 223 457Q249 450 305 443Q341 439 378.5 432.5Q416 426 446 410Q476 394 495.5 364Q515 334 515 282Q515 232 494.5 197.5Q474 163 441 141.5Q408 120 366 110.5Q324 101 280 101H271L246 0H126L153 113Q109 123 81 135.5Q53 148 38 158L73 285Q113 263 160.5 245.5Q208 228 275 228Z" glyph-name="dollar" horiz-adv-x="557" unicode="$" /><glyph d="M375 617H225V767H375Z" glyph-name="dotaccent" horiz-adv-x="600" unicode="&#729;" /><glyph d="M375 -200H225V-50H375Z" glyph-name="dotbelowcomb" horiz-adv-x="600" unicode="&#803;" /><glyph d="M71 530H207V0H71Z" glyph-name="dotlessi" horiz-adv-x="278" unicode="&#305;" /><glyph d="M185 213Q188 156 221.5 130.5Q255 105 306 105Q359 104 382.5 122.5Q406 141 412 168L551 151Q546 118 531 88Q516 58 488 35.5Q460 13 416 -0.5Q372 -14 309 -14Q181 -14 111 57Q41 128 41 265Q41 402 110.5 473Q180 544 302 544Q426 544 490 472.5Q554 401 554 265V213ZM303 425Q253 425 222 400Q191 375 186 320H408Q404 425 303 425Z" glyph-name="e" horiz-adv-x="597" unicode="e" /><glyph d="M185 213Q188 156 221.5 130.5Q255 105 306 105Q359 104 382.5 122.5Q406 141 412 168L551 151Q546 118 531 88Q516 58 488 35.5Q460 13 416 -0.5Q372 -14 309 -14Q181 -14 111 57Q41 128 41 265Q41 402 110.5 473Q180 544 302 544Q426 544 490 472.5Q554 401 554 265V213ZM478 800 367 592H233L327 800ZM303 425Q253 425 222 400Q191 375 186 320H408Q404 425 303 425Z" glyph-name="eacute" horiz-adv-x="597" unicode="&#233;" /><glyph d="M185 213Q188 156 221.5 130.5Q255 105 306 105Q359 104 382.5 122.5Q406 141 412 168L551 151Q546 118 531 88Q516 58 488 35.5Q460 13 416 -0.5Q372 -14 309 -14Q181 -14 111 57Q41 128 41 265Q41 402 110.5 473Q180 544 302 544Q426 544 490 472.5Q554 401 554 265V213ZM303 425Q253 425 222 400Q191 375 186 320H408Q404 425 303 425ZM501 800Q502 749 492 709Q482 669 458.5 642Q435 615 396.5 600.5Q358 586 302 586Q246 586 207.5 600.5Q169 615 145.5 642Q122 669 112 709Q102 749 103 800H210Q209 749 231 728Q253 707 302 707Q351 707 373 728Q395 749 394 800Z" glyph-name="ebreve" horiz-adv-x="597" unicode="&#277;" /><glyph d="M185 213Q188 156 221.5 130.5Q255 105 306 105Q359 104 382.5 122.5Q406 141 412 168L551 151Q546 118 531 88Q516 58 488 35.5Q460 13 416 -0.5Q372 -14 309 -14Q181 -14 111 57Q41 128 41 265Q41 402 110.5 473Q180 544 302 544Q426 544 490 472.5Q554 401 554 265V213ZM303 425Q253 425 222 400Q191 375 186 320H408Q404 425 303 425ZM363 592H241L86 800H224L302 706L380 800H518Z" glyph-name="ecaron" horiz-adv-x="597" unicode="&#283;" /><glyph d="M185 213Q188 156 221.5 130.5Q255 105 306 105Q359 104 382.5 122.5Q406 141 412 168L551 151Q546 118 531 88Q516 58 488 35.5Q460 13 416 -0.5Q372 -14 309 -14Q181 -14 111 57Q41 128 41 265Q41 402 110.5 473Q180 544 302 544Q426 544 490 472.5Q554 401 554 265V213ZM303 425Q253 425 222 400Q191 375 186 320H408Q404 425 303 425ZM241 800H363L518 592H380L302 686L224 592H86Z" glyph-name="ecircumflex" horiz-adv-x="597" unicode="&#234;" /><glyph d="M185 213Q188 156 221.5 130.5Q255 105 306 105Q359 104 382.5 122.5Q406 141 412 168L551 151Q546 118 531 88Q516 58 488 35.5Q460 13 416 -0.5Q372 -14 309 -14Q181 -14 111 57Q41 128 41 265Q41 402 110.5 473Q180 544 302 544Q426 544 490 472.5Q554 401 554 265V213ZM486 617H336V767H486ZM268 617H118V767H268ZM303 425Q253 425 222 400Q191 375 186 320H408Q404 425 303 425Z" glyph-name="edieresis" horiz-adv-x="597" unicode="&#235;" /><glyph d="M185 213Q188 156 221.5 130.5Q255 105 306 105Q359 104 382.5 122.5Q406 141 412 168L551 151Q546 118 531 88Q516 58 488 35.5Q460 13 416 -0.5Q372 -14 309 -14Q181 -14 111 57Q41 128 41 265Q41 402 110.5 473Q180 544 302 544Q426 544 490 472.5Q554 401 554 265V213ZM377 617H227V767H377ZM303 425Q253 425 222 400Q191 375 186 320H408Q404 425 303 425Z" glyph-name="edotaccent" horiz-adv-x="597" unicode="&#279;" /><glyph d="M185 213Q188 156 221.5 130.5Q255 105 306 105Q359 104 382.5 122.5Q406 141 412 168L551 151Q546 118 531 88Q516 58 488 35.5Q460 13 416 -0.5Q372 -14 309 -14Q181 -14 111 57Q41 128 41 265Q41 402 110.5 473Q180 544 302 544Q426 544 490 472.5Q554 401 554 265V213ZM280 800 374 592H240L129 800ZM303 425Q253 425 222 400Q191 375 186 320H408Q404 425 303 425Z" glyph-name="egrave" horiz-adv-x="597" unicode="&#232;" /><glyph d="M350 451Q377 451 402.5 454.5Q428 458 447.5 469Q467 480 478.5 499.5Q490 519 490 552Q490 579 479 597.5Q468 616 449.5 627Q431 638 405.5 642.5Q380 647 350 647Q320 647 294.5 642.5Q269 638 250.5 627Q232 616 221 597.5Q210 579 210 552Q210 519 222 499.5Q234 480 253.5 469Q273 458 298 454.5Q323 451 350 451ZM350 116Q425 116 468 140Q511 164 511 219Q511 255 496.5 277.5Q482 300 459 312Q436 324 407.5 328.5Q379 333 350 333Q322 333 293 328.5Q264 324 241 312Q218 300 203.5 277.5Q189 255 189 219Q189 164 232 140Q275 116 350 116ZM350 -14Q197 -14 124 44Q51 102 51 210Q51 249 60 279.5Q69 310 84 333Q99 356 119 371.5Q139 387 160 396Q122 415 96.5 457.5Q71 500 71 561Q71 622 94 663.5Q117 705 155 730.5Q193 756 244 767Q295 778 350 778Q406 778 456.5 767Q507 756 545 730.5Q583 705 606 663.5Q629 622 629 561Q629 500 603.5 457.5Q578 415 540 396Q561 387 581 371.5Q601 356 616 333Q631 310 640 279.5Q649 249 649 210Q649 102 576 44Q503 -14 350 -14Z" glyph-name="eight" horiz-adv-x="700" unicode="8" /><glyph d="M255 0H105V150H255ZM585 0H435V150H585ZM915 0H765V150H915Z" glyph-name="ellipsis" horiz-adv-x="1020" unicode="&#8230;" /><glyph d="M185 213Q188 156 221.5 130.5Q255 105 306 105Q359 104 382.5 122.5Q406 141 412 168L551 151Q546 118 531 88Q516 58 488 35.5Q460 13 416 -0.5Q372 -14 309 -14Q181 -14 111 57Q41 128 41 265Q41 402 110.5 473Q180 544 302 544Q426 544 490 472.5Q554 401 554 265V213ZM148 760H456V635H148ZM303 425Q253 425 222 400Q191 375 186 320H408Q404 425 303 425Z" glyph-name="emacron" horiz-adv-x="597" unicode="&#275;" /><glyph d="M955 272H45V400H955Z" glyph-name="emdash" horiz-adv-x="1000" unicode="&#8212;" /><glyph d="M45 272V400H455V272Z" glyph-name="endash" horiz-adv-x="500" unicode="&#8211;" /><glyph d="M425 334Q425 376 399.5 396Q374 416 332 416Q306 416 283 407Q260 398 242.5 384.5Q225 371 213.5 354.5Q202 338 199 323V0H64V387L55 530H180L191 474Q217 506 260.5 525Q304 544 351 544Q397 544 435.5 532Q474 520 502 496.5Q530 473 545.5 437.5Q561 402 561 354V-2Q561 -43 553 -81Q545 -119 522.5 -148.5Q500 -178 460 -196Q420 -214 355 -214Q325 -214 301 -209Q277 -204 263 -198L276 -69Q286 -74 307 -81.5Q328 -89 353 -87Q371 -86 384.5 -82Q398 -78 407 -68Q416 -58 420.5 -40.5Q425 -23 425 5Z" glyph-name="eng" horiz-adv-x="614" unicode="&#331;" /><glyph d="M185 213Q188 156 221.5 130.5Q255 105 306 105Q359 104 382.5 122.5Q406 141 412 168L551 151Q547 126 537.5 102.5Q528 79 512 59Q496 39 472 23.5Q448 8 414 -1Q413 -1 413 -1.5Q413 -2 412 -2Q373 -13 348 -36Q323 -59 323 -82Q323 -95 330.5 -105.5Q338 -116 360 -116Q371 -116 381.5 -113Q392 -110 400 -106.5Q408 -103 413.5 -100Q419 -97 419 -97L448 -189Q432 -199 405 -206.5Q378 -214 344 -214Q284 -214 249.5 -182.5Q215 -151 215 -93Q215 -47 245 -9Q147 8 94 77.5Q41 147 41 265Q41 402 110.5 473Q180 544 302 544Q426 544 490 472.5Q554 401 554 265V213ZM303 425Q253 425 222 400Q191 375 186 320H408Q404 425 303 425Z" glyph-name="eogonek" horiz-adv-x="597" unicode="&#281;" /><glyph d="M80 208V342H620V208ZM80 438V572H620V438Z" glyph-name="equal" horiz-adv-x="700" unicode="=" /><glyph d="M80 120V254H620V120ZM80 526V660H620V526ZM80 323V457H620V323Z" glyph-name="equivalence" horiz-adv-x="700" unicode="&#8801;" /><glyph d="M778 260Q768 188 736.5 136.5Q705 85 656.5 51.5Q608 18 544 2Q480 -14 403 -14Q317 -14 245 14Q173 42 121.5 94Q70 146 41.5 220Q13 294 13 385Q13 477 41.5 550.5Q70 624 121.5 676Q173 728 245 756Q317 784 403 784Q489 784 561 756Q633 728 684.5 676Q736 624 764.5 550.5Q793 477 793 385V337H172Q176 282 188.5 235.5Q201 189 228 154.5Q255 120 297.5 100.5Q340 81 404 81Q626 81 662 260ZM404 689Q340 689 297.5 669.5Q255 650 228.5 615.5Q202 581 189 534.5Q176 488 173 433H633Q630 488 617 534.5Q604 581 577.5 615.5Q551 650 509 669.5Q467 689 404 689Z" glyph-name="estimated" horiz-adv-x="806" unicode="&#8494;" /><glyph d="M301 -13Q181 -13 111 57Q41 127 41 265Q41 402 110 472.5Q179 543 299 543Q320 543 342 538Q364 533 380 524Q368 556 351 582.5Q334 609 315 631L130 562V655L247 698Q199 735 150 759Q101 783 62 800H279Q299 789 322 775.5Q345 762 370 743L500 791V700L437 676Q462 646 484.5 606Q507 566 523.5 515Q540 464 550 402Q560 340 560 265Q560 127 490.5 57Q421 -13 301 -13ZM301 113Q356 113 389 148Q422 183 422 265Q422 306 413.5 335Q405 364 389 382Q373 400 350.5 408Q328 416 301 416Q245 416 212 382Q179 348 179 265Q179 183 212 148Q245 113 301 113Z" glyph-name="eth" horiz-adv-x="602" unicode="&#240;" /><glyph d="M222 780 193 229H91L62 780ZM217 0H67V150H217Z" glyph-name="exclam" horiz-adv-x="284" unicode="!" /><glyph d="M222 780 193 229H91L62 780ZM217 0H67V150H217ZM462 780 433 229H331L302 780ZM457 0H307V150H457Z" glyph-name="exclamdbl" horiz-adv-x="524" unicode="&#8252;" /><glyph d="M64 -200 91 301H193L220 -200ZM217 380H67V530H217Z" glyph-name="exclamdown" horiz-adv-x="285" unicode="&#161;" /><glyph d="M29 530H133V602Q133 643 141 681Q149 719 171.5 748.5Q194 778 234 796Q274 814 339 814Q369 814 393 809Q417 804 431 798L418 669Q408 674 387 681.5Q366 689 341 687Q323 686 309.5 682Q296 678 287 668Q278 658 273.5 640.5Q269 623 269 595V530H411V407H269V0H133V407H29Z" glyph-name="f" horiz-adv-x="437" unicode="f" /><glyph d="M45 272V400H655V272Z" glyph-name="figuredash" horiz-adv-x="700" unicode="&#8210;" /><glyph d="M878 0H98V780H878Z" glyph-name="filledbox" horiz-adv-x="976" unicode="&#9632;" /><glyph d="M87 360 127 764H601V634H249L235 491Q260 509 295 517Q330 525 365 525Q497 525 570 457.5Q643 390 643 254Q643 185 620 134.5Q597 84 557.5 51Q518 18 464.5 2Q411 -14 349 -14Q276 -14 222.5 1.5Q169 17 134 47Q99 77 80 121Q61 165 56 221L197 235Q205 165 241 139.5Q277 114 349 115Q379 115 407 123Q435 131 456.5 147.5Q478 164 491.5 190Q505 216 505 254Q506 329 469.5 365Q433 401 361 402Q311 403 269.5 387Q228 371 204 333Z" glyph-name="five" horiz-adv-x="700" unicode="5" /><glyph d="M61 545 84 764H363V662H174L169 622Q180 627 197 630Q214 633 230 633Q265 633 293.5 626Q322 619 342 603Q362 587 373 561Q384 535 384 497Q384 457 370.5 428.5Q357 400 334 382Q311 364 280 355.5Q249 347 214 347Q131 347 90.5 381.5Q50 416 45 485L154 494Q158 466 173 455.5Q188 445 215 446Q238 446 256 458.5Q274 471 275 499Q275 525 261.5 539.5Q248 554 218 554Q198 555 180.5 547.5Q163 540 154 525ZM361 0H220L740 764H882ZM890 246Q914 246 931 253Q948 260 948 282Q948 302 931 309.5Q914 317 890 317Q866 317 849 309.5Q832 302 832 282Q832 260 849 253Q866 246 890 246ZM890 85Q919 85 936.5 93.5Q954 102 954 123Q954 148 933.5 155.5Q913 163 890 163Q867 163 846.5 155.5Q826 148 826 123Q826 102 843.5 93.5Q861 85 890 85ZM890 -14Q717 -14 717 112Q717 151 731 173.5Q745 196 766 207Q749 219 738.5 240.5Q728 262 728 291Q728 327 741.5 351Q755 375 777.5 389.5Q800 404 829.5 410Q859 416 890 416Q922 416 951 410Q980 404 1002.5 389.5Q1025 375 1038.5 351Q1052 327 1052 291Q1052 262 1041.5 240.5Q1031 219 1014 207Q1035 196 1049 173.5Q1063 151 1063 112Q1063 -14 890 -14Z" glyph-name="fiveeighths" horiz-adv-x="1108" unicode="&#8541;" /><glyph d="M29 332V455H133V566Q133 607 141 645Q149 683 171.5 712.5Q194 742 234 760Q274 778 339 778Q369 778 393 773Q417 768 431 762L418 633Q408 638 387 645.5Q366 653 341 651Q323 650 309.5 646Q296 642 287 632Q278 622 273.5 604.5Q269 587 269 559V455H411V332H269V-2Q269 -43 261 -81Q253 -119 230.5 -148.5Q208 -178 168 -196Q128 -214 63 -214Q33 -214 9 -209Q-15 -204 -29 -198L-16 -69Q-6 -74 15 -81.5Q36 -89 61 -87Q79 -86 92.5 -82Q106 -78 115 -68Q124 -58 128.5 -40.5Q133 -23 133 5V332Z" glyph-name="florin" horiz-adv-x="447" unicode="&#402;" /><glyph d="M517 168V0H381V168H45V261L400 778H517V297H652V168ZM381 547 214 297H381Z" glyph-name="four" horiz-adv-x="700" unicode="4" /><glyph d="M-68 0H-209L311 764H453Z" glyph-name="fraction" horiz-adv-x="243" unicode="&#8260;" /><glyph d="M296 269V0H146V269H41V368H146V407H41V505H146V764H614V629H296V505H530V407H296V368H530V269Z" glyph-name="franc" horiz-adv-x="631" unicode="&#8355;" /><glyph d="M183 279Q183 241 192.5 214.5Q202 188 218.5 172Q235 156 257.5 149Q280 142 306 142Q332 142 354 149.5Q376 157 392 170Q408 183 418.5 199Q429 215 433 231V327Q429 344 418.5 359.5Q408 375 392 388Q376 401 354 408.5Q332 416 306 416Q280 416 257.5 409Q235 402 218.5 386Q202 370 192.5 343.5Q183 317 183 279ZM433 84Q408 55 368.5 34.5Q329 14 270 14Q220 14 178 30Q136 46 105.5 79Q75 112 58 162Q41 212 41 279Q41 347 58 396.5Q75 446 105.5 479Q136 512 178 528Q220 544 270 544Q335 544 376.5 520Q418 496 442 462L453 530H578L569 387V-8Q569 -61 550 -99.5Q531 -138 496.5 -163.5Q462 -189 414 -201.5Q366 -214 309 -214Q182 -214 122.5 -170.5Q63 -127 56 -47L197 -27Q201 -59 225.5 -76.5Q250 -94 306 -92Q364 -91 397 -72Q430 -53 433 -10Z" glyph-name="g" horiz-adv-x="633" unicode="g" /><glyph d="M433 75Q410 49 369.5 31.5Q329 14 284 14Q166 14 103.5 78.5Q41 143 41 279Q41 415 103.5 479.5Q166 544 284 544Q334 544 377.5 523.5Q421 503 442 472L453 530H578L569 387V-8Q569 -61 550 -99.5Q531 -138 496.5 -163.5Q462 -189 414 -201.5Q366 -214 309 -214Q182 -214 122.5 -170.5Q63 -127 56 -47L197 -27Q201 -59 225.5 -76.5Q250 -94 306 -92Q364 -91 398.5 -72Q433 -53 433 -10ZM183 279Q183 241 192.5 214.5Q202 188 218.5 172Q235 156 257.5 149Q280 142 306 142Q332 142 354 149.5Q376 157 392 170Q408 183 418.5 199Q429 215 433 231V327Q429 344 418.5 359.5Q408 375 392 388Q376 401 354 408.5Q332 416 306 416Q280 416 257.5 409Q235 402 218.5 386Q202 370 192.5 343.5Q183 317 183 279ZM505 800Q506 749 496 709Q486 669 462.5 642Q439 615 400.5 600.5Q362 586 306 586Q250 586 211.5 600.5Q173 615 149.5 642Q126 669 116 709Q106 749 107 800H214Q213 749 235 728Q257 707 306 707Q355 707 377 728Q399 749 398 800Z" glyph-name="gbreve" horiz-adv-x="633" unicode="&#287;" /><glyph d="M433 75Q410 49 369.5 31.5Q329 14 284 14Q166 14 103.5 78.5Q41 143 41 279Q41 415 103.5 479.5Q166 544 284 544Q334 544 377.5 523.5Q421 503 442 472L453 530H578L569 387V-8Q569 -61 550 -99.5Q531 -138 496.5 -163.5Q462 -189 414 -201.5Q366 -214 309 -214Q182 -214 122.5 -170.5Q63 -127 56 -47L197 -27Q201 -59 225.5 -76.5Q250 -94 306 -92Q364 -91 398.5 -72Q433 -53 433 -10ZM183 279Q183 241 192.5 214.5Q202 188 218.5 172Q235 156 257.5 149Q280 142 306 142Q332 142 354 149.5Q376 157 392 170Q408 183 418.5 199Q429 215 433 231V327Q429 344 418.5 359.5Q408 375 392 388Q376 401 354 408.5Q332 416 306 416Q280 416 257.5 409Q235 402 218.5 386Q202 370 192.5 343.5Q183 317 183 279ZM367 592H245L90 800H228L306 706L384 800H522Z" glyph-name="gcaron" horiz-adv-x="633" unicode="&#487;" /><glyph d="M433 75Q410 49 369.5 31.5Q329 14 284 14Q166 14 103.5 78.5Q41 143 41 279Q41 415 103.5 479.5Q166 544 284 544Q334 544 377.5 523.5Q421 503 442 472L453 530H578L569 387V-8Q569 -61 550 -99.5Q531 -138 496.5 -163.5Q462 -189 414 -201.5Q366 -214 309 -214Q182 -214 122.5 -170.5Q63 -127 56 -47L197 -27Q201 -59 225.5 -76.5Q250 -94 306 -92Q364 -91 398.5 -72Q433 -53 433 -10ZM183 279Q183 241 192.5 214.5Q202 188 218.5 172Q235 156 257.5 149Q280 142 306 142Q332 142 354 149.5Q376 157 392 170Q408 183 418.5 199Q429 215 433 231V327Q429 344 418.5 359.5Q408 375 392 388Q376 401 354 408.5Q332 416 306 416Q280 416 257.5 409Q235 402 218.5 386Q202 370 192.5 343.5Q183 317 183 279ZM245 800H367L522 592H384L306 686L228 592H90Z" glyph-name="gcircumflex" horiz-adv-x="633" unicode="&#285;" /><glyph d="M433 75Q410 49 369.5 31.5Q329 14 284 14Q166 14 103.5 78.5Q41 143 41 279Q41 415 103.5 479.5Q166 544 284 544Q334 544 377.5 523.5Q421 503 442 472L453 530H578L569 387V-8Q569 -61 550 -99.5Q531 -138 496.5 -163.5Q462 -189 414 -201.5Q366 -214 309 -214Q182 -214 122.5 -170.5Q63 -127 56 -47L197 -27Q201 -59 225.5 -76.5Q250 -94 306 -92Q364 -91 398.5 -72Q433 -53 433 -10ZM183 279Q183 241 192.5 214.5Q202 188 218.5 172Q235 156 257.5 149Q280 142 306 142Q332 142 354 149.5Q376 157 392 170Q408 183 418.5 199Q429 215 433 231V327Q429 344 418.5 359.5Q408 375 392 388Q376 401 354 408.5Q332 416 306 416Q280 416 257.5 409Q235 402 218.5 386Q202 370 192.5 343.5Q183 317 183 279ZM415 800 368 592H224L293 800Z" glyph-name="gcommaaccent" horiz-adv-x="625" unicode="&#291;" /><glyph d="M433 75Q410 49 369.5 31.5Q329 14 284 14Q166 14 103.5 78.5Q41 143 41 279Q41 415 103.5 479.5Q166 544 284 544Q334 544 377.5 523.5Q421 503 442 472L453 530H578L569 387V-8Q569 -61 550 -99.5Q531 -138 496.5 -163.5Q462 -189 414 -201.5Q366 -214 309 -214Q182 -214 122.5 -170.5Q63 -127 56 -47L197 -27Q201 -59 225.5 -76.5Q250 -94 306 -92Q364 -91 398.5 -72Q433 -53 433 -10ZM183 279Q183 241 192.5 214.5Q202 188 218.5 172Q235 156 257.5 149Q280 142 306 142Q332 142 354 149.5Q376 157 392 170Q408 183 418.5 199Q429 215 433 231V327Q429 344 418.5 359.5Q408 375 392 388Q376 401 354 408.5Q332 416 306 416Q280 416 257.5 409Q235 402 218.5 386Q202 370 192.5 343.5Q183 317 183 279ZM381 617H231V767H381Z" glyph-name="gdotaccent" horiz-adv-x="633" unicode="&#289;" /><glyph d="M354 809Q405 809 452 796.5Q499 784 534 760Q569 736 590 700Q611 664 611 616Q611 570 598 540Q585 510 566 491.5Q547 473 525 463Q503 453 486 446Q471 440 457.5 434.5Q444 429 434 422Q424 415 418 405.5Q412 396 412 382Q412 369 422.5 360.5Q433 352 448.5 346Q464 340 483 336Q502 332 519 327Q539 322 564 313.5Q589 305 611 287.5Q633 270 648 241Q663 212 663 165Q663 119 647.5 85.5Q632 52 604.5 30Q577 8 540 -3Q503 -14 461 -14Q401 -14 362 -1Q323 12 299 36Q275 60 264 92.5Q253 125 250 164L385 181Q388 149 404.5 129.5Q421 110 459 109Q525 109 525 164Q525 193 500.5 205.5Q476 218 430 228Q408 233 381.5 241Q355 249 331.5 265.5Q308 282 292 309Q276 336 276 378Q276 423 290.5 452Q305 481 325.5 498.5Q346 516 368.5 525.5Q391 535 407 541Q442 555 458 570Q474 585 474 614Q474 647 445.5 666.5Q417 686 354 686Q307 686 277.5 672.5Q248 659 231.5 636Q215 613 209.5 582Q204 551 204 515V0H69V521Q69 668 136 738.5Q203 809 354 809Z" glyph-name="germandbls" horiz-adv-x="691" unicode="&#223;" /><glyph d="M156 0H5L289 790H453L737 0H586L413 518L371 650L329 518Z" glyph-name="glyph00043" horiz-adv-x="742" /><glyph d="M516 186H226L159 0H8L309 794H433L734 0H583ZM371 613 270 313H472ZM182 644H77V794H237ZM665 644H560L505 794H665Z" glyph-name="glyph00044" horiz-adv-x="742" /><glyph d="M689 -200H549V16L291 402L214 522L216 335V0H76V780H205L474 378L551 258L549 445V780H689Z" glyph-name="glyph00124" horiz-adv-x="765" /><glyph d="M405 -14Q312 -14 246 14.5Q180 43 137.5 95.5Q95 148 75 223Q55 298 55 390Q55 482 75 557Q95 632 137.5 684.5Q180 737 246 765.5Q312 794 405 794Q498 794 564 765.5Q630 737 672.5 684.5Q715 632 735 557Q755 482 755 390Q755 298 735 223Q715 148 672.5 95.5Q630 43 564 14.5Q498 -14 405 -14ZM405 116Q459 116 496.5 133Q534 150 558 179Q582 208 594 248Q606 288 610 334H199Q203 288 215 248Q227 208 251 179Q275 150 312.5 133Q350 116 405 116ZM405 664Q353 664 317 648.5Q281 633 257 606Q233 579 219.5 542.5Q206 506 201 464H608Q603 506 590 542.5Q577 579 553 606Q529 633 493 648.5Q457 664 405 664Z" glyph-name="glyph00147" horiz-adv-x="810" /><glyph d="M405 -14Q312 -14 246 14.5Q180 43 137.5 95.5Q95 148 75 223Q55 298 55 390Q55 482 75 557Q95 632 137.5 684.5Q180 737 246 765.5Q312 794 405 794Q498 794 564 765.5Q630 737 672.5 684.5Q715 632 735 557Q755 482 755 390Q755 298 735 223Q715 148 672.5 95.5Q630 43 564 14.5Q498 -14 405 -14ZM405 664Q342 664 302 642Q262 620 238.5 582.5Q215 545 206 495.5Q197 446 197 390Q197 335 206 285Q215 235 238.5 197.5Q262 160 302 138Q342 116 405 116Q468 116 508 138Q548 160 571 197.5Q594 235 603 285Q612 335 612 390Q612 446 603 495.5Q594 545 571 582.5Q548 620 508 642Q468 664 405 664ZM31 630V780H192V764Q147 743 117.5 712Q88 681 70 630ZM740 630Q722 681 692.5 712Q663 743 618 764V780H779V630Z" glyph-name="glyph00148" horiz-adv-x="760" /><glyph d="M386 -14Q295 -14 234 9Q173 32 136 72Q99 112 83.5 166.5Q68 221 68 285V780H208V285Q208 249 215 218.5Q222 188 241.5 165Q261 142 296 129Q331 116 386 116Q442 116 476.5 129Q511 142 530.5 165Q550 188 557 218.5Q564 249 564 285V780H704V285Q704 221 688.5 166.5Q673 112 636 72Q599 32 538 9Q477 -14 386 -14ZM526 630H405V780H526ZM367 630H246V780H367Z" glyph-name="glyph00185" horiz-adv-x="772" /><glyph d="M170 650H50V780H430V650H310V130H430V0H50V130H170ZM576 118Q595 119 609 123Q623 127 632.5 137Q642 147 647 164.5Q652 182 652 209V780H793V200Q793 159 784 120.5Q775 82 751.5 52Q728 22 686.5 4Q645 -14 580 -14Q549 -14 524.5 -10Q500 -6 486 0L498 134Q507 128 529 122Q551 116 576 118Z" glyph-name="glyph00197" horiz-adv-x="864" /><glyph d="M44 151Q44 195 58 224.5Q72 254 97.5 273Q123 292 159 303Q195 314 240 320L402 343V354Q402 425 300 425Q246 426 225.5 407.5Q205 389 200 357L61 375Q67 411 80.5 441.5Q94 472 120.5 495Q147 518 189.5 531Q232 544 296 544Q410 544 474 495.5Q538 447 538 343V143L547 0H422L411 56Q380 21 336 3.5Q292 -14 239 -14Q186 -14 149 -1.5Q112 11 88.5 32.5Q65 54 54.5 84.5Q44 115 44 151ZM188 157Q188 131 206 117Q224 103 256 102Q285 101 309.5 109.5Q334 118 353 132Q372 146 384.5 163.5Q397 181 402 198V241L261 218Q220 211 204 197.5Q188 184 188 157ZM363 800 457 592H322L211 800ZM176 800 270 592H136L25 800Z" glyph-name="glyph00257" horiz-adv-x="600" /><glyph d="M214 617H64V767H214ZM71 530H207V0H71Z" glyph-name="glyph00312" horiz-adv-x="278" /><glyph d="M191 459Q220 499 262.5 521.5Q305 544 356 544Q402 544 440 532.5Q478 521 505 498Q532 475 546.5 440Q561 405 561 357V-200H425V337Q425 379 399.5 397.5Q374 416 332 416Q306 416 284 408Q262 400 244.5 387.5Q227 375 215.5 359Q204 343 199 328V0H64V387L55 530H180Z" glyph-name="glyph00344" horiz-adv-x="614" /><glyph d="M301 -14Q181 -14 111 56.5Q41 127 41 265Q41 403 111 473.5Q181 544 301 544Q421 544 491 473.5Q561 403 561 265Q561 127 491 56.5Q421 -14 301 -14ZM301 113Q326 113 346.5 117Q367 121 382 132Q397 143 406.5 162.5Q416 182 419 213H182Q185 182 195 162.5Q205 143 220 132Q235 121 255.5 117Q276 113 301 113ZM301 417Q276 417 256 413Q236 409 221 398.5Q206 388 196 369Q186 350 183 320H419Q416 350 406 369Q396 388 381 398.5Q366 409 345.5 413Q325 417 301 417Z" glyph-name="glyph00367" horiz-adv-x="602" /><glyph d="M143 445H42V564H378V445H277V119H378V0H42V119H143ZM716 197Q716 157 708.5 118.5Q701 80 679 51Q657 22 617 4Q577 -14 512 -14Q482 -14 458 -9Q434 -4 420 2L433 131Q443 126 464 118.5Q485 111 510 113Q528 114 541.5 118Q555 122 564 132Q573 142 577.5 159.5Q582 177 582 205V564H716Z" glyph-name="glyph00638" horiz-adv-x="779" /><glyph d="M143 445H42V564H378V445H277V119H378V0H42V119H143Z" glyph-name="glyph00648" horiz-adv-x="420" /><glyph d="M143 445H42V564H378V445H277V119H378V0H42V119H143ZM183 810 277 602H143L32 810Z" glyph-name="glyph00649" horiz-adv-x="420" /><glyph d="M143 445H42V564H378V445H277V119H378V0H42V119H143ZM389 810 278 602H144L238 810Z" glyph-name="glyph00650" horiz-adv-x="420" /><glyph d="M143 445H42V564H378V445H277V119H378V0H42V119H143ZM150 810H272L427 602H289L211 696L133 602H-5Z" glyph-name="glyph00651" horiz-adv-x="420" /><glyph d="M143 445H42V564H378V445H277V119H378V0H42V119H143ZM177 627H27V777H177ZM394 627H244V777H394Z" glyph-name="glyph00652" horiz-adv-x="420" /><glyph d="M143 445H42V564H378V445H277V119H378V0H42V119H143ZM457 782Q450 694 409.5 648.5Q369 603 291 605Q255 606 231.5 617.5Q208 629 190.5 643Q173 657 159 669Q145 681 127 681Q111 682 100.5 676Q90 670 84.5 660.5Q79 651 76.5 639.5Q74 628 73 617L-36 630Q-29 718 11.5 763.5Q52 809 130 807Q166 806 189.5 794.5Q213 783 230.5 769Q248 755 262 743Q276 731 294 731Q311 730 321 736Q331 742 336.5 751.5Q342 761 344.5 773Q347 785 348 795Z" glyph-name="glyph00653" horiz-adv-x="420" /><glyph d="M143 445H42V564H378V445H277V119H378V0H42V119H143ZM272 602H150L-5 810H133L211 716L289 810H427Z" glyph-name="glyph00654" horiz-adv-x="420" /><glyph d="M143 445H42V564H378V445H277V119H378V0H42V119H143ZM59 770H367V645H59Z" glyph-name="glyph00655" horiz-adv-x="420" /><glyph d="M144 445H43V564H379V445H278V119H379V0H43V119H144ZM411 810Q412 759 402 719Q392 679 368.5 652Q345 625 306.5 610.5Q268 596 212 596Q156 596 117.5 610.5Q79 625 55.5 652Q32 679 22 719Q12 759 13 810H120Q119 759 141 738Q163 717 212 717Q261 717 283 738Q305 759 304 810Z" glyph-name="glyph00656" horiz-adv-x="420" /><glyph d="M144 445H43V564H379V445H278V119H379V0H43V119H144ZM13 602Q12 653 22 693Q32 733 55.5 760Q79 787 117.5 801.5Q156 816 212 816Q268 816 306.5 801.5Q345 787 368.5 760Q392 733 402 693Q412 653 411 602H304Q305 653 283 674Q261 695 212 695Q163 695 141 674Q119 653 120 602Z" glyph-name="glyph00657" horiz-adv-x="420" /><glyph d="M143 445H42V564H378V445H277V119H378V0H42V119H143ZM278 810 372 602H237L126 810ZM91 810 185 602H51L-60 810Z" glyph-name="glyph00658" horiz-adv-x="420" /><glyph d="M143 445H42V564H378V445H277V119H378V0H42V119H143ZM286 627H136V777H286Z" glyph-name="glyph00659" horiz-adv-x="420" /><glyph d="M143 445H42V564H378V445H277V119H378V0H42V119H143ZM288 -200H138V-50H288Z" glyph-name="glyph00660" horiz-adv-x="420" /><glyph d="M378 0Q354 -3 333 -11Q312 -19 296.5 -30Q281 -41 272.5 -55Q264 -69 264 -82Q264 -95 271.5 -105.5Q279 -116 301 -116Q312 -116 322.5 -113Q333 -110 341 -106.5Q349 -103 354.5 -100Q360 -97 360 -97L389 -189Q373 -199 346 -206.5Q319 -214 285 -214Q225 -214 190.5 -182.5Q156 -151 156 -93Q157 -40 193 0H42V119H143V445H42V564H378V445H277V119H378Z" glyph-name="glyph00661" horiz-adv-x="420" /><glyph d="M212 489 179 443 140 390H7L113 527L146 568L115 607L17 733H148L181 687L212 643L243 687L276 733H407L309 607L278 568L311 527L417 390H284L245 443Z" glyph-name="glyph00688" horiz-adv-x="425" /><glyph d="M29 530H133V602Q133 643 141 681Q149 719 171.5 748.5Q194 778 234 796Q274 814 339 814Q369 814 393 809Q417 804 431 798L418 669Q408 674 387 681.5Q366 689 341 687Q323 686 309.5 682Q296 678 287 668Q278 658 273.5 640.5Q269 623 269 595V530H411V407H269V0H133V407H29ZM508 530H644V0H508Z" glyph-name="glyph00693" horiz-adv-x="715" /><glyph d="M369 571 610 0H463L426 98H194L157 0H10L251 571ZM235 206H385L310 404Z" glyph-name="glyph00788" horiz-adv-x="620" /><glyph d="M68 564H488V445H201V348H355Q398 348 435.5 341.5Q473 335 501 316Q529 297 545.5 263Q562 229 562 174Q562 119 545.5 85Q529 51 501 32Q473 13 435.5 6.5Q398 0 355 0H68ZM358 111Q389 111 407.5 124.5Q426 138 426 174Q426 209 407.5 223Q389 237 358 237H201V111Z" glyph-name="glyph00789" horiz-adv-x="583" /><glyph d="M68 0V564H352Q382 564 414.5 559Q447 554 474 537.5Q501 521 519 490Q537 459 537 408Q537 370 524 341Q511 312 488 297Q523 286 539 250Q555 214 555 169Q555 116 538.5 83Q522 50 494.5 31.5Q467 13 431 6.5Q395 0 356 0ZM354 119Q364 119 375.5 121Q387 123 396.5 129Q406 135 412.5 146.5Q419 158 419 177Q419 196 413.5 208Q408 220 399 226.5Q390 233 379 235.5Q368 238 357 238H201V119ZM201 445V338H348Q374 338 387.5 350Q401 362 401 393Q401 422 387.5 433.5Q374 445 348 445Z" glyph-name="glyph00790" horiz-adv-x="600" /><glyph d="M201 0H68V564H488V445H201Z" glyph-name="glyph00791" horiz-adv-x="510" /><glyph d="M58 123Q78 123 94 130.5Q110 138 123.5 158.5Q137 179 148 215.5Q159 252 169 310L211 565H584V123H675V-160H541V0H150V-160H17V123ZM295 265Q286 209 273 175Q260 141 241 123H448V442H324Z" glyph-name="glyph00792" horiz-adv-x="703" /><glyph d="M517 564V445H201V348H478V228H201V119H531V0H68V564Z" glyph-name="glyph00793" horiz-adv-x="585" /><glyph d="M190 564 273 399Q288 368 308 356Q328 344 361 344H388V564H524V344H551Q584 344 603.5 356Q623 368 639 399L721 564H884L775 363Q763 341 748 321.5Q733 302 710 289Q734 277 751 257Q768 237 780 214L897 0H734L644 177Q628 208 608 220.5Q588 233 555 233H524V0H388V233H357Q324 233 304 220.5Q284 208 267 177L178 0H15L132 214Q144 237 160.5 257Q177 277 202 289Q178 302 163.5 321.5Q149 341 136 363L28 564Z" glyph-name="glyph00794" horiz-adv-x="912" /><glyph d="M172 177Q178 140 210 123.5Q242 107 291 107Q345 107 377 123Q409 139 409 177Q409 196 401 207Q393 218 379 223.5Q365 229 347 230.5Q329 232 308 232H198V337H303Q345 337 369 347.5Q393 358 393 396Q393 431 366 444Q339 457 289 457Q248 457 219 443Q190 429 183 389L34 405Q38 453 56.5 486.5Q75 520 107.5 540Q140 560 186.5 569Q233 578 291 578Q338 578 383 569.5Q428 561 463 541Q498 521 519.5 488Q541 455 541 406Q541 352 517 325.5Q493 299 461 291Q480 287 497.5 277.5Q515 268 528.5 252.5Q542 237 550 214.5Q558 192 558 162Q558 80 491.5 33Q425 -14 287 -14Q163 -14 97 28Q31 70 25 161Z" glyph-name="glyph00795" horiz-adv-x="590" /><glyph d="M68 0V564H203V347L200 193L288 337L432 564H587V0H452V217L455 371L367 227L223 0Z" glyph-name="glyph00796" horiz-adv-x="655" /><glyph d="M527 821Q527 770 517 730Q507 690 483.5 662.5Q460 635 422 621Q384 607 328 607Q272 607 233.5 621Q195 635 171.5 662.5Q148 690 138 730Q128 770 128 821H236Q235 769 257 748.5Q279 728 328 728Q377 728 399 748.5Q421 769 420 821ZM68 0V564H203V347L200 193L288 337L432 564H587V0H452V217L455 371L367 227L223 0Z" glyph-name="glyph00797" horiz-adv-x="655" /><glyph d="M599 564 477 363Q463 340 446 321Q429 302 406 289Q431 277 449 257Q467 237 481 214L612 0H449L348 177Q330 208 309.5 220.5Q289 233 256 233H204V0H68V564H204V344H251Q284 344 304.5 356.5Q325 369 343 399L437 564Z" glyph-name="glyph00798" horiz-adv-x="627" /><glyph d="M572 0H436V442H292L263 265Q250 184 230 132.5Q210 81 182.5 51.5Q155 22 119 11Q83 0 38 0H17V123H24Q45 123 61.5 130Q78 137 91.5 157.5Q105 178 116 214.5Q127 251 137 310L179 565H572Z" glyph-name="glyph00799" horiz-adv-x="640" /><glyph d="M196 351 200 0H68V564H247L384 187L521 564H700V0H568L572 351L445 0H323Z" glyph-name="glyph00800" horiz-adv-x="768" /><glyph d="M582 564V0H449V228H201V0H68V564H201V348H449V564Z" glyph-name="glyph00801" horiz-adv-x="650" /><glyph d="M335 458Q287 458 258 443.5Q229 429 212.5 404.5Q196 380 190.5 348Q185 316 185 282Q185 248 190.5 216Q196 184 212.5 159.5Q229 135 258 120.5Q287 106 335 106Q383 106 412 120.5Q441 135 457.5 159.5Q474 184 479.5 216Q485 248 485 282Q485 316 479.5 348Q474 380 457.5 404.5Q441 429 412 443.5Q383 458 335 458ZM335 -14Q256 -14 201.5 7.5Q147 29 113 68Q79 107 64 161.5Q49 216 49 282Q49 348 64 402.5Q79 457 113 496Q147 535 201.5 556.5Q256 578 335 578Q414 578 468.5 556.5Q523 535 557 496Q591 457 606 402.5Q621 348 621 282Q621 216 606 161.5Q591 107 557 68Q523 29 468.5 7.5Q414 -14 335 -14Z" glyph-name="glyph00802" horiz-adv-x="670" /><glyph d="M582 564V0H449V444H201V0H68V564Z" glyph-name="glyph00803" horiz-adv-x="650" /><glyph d="M339 300Q350 300 361 303Q372 306 381 313.5Q390 321 396 335.5Q402 350 402 372Q402 395 396 409Q390 423 381 431Q372 439 361 442Q350 445 339 445H201V300ZM201 0H68V564H329Q367 564 404.5 556Q442 548 471.5 526.5Q501 505 519.5 468Q538 431 538 372Q538 314 520 276.5Q502 239 473 217.5Q444 196 407 188Q370 180 332 180H201Z" glyph-name="glyph00804" horiz-adv-x="570" /><glyph d="M49 282Q49 348 64 402.5Q79 457 112 496Q145 535 198.5 556.5Q252 578 329 578Q461 578 524.5 527Q588 476 590 387L454 370Q452 419 419 438.5Q386 458 329 458Q283 458 254.5 443.5Q226 429 210 404.5Q194 380 189 348Q184 316 184 282Q184 248 189 216Q194 184 210 159.5Q226 135 254.5 120.5Q283 106 329 106Q386 106 419 125.5Q452 145 454 194L590 177Q588 88 524.5 37Q461 -14 329 -14Q252 -14 198.5 7.5Q145 29 112 68Q79 107 64 161.5Q49 216 49 282Z" glyph-name="glyph00805" horiz-adv-x="639" /><glyph d="M332 0H198V445H23V564H507V445H332Z" glyph-name="glyph00806" horiz-adv-x="530" /><glyph d="M652 564 442 156Q423 118 401 86.5Q379 55 351 33Q323 11 286.5 -1Q250 -13 201 -13Q152 -13 120 -5.5Q88 2 67 13L83 136Q100 125 131.5 116.5Q163 108 192 108Q236 108 268 131L36 564H195L343 249L492 564Z" glyph-name="glyph00807" horiz-adv-x="656" /><glyph d="M451 0H311V70Q246 70 194 82.5Q142 95 106 121Q70 147 51 187Q32 227 32 282Q32 337 51 377Q70 417 106 443Q142 469 194 481.5Q246 494 311 494V564H451V494Q582 494 656 443Q730 392 730 282Q730 172 656 121Q582 70 451 70ZM451 181Q516 181 550 202.5Q584 224 584 282Q584 340 550 361.5Q516 383 451 383ZM311 383Q246 383 212.5 361.5Q179 340 179 282Q179 224 212.5 202.5Q246 181 311 181Z" glyph-name="glyph00808" horiz-adv-x="762" /><glyph d="M315 196 172 0H11L234 292L23 564H181L315 379L449 564H607L396 292L619 0H458Z" glyph-name="glyph00809" horiz-adv-x="630" /><glyph d="M672 120V-160H539V0H68V564H201V120H449V564H582V120Z" glyph-name="glyph00810" horiz-adv-x="700" /><glyph d="M572 0H439V253Q412 230 366.5 216Q321 202 261 202Q215 202 174.5 213Q134 224 105 247.5Q76 271 59 307.5Q42 344 42 395V564H175V418Q175 370 207 350.5Q239 331 290 331Q349 331 386 348Q423 365 439 385V564H572Z" glyph-name="glyph00811" horiz-adv-x="640" /><glyph d="M915 120V-160H782V0H68V564H201V120H380V564H513V120H692V564H825V120Z" glyph-name="glyph00812" horiz-adv-x="943" /><glyph d="M68 0V564H201V120H380V564H513V120H692V564H825V0Z" glyph-name="glyph00813" horiz-adv-x="893" /><glyph d="M170 445H23V564H303V348H457Q500 348 537.5 341.5Q575 335 603 316Q631 297 647.5 263Q664 229 664 174Q664 119 647.5 85Q631 51 603 32Q575 13 537.5 6.5Q500 0 457 0H170ZM460 111Q491 111 509.5 124.5Q528 138 528 174Q528 209 509.5 223Q491 237 460 237H303V111Z" glyph-name="glyph00814" horiz-adv-x="685" /><glyph d="M358 111Q389 111 407.5 124.5Q426 138 426 174Q426 209 407.5 223Q389 237 358 237H201V111ZM68 564H201V348H355Q398 348 435.5 341.5Q473 335 501 316Q529 297 545.5 263Q562 229 562 174Q562 119 545.5 85Q529 51 501 32Q473 13 435.5 6.5Q398 0 355 0H68ZM743 0H610V564H743Z" glyph-name="glyph00815" horiz-adv-x="819" /><glyph d="M358 111Q389 111 407.5 124.5Q426 138 426 174Q426 209 407.5 223Q389 237 358 237H201V111ZM68 564H201V348H355Q398 348 435.5 341.5Q473 335 501 316Q529 297 545.5 263Q562 229 562 174Q562 119 545.5 85Q529 51 501 32Q473 13 435.5 6.5Q398 0 355 0H68Z" glyph-name="glyph00816" horiz-adv-x="583" /><glyph d="M185 343H452Q441 400 406 427Q371 454 314 455Q252 456 223 435.5Q194 415 188 376L49 392Q52 432 67.5 466Q83 500 114 525Q145 550 194 564Q243 578 313 578Q451 578 524 501.5Q597 425 597 282Q597 139 524 62.5Q451 -14 313 -14Q243 -14 194 0Q145 14 114 39Q83 64 67.5 98Q52 132 49 172L188 188Q194 149 223 128.5Q252 108 314 109Q374 110 409.5 140.5Q445 171 454 234H185Z" glyph-name="glyph00817" horiz-adv-x="646" /><glyph d="M602 -14Q531 -14 480 3.5Q429 21 395 53Q361 85 342.5 130Q324 175 318 230H204V0H68V564H204V353H321Q328 404 347.5 445.5Q367 487 401 516.5Q435 546 484.5 562Q534 578 602 578Q681 578 735.5 556.5Q790 535 824 496Q858 457 873 402.5Q888 348 888 282Q888 216 873 161.5Q858 107 824 68Q790 29 735.5 7.5Q681 -14 602 -14ZM602 458Q554 458 525 443.5Q496 429 479.5 404.5Q463 380 457.5 348Q452 316 452 282Q452 248 457.5 216Q463 184 479.5 159.5Q496 135 525 120.5Q554 106 602 106Q650 106 679 120.5Q708 135 724.5 159.5Q741 184 746.5 216Q752 248 752 282Q752 316 746.5 348Q741 380 724.5 404.5Q708 429 679 443.5Q650 458 602 458Z" glyph-name="glyph00818" horiz-adv-x="937" /><glyph d="M559 0H422V211H359Q325 211 308.5 198.5Q292 186 277 157L194 0H33L134 171Q152 205 179 219Q153 225 131.5 237.5Q110 250 94.5 270Q79 290 70.5 318.5Q62 347 62 387Q62 442 78 476.5Q94 511 122 530.5Q150 550 187.5 557Q225 564 268 564H559ZM275 448Q260 448 246 445.5Q232 443 221.5 435.5Q211 428 204.5 415Q198 402 198 380Q198 359 204.5 346Q211 333 221.5 326Q232 319 246 316.5Q260 314 275 314H422V448Z" glyph-name="glyph00819" horiz-adv-x="627" /><glyph d="M517 564V445H201V348H478V228H201V119H531V0H68V564ZM261 627H111V777H261ZM479 627H329V777H479Z" glyph-name="glyph00820" horiz-adv-x="585" /><glyph d="M306 321Q330 339 371 349.5Q412 360 455 360Q500 360 537 348Q574 336 600.5 313Q627 290 642 255Q657 220 657 173Q657 79 610.5 32.5Q564 -14 476 -14Q449 -14 425.5 -9.5Q402 -5 391 -1L399 103Q406 100 417 96.5Q428 93 443 93Q474 93 492 112Q510 131 510 173Q510 215 484.5 233.5Q459 252 417 252Q379 252 348.5 237Q318 222 306 205V0H169V441H23V564H453V441H306Z" glyph-name="glyph00821" horiz-adv-x="690" /><glyph d="M454 821 343 613H208L302 821ZM201 0H68V564H488V445H201Z" glyph-name="glyph00822" horiz-adv-x="510" /><glyph d="M461 234H192Q202 171 237.5 140.5Q273 110 333 109Q394 108 423 128.5Q452 149 458 188L597 172Q594 132 578.5 98Q563 64 532.5 39Q502 14 453 0Q404 -14 333 -14Q195 -14 122 62.5Q49 139 49 282Q49 425 122 501.5Q195 578 333 578Q404 578 453 564Q502 550 532.5 525Q563 500 578.5 466Q594 432 597 392L458 376Q452 415 423 435.5Q394 456 333 455Q218 453 194 343H461Z" glyph-name="glyph00823" horiz-adv-x="646" /><glyph d="M432 173Q432 189 425.5 199.5Q419 210 404 217Q389 224 364 228Q339 232 301 234Q258 237 214.5 242Q171 247 135.5 262Q100 277 78 306.5Q56 336 56 387Q56 436 74 472Q92 508 124 531.5Q156 555 200.5 566.5Q245 578 298 578Q437 578 500 527Q563 476 564 387L428 370Q427 417 399 437.5Q371 458 306 458Q284 458 263.5 455Q243 452 226.5 445Q210 438 200 426Q190 414 190 396Q190 364 220.5 355Q251 346 310 343Q368 340 415 333.5Q462 327 495.5 310Q529 293 547 261Q565 229 565 176Q565 125 545 89Q525 53 490 30Q455 7 408 -3.5Q361 -14 308 -14Q232 -14 181 -0.5Q130 13 99.5 37.5Q69 62 55.5 97.5Q42 133 42 177L178 194Q179 144 210 125Q241 106 308 106Q362 107 397 121Q432 135 432 173Z" glyph-name="glyph00824" horiz-adv-x="611" /><glyph d="M209 0H76V564H209Z" glyph-name="glyph00825" horiz-adv-x="285" /><glyph d="M209 0H76V564H209ZM109 627H-41V777H109ZM326 627H176V777H326Z" glyph-name="glyph00826" horiz-adv-x="285" /><glyph d="M457 564V158Q457 119 444 87.5Q431 56 404 33.5Q377 11 334.5 -1.5Q292 -14 233 -14Q167 -14 125 -0.5Q83 13 59 35.5Q35 58 25.5 88.5Q16 119 15 153L148 168Q148 154 151.5 142.5Q155 131 164 122.5Q173 114 189 109.5Q205 105 230 105Q280 105 301.5 118.5Q323 132 323 158V564Z" glyph-name="glyph00827" horiz-adv-x="520" /><glyph d="M428 442H292L263 265Q250 184 230 132.5Q210 81 182.5 51.5Q155 22 119 11Q83 0 38 0H17V123H24Q45 123 61.5 130Q78 137 91.5 157.5Q105 178 116 214.5Q127 251 137 310L179 565H564V353H718Q761 353 798.5 346Q836 339 864 319.5Q892 300 908 266Q924 232 924 177Q924 122 908 87.5Q892 53 864 33.5Q836 14 798.5 7Q761 0 718 0H428ZM711 116Q726 116 740 118.5Q754 121 765 128.5Q776 136 782.5 149Q789 162 789 184Q789 205 782.5 218Q776 231 765 238Q754 245 740 247.5Q726 250 711 250H564V116Z" glyph-name="glyph00828" horiz-adv-x="945" /><glyph d="M471 230H204V0H68V564H204V353H471V564H607V353H761Q804 353 841.5 346Q879 339 907 319.5Q935 300 951.5 266Q968 232 968 177Q968 122 951.5 87.5Q935 53 907 33.5Q879 14 841.5 7Q804 0 761 0H471ZM754 116Q769 116 783.5 118.5Q798 121 808.5 128.5Q819 136 825.5 149Q832 162 832 184Q832 205 825.5 218Q819 231 808.5 238Q798 245 783.5 247.5Q769 250 754 250H607V116Z" glyph-name="glyph00829" horiz-adv-x="989" /><glyph d="M169 441H23V564H453V441H306V306Q336 335 374 347.5Q412 360 461 360Q535 360 581.5 320.5Q628 281 628 201V0H491V170Q491 206 472.5 221.5Q454 237 416 237Q379 237 352 222Q325 207 306 180V0H169Z" glyph-name="glyph00830" horiz-adv-x="675" /><glyph d="M599 564 477 363Q463 340 446 321Q429 302 406 289Q431 277 449 257Q467 237 481 214L612 0H449L348 177Q330 208 309.5 220.5Q289 233 256 233H204V0H68V564H204V344H251Q284 344 305 356Q326 368 343 399L437 564ZM487 821 376 613H242L336 821Z" glyph-name="glyph00831" horiz-adv-x="627" /><glyph d="M652 564 442 156Q423 118 401 86.5Q379 55 351 33Q323 11 286.5 -1Q250 -13 201 -13Q152 -13 120 -5.5Q88 2 67 13L83 136Q100 125 131.5 116.5Q163 108 192 108Q236 108 268 131L36 564H195L343 249L492 564ZM344 607Q288 607 249.5 621Q211 635 187.5 662.5Q164 690 154 730Q144 770 144 821H252Q251 769 272.5 748.5Q294 728 344 728Q393 728 414.5 748.5Q436 769 436 821H543Q543 770 533 730Q523 690 499.5 662.5Q476 635 438 621Q400 607 344 607Z" glyph-name="glyph00832" horiz-adv-x="656" /><glyph d="M68 0V564H201V120H449V564H582V0H391V-160H259V0Z" glyph-name="glyph00833" horiz-adv-x="650" /><glyph d="M488 445H201V0H68V564H354V724H488Z" glyph-name="glyph00834" horiz-adv-x="510" /><glyph d="M284 -214Q227 -214 180.5 -201Q134 -188 100.5 -162Q67 -136 48.5 -97.5Q30 -59 30 -8Q30 45 46 79.5Q62 114 87 136.5Q112 159 142 172Q172 185 200 195Q215 200 230.5 206.5Q246 213 257 223L261 301H343L363 -69Q386 -57 398.5 -33.5Q411 -10 416 28L556 14Q551 -39 533.5 -81Q516 -123 483.5 -152.5Q451 -182 402 -198Q353 -214 284 -214ZM377 380H227V530H377ZM172 -2Q172 -40 192 -57.5Q212 -75 240 -80L249 76Q236 72 222 65.5Q208 59 197 50Q186 41 179 28.5Q172 16 172 -2Z" glyph-name="glyph00889" horiz-adv-x="575" /><glyph d="M224 413Q266 431 281 453L286 551H368L390 138Q426 163 433 229L573 215Q568 163 550.5 120.5Q533 78 500.5 48.5Q468 19 419 3Q370 -13 301 -13Q243 -13 195.5 1Q148 15 114.5 42.5Q81 70 63 111Q45 152 45 206Q45 261 63 296Q81 331 108 353Q135 375 166.5 388.5Q198 402 224 413ZM252 780H402V630H252ZM188 207Q188 164 210.5 145Q233 126 264 120L273 300Q258 293 243 284.5Q228 276 216 265Q204 254 196 239.5Q188 225 188 207Z" glyph-name="glyph00890" horiz-adv-x="595" /><glyph d="M211 455Q191 447 183.5 431.5Q176 416 174 390L33 409Q40 578 269 578Q321 578 364 568Q407 558 438.5 538.5Q470 519 487.5 489Q505 459 505 420Q505 377 493 350Q481 323 460 306Q439 289 409 280Q379 271 343 263Q328 259 317 256Q306 253 298 249L294 199H232ZM338 0H188V150H338ZM352 406Q352 426 344.5 439Q337 452 314 457L306 353Q332 361 342 371.5Q352 382 352 406Z" glyph-name="glyph00891" horiz-adv-x="541" /><glyph d="M309 365 329 109Q350 117 357.5 132.5Q365 148 367 174L508 155Q501 -14 272 -14Q220 -14 177 -4Q134 6 102.5 25.5Q71 45 53.5 75Q36 105 36 144Q36 187 48 214Q60 241 81 258Q102 275 132 284.5Q162 294 198 301Q213 305 224 308Q235 311 243 315L247 365ZM203 564H353V414H203ZM189 158Q189 138 196 125Q203 112 226 106L235 211Q208 202 198.5 192Q189 182 189 158Z" glyph-name="glyph00892" horiz-adv-x="541" /><glyph d="M202 207H52V357H202Z" glyph-name="glyph00959" horiz-adv-x="254" /><glyph d="M45 218V346H288V218Z" glyph-name="glyph00961" horiz-adv-x="333" /><glyph d="M45 218V346H455V218Z" glyph-name="glyph00962" horiz-adv-x="500" /><glyph d="M45 218V346H705V218Z" glyph-name="glyph00963" horiz-adv-x="750" /><glyph d="M955 218H45V346H955Z" glyph-name="glyph00964" horiz-adv-x="1000" /><glyph d="M45 218V346H655V218Z" glyph-name="glyph00965" horiz-adv-x="700" /><glyph d="M45 218V346H1355V218Z" glyph-name="glyph00966" horiz-adv-x="1400" /><glyph d="M20 312H83Q95 425 161 484.5Q227 544 339 544Q405 544 450 529.5Q495 515 522.5 490.5Q550 466 564 432.5Q578 399 583 361L444 343Q437 378 415 398Q393 418 338 417Q291 415 261 390Q231 365 222 312H417L386 214H223Q233 163 262.5 138.5Q292 114 338 113Q393 112 415 132Q437 152 444 187L583 169Q578 131 564 97.5Q550 64 522.5 39.5Q495 15 450 0.5Q405 -14 339 -14Q229 -14 163 44Q97 102 84 214H20Z" glyph-name="glyph01063" horiz-adv-x="616" /><glyph d="M420 607 402 533Q447 525 473 512Q499 499 516 488L485 362Q444 385 395 402Q346 419 278 417Q264 417 249.5 414Q235 411 223.5 405.5Q212 400 204.5 391Q197 382 197 370Q197 347 223 340Q249 333 305 326Q341 322 378.5 315.5Q416 309 446 293Q476 277 495.5 247Q515 217 515 165Q515 115 494.5 80.5Q474 46 441 24.5Q408 3 366 -6.5Q324 -16 280 -16H271L256 -77H136L153 -4Q109 6 81 18.5Q53 31 38 41L73 168Q113 146 160.5 128.5Q208 111 275 111Q317 111 347 121.5Q377 132 377 163Q377 192 347.5 199.5Q318 207 254 214Q221 218 185.5 225Q150 232 120.5 248Q91 264 72 293Q53 322 53 369Q53 417 74 450Q95 483 128 503.5Q161 524 202 533Q243 542 283 542L298 607Z" glyph-name="glyph01064" horiz-adv-x="557" /><glyph d="M145 -77 167 15Q106 46 73.5 108.5Q41 171 41 265Q41 399 107 470.5Q173 542 293 544L308 607H430L411 529Q445 519 468.5 501.5Q492 484 507 462.5Q522 441 530.5 415Q539 389 543 361L404 343Q397 378 375 398Q353 418 298 417Q242 415 210.5 379Q179 343 179 265Q179 187 210.5 151Q242 115 298 113Q353 112 375 132Q397 152 404 187L543 169Q538 131 524 97.5Q510 64 482.5 39.5Q455 15 410 0.5Q365 -14 299 -14H282L267 -77Z" glyph-name="glyph01065" horiz-adv-x="573" /><glyph d="M44 128H121V214H44V312H121V356Q121 406 140.5 442Q160 478 192.5 500.5Q225 523 267.5 533.5Q310 544 355 544Q413 544 455 532.5Q497 521 525 499.5Q553 478 568.5 446.5Q584 415 588 374L450 357Q447 386 425.5 403.5Q404 421 355 420Q256 419 256 347V312H453V214H256V128H593V0H44Z" glyph-name="glyph01066" horiz-adv-x="637" /><glyph d="M269 312H409V214H269V-2Q269 -43 261 -81Q253 -119 230.5 -148.5Q208 -178 168 -196Q128 -214 63 -214Q33 -214 9 -209Q-15 -204 -29 -198L-16 -69Q-6 -74 15 -81.5Q36 -89 61 -87Q79 -86 92.5 -82Q106 -78 115 -68Q124 -58 128.5 -40.5Q133 -23 133 5V214H32V312H133V330Q133 371 141 409Q149 447 171.5 476.5Q194 506 234 524Q274 542 339 542Q369 542 393 537Q417 532 431 526L418 397Q408 402 387 409.5Q366 417 341 415Q323 414 309.5 410Q296 406 287 396Q278 386 273.5 368.5Q269 351 269 323Z" glyph-name="glyph01067" horiz-adv-x="455" /><glyph d="M257 0V116H80V214H237L21 530H182L284 371L328 302L372 371L474 530H635L419 214H576V116H399V0Z" glyph-name="glyph01068" horiz-adv-x="658" /><glyph d="M260 -77H191L220 -4Q212 -2 204.5 0.5Q197 3 189 6L157 -77H88L133 37Q88 72 64.5 129Q41 186 41 265Q41 401 109 471.5Q177 542 299 544Q308 544 316.5 544Q325 544 333 543L358 607H427L399 536Q407 534 414.5 533Q422 532 430 530L461 607H530L492 510Q503 506 510.5 502Q518 498 524 495Q531 491 536 488L505 362Q491 370 476 377.5Q461 385 445 391L335 114Q389 118 429.5 133Q470 148 505 168L536 42Q510 25 475 13Q445 2 401 -7Q357 -16 299 -14Q295 -14 291.5 -13.5Q288 -13 285 -13ZM237 128Q252 120 267 117L383 410Q375 412 367 413Q359 414 351 415ZM179 265Q179 217 191 185L282 416Q234 410 206.5 373.5Q179 337 179 265Z" glyph-name="glyph01069" horiz-adv-x="573" /><glyph d="M41 265Q41 401 109 471.5Q177 542 299 544Q357 546 401 537Q445 528 475 517Q510 505 536 488L505 362Q464 385 415 402Q366 419 298 417Q242 415 210.5 379Q179 343 179 265Q179 170 229 134V185L220 328H345L356 271Q380 304 418 321Q456 338 502 338L489 204Q444 199 409.5 174.5Q375 150 364 117V116Q406 122 440 136.5Q474 151 505 168L536 42Q510 25 475 13Q445 2 401 -7Q357 -16 299 -14Q177 -12 109 58.5Q41 129 41 265Z" glyph-name="glyph01070" horiz-adv-x="573" /><glyph d="M290 159V0H141V159H38V223H141V253H38V317H141V530H572V396H290V317H507V253H290V223H507V159Z" glyph-name="glyph01071" horiz-adv-x="597" /><glyph d="M264 174V133H610V0H41V133H119V174H41V238H119V268H41V332H119V357Q119 408 139 443.5Q159 479 192.5 501.5Q226 524 270 534Q314 544 362 544Q485 544 543.5 500.5Q602 457 604 372L456 354Q454 383 433 400Q412 417 362 416Q311 415 287.5 397.5Q264 380 264 346V332H468V268H264V238H468V174Z" glyph-name="glyph01072" horiz-adv-x="649" /><glyph d="M642 186V0H438L340 186H241V0H102V186H24V250H102V280H24V344H102V530H306L404 344H503V530H642V344H720V280H642V250H720V186ZM241 250H306L290 280H241ZM503 280H438L454 250H503ZM503 158V186H488ZM241 344H256L241 372Z" glyph-name="glyph01073" horiz-adv-x="744" /><glyph d="M1266 103Q1288 103 1307.5 106.5Q1327 110 1342 117Q1357 124 1365 135.5Q1373 147 1373 164Q1373 181 1365 189.5Q1357 198 1342 202.5Q1327 207 1305.5 208.5Q1284 210 1257 213Q1218 216 1179.5 221.5Q1141 227 1110 243Q1079 259 1059.5 288.5Q1040 318 1040 369Q1040 419 1061.5 452.5Q1083 486 1116 506.5Q1149 527 1189.5 535.5Q1230 544 1269 544Q1383 544 1438.5 503Q1494 462 1505 377L1367 359Q1362 391 1340.5 409.5Q1319 428 1269 427Q1253 427 1238 424Q1223 421 1211 415Q1199 409 1192 398.5Q1185 388 1185 372Q1185 358 1193 350.5Q1201 343 1214.5 339Q1228 335 1248 333Q1268 331 1292 328Q1332 324 1371.5 319Q1411 314 1443 298.5Q1475 283 1495 252Q1515 221 1515 165Q1515 114 1493 80Q1471 46 1435.5 25Q1400 4 1355.5 -5Q1311 -14 1266 -14Q1208 -14 1165.5 -3Q1123 8 1094 28Q1036 -1 989.5 -7.5Q943 -14 916 -14Q869 -14 836 -4.5Q803 5 780 21Q726 -3 684 -8.5Q642 -14 616 -14Q571 -14 538 -5Q505 4 482 19Q455 3 422 -5.5Q389 -14 349 -14Q304 -14 263.5 3.5Q223 21 200 47V-200H64V387L55 530H180L191 472Q202 487 219 500.5Q236 514 257 523.5Q278 533 302 538.5Q326 544 349 544Q467 544 529.5 472.5Q592 401 592 265Q592 186 569 126Q578 119 590 116.5Q602 114 618 113Q638 111 665 116Q692 121 715 132Q712 148 711 164.5Q710 181 710 198V407H616V530H710V669L846 695V530H998V407H846V205Q846 177 850.5 159.5Q855 142 864 132Q873 122 886.5 118Q900 114 918 113Q940 111 971.5 117.5Q1003 124 1027 138Q1025 143 1025 148.5Q1025 154 1024 159L1163 177Q1169 140 1192 121Q1215 102 1266 103ZM450 265Q450 342 415 379Q380 416 327 416Q301 416 279 408.5Q257 401 241 388Q225 375 214.5 359.5Q204 344 200 327V203Q204 187 214.5 171Q225 155 241 142Q257 129 279 121.5Q301 114 327 114Q380 114 415 151Q450 188 450 265Z" glyph-name="glyph01074" horiz-adv-x="1546" /><glyph d="M1044 164Q1043 114 1019 80Q995 46 952.5 25Q910 4 852 -5Q794 -14 726 -14Q656 -14 593 -8Q530 -2 476 16.5Q422 35 376.5 67.5Q331 100 294 152H197V0H58V530H308Q348 530 387 521Q426 512 456.5 490.5Q487 469 506 432.5Q525 396 525 340Q525 280 502.5 243.5Q480 207 445 188Q472 155 505 137.5Q538 120 574.5 112.5Q611 105 649.5 104Q688 103 727 103Q819 103 860.5 117Q902 131 902 163Q902 180 894 188.5Q886 197 871 201.5Q856 206 834.5 207.5Q813 209 786 212Q747 215 708.5 220.5Q670 226 639 242Q608 258 588.5 287.5Q569 317 569 368Q569 418 590.5 451.5Q612 485 645 505.5Q678 526 718.5 534.5Q759 543 798 543Q912 543 967.5 502Q1023 461 1034 376L896 358Q891 390 869.5 408.5Q848 427 798 426Q782 426 767 423Q752 420 740 414Q728 408 721 397.5Q714 387 714 371Q714 357 722 349.5Q730 342 743.5 338Q757 334 777 332Q797 330 821 327Q861 323 900.5 318Q940 313 972 297.5Q1004 282 1024 251Q1044 220 1044 164ZM308 275Q322 275 336 276.5Q350 278 361.5 284.5Q373 291 380.5 304Q388 317 388 340Q388 364 380.5 377Q373 390 361.5 396.5Q350 403 336 404.5Q322 406 308 406H197V275Z" glyph-name="glyph01075" horiz-adv-x="1075" /><glyph d="M686 186 641 -14H475L436 186H357L313 -14H147L105 186H20V250H92L85 280H20V344H72L33 530H183L214 344H284L321 530H477L514 344H585L616 530H765L722 344H779V280H708L701 250H779V186ZM371 250H423L417 280H377ZM532 250H569L574 280H526ZM229 250H265L271 280H224ZM558 186H545L552 152ZM392 344H405L399 376ZM246 152 252 186H240Z" glyph-name="glyph01076" horiz-adv-x="799" /><glyph d="M293 530Q388 530 439.5 483Q491 436 491 341V178H395V326Q395 403 318 403H197V0H58V530ZM248 0V352H344V127H465Q542 127 542 204V530H681V189Q681 94 629.5 47Q578 0 483 0Z" glyph-name="glyph01077" horiz-adv-x="739" /><glyph d="M20 401V530H490V401H325V318L438 374V305L325 249V215L438 271V202L325 146V0H185V76L83 26V95L185 145V179L83 129V198L185 248V401Z" glyph-name="glyph01078" horiz-adv-x="510" /><glyph d="M642 372V308H567Q561 262 540.5 231.5Q520 201 490.5 183Q461 165 425 157.5Q389 150 352 150H241V0H102V308H24V372H102V530H352Q389 530 425 522.5Q461 515 490.5 496.5Q520 478 540.5 447.5Q561 417 567 372ZM241 275H352Q373 275 395 279.5Q417 284 426 308H241ZM241 405V372H426Q417 395 395 400Q373 405 352 405Z" glyph-name="glyph01079" horiz-adv-x="662" /><glyph d="M271 0 246 -100H126L150 0H68V564H284L308 664H429L404 560Q429 556 453 547Q477 538 495.5 520.5Q514 503 525.5 476Q537 449 537 408Q537 370 524 341Q511 312 488 297Q523 286 539 250Q555 214 555 169Q555 116 538.5 83Q522 50 494.5 31.5Q467 13 431 6.5Q395 0 356 0ZM351 119Q361 119 373 120.5Q385 122 395 127Q405 132 412 142.5Q419 153 419 172Q419 191 413 202Q407 213 397.5 219Q388 225 376.5 226.5Q365 228 354 228H201V119ZM201 445V348H345Q371 348 386 357.5Q401 367 401 398Q401 427 386 436Q371 445 345 445Z" glyph-name="glyph01080" horiz-adv-x="605" /><glyph d="M134 185 175 345H102V473H207L242 607H380L345 473H470L505 607H643L608 473H679V345H576L535 185H608V57H502L468 -77H330L364 57H239L205 -77H67L101 57H31V185ZM272 185H397L438 345H313Z" glyph-name="glyph01081" horiz-adv-x="709" /><glyph d="M250 0H100V150H250Z" glyph-name="glyph01147" horiz-adv-x="350" /><glyph d="M258 149 168 -127H67L100 149Z" glyph-name="glyph01148" horiz-adv-x="350" /><glyph d="M250 0H100V150H250ZM250 332H100V482H250Z" glyph-name="glyph01149" horiz-adv-x="350" /><glyph d="M258 149 168 -127H67L100 149ZM250 332H100V482H250Z" glyph-name="glyph01150" horiz-adv-x="350" /><glyph d="M1318 318Q1288 318 1266 300.5Q1244 283 1242 236Q1256 254 1282.5 261Q1309 268 1331 268Q1472 268 1472 134Q1472 59 1427 22.5Q1382 -14 1310 -14Q1219 -14 1177.5 38.5Q1136 91 1136 202Q1136 311 1184 363.5Q1232 416 1321 416Q1391 416 1429 384.5Q1467 353 1472 295L1365 284Q1359 318 1318 318ZM362 0H221L741 764H883ZM36 362V464H161V628Q144 617 108.5 604.5Q73 592 28 587V692Q81 703 121 726Q161 749 184 778H268V464H390V362ZM709 0V102H834V266Q817 255 781.5 242.5Q746 230 701 225V330Q754 341 794 364Q834 387 857 416H941V102H1063V0ZM1313 185Q1287 185 1269 171.5Q1251 158 1250 130V128Q1252 106 1269.5 95Q1287 84 1308 84Q1331 84 1347 96Q1363 108 1363 134Q1363 161 1349.5 173Q1336 185 1313 185Z" glyph-name="glyph01168" horiz-adv-x="1521" /><glyph d="M1331 318Q1301 318 1279 300.5Q1257 283 1255 236Q1269 254 1295.5 261Q1322 268 1344 268Q1485 268 1485 134Q1485 59 1440 22.5Q1395 -14 1323 -14Q1232 -14 1190.5 38.5Q1149 91 1149 202Q1149 311 1197 363.5Q1245 416 1334 416Q1404 416 1442 384.5Q1480 353 1485 295L1378 284Q1372 318 1331 318ZM375 0H234L754 764H896ZM398 480Q398 422 353 385Q308 348 215 348Q51 348 40 489L149 497Q152 470 170 460Q188 450 219 450Q291 450 291 493Q291 517 272 524Q253 531 227 531H159V605H228Q249 605 263.5 612.5Q278 620 278 640Q278 659 263.5 669Q249 679 223 679Q193 678 176.5 668.5Q160 659 157 632L48 640Q53 712 95 745Q137 778 220 778Q253 778 283 771Q313 764 336 749Q359 734 373 709.5Q387 685 387 650Q387 617 375 599Q363 581 349 570Q368 561 383 539.5Q398 518 398 480ZM722 0V102H847V266Q830 255 794.5 242.5Q759 230 714 225V330Q767 341 807 364Q847 387 870 416H954V102H1076V0ZM1326 185Q1300 185 1282 171.5Q1264 158 1263 130V128Q1265 106 1282.5 95Q1300 84 1321 84Q1344 84 1360 96Q1376 108 1376 134Q1376 161 1362.5 173Q1349 185 1326 185Z" glyph-name="glyph01169" horiz-adv-x="1534" /><glyph d="M1317 318Q1287 318 1265 300.5Q1243 283 1241 236Q1255 254 1281.5 261Q1308 268 1330 268Q1471 268 1471 134Q1471 59 1426 22.5Q1381 -14 1309 -14Q1218 -14 1176.5 38.5Q1135 91 1135 202Q1135 311 1183 363.5Q1231 416 1320 416Q1390 416 1428 384.5Q1466 353 1471 295L1364 284Q1358 318 1317 318ZM361 0H220L740 764H882ZM61 545 84 764H363V662H174L169 622Q180 627 197 630Q214 633 230 633Q265 633 293.5 626Q322 619 342 603Q362 587 373 561Q384 535 384 497Q384 457 370.5 428.5Q357 400 334 382Q311 364 280 355.5Q249 347 214 347Q131 347 90.5 381.5Q50 416 45 485L154 494Q158 466 173 455.5Q188 445 215 446Q238 446 256 458.5Q274 471 275 499Q275 525 261.5 539.5Q248 554 218 554Q198 555 180.5 547.5Q163 540 154 525ZM708 0V102H833V266Q816 255 780.5 242.5Q745 230 700 225V330Q753 341 793 364Q833 387 856 416H940V102H1062V0ZM1312 185Q1286 185 1268 171.5Q1250 158 1249 130V128Q1251 106 1268.5 95Q1286 84 1307 84Q1330 84 1346 96Q1362 108 1362 134Q1362 161 1348.5 173Q1335 185 1312 185Z" glyph-name="glyph01170" horiz-adv-x="1520" /><glyph d="M1261 318Q1231 318 1209 300.5Q1187 283 1185 236Q1199 254 1225.5 261Q1252 268 1274 268Q1415 268 1415 134Q1415 59 1370 22.5Q1325 -14 1253 -14Q1162 -14 1120.5 38.5Q1079 91 1079 202Q1079 311 1127 363.5Q1175 416 1264 416Q1334 416 1372 384.5Q1410 353 1415 295L1308 284Q1302 318 1261 318ZM305 0H164L684 764H826ZM652 0V102H777V266Q760 255 724.5 242.5Q689 230 644 225V330Q697 341 737 364Q777 387 800 416H884V102H1006V0ZM79 362 205 609 233 662 185 661H38V764H364V694L196 362ZM1256 185Q1230 185 1212 171.5Q1194 158 1193 130V128Q1195 106 1212.5 95Q1230 84 1251 84Q1274 84 1290 96Q1306 108 1306 134Q1306 161 1292.5 173Q1279 185 1256 185Z" glyph-name="glyph01171" horiz-adv-x="1464" /><glyph d="M202 446Q232 446 254 463.5Q276 481 278 528Q264 510 237.5 503Q211 496 189 496Q48 496 48 630Q48 705 93 741.5Q138 778 210 778Q301 778 342.5 725.5Q384 673 384 562Q384 453 336 400.5Q288 348 199 348Q129 348 91 379.5Q53 411 48 469L155 480Q161 446 202 446ZM1326 318Q1296 318 1274 300.5Q1252 283 1250 236Q1264 254 1290.5 261Q1317 268 1339 268Q1480 268 1480 134Q1480 59 1435 22.5Q1390 -14 1318 -14Q1227 -14 1185.5 38.5Q1144 91 1144 202Q1144 311 1192 363.5Q1240 416 1329 416Q1399 416 1437 384.5Q1475 353 1480 295L1373 284Q1367 318 1326 318ZM370 0H229L749 764H891ZM717 0V102H842V266Q825 255 789.5 242.5Q754 230 709 225V330Q762 341 802 364Q842 387 865 416H949V102H1071V0ZM207 579Q233 579 251 592.5Q269 606 270 634V636Q268 658 250.5 669Q233 680 212 680Q189 680 173 668Q157 656 157 630Q157 603 170.5 591Q184 579 207 579ZM1321 185Q1295 185 1277 171.5Q1259 158 1258 130V128Q1260 106 1277.5 95Q1295 84 1316 84Q1339 84 1355 96Q1371 108 1371 134Q1371 161 1357.5 173Q1344 185 1321 185Z" glyph-name="glyph01172" horiz-adv-x="1529" /><glyph d="M1748 318Q1718 318 1696 300.5Q1674 283 1672 236Q1686 254 1712.5 261Q1739 268 1761 268Q1902 268 1902 134Q1902 59 1857 22.5Q1812 -14 1740 -14Q1649 -14 1607.5 38.5Q1566 91 1566 202Q1566 311 1614 363.5Q1662 416 1751 416Q1821 416 1859 384.5Q1897 353 1902 295L1795 284Q1789 318 1748 318ZM792 0H651L1171 764H1313ZM36 362V464H161V628Q144 617 108.5 604.5Q73 592 28 587V692Q81 703 121 726Q161 749 184 778H268V464H390V362ZM466 362V464H591V628Q574 617 538.5 604.5Q503 592 458 587V692Q511 703 551 726Q591 749 614 778H698V464H820V362ZM1139 0V102H1264V266Q1247 255 1211.5 242.5Q1176 230 1131 225V330Q1184 341 1224 364Q1264 387 1287 416H1371V102H1493V0ZM1743 185Q1717 185 1699 171.5Q1681 158 1680 130V128Q1682 106 1699.5 95Q1717 84 1738 84Q1761 84 1777 96Q1793 108 1793 134Q1793 161 1779.5 173Q1766 185 1743 185Z" glyph-name="glyph01173" horiz-adv-x="1951" /><glyph d="M1754 318Q1724 318 1702 300.5Q1680 283 1678 236Q1692 254 1718.5 261Q1745 268 1767 268Q1908 268 1908 134Q1908 59 1863 22.5Q1818 -14 1746 -14Q1655 -14 1613.5 38.5Q1572 91 1572 202Q1572 311 1620 363.5Q1668 416 1757 416Q1827 416 1865 384.5Q1903 353 1908 295L1801 284Q1795 318 1754 318ZM798 0H657L1177 764H1319ZM821 480Q821 422 776 385Q731 348 638 348Q474 348 463 489L572 497Q575 470 593 460Q611 450 642 450Q714 450 714 493Q714 517 695 524Q676 531 650 531H582V605H651Q672 605 686.5 612.5Q701 620 701 640Q701 659 686.5 669Q672 679 646 679Q616 678 599.5 668.5Q583 659 580 632L471 640Q476 712 518 745Q560 778 643 778Q676 778 706 771Q736 764 759 749Q782 734 796 709.5Q810 685 810 650Q810 617 798 599Q786 581 772 570Q791 561 806 539.5Q821 518 821 480ZM1145 0V102H1270V266Q1253 255 1217.5 242.5Q1182 230 1137 225V330Q1190 341 1230 364Q1270 387 1293 416H1377V102H1499V0ZM36 362V464H161V628Q144 617 108.5 604.5Q73 592 28 587V692Q81 703 121 726Q161 749 184 778H268V464H390V362ZM1749 185Q1723 185 1705 171.5Q1687 158 1686 130V128Q1688 106 1705.5 95Q1723 84 1744 84Q1767 84 1783 96Q1799 108 1799 134Q1799 161 1785.5 173Q1772 185 1749 185Z" glyph-name="glyph01174" horiz-adv-x="1957" /><glyph d="M1740 318Q1710 318 1688 300.5Q1666 283 1664 236Q1678 254 1704.5 261Q1731 268 1753 268Q1894 268 1894 134Q1894 59 1849 22.5Q1804 -14 1732 -14Q1641 -14 1599.5 38.5Q1558 91 1558 202Q1558 311 1606 363.5Q1654 416 1743 416Q1813 416 1851 384.5Q1889 353 1894 295L1787 284Q1781 318 1740 318ZM784 0H643L1163 764H1305ZM484 545 507 764H786V662H597L592 622Q603 627 620 630Q637 633 653 633Q688 633 716.5 626Q745 619 765 603Q785 587 796 561Q807 535 807 497Q807 457 793.5 428.5Q780 400 757 382Q734 364 703 355.5Q672 347 637 347Q554 347 513.5 381.5Q473 416 468 485L577 494Q581 466 596 455.5Q611 445 638 446Q661 446 679 458.5Q697 471 698 499Q698 525 684.5 539.5Q671 554 641 554Q621 555 603.5 547.5Q586 540 577 525ZM1131 0V102H1256V266Q1239 255 1203.5 242.5Q1168 230 1123 225V330Q1176 341 1216 364Q1256 387 1279 416H1363V102H1485V0ZM36 362V464H161V628Q144 617 108.5 604.5Q73 592 28 587V692Q81 703 121 726Q161 749 184 778H268V464H390V362ZM1735 185Q1709 185 1691 171.5Q1673 158 1672 130V128Q1674 106 1691.5 95Q1709 84 1730 84Q1753 84 1769 96Q1785 108 1785 134Q1785 161 1771.5 173Q1758 185 1735 185Z" glyph-name="glyph01175" horiz-adv-x="1943" /><glyph d="M362 0H221L741 764H883ZM1340 416Q1375 416 1405 407.5Q1435 399 1456.5 382Q1478 365 1490.5 340Q1503 315 1503 281Q1503 247 1491.5 225.5Q1480 204 1461 190Q1442 176 1417 167.5Q1392 159 1364 151Q1337 143 1313 131.5Q1289 120 1284 100L1355 102H1512V0H1163Q1162 62 1173 101.5Q1184 141 1205.5 165.5Q1227 190 1257.5 205Q1288 220 1326 232Q1361 244 1378.5 251.5Q1396 259 1396 278Q1396 299 1379 307.5Q1362 316 1342 316Q1312 316 1293.5 305.5Q1275 295 1272 264L1163 273Q1168 348 1213.5 382Q1259 416 1340 416ZM1071 118Q1071 60 1026 23Q981 -14 888 -14Q724 -14 713 127L822 135Q825 108 843 98Q861 88 892 88Q964 88 964 131Q964 155 945 162Q926 169 900 169H832V243H901Q922 243 936.5 250.5Q951 258 951 278Q951 297 936.5 307Q922 317 896 317Q866 316 849.5 306.5Q833 297 830 270L721 278Q726 350 768 383Q810 416 893 416Q926 416 956 409Q986 402 1009 387Q1032 372 1046 347.5Q1060 323 1060 288Q1060 255 1048 237Q1036 219 1022 208Q1041 199 1056 177.5Q1071 156 1071 118ZM36 362V464H161V628Q144 617 108.5 604.5Q73 592 28 587V692Q81 703 121 726Q161 749 184 778H268V464H390V362Z" glyph-name="glyph01176" horiz-adv-x="1557" /><glyph d="M398 480Q398 422 353 385Q308 348 215 348Q51 348 40 489L149 497Q152 470 170 460Q188 450 219 450Q291 450 291 493Q291 517 272 524Q253 531 227 531H159V605H228Q249 605 263.5 612.5Q278 620 278 640Q278 659 263.5 669Q249 679 223 679Q193 678 176.5 668.5Q160 659 157 632L48 640Q53 712 95 745Q137 778 220 778Q253 778 283 771Q313 764 336 749Q359 734 373 709.5Q387 685 387 650Q387 617 375 599Q363 581 349 570Q368 561 383 539.5Q398 518 398 480ZM375 0H234L754 764H896ZM1084 118Q1084 60 1039 23Q994 -14 901 -14Q737 -14 726 127L835 135Q838 108 856 98Q874 88 905 88Q977 88 977 131Q977 155 958 162Q939 169 913 169H845V243H914Q935 243 949.5 250.5Q964 258 964 278Q964 297 949.5 307Q935 317 909 317Q879 316 862.5 306.5Q846 297 843 270L734 278Q739 350 781 383Q823 416 906 416Q939 416 969 409Q999 402 1022 387Q1045 372 1059 347.5Q1073 323 1073 288Q1073 255 1061 237Q1049 219 1035 208Q1054 199 1069 177.5Q1084 156 1084 118ZM1353 416Q1388 416 1418 407.5Q1448 399 1469.5 382Q1491 365 1503.5 340Q1516 315 1516 281Q1516 247 1504.5 225.5Q1493 204 1474 190Q1455 176 1430 167.5Q1405 159 1377 151Q1350 143 1326 131.5Q1302 120 1297 100L1368 102H1525V0H1176Q1175 62 1186 101.5Q1197 141 1218.5 165.5Q1240 190 1270.5 205Q1301 220 1339 232Q1374 244 1391.5 251.5Q1409 259 1409 278Q1409 299 1392 307.5Q1375 316 1355 316Q1325 316 1306.5 305.5Q1288 295 1285 264L1176 273Q1181 348 1226.5 382Q1272 416 1353 416Z" glyph-name="glyph01177" horiz-adv-x="1570" /><glyph d="M61 545 84 764H363V662H174L169 622Q180 627 197 630Q214 633 230 633Q265 633 293.5 626Q322 619 342 603Q362 587 373 561Q384 535 384 497Q384 457 370.5 428.5Q357 400 334 382Q311 364 280 355.5Q249 347 214 347Q131 347 90.5 381.5Q50 416 45 485L154 494Q158 466 173 455.5Q188 445 215 446Q238 446 256 458.5Q274 471 275 499Q275 525 261.5 539.5Q248 554 218 554Q198 555 180.5 547.5Q163 540 154 525ZM361 0H220L740 764H882ZM1070 118Q1070 60 1025 23Q980 -14 887 -14Q723 -14 712 127L821 135Q824 108 842 98Q860 88 891 88Q963 88 963 131Q963 155 944 162Q925 169 899 169H831V243H900Q921 243 935.5 250.5Q950 258 950 278Q950 297 935.5 307Q921 317 895 317Q865 316 848.5 306.5Q832 297 829 270L720 278Q725 350 767 383Q809 416 892 416Q925 416 955 409Q985 402 1008 387Q1031 372 1045 347.5Q1059 323 1059 288Q1059 255 1047 237Q1035 219 1021 208Q1040 199 1055 177.5Q1070 156 1070 118ZM1339 416Q1374 416 1404 407.5Q1434 399 1455.5 382Q1477 365 1489.5 340Q1502 315 1502 281Q1502 247 1490.5 225.5Q1479 204 1460 190Q1441 176 1416 167.5Q1391 159 1363 151Q1336 143 1312 131.5Q1288 120 1283 100L1354 102H1511V0H1162Q1161 62 1172 101.5Q1183 141 1204.5 165.5Q1226 190 1256.5 205Q1287 220 1325 232Q1360 244 1377.5 251.5Q1395 259 1395 278Q1395 299 1378 307.5Q1361 316 1341 316Q1311 316 1292.5 305.5Q1274 295 1271 264L1162 273Q1167 348 1212.5 382Q1258 416 1339 416Z" glyph-name="glyph01178" horiz-adv-x="1556" /><glyph d="M79 362 205 609 233 662 185 661H38V764H364V694L196 362ZM305 0H164L684 764H826ZM1014 118Q1014 60 969 23Q924 -14 831 -14Q667 -14 656 127L765 135Q768 108 786 98Q804 88 835 88Q907 88 907 131Q907 155 888 162Q869 169 843 169H775V243H844Q865 243 879.5 250.5Q894 258 894 278Q894 297 879.5 307Q865 317 839 317Q809 316 792.5 306.5Q776 297 773 270L664 278Q669 350 711 383Q753 416 836 416Q869 416 899 409Q929 402 952 387Q975 372 989 347.5Q1003 323 1003 288Q1003 255 991 237Q979 219 965 208Q984 199 999 177.5Q1014 156 1014 118ZM1283 416Q1318 416 1348 407.5Q1378 399 1399.5 382Q1421 365 1433.5 340Q1446 315 1446 281Q1446 247 1434.5 225.5Q1423 204 1404 190Q1385 176 1360 167.5Q1335 159 1307 151Q1280 143 1256 131.5Q1232 120 1227 100L1298 102H1455V0H1106Q1105 62 1116 101.5Q1127 141 1148.5 165.5Q1170 190 1200.5 205Q1231 220 1269 232Q1304 244 1321.5 251.5Q1339 259 1339 278Q1339 299 1322 307.5Q1305 316 1285 316Q1255 316 1236.5 305.5Q1218 295 1215 264L1106 273Q1111 348 1156.5 382Q1202 416 1283 416Z" glyph-name="glyph01179" horiz-adv-x="1500" /><glyph d="M202 446Q232 446 254 463.5Q276 481 278 528Q264 510 237.5 503Q211 496 189 496Q48 496 48 630Q48 705 93 741.5Q138 778 210 778Q301 778 342.5 725.5Q384 673 384 562Q384 453 336 400.5Q288 348 199 348Q129 348 91 379.5Q53 411 48 469L155 480Q161 446 202 446ZM207 579Q233 579 251 592.5Q269 606 270 634V636Q268 658 250.5 669Q233 680 212 680Q189 680 173 668Q157 656 157 630Q157 603 170.5 591Q184 579 207 579ZM370 0H229L749 764H891ZM1079 118Q1079 60 1034 23Q989 -14 896 -14Q732 -14 721 127L830 135Q833 108 851 98Q869 88 900 88Q972 88 972 131Q972 155 953 162Q934 169 908 169H840V243H909Q930 243 944.5 250.5Q959 258 959 278Q959 297 944.5 307Q930 317 904 317Q874 316 857.5 306.5Q841 297 838 270L729 278Q734 350 776 383Q818 416 901 416Q934 416 964 409Q994 402 1017 387Q1040 372 1054 347.5Q1068 323 1068 288Q1068 255 1056 237Q1044 219 1030 208Q1049 199 1064 177.5Q1079 156 1079 118ZM1348 416Q1383 416 1413 407.5Q1443 399 1464.5 382Q1486 365 1498.5 340Q1511 315 1511 281Q1511 247 1499.5 225.5Q1488 204 1469 190Q1450 176 1425 167.5Q1400 159 1372 151Q1345 143 1321 131.5Q1297 120 1292 100L1363 102H1520V0H1171Q1170 62 1181 101.5Q1192 141 1213.5 165.5Q1235 190 1265.5 205Q1296 220 1334 232Q1369 244 1386.5 251.5Q1404 259 1404 278Q1404 299 1387 307.5Q1370 316 1350 316Q1320 316 1301.5 305.5Q1283 295 1280 264L1171 273Q1176 348 1221.5 382Q1267 416 1348 416Z" glyph-name="glyph01180" horiz-adv-x="1565" /><glyph d="M792 0H651L1171 764H1313ZM1770 416Q1805 416 1835 407.5Q1865 399 1886.5 382Q1908 365 1920.5 340Q1933 315 1933 281Q1933 247 1921.5 225.5Q1910 204 1891 190Q1872 176 1847 167.5Q1822 159 1794 151Q1767 143 1743 131.5Q1719 120 1714 100L1785 102H1942V0H1593Q1592 62 1603 101.5Q1614 141 1635.5 165.5Q1657 190 1687.5 205Q1718 220 1756 232Q1791 244 1808.5 251.5Q1826 259 1826 278Q1826 299 1809 307.5Q1792 316 1772 316Q1742 316 1723.5 305.5Q1705 295 1702 264L1593 273Q1598 348 1643.5 382Q1689 416 1770 416ZM1501 118Q1501 60 1456 23Q1411 -14 1318 -14Q1154 -14 1143 127L1252 135Q1255 108 1273 98Q1291 88 1322 88Q1394 88 1394 131Q1394 155 1375 162Q1356 169 1330 169H1262V243H1331Q1352 243 1366.5 250.5Q1381 258 1381 278Q1381 297 1366.5 307Q1352 317 1326 317Q1296 316 1279.5 306.5Q1263 297 1260 270L1151 278Q1156 350 1198 383Q1240 416 1323 416Q1356 416 1386 409Q1416 402 1439 387Q1462 372 1476 347.5Q1490 323 1490 288Q1490 255 1478 237Q1466 219 1452 208Q1471 199 1486 177.5Q1501 156 1501 118ZM466 362V464H591V628Q574 617 538.5 604.5Q503 592 458 587V692Q511 703 551 726Q591 749 614 778H698V464H820V362ZM36 362V464H161V628Q144 617 108.5 604.5Q73 592 28 587V692Q81 703 121 726Q161 749 184 778H268V464H390V362Z" glyph-name="glyph01181" horiz-adv-x="1987" /><glyph d="M798 0H657L1177 764H1319ZM1776 416Q1811 416 1841 407.5Q1871 399 1892.5 382Q1914 365 1926.5 340Q1939 315 1939 281Q1939 247 1927.5 225.5Q1916 204 1897 190Q1878 176 1853 167.5Q1828 159 1800 151Q1773 143 1749 131.5Q1725 120 1720 100L1791 102H1948V0H1599Q1598 62 1609 101.5Q1620 141 1641.5 165.5Q1663 190 1693.5 205Q1724 220 1762 232Q1797 244 1814.5 251.5Q1832 259 1832 278Q1832 299 1815 307.5Q1798 316 1778 316Q1748 316 1729.5 305.5Q1711 295 1708 264L1599 273Q1604 348 1649.5 382Q1695 416 1776 416ZM821 480Q821 422 776 385Q731 348 638 348Q474 348 463 489L572 497Q575 470 593 460Q611 450 642 450Q714 450 714 493Q714 517 695 524Q676 531 650 531H582V605H651Q672 605 686.5 612.5Q701 620 701 640Q701 659 686.5 669Q672 679 646 679Q616 678 599.5 668.5Q583 659 580 632L471 640Q476 712 518 745Q560 778 643 778Q676 778 706 771Q736 764 759 749Q782 734 796 709.5Q810 685 810 650Q810 617 798 599Q786 581 772 570Q791 561 806 539.5Q821 518 821 480ZM1507 118Q1507 60 1462 23Q1417 -14 1324 -14Q1160 -14 1149 127L1258 135Q1261 108 1279 98Q1297 88 1328 88Q1400 88 1400 131Q1400 155 1381 162Q1362 169 1336 169H1268V243H1337Q1358 243 1372.5 250.5Q1387 258 1387 278Q1387 297 1372.5 307Q1358 317 1332 317Q1302 316 1285.5 306.5Q1269 297 1266 270L1157 278Q1162 350 1204 383Q1246 416 1329 416Q1362 416 1392 409Q1422 402 1445 387Q1468 372 1482 347.5Q1496 323 1496 288Q1496 255 1484 237Q1472 219 1458 208Q1477 199 1492 177.5Q1507 156 1507 118ZM36 362V464H161V628Q144 617 108.5 604.5Q73 592 28 587V692Q81 703 121 726Q161 749 184 778H268V464H390V362Z" glyph-name="glyph01182" horiz-adv-x="1993" /><glyph d="M784 0H643L1163 764H1305ZM1762 416Q1797 416 1827 407.5Q1857 399 1878.5 382Q1900 365 1912.5 340Q1925 315 1925 281Q1925 247 1913.5 225.5Q1902 204 1883 190Q1864 176 1839 167.5Q1814 159 1786 151Q1759 143 1735 131.5Q1711 120 1706 100L1777 102H1934V0H1585Q1584 62 1595 101.5Q1606 141 1627.5 165.5Q1649 190 1679.5 205Q1710 220 1748 232Q1783 244 1800.5 251.5Q1818 259 1818 278Q1818 299 1801 307.5Q1784 316 1764 316Q1734 316 1715.5 305.5Q1697 295 1694 264L1585 273Q1590 348 1635.5 382Q1681 416 1762 416ZM484 545 507 764H786V662H597L592 622Q603 627 620 630Q637 633 653 633Q688 633 716.5 626Q745 619 765 603Q785 587 796 561Q807 535 807 497Q807 457 793.5 428.5Q780 400 757 382Q734 364 703 355.5Q672 347 637 347Q554 347 513.5 381.5Q473 416 468 485L577 494Q581 466 596 455.5Q611 445 638 446Q661 446 679 458.5Q697 471 698 499Q698 525 684.5 539.5Q671 554 641 554Q621 555 603.5 547.5Q586 540 577 525ZM1493 118Q1493 60 1448 23Q1403 -14 1310 -14Q1146 -14 1135 127L1244 135Q1247 108 1265 98Q1283 88 1314 88Q1386 88 1386 131Q1386 155 1367 162Q1348 169 1322 169H1254V243H1323Q1344 243 1358.5 250.5Q1373 258 1373 278Q1373 297 1358.5 307Q1344 317 1318 317Q1288 316 1271.5 306.5Q1255 297 1252 270L1143 278Q1148 350 1190 383Q1232 416 1315 416Q1348 416 1378 409Q1408 402 1431 387Q1454 372 1468 347.5Q1482 323 1482 288Q1482 255 1470 237Q1458 219 1444 208Q1463 199 1478 177.5Q1493 156 1493 118ZM36 362V464H161V628Q144 617 108.5 604.5Q73 592 28 587V692Q81 703 121 726Q161 749 184 778H268V464H390V362Z" glyph-name="glyph01183" horiz-adv-x="1979" /><glyph d="M708 0H567L1087 764H1229ZM1686 416Q1721 416 1751 407.5Q1781 399 1802.5 382Q1824 365 1836.5 340Q1849 315 1849 281Q1849 247 1837.5 225.5Q1826 204 1807 190Q1788 176 1763 167.5Q1738 159 1710 151Q1683 143 1659 131.5Q1635 120 1630 100L1701 102H1858V0H1509Q1508 62 1519 101.5Q1530 141 1551.5 165.5Q1573 190 1603.5 205Q1634 220 1672 232Q1707 244 1724.5 251.5Q1742 259 1742 278Q1742 299 1725 307.5Q1708 316 1688 316Q1658 316 1639.5 305.5Q1621 295 1618 264L1509 273Q1514 348 1559.5 382Q1605 416 1686 416ZM1417 118Q1417 60 1372 23Q1327 -14 1234 -14Q1070 -14 1059 127L1168 135Q1171 108 1189 98Q1207 88 1238 88Q1310 88 1310 131Q1310 155 1291 162Q1272 169 1246 169H1178V243H1247Q1268 243 1282.5 250.5Q1297 258 1297 278Q1297 297 1282.5 307Q1268 317 1242 317Q1212 316 1195.5 306.5Q1179 297 1176 270L1067 278Q1072 350 1114 383Q1156 416 1239 416Q1272 416 1302 409Q1332 402 1355 387Q1378 372 1392 347.5Q1406 323 1406 288Q1406 255 1394 237Q1382 219 1368 208Q1387 199 1402 177.5Q1417 156 1417 118ZM36 362V464H161V628Q144 617 108.5 604.5Q73 592 28 587V692Q81 703 121 726Q161 749 184 778H268V464H390V362ZM482 362 608 609 636 662 588 661H441V764H767V694L599 362Z" glyph-name="glyph01184" horiz-adv-x="1903" /><glyph d="M625 446Q655 446 677 463.5Q699 481 701 528Q687 510 660.5 503Q634 496 612 496Q471 496 471 630Q471 705 516 741.5Q561 778 633 778Q724 778 765.5 725.5Q807 673 807 562Q807 453 759 400.5Q711 348 622 348Q552 348 514 379.5Q476 411 471 469L578 480Q584 446 625 446ZM793 0H652L1172 764H1314ZM1771 416Q1806 416 1836 407.5Q1866 399 1887.5 382Q1909 365 1921.5 340Q1934 315 1934 281Q1934 247 1922.5 225.5Q1911 204 1892 190Q1873 176 1848 167.5Q1823 159 1795 151Q1768 143 1744 131.5Q1720 120 1715 100L1786 102H1943V0H1594Q1593 62 1604 101.5Q1615 141 1636.5 165.5Q1658 190 1688.5 205Q1719 220 1757 232Q1792 244 1809.5 251.5Q1827 259 1827 278Q1827 299 1810 307.5Q1793 316 1773 316Q1743 316 1724.5 305.5Q1706 295 1703 264L1594 273Q1599 348 1644.5 382Q1690 416 1771 416ZM1502 118Q1502 60 1457 23Q1412 -14 1319 -14Q1155 -14 1144 127L1253 135Q1256 108 1274 98Q1292 88 1323 88Q1395 88 1395 131Q1395 155 1376 162Q1357 169 1331 169H1263V243H1332Q1353 243 1367.5 250.5Q1382 258 1382 278Q1382 297 1367.5 307Q1353 317 1327 317Q1297 316 1280.5 306.5Q1264 297 1261 270L1152 278Q1157 350 1199 383Q1241 416 1324 416Q1357 416 1387 409Q1417 402 1440 387Q1463 372 1477 347.5Q1491 323 1491 288Q1491 255 1479 237Q1467 219 1453 208Q1472 199 1487 177.5Q1502 156 1502 118ZM36 362V464H161V628Q144 617 108.5 604.5Q73 592 28 587V692Q81 703 121 726Q161 749 184 778H268V464H390V362ZM630 579Q656 579 674 592.5Q692 606 693 634V636Q691 658 673.5 669Q656 680 635 680Q612 680 596 668Q580 656 580 630Q580 603 593.5 591Q607 579 630 579Z" glyph-name="glyph01185" horiz-adv-x="1988" /><glyph d="M793 0H652L1172 764H1314ZM225 778Q260 778 290 769.5Q320 761 341.5 744Q363 727 375.5 702Q388 677 388 643Q388 609 376.5 587.5Q365 566 346 552Q327 538 302 529.5Q277 521 249 513Q222 505 198 493.5Q174 482 169 462L240 464H397V362H48Q47 424 58 463.5Q69 503 90.5 527.5Q112 552 142.5 567Q173 582 211 594Q246 606 263.5 613.5Q281 621 281 640Q281 661 264 669.5Q247 678 227 678Q197 678 178.5 667.5Q160 657 157 626L48 635Q53 710 98.5 744Q144 778 225 778ZM1771 416Q1806 416 1836 407.5Q1866 399 1887.5 382Q1909 365 1921.5 340Q1934 315 1934 281Q1934 247 1922.5 225.5Q1911 204 1892 190Q1873 176 1848 167.5Q1823 159 1795 151Q1768 143 1744 131.5Q1720 120 1715 100L1786 102H1943V0H1594Q1593 62 1604 101.5Q1615 141 1636.5 165.5Q1658 190 1688.5 205Q1719 220 1757 232Q1792 244 1809.5 251.5Q1827 259 1827 278Q1827 299 1810 307.5Q1793 316 1773 316Q1743 316 1724.5 305.5Q1706 295 1703 264L1594 273Q1599 348 1644.5 382Q1690 416 1771 416ZM1502 118Q1502 60 1457 23Q1412 -14 1319 -14Q1155 -14 1144 127L1253 135Q1256 108 1274 98Q1292 88 1323 88Q1395 88 1395 131Q1395 155 1376 162Q1357 169 1331 169H1263V243H1332Q1353 243 1367.5 250.5Q1382 258 1382 278Q1382 297 1367.5 307Q1353 317 1327 317Q1297 316 1280.5 306.5Q1264 297 1261 270L1152 278Q1157 350 1199 383Q1241 416 1324 416Q1357 416 1387 409Q1417 402 1440 387Q1463 372 1477 347.5Q1491 323 1491 288Q1491 255 1479 237Q1467 219 1453 208Q1472 199 1487 177.5Q1502 156 1502 118ZM467 362V464H592V628Q575 617 539.5 604.5Q504 592 459 587V692Q512 703 552 726Q592 749 615 778H699V464H821V362Z" glyph-name="glyph01186" horiz-adv-x="1987" /><glyph d="M225 778Q260 778 290 769.5Q320 761 341.5 744Q363 727 375.5 702Q388 677 388 643Q388 609 376.5 587.5Q365 566 346 552Q327 538 302 529.5Q277 521 249 513Q222 505 198 493.5Q174 482 169 462L240 464H397V362H48Q47 424 58 463.5Q69 503 90.5 527.5Q112 552 142.5 567Q173 582 211 594Q246 606 263.5 613.5Q281 621 281 640Q281 661 264 669.5Q247 678 227 678Q197 678 178.5 667.5Q160 657 157 626L48 635Q53 710 98.5 744Q144 778 225 778ZM840 480Q840 422 795 385Q750 348 657 348Q493 348 482 489L591 497Q594 470 612 460Q630 450 661 450Q733 450 733 493Q733 517 714 524Q695 531 669 531H601V605H670Q691 605 705.5 612.5Q720 620 720 640Q720 659 705.5 669Q691 679 665 679Q635 678 618.5 668.5Q602 659 599 632L490 640Q495 712 537 745Q579 778 662 778Q695 778 725 771Q755 764 778 749Q801 734 815 709.5Q829 685 829 650Q829 617 817 599Q805 581 791 570Q810 561 825 539.5Q840 518 840 480ZM817 0H676L1196 764H1338ZM1526 118Q1526 60 1481 23Q1436 -14 1343 -14Q1179 -14 1168 127L1277 135Q1280 108 1298 98Q1316 88 1347 88Q1419 88 1419 131Q1419 155 1400 162Q1381 169 1355 169H1287V243H1356Q1377 243 1391.5 250.5Q1406 258 1406 278Q1406 297 1391.5 307Q1377 317 1351 317Q1321 316 1304.5 306.5Q1288 297 1285 270L1176 278Q1181 350 1223 383Q1265 416 1348 416Q1381 416 1411 409Q1441 402 1464 387Q1487 372 1501 347.5Q1515 323 1515 288Q1515 255 1503 237Q1491 219 1477 208Q1496 199 1511 177.5Q1526 156 1526 118ZM1795 416Q1830 416 1860 407.5Q1890 399 1911.5 382Q1933 365 1945.5 340Q1958 315 1958 281Q1958 247 1946.5 225.5Q1935 204 1916 190Q1897 176 1872 167.5Q1847 159 1819 151Q1792 143 1768 131.5Q1744 120 1739 100L1810 102H1967V0H1618Q1617 62 1628 101.5Q1639 141 1660.5 165.5Q1682 190 1712.5 205Q1743 220 1781 232Q1816 244 1833.5 251.5Q1851 259 1851 278Q1851 299 1834 307.5Q1817 316 1797 316Q1767 316 1748.5 305.5Q1730 295 1727 264L1618 273Q1623 348 1668.5 382Q1714 416 1795 416Z" glyph-name="glyph01187" horiz-adv-x="2011" /><glyph d="M225 778Q260 778 290 769.5Q320 761 341.5 744Q363 727 375.5 702Q388 677 388 643Q388 609 376.5 587.5Q365 566 346 552Q327 538 302 529.5Q277 521 249 513Q222 505 198 493.5Q174 482 169 462L240 464H397V362H48Q47 424 58 463.5Q69 503 90.5 527.5Q112 552 142.5 567Q173 582 211 594Q246 606 263.5 613.5Q281 621 281 640Q281 661 264 669.5Q247 678 227 678Q197 678 178.5 667.5Q160 657 157 626L48 635Q53 710 98.5 744Q144 778 225 778ZM503 545 526 764H805V662H616L611 622Q622 627 639 630Q656 633 672 633Q707 633 735.5 626Q764 619 784 603Q804 587 815 561Q826 535 826 497Q826 457 812.5 428.5Q799 400 776 382Q753 364 722 355.5Q691 347 656 347Q573 347 532.5 381.5Q492 416 487 485L596 494Q600 466 615 455.5Q630 445 657 446Q680 446 698 458.5Q716 471 717 499Q717 525 703.5 539.5Q690 554 660 554Q640 555 622.5 547.5Q605 540 596 525ZM803 0H662L1182 764H1324ZM1512 118Q1512 60 1467 23Q1422 -14 1329 -14Q1165 -14 1154 127L1263 135Q1266 108 1284 98Q1302 88 1333 88Q1405 88 1405 131Q1405 155 1386 162Q1367 169 1341 169H1273V243H1342Q1363 243 1377.5 250.5Q1392 258 1392 278Q1392 297 1377.5 307Q1363 317 1337 317Q1307 316 1290.5 306.5Q1274 297 1271 270L1162 278Q1167 350 1209 383Q1251 416 1334 416Q1367 416 1397 409Q1427 402 1450 387Q1473 372 1487 347.5Q1501 323 1501 288Q1501 255 1489 237Q1477 219 1463 208Q1482 199 1497 177.5Q1512 156 1512 118ZM1781 416Q1816 416 1846 407.5Q1876 399 1897.5 382Q1919 365 1931.5 340Q1944 315 1944 281Q1944 247 1932.5 225.5Q1921 204 1902 190Q1883 176 1858 167.5Q1833 159 1805 151Q1778 143 1754 131.5Q1730 120 1725 100L1796 102H1953V0H1604Q1603 62 1614 101.5Q1625 141 1646.5 165.5Q1668 190 1698.5 205Q1729 220 1767 232Q1802 244 1819.5 251.5Q1837 259 1837 278Q1837 299 1820 307.5Q1803 316 1783 316Q1753 316 1734.5 305.5Q1716 295 1713 264L1604 273Q1609 348 1654.5 382Q1700 416 1781 416Z" glyph-name="glyph01188" horiz-adv-x="1997" /><glyph d="M225 778Q260 778 290 769.5Q320 761 341.5 744Q363 727 375.5 702Q388 677 388 643Q388 609 376.5 587.5Q365 566 346 552Q327 538 302 529.5Q277 521 249 513Q222 505 198 493.5Q174 482 169 462L240 464H397V362H48Q47 424 58 463.5Q69 503 90.5 527.5Q112 552 142.5 567Q173 582 211 594Q246 606 263.5 613.5Q281 621 281 640Q281 661 264 669.5Q247 678 227 678Q197 678 178.5 667.5Q160 657 157 626L48 635Q53 710 98.5 744Q144 778 225 778ZM521 362 647 609 675 662 627 661H480V764H806V694L638 362ZM747 0H606L1126 764H1268ZM1456 118Q1456 60 1411 23Q1366 -14 1273 -14Q1109 -14 1098 127L1207 135Q1210 108 1228 98Q1246 88 1277 88Q1349 88 1349 131Q1349 155 1330 162Q1311 169 1285 169H1217V243H1286Q1307 243 1321.5 250.5Q1336 258 1336 278Q1336 297 1321.5 307Q1307 317 1281 317Q1251 316 1234.5 306.5Q1218 297 1215 270L1106 278Q1111 350 1153 383Q1195 416 1278 416Q1311 416 1341 409Q1371 402 1394 387Q1417 372 1431 347.5Q1445 323 1445 288Q1445 255 1433 237Q1421 219 1407 208Q1426 199 1441 177.5Q1456 156 1456 118ZM1725 416Q1760 416 1790 407.5Q1820 399 1841.5 382Q1863 365 1875.5 340Q1888 315 1888 281Q1888 247 1876.5 225.5Q1865 204 1846 190Q1827 176 1802 167.5Q1777 159 1749 151Q1722 143 1698 131.5Q1674 120 1669 100L1740 102H1897V0H1548Q1547 62 1558 101.5Q1569 141 1590.5 165.5Q1612 190 1642.5 205Q1673 220 1711 232Q1746 244 1763.5 251.5Q1781 259 1781 278Q1781 299 1764 307.5Q1747 316 1727 316Q1697 316 1678.5 305.5Q1660 295 1657 264L1548 273Q1553 348 1598.5 382Q1644 416 1725 416Z" glyph-name="glyph01189" horiz-adv-x="1941" /><glyph d="M225 778Q260 778 290 769.5Q320 761 341.5 744Q363 727 375.5 702Q388 677 388 643Q388 609 376.5 587.5Q365 566 346 552Q327 538 302 529.5Q277 521 249 513Q222 505 198 493.5Q174 482 169 462L240 464H397V362H48Q47 424 58 463.5Q69 503 90.5 527.5Q112 552 142.5 567Q173 582 211 594Q246 606 263.5 613.5Q281 621 281 640Q281 661 264 669.5Q247 678 227 678Q197 678 178.5 667.5Q160 657 157 626L48 635Q53 710 98.5 744Q144 778 225 778ZM644 446Q674 446 696 463.5Q718 481 720 528Q706 510 679.5 503Q653 496 631 496Q490 496 490 630Q490 705 535 741.5Q580 778 652 778Q743 778 784.5 725.5Q826 673 826 562Q826 453 778 400.5Q730 348 641 348Q571 348 533 379.5Q495 411 490 469L597 480Q603 446 644 446ZM649 579Q675 579 693 592.5Q711 606 712 634V636Q710 658 692.5 669Q675 680 654 680Q631 680 615 668Q599 656 599 630Q599 603 612.5 591Q626 579 649 579ZM812 0H671L1191 764H1333ZM1521 118Q1521 60 1476 23Q1431 -14 1338 -14Q1174 -14 1163 127L1272 135Q1275 108 1293 98Q1311 88 1342 88Q1414 88 1414 131Q1414 155 1395 162Q1376 169 1350 169H1282V243H1351Q1372 243 1386.5 250.5Q1401 258 1401 278Q1401 297 1386.5 307Q1372 317 1346 317Q1316 316 1299.5 306.5Q1283 297 1280 270L1171 278Q1176 350 1218 383Q1260 416 1343 416Q1376 416 1406 409Q1436 402 1459 387Q1482 372 1496 347.5Q1510 323 1510 288Q1510 255 1498 237Q1486 219 1472 208Q1491 199 1506 177.5Q1521 156 1521 118ZM1790 416Q1825 416 1855 407.5Q1885 399 1906.5 382Q1928 365 1940.5 340Q1953 315 1953 281Q1953 247 1941.5 225.5Q1930 204 1911 190Q1892 176 1867 167.5Q1842 159 1814 151Q1787 143 1763 131.5Q1739 120 1734 100L1805 102H1962V0H1613Q1612 62 1623 101.5Q1634 141 1655.5 165.5Q1677 190 1707.5 205Q1738 220 1776 232Q1811 244 1828.5 251.5Q1846 259 1846 278Q1846 299 1829 307.5Q1812 316 1792 316Q1762 316 1743.5 305.5Q1725 295 1722 264L1613 273Q1618 348 1663.5 382Q1709 416 1790 416Z" glyph-name="glyph01190" horiz-adv-x="2006" /><glyph d="M794 0H653L1173 764H1315ZM1772 416Q1807 416 1837 407.5Q1867 399 1888.5 382Q1910 365 1922.5 340Q1935 315 1935 281Q1935 247 1923.5 225.5Q1912 204 1893 190Q1874 176 1849 167.5Q1824 159 1796 151Q1769 143 1745 131.5Q1721 120 1716 100L1787 102H1944V0H1595Q1594 62 1605 101.5Q1616 141 1637.5 165.5Q1659 190 1689.5 205Q1720 220 1758 232Q1793 244 1810.5 251.5Q1828 259 1828 278Q1828 299 1811 307.5Q1794 316 1774 316Q1744 316 1725.5 305.5Q1707 295 1704 264L1595 273Q1600 348 1645.5 382Q1691 416 1772 416ZM398 480Q398 422 353 385Q308 348 215 348Q51 348 40 489L149 497Q152 470 170 460Q188 450 219 450Q291 450 291 493Q291 517 272 524Q253 531 227 531H159V605H228Q249 605 263.5 612.5Q278 620 278 640Q278 659 263.5 669Q249 679 223 679Q193 678 176.5 668.5Q160 659 157 632L48 640Q53 712 95 745Q137 778 220 778Q253 778 283 771Q313 764 336 749Q359 734 373 709.5Q387 685 387 650Q387 617 375 599Q363 581 349 570Q368 561 383 539.5Q398 518 398 480ZM1503 118Q1503 60 1458 23Q1413 -14 1320 -14Q1156 -14 1145 127L1254 135Q1257 108 1275 98Q1293 88 1324 88Q1396 88 1396 131Q1396 155 1377 162Q1358 169 1332 169H1264V243H1333Q1354 243 1368.5 250.5Q1383 258 1383 278Q1383 297 1368.5 307Q1354 317 1328 317Q1298 316 1281.5 306.5Q1265 297 1262 270L1153 278Q1158 350 1200 383Q1242 416 1325 416Q1358 416 1388 409Q1418 402 1441 387Q1464 372 1478 347.5Q1492 323 1492 288Q1492 255 1480 237Q1468 219 1454 208Q1473 199 1488 177.5Q1503 156 1503 118ZM468 362V464H593V628Q576 617 540.5 604.5Q505 592 460 587V692Q513 703 553 726Q593 749 616 778H700V464H822V362Z" glyph-name="glyph01191" horiz-adv-x="1989" /><glyph d="M111 362V628Q94 617 71.5 609.5Q49 602 28 597V702Q48 710 62.5 717Q77 724 89 733Q101 742 111.5 752.5Q122 763 134 778H218V362Z" glyph-name="glyph01192" horiz-adv-x="300" /><glyph d="M111 0V266Q94 255 71.5 247.5Q49 240 28 235V340Q48 348 62.5 355Q77 362 89 371Q101 380 111.5 390.5Q122 401 134 416H218V0Z" glyph-name="glyph01193" horiz-adv-x="300" /><glyph d="M111 -200V66Q94 55 71.5 47.5Q49 40 28 35V140Q48 148 62.5 155Q77 162 89 171Q101 180 111.5 190.5Q122 201 134 216H218V-200Z" glyph-name="glyph01194" horiz-adv-x="300" /><glyph d="M111 362V628Q94 617 71.5 609.5Q49 602 28 597V702Q48 710 62.5 717Q77 724 89 733Q101 742 111.5 752.5Q122 763 134 778H218V362ZM232 0H91L611 764H753Z" glyph-name="glyph01195" horiz-adv-x="543" /><glyph d="M111 362V628Q94 617 71.5 609.5Q49 602 28 597V702Q48 710 62.5 717Q77 724 89 733Q101 742 111.5 752.5Q122 763 134 778H218V362ZM239 0H98L618 764H760ZM754 416Q789 416 819 407.5Q849 399 870.5 382Q892 365 904.5 340Q917 315 917 281Q917 247 905.5 225.5Q894 204 875 190Q856 176 831 167.5Q806 159 778 151Q751 143 727 131.5Q703 120 698 100L769 102H926V0H577Q576 62 587 101.5Q598 141 619.5 165.5Q641 190 671.5 205Q702 220 740 232Q775 244 792.5 251.5Q810 259 810 278Q810 299 793 307.5Q776 316 756 316Q726 316 707.5 305.5Q689 295 686 264L577 273Q582 348 627.5 382Q673 416 754 416Z" glyph-name="glyph01196" horiz-adv-x="971" /><glyph d="M111 362V628Q94 617 71.5 609.5Q49 602 28 597V702Q48 710 62.5 717Q77 724 89 733Q101 742 111.5 752.5Q122 763 134 778H218V362ZM232 0H91L611 764H753ZM941 118Q941 60 896 23Q851 -14 758 -14Q594 -14 583 127L692 135Q695 108 713 98Q731 88 762 88Q834 88 834 131Q834 155 815 162Q796 169 770 169H702V243H771Q792 243 806.5 250.5Q821 258 821 278Q821 297 806.5 307Q792 317 766 317Q736 316 719.5 306.5Q703 297 700 270L591 278Q596 350 638 383Q680 416 763 416Q796 416 826 409Q856 402 879 387Q902 372 916 347.5Q930 323 930 288Q930 255 918 237Q906 219 892 208Q911 199 926 177.5Q941 156 941 118Z" glyph-name="glyph01197" horiz-adv-x="986" /><glyph d="M239 0H98L618 764H760ZM818 70V0H711V70H521V148L723 416H818V172H886V70ZM111 362V628Q94 617 71.5 609.5Q49 602 28 597V702Q48 710 62.5 717Q77 724 89 733Q101 742 111.5 752.5Q122 763 134 778H218V362ZM711 260 650 172H711Z" glyph-name="glyph01198" horiz-adv-x="923" /><glyph d="M111 362V628Q94 617 71.5 609.5Q49 602 28 597V702Q48 710 62.5 717Q77 724 89 733Q101 742 111.5 752.5Q122 763 134 778H218V362ZM232 0H91L611 764H753ZM604 183 627 402H906V300H717L712 260Q723 265 740 268Q757 271 773 271Q808 271 836.5 264Q865 257 885 241Q905 225 916 199Q927 173 927 135Q927 95 913.5 66.5Q900 38 877 20Q854 2 823 -6.5Q792 -15 757 -15Q674 -15 633.5 19.5Q593 54 588 123L697 132Q701 104 716 93.5Q731 83 758 84Q781 84 799 96.5Q817 109 818 137Q818 163 804.5 177.5Q791 192 761 192Q741 193 723.5 185.5Q706 178 697 163Z" glyph-name="glyph01199" horiz-adv-x="972" /><glyph d="M111 362V628Q94 617 71.5 609.5Q49 602 28 597V702Q48 710 62.5 717Q77 724 89 733Q101 742 111.5 752.5Q122 763 134 778H218V362ZM232 0H91L611 764H753ZM778 318Q748 318 726 300.5Q704 283 702 236Q716 254 742.5 261Q769 268 791 268Q932 268 932 134Q932 59 887 22.5Q842 -14 770 -14Q679 -14 637.5 38.5Q596 91 596 202Q596 311 644 363.5Q692 416 781 416Q851 416 889 384.5Q927 353 932 295L825 284Q819 318 778 318ZM773 185Q747 185 729 171.5Q711 158 710 130V128Q712 106 729.5 95Q747 84 768 84Q791 84 807 96Q823 108 823 134Q823 161 809.5 173Q796 185 773 185Z" glyph-name="glyph01200" horiz-adv-x="981" /><glyph d="M111 362V628Q94 617 71.5 609.5Q49 602 28 597V702Q48 710 62.5 717Q77 724 89 733Q101 742 111.5 752.5Q122 763 134 778H218V362ZM232 0H91L611 764H753ZM761 246Q785 246 802 253Q819 260 819 282Q819 302 802 309.5Q785 317 761 317Q737 317 720 309.5Q703 302 703 282Q703 260 720 253Q737 246 761 246ZM761 85Q790 85 807.5 93.5Q825 102 825 123Q825 148 804.5 155.5Q784 163 761 163Q738 163 717.5 155.5Q697 148 697 123Q697 102 714.5 93.5Q732 85 761 85ZM761 -14Q588 -14 588 112Q588 151 602 173.5Q616 196 637 207Q620 219 609.5 240.5Q599 262 599 291Q599 327 612.5 351Q626 375 648.5 389.5Q671 404 700.5 410Q730 416 761 416Q793 416 822 410Q851 404 873.5 389.5Q896 375 909.5 351Q923 327 923 291Q923 262 912.5 240.5Q902 219 885 207Q906 196 920 173.5Q934 151 934 112Q934 -14 761 -14Z" glyph-name="glyph01201" horiz-adv-x="979" /><glyph d="M111 362V628Q94 617 71.5 609.5Q49 602 28 597V702Q48 710 62.5 717Q77 724 89 733Q101 742 111.5 752.5Q122 763 134 778H218V362ZM232 0H91L611 764H753ZM654 0V266Q637 255 614.5 247.5Q592 240 571 235V340Q591 348 605.5 355Q620 362 632 371Q644 380 654.5 390.5Q665 401 677 416H761V0ZM1078 318Q1048 318 1026 300.5Q1004 283 1002 236Q1016 254 1042.5 261Q1069 268 1091 268Q1232 268 1232 134Q1232 59 1187 22.5Q1142 -14 1070 -14Q979 -14 937.5 38.5Q896 91 896 202Q896 311 944 363.5Q992 416 1081 416Q1151 416 1189 384.5Q1227 353 1232 295L1125 284Q1119 318 1078 318ZM1073 185Q1047 185 1029 171.5Q1011 158 1010 130V128Q1012 106 1029.5 95Q1047 84 1068 84Q1091 84 1107 96Q1123 108 1123 134Q1123 161 1109.5 173Q1096 185 1073 185Z" glyph-name="glyph01202" horiz-adv-x="1281" /><glyph d="M398 480Q398 422 353 385Q308 348 215 348Q51 348 40 489L149 497Q152 470 170 460Q188 450 219 450Q291 450 291 493Q291 517 272 524Q253 531 227 531H159V605H228Q249 605 263.5 612.5Q278 620 278 640Q278 659 263.5 669Q249 679 223 679Q193 678 176.5 668.5Q160 659 157 632L48 640Q53 712 95 745Q137 778 220 778Q253 778 283 771Q313 764 336 749Q359 734 373 709.5Q387 685 387 650Q387 617 375 599Q363 581 349 570Q368 561 383 539.5Q398 518 398 480ZM375 0H234L754 764H896ZM797 0V266Q780 255 757.5 247.5Q735 240 714 235V340Q734 348 748.5 355Q763 362 775 371Q787 380 797.5 390.5Q808 401 820 416H904V0ZM1221 318Q1191 318 1169 300.5Q1147 283 1145 236Q1159 254 1185.5 261Q1212 268 1234 268Q1375 268 1375 134Q1375 59 1330 22.5Q1285 -14 1213 -14Q1122 -14 1080.5 38.5Q1039 91 1039 202Q1039 311 1087 363.5Q1135 416 1224 416Q1294 416 1332 384.5Q1370 353 1375 295L1268 284Q1262 318 1221 318ZM1216 185Q1190 185 1172 171.5Q1154 158 1153 130V128Q1155 106 1172.5 95Q1190 84 1211 84Q1234 84 1250 96Q1266 108 1266 134Q1266 161 1252.5 173Q1239 185 1216 185Z" glyph-name="glyph01203" horiz-adv-x="1424" /><glyph d="M61 545 84 764H363V662H174L169 622Q180 627 197 630Q214 633 230 633Q265 633 293.5 626Q322 619 342 603Q362 587 373 561Q384 535 384 497Q384 457 370.5 428.5Q357 400 334 382Q311 364 280 355.5Q249 347 214 347Q131 347 90.5 381.5Q50 416 45 485L154 494Q158 466 173 455.5Q188 445 215 446Q238 446 256 458.5Q274 471 275 499Q275 525 261.5 539.5Q248 554 218 554Q198 555 180.5 547.5Q163 540 154 525ZM361 0H220L740 764H882ZM783 0V266Q766 255 743.5 247.5Q721 240 700 235V340Q720 348 734.5 355Q749 362 761 371Q773 380 783.5 390.5Q794 401 806 416H890V0ZM1207 318Q1177 318 1155 300.5Q1133 283 1131 236Q1145 254 1171.5 261Q1198 268 1220 268Q1361 268 1361 134Q1361 59 1316 22.5Q1271 -14 1199 -14Q1108 -14 1066.5 38.5Q1025 91 1025 202Q1025 311 1073 363.5Q1121 416 1210 416Q1280 416 1318 384.5Q1356 353 1361 295L1254 284Q1248 318 1207 318ZM1202 185Q1176 185 1158 171.5Q1140 158 1139 130V128Q1141 106 1158.5 95Q1176 84 1197 84Q1220 84 1236 96Q1252 108 1252 134Q1252 161 1238.5 173Q1225 185 1202 185Z" glyph-name="glyph01204" horiz-adv-x="1410" /><glyph d="M79 362 205 609 233 662 185 661H38V764H364V694L196 362ZM305 0H164L684 764H826ZM727 0V266Q710 255 687.5 247.5Q665 240 644 235V340Q664 348 678.5 355Q693 362 705 371Q717 380 727.5 390.5Q738 401 750 416H834V0ZM1151 318Q1121 318 1099 300.5Q1077 283 1075 236Q1089 254 1115.5 261Q1142 268 1164 268Q1305 268 1305 134Q1305 59 1260 22.5Q1215 -14 1143 -14Q1052 -14 1010.5 38.5Q969 91 969 202Q969 311 1017 363.5Q1065 416 1154 416Q1224 416 1262 384.5Q1300 353 1305 295L1198 284Q1192 318 1151 318ZM1146 185Q1120 185 1102 171.5Q1084 158 1083 130V128Q1085 106 1102.5 95Q1120 84 1141 84Q1164 84 1180 96Q1196 108 1196 134Q1196 161 1182.5 173Q1169 185 1146 185Z" glyph-name="glyph01205" horiz-adv-x="1354" /><glyph d="M202 446Q232 446 254 463.5Q276 481 278 528Q264 510 237.5 503Q211 496 189 496Q48 496 48 630Q48 705 93 741.5Q138 778 210 778Q301 778 342.5 725.5Q384 673 384 562Q384 453 336 400.5Q288 348 199 348Q129 348 91 379.5Q53 411 48 469L155 480Q161 446 202 446ZM207 579Q233 579 251 592.5Q269 606 270 634V636Q268 658 250.5 669Q233 680 212 680Q189 680 173 668Q157 656 157 630Q157 603 170.5 591Q184 579 207 579ZM370 0H229L749 764H891ZM792 0V266Q775 255 752.5 247.5Q730 240 709 235V340Q729 348 743.5 355Q758 362 770 371Q782 380 792.5 390.5Q803 401 815 416H899V0ZM1216 318Q1186 318 1164 300.5Q1142 283 1140 236Q1154 254 1180.5 261Q1207 268 1229 268Q1370 268 1370 134Q1370 59 1325 22.5Q1280 -14 1208 -14Q1117 -14 1075.5 38.5Q1034 91 1034 202Q1034 311 1082 363.5Q1130 416 1219 416Q1289 416 1327 384.5Q1365 353 1370 295L1263 284Q1257 318 1216 318ZM1211 185Q1185 185 1167 171.5Q1149 158 1148 130V128Q1150 106 1167.5 95Q1185 84 1206 84Q1229 84 1245 96Q1261 108 1261 134Q1261 161 1247.5 173Q1234 185 1211 185Z" glyph-name="glyph01206" horiz-adv-x="1419" /></font>
</defs>
</svg>
