<?xml version="1.0" encoding="UTF-8"?>
<!-- Generator: Adobe Illustrator 16.0.0, SVG Export Plug-In . SVG Version: 6.00 Build 0)  -->
<!DOCTYPE svg PUBLIC "-//W3C//DTD SVG 1.1//EN" "http://www.w3.org/Graphics/SVG/1.1/DTD/svg11.dtd">
<svg version="1.1" id="Layer_1" xmlns="http://www.w3.org/2000/svg" xmlns:xlink="http://www.w3.org/1999/xlink" x="0px" y="0px" width="114px" height="16px" viewBox="0 0 114 16" enable-background="new 0 0 114 16" xml:space="preserve">
<polygon fill="#0068D9" points="83.4,16 87.4,16 87.4,10.8 94.6,0 90.2,0 85.6,7.3 81,0 76.3,0 83.4,10.9 "/>
<polygon fill="#0068D9" points="44.5,8 53.2,0 58.6,0 49.9,8 58.6,16 53.2,16 "/>
<rect x="18.4" y="0" fill="#0068D9" width="4.1" height="16"/>
<g>
	<path fill="#0068D9" d="M59.5,16h12.8c2.2,0,3.7-1.2,3.7-3.8V10c0-2.3-1.2-3.8-3.7-3.8h-9.6v-3h12.4V0H62.5c-2.3,0-3.7,1.3-3.7,3.8   v2c0,2.2,1.3,3.7,3.7,3.7h9.6v3.3H59.5V16"/>
	<path fill="#0068D9" d="M94.9,16h13.5c2.2,0,3.7-1.2,3.7-3.8V10c0-2.3-1.2-3.8-3.7-3.8h-9.6v-3h12.4V0H98.5c-2.3,0-3.7,1.3-3.7,3.8   v2c0,2.2,1.3,3.7,3.7,3.7h9.6v3.3H94.9V16"/>
	<polygon fill="#0068D9" points="0,16 15.9,16 15.9,12.8 4.1,12.8 4.1,0 0,0  "/>
	<polygon fill="#0068D9" points="25.6,16 29.3,16 29.3,4.6 41.4,16 43.9,16 43.9,0 40.2,0 40.2,9.6 30.1,0 25.6,0  "/>
	<path fill="#0068D9" d="M113,0.2h-0.4v1h-0.2v-1H112V0h0.9V0.2z M114.4,0h-0.2l-0.4,0.9h0L113.3,0h-0.2v1.2h0.2V0.3h0l0.4,0.8h0.1   l0.4-0.8h0v0.8h0.2V0z"/>
</g>
</svg>