<?xml version="1.0" encoding="windows-1252"?>
<!-- Generator: Adobe Illustrator 16.0.0, SVG Export Plug-In . SVG Version: 6.00 Build 0)  -->
<!DOCTYPE svg PUBLIC "-//W3C//DTD SVG 1.1//EN" "http://www.w3.org/Graphics/SVG/1.1/DTD/svg11.dtd">
<svg version="1.1" id="Layer_1" xmlns="http://www.w3.org/2000/svg" xmlns:xlink="http://www.w3.org/1999/xlink" x="0px" y="0px" width="132px" height="19px" viewBox="-9 -1.5 132 19" style="enable-background:new -9 -1.5 132 19;" xml:space="preserve">
<style type="text/css">
<![CDATA[
	.st0{fill:#FFFFFF;}
]]>
</style>
<polygon class="st0" points="95.1,-1.5 89.8,6.9 84.6,-1.5 79.1,-1.5 87.3,11.1 87.3,17 92,17 92,11 100.2,-1.5 "/>
<polygon class="st0" points="52.4,-1.5 42.4,7.7 52.4,17 58.6,17 48.6,7.7 58.7,-1.5 "/>
<rect x="12.2" y="-1.5" class="st0" width="4.7" height="18.4"/>
<path class="st0" d="M59.7,17h14.8c2.6,0,4.3-1.4,4.3-4.4V10c0-2.6-1.4-4.4-4.3-4.4H63.5V2.2h14.3v-3.7H63.2c-2.6,0-4.2,1.5-4.2,4.4  v2.3c0,2.5,1.5,4.2,4.2,4.2h11.1v3.8H59.7V17"/>
<path class="st0" d="M100.6,17h15.6c2.6,0,4.3-1.4,4.3-4.4V10c0-2.6-1.4-4.4-4.3-4.4h-11.1V2.2h14.3v-3.7h-14.6  c-2.6,0-4.2,1.5-4.2,4.4v2.3c0,2.5,1.5,4.2,4.2,4.2h11.1v3.8h-15.4V17"/>
<polygon class="st0" points="-9,17 9.4,17 9.4,13.3 -4.3,13.3 -4.3,-1.5 -9,-1.5 "/>
<polygon class="st0" points="20.6,17 24.9,17 24.9,3.8 38.8,17 41.7,17 41.7,-1.5 37.4,-1.5 37.4,9.6 25.7,-1.5 20.6,-1.5 "/>
<path class="st0" d="M121.5-1.3h-0.4v1.1h-0.2v-1.1h-0.4v-0.2h1V-1.3z M123-1.5h-0.2l-0.4,1h0l-0.4-1h-0.2v1.3h0.2v-0.9h0l0.4,0.9  h0.1l0.4-0.9h0v0.9h0.2V-1.5z"/>
</svg>