<svg xmlns="http://www.w3.org/2000/svg" width="50" height="88" viewBox="0 0 50 88"><svg xmlns:xlink="http://www.w3.org/1999/xlink" xml:space="preserve" height="50" viewBox="-10 -10 50 50" width="50" version="1.1" y="0" x="0" enable-background="new 0 0 30 30"><circle fill-rule="evenodd" cy="15" cx="15" clip-rule="evenodd" r="15" fill="#f60"/><path fill="#fff" clip-rule="evenodd" d="m9.84 22.25c-0.29 0-0.55-0.11-0.76-0.31-0.2-0.2-0.31-0.47-0.31-0.76 0 0 0-0.16 0-0.35-0.65 0.98-1.58 1.43-2.76 1.43-0.88 0.01-1.83-0.73-2.48-1.84-0.61-1.06-0.92-2.74-0.92-5.16 0-2.36 0.32-4.09 0.94-5.15 0.66-1.11 1.46-1.68 1.97-1.76 0.22-0.03 0.42-0.04 0.62-0.04 0.94 0 2 0.52 2.63 1.58v-0.49c0-0.59 0.48-1.07 1.07-1.07s1.06 0.48 1.06 1.07l0.01 11.79c0 0.6-0.47 1.08-1.06 1.08zm-3.15-12.54c-1.44 0-1.99 2.38-1.99 5.33 0 2.94 0.46 5.33 1.99 5.33 1.59 0 1.98-2.38 1.98-5.33 0-2.94-0.2-5.32-1.98-5.32zM19.07 21.2" fill-rule="evenodd"/><path d="m19.07 21.2v-11.85c0-0.58 0.47-1.05 1.05-1.05 0.58 0 1.06 0.47 1.06 1.05v0.59c0.72-0.97 2.13-1.68 3.58-1.64 0.56 0.02 1 0.51 1 1.08 0 0.56-0.44 1.02-1 1.05l-0.01 0-0.06 0.01c-0.06 0-0.13-0.01-0.21-0.02-0.17-0.02-0.3-0.02-0.42-0.02-0.99 0-1.73 0.41-2.15 0.91-0.48 0.58-0.72 1.24-0.72 1.96l-0.01 7.93c0 0.59-0.48 1.06-1.05 1.06-0.59 0-1.06-0.47-1.06-1.06z" fill="#fff"/><path fill="#FEAA26" clip-rule="evenodd" d="m15 1.13c-1.1 0-1.95 0.46-2.51 1.38-0.65 1.05-0.98 2.2-0.98 3.44 0 1.62 0.41 2.99 1.22 4.12 0.34 0.49 0.8 1.05 1.14 1.46 0.21 0.25 0.37 0.75 0.39 1.17 0.02 1.67-1.07 13.98-1.08 14.01-0.05 0.24-0.01 0.63 0.05 0.85 0.22 0.78 0.94 1.34 1.78 1.34s1.55-0.56 1.77-1.34c0.06-0.22 0.1-0.61 0.06-0.85-0.01-0.03-1.1-12.34-1.08-14.01 0.02-0.42 0.18-0.92 0.38-1.16 0.34-0.41 0.8-0.97 1.14-1.46 0.82-1.13 1.23-2.5 1.23-4.12 0-1.24-0.33-2.39-0.98-3.44-0.56-0.92-1.41-1.37-2.51-1.37z" fill-rule="evenodd"/></svg><svg xmlns:xlink="http://www.w3.org/1999/xlink" xml:space="preserve" height="38" viewBox="-10 -10 38 38" width="38" version="1.1" y="50" x="0" enable-background="new 0 0 18 17.999"><circle fill-rule="evenodd" cy="9" cx="9" clip-rule="evenodd" r="9" fill="#f60"/><path fill="#fff" clip-rule="evenodd" d="m5.9 13.35c-0.17 0-0.33-0.07-0.45-0.19-0.12-0.12-0.19-0.28-0.19-0.45 0 0 0-0.1 0-0.21-0.39 0.59-0.95 0.86-1.65 0.86-0.53 0-1.1-0.44-1.48-1.1-0.37-0.64-0.56-1.64-0.56-3.1 0-1.41 0.19-2.45 0.56-3.09 0.39-0.67 0.88-1.01 1.18-1.05 0.13-0.02 0.25-0.03 0.37-0.03 0.56 0 1.2 0.31 1.58 0.95v-0.3c0-0.35 0.29-0.64 0.64-0.64 0.35 0 0.63 0.29 0.63 0.64l0 7.07c0 0.36-0.28 0.65-0.64 0.65zm-1.89-7.52c-0.87 0-1.19 1.43-1.19 3.2 0 1.77 0.28 3.2 1.19 3.2 0.95 0 1.19-1.43 1.19-3.2 0-1.76-0.12-3.19-1.19-3.19zM11.44 12.72" fill-rule="evenodd"/><path d="m11.44 12.72v-7.11c0-0.35 0.28-0.63 0.63-0.63 0.35 0 0.63 0.28 0.63 0.63v0.35c0.43-0.58 1.28-1.01 2.15-0.98 0.34 0.01 0.6 0.31 0.6 0.65 0 0.33-0.26 0.61-0.6 0.63h-0.01l-0.04 0c-0.04 0-0.08 0-0.13-0.01-0.1-0.01-0.18-0.01-0.25-0.01-0.59 0-1.04 0.25-1.29 0.55-0.29 0.35-0.44 0.75-0.44 1.18l0 4.76c0 0.35-0.29 0.64-0.63 0.64-0.35 0-0.63-0.28-0.63-0.63z" fill="#fff"/><path fill="#FEAA26" clip-rule="evenodd" d="m9 0.68c-0.66 0-1.17 0.27-1.51 0.83-0.39 0.63-0.59 1.32-0.59 2.06 0 0.97 0.24 1.79 0.74 2.47 0.21 0.29 0.48 0.63 0.69 0.88 0.12 0.15 0.22 0.45 0.23 0.7 0.01 1-0.64 8.39-0.65 8.41-0.03 0.15-0.01 0.38 0.03 0.51 0.13 0.46 0.56 0.8 1.06 0.8 0.5 0 0.93-0.34 1.06-0.8 0.04-0.13 0.06-0.37 0.03-0.51-0.01-0.02-0.66-7.41-0.65-8.41 0.01-0.25 0.11-0.55 0.23-0.7 0.2-0.24 0.48-0.58 0.68-0.88 0.49-0.68 0.74-1.5 0.74-2.47 0-0.74-0.2-1.43-0.59-2.06-0.33-0.55-0.84-0.82-1.5-0.82z" fill-rule="evenodd"/></svg></svg>