<?xml version="1.0" encoding="utf-8"?>
<!-- Generator: Adobe Illustrator 16.0.4, SVG Export Plug-In . SVG Version: 6.00 Build 0)  -->
<!DOCTYPE svg PUBLIC "-//W3C//DTD SVG 1.1//EN" "http://www.w3.org/Graphics/SVG/1.1/DTD/svg11.dtd">
<svg version="1.1" id="Layer_1" xmlns="http://www.w3.org/2000/svg" xmlns:xlink="http://www.w3.org/1999/xlink" x="0px" y="0px"
	 width="25px" height="13.085px" viewBox="0 0 25 13.085" enable-background="new 0 0 25 13.085" xml:space="preserve">
<path fill="#999999" d="M24.273,0.726C24.195,7.154,18.945,12.36,12.496,12.36c-6.441,0-11.698-5.206-11.771-11.635H24.273
	 M24.743,0H0.256C0.122,0,0.011,0.107,0.005,0.242c0,0-0.005,0.146-0.005,0.342c0,6.903,5.597,12.501,12.496,12.501
	C19.406,13.085,25,7.487,25,0.584c0-0.195-0.006-0.342-0.006-0.342C24.988,0.107,24.875,0,24.743,0L24.743,0z"/>
</svg>
