<svg xmlns="http://www.w3.org/2000/svg" width="58" height="320" viewBox="0 0 58 320">
  <svg width="58" viewBox="0 0 58 210" height="210" id="cook_card_icons_121314" y="0">
    <svg xmlns:xlink="http://www.w3.org/1999/xlink" id="cook_card_icons_121314-BigHeart" enable-background="new 0 0 38 31.13" xml:space="preserve" height="51" width="58" version="1.1" y="0" x="0px" viewBox="-10 -10 58 51.13">	<path d="m18.968 4.555c-0.253-0.28-0.438-0.472-0.605-0.674-2.876-3.551-7.729-4.781-11.948-3.062-3.983 1.621-6.928 6.019-6.34 10.563 0.251 1.923 1.024 3.659 2.021 5.286 3.947 6.458 9.589 11.016 16.279 14.366 0.34 0.175 0.951 0.091 1.316-0.105 4.143-2.229 7.954-4.939 11.297-8.254 2.611-2.587 4.936-5.406 6.268-8.896 1.545-4.053 0.644-7.675-2.3-10.68-2.901-2.958-6.499-3.76-10.503-2.573-2.266 0.67-3.984 2.095-5.485 4.029z" fill="#fff"/></svg>
    <svg xmlns:xlink="http://www.w3.org/1999/xlink" id="cook_card_icons_121314-SmallHeart" enable-background="new 0 0 26 21.3" xml:space="preserve" height="41" width="46" version="1.1" y="51" x="0px" viewBox="-10 -10 46 41.3">	<path d="m12.979 3.117c-0.174-0.191-0.3-0.323-0.414-0.462-1.969-2.43-5.289-3.27-8.176-2.095-2.724 1.11-4.74 4.119-4.337 7.228 0.173 1.316 0.701 2.503 1.383 3.617 2.701 4.418 6.561 7.538 11.138 9.83 0.232 0.12 0.651 0.062 0.901-0.072 2.833-1.526 5.441-3.38 7.729-5.647 1.787-1.771 3.377-3.7 4.287-6.087 1.058-2.773 0.441-5.252-1.573-7.308-1.986-2.023-4.447-2.571-7.187-1.76-1.55 0.457-2.725 1.431-3.751 2.756z" fill="#fff"/></svg>
    <svg xmlns:xlink="http://www.w3.org/1999/xlink" id="cook_card_icons_121314-heart" enable-background="new 0 0 20 17" xml:space="preserve" height="37" width="40" version="1.1" y="92" x="0px" viewBox="-10 -10 40 37">	<path d="m9.983 2.396c-0.133-0.147-0.227-0.247-0.317-0.354-1.513-1.868-4.068-2.514-6.289-1.61-2.098 0.853-3.646 3.167-3.337 5.557 0.131 1.014 0.538 1.927 1.062 2.786 2.081 3.396 5.049 5.797 8.567 7.56 0.181 0.091 0.503 0.048 0.693-0.056 2.184-1.172 4.188-2.598 5.948-4.344 1.376-1.359 2.599-2.844 3.3-4.683 0.812-2.132 0.335-4.038-1.211-5.62-1.527-1.557-3.422-1.979-5.528-1.354-1.194 0.352-2.099 1.101-2.888 2.118z" fill="#ff7E1A"/></svg>
    <svg xmlns:xlink="http://www.w3.org/1999/xlink" id="cook_card_icons_121314-madeit" enable-background="new 0 0 20.001 20.637" xml:space="preserve" height="41" width="40" version="1.1" y="129" x="0px" viewBox="-10 -10 40.001 40.637"><g fill="#759CC9">	<path clip-rule="evenodd" d="m14.995 1.959c-0.3-0.177-0.405-0.559-0.23-0.853 0.173-0.296 0.555-0.396 0.855-0.222 0.298 0.176 0.401 0.559 0.227 0.854-0.171 0.292-0.556 0.394-0.852 0.221zm-9.516 16.326c0.735 0.429 1.476 0.461 2.196 0.08 0.836-0.43 1.489-1.049 1.962-1.86 0.614-1.054 0.864-2.104 0.747-3.16-0.042-0.453-0.135-0.997-0.207-1.394-0.043-0.24-0.15-0.819-0.004-1.101 0.62-1.098 6.216-8.5 6.235-8.519 0.124-0.139 0.245-0.404 0.286-0.573 0.149-0.593-0.119-1.239-0.673-1.562-0.556-0.322-1.251-0.237-1.69 0.183-0.129 0.117-0.3 0.357-0.361 0.534-0.006 0.025-3.757 8.47-4.408 9.551-0.173 0.265-0.662 0.525-0.892 0.608-0.377 0.135-0.899 0.321-1.314 0.508-0.976 0.418-1.768 1.154-2.381 2.208-0.471 0.812-0.688 1.685-0.649 2.623 0.019 0.815 0.412 1.443 1.153 1.874z" fill-rule="evenodd"/>	<path d="m19.421 10.748c-0.062 5.144-4.264 9.311-9.421 9.311-5.156 0-9.358-4.167-9.42-9.311h18.841m0.376-0.58h-19.593c-0.106 0-0.194 0.087-0.2 0.195 0 0-0.004 0.116-0.004 0.273 0 5.522 4.476 10 10 10 5.525 0 10.001-4.478 10.001-10 0-0.157-0.004-0.273-0.004-0.273-0.006-0.108-0.096-0.195-0.2-0.195z"/>	<path d="m0.874 13.644s3.038-0.606 5.469 0.508 5.365 0.307 7.021-0.336c1.654-0.644 2.938-1.043 5.839-0.337 0 0-1.516 6.377-9.165 6.817 0 0-6.09 0.944-9.164-6.652z"/></g></svg>
    <svg xmlns:xlink="http://www.w3.org/1999/xlink" id="cook_card_icons_121314-userhead" enable-background="new 0 0 20 20" xml:space="preserve" height="40" width="40" version="1.1" y="170" x="0px" viewBox="-10 -10 40 40"><path d="m20 9.998c0-5.521-4.477-9.998-10-9.998-5.521 0-10 4.477-10 9.998 0 3.097 1.408 5.86 3.62 7.697v-3.946c0-0.081 0.015-0.157 0.038-0.229 0.022-0.075 0.058-0.148 0.104-0.212 0.055-0.078 0.128-0.145 0.206-0.198 0.553-0.504 1.688-1.345 3.463-1.799-0.894-0.739-1.462-1.86-1.462-3.111 0-2.226 1.804-4.03 4.03-4.03s4.03 1.804 4.03 4.03c0 1.238-0.559 2.341-1.435 3.082 2.561 0.622 3.626 2.004 3.626 2.004l0.003 0.009c0.05 0.066 0.093 0.142 0.119 0.225 0.023 0.072 0.037 0.148 0.037 0.229v3.949c2.213-1.838 3.621-4.604 3.621-7.7z" fill="#5CE2B8"/></svg>
  </svg>
  <svg width="40" viewBox="0 0 40 41" height="41" id="madeit" y="210">
    <svg xmlns:xlink="http://www.w3.org/1999/xlink" id="madeit-madeit" enable-background="new 0 0 20.001 20.637" xml:space="preserve" height="41" width="40" version="1.1" y="0" x="0px" viewBox="-10 -10 40.001 40.637"><g fill="#999">	<path clip-rule="evenodd" d="m14.995 1.959c-0.3-0.177-0.405-0.559-0.23-0.853 0.173-0.296 0.555-0.396 0.855-0.222 0.298 0.176 0.401 0.559 0.227 0.854-0.171 0.292-0.556 0.394-0.852 0.221zm-9.516 16.326c0.735 0.429 1.476 0.461 2.196 0.08 0.836-0.43 1.489-1.049 1.962-1.86 0.614-1.054 0.864-2.104 0.747-3.16-0.042-0.453-0.135-0.997-0.207-1.394-0.043-0.24-0.15-0.819-0.004-1.101 0.62-1.098 6.216-8.5 6.235-8.519 0.124-0.139 0.245-0.404 0.286-0.573 0.149-0.593-0.119-1.239-0.673-1.562-0.556-0.322-1.251-0.237-1.69 0.183-0.129 0.117-0.3 0.357-0.361 0.534-0.006 0.025-3.757 8.47-4.408 9.551-0.173 0.265-0.662 0.525-0.892 0.608-0.377 0.135-0.899 0.321-1.314 0.508-0.976 0.418-1.768 1.154-2.381 2.208-0.471 0.812-0.688 1.685-0.649 2.623 0.019 0.815 0.412 1.443 1.153 1.874z" fill-rule="evenodd"/>	<path d="m19.421 10.748c-0.062 5.144-4.264 9.311-9.421 9.311-5.156 0-9.358-4.167-9.42-9.311h18.841m0.376-0.58h-19.593c-0.106 0-0.194 0.087-0.2 0.195 0 0-0.004 0.116-0.004 0.273 0 5.522 4.476 10 10 10 5.525 0 10.001-4.478 10.001-10 0-0.157-0.004-0.273-0.004-0.273-0.006-0.108-0.096-0.195-0.2-0.195z"/>	<path d="m0.874 13.644s3.038-0.606 5.469 0.508 5.365 0.307 7.021-0.336c1.654-0.644 2.938-1.043 5.839-0.337 0 0-1.516 6.377-9.165 6.817 0 0-6.09 0.944-9.164-6.652z"/></g>
</svg>
  </svg>
  <svg width="40" viewBox="0 0 40 41" height="41" id="madeit" y="250">
    <svg xmlns:xlink="http://www.w3.org/1999/xlink" id="madeit-madeit" enable-background="new 0 0 20.001 20.637" xml:space="preserve" height="41" width="40" version="1.1" y="0" x="0px" viewBox="-10 -10 40.001 40.637"><g fill="#fff">	<path clip-rule="evenodd" d="m14.995 1.959c-0.3-0.177-0.405-0.559-0.23-0.853 0.173-0.296 0.555-0.396 0.855-0.222 0.298 0.176 0.401 0.559 0.227 0.854-0.171 0.292-0.556 0.394-0.852 0.221zm-9.516 16.326c0.735 0.429 1.476 0.461 2.196 0.08 0.836-0.43 1.489-1.049 1.962-1.86 0.614-1.054 0.864-2.104 0.747-3.16-0.042-0.453-0.135-0.997-0.207-1.394-0.043-0.24-0.15-0.819-0.004-1.101 0.62-1.098 6.216-8.5 6.235-8.519 0.124-0.139 0.245-0.404 0.286-0.573 0.149-0.593-0.119-1.239-0.673-1.562-0.556-0.322-1.251-0.237-1.69 0.183-0.129 0.117-0.3 0.357-0.361 0.534-0.006 0.025-3.757 8.47-4.408 9.551-0.173 0.265-0.662 0.525-0.892 0.608-0.377 0.135-0.899 0.321-1.314 0.508-0.976 0.418-1.768 1.154-2.381 2.208-0.471 0.812-0.688 1.685-0.649 2.623 0.019 0.815 0.412 1.443 1.153 1.874z" fill-rule="evenodd"/>	<path d="m19.421 10.748c-0.062 5.144-4.264 9.311-9.421 9.311-5.156 0-9.358-4.167-9.42-9.311h18.841m0.376-0.58h-19.593c-0.106 0-0.194 0.087-0.2 0.195 0 0-0.004 0.116-0.004 0.273 0 5.522 4.476 10 10 10 5.525 0 10.001-4.478 10.001-10 0-0.157-0.004-0.273-0.004-0.273-0.006-0.108-0.096-0.195-0.2-0.195z"/>	<path d="m0.874 13.644s3.038-0.606 5.469 0.508 5.365 0.307 7.021-0.336c1.654-0.644 2.938-1.043 5.839-0.337 0 0-1.516 6.377-9.165 6.817 0 0-6.09 0.944-9.164-6.652z"/></g>
</svg>
  </svg>
  <svg xmlns:xlink="http://www.w3.org/1999/xlink" id="cook_card_icons_121314-userhead" enable-background="new 0 0 20 20" xml:space="preserve" height="40" width="40" version="1.1" y="290" x="0px" viewBox="-10 -10 40 40"><path d="m20 9.998c0-5.521-4.477-9.998-10-9.998-5.521 0-10 4.477-10 9.998 0 3.097 1.408 5.86 3.62 7.697v-3.946c0-0.081 0.015-0.157 0.038-0.229 0.022-0.075 0.058-0.148 0.104-0.212 0.055-0.078 0.128-0.145 0.206-0.198 0.553-0.504 1.688-1.345 3.463-1.799-0.894-0.739-1.462-1.86-1.462-3.111 0-2.226 1.804-4.03 4.03-4.03s4.03 1.804 4.03 4.03c0 1.238-0.559 2.341-1.435 3.082 2.561 0.622 3.626 2.004 3.626 2.004l0.003 0.009c0.05 0.066 0.093 0.142 0.119 0.225 0.023 0.072 0.037 0.148 0.037 0.229v3.949c2.213-1.838 3.621-4.604 3.621-7.7z" fill="#fff"/></svg>
</svg>