<?xml version="1.0" encoding="utf-8"?>
<!-- Generator: Adobe Illustrator 16.0.1, SVG Export Plug-In . SVG Version: 6.00 Build 0)  -->
<!DOCTYPE svg PUBLIC "-//W3C//DTD SVG 1.1//EN" "http://www.w3.org/Graphics/SVG/1.1/DTD/svg11.dtd">
<svg version="1.1" id="Layer_1" xmlns="http://www.w3.org/2000/svg" xmlns:xlink="http://www.w3.org/1999/xlink" x="0px" y="0px"
	 width="12px" height="12px" viewBox="0 0 12 12" enable-background="new 0 0 12 12" xml:space="preserve">
<g>
	<path fill="#999999" d="M11.967,0.507c-0.008-0.022-0.013-0.046-0.021-0.067c-0.011-0.025-0.024-0.048-0.037-0.071
		c-0.01-0.017-0.018-0.034-0.027-0.05c-0.052-0.078-0.119-0.144-0.194-0.195c-0.017-0.01-0.035-0.017-0.052-0.027
		c-0.022-0.012-0.045-0.027-0.071-0.037c-0.021-0.009-0.045-0.014-0.067-0.021c-0.021-0.006-0.041-0.013-0.063-0.018
		c-0.045-0.009-0.091-0.014-0.137-0.014H7.792c-0.388,0-0.702,0.315-0.702,0.702c0,0.389,0.314,0.703,0.702,0.703h1.809L5.64,5.371
		C5.596,5.415,5.562,5.465,5.532,5.515c-0.06,0.033-0.116,0.07-0.166,0.121l-3.961,3.96V7.788c0-0.388-0.314-0.703-0.703-0.703
		C0.314,7.085,0,7.4,0,7.788v3.504c0,0.047,0.005,0.093,0.014,0.138c0.004,0.021,0.012,0.041,0.019,0.062
		c0.007,0.023,0.012,0.047,0.021,0.069c0.011,0.025,0.024,0.048,0.036,0.071c0.01,0.017,0.018,0.033,0.027,0.05
		c0.053,0.077,0.118,0.145,0.195,0.195c0.017,0.011,0.034,0.019,0.051,0.027c0.023,0.014,0.046,0.026,0.07,0.036
		c0.023,0.01,0.046,0.016,0.069,0.022c0.021,0.007,0.04,0.014,0.062,0.019c0.045,0.008,0.091,0.013,0.136,0.013h3.505
		c0.388,0,0.702-0.314,0.702-0.702s-0.314-0.702-0.702-0.702H2.397l3.961-3.961c0.045-0.042,0.08-0.094,0.109-0.144
		c0.06-0.033,0.116-0.07,0.166-0.121l3.961-3.96V4.21c0,0.39,0.313,0.704,0.702,0.704S11.999,4.6,11.999,4.21L12,0.707
		c0-0.045-0.006-0.09-0.015-0.137C11.981,0.547,11.973,0.528,11.967,0.507z"/>
	<path fill="#999999" d="M11.491,11.967c0.023-0.007,0.047-0.013,0.069-0.021c0.024-0.01,0.047-0.023,0.07-0.037
		c0.018-0.009,0.034-0.017,0.05-0.027c0.078-0.051,0.145-0.117,0.194-0.194c0.012-0.017,0.019-0.033,0.029-0.051
		c0.013-0.022,0.026-0.045,0.036-0.071c0.01-0.021,0.015-0.045,0.021-0.068c0.007-0.021,0.014-0.04,0.018-0.062
		c0.009-0.046,0.015-0.093,0.015-0.139V7.793c0-0.389-0.314-0.703-0.703-0.703c-0.387,0-0.702,0.314-0.702,0.703v1.809l-3.961-3.96
		c-0.044-0.045-0.094-0.08-0.144-0.109c-0.033-0.06-0.07-0.116-0.121-0.167l-3.96-3.961H4.21c0.39,0,0.703-0.314,0.703-0.703
		C4.914,0.314,4.6,0,4.21,0H0.707C0.662,0,0.616,0.005,0.569,0.013C0.547,0.018,0.528,0.025,0.507,0.032
		C0.485,0.038,0.46,0.044,0.438,0.053C0.413,0.064,0.391,0.077,0.369,0.09C0.351,0.1,0.334,0.107,0.318,0.117
		C0.24,0.168,0.173,0.235,0.123,0.312C0.112,0.329,0.105,0.347,0.095,0.364c-0.013,0.022-0.027,0.045-0.037,0.07
		c-0.01,0.023-0.016,0.046-0.021,0.069C0.031,0.523,0.023,0.544,0.018,0.565C0.009,0.61,0.004,0.656,0.004,0.701v3.505
		c0,0.387,0.315,0.701,0.702,0.701c0.389,0,0.703-0.314,0.703-0.701V2.398l3.961,3.96c0.043,0.045,0.094,0.079,0.145,0.108
		c0.032,0.06,0.07,0.117,0.12,0.167l3.96,3.962H7.788c-0.388,0-0.703,0.313-0.703,0.701c0,0.389,0.315,0.702,0.703,0.702L11.291,12
		c0.047,0,0.094-0.006,0.139-0.014C11.451,11.981,11.47,11.973,11.491,11.967z"/>
</g>
</svg>
