<svg xmlns="http://www.w3.org/2000/svg" xmlns:xlink="http://www.w3.org/1999/xlink" version="1.1" id="Layer_1" x="0px" y="0px" width="17px" height="17px" viewBox="1.604 1.973 17 17" enable-background="new 1.604 1.973 17 17" xml:space="preserve"><path fill="#B2B2B2" d="M16.508 11.964c-0.816-1.412-0.325-3.225 1.096-4.046l-1.528-2.646c-0.437 0.256-0.943 0.403-1.486 0.4 c-1.632 0-2.955-1.333-2.955-2.976H8.578C8.582 3.2 8.5 3.7 8.2 4.19C7.368 5.6 5.6 6.1 4.1 5.265L2.604 7.9 c0.439 0.2 0.8 0.6 1.1 1.086c0.814 1.4 0.3 3.217-1.089 4.041l1.528 2.647c0.435-0.255 0.941-0.398 1.479-0.398 c1.628 0 2.9 1.3 3 2.959h3.055c-0.001-0.503 0.127-1.01 0.395-1.476c0.815-1.41 2.624-1.892 4.045-1.078l1.528-2.646 C17.155 12.8 16.8 12.4 16.5 11.964z M10.104 13.621c-1.738 0-3.148-1.409-3.148-3.148c0-1.738 1.41-3.148 3.148-3.148 c1.738 0 3.1 1.4 3.1 3.148S11.842 13.6 10.1 13.621z"/></svg>