<svg xmlns="http://www.w3.org/2000/svg" version="1.1" x="0px" y="0px" width="20.16px" height="20.16px" viewBox="0 0 20.16 20.16" enable-background="new 0 0 20.16 20.16" xml:space="preserve"><path fill="#FFFFFF" d="M20.16 7.56V0l-2.953 2.954C15.383 1.129 12.862 0 10.08 0 4.513 0 0 4.513 0 10.08c0 5.568 4.513 10.08 10.08 10.08 2.782 0 5.303-1.128 7.128-2.951l-1.781-1.781c-1.369 1.368-3.259 2.213-5.347 2.213 -4.175 0-7.56-3.385-7.56-7.56 0-4.174 3.385-7.56 7.56-7.56 2.088 0 3.977 0.847 5.346 2.215L12.6 7.56H20.16z"/></svg>