<?xml version="1.0"?>
<!--Icons from directory ""-->
<svg xmlns="http://www.w3.org/2000/svg" width="61" height="933" viewBox="0 0 61 933"><svg xml:space="preserve" height="29" width="32" version="1.1" y="0" x="0" enable-background="new 0 0 11.753 8.918" viewBox="-10 -10 32 29" id="Check-Icon_gray"><path d="m11.67 1.78c0.03-0.03 0.05-0.06 0.06-0.1 0.04-0.1 0.02-0.22-0.06-0.3l-1.3-1.3c-0.08-0.08-0.2-0.1-0.3-0.06-0.04 0.01-0.07 0.03-0.1 0.06l-5.43 5.44-2.76-2.76c-0.03-0.02-0.06-0.05-0.1-0.06-0.1-0.04-0.22-0.02-0.3 0.06l-1.3 1.3c-0.08 0.09-0.1 0.2-0.06 0.3 0.01 0.04 0.04 0.07 0.06 0.1l4.45 4.45 7.14-7.13z" fill="#BFBFBF"/></svg><svg xml:space="preserve" height="40" width="42" version="1.1" y="29" x="0px" enable-background="new 0 0 21.559 19.959" viewBox="-10 -10 41.559 39.959" id="DoneFace-Icon"><g fill="#CFCFCF"><path d="m7.877 6.323c-0.025 0-0.051-0.001-0.077-0.002-0.594-0.042-1.04-0.557-0.999-1.15 0.029-0.451-0.036-1.781-0.673-2.46-0.288-0.307-0.669-0.449-1.197-0.449-0.532 0-0.917 0.145-1.211 0.458-0.647 0.688-0.718 2.041-0.692 2.461 0.036 0.592-0.415 1.104-1.008 1.14-0.583 0.042-1.105-0.414-1.141-1.008-0.018-0.26-0.119-2.589 1.271-4.069 0.7-0.743 1.66-1.137 2.78-1.137 1.122 0 2.083 0.395 2.776 1.14 1.384 1.483 1.263 3.815 1.244 4.075-0.04 0.569-0.512 1.001-1.073 1.001z"/><path d="m19.425 6.323c-0.024 0-0.051-0.001-0.076-0.002-0.594-0.042-1.04-0.557-0.999-1.15 0.029-0.451-0.037-1.781-0.673-2.46-0.288-0.307-0.669-0.449-1.197-0.449-0.532 0-0.918 0.145-1.211 0.458-0.647 0.688-0.718 2.041-0.692 2.461 0.036 0.593-0.414 1.104-1.008 1.141-0.588 0.042-1.104-0.414-1.142-1.008-0.017-0.261-0.118-2.59 1.272-4.069 0.699-0.743 1.661-1.137 2.78-1.137 1.121 0 2.082 0.395 2.776 1.14 1.382 1.483 1.262 3.814 1.242 4.075-0.039 0.568-0.512 1-1.072 1z"/><path d="m0.52 10.072c2.521-2.591 3.879 1.969 10.29 1.969s7.981-4.695 10.29-1.969c1.5 1.772-1.914 9.78-10.29 9.78s-11.971-8.053-10.29-9.78z"/></g></svg><svg xml:space="preserve" height="30" width="39" version="1.1" y="69" x="0px" enable-background="new 0 0 18.825 9.754" viewBox="-10 -10 38.825 29.754" id="Expand-arrow"><polygon points="9.855 5.37 5.961 2 5 2.832 9.855 7.032 14.711 2.832 13.75 2" fill="#BFBFBF"/></svg><svg xml:space="preserve" height="43" width="45" version="1.1" y="99" x="0" enable-background="new 0 0 25 22.666" viewBox="-10 -10 45 43" id="Nutrition-Icon_dark"><path d="m0 10.4v12.3h7.6v-12.3s0.1-2.1-2-2.1h-3.6c-2.1 0-2 2.1-2 2.1zm8.7-8.3v20.6h7.6v-20.6s0.1-2.1-2-2.1h-3.5c-2.2 0-2.1 2.1-2.1 2.1zm8.7 13.2v7.4h7.6v-7.4s0.1-2.1-2-2.1h-3.6c-2 0-2 2.1-2 2.1z" fill="#8C8C8C"/></svg><svg xml:space="preserve" height="43" width="45" version="1.1" y="142" x="0" enable-background="new 0 0 25 22.666" viewBox="-10 -10 45 43" id="Nutrition-Icon_light"><path d="m0 10.4v12.3h7.6v-12.3s0.1-2.1-2-2.1h-3.6c-2.1 0-2 2.1-2 2.1zm8.7-8.3v20.6h7.6v-20.6s0.1-2.1-2-2.1h-3.5c-2.2 0-2.1 2.1-2.1 2.1zm8.7 13.2v7.4h7.6v-7.4s0.1-2.1-2-2.1h-3.6c-2 0-2 2.1-2 2.1z" fill="#BFBFBF"/></svg><svg xml:space="preserve" height="34" width="38" version="1.1" y="185" x="0" enable-background="new 0 0 18 13.501" viewBox="-10 -10 38 34" id="Pic-Icon"><path d="m5.4 7.3c0 2 1.6 3.6 3.6 3.6s3.6-1.6 3.6-3.6-1.6-3.6-3.6-3.6-3.6 1.6-3.6 3.6zm11.5-5h-3.9c-0.3-1.2-0.6-2.3-1.7-2.3h-4.5c-1.2 0-1.5 1.1-1.7 2.3h-4c-0.6 0-1.1 0.5-1.1 1.1v9c0 0.6 0.5 1.1 1.1 1.1h15.8c0.6 0 1.1-0.5 1.1-1.1v-9c0-0.6-0.5-1.1-1.1-1.1zm-7.9 10.1c-2.8 0-5.1-2.3-5.1-5.1s2.3-5.1 5.1-5.1 5.1 2.3 5.1 5.1c0 2.8-2.3 5.1-5.1 5.1zm7.9-7.9h-2.2v-1.1h2.3v1.1z" fill="#fff"/></svg><svg xml:space="preserve" height="32" width="36" version="1.1" y="219" x="0" enable-background="new 0 0 16 12.141" viewBox="-10 -10 36 32" id="SLcheck-Icon"><path d="m15.89 2.43c0.04-0.04 0.07-0.09 0.09-0.14 0.05-0.14 0.02-0.3-0.09-0.41l-1.77-1.77c-0.11-0.11-0.27-0.14-0.41-0.09-0.05 0.02-0.1 0.05-0.14 0.09l-7.39 7.4-3.75-3.75c-0.04-0.04-0.09-0.07-0.14-0.09-0.14-0.05-0.3-0.02-0.41 0.09l-1.77 1.77c-0.11 0.11-0.14 0.27-0.09 0.41 0.02 0.05 0.05 0.1 0.09 0.14l6.06 6.06 9.72-9.71z" fill="#fff"/></svg><svg xml:space="preserve" height="42" width="47" version="1.1" y="251" x="0" enable-background="new 0 0 27.349 22.404" viewBox="-10 -10 47 42" id="SaveHeart-Icon_white"><path d="m13.7 3.3c-0.2-0.2-0.3-0.3-0.4-0.5-2.1-2.6-5.6-3.4-8.6-2.2-2.9 1.2-5.1 4.3-4.6 7.6 0.2 1.4 0.7 2.6 1.5 3.8 2.8 4.6 6.9 7.9 11.7 10.3 0.2 0.1 0.7 0.1 0.9-0.1 3-1.6 5.7-3.6 8.1-5.9 1.9-1.9 3.6-3.9 4.5-6.4 1.1-2.9 0.5-5.5-1.6-7.7-2.1-2.1-4.7-2.7-7.6-1.8-1.6 0.5-2.9 1.5-3.9 2.9z" fill="#fff"/></svg><svg xmlns:xlink="http://www.w3.org/1999/xlink" id="Search-Icon-white" xml:space="preserve" height="40" viewBox="-10 -10 39.996 40" width="40" version="1.1" y="293" x="0px" enable-background="new 0 0 19.996 20"><g fill="#fff">	<path d="m8.629 17.27c-2.305 0-4.477-0.898-6.107-2.53-3.364-3.366-3.364-8.844 0-12.21 1.63-1.633 3.802-2.53 6.107-2.53 2.306 0 4.473 0.897 6.105 2.529 1.631 1.631 2.529 3.799 2.529 6.107 0 2.305-0.898 4.475-2.529 6.106-1.632 1.629-3.799 2.528-6.105 2.528zm0-14.411c-1.542 0-2.993 0.6-4.085 1.691-2.249 2.252-2.249 5.915 0 8.167 1.092 1.092 2.543 1.693 4.085 1.693 1.545 0 2.994-0.602 4.08-1.693 1.094-1.089 1.695-2.54 1.695-4.081 0-1.544-0.602-2.994-1.69-4.085-1.091-1.092-2.54-1.692-4.085-1.692z"/>	<path d="m18.565 20c-0.368 0-0.733-0.142-1.013-0.42l-4.329-4.331c-0.56-0.559-0.56-1.464 0-2.022 0.557-0.56 1.462-0.56 2.021 0l4.332 4.332c0.559 0.559 0.559 1.463 0 2.021-0.282 0.279-0.646 0.42-1.011 0.42z"/></g></svg><svg xmlns:xlink="http://www.w3.org/1999/xlink" id="Search-Icon" xml:space="preserve" height="40" viewBox="-10 -10 39.996 40" width="40" version="1.1" y="333" x="0px" enable-background="new 0 0 19.996 20"><g fill="#999">	<path d="m8.629 17.27c-2.305 0-4.477-0.898-6.107-2.53-3.364-3.366-3.364-8.844 0-12.21 1.63-1.633 3.802-2.53 6.107-2.53 2.306 0 4.473 0.897 6.105 2.529 1.631 1.631 2.529 3.799 2.529 6.107 0 2.305-0.898 4.475-2.529 6.106-1.632 1.629-3.799 2.528-6.105 2.528zm0-14.411c-1.542 0-2.993 0.6-4.085 1.691-2.249 2.252-2.249 5.915 0 8.167 1.092 1.092 2.543 1.693 4.085 1.693 1.545 0 2.994-0.602 4.08-1.693 1.094-1.089 1.695-2.54 1.695-4.081 0-1.544-0.602-2.994-1.69-4.085-1.091-1.092-2.54-1.692-4.085-1.692z"/>	<path d="m18.565 20c-0.368 0-0.733-0.142-1.013-0.42l-4.329-4.331c-0.56-0.559-0.56-1.464 0-2.022 0.557-0.56 1.462-0.56 2.021 0l4.332 4.332c0.559 0.559 0.559 1.463 0 2.021-0.282 0.279-0.646 0.42-1.011 0.42z"/></g></svg><svg xml:space="preserve" height="45" width="45" version="1.1" y="373" x="0" enable-background="new 0 0 25 24.954" viewBox="-10 -10 45 45" id="Servings-Icon_dark"><path d="m11.4 13.9l-10.2-6.7c-0.8 1.6-1.2 3.4-1.2 5.3 0 6.5 5 11.9 11.4 12.5v-11.1zm1.2-1.7l10.3-6.7c-2.3-3.3-6.1-5.5-10.4-5.5s-8.1 2.2-10.3 5.4l10.4 6.8zm0.9 1.8v10.9c6.5-0.5 11.5-5.8 11.5-12.4 0-1.9-0.4-3.6-1.1-5.2l-10.4 6.7z" fill="#8C8C8C"/></svg><svg xml:space="preserve" height="45" width="45" version="1.1" y="418" x="0" enable-background="new 0 0 25 24.954" viewBox="-10 -10 45 45" id="Servings-Icon_light"><path d="m11.4 13.9l-10.2-6.7c-0.8 1.6-1.2 3.4-1.2 5.3 0 6.5 5 11.9 11.4 12.5v-11.1zm1.2-1.7l10.3-6.7c-2.3-3.3-6.1-5.5-10.4-5.5s-8.1 2.2-10.3 5.4l10.4 6.8zm0.9 1.8v10.9c6.5-0.5 11.5-5.8 11.5-12.4 0-1.9-0.4-3.6-1.1-5.2l-10.4 6.7z" fill="#BFBFBF"/></svg><svg xml:space="preserve" height="41" width="40" version="1.1" y="463" x="0" enable-background="new 0 0 20.207 20.947" viewBox="-10 -10 40 41" id="Settings-Icon"><path d="m18.7 12.5c-1.1-1.9-0.4-4.3 1.5-5.5l-2.1-3.6c-0.6 0.3-1.3 0.5-2 0.5-2.2 0-4-1.8-4-4h-4.1c0 0.7-0.2 1.4-0.5 2-1.1 2-3.5 2.7-5.4 1.6l-2.1 3.5c0.6 0.3 1.1 0.8 1.5 1.5 1.1 1.9 0.4 4.3-1.5 5.4l2.1 3.6c0.6-0.3 1.3-0.5 2-0.5 2.2 0 4 1.8 4 4h4.1c0-0.7 0.2-1.4 0.5-2 1.1-1.9 3.5-2.5 5.4-1.5l2.1-3.6c-0.6-0.3-1.1-0.8-1.5-1.4zm-8.6 2.2c-2.3 0-4.2-1.9-4.2-4.2s1.9-4.2 4.2-4.2 4.2 1.9 4.2 4.2c0 2.3-1.9 4.2-4.2 4.2z" fill="#BFBFBF"/></svg><svg xml:space="preserve" height="43" width="38" version="1.1" y="504" x="0" enable-background="new 0 0 18 22.801" viewBox="-10 -10 38 43" id="ThumbsUp-Icon_gray"><path d="m17 16.1c0-0.5 1-1.1 1-1.5 0-0.5-0.8-1.3-0.8-1.7 0.1-0.4 0.7-0.9 0.8-1.3 0-0.7-0.9-2-1.5-2.3-1-0.4-6.1-0.2-6.1-0.2-0.5-0.9 0.9-3 1.3-4 0.6-1.4 0.5-3.2-0.2-4.1-0.9-1.1-2.5-1.2-2.5-0.7-0.4 3.7-1.1 4.7-2 5.5-0.6 0.4-1.1 0.8-1.3 1.4-1.6 4.1-2.9 5.4-3.5 5.6h-2.2v8.9l6.5 0.9s5.9 0.6 7.8 0c0.6-0.2 1.6-1.1 1.8-1.6 0.1-0.3-0.1-1.1 0.1-1.4 0.2-0.5 1.2-1.1 1.2-1.7 0.1-0.5-0.4-1.3-0.4-1.8z" fill="#BFBFBF"/></svg><svg xml:space="preserve" height="43" width="38" version="1.1" y="547" x="0" enable-background="new 0 0 18 22.801" viewBox="-10 -10 38 43" id="ThumbsUp-Icon_white"><path d="m17 16.1c0-0.5 1-1.1 1-1.5 0-0.5-0.8-1.3-0.8-1.7 0.1-0.4 0.7-0.9 0.8-1.3 0-0.7-0.9-2-1.5-2.3-1-0.4-6.1-0.2-6.1-0.2-0.5-0.9 0.9-3 1.3-4 0.6-1.4 0.5-3.2-0.2-4.1-0.9-1.1-2.5-1.2-2.5-0.7-0.4 3.7-1.1 4.7-2 5.5-0.6 0.4-1.1 0.8-1.3 1.4-1.6 4.1-2.9 5.4-3.5 5.6h-2.2v8.9l6.5 0.9s5.9 0.6 7.8 0c0.6-0.2 1.6-1.1 1.8-1.6 0.1-0.3-0.1-1.1 0.1-1.4 0.2-0.5 1.2-1.1 1.2-1.7 0.1-0.5-0.4-1.3-0.4-1.8z" fill="#fff"/></svg><svg xml:space="preserve" height="35" width="44" version="1.1" y="590" x="0" enable-background="new 0 0 24 15" viewBox="-10 -10 44 35" id="Watch-Icon_gray"><path d="m15 0h-12c-1.7 0-3 1.3-3 3v9c0 1.7 1.3 3 3 3h12c1.7 0 3-1.3 3-3v-9c0-1.7-1.3-3-3-3zm4.5 6v3l4.5 4.5v-12l-4.5 4.5z" fill="#BFBFBF"/></svg><svg xml:space="preserve" height="30" width="36" version="1.1" y="625" x="0" enable-background="new 0 0 16 10" viewBox="-10 -10 36 30" id="Watch-Icon_white"><path d="m10 0h-8c-1.1 0-2 0.9-2 2v6c0 1.1 0.9 2 2 2h8c1.1 0 2-0.9 2-2v-6c0-1.1-0.9-2-2-2zm3 4v2l3 3v-8l-3 3z" fill="#fff"/></svg><svg xml:space="preserve" height="45" width="55" version="1.1" y="655" x="0" enable-background="new 0 0 35 25" viewBox="-10 -10 55 45" id="email"><path d="m3.6 23.5h26.7c0.9 0 1.6-0.7 1.6-1.6v-18.3c0.1-0.9-0.6-1.6-1.5-1.6h-26.8c-0.9 0-1.6 0.7-1.6 1.6v18.2c0 0.9 0.7 1.7 1.6 1.7zm0.6-18.6l8.1 7.8-8.1 7.2v-15zm11.2 10.7c0.4 0.4 1 0.6 1.6 0.6 0.7 0 1.2-0.2 1.6-0.6l1.4-1.3 7.8 6.9h-21.7l7.8-6.9 1.5 1.3zm6.2-2.8l8.2-7.9v15.1l-8.2-7.2zm-4.4 1.2h-0.3l-10.2-9.8h20.7l-10.2 9.8z" fill="#fff"/></svg><svg xml:space="preserve" height="67" width="50" version="1.1" y="700" x="0" enable-background="new 3.002 2.001 30.33 46.665" viewBox="-7 -10 50 67" id="facebook"><path d="m21 44.5v-17.6h5.9l0.9-6.8h-6.8v-4.4c0-2 0.6-3.3 3.4-3.3h3.6v-6.1c-0.6-0.1-2.8-0.3-5.3-0.3-5.2 0-8.8 3.2-8.8 9v5h-5.9v6.8h5.9v17.6h7.1v0.1z" fill="#fff"/></svg><svg xml:space="preserve" height="57" width="61" version="1.1" y="767" x="0px" enable-background="new 0 0 41.083 36.5" viewBox="-10 -10 61.083 56.5" id="google"><path d="m16.218 17.31c0-1.995 4.389-2.573 4.389-7.26 0-2.812-0.26-4.508-2.473-5.505 0-0.699 3.91-0.24 3.91-1.542h-8.563s-8.67 0.212-8.67 7.552c0 7.34 7.579 6.49 7.579 6.49s0 1.111 0 1.862c0 0.752 1.018 0.499 1.144 2.021-0.513-0.001-10.534-0.266-10.534 6.382s8.83 6.33 8.83 6.33 10.212 0.465 10.212-7.792c0-4.948-5.824-6.543-5.824-8.538zm-7.398-6.33c-0.802-2.947 0.255-5.8 2.36-6.373 2.106-0.573 4.461 1.352 5.264 4.3 0.802 2.948-0.254 5.802-2.36 6.375s-4.462-1.353-5.264-4.302zm4.385 20.537c-3.535 0.239-6.541-1.657-6.715-4.235-0.175-2.578 2.548-4.861 6.083-5.101 3.536-0.24 6.543 1.655 6.718 4.233 0.174 2.579-2.552 4.862-6.086 5.103z" fill="#fff"/><polygon points="38.107 8.961 38.107 10.717 32.146 10.717 32.146 16.672 30.391 16.672 30.391 10.717 24.436 10.717 24.436 8.961 30.391 8.961 30.391 3 32.146 3 32.146 8.961" fill="#fff"/></svg><svg xml:space="preserve" height="60" width="60" version="1.1" y="824" x="0" enable-background="new 0 0 40 40" viewBox="-10 -10 60 60" id="pinterest"><path d="m1155.6 309.85" fill="#ED1C24"/><path d="m13.75 39c0.84-1.34 1.77-4.51 2.24-6.23 0.27-0.99 1.57-6.12 1.57-6.12 0.77 1.48 3.04 2.77 5.44 2.77 7.14 0.01 12-6.52 12-15.25 0-6.6-5.59-12.75-14.09-12.75-10.58 0-15.91 7.58-15.91 13.91 0 3.83 1.45 7.23 4.56 8.5 0.51 0.21 0.97 0.01 1.12-0.56 0.1-0.39 0.34-1.38 0.45-1.79 0.15-0.56 0.09-0.75-0.32-1.24-0.89-1.06-1.47-2.43-1.47-4.37 0-5.62 4.21-10.66 10.96-10.66 5.98 0 9.26 3.65 9.26 8.53 0 6.42-2.84 11.84-7.06 11.84-2.33 0-4.07-1.92-3.51-4.29 0.67-2.82 1.97-5.86 1.97-7.9 0-1.82-0.98-3.34-3-3.34-2.38 0-4.29 2.46-4.29 5.76 0 2.1 0.71 3.53 0.71 3.53s-2.43 10.32-2.86 12.13c-0.4 1.69-0.45 3.56-0.39 5.11" fill="#fff"/></svg><svg xml:space="preserve" height="49" width="55" version="1.1" y="884" x="0" enable-background="new 0 0 35.229 29.411" viewBox="-10 -10 55 49" id="twitter"><path d="m33 5.89c-1.1 0.49-2.29 0.82-3.53 0.97 1.27-0.76 2.25-1.97 2.71-3.4-1.19 0.71-2.51 1.22-3.91 1.49-1.13-1.2-2.73-1.95-4.5-1.95-3.4 0-6.16 2.76-6.16 6.16 0 0.48 0.06 0.95 0.16 1.4-5.11-0.26-9.65-2.71-12.68-6.43-0.53 0.91-0.83 1.96-0.83 3.09 0 2.13 1.09 4.02 2.74 5.12-1.01-0.03-1.96-0.31-2.79-0.77v0.08c0 2.98 2.12 5.47 4.94 6.04-0.52 0.14-1.06 0.22-1.62 0.22-0.4 0-0.78-0.04-1.16-0.11 0.78 2.44 3.06 4.22 5.75 4.27-2.11 1.65-4.76 2.63-7.64 2.63-0.5 0-0.99-0.03-1.47-0.09 2.72 1.75 5.96 2.77 9.44 2.77 11.32 0 17.51-9.38 17.51-17.51 0-0.27-0.01-0.53-0.02-0.8 1.19-0.87 2.23-1.95 3.06-3.18z" fill="#fff"/></svg></svg>
