<?xml version="1.0" encoding="utf-8"?>
<!-- Generator: Adobe Illustrator 16.0.4, SVG Export Plug-In . SVG Version: 6.00 Build 0)  -->
<!DOCTYPE svg PUBLIC "-//W3C//DTD SVG 1.1//EN" "http://www.w3.org/Graphics/SVG/1.1/DTD/svg11.dtd">
<svg version="1.1" id="Layer_1" xmlns="http://www.w3.org/2000/svg" xmlns:xlink="http://www.w3.org/1999/xlink" x="0px" y="0px"
	 width="41.15px" height="8.988px" viewBox="0 0 41.15 8.988" enable-background="new 0 0 41.15 8.988" xml:space="preserve">
<path fill="#999999" d="M33.851,0.889c-2.067,0.803-5.738,1.812-8.775,0.42c-1.468-0.673-3.108-0.843-4.417-0.839
	c-0.028,0-0.056,0-0.084,0c-0.028,0-0.057,0-0.084,0c-1.308-0.004-2.949,0.166-4.417,0.839c-3.038,1.393-6.708,0.383-8.775-0.42
	C5.23,0.084,3.625-0.416,0,0.467c0,0,1.896,7.972,11.454,8.521h18.242c9.558-0.55,11.454-8.521,11.454-8.521
	C37.525-0.416,35.919,0.084,33.851,0.889z"/>
</svg>
