<svg xmlns="http://www.w3.org/2000/svg" xmlns:xlink="http://www.w3.org/1999/xlink" version="1.1" id="Layer_1" x="0px" y="0px" width="15px" height="15px" viewBox="-299.737 404.279 15 15" enable-background="new -299.737 404.279 15 15" xml:space="preserve"><path fill="#FFFFFF" d="M-292.24 404.279c-3.181 0-5.761 2.582-5.761 5.727c0 1.2 0.1 1.8 0.8 2.903l4.968 6.37l4.975-6.37 c0.67-1.128 0.791-1.682 0.791-2.903C-286.475 406.861-289.034 404.279-292.24 404.279z M-292.24 412.5 c-1.443 0-2.617-1.159-2.617-2.589c0-1.428 1.174-2.59 2.617-2.59c1.282 0 2.6 1.2 2.6 2.6 C-289.618 411.376-290.958 412.535-292.24 412.535z"/></svg>