<svg xmlns="http://www.w3.org/2000/svg" width="45" height="233" viewBox="0 0 45 233"><svg xmlns:xlink="http://www.w3.org/1999/xlink" xml:space="preserve" height="38" viewBox="-10 -10 41.58 37.68" width="42" version="1.1" y="0" x="0" enable-background="new 0 0 21.582 17.679"><path d="m10.78 2.59c-0.15-0.16-0.25-0.27-0.35-0.38-1.63-2.01-4.39-2.71-6.78-1.74-2.26 0.92-3.93 3.42-3.6 6 0.14 1.09 0.58 2.08 1.15 3 2.24 3.67 5.45 6.26 9.25 8.16 0.19 0.1 0.54 0.05 0.75-0.06 2.35-1.27 4.52-2.8 6.42-4.69 1.48-1.47 2.8-3.07 3.56-5.05 0.88-2.3 0.36-4.36-1.3-6.07-1.65-1.68-3.69-2.13-5.97-1.46-1.28 0.38-2.26 1.19-3.11 2.29z" fill="#BCBEC0"/></svg><svg xmlns:xlink="http://www.w3.org/1999/xlink" xml:space="preserve" height="34" viewBox="-10 -10 45.33 34.05" width="45" version="1.1" y="38" x="0" enable-background="new 0 0 25.329 14.046"><path d="m5.49 13.33v-4.34c0-0.21 0.04-0.43 0.11-0.64 0.07-0.2 0.16-0.39 0.28-0.56 0.12-0.17 0.27-0.32 0.44-0.45 0.38-0.34 1.02-0.83 1.91-1.26-0.35-0.7-0.54-1.48-0.54-2.29 0-1.03 0.31-1.99 0.83-2.8-0.67-0.61-1.56-0.99-2.54-0.99-2.09 0-3.78 1.69-3.78 3.78 0 1.17 0.53 2.22 1.37 2.92-1.67 0.43-2.73 1.22-3.25 1.69-0.07 0.05-0.14 0.12-0.19 0.19-0.04 0.06-0.08 0.13-0.1 0.2-0.02 0.07-0.04 0.14-0.04 0.22v4.34c0 0.4 0.32 0.72 0.72 0.72h4.9c-0.08-0.22-0.13-0.47-0.13-0.72zM18.66 8.56 18.66 8.56" fill="#BCBEC0"/><path d="m18.66 8.56l0-0.01s-0.75-0.97-2.51-1.61c-0.13-0.05-0.27-0.1-0.42-0.14 0 0-0.01 0-0.01 0-0.15-0.04-0.3-0.09-0.46-0.13 0.09-0.08 0.18-0.16 0.26-0.25 0.04-0.04 0.07-0.08 0.11-0.12 0.04-0.05 0.08-0.09 0.12-0.14 0.05-0.05 0.09-0.11 0.13-0.17 0.02-0.03 0.05-0.06 0.07-0.1 0.05-0.07 0.09-0.14 0.14-0.21 0.33-0.56 0.52-1.21 0.52-1.91 0-0.7-0.19-1.35-0.52-1.91-0.24-0.41-0.56-0.77-0.94-1.07-0.01-0.01-0.02-0.02-0.04-0.03-0.11-0.08-0.22-0.16-0.34-0.23-0.02-0.01-0.04-0.02-0.06-0.04-0.26-0.15-0.54-0.27-0.84-0.35-0.04-0.01-0.08-0.02-0.11-0.03-0.11-0.03-0.22-0.05-0.34-0.07-0.04-0.01-0.09-0.01-0.13-0.02-0.15-0.02-0.31-0.03-0.46-0.03-0.12 0-0.23 0.01-0.35 0.02-0.03 0-0.07 0.01-0.1 0.01-0.08 0.01-0.17 0.02-0.25 0.04-0.03 0.01-0.06 0.01-0.09 0.02-0.1 0.02-0.21 0.05-0.31 0.08-0.03 0.01-0.06 0.02-0.09 0.03-0.07 0.02-0.14 0.05-0.21 0.08-0.04 0.02-0.08 0.03-0.12 0.05-0.06 0.03-0.12 0.06-0.17 0.08-0.06 0.03-0.13 0.07-0.19 0.1-0.05 0.03-0.11 0.06-0.16 0.1-0.05 0.03-0.1 0.07-0.15 0.11-0.03 0.02-0.06 0.05-0.09 0.07-0.05 0.04-0.11 0.09-0.16 0.13-0.01 0.01-0.01 0.01-0.02 0.02-0.12 0.11-0.24 0.22-0.35 0.35 0 0 0 0-0.01 0.01-0.06 0.06-0.11 0.13-0.16 0.2 0 0.01-0.01 0.01-0.01 0.01-0.16 0.21-0.29 0.43-0.41 0.67-0.23 0.49-0.36 1.03-0.36 1.61 0 0.58 0.13 1.13 0.36 1.62 0.18 0.37 0.41 0.71 0.69 1 0.01 0.01 0.01 0.01 0.01 0.02 0.1 0.1 0.2 0.19 0.3 0.28-0.18 0.05-0.34 0.1-0.51 0.15-0.15 0.05-0.29 0.1-0.43 0.15-1.13 0.44-1.9 1.01-2.31 1.39-0.08 0.05-0.14 0.12-0.19 0.19-0.04 0.06-0.08 0.13-0.1 0.2-0.02 0.07-0.04 0.14-0.04 0.22v4.34c0 0.4 0.32 0.72 0.72 0.72h10.54c0.4 0 0.72-0.32 0.72-0.72v-4.34c0-0.08-0.01-0.15-0.04-0.22-0.02-0.08-0.06-0.15-0.11-0.21z" fill="#BCBEC0"/><path d="m25.29 8.77c-0.02-0.08-0.06-0.15-0.11-0.21v-0.01s-1-1.3-3.4-1.88c0.82-0.69 1.35-1.73 1.35-2.89 0-2.09-1.69-3.78-3.78-3.78-0.89 0-1.7 0.31-2.34 0.82 0.6 0.84 0.95 1.86 0.95 2.97 0 0.79-0.18 1.55-0.51 2.24 1.49 0.72 2.19 1.59 2.29 1.71l0.23 0.3 0.01 0.09c0.04 0.08 0.07 0.16 0.09 0.24 0.06 0.21 0.1 0.41 0.1 0.62v4.34c0 0.25-0.05 0.5-0.13 0.72h4.59c0.4 0 0.72-0.32 0.72-0.72v-4.33c0-0.08-0.02-0.15-0.04-0.22z" fill="#BCBEC0"/></svg><svg xmlns:xlink="http://www.w3.org/1999/xlink" xml:space="preserve" height="44" viewBox="-10 -10 43.73 44.48" width="44" version="1.1" y="72" x="0" enable-background="new 0 0 23.729 24.482"><g fill="#BCBEC0"><path clip-rule="evenodd" d="m17.79 2.33c-0.36-0.21-0.48-0.66-0.27-1.01 0.21-0.35 0.66-0.47 1.02-0.26 0.35 0.21 0.48 0.66 0.27 1.01-0.2 0.35-0.66 0.47-1.01 0.26zm-11.29 19.37c0.87 0.51 1.75 0.55 2.61 0.1 0.99-0.51 1.77-1.24 2.33-2.21 0.73-1.25 1.02-2.5 0.89-3.75-0.05-0.53-0.16-1.18-0.24-1.65-0.05-0.29-0.18-0.97-0.01-1.31 0.74-1.3 7.38-10.09 7.4-10.1 0.14-0.17 0.29-0.48 0.34-0.68 0.17-0.7-0.14-1.47-0.8-1.85-0.66-0.38-1.48-0.28-2.01 0.22-0.15 0.14-0.35 0.43-0.43 0.63-0.01 0.03-4.46 10.05-5.23 11.33-0.2 0.32-0.79 0.63-1.06 0.72-0.45 0.16-1.07 0.38-1.56 0.6-1.16 0.5-2.1 1.37-2.82 2.62-0.56 0.96-0.82 2-0.77 3.11 0.03 0.97 0.49 1.71 1.37 2.22zM23.04 12.75 23.04 12.75" fill-rule="evenodd"/><path d="m23.04 12.75c-0.07 6.1-5.06 11.04-11.18 11.04-6.12 0-11.1-4.94-11.17-11.04h22.35m0.45-0.69h-23.24c-0.13 0-0.23 0.1-0.24 0.23 0 0-0.01 0.14-0.01 0.33 0 6.55 5.31 11.86 11.86 11.86 6.56 0 11.87-5.31 11.87-11.86 0-0.19-0.01-0.33-0.01-0.33 0-0.13-0.11-0.23-0.24-0.23z"/><path d="m1.04 16.19s3.6-0.72 6.49 0.6c2.89 1.32 6.37 0.37 8.33-0.4s3.49-1.23 6.93-0.4-1.8 7.57-10.87 8.09c0 0-7.23 1.12-10.87-7.89z"/></g></svg><svg xmlns:xlink="http://www.w3.org/1999/xlink" xml:space="preserve" height="42" viewBox="-10 -10 42.13 42.13" width="42" version="1.1" y="116" x="0" enable-background="new 0 0 22.125 22.125"><path d="m11.06 0c-6.11 0-11.06 4.95-11.06 11.06s4.95 11.06 11.06 11.06 11.06-4.95 11.06-11.06-4.95-11.06-11.06-11.06zm0 19.77c-4.81 0-8.7-3.9-8.7-8.7 0-4.81 3.9-8.7 8.7-8.7 4.81 0 8.7 3.9 8.7 8.71 0 4.81-3.89 8.7-8.7 8.7zm-1.12-2.81l-5.11-5.11c-0.04-0.03-0.06-0.07-0.07-0.11-0.04-0.12-0.02-0.25 0.07-0.34l1.49-1.5c0.09-0.09 0.23-0.12 0.34-0.07 0.04 0.02 0.08 0.04 0.12 0.07l3.16 3.16 6.24-6.24c0.04-0.04 0.07-0.06 0.12-0.07 0.12-0.04 0.25-0.02 0.34 0.07l1.49 1.49c0.09 0.09 0.12 0.23 0.07 0.34-0.02 0.04-0.04 0.08-0.07 0.12l-8.19 8.2z" fill="#BCBEC0"/></svg><svg xmlns:xlink="http://www.w3.org/1999/xlink" xml:space="preserve" height="39" viewBox="-10 -10 38.14 39.35" width="38" version="1.1" y="158" x="0" enable-background="new 0 0 18.141 19.349"><path d="m6.05 7.26h2.42v2.42h-2.42v-2.42zm3.63 0h2.42v2.42h-2.42v-2.42zm3.63 0h2.42v2.42h-2.42v-2.42zm-10.88 7.26h2.42v2.42h-2.42v-2.42zm3.63 0h2.42v2.42h-2.42v-2.42zm3.63 0h2.42v2.42h-2.42v-2.42zm-3.63-3.63h2.42v2.42h-2.42v-2.42zm3.63 0h2.42v2.42h-2.42v-2.42zm3.63 0h2.42v2.42h-2.42v-2.42zm-10.88 0h2.42v2.42h-2.42v-2.42zm13.3-10.88v1.21h-2.42v-1.21h-8.47v1.21h-2.42v-1.21h-2.42v19.35h18.14v-19.35h-2.42zm1.21 18.14h-15.72v-13.3h15.72v13.3z" fill="#BCBEC0"/></svg><svg xmlns:xlink="http://www.w3.org/1999/xlink" xml:space="preserve" height="36" viewBox="-10 -10 41.13 35.85" width="41" version="1.1" y="197" x="0" enable-background="new 0 0 21.132 15.85"><path d="m6.36 8.59c0 2.33 1.89 4.21 4.21 4.21s4.21-1.88 4.21-4.21c0-2.33-1.88-4.21-4.21-4.21s-4.21 1.89-4.21 4.21zm13.46-5.94h-4.62c-0.33-1.32-0.66-2.64-1.98-2.64h-5.28c-1.32 0-1.65 1.32-1.98 2.64h-4.62c-0.73 0-1.32 0.59-1.32 1.32v10.57c0 0.73 0.59 1.32 1.32 1.32h18.49c0.73 0 1.32-0.59 1.32-1.32v-10.57c0-0.73-0.59-1.32-1.32-1.32zm-9.25 11.89c-3.28 0-5.94-2.66-5.94-5.94s2.66-5.94 5.94-5.94 5.94 2.66 5.94 5.94-2.66 5.94-5.94 5.94zm9.25-9.24h-2.64v-1.32h2.64v1.32z" fill="#BCBEC0"/></svg></svg>