<svg xmlns="http://www.w3.org/2000/svg" version="1.1" x="0" y="0" width="18" height="13.5" viewBox="0 0 18 13.5" enable-background="new 0 0 18 13.502" xml:space="preserve"><path fill="#999999" d="M5.4 7.3C5.4 9.3 7 10.9 9 10.9c2 0 3.6-1.6 3.6-3.6 0-2-1.6-3.6-3.6-3.6C7 3.7 5.4 5.3 5.4 7.3zM16.9 2.3h-3.9C12.7 1.1 12.4 0 11.3 0h-4.5C5.6 0 5.3 1.1 5.1 2.3H1.1C0.5 2.3 0 2.8 0 3.4v9c0 0.6 0.5 1.1 1.1 1.1h15.8c0.6 0 1.1-0.5 1.1-1.1V3.4C18 2.8 17.5 2.3 16.9 2.3zM9 12.4c-2.8 0-5.1-2.3-5.1-5.1 0-2.8 2.3-5.1 5.1-5.1s5.1 2.3 5.1 5.1C14.1 10.1 11.8 12.4 9 12.4zM16.9 4.5h-2.2V3.4h2.3V4.5z"/></svg>