<?xml version="1.0"?>
<!--Icons from directory ""-->
<svg xmlns="http://www.w3.org/2000/svg" width="62" height="274" viewBox="0 0 62 274"><svg xmlns:xlink="http://www.w3.org/1999/xlink" id="footnotes" xml:space="preserve" height="44" viewBox="-10 -10 34.438 43.895" width="34" version="1.1" y="0" x="0px" enable-background="new 0 0 14.438 23.895"><path d="m7.219 0c-3.984 0-7.219 3.19-7.219 7.119 0 1.966 1.171 4.026 2.511 6.253 1.322 2.199 0.308 4.625 4.664 4.625h0.177c4.37-0.062 3.237-2.064 4.51-4.292s2.576-4.62 2.576-6.586c0-3.929-3.235-7.119-7.219-7.119zm3.653 13.134c-0.429 0.747-0.626 1.464-0.785 2.04-0.177 0.635-0.288 1.004-0.531 1.215-0.335 0.289-1.103 0.447-2.22 0.465-0.055 0.003-0.108 0.003-0.161 0.003-1.095 0-1.831-0.172-2.189-0.508-0.309-0.286-0.456-0.794-0.643-1.433-0.19-0.647-0.403-1.381-0.854-2.135-1.33-2.208-2.348-4.034-2.348-5.663 0-3.297 2.727-5.981 6.079-5.981 3.354 0 6.079 2.684 6.079 5.981 0 1.772-1.462 4.33-2.427 6.016zm-6.641 5.496v1.898c0.813 0.302 1.937 0.468 3.012 0.468s2.056-0.166 3.011-0.468v-1.748c-0.478 0.48-1.356 0.607-2.879 0.633-1.691 0.029-2.666-0.178-3.144-0.783zm-0.011 3.074c0.117 0.642 0.623 2.191 2.999 2.191 2.377 0 2.883-1.55 3-2.191-1.346 0.413-1.96 0.436-3 0.436-1.04-0.001-1.655-0.023-2.999-0.436z" fill="#999"/></svg><svg xml:space="preserve" height="44" width="44" version="1.1" y="44" x="0" enable-background="new 0 0 23.52 23.52" viewBox="-10 -10 43.5 43.5" id="icon_edit_grey"><path d="m22.4 1.1c-1.5-1.5-2.9-1.5-4.4 0l-0.4 0.4 4.5 4.4 0.4-0.4c1.4-1.5 1.4-2.9-0.1-4.4zm-20.9 16.5l-1.5 5.9 5.9-1.5 14.7-14.7-4.4-4.4-14.7 14.7zm4.4 1.5l-1.5-1.5 11.8-11.7 1.5 1.5-11.8 11.7z" fill="#999"/></svg><svg xml:space="preserve" height="44" width="44" version="1.1" y="88" x="0" enable-background="new 0 0 23.52 23.52" viewBox="-10 -10 43.5 43.5" id="icon_edit_white"><path d="m22.4 1.1c-1.5-1.5-2.9-1.5-4.4 0l-0.4 0.4 4.5 4.4 0.4-0.4c1.4-1.5 1.4-2.9-0.1-4.4zm-20.9 16.5l-1.5 5.9 5.9-1.5 14.7-14.7-4.4-4.4-14.7 14.7zm4.4 1.5l-1.5-1.5 11.8-11.7 1.5 1.5-11.8 11.7z" fill="#fff"/></svg><svg xml:space="preserve" height="40" width="40" version="1.1" y="132" x="0" enable-background="new 0 0 20.16 20.16" viewBox="-10 -10 40.2 40.2" id="icon_reset_grey"><path d="m20.2 7.6v-7.6l-3 3c-1.8-1.9-4.3-3-7.1-3-5.6 0-10.1 4.5-10.1 10.1s4.5 10.1 10.1 10.1c2.8 0 5.3-1.1 7.1-3l-1.8-1.8c-1.4 1.4-3.3 2.2-5.3 2.2-4.2 0-7.6-3.4-7.6-7.6s3.4-7.6 7.6-7.6c2.1 0 4 0.8 5.3 2.2l-2.8 3h7.6z" fill="#999"/></svg><svg xml:space="preserve" height="40" width="40" version="1.1" y="172" x="0px" enable-background="new 0 0 20.16 20.16" viewBox="-10 -10 40.16 40.16" id="icon_reset_white"><path d="m20.16 7.56v-7.56l-2.953 2.954c-1.824-1.825-4.345-2.954-7.127-2.954-5.567 0-10.08 4.513-10.08 10.08 0 5.568 4.513 10.08 10.08 10.08 2.782 0 5.303-1.128 7.128-2.951l-1.781-1.781c-1.369 1.368-3.259 2.213-5.347 2.213-4.175 0-7.56-3.385-7.56-7.56 0-4.174 3.385-7.56 7.56-7.56 2.088 0 3.977 0.847 5.346 2.215l-2.826 2.824h7.56z" fill="#fff"/></svg><svg xml:space="preserve" height="62" width="62" version="1.1" y="212" x="0" enable-background="new 0 0 42 41.999" viewBox="-10 -10 62 62" id="timer"><path d="m21 0c-11.6 0-21 9.4-21 21s9.4 21 21 21 21-9.4 21-21-9.4-21-21-21zm0 37.5c-9.1 0-16.5-7.4-16.5-16.5s7.4-16.5 16.5-16.5 16.5 7.4 16.5 16.5-7.4 16.5-16.5 16.5z" fill="#999"/><path d="m19.8 11.9v-4.2c0-0.6 0.5-1.2 1.2-1.2 0.6 0 1.2 0.5 1.2 1.2v4.2c0 0.6-0.5 1.2-1.2 1.2-0.6-0.1-1.2-0.6-1.2-1.2m0 22.6v-4.2c0-0.6 0.5-1.2 1.2-1.2 0.6 0 1.2 0.5 1.2 1.2v4.2c0 0.6-0.5 1.2-1.2 1.2-0.6-0.1-1.2-0.6-1.2-1.2m15.2-13h-4.2c-0.6 0-1.2-0.5-1.2-1.2 0-0.6 0.5-1.2 1.2-1.2h4.2c0.7 0 1.2 0.5 1.2 1.2 0 0.6-0.5 1.2-1.2 1.2m-23.5 0h-4.2c-0.6 0-1.2-0.5-1.2-1.2 0-0.6 0.5-1.2 1.2-1.2h4.2c0.6 0 1.2 0.5 1.2 1.2-0.1 0.6-0.6 1.2-1.2 1.2m1.8-7.4l-2.1-2.1c-0.3-0.3-0.3-0.9 0-1.2s0.9-0.3 1.2 0l2.1 2.1c0.3 0.3 0.3 0.9 0 1.2-0.2 0.2-0.4 0.3-0.6 0.3l-0.6-0.3m17.2 17l-2.1-2.1c-0.3-0.3-0.3-0.9 0-1.2s0.9-0.3 1.2 0l2.1 2.1c0.3 0.3 0.3 0.9 0 1.2-0.2 0.2-0.4 0.3-0.6 0.3s-0.4-0.1-0.6-0.3m-1-17l2.1-2.1c0.3-0.3 0.3-0.9 0-1.2s-0.9-0.3-1.2 0l-2.1 2.1c-0.3 0.3-0.3 0.9 0 1.2 0.2 0.2 0.4 0.3 0.6 0.3l0.6-0.3m-17.2 17l2.1-2.1c0.3-0.3 0.3-0.9 0-1.2s-0.9-0.3-1.2 0l-2.1 2.1c-0.3 0.3-0.3 0.9 0 1.2 0.2 0.2 0.4 0.3 0.6 0.3s0.5-0.1 0.6-0.3m7.7-5.8c1.9-2.3 9.6-11.8 6.2-9.6-3.9 2.4-9.5 6.6-9.5 6.6-0.5 0.4-0.9 1.1-0.9 1.8 0 1.3 1 2.3 2.3 2.3 0.6 0 1.1-0.2 1.5-0.5l0.1-0.1c0.1-0.2 0.2-0.3 0.3-0.5" fill="#999"/></svg></svg>
