<?xml version="1.0"?>
<!--Icons from directory ""-->
<svg xmlns="http://www.w3.org/2000/svg" width="24" height="210" viewBox="0 0 24 210"><svg xmlns:xlink="http://www.w3.org/1999/xlink" id="pic_grey" xml:space="preserve" height="17" viewBox="0 0 23 17.252" width="23" version="1.1" y="0" x="0px" enable-background="new 0 0 23 17.252"><path d="m6.918 9.342c0 2.531 2.055 4.586 4.58 4.586 2.531 0 4.584-2.055 4.584-4.586 0-2.523-2.053-4.58-4.584-4.58-2.525 0-4.58 2.057-4.58 4.58zm14.646-6.467h-5.03c-0.36-1.437-0.722-2.875-2.159-2.875h-5.75c-1.436 0-1.797 1.438-2.158 2.875h-5.029c-0.791 0-1.438 0.646-1.438 1.438v11.502c0 0.791 0.647 1.438 1.438 1.438h20.127c0.788 0 1.436-0.646 1.436-1.438v-11.502c-0.001-0.792-0.648-1.438-1.437-1.438zm-10.066 12.94c-3.571 0-6.467-2.897-6.467-6.473 0-3.571 2.896-6.467 6.467-6.467 3.577 0 6.471 2.896 6.471 6.467 0 3.575-2.894 6.473-6.471 6.473zm10.066-10.065h-2.875v-1.437h2.875v1.437z" fill="#999"/></svg><svg xmlns:xlink="http://www.w3.org/1999/xlink" id="pic_white" xml:space="preserve" height="17" viewBox="0 0 23 17.252" width="23" version="1.1" y="17" x="0px" enable-background="new 0 0 23 17.252"><path d="m6.918 9.342c0 2.531 2.055 4.586 4.58 4.586 2.531 0 4.584-2.055 4.584-4.586 0-2.523-2.053-4.58-4.584-4.58-2.525 0-4.58 2.057-4.58 4.58zm14.646-6.467h-5.03c-0.36-1.437-0.722-2.875-2.159-2.875h-5.75c-1.436 0-1.797 1.438-2.158 2.875h-5.029c-0.791 0-1.438 0.646-1.438 1.438v11.502c0 0.791 0.647 1.438 1.438 1.438h20.127c0.788 0 1.436-0.646 1.436-1.438v-11.502c-0.001-0.792-0.648-1.438-1.437-1.438zm-10.066 12.94c-3.571 0-6.467-2.897-6.467-6.473 0-3.571 2.896-6.467 6.467-6.467 3.577 0 6.471 2.896 6.471 6.467 0 3.575-2.894 6.473-6.471 6.473zm10.066-10.065h-2.875v-1.437h2.875v1.437z" fill="#fff"/></svg><svg xmlns:xlink="http://www.w3.org/1999/xlink" id="print_grey" xml:space="preserve" height="21" viewBox="0 0 24 21" width="24" version="1.1" y="34" x="0px" enable-background="new 0 0 24 21"><path d="m6 0h12v3h-12v-3zm16.5 4.5h-21c-0.826 0-1.5 0.674-1.5 1.5v7.5c0 0.826 0.674 1.5 1.5 1.5h4.5v6h12v-6h4.5c0.826 0 1.5-0.674 1.5-1.5v-7.5c0-0.826-0.674-1.5-1.5-1.5zm-6 15h-9v-7.5h9v7.5zm6.337-12.75c0 0.602-0.485 1.087-1.087 1.087s-1.087-0.486-1.087-1.087 0.485-1.087 1.087-1.087 1.087 0.485 1.087 1.087z" fill="#999"/></svg><svg xmlns:xlink="http://www.w3.org/1999/xlink" id="print_white" xml:space="preserve" height="21" viewBox="0 0 24 21" width="24" version="1.1" y="55" x="0px" enable-background="new 0 0 24 21"><path d="m6 0h12v3h-12v-3zm16.5 4.5h-21c-0.826 0-1.5 0.674-1.5 1.5v7.5c0 0.826 0.674 1.5 1.5 1.5h4.5v6h12v-6h4.5c0.826 0 1.5-0.674 1.5-1.5v-7.5c0-0.826-0.674-1.5-1.5-1.5zm-6 15h-9v-7.5h9v7.5zm6.337-12.75c0 0.602-0.485 1.087-1.087 1.087s-1.087-0.486-1.087-1.087 0.485-1.087 1.087-1.087 1.087 0.485 1.087 1.087z" fill="#fff"/></svg><svg xmlns:xlink="http://www.w3.org/1999/xlink" id="review_grey" xml:space="preserve" height="22" viewBox="0 0 23 22.108" width="23" version="1.1" y="76" x="0px" enable-background="new 0 0 23 22.108">		<path d="m20.973 0h-18.948c-2.025 0-2.025 1.845-2.025 1.845v12.14s-0.065 1.825 1.754 1.825h1.882v6.298l6.298-6.298h11.312c1.816 0 1.754-1.825 1.754-1.825v-12.14s0-1.845-2.027-1.845zm-6.338 12.299l-3.137-1.643-3.127 1.645 0.598-3.48-2.536-2.471 3.496-0.512 1.568-3.17 1.567 3.17 3.5 0.505-2.527 2.472 0.598 3.484z" fill="#999"/></svg><svg xmlns:xlink="http://www.w3.org/1999/xlink" id="review_white" xml:space="preserve" height="22" viewBox="0 0 23 22.108" width="23" version="1.1" y="98" x="0px" enable-background="new 0 0 23 22.108">		<path d="m20.973 0h-18.948c-2.025 0-2.025 1.845-2.025 1.845v12.14s-0.065 1.825 1.754 1.825h1.882v6.298l6.298-6.298h11.312c1.816 0 1.754-1.825 1.754-1.825v-12.14s0-1.845-2.027-1.845zm-6.338 12.299l-3.137-1.643-3.127 1.645 0.598-3.48-2.536-2.471 3.496-0.512 1.568-3.17 1.567 3.17 3.5 0.505-2.527 2.472 0.598 3.484z" fill="#fff"/></svg><svg xmlns:xlink="http://www.w3.org/1999/xlink" id="save_grey" xml:space="preserve" height="19" viewBox="0 0 22.999 18.843" width="23" version="1.1" y="120" x="0px" enable-background="new 0 0 22.999 18.843">	<path d="m11.478 2.757c-0.152-0.171-0.262-0.286-0.364-0.407-1.743-2.15-4.678-2.894-7.232-1.854-2.412 0.981-4.194 3.643-3.836 6.393 0.148 1.164 0.617 2.214 1.219 3.202 2.392 3.907 5.807 6.668 9.854 8.694 0.207 0.107 0.578 0.056 0.797-0.063 2.509-1.35 4.816-2.988 6.84-4.996 1.582-1.565 2.988-3.271 3.794-5.385 0.936-2.453 0.388-4.646-1.393-6.465-1.757-1.79-3.934-2.273-6.358-1.556-1.371 0.404-2.411 1.265-3.321 2.437z" fill="#999"/></svg><svg xmlns:xlink="http://www.w3.org/1999/xlink" id="save_white" xml:space="preserve" height="19" viewBox="0 0 22.999 18.843" width="23" version="1.1" y="139" x="0px" enable-background="new 0 0 22.999 18.843">	<path d="m11.478 2.757c-0.152-0.171-0.262-0.286-0.364-0.407-1.743-2.15-4.678-2.894-7.232-1.854-2.412 0.981-4.194 3.643-3.836 6.393 0.148 1.164 0.617 2.214 1.219 3.202 2.392 3.907 5.807 6.668 9.854 8.694 0.207 0.107 0.578 0.056 0.797-0.063 2.509-1.35 4.816-2.988 6.84-4.996 1.582-1.565 2.988-3.271 3.794-5.385 0.936-2.453 0.388-4.646-1.393-6.465-1.757-1.79-3.934-2.273-6.358-1.556-1.371 0.404-2.411 1.265-3.321 2.437z" fill="#fff"/></svg><svg xmlns:xlink="http://www.w3.org/1999/xlink" id="share_grey" xml:space="preserve" height="26" viewBox="0 0 22 26.157" width="22" version="1.1" y="158" x="0px" enable-background="new 0 0 22 26.157">	<path d="m17.312 16.783c-1.139 0-2.165 0.422-2.978 1.098l-5.406-3.367c0.279-0.598 0.445-1.26 0.445-1.965s-0.166-1.365-0.445-1.964l4.758-2.963c0.859 1.061 2.154 1.753 3.626 1.753 2.588-0.001 4.688-2.099 4.688-4.688 0-2.588-2.1-4.687-4.688-4.687-2.587 0-4.686 2.099-4.686 4.687 0 0.704 0.167 1.366 0.444 1.966l-4.756 2.962c-0.857-1.061-2.155-1.753-3.626-1.753-2.589 0-4.688 2.099-4.688 4.686 0 2.588 2.099 4.687 4.688 4.687 1.472 0 2.77-0.692 3.627-1.752l5.211 3.245c-0.561 0.772-0.899 1.714-0.899 2.741 0 2.589 2.099 4.687 4.686 4.687s4.687-2.097 4.687-4.686-2.1-4.687-4.688-4.687z" fill="#999"/></svg><svg xmlns:xlink="http://www.w3.org/1999/xlink" id="share_white" xml:space="preserve" height="26" viewBox="0 0 22 26.157" width="22" version="1.1" y="184" x="0px" enable-background="new 0 0 22 26.157">	<path d="m17.312 16.783c-1.139 0-2.165 0.422-2.978 1.098l-5.406-3.367c0.279-0.598 0.445-1.26 0.445-1.965s-0.166-1.365-0.445-1.964l4.758-2.963c0.859 1.061 2.154 1.753 3.626 1.753 2.588-0.001 4.688-2.099 4.688-4.688 0-2.588-2.1-4.687-4.688-4.687-2.587 0-4.686 2.099-4.686 4.687 0 0.704 0.167 1.366 0.444 1.966l-4.756 2.962c-0.857-1.061-2.155-1.753-3.626-1.753-2.589 0-4.688 2.099-4.688 4.686 0 2.588 2.099 4.687 4.688 4.687 1.472 0 2.77-0.692 3.627-1.752l5.211 3.245c-0.561 0.772-0.899 1.714-0.899 2.741 0 2.589 2.099 4.687 4.686 4.687s4.687-2.097 4.687-4.686-2.1-4.687-4.688-4.687z" fill="#fff"/></svg></svg>
