<?xml version="1.0"?>
<!--Icons from directory ""-->
<svg xmlns="http://www.w3.org/2000/svg" width="34" height="200" viewBox="0 0 34 200">
  <svg width="34" viewBox="0 0 34 200" height="200" id="reviews_done_icons_12-14" y="0">
    <svg id="reviews_done_icons_12-14-DoneFace-Icon" xml:space="preserve" height="32" width="34" version="1.1" y="0" x="0px" enable-background="new 0 0 21.559 19.959" viewBox="-6 -6 33.559 31.959"><g fill="#b3b3b3"><path d="m7.877 6.323c-0.025 0-0.051-0.001-0.077-0.002-0.594-0.042-1.04-0.557-0.999-1.15 0.029-0.451-0.036-1.781-0.673-2.46-0.288-0.307-0.669-0.449-1.197-0.449-0.532 0-0.917 0.145-1.211 0.458-0.647 0.688-0.718 2.041-0.692 2.461 0.036 0.592-0.415 1.104-1.008 1.14-0.583 0.042-1.105-0.414-1.141-1.008-0.018-0.26-0.119-2.589 1.271-4.069 0.7-0.743 1.66-1.137 2.78-1.137 1.122 0 2.083 0.395 2.776 1.14 1.384 1.483 1.263 3.815 1.244 4.075-0.04 0.569-0.512 1.001-1.073 1.001z"/><path d="m19.425 6.323c-0.024 0-0.051-0.001-0.076-0.002-0.594-0.042-1.04-0.557-0.999-1.15 0.029-0.451-0.037-1.781-0.673-2.46-0.288-0.307-0.669-0.449-1.197-0.449-0.532 0-0.918 0.145-1.211 0.458-0.647 0.688-0.718 2.041-0.692 2.461 0.036 0.593-0.414 1.104-1.008 1.141-0.588 0.042-1.104-0.414-1.142-1.008-0.017-0.261-0.118-2.59 1.272-4.069 0.699-0.743 1.661-1.137 2.78-1.137 1.121 0 2.082 0.395 2.776 1.14 1.382 1.483 1.262 3.814 1.242 4.075-0.039 0.568-0.512 1-1.072 1z"/><path d="m0.52 10.072c2.521-2.591 3.879 1.969 10.29 1.969s7.981-4.695 10.29-1.969c1.5 1.772-1.914 9.78-10.29 9.78s-11.971-8.053-10.29-9.78z"/></g></svg>
    <svg xmlns:xlink="http://www.w3.org/1999/xlink" id="reviews_done_icons_12-14-Review-Icon" enable-background="new 0 0 21.999 21.146" xml:space="preserve" height="33" width="34" version="1.1" y="32" x="0px" viewBox="-6 -6 33.999 33.146">		<path d="m20.061 0h-18.124c-1.937 0-1.937 1.765-1.937 1.765v11.612s-0.062 1.746 1.678 1.746h1.8v6.023l6.023-6.023h10.819c1.738 0 1.679-1.746 1.679-1.746v-11.612s0-1.765-1.938-1.765zm-6.061 11.765l-3.002-1.572-2.99 1.574 0.57-3.329-2.425-2.364 3.346-0.489 1.497-3.033 1.501 3.033 3.348 0.481-2.418 2.365 0.573 3.334z" fill="#b3b3b3"/></svg>
    <svg id="reviews_done_icons_12-14-Review-Icon_orange" xml:space="preserve" height="33" width="34" version="1.1" y="65" x="0" enable-background="new 0 0 21.999 21.146" viewBox="-6 -6 34 33.1"><path d="m20.1 0h-18.2c-1.9 0-1.9 1.8-1.9 1.8v11.6s-0.1 1.7 1.7 1.7h1.8v6l6-6h10.8c1.7 0 1.7-1.7 1.7-1.7v-11.6s0-1.8-1.9-1.8zm-6.1 11.8l-3-1.6-3 1.6 0.6-3.3-2.4-2.4 3.3-0.5 1.5-3 1.5 3 3.3 0.5-2.4 2.4 0.6 3.3z" fill="#FF7E1A"/></svg>
    <svg id="reviews_done_icons_12-14-ThumbsUp-Icon_gray" xml:space="preserve" height="35" width="30" version="1.1" y="98" x="0" enable-background="new 0 0 18 22.801" viewBox="-6 -6 30 35"><path d="m17 16.1c0-0.5 1-1.1 1-1.5 0-0.5-0.8-1.3-0.8-1.7 0.1-0.4 0.7-0.9 0.8-1.3 0-0.7-0.9-2-1.5-2.3-1-0.4-6.1-0.2-6.1-0.2-0.5-0.9 0.9-3 1.3-4 0.6-1.4 0.5-3.2-0.2-4.1-0.9-1.1-2.5-1.2-2.5-0.7-0.4 3.7-1.1 4.7-2 5.5-0.6 0.4-1.1 0.8-1.3 1.4-1.6 4.1-2.9 5.4-3.5 5.6h-2.2v8.9l6.5 0.9s5.9 0.6 7.8 0c0.6-0.2 1.6-1.1 1.8-1.6 0.1-0.3-0.1-1.1 0.1-1.4 0.2-0.5 1.2-1.1 1.2-1.7 0.1-0.5-0.4-1.3-0.4-1.8z" fill="#b3b3b3"/></svg>
    <svg id="reviews_done_icons_12-14-ThumbsUp-Icon_white" xml:space="preserve" height="35" width="30" version="1.1" y="133" x="0" enable-background="new 0 0 18 22.801" viewBox="-6 -6 30 35"><path d="m17 16.1c0-0.5 1-1.1 1-1.5 0-0.5-0.8-1.3-0.8-1.7 0.1-0.4 0.7-0.9 0.8-1.3 0-0.7-0.9-2-1.5-2.3-1-0.4-6.1-0.2-6.1-0.2-0.5-0.9 0.9-3 1.3-4 0.6-1.4 0.5-3.2-0.2-4.1-0.9-1.1-2.5-1.2-2.5-0.7-0.4 3.7-1.1 4.7-2 5.5-0.6 0.4-1.1 0.8-1.3 1.4-1.6 4.1-2.9 5.4-3.5 5.6h-2.2v8.9l6.5 0.9s5.9 0.6 7.8 0c0.6-0.2 1.6-1.1 1.8-1.6 0.1-0.3-0.1-1.1 0.1-1.4 0.2-0.5 1.2-1.1 1.2-1.7 0.1-0.5-0.4-1.3-0.4-1.8z" fill="#fff"/></svg>
    <svg id="reviews_done_icons_12-14-Review-Icon_white" xml:space="preserve" height="33" width="34" version="1.1" y="170" x="0" enable-background="new 0 0 21.999 21.146" viewBox="-6 -6 34 33.1"><path d="m20.1 0h-18.2c-1.9 0-1.9 1.8-1.9 1.8v11.6s-0.1 1.7 1.7 1.7h1.8v6l6-6h10.8c1.7 0 1.7-1.7 1.7-1.7v-11.6s0-1.8-1.9-1.8zm-6.1 11.8l-3-1.6-3 1.6 0.6-3.3-2.4-2.4 3.3-0.5 1.5-3 1.5 3 3.3 0.5-2.4 2.4 0.6 3.3z" fill="#FFF"/></svg>
 </svg>
</svg>
