<?xml version="1.0"?>
<!--Icons from directory ""-->
<svg xmlns="http://www.w3.org/2000/svg" width="37" height="144" viewBox="0 0 37 144"><svg xml:space="preserve" height="35" width="37" version="1.1" y="0" x="0" enable-background="new 0 0 25 22.666" viewBox="-6 -6 37 35" id="Nutrition-Icon_light"><path d="m0 10.4v12.3h7.6v-12.3s0.1-2.1-2-2.1h-3.6c-2.1 0-2 2.1-2 2.1zm8.7-8.3v20.6h7.6v-20.6s0.1-2.1-2-2.1h-3.5c-2.2 0-2.1 2.1-2.1 2.1zm8.7 13.2v7.4h7.6v-7.4s0.1-2.1-2-2.1h-3.6c-2 0-2 2.1-2 2.1z" fill="#BFBFBF"/></svg><svg xml:space="preserve" height="37" width="37" version="1.1" y="35" x="0" enable-background="new 0 0 25 24.954" viewBox="-6 -6 37 37" id="Servings-Icon_light"><path d="m11.4 13.9l-10.2-6.7c-0.8 1.6-1.2 3.4-1.2 5.3 0 6.5 5 11.9 11.4 12.5v-11.1zm1.2-1.7l10.3-6.7c-2.3-3.3-6.1-5.5-10.4-5.5s-8.1 2.2-10.3 5.4l10.4 6.8zm0.9 1.8v10.9c6.5-0.5 11.5-5.8 11.5-12.4 0-1.9-0.4-3.6-1.1-5.2l-10.4 6.7z" fill="#BFBFBF"/></svg><svg xml:space="preserve" height="35" width="37" version="1.1" y="72" x="0" enable-background="new 0 0 25 22.7" viewBox="-6 -6 37 34.7" id="nutrition-icon-orange"><path d="m0 10.372v12.294h7.57v-12.294s0.074-2.099-2.012-2.099h-3.536c-2.096 0-2.022 2.099-2.022 2.099zm8.713-8.272v20.566h7.57v-20.566s0.072-2.1-2.018-2.1h-3.531c-2.093 0-2.021 2.1-2.021 2.1zm8.713 13.208v7.358h7.574v-7.358s0.07-2.098-2.021-2.098h-3.539c-2.084 0-2.014 2.098-2.014 2.098z" fill="#FF7E1A"/></svg><svg xml:space="preserve" height="37" width="37" version="1.1" y="107" x="0" enable-background="new 0 0 25 25" viewBox="-6 -6 37 37" id="servings-icon-orange"><path d="m11.447 13.902l-10.289-6.658c-0.74 1.597-1.158 3.377-1.158 5.256 0 6.547 5.035 11.916 11.447 12.453v-11.051zm1.123-1.751l10.281-6.659c-2.247-3.314-6.046-5.492-10.351-5.492-4.277 0-8.055 2.151-10.307 5.429l10.377 6.722zm0.959 1.86v10.941c6.422-0.521 11.471-5.896 11.471-12.452 0-1.851-0.406-3.607-1.127-5.185l-10.344 6.696z" fill="#FF7E1A"/></svg></svg>
