<?xml version="1.0" encoding="utf-8"?>
<!-- Generator: Adobe Illustrator 16.0.0, SVG Export Plug-In . SVG Version: 6.00 Build 0)  -->
<!DOCTYPE svg PUBLIC "-//W3C//DTD SVG 1.1//EN" "http://www.w3.org/Graphics/SVG/1.1/DTD/svg11.dtd">
<svg version="1.1" id="Layer_1" xmlns="http://www.w3.org/2000/svg" xmlns:xlink="http://www.w3.org/1999/xlink" x="0px" y="0px"
	 width="6.744px" height="26.171px" viewBox="0 0 6.744 26.171" enable-background="new 0 0 6.744 26.171" xml:space="preserve">
<path fill="#999999" d="M3.344,2.552C2.909,2.55,2.56,2.205,2.56,1.777c0-0.432,0.35-0.777,0.783-0.779
	c0.432,0,0.787,0.348,0.784,0.777C4.127,2.199,3.775,2.548,3.344,2.552z M3.378,26.171c1.067-0.004,1.887-0.436,2.422-1.301
	c0.631-0.992,0.946-2.072,0.944-3.244c-0.005-1.522-0.397-2.815-1.187-3.881c-0.334-0.462-0.777-0.99-1.104-1.375
	c-0.199-0.232-0.682-0.789-0.704-1.182C3.726,13.612,5.097,2.095,5.104,2.063C5.147,1.835,5.111,1.47,5.052,1.261
	C4.836,0.53,4.14,0,3.341,0l0,0c-0.808,0.004-1.5,0.533-1.709,1.268c-0.063,0.205-0.099,0.57-0.055,0.797
	c0.01,0.035,1.293,11.515,1.273,13.092c-0.021,0.395-0.387,0.984-0.58,1.219c-0.321,0.385-0.766,0.914-1.096,1.377
	C0.388,18.82-0.001,20.114,0,21.638c0.003,1.171,0.322,2.25,0.953,3.238C1.491,25.744,2.31,26.171,3.378,26.171L3.378,26.171z"/>
</svg>
