<svg xmlns="http://www.w3.org/2000/svg" version="1.1" x="0px" y="0px" width="34.007px" height="31.483px" viewBox="464.267 264.251 34.007 31.483" enable-background="new 464.267 264.251 34.007 31.483" xml:space="preserve"><path fill="#FFFFFF" d="M476.642 274.162c-0.04 0-0.081-0.001-0.12-0.003 -0.947-0.066-1.66-0.887-1.595-1.834 0.047-0.72-0.059-2.84-1.071-3.923 -0.461-0.488-1.067-0.717-1.91-0.717 -0.85 0-1.462 0.231-1.932 0.73 -1.031 1.099-1.144 3.255-1.104 3.925 0.059 0.945-0.661 1.761-1.607 1.818 -0.931 0.067-1.761-0.66-1.817-1.606 -0.028-0.416-0.191-4.13 2.026-6.489 1.116-1.185 2.646-1.812 4.434-1.812 1.789 0 3.321 0.629 4.428 1.817 2.204 2.365 2.011 6.082 1.98 6.498C478.289 273.473 477.536 274.162 476.642 274.162z"/><path fill="#FFFFFF" d="M495.056 274.162c-0.038 0-0.081-0.001-0.12-0.003 -0.946-0.066-1.657-0.887-1.594-1.834 0.048-0.72-0.06-2.84-1.072-3.923 -0.46-0.488-1.066-0.717-1.908-0.717 -0.85 0-1.465 0.231-1.933 0.73 -1.032 1.099-1.145 3.255-1.104 3.925 0.059 0.945-0.66 1.761-1.606 1.818 -0.938 0.067-1.761-0.66-1.818-1.606 -0.026-0.416-0.189-4.13 2.027-6.489 1.115-1.185 2.647-1.812 4.435-1.812s3.319 0.629 4.427 1.817c2.203 2.365 2.012 6.082 1.98 6.498C496.703 273.473 495.95 274.162 495.056 274.162z"/><path fill="#FFFFFF" d="M464.91 280.141c4.021-4.131 6.186 3.141 16.408 3.141 10.224 0 12.728-7.487 16.407-3.141 2.395 2.825-3.051 15.593-16.407 15.593C467.964 295.734 462.23 282.896 464.91 280.141z"/></svg>