<svg xmlns="http://www.w3.org/2000/svg" xmlns:xlink="http://www.w3.org/1999/xlink" preserveAspectRatio="xMidYMid" width="267" height="4" viewBox="0 0 267 4">
  <defs>
    <style>

      .cls-2 {
        fill: #e4c516;
      }
    </style>
  </defs>
  <path d="M265.858,3.186 C265.679,3.336 265.423,3.673 265.087,3.796 C264.751,3.921 264.264,3.961 263.967,3.807 C263.340,3.481 263.048,2.872 263.242,2.169 C263.318,1.897 263.562,1.568 263.813,1.462 C264.660,1.110 265.905,2.061 265.858,3.186 ZM258.099,3.518 C257.681,3.178 257.319,2.707 257.088,2.221 C256.806,1.631 257.384,0.938 258.088,0.906 C258.946,0.867 259.753,1.409 259.847,2.231 C259.885,2.554 259.645,2.983 259.402,3.249 C259.070,3.609 258.543,3.873 258.099,3.518 ZM252.230,3.415 C251.511,3.290 251.005,2.537 251.254,1.723 C251.368,1.351 251.832,1.082 252.037,0.870 C253.169,0.974 253.889,1.741 253.777,2.498 C253.699,3.028 252.858,3.525 252.230,3.415 ZM246.392,2.083 C246.365,1.493 246.841,0.931 247.403,0.889 C248.427,0.811 249.088,1.308 249.156,2.200 C249.203,2.819 248.642,3.352 247.868,3.432 C247.169,3.502 246.428,2.826 246.392,2.083 ZM241.495,3.487 C240.920,3.549 240.317,3.209 240.174,2.637 C240.079,2.258 240.065,1.822 240.162,1.452 C240.230,1.193 240.553,1.000 240.787,0.751 C241.239,0.903 241.638,0.991 241.999,1.163 C242.640,1.468 242.923,2.006 242.756,2.501 C242.555,3.098 242.128,3.423 241.495,3.487 ZM235.036,3.491 C234.403,3.092 233.973,2.253 234.215,1.622 C234.338,1.311 234.739,1.104 234.911,0.944 C235.908,0.991 236.740,1.588 236.949,2.344 C237.004,2.542 236.925,2.846 236.791,3.010 C236.348,3.571 235.491,3.777 235.036,3.491 ZM228.487,2.498 C228.360,2.292 228.255,2.070 228.168,1.846 C227.897,1.140 228.294,0.529 229.038,0.482 C229.887,0.433 230.830,1.071 231.036,1.931 C231.096,2.190 230.964,2.603 230.768,2.791 C230.040,3.496 229.000,3.340 228.487,2.498 ZM222.534,2.881 C221.935,2.674 221.485,1.805 221.546,1.049 C221.580,0.623 222.330,0.128 222.870,0.177 C223.576,0.236 224.411,1.097 224.433,1.856 C224.440,2.067 224.306,2.344 224.143,2.486 C223.690,2.881 223.143,3.092 222.534,2.881 ZM214.045,2.123 C214.032,1.502 214.469,1.015 215.064,0.987 C215.928,0.949 216.692,1.597 216.730,2.407 C216.757,2.967 216.137,3.480 215.368,3.532 C214.634,3.583 214.063,2.976 214.045,2.123 ZM210.016,3.463 C209.312,3.720 208.677,3.471 208.307,2.888 C208.142,2.623 208.061,2.305 208.025,2.215 C207.948,1.242 208.498,0.777 209.253,0.936 C209.493,0.987 209.741,1.035 209.958,1.140 C210.547,1.421 211.075,2.222 210.872,2.702 C210.737,3.025 210.359,3.340 210.016,3.463 ZM204.094,3.879 C203.460,3.958 202.977,3.704 202.739,3.094 C202.594,2.726 202.471,2.347 202.308,1.889 C202.558,1.649 202.744,1.379 203.003,1.247 C203.557,0.962 204.116,1.100 204.637,1.392 C205.225,1.717 205.615,2.466 205.439,3.007 C205.235,3.635 204.674,3.807 204.094,3.879 ZM198.863,3.857 C198.537,3.589 198.093,3.358 197.851,2.998 C197.524,2.509 197.460,1.919 197.895,1.409 C197.991,1.294 198.147,1.184 198.292,1.159 C199.161,1.016 200.171,1.619 200.387,2.478 C200.454,2.739 200.334,3.181 200.133,3.345 C199.835,3.589 199.389,3.659 198.863,3.857 ZM192.087,3.796 C191.751,3.921 191.264,3.961 190.967,3.807 C190.340,3.481 190.048,2.872 190.243,2.169 C190.318,1.897 190.562,1.568 190.813,1.462 C191.660,1.110 192.905,2.061 192.858,3.186 C192.680,3.336 192.423,3.673 192.087,3.796 ZM185.230,3.415 C184.511,3.290 184.005,2.537 184.254,1.723 C184.368,1.351 184.832,1.082 185.037,0.870 C186.169,0.974 186.889,1.741 186.777,2.498 C186.699,3.028 185.858,3.525 185.230,3.415 ZM179.392,2.083 C179.365,1.493 179.841,0.931 180.403,0.889 C181.427,0.811 182.088,1.308 182.156,2.200 C182.203,2.819 181.642,3.352 180.868,3.432 C180.169,3.502 179.428,2.826 179.392,2.083 ZM174.495,3.487 C173.920,3.549 173.317,3.209 173.174,2.637 C173.080,2.258 173.065,1.822 173.162,1.452 C173.230,1.193 173.553,1.000 173.787,0.751 C174.239,0.903 174.638,0.991 174.999,1.163 C175.640,1.468 175.923,2.006 175.756,2.501 C175.555,3.098 175.128,3.423 174.495,3.487 ZM168.036,3.491 C167.403,3.092 166.973,2.253 167.215,1.622 C167.338,1.311 167.739,1.104 167.911,0.944 C168.908,0.991 169.740,1.588 169.949,2.344 C170.004,2.542 169.925,2.846 169.791,3.010 C169.348,3.571 168.491,3.777 168.036,3.491 ZM161.487,2.498 C161.360,2.292 161.255,2.070 161.168,1.846 C160.898,1.140 161.294,0.529 162.038,0.482 C162.887,0.433 163.830,1.071 164.036,1.931 C164.096,2.190 163.964,2.603 163.768,2.791 C163.040,3.496 162.000,3.340 161.487,2.498 ZM155.534,2.881 C154.935,2.674 154.485,1.805 154.546,1.049 C154.580,0.623 155.330,0.128 155.870,0.177 C156.576,0.236 157.411,1.097 157.433,1.856 C157.440,2.067 157.306,2.344 157.143,2.486 C156.690,2.881 156.143,3.092 155.534,2.881 ZM147.045,2.123 C147.032,1.502 147.469,1.015 148.064,0.987 C148.928,0.949 149.692,1.597 149.730,2.407 C149.757,2.967 149.137,3.480 148.368,3.532 C147.634,3.583 147.063,2.976 147.045,2.123 ZM143.016,3.463 C142.312,3.720 141.677,3.471 141.307,2.888 C141.142,2.623 141.061,2.305 141.025,2.215 C140.948,1.242 141.498,0.777 142.253,0.936 C142.493,0.987 142.741,1.035 142.958,1.140 C143.547,1.421 144.075,2.222 143.872,2.702 C143.737,3.025 143.359,3.340 143.016,3.463 ZM137.094,3.879 C136.460,3.958 135.977,3.704 135.739,3.094 C135.594,2.726 135.471,2.347 135.308,1.889 C135.558,1.649 135.744,1.379 136.003,1.247 C136.557,0.962 137.116,1.100 137.637,1.392 C138.225,1.717 138.615,2.466 138.439,3.007 C138.235,3.635 137.674,3.807 137.094,3.879 ZM131.863,3.857 C131.537,3.589 131.093,3.358 130.851,2.998 C130.525,2.509 130.460,1.919 130.895,1.409 C130.991,1.294 131.147,1.184 131.292,1.159 C132.161,1.016 133.171,1.619 133.387,2.478 C133.454,2.739 133.334,3.181 133.133,3.345 C132.835,3.589 132.389,3.659 131.863,3.857 ZM125.087,3.796 C124.751,3.921 124.264,3.961 123.967,3.807 C123.340,3.481 123.048,2.872 123.243,2.169 C123.318,1.897 123.562,1.568 123.813,1.462 C124.660,1.110 125.905,2.061 125.858,3.186 C125.680,3.336 125.423,3.673 125.087,3.796 ZM118.099,3.518 C117.681,3.178 117.319,2.707 117.088,2.221 C116.806,1.631 117.385,0.938 118.088,0.906 C118.946,0.867 119.753,1.409 119.847,2.231 C119.885,2.554 119.645,2.983 119.402,3.249 C119.070,3.609 118.543,3.873 118.099,3.518 ZM111.163,3.086 C110.381,2.980 109.852,2.373 109.844,1.571 C109.837,0.808 110.360,0.334 111.107,0.448 C111.348,0.485 111.601,0.536 111.815,0.645 C112.501,0.985 112.934,1.707 112.785,2.200 C112.620,2.733 111.820,3.172 111.163,3.086 ZM104.717,2.801 C104.597,2.868 104.402,2.813 104.119,2.813 C103.896,2.480 103.567,2.116 103.387,1.695 C103.135,1.105 103.327,0.338 103.714,0.164 C104.210,-0.063 104.668,0.122 105.092,0.394 C105.652,0.757 106.106,1.562 105.834,2.009 C105.616,2.366 105.115,2.567 104.717,2.801 ZM98.750,2.799 C98.161,2.388 97.717,1.886 97.830,1.172 C97.886,0.817 98.134,0.361 98.431,0.209 C98.712,0.066 99.187,0.208 99.546,0.324 C99.752,0.391 99.917,0.639 100.065,0.833 C100.698,1.660 100.507,2.283 99.466,2.710 C99.248,2.801 98.980,2.773 98.750,2.799 ZM91.897,3.005 C91.340,2.579 91.063,1.998 91.037,1.108 C91.338,0.918 91.746,0.455 92.089,0.496 C92.619,0.560 93.140,0.921 93.595,1.251 C93.946,1.504 93.952,2.323 93.708,2.623 C93.367,3.044 92.273,3.296 91.897,3.005 ZM85.843,2.852 C85.099,2.775 84.508,2.029 84.611,1.301 C84.695,0.710 85.257,0.229 85.797,0.290 C86.648,0.387 87.428,1.184 87.365,1.895 C87.317,2.428 86.529,2.925 85.843,2.852 ZM80.036,2.587 C79.118,2.623 78.488,1.944 78.598,1.036 C78.705,0.170 79.422,-0.253 80.201,0.137 C80.556,0.318 80.912,0.561 81.169,0.861 C81.741,1.526 81.407,2.331 80.525,2.512 C80.364,2.545 80.199,2.564 80.036,2.587 ZM73.318,2.775 C72.801,2.440 72.441,1.945 72.599,1.338 C72.686,0.999 73.015,0.605 73.337,0.471 C73.933,0.218 74.751,0.538 75.059,1.061 C75.295,1.464 75.437,1.921 75.625,2.363 C74.868,3.115 74.147,3.312 73.318,2.775 ZM68.230,3.415 C67.511,3.290 67.005,2.537 67.254,1.723 C67.368,1.351 67.832,1.082 68.037,0.870 C69.169,0.974 69.889,1.741 69.777,2.498 C69.699,3.028 68.858,3.525 68.230,3.415 ZM62.392,2.083 C62.365,1.493 62.841,0.931 63.403,0.889 C64.427,0.811 65.088,1.308 65.156,2.200 C65.203,2.819 64.642,3.352 63.868,3.432 C63.169,3.502 62.428,2.826 62.392,2.083 ZM57.495,3.487 C56.920,3.549 56.317,3.209 56.174,2.637 C56.079,2.258 56.065,1.822 56.162,1.452 C56.230,1.193 56.553,1.000 56.787,0.751 C57.239,0.903 57.638,0.991 57.999,1.163 C58.640,1.468 58.923,2.006 58.756,2.501 C58.555,3.098 58.128,3.423 57.495,3.487 ZM51.036,3.491 C50.403,3.092 49.973,2.253 50.215,1.622 C50.338,1.311 50.739,1.104 50.911,0.944 C51.908,0.991 52.740,1.588 52.949,2.344 C53.004,2.542 52.925,2.846 52.791,3.010 C52.348,3.571 51.491,3.777 51.036,3.491 ZM44.487,2.498 C44.360,2.292 44.255,2.070 44.168,1.846 C43.897,1.140 44.294,0.529 45.038,0.482 C45.887,0.433 46.830,1.071 47.036,1.931 C47.096,2.190 46.964,2.603 46.768,2.791 C46.040,3.496 45.000,3.340 44.487,2.498 ZM38.534,2.881 C37.935,2.674 37.485,1.805 37.546,1.049 C37.580,0.623 38.330,0.128 38.870,0.177 C39.576,0.236 40.411,1.097 40.433,1.856 C40.440,2.067 40.306,2.344 40.143,2.486 C39.690,2.881 39.144,3.092 38.534,2.881 ZM30.045,2.123 C30.032,1.502 30.469,1.015 31.064,0.987 C31.928,0.949 32.692,1.597 32.730,2.407 C32.757,2.967 32.137,3.480 31.368,3.532 C30.634,3.583 30.063,2.976 30.045,2.123 ZM26.016,3.463 C25.312,3.720 24.677,3.471 24.307,2.888 C24.142,2.623 24.061,2.305 24.025,2.215 C23.948,1.242 24.498,0.777 25.253,0.936 C25.493,0.987 25.741,1.035 25.958,1.140 C26.547,1.421 27.075,2.222 26.872,2.702 C26.737,3.025 26.359,3.340 26.016,3.463 ZM20.095,3.879 C19.460,3.958 18.977,3.704 18.739,3.094 C18.594,2.726 18.471,2.347 18.308,1.889 C18.558,1.649 18.744,1.379 19.003,1.247 C19.557,0.962 20.116,1.100 20.637,1.392 C21.225,1.717 21.615,2.466 21.439,3.007 C21.235,3.635 20.674,3.807 20.095,3.879 ZM14.863,3.857 C14.537,3.589 14.093,3.358 13.851,2.998 C13.524,2.509 13.460,1.919 13.895,1.409 C13.991,1.294 14.147,1.184 14.292,1.159 C15.162,1.016 16.171,1.619 16.387,2.478 C16.454,2.739 16.334,3.181 16.133,3.345 C15.835,3.589 15.389,3.659 14.863,3.857 ZM8.087,3.796 C7.751,3.921 7.264,3.961 6.967,3.807 C6.340,3.481 6.048,2.872 6.243,2.169 C6.318,1.897 6.562,1.568 6.814,1.462 C7.660,1.110 8.905,2.061 8.858,3.186 C8.680,3.336 8.423,3.673 8.087,3.796 ZM1.099,3.518 C0.681,3.178 0.319,2.707 0.088,2.221 C-0.194,1.631 0.385,0.938 1.088,0.906 C1.946,0.867 2.754,1.409 2.848,2.231 C2.885,2.554 2.645,2.983 2.402,3.249 C2.070,3.609 1.543,3.873 1.099,3.518 Z" id="path-1" class="cls-2" fill-rule="evenodd"/>
</svg>
