<svg xmlns="http://www.w3.org/2000/svg" xmlns:xlink="http://www.w3.org/1999/xlink" preserveAspectRatio="xMidYMid" width="121.75" height="186.062" viewBox="0 0 121.75 186.062">
  <defs>
    <style>
      .cls-1 {
        fill: #231f20;
        fill-rule: evenodd;
      }
    </style>
  </defs>
  <path d="M121.562,108.543 L121.263,109.840 C120.814,111.585 120.016,113.230 119.418,114.876 C118.919,116.522 118.470,118.167 118.071,119.813 C117.772,121.109 117.573,122.356 117.224,124.001 C116.974,125.248 116.426,126.445 116.077,127.692 C115.628,129.487 114.780,131.282 114.232,133.077 C114.082,133.576 113.334,135.670 113.035,137.016 C112.835,138.113 112.736,138.812 112.287,140.058 C112.087,140.607 111.938,141.155 111.639,142.202 C111.589,142.302 111.489,142.651 111.290,142.651 C110.791,142.651 110.542,142.601 110.143,142.651 C109.794,142.601 109.644,142.402 109.644,142.103 C109.644,141.804 109.843,141.255 110.093,140.756 C110.392,140.008 110.641,138.961 110.841,138.113 C111.140,136.418 111.589,134.723 112.137,133.127 L113.783,128.290 C114.182,127.293 114.531,126.345 114.830,125.348 C114.880,125.248 114.531,124.949 113.833,124.101 C113.434,123.353 112.287,121.807 111.888,121.010 C111.140,119.713 110.741,118.416 109.694,116.522 C108.896,114.976 108.098,113.330 107.500,111.685 C107.101,110.887 106.901,110.139 106.552,109.341 C106.203,108.493 105.854,107.945 105.854,107.645 C105.854,107.296 106.054,107.047 106.353,106.997 C106.652,106.947 107.001,106.898 107.300,106.898 C107.699,106.898 107.649,107.296 107.899,107.945 C108.497,109.291 109.295,110.787 109.644,111.734 C110.242,113.530 110.841,114.377 111.339,115.425 C113.085,119.314 114.182,120.960 114.631,121.658 C114.930,122.057 115.179,122.456 115.379,122.505 C115.478,121.757 115.728,120.611 115.827,120.012 C116.027,119.364 116.376,118.018 116.625,117.120 C117.124,115.474 117.772,113.829 118.371,112.133 C118.720,111.336 119.019,110.538 119.268,109.640 L119.866,107.147 C119.916,106.947 120.216,106.898 120.964,106.848 C121.313,106.848 121.761,106.997 121.761,107.346 C121.761,107.745 121.612,108.194 121.562,108.543 ZM118.186,40.847 C117.838,43.627 117.404,46.406 117.143,49.273 C116.796,54.051 115.927,58.829 115.927,65.430 C115.927,69.600 116.362,73.770 116.709,77.940 C116.883,80.285 116.970,82.630 117.230,85.063 C117.404,87.408 117.578,89.754 117.578,96.616 C117.578,97.137 117.491,97.572 116.883,97.659 C116.535,97.746 116.014,97.919 115.406,97.919 C114.277,97.919 114.016,97.572 114.016,96.790 C114.016,96.442 114.103,96.182 114.103,93.055 C114.103,88.537 113.756,84.194 112.800,72.641 C112.626,71.424 112.539,70.208 112.539,68.905 C112.452,68.645 112.452,68.384 112.452,68.123 L112.452,67.255 C112.366,66.994 112.105,66.994 111.671,66.994 C109.499,66.907 107.240,66.907 105.069,66.734 C102.723,66.560 100.378,66.299 96.556,66.212 C96.295,66.299 96.295,66.473 96.295,67.081 L96.295,70.469 L96.034,77.766 C95.774,82.457 94.992,87.148 94.905,91.925 C94.818,93.141 94.818,94.358 94.818,95.574 C94.818,96.095 94.818,96.703 94.731,97.224 C94.731,97.572 94.036,97.746 93.689,97.746 C93.428,97.746 92.907,97.832 92.473,97.832 C91.865,97.832 91.343,97.659 91.257,96.964 C91.257,95.921 91.343,94.879 91.343,93.836 C91.430,91.491 91.517,89.146 91.778,86.800 C91.778,86.539 91.865,86.366 91.865,86.105 C92.125,84.455 92.212,82.717 92.386,81.154 C92.386,80.980 92.473,80.893 92.473,79.677 C92.733,74.812 92.907,70.035 92.907,65.257 C92.907,62.911 92.994,60.566 92.994,58.134 C92.994,55.788 92.907,53.356 92.907,50.923 C92.907,48.578 92.820,46.233 92.647,43.887 C92.473,41.802 92.125,39.631 91.865,37.546 C91.778,37.025 91.604,36.590 91.604,36.156 C91.952,35.808 92.386,35.722 92.907,35.548 C93.168,35.548 93.602,35.461 94.036,35.461 C94.558,35.461 95.079,35.548 95.166,36.156 C95.426,37.198 95.426,38.241 95.513,39.370 C95.687,40.326 95.861,41.281 95.948,42.324 C96.295,45.885 96.382,49.534 96.382,56.657 C96.469,57.873 96.469,59.089 96.469,60.305 C96.469,61.174 95.948,62.477 97.337,62.738 C98.640,62.738 99.248,62.824 103.331,63.085 C105.677,63.346 108.109,63.519 110.541,63.519 C111.063,63.519 112.366,63.519 112.539,62.824 C112.539,61.695 112.626,60.566 112.713,59.437 C113.147,54.659 113.582,49.881 114.103,45.190 C114.364,43.018 114.624,40.934 114.972,38.849 C115.059,37.806 115.059,36.590 115.493,35.635 C115.667,35.374 116.014,35.200 116.362,35.200 C116.622,35.200 116.883,35.287 117.056,35.374 C118.794,35.635 118.881,35.895 118.881,36.156 C118.881,36.330 118.881,36.590 118.794,36.764 C118.446,38.067 118.273,39.457 118.186,40.847 ZM89.201,16.922 C89.086,16.975 88.956,17.008 88.848,17.078 C87.754,17.812 86.537,17.770 85.304,17.657 C84.661,17.597 84.033,17.507 83.421,17.280 C82.001,16.755 81.191,15.712 81.099,14.253 C81.019,13.018 81.504,11.932 82.584,11.187 C83.079,10.844 83.597,10.664 84.209,10.732 C84.494,10.763 84.790,10.685 85.076,10.708 C85.212,10.719 85.379,10.820 85.460,10.932 C85.577,11.102 85.517,11.302 85.397,11.470 C85.377,11.496 85.357,11.527 85.328,11.539 C84.924,11.717 84.847,12.102 84.728,12.507 C84.855,13.064 85.196,13.321 85.677,13.421 C85.804,13.447 85.930,13.475 86.052,13.514 C86.702,13.718 87.252,13.556 87.734,13.090 C88.780,12.085 88.636,10.590 87.418,9.776 C86.702,9.298 85.908,9.078 85.063,8.997 C84.263,8.920 83.465,8.823 82.665,8.733 C82.569,8.723 82.471,8.672 82.380,8.686 C81.049,8.893 79.686,8.565 78.352,8.945 C77.646,9.145 76.873,9.105 76.159,9.279 C74.993,9.566 73.800,9.577 72.623,9.748 C71.094,9.969 69.557,10.137 68.028,10.363 C67.489,10.443 66.970,10.652 66.435,10.758 C65.393,10.964 64.346,11.154 63.296,11.324 C62.658,11.426 62.032,11.532 61.434,11.797 C60.868,12.049 60.249,12.082 59.639,12.151 C58.230,12.311 56.848,12.621 55.464,12.916 C55.336,12.942 55.211,12.998 55.086,12.994 C54.014,12.960 52.991,13.300 51.937,13.401 C50.466,13.541 48.992,13.675 47.521,13.827 C46.560,13.926 45.612,14.074 44.663,14.280 C43.538,14.524 42.418,14.793 41.234,14.769 C40.046,14.746 38.855,14.903 37.668,14.989 C36.371,15.082 35.072,14.978 33.821,14.714 C32.340,14.401 30.936,13.763 29.673,12.928 C28.589,12.213 27.757,11.192 27.214,10.003 C26.799,9.101 26.500,8.159 26.545,7.118 C26.579,6.353 26.573,5.584 26.603,4.816 C26.669,3.198 27.565,2.132 28.847,1.316 C29.835,0.683 30.945,0.359 32.084,0.095 C33.311,-0.188 34.361,0.212 35.384,0.804 C35.411,0.820 35.432,0.848 35.457,0.867 C37.300,2.274 36.669,1.692 37.385,3.815 C37.654,4.612 37.559,5.488 37.229,6.282 C36.948,6.956 36.389,7.411 35.777,7.772 C35.391,8.000 34.963,8.164 34.538,8.311 C34.303,8.393 34.038,8.390 33.784,8.406 C33.694,8.412 33.560,8.388 33.514,8.326 C33.270,7.995 32.989,7.674 32.837,7.300 C32.698,6.955 32.893,6.614 33.151,6.343 C33.284,6.205 33.447,6.089 33.551,5.931 C33.825,5.516 33.809,5.075 33.574,4.648 C33.364,4.267 33.024,4.128 32.594,4.230 C31.853,4.403 31.321,4.830 31.038,5.544 C30.848,6.029 30.726,6.516 30.816,7.050 C31.066,8.532 31.585,9.832 32.987,10.619 C33.431,10.870 33.813,11.231 34.378,11.216 C34.523,11.212 34.673,11.334 34.823,11.393 C36.185,11.916 37.577,12.284 39.051,12.309 C40.111,12.327 41.170,12.420 42.228,12.441 C42.999,12.457 43.770,12.423 44.528,12.234 C45.121,12.085 45.720,11.963 46.317,11.839 C46.472,11.807 46.647,11.763 46.791,11.800 C47.327,11.939 47.807,11.759 48.305,11.617 C48.985,11.421 49.673,11.256 50.359,11.080 C51.668,10.741 52.975,10.394 54.286,10.065 C56.287,9.565 58.296,9.101 60.289,8.574 C61.440,8.271 62.567,7.875 63.706,7.525 C64.168,7.381 64.632,7.243 65.097,7.113 C65.904,6.891 66.720,6.702 67.520,6.453 C69.210,5.927 70.896,5.380 72.575,4.822 C73.341,4.570 74.088,4.274 74.845,3.998 C75.546,3.741 76.268,3.606 77.017,3.577 C77.595,3.555 78.173,3.488 78.749,3.428 C79.976,3.300 81.199,3.384 82.421,3.470 C82.583,3.481 82.744,3.531 82.901,3.521 C84.207,3.437 85.465,3.706 86.720,4.010 C87.764,4.263 88.727,4.700 89.619,5.286 C90.221,5.681 90.704,6.219 91.021,6.855 C91.871,8.567 92.499,10.346 92.465,12.302 C92.444,13.483 91.950,14.478 91.324,15.430 C90.619,15.932 90.001,16.558 89.201,16.922 ZM35.528,12.827 C35.124,12.722 34.698,12.647 34.337,12.456 C33.602,12.067 32.906,11.603 32.188,11.181 C31.197,10.597 30.570,9.738 30.236,8.653 C30.171,8.438 30.118,8.220 30.054,8.003 C29.719,6.837 29.844,5.728 30.381,4.635 C30.895,3.586 31.793,3.184 32.859,3.034 C33.145,2.994 33.439,3.033 33.675,3.251 C34.204,3.742 34.611,4.293 34.739,5.036 C34.837,5.593 34.760,6.120 34.551,6.809 C34.876,6.710 35.092,6.701 35.222,6.591 C35.466,6.387 35.684,6.141 35.870,5.881 C36.643,4.802 36.354,3.522 35.688,2.638 C35.196,1.988 34.407,1.656 33.608,1.503 C32.740,1.337 31.854,1.511 31.054,1.830 C30.348,2.111 29.708,2.576 29.062,3.002 C28.442,3.413 28.113,4.044 27.964,4.761 C27.722,5.934 27.694,7.120 27.788,8.309 C27.817,8.657 27.886,9.029 28.047,9.334 C28.794,10.743 29.704,12.007 31.278,12.610 C31.549,12.714 31.823,12.811 32.084,12.936 C33.984,13.844 35.995,13.923 38.039,13.745 C38.154,13.734 38.263,13.631 38.428,13.544 C37.399,13.290 36.461,13.067 35.528,12.827 ZM52.701,11.990 L52.757,12.023 L52.768,11.976 L52.701,11.990 ZM90.489,8.397 C90.229,7.752 89.828,7.187 89.186,6.770 C88.398,6.260 87.585,5.842 86.725,5.473 C86.031,5.177 85.321,4.990 84.592,4.915 C83.471,4.802 82.339,4.726 81.216,4.741 C79.831,4.758 78.450,4.875 77.069,4.976 C76.688,5.003 76.302,5.092 75.939,5.213 C74.565,5.673 73.204,6.173 71.829,6.626 C70.238,7.149 68.642,7.657 67.040,8.135 C65.683,8.540 64.295,8.850 62.946,9.280 C60.644,10.015 58.325,10.668 55.953,11.130 C55.116,11.293 54.269,11.442 53.490,11.869 C54.020,11.911 54.542,11.912 55.065,11.813 C56.614,11.519 58.166,11.233 59.712,10.928 C60.249,10.823 60.776,10.671 61.309,10.548 C61.904,10.412 62.497,10.237 63.100,10.166 C63.969,10.065 64.817,9.899 65.658,9.673 C66.745,9.380 67.830,9.089 68.963,8.977 C70.755,8.800 72.543,8.564 74.329,8.317 C75.985,8.086 77.634,7.804 79.287,7.553 C79.573,7.509 79.874,7.455 80.152,7.501 C80.703,7.590 81.243,7.522 81.788,7.486 C82.014,7.472 82.241,7.463 82.464,7.484 C83.552,7.592 84.644,7.686 85.725,7.835 C87.010,8.011 88.083,8.520 88.853,9.665 C89.825,11.111 89.913,12.427 88.878,13.850 C88.599,14.233 88.252,14.492 87.816,14.633 C86.699,14.994 85.651,14.755 84.649,14.219 C84.514,14.146 84.405,14.013 84.298,13.894 C83.928,13.487 83.834,12.992 83.840,12.460 C83.844,12.287 83.953,12.068 83.668,11.932 C83.554,11.991 83.412,12.057 83.277,12.132 C82.419,12.604 82.036,13.436 82.205,14.392 C82.366,15.289 82.978,15.786 83.752,16.089 C84.535,16.395 85.373,16.505 86.213,16.438 C86.722,16.398 87.247,16.338 87.726,16.177 C88.650,15.866 89.476,15.346 90.177,14.670 C91.025,13.853 91.454,12.859 91.374,11.642 C91.297,10.493 90.908,9.436 90.489,8.397 ZM27.058,45.190 C27.058,46.841 26.711,49.881 26.537,53.008 C26.277,57.178 26.016,61.435 26.016,63.346 C26.016,66.560 26.537,68.992 26.711,71.251 C26.972,75.768 26.972,79.416 26.972,86.192 C27.058,86.974 27.145,87.756 27.145,89.406 C27.145,90.883 26.885,92.360 26.885,93.836 C26.885,96.269 26.972,96.442 26.972,96.616 C26.972,96.964 26.450,97.224 25.929,97.224 L24.452,97.224 C24.105,97.224 23.497,97.224 23.497,96.529 C23.497,94.531 23.584,93.055 23.584,91.057 C23.671,90.275 23.757,89.493 23.757,88.711 L23.410,82.022 C23.323,80.459 23.323,78.895 23.323,77.245 C23.323,76.289 23.410,75.333 23.410,74.378 C23.410,72.206 23.236,70.121 22.976,67.950 C22.715,66.820 22.715,65.517 22.454,64.388 C22.368,63.954 21.760,63.867 21.238,63.867 C16.200,63.519 14.723,63.433 10.032,63.433 C8.382,63.433 6.905,63.519 5.341,63.693 C4.907,63.780 4.125,63.693 4.125,64.214 C4.125,68.992 4.386,70.903 4.386,73.683 C4.299,76.637 4.212,78.634 4.212,80.546 C4.212,81.762 4.212,82.891 4.299,84.107 C4.386,86.366 4.733,88.624 4.733,90.883 C4.733,91.665 4.646,92.447 4.299,96.269 C4.299,96.790 4.212,97.398 3.778,97.572 C3.517,97.746 3.170,97.746 2.822,97.746 C2.127,97.746 0.911,97.572 0.824,96.616 C0.998,95.139 1.172,93.576 1.172,92.012 C1.172,89.493 1.172,88.451 1.085,87.321 C0.911,84.802 0.824,82.196 0.824,79.590 C0.824,76.289 0.911,74.725 0.911,73.162 C0.911,71.511 0.824,69.948 0.737,68.384 C0.651,66.212 0.651,63.954 0.651,59.002 L0.911,54.398 L0.911,40.152 C0.911,39.370 0.998,38.501 1.085,37.720 C1.172,37.111 1.172,36.416 1.519,35.895 C1.693,35.548 2.127,35.461 2.562,35.461 C3.170,35.461 4.386,35.548 4.560,36.330 C4.560,36.938 4.473,37.459 4.386,38.241 C4.299,38.501 4.299,39.023 4.299,42.324 C4.212,43.279 4.212,44.669 4.212,46.146 C4.212,49.099 4.299,52.661 4.299,55.093 C4.299,55.788 4.212,57.352 4.125,59.437 C4.125,60.132 4.646,60.305 5.168,60.305 L8.469,60.045 C9.772,60.045 11.075,59.958 12.378,59.958 C14.202,59.958 16.113,60.045 17.937,60.132 C19.501,60.218 20.196,60.392 21.933,60.392 C22.281,60.392 22.628,60.218 22.715,59.871 C22.715,59.089 22.802,58.394 22.802,56.744 C22.976,53.616 23.236,50.402 23.497,47.275 C23.584,46.406 23.584,45.625 23.584,44.756 C23.584,42.497 23.410,40.152 23.323,37.111 C23.323,36.677 23.323,36.243 25.061,35.982 C25.321,35.982 25.842,35.808 26.103,35.808 C26.885,35.808 26.798,37.546 26.885,39.631 C26.885,39.631 27.058,44.322 27.058,45.190 ZM2.203,110.986 C2.951,109.640 4.048,108.443 5.295,107.596 C6.342,106.848 7.638,106.548 8.885,106.548 C10.580,106.548 11.877,106.997 13.223,108.344 C14.420,109.540 14.819,110.887 15.318,112.582 C15.767,114.228 16.165,115.923 16.315,117.669 C16.514,119.464 16.664,121.259 16.764,123.054 C16.814,124.201 16.814,125.398 16.814,126.545 C16.814,128.988 16.714,131.382 16.265,133.775 C15.667,137.016 15.517,137.764 15.268,138.512 C15.118,138.861 14.919,139.260 14.719,139.560 C14.570,139.809 14.221,140.108 14.221,140.407 C14.271,140.756 15.019,141.006 15.118,141.006 C15.517,141.105 15.866,141.205 16.265,141.255 C16.664,141.355 16.814,141.654 16.814,141.953 C16.814,142.252 16.714,142.551 16.614,142.851 C16.514,143.100 16.315,143.200 16.016,143.200 C15.567,143.200 15.068,143.000 14.819,142.950 C14.071,142.751 13.822,142.601 13.173,142.153 C13.024,142.053 12.575,141.704 12.475,141.704 C12.276,141.704 11.628,142.153 11.279,142.252 C10.231,142.651 9.084,142.851 8.436,142.851 C7.239,142.851 6.043,142.601 4.896,141.953 C3.101,140.756 1.804,138.861 1.305,136.667 C0.907,135.072 0.707,133.426 0.508,131.731 C0.258,129.487 0.109,127.193 0.109,124.899 C0.109,123.603 0.159,122.306 0.258,121.010 C0.408,119.264 0.657,117.469 0.857,115.724 C1.056,114.028 1.405,112.482 2.203,110.986 ZM2.053,124.600 C2.053,127.492 2.303,130.434 2.702,133.276 C2.801,134.174 2.951,135.072 3.150,135.969 C3.450,137.365 3.998,138.463 5.394,139.859 C6.192,140.607 7.389,140.956 8.586,140.956 C9.134,140.956 10.132,140.706 11.029,140.258 C11.179,140.208 11.229,140.158 11.229,140.058 C11.229,139.909 10.979,139.809 10.182,138.762 C9.733,138.163 9.234,137.615 8.885,136.967 C8.735,136.667 8.436,136.368 8.436,135.919 C8.436,135.620 8.885,135.520 9.134,135.371 C9.334,135.271 9.434,135.122 9.633,135.122 C10.082,135.122 10.281,135.570 10.580,135.969 C11.029,136.667 11.578,137.316 12.076,137.964 C12.625,138.612 12.775,138.712 12.824,138.712 C13.074,138.662 13.173,138.313 13.273,138.113 C13.572,137.465 13.672,136.767 13.822,136.119 C13.822,136.069 13.872,136.019 14.320,133.476 C14.669,131.731 14.819,129.935 14.819,126.445 C14.819,123.453 14.719,120.461 14.370,117.519 C14.171,115.774 13.822,114.128 13.223,112.532 C12.974,111.784 12.775,110.887 12.176,110.139 C11.279,109.141 10.032,108.543 8.935,108.543 C8.237,108.543 7.439,108.593 6.791,108.992 C6.142,109.341 5.594,109.939 5.095,110.438 C4.547,110.986 4.098,111.585 3.749,112.233 C3.101,113.480 2.851,114.926 2.752,116.272 C2.602,118.167 2.053,120.062 2.053,122.505 L2.053,124.600 ZM0.209,161.617 C0.209,160.758 0.127,158.920 0.536,156.999 C0.658,156.263 1.149,155.651 2.007,155.651 C10.179,155.651 14.634,157.694 14.634,166.602 C14.634,170.852 9.607,174.202 6.543,174.202 C6.065,174.202 5.314,174.202 4.735,174.086 C4.616,176.384 4.500,178.322 4.500,178.779 C4.500,180.495 4.990,183.887 4.990,184.541 C4.990,184.745 4.459,185.440 3.846,185.521 C2.783,185.685 2.252,186.053 1.598,186.053 C0.005,186.053 0.005,180.209 0.005,178.942 C0.005,177.880 0.495,170.770 0.495,166.847 C0.495,165.090 0.209,163.374 0.209,161.617 ZM4.990,166.929 C4.990,167.787 4.964,168.830 4.924,169.939 C5.402,169.969 6.000,169.993 6.379,169.993 L6.379,169.994 C7.319,169.994 10.139,168.523 10.139,166.807 C10.139,160.268 7.401,159.696 5.889,159.574 C5.276,159.533 4.867,159.737 4.867,159.901 C4.867,160.555 4.663,160.922 4.663,161.658 C4.663,163.415 4.990,165.172 4.990,166.929 ZM18.231,156.999 C18.435,156.509 19.742,155.977 20.437,155.977 C25.708,155.977 32.492,156.958 32.492,163.701 C32.492,168.563 30.081,171.260 26.567,172.159 C27.997,174.121 28.814,177.267 30.694,179.719 L30.693,179.719 C31.592,180.904 32.941,184.173 32.941,184.705 C32.941,185.154 31.633,185.522 30.816,185.522 C30.244,185.522 28.568,185.318 28.323,184.745 C27.915,183.806 27.506,183.111 26.893,182.294 C24.809,179.433 24.114,176.573 22.480,173.917 C22.377,173.746 22.210,173.589 22.026,173.437 C21.967,175.154 21.908,177.095 21.908,178.452 C21.908,179.719 22.194,183.029 22.194,184.296 C22.194,185.154 19.742,185.440 18.925,185.440 C18.108,185.440 17.536,185.440 17.536,184.827 C17.536,183.070 17.454,180.046 17.454,178.289 C17.454,175.347 17.781,170.361 17.781,169.462 C17.781,168.563 17.413,164.518 17.413,163.415 C17.413,161.780 18.026,157.489 18.231,156.999 ZM21.949,163.701 C21.949,164.408 22.064,167.038 22.122,168.609 L22.122,168.609 C24.619,167.905 28.078,167.302 28.078,163.823 C28.078,160.718 24.809,160.432 23.869,160.432 C23.338,160.432 22.316,160.309 22.112,160.799 C21.908,161.290 21.949,162.761 21.949,163.701 ZM31.132,142.950 C29.985,142.950 28.838,142.851 27.541,142.601 C26.843,142.452 26.195,142.302 25.597,142.003 C25.098,141.704 24.599,141.056 24.250,140.607 C23.801,140.058 23.253,139.260 23.103,138.363 C22.704,136.717 22.655,134.972 22.555,133.077 C22.505,131.282 22.305,129.437 22.206,127.642 C22.156,126.744 22.106,125.797 22.106,124.899 C22.106,124.001 22.156,123.104 22.206,122.206 C22.305,119.364 22.405,118.067 22.455,116.771 C22.505,114.976 22.655,113.181 22.704,111.385 C22.704,109.939 22.704,109.341 22.655,108.693 C22.655,108.244 22.605,107.795 22.605,107.346 C22.605,106.848 23.452,106.848 23.851,106.848 C24.200,106.848 24.599,106.947 24.599,107.496 C24.649,108.992 24.699,109.889 24.699,110.787 C24.699,112.582 24.500,114.427 24.450,116.222 C24.400,118.018 24.350,119.813 24.200,121.658 C24.151,122.555 24.101,123.453 24.101,124.351 C24.101,125.248 24.151,126.196 24.200,127.093 C24.250,128.888 24.400,130.733 24.500,132.528 C24.599,134.074 24.599,135.720 24.849,137.365 C24.948,138.064 25.198,138.762 25.646,139.310 C26.095,139.909 26.594,140.507 27.492,140.607 C28.589,140.806 29.686,141.006 31.281,141.006 C31.630,141.006 32.029,141.006 32.328,140.856 C32.877,140.557 33.226,139.859 33.675,139.161 C34.124,138.463 34.423,137.715 34.622,136.867 C35.021,135.221 35.071,133.426 35.171,131.681 C35.271,129.886 35.370,128.090 35.370,126.245 C35.370,125.497 35.420,124.749 35.420,124.001 C35.420,122.954 35.370,121.857 35.320,120.760 C35.221,119.214 35.121,117.669 35.121,116.123 C35.121,114.677 35.320,107.895 35.320,107.895 C35.320,107.695 35.320,107.496 35.370,107.296 C35.420,107.047 35.719,106.997 35.969,106.997 C36.567,106.997 37.315,107.047 37.315,107.795 C37.315,108.842 37.265,109.291 37.265,109.690 C37.116,113.530 37.066,114.627 37.066,115.774 C37.066,116.472 37.066,117.170 37.116,117.868 C37.365,123.054 37.365,124.301 37.365,125.597 C37.315,128.090 37.265,130.634 37.066,133.127 C36.966,134.822 36.816,136.568 36.268,138.213 C36.019,138.961 35.669,139.659 35.271,140.308 C34.622,141.355 33.874,142.502 32.578,142.851 C32.129,142.950 31.630,142.950 31.132,142.950 ZM44.608,155.446 C47.468,155.446 50.492,157.694 51.064,158.674 C52.658,161.412 52.984,167.133 52.984,170.157 C52.984,177.553 52.085,185.848 44.362,185.848 C42.687,185.848 41.093,185.767 39.908,185.031 C36.435,182.865 35.209,177.267 35.209,173.058 C35.209,168.972 35.413,162.311 37.824,158.388 C39.214,156.100 41.338,155.446 44.608,155.446 ZM41.951,181.272 C42.483,181.844 43.545,181.680 44.281,181.680 C48.285,181.680 48.490,174.611 48.490,170.198 C48.490,167.542 48.367,162.189 47.509,161.085 C46.855,160.227 45.752,159.533 44.485,159.533 C43.177,159.533 42.237,159.614 41.543,161.085 C39.949,164.477 39.704,170.933 39.704,173.058 C39.704,175.714 40.072,179.269 41.951,181.272 ZM42.123,66.907 C42.384,70.469 42.731,73.944 42.905,77.505 C42.992,78.461 42.992,79.503 42.992,80.459 C42.992,82.457 42.905,84.455 42.905,86.453 C42.905,93.489 42.818,94.358 42.818,95.139 C42.818,95.487 42.731,95.921 42.731,96.616 C42.731,96.790 42.558,97.137 40.646,97.485 C40.212,97.485 39.865,97.398 39.517,97.137 C39.343,96.964 39.257,96.616 39.257,96.356 C39.257,95.574 39.430,94.705 39.430,93.141 C39.430,82.109 39.517,80.546 39.517,78.982 C39.517,77.418 39.343,75.855 39.170,74.291 C38.649,68.123 38.388,61.782 38.388,55.528 C38.388,52.400 38.562,49.273 38.562,46.146 C38.562,43.105 39.257,39.978 39.343,36.938 C39.343,36.590 39.343,36.330 39.517,35.982 C39.952,35.548 40.646,35.548 41.341,35.548 C41.863,35.548 42.818,35.635 42.818,36.590 C42.818,37.372 42.731,38.067 42.731,38.849 C42.471,41.976 41.428,45.016 41.689,48.144 C41.863,50.229 41.776,52.400 41.776,54.485 C41.776,55.528 41.863,56.570 41.863,57.612 C41.863,60.740 41.950,63.867 42.123,66.907 ZM49.439,132.628 C49.040,132.578 48.641,132.479 48.242,132.479 C47.444,132.479 46.597,132.479 45.799,132.578 C45.450,132.678 45.450,133.027 45.051,134.573 C44.801,135.421 44.552,136.268 44.403,137.166 C44.303,137.864 44.153,138.562 43.904,139.659 C43.804,140.108 43.754,140.507 43.704,140.956 L43.555,142.202 C43.455,142.452 43.256,142.452 42.408,142.452 C42.159,142.452 41.959,142.452 41.760,142.302 C41.660,142.202 41.610,142.053 41.610,141.853 C41.610,141.554 41.710,141.255 41.710,141.056 L41.859,139.809 C42.208,138.113 42.508,136.418 42.907,134.772 C43.156,133.925 43.455,133.177 43.605,132.329 C43.754,131.431 43.904,130.584 44.004,129.686 C44.253,127.891 44.353,126.146 44.652,124.351 C44.901,122.605 45.200,120.860 45.599,119.115 C46.696,114.427 47.145,113.031 47.245,112.582 C47.444,111.784 47.744,110.089 47.744,110.089 C47.943,109.241 47.993,108.693 48.292,107.795 C48.392,107.446 48.492,107.097 48.890,106.997 C49.240,106.898 49.638,106.798 49.988,106.798 C50.436,106.848 50.835,106.898 51.234,107.047 C51.484,107.247 51.633,107.496 51.783,107.795 C52.082,108.393 52.531,109.690 52.630,110.388 C52.930,112.283 53.678,115.923 53.678,115.923 C53.777,116.771 54.027,117.619 54.126,118.466 C54.426,120.212 54.575,121.957 54.775,123.702 C54.874,124.600 54.974,125.497 55.124,126.395 C55.174,126.794 55.174,127.243 55.572,128.838 C56.021,130.584 56.271,132.329 56.620,134.074 C56.719,134.922 56.969,135.720 57.068,136.617 C57.268,138.064 57.617,139.510 57.767,141.006 L57.767,141.953 C57.767,142.153 57.617,142.302 57.418,142.302 C56.470,142.302 56.221,142.302 56.021,142.252 C55.822,142.202 55.822,142.053 55.822,141.903 C55.822,141.205 55.722,140.507 55.572,139.759 C55.473,139.310 55.473,138.861 55.423,138.413 C55.124,136.268 54.825,135.421 54.675,134.573 C54.525,133.825 54.326,133.526 53.927,133.227 C52.581,132.878 51.733,132.728 50.835,132.678 C50.386,132.678 49.888,132.678 49.439,132.628 ZM53.827,131.082 C53.927,131.082 53.977,131.033 54.027,130.883 C53.877,130.035 53.678,129.187 53.428,128.290 C53.229,127.442 53.079,126.345 53.029,125.398 C52.730,122.805 52.431,120.262 51.932,117.718 C51.783,116.821 51.733,115.923 51.583,115.075 C51.484,114.178 51.035,112.482 50.885,111.585 L50.636,109.939 C50.436,109.241 50.237,108.992 50.087,108.992 C49.938,109.042 49.938,109.141 49.738,109.790 C49.489,111.336 49.339,111.784 48.990,113.430 C48.890,113.879 48.492,115.275 48.093,116.970 C47.694,118.716 47.345,120.461 46.996,122.206 C46.597,124.001 46.397,125.797 46.248,127.592 L45.948,130.384 C45.948,130.534 46.048,130.584 46.347,130.584 C46.746,130.534 47.195,130.534 47.644,130.534 C48.691,130.534 49.439,130.683 50.187,130.683 C51.035,130.733 51.932,130.783 52.780,130.933 L53.827,131.082 ZM56.435,155.937 C56.721,155.937 58.723,155.896 59.908,155.937 C63.545,156.059 65.588,156.182 66.038,156.182 C66.487,156.182 68.571,156.386 70.165,156.958 L70.165,156.955 C70.778,157.200 71.227,157.527 71.227,158.099 C71.227,159.774 71.187,160.959 70.574,160.959 C69.348,160.959 66.283,160.306 65.752,160.306 L65.175,160.273 C65.138,163.235 64.894,167.303 64.894,168.928 C64.894,171.134 64.445,173.954 64.445,175.507 C64.445,177.059 64.812,181.922 64.812,184.088 C64.812,184.701 62.973,185.682 62.238,185.682 C60.930,185.682 60.277,185.559 60.277,184.047 C60.277,181.187 59.950,176.610 59.950,175.507 C59.950,174.403 60.399,170.154 60.399,168.928 C60.399,167.727 60.634,163.353 60.644,160.064 L59.949,160.064 C59.295,160.064 55.332,160.186 54.678,160.186 C54.269,160.186 54.188,158.143 54.188,156.795 C54.188,156.304 55.291,155.937 56.435,155.937 ZM68.237,142.701 C67.838,142.701 67.439,142.701 67.040,142.651 C66.143,142.651 65.295,142.502 64.397,142.402 C63.948,142.402 63.550,142.551 63.101,142.551 C62.802,142.551 62.552,142.402 62.353,142.153 C62.054,141.804 62.153,141.405 62.103,141.006 C62.103,140.557 62.103,140.108 62.054,139.709 C62.054,139.360 62.004,138.961 62.004,138.413 C62.004,137.615 62.054,136.418 62.103,134.324 C62.153,133.426 62.253,132.528 62.253,131.631 C62.253,129.836 62.203,128.041 62.153,126.245 C62.153,125.348 62.153,124.450 62.054,123.553 C61.954,122.705 61.804,121.807 61.754,120.960 C61.655,119.514 61.605,118.018 61.605,116.571 C61.655,113.779 61.804,111.984 62.004,110.189 C62.103,109.740 62.153,109.241 62.153,108.792 C62.203,108.393 62.153,107.995 62.253,107.596 C62.303,107.396 62.403,107.346 62.602,107.296 C62.752,107.247 62.951,107.247 63.151,107.247 C63.400,107.296 64.048,107.346 64.148,107.596 C64.198,107.745 64.198,107.895 64.198,108.044 C64.198,108.344 64.148,108.643 64.148,108.892 C63.599,113.978 63.550,115.075 63.550,116.222 C63.550,116.871 63.599,117.569 63.599,118.217 C63.649,119.115 63.699,120.012 63.699,120.910 C63.749,121.807 63.899,122.655 63.998,123.503 C64.148,124.700 64.148,125.896 64.148,128.888 C64.198,129.786 64.198,130.683 64.198,131.581 C64.198,133.177 63.998,134.772 63.998,137.216 C63.998,138.014 63.998,138.812 64.048,139.609 C64.048,140.058 64.098,140.258 64.347,140.357 C64.597,140.507 64.946,140.507 65.245,140.557 C66.143,140.657 67.040,140.706 68.586,140.706 C70.132,140.706 72.077,140.407 73.622,140.407 C73.872,140.407 73.971,140.906 73.971,141.454 C73.971,141.654 73.922,142.103 73.722,142.252 C73.573,142.352 73.373,142.402 73.223,142.402 C72.825,142.402 72.376,142.402 69.434,142.651 C69.035,142.701 68.636,142.701 68.237,142.701 ZM81.794,108.194 C81.794,108.842 81.843,109.491 81.893,110.139 C81.893,115.125 81.893,115.973 81.943,116.771 C82.043,118.566 82.192,120.311 82.192,122.107 C82.192,122.505 82.143,122.954 82.143,123.353 C82.093,124.650 81.943,125.996 81.843,127.342 C81.794,128.689 81.544,130.035 81.444,131.382 C81.195,134.074 81.095,136.867 81.095,142.053 C81.095,142.202 81.095,142.352 80.896,142.452 C80.696,142.551 80.497,142.502 80.298,142.551 C80.198,142.551 79.899,142.601 79.649,142.601 C79.350,142.601 79.101,142.551 79.101,142.302 C79.101,138.113 79.101,137.166 79.151,136.219 C79.250,134.822 79.250,133.476 79.350,132.130 C79.500,130.783 79.699,129.437 79.799,128.041 C79.899,127.342 79.899,126.644 79.948,125.946 C80.148,123.353 80.148,122.705 80.148,122.057 C80.148,120.012 79.899,117.968 79.899,115.923 C79.899,110.538 79.799,109.191 79.749,107.895 C79.749,107.695 79.699,107.446 79.699,107.197 C79.899,107.047 80.098,106.947 80.347,106.898 C80.497,106.848 80.746,106.848 80.996,106.848 C81.145,106.848 81.295,106.848 81.444,106.898 C81.744,106.997 81.794,107.346 81.794,108.194 ZM77.408,72.293 C72.196,72.293 71.588,72.380 70.980,72.380 C69.850,72.293 69.677,70.990 69.677,69.861 C69.677,69.687 69.677,69.513 69.764,69.340 C70.111,68.992 70.545,68.905 71.067,68.905 C72.630,68.905 73.933,68.992 74.889,68.992 C76.539,68.992 77.495,68.818 78.624,68.818 C79.493,68.818 80.362,69.079 80.970,69.687 C81.491,70.295 81.578,70.990 81.578,73.944 C81.578,75.247 81.404,76.637 81.317,77.940 C81.230,79.503 81.143,81.067 80.970,82.717 C80.883,84.194 79.927,87.756 79.406,89.146 C78.972,90.362 78.277,92.186 77.234,93.228 C76.800,93.663 75.844,94.618 74.715,95.400 C72.283,97.051 70.024,98.180 67.592,98.180 C66.289,98.180 64.986,97.919 63.683,97.572 C61.164,96.877 59.253,95.487 57.863,93.315 C57.168,92.099 56.733,90.709 56.386,89.493 L55.343,85.323 C54.996,83.847 54.735,82.283 54.562,80.806 L54.301,76.202 C54.127,74.639 53.954,73.075 53.693,66.820 C53.606,64.909 53.519,62.998 53.519,61.087 C53.519,59.871 53.606,58.568 53.693,57.352 C53.867,54.311 54.562,51.358 55.604,48.491 C57.341,43.800 58.905,38.936 63.509,36.503 C65.594,35.461 68.026,34.853 70.372,34.853 C73.325,35.027 74.715,35.982 76.626,37.546 C78.364,38.936 79.319,41.629 80.188,43.887 C80.448,44.495 80.709,45.103 80.709,46.059 C80.709,46.233 80.622,46.406 80.448,46.493 C79.232,47.101 78.798,47.275 78.450,47.275 C78.190,47.275 77.929,47.188 77.755,46.928 C77.408,46.580 77.321,45.972 77.147,45.451 C76.366,43.018 75.497,40.586 73.238,39.370 C72.022,38.675 71.501,38.328 70.111,38.328 C69.156,38.328 68.200,38.501 67.244,38.762 C64.812,39.457 63.248,40.934 61.859,43.018 C60.990,44.148 60.295,45.364 58.297,51.010 C57.168,54.138 56.994,57.265 56.994,60.479 C56.994,62.564 57.081,64.736 57.168,66.820 C57.168,68.384 57.168,69.948 57.255,71.424 C57.428,72.988 57.602,74.552 57.689,76.028 C57.863,77.679 57.863,79.243 57.950,80.806 C58.123,82.283 58.471,83.760 58.905,85.236 C59.600,87.756 59.774,90.883 61.859,92.794 C63.335,94.097 65.333,94.792 67.418,94.792 C70.111,94.792 73.673,92.620 74.976,90.622 C75.758,89.493 76.105,88.103 76.539,86.887 C76.974,85.410 77.234,83.933 77.408,82.457 C77.495,80.893 77.582,79.416 77.755,77.679 C77.929,76.376 78.103,75.073 78.103,73.596 C78.103,73.162 78.016,72.293 77.408,72.293 ZM74.661,156.550 C75.273,156.427 79.891,156.059 80.790,156.059 C82.302,156.059 83.855,156.018 85.367,156.345 C86.061,156.509 86.143,156.999 86.143,157.653 C86.143,158.184 85.939,160.145 85.244,160.145 C83.324,160.145 79.973,160.186 78.420,160.513 C78.338,161.453 78.216,162.924 78.216,163.864 L78.194,167.366 C78.753,167.294 79.810,167.174 80.668,167.174 C81.362,167.174 84.427,167.337 85.122,167.337 C86.430,167.337 86.552,167.501 86.552,168.604 C86.552,169.176 85.735,171.546 85.285,171.546 C84.427,171.546 82.384,171.342 80.668,171.342 C79.719,171.342 78.735,171.444 78.157,171.516 L78.134,174.774 C78.134,175.469 78.543,180.250 78.666,180.822 C78.747,181.190 80.341,180.945 81.403,180.781 C82.466,180.618 84.018,180.373 84.713,180.373 C85.571,180.373 86.470,182.498 86.470,183.478 C86.470,184.009 82.792,184.827 81.526,184.949 C80.259,185.072 77.684,185.113 75.314,185.113 C74.170,185.113 73.639,175.714 73.639,174.407 C73.639,173.099 73.639,165.703 73.721,163.333 C73.843,160.186 74.088,156.672 74.661,156.550 ZM84.713,180.373 C84.713,180.373 84.713,180.373 84.713,180.373 C84.713,180.373 84.713,180.373 84.713,180.373 L84.713,180.373 ZM87.455,106.548 L88.851,106.598 C88.851,106.598 91.046,106.299 92.192,106.299 C93.090,106.299 93.988,106.598 94.885,106.598 C95.135,106.598 95.334,106.598 95.583,106.548 C96.182,106.499 96.780,106.399 97.379,106.299 C97.578,106.249 97.827,106.199 98.077,106.199 C98.974,106.150 99.722,106.249 100.171,106.249 C100.869,106.299 102.016,106.399 102.664,106.399 C103.213,106.399 103.313,106.698 103.313,107.147 C103.263,107.745 103.263,108.294 102.914,108.393 L100.470,108.294 C99.772,108.244 99.323,108.244 98.825,108.244 C98.426,108.244 95.932,108.294 95.932,108.743 C95.932,108.942 95.982,109.191 96.032,109.341 C96.182,110.288 96.431,111.485 96.431,112.632 C96.431,116.073 96.182,118.466 96.032,120.810 C95.833,123.553 95.733,126.245 95.633,128.938 C95.583,130.285 95.484,129.886 95.334,131.232 C95.234,132.429 95.035,135.271 94.985,136.418 C94.885,137.764 94.835,139.111 94.835,142.252 C94.736,142.502 94.486,142.551 94.187,142.551 C93.988,142.551 93.738,142.502 93.589,142.502 C92.990,142.502 92.841,142.302 92.841,141.654 C92.891,137.465 92.940,136.518 93.040,135.620 C93.190,134.074 93.339,132.528 93.439,130.933 C93.439,130.434 93.688,129.836 93.688,129.187 C93.738,126.594 93.688,125.248 93.788,123.852 C94.237,117.718 94.436,115.624 94.436,113.530 C94.436,112.881 94.436,112.283 94.387,111.635 C94.337,111.086 94.187,110.288 94.087,109.740 C93.888,108.693 93.688,108.543 93.639,108.543 C93.339,108.393 92.891,108.443 92.591,108.393 C92.242,108.393 91.943,108.393 91.594,108.443 C90.946,108.443 88.951,108.593 88.353,108.593 C87.505,108.593 87.106,108.543 86.907,108.194 C86.707,107.945 86.608,107.546 86.608,107.197 C86.608,107.047 86.608,106.898 86.657,106.798 C86.757,106.598 87.106,106.548 87.455,106.548 ZM93.889,156.018 C95.279,156.018 95.565,156.059 95.565,157.326 C95.565,158.102 95.115,163.088 95.033,165.744 C95.033,166.398 95.279,167.010 95.279,167.664 C95.238,170.279 95.197,172.895 95.197,175.510 C95.197,177.798 95.605,181.026 95.605,183.315 C95.605,184.868 94.747,185.440 93.726,185.440 C92.990,185.440 90.865,185.317 90.865,184.745 C90.865,184.173 91.029,183.642 91.029,183.070 C91.029,180.945 90.661,178.084 90.661,175.959 C90.661,173.017 90.579,170.566 90.579,167.869 C90.579,167.378 90.293,166.561 90.293,165.621 C90.334,162.679 90.947,157.408 91.233,156.713 C91.519,156.059 93.235,156.018 93.889,156.018 ZM103.113,156.182 C103.726,156.182 105.238,156.263 105.851,156.263 C106.423,156.263 108.507,160.472 109.242,162.720 C109.651,164.027 110.305,166.398 110.877,168.195 C111.367,169.789 111.980,172.486 112.757,174.652 C113.206,175.878 113.860,176.736 114.187,177.635 C114.228,176.286 114.064,171.056 114.064,168.808 C114.064,166.929 113.410,163.415 113.410,161.821 C113.410,160.391 113.819,158.960 113.819,157.081 C113.819,156.672 113.942,155.937 115.290,155.937 C116.026,155.937 118.314,156.304 118.314,156.795 C118.314,158.960 117.987,160.227 117.946,161.862 C117.946,163.333 118.437,166.806 118.437,168.768 C118.437,171.546 118.355,175.101 118.355,177.880 C118.355,179.515 118.191,182.947 118.028,184.582 C117.946,185.358 116.475,185.440 115.821,185.440 C114.718,185.440 114.309,185.358 114.146,185.235 C113.737,184.949 112.511,183.887 111.572,181.803 C110.877,180.291 109.937,178.779 109.242,176.940 C108.057,173.712 107.240,170.279 106.913,169.094 C106.341,166.970 105.687,164.763 105.279,164.395 C104.993,166.152 105.115,170.198 105.115,172.323 C105.115,175.714 105.932,183.723 105.932,184.663 C105.932,185.235 104.584,185.358 103.317,185.358 C102.623,185.358 101.928,185.195 101.560,184.541 C101.356,184.173 101.356,183.397 101.356,182.906 C101.356,179.678 100.702,175.796 100.702,172.568 C100.702,169.544 100.825,166.561 101.070,163.537 C101.233,161.330 101.928,156.182 103.113,156.182 Z" class="cls-1"/>
</svg>
