<svg xmlns="http://www.w3.org/2000/svg" xmlns:xlink="http://www.w3.org/1999/xlink" preserveAspectRatio="xMidYMid" width="83" height="81" viewBox="0 0 83 81">
  <defs>
    <style>

      .cls-2 {
        fill: #ff0000;
      }
    </style>
  </defs>
  <path d="M82.106,67.469 C82.187,72.397 80.730,77.971 76.119,80.556 C75.553,81.122 69.803,80.999 67.424,80.919 C49.772,80.331 3.551,80.919 3.551,80.919 C0.072,79.627 -0.089,76.113 -0.008,72.478 C-0.008,53.413 -0.008,33.297 1.205,13.020 C1.124,10.758 1.124,9.546 2.338,7.123 C3.551,4.699 5.816,2.357 9.457,1.226 C13.098,0.095 16.657,0.014 20.217,0.014 C36.963,0.014 53.629,0.095 70.213,1.145 C72.560,1.145 74.825,1.145 76.119,2.114 C80.730,4.780 82.187,11.404 82.106,16.333 C82.672,24.653 82.996,33.216 82.996,41.941 C82.996,50.585 82.672,59.148 82.106,67.469 ZM68.344,38.692 C68.344,34.364 67.808,30.035 67.808,30.035 C67.808,30.035 67.283,26.349 65.672,24.726 C63.630,22.595 61.340,22.585 60.290,22.461 C52.774,21.920 41.498,21.920 41.498,21.920 C41.498,21.920 41.475,21.920 41.475,21.920 C41.475,21.920 30.200,21.920 22.683,22.461 C21.633,22.585 19.344,22.595 17.301,24.726 C15.690,26.349 15.166,30.035 15.166,30.035 C15.166,30.035 14.629,34.364 14.629,38.692 C14.629,38.692 14.629,42.750 14.629,42.750 C14.629,47.078 15.166,51.407 15.166,51.407 C15.166,51.407 15.690,55.092 17.301,56.715 C19.344,58.846 22.028,58.779 23.224,59.002 C27.521,59.412 41.487,59.539 41.487,59.539 C41.487,59.539 52.774,59.522 60.290,58.981 C61.340,58.857 63.630,58.846 65.672,56.715 C67.283,55.092 67.808,51.407 67.808,51.407 C67.808,51.407 68.344,47.078 68.344,42.750 C68.344,42.750 68.344,38.692 68.344,38.692 ZM35.939,32.639 C35.939,32.639 50.453,40.179 50.453,40.179 C50.453,40.179 35.941,47.667 35.941,47.667 C35.941,47.667 35.939,32.639 35.939,32.639 Z" id="path-1" class="cls-2" fill-rule="evenodd"/>
</svg>
