<svg xmlns="http://www.w3.org/2000/svg" xmlns:xlink="http://www.w3.org/1999/xlink" preserveAspectRatio="xMidYMid" width="83" height="83" viewBox="0 0 83 83">
  <defs>
    <style>

      .cls-2 {
        fill: #6a6756;
      }
    </style>
  </defs>
  <path d="M50.928,51.353 C52.829,46.293 52.002,41.482 49.935,38.495 C48.944,36.504 47.952,35.509 45.968,34.514 C42.992,33.435 39.107,33.518 35.139,36.421 C34.643,36.836 34.229,37.168 33.816,37.417 C33.403,37.666 33.155,37.998 33.155,38.413 C31.171,42.477 31.171,48.284 34.147,53.344 C37.536,57.077 46.381,55.418 50.928,51.353 ZM41.008,37.500 C45.058,37.500 47.869,39.408 47.952,43.390 C47.952,46.625 45.968,50.109 41.008,50.358 C36.296,50.275 34.973,47.454 34.064,43.390 C34.147,40.403 36.957,37.583 41.008,37.500 ZM62.831,27.545 C62.831,27.545 55.887,27.545 55.887,27.545 C54.813,24.559 53.986,21.573 55.887,19.581 C57.706,19.167 59.029,19.001 59.773,19.167 C60.517,19.416 61.509,19.499 62.831,19.581 C63.327,20.660 63.575,21.904 63.575,23.481 C63.575,25.057 63.327,26.467 62.831,27.545 ZM54.895,38.495 C58.863,38.495 62.749,38.495 65.724,37.500 C65.724,37.500 65.724,62.304 65.724,62.304 C59.111,63.548 51.589,63.963 43.240,63.548 C34.891,63.133 26.872,63.050 19.267,63.299 C18.275,56.331 18.275,48.450 18.275,40.487 C21.251,39.491 25.219,38.495 29.187,38.495 C27.203,43.887 29.104,52.764 34.064,56.331 C40.016,59.400 53.903,58.238 56.879,50.358 C57.871,46.293 56.879,41.482 54.895,38.495 ZM78.207,1.165 C76.967,0.087 74.652,0.004 72.255,0.004 C72.255,0.004 8.769,0.004 8.769,0.004 C6.372,-0.079 4.057,0.087 2.735,2.410 C1.660,3.654 1.577,5.894 1.577,7.221 C1.495,13.774 1.329,20.163 0.999,26.384 C0.585,32.688 0.420,39.159 0.337,45.713 C0.337,45.713 0.007,60.147 0.007,60.147 C-0.076,64.875 0.420,69.686 1.577,74.581 C2.073,75.825 2.487,77.152 2.900,78.563 C3.313,79.973 4.057,81.052 5.132,81.798 C7.529,83.042 9.926,83.042 12.324,82.959 C12.324,82.959 72.255,82.959 72.255,82.959 C74.817,83.042 78.041,82.877 79.446,80.554 C80.521,79.309 80.604,76.987 80.604,74.581 C80.604,68.608 80.604,63.631 81.844,57.741 C81.927,49.860 82.092,42.062 82.422,34.265 C82.753,26.467 82.918,18.669 83.001,10.871 C82.422,9.544 81.844,7.885 81.100,5.977 C80.356,4.069 79.364,2.493 78.207,1.165 ZM65.724,66.286 C63.244,67.198 60.599,67.612 57.706,67.530 C57.706,67.530 48.944,67.281 48.944,67.281 C42.992,67.530 37.288,67.862 31.915,68.276 C26.459,68.691 21.251,68.027 16.292,66.286 C13.316,51.602 13.316,31.278 15.300,18.586 C15.300,18.586 18.275,18.586 18.275,18.586 C18.275,18.586 18.275,27.545 18.275,27.545 C19.267,27.545 20.259,27.545 21.251,26.550 C22.243,23.563 22.243,20.577 22.243,17.591 C22.243,17.591 24.227,17.591 24.227,17.591 C24.227,17.591 24.227,26.550 24.227,26.550 C25.219,26.550 26.211,26.550 27.203,25.555 C28.195,23.481 28.195,19.665 28.195,16.595 C28.195,16.595 30.179,16.595 30.179,16.595 C30.179,16.595 30.179,25.555 30.179,25.555 C31.171,25.555 32.163,25.555 33.155,24.559 C34.147,22.485 34.147,18.669 34.147,15.683 C44.976,14.604 55.887,13.858 66.716,16.595 C68.618,23.646 68.783,32.439 68.700,41.482 C69.031,49.528 70.353,59.068 65.724,66.286 Z" id="path-1" class="cls-2" fill-rule="evenodd"/>
</svg>
