<svg xmlns="http://www.w3.org/2000/svg" xmlns:xlink="http://www.w3.org/1999/xlink" preserveAspectRatio="xMidYMid" width="81" height="81" viewBox="0 0 81 81">
  <defs>
    <style>

      .cls-2 {
        fill: #2272b4;
      }
    </style>
  </defs>
  <path d="M76.315,1.110 C75.122,0.071 72.814,-0.008 70.507,-0.008 C70.507,-0.008 8.445,-0.008 8.445,-0.008 C6.138,-0.088 3.910,0.071 2.637,2.308 C1.444,3.586 1.444,5.742 1.444,7.021 C1.364,13.491 1.205,19.720 0.887,25.791 C0.489,31.941 0.330,38.172 0.250,44.562 C0.250,44.562 0.011,58.699 0.011,58.699 C-0.068,63.412 0.409,68.045 1.444,72.758 C2.001,74.035 2.399,75.394 2.797,76.751 C3.194,78.109 3.910,79.147 4.945,79.867 C7.252,81.064 9.559,81.064 12.026,80.984 C12.026,80.984 70.507,80.984 70.507,80.984 C72.974,81.064 76.156,80.905 77.509,78.668 C78.703,77.390 78.703,75.233 78.703,72.758 C78.703,67.007 78.782,62.134 79.817,56.303 C79.896,48.716 80.055,41.048 80.453,33.379 C80.771,25.791 80.930,18.123 81.010,10.535 C80.453,9.257 79.817,7.659 79.100,5.822 C78.384,3.985 77.509,2.388 76.315,1.110 ZM50.616,17.564 C50.616,17.564 50.616,25.791 50.616,25.791 C50.616,25.791 44.728,25.791 44.728,25.791 C43.534,25.791 42.500,26.910 42.420,28.108 C42.420,28.108 42.420,34.019 42.420,34.019 C42.420,34.019 50.616,34.019 50.616,34.019 C50.536,36.414 50.377,38.332 50.059,39.849 C49.661,41.367 49.502,42.166 49.422,42.245 C49.422,42.245 42.420,42.245 42.420,42.245 C42.420,42.245 42.420,68.125 42.420,68.125 C42.420,68.125 31.918,68.125 31.918,68.125 C31.918,68.125 31.918,42.245 31.918,42.245 C31.918,42.245 27.223,42.245 27.223,42.245 C27.223,42.245 27.223,34.019 27.223,34.019 C27.223,34.019 31.918,34.019 31.918,34.019 C31.918,34.019 31.918,26.989 31.918,26.989 C31.679,26.111 32.156,24.353 33.270,21.798 C34.304,19.322 37.407,17.883 42.420,17.564 C42.420,17.564 50.616,17.564 50.616,17.564 Z" id="path-1" class="cls-2" fill-rule="evenodd"/>
</svg>
