<svg xmlns="http://www.w3.org/2000/svg" xmlns:xlink="http://www.w3.org/1999/xlink" preserveAspectRatio="xMidYMid" width="81" height="82" viewBox="0 0 81 82">
  <defs>
    <style>

      .cls-2 {
        fill: #40b5e5;
      }
    </style>
  </defs>
  <path d="M79.988,6.829 C77.421,2.249 71.884,0.803 66.990,0.884 C58.725,0.321 50.220,-0.001 41.634,-0.001 C32.968,-0.001 24.463,0.321 16.199,0.884 C11.304,0.803 4.724,2.249 2.076,6.829 C1.114,8.115 1.114,10.364 1.114,12.694 C0.070,29.165 -0.010,45.716 -0.010,62.347 C-0.010,65.882 0.070,69.417 1.194,73.033 C2.317,76.648 4.644,78.898 7.051,80.103 C9.458,81.308 10.662,81.308 12.909,81.228 C33.048,82.433 53.028,82.433 71.964,82.433 C75.575,82.514 78.945,82.353 80.229,78.898 C80.229,78.898 80.229,15.104 80.229,15.104 C80.630,12.775 80.871,10.927 80.871,9.641 C80.791,8.356 80.550,7.391 79.988,6.829 ZM59.929,33.986 C59.929,46.439 51.744,58.169 35.135,58.811 C30.321,58.811 25.667,57.607 22.136,55.277 C22.136,55.277 24.463,55.277 24.463,55.277 C28.234,55.277 32.567,54.071 35.135,51.742 C31.524,51.662 28.154,49.331 26.870,45.796 C26.870,45.796 30.401,45.796 30.401,45.796 C26.790,44.511 23.420,41.136 23.340,37.520 C24.543,38.726 25.667,38.726 26.870,38.726 C24.543,37.360 23.340,34.146 23.340,31.655 C23.340,30.370 23.420,28.201 24.463,26.915 C29.197,31.736 35.135,35.110 42.196,36.396 C42.196,36.396 42.196,33.986 42.196,33.986 C42.276,29.165 45.646,25.790 50.460,25.710 C52.787,25.710 55.114,26.834 56.318,28.120 C57.521,28.120 58.484,27.879 59.287,27.397 C59.287,27.397 62.256,25.710 62.256,25.710 C61.052,28.040 59.929,29.245 58.725,30.451 C59.367,30.370 60.169,30.209 61.132,29.807 C62.015,29.486 62.817,29.326 63.459,29.245 C62.256,29.326 61.132,31.495 59.929,33.986 Z" id="path-1" class="cls-2" fill-rule="evenodd"/>
</svg>
