<svg xmlns="http://www.w3.org/2000/svg" xmlns:xlink="http://www.w3.org/1999/xlink" preserveAspectRatio="xMidYMid" width="25" height="21" viewBox="0 0 25 21">
  <defs>
    <style>
      .cls-1 {
        fill: #fce6ef;
      }

      .cls-1, .cls-2 {
        fill-rule: evenodd;
      }

      .cls-2 {
        stroke: #c3c2b0;
        stroke-width: 2px;
        fill: none;
      }
    </style>
  </defs>
  <path d="M22.162,11.119 L13.073,19.783 C12.750,20.091 12.224,20.091 11.902,19.783 L2.812,11.119 C0.386,8.807 0.386,5.045 2.812,2.733 C5.151,0.504 8.911,1.426 11.372,3.558 L12.487,4.524 L13.602,3.558 C16.064,1.426 19.825,0.504 22.162,2.733 C24.589,5.045 24.589,8.807 22.162,11.119 Z" class="cls-1"/>
  <path d="M22.162,11.119 L13.073,19.783 C12.750,20.091 12.224,20.091 11.902,19.783 L2.812,11.119 C0.386,8.807 0.386,5.045 2.812,2.733 C5.151,0.504 8.911,1.426 11.372,3.558 L12.487,4.524 L13.602,3.558 C16.064,1.426 19.825,0.504 22.162,2.733 C24.589,5.045 24.589,8.807 22.162,11.119 Z" class="cls-2"/>
</svg>
