<?xml version="1.0" encoding="UTF-8" standalone="no"?>
<!DOCTYPE svg  PUBLIC '-//W3C//DTD SVG 1.1//EN'  'http://www.w3.org/Graphics/SVG/1.1/DTD/svg11.dtd'>
<svg xmlns="http://www.w3.org/2000/svg">
<defs>
<font id="Supernettcn-Regular" horiz-adv-x="385">
<font-face underline-position="-50" font-weight="400" descent="-200" panose-1="0 0 5 6 0 0 0 0 0 0" units-per-em="1000" unicode-range="U+0020-25CA" font-stretch="condensed" bbox="-60 -234 1024 947" x-height="537" underline-thickness="50" font-family="Supernettcn" ascent="800" cap-height="712"/>
<missing-glyph horiz-adv-x="1000"/>
<glyph glyph-name=".notdef" horiz-adv-x="1000"/>
<glyph glyph-name=".null" horiz-adv-x="0"/>
<glyph glyph-name="nonmarkingreturn" horiz-adv-x="333"/>
<glyph glyph-name="space" horiz-adv-x="210" unicode=" "/>
<glyph glyph-name="exclam" horiz-adv-x="225" unicode="!" d="M114 83q34 0 41 -10q12 -18 12 -39q0 -13 -7.5 -25.5t-19.5 -12.5q-2 0 -8 -0.5t-9 -0.5q-17 0 -28 7q-12 9 -12 37q0 17 8 30.5t23 13.5zM121 708q23 0 23 -18q0 -7 -1 -32l-2 -50q0 -13 -4.5 -40.5t-4.5 -42.5q0 -9 0.5 -26t0.5 -26q0 -8 0.5 -22.5t0.5 -21.5 q0 -48 -4 -87q-2 -26 -2 -79q0 -15 3 -39.5t6 -43.5t3 -21q0 -10 -14.5 -16t-31.5 -6q-15 0 -19.5 3.5t-4.5 11.5q0 2 -1 9t-2 16t-1 13q-1 6 -4.5 28.5t-3.5 35.5q0 25 2.5 70.5t2.5 63.5q0 6 0.5 18.5t0.5 17.5q0 16 -1 49t-1 53q0 30 6 64q2 16 2 50q0 7 2 21t2 19 q0 16 8 21q11 7 39 7z"/>
<glyph glyph-name="quotedbl" horiz-adv-x="308" unicode='&quot;' d="M95 733q19 0 22 -5q7 -14 7 -37q0 -21 -3 -61.5t-3 -51.5q0 -5 2 -46.5t2 -54.5q0 -18 -6 -36.5t-13 -18.5q-11 0 -26 3q-10 2 -18.5 7.5t-8.5 10.5q0 9 3.5 30t3.5 30q0 7 -3 32t-3 39t2.5 46t2.5 48q0 41 1 49q2 14 38 16zM238 735q14 0 14 -49q0 -11 -1.5 -33 t-1.5 -33q0 -27 4.5 -54t4.5 -47q0 -11 -2 -33.5t-2 -28.5q0 -26 -2 -31q-7 -16 -35 -16q-34 0 -34 12q0 13 4 37.5t4 36.5q0 31 -5 69.5t-5 60.5q0 26 0.5 45t1 26t1 12t0.5 7q0 4 15 13q11 6 39 6z"/>
<glyph glyph-name="numbersign" horiz-adv-x="539" unicode="#" d="M191 268q22 1 56.5 4t42.5 3q18 0 27 -1q-7 65 -8 80l-3 77q-30 3 -45 3h-58v-53q0 -21 -1.5 -38t-5 -38.5t-5.5 -36.5zM477 269q7 0 14.5 -12t7.5 -29q0 -11 -3 -16t-6.5 -6t-10.5 -1q-5 0 -19.5 1.5t-20.5 1.5q-7 0 -15 -2t-13 -2h-20q0 -12 -0.5 -36.5t-0.5 -30.5 q0 -7 1 -26t1 -30q0 -49 -7 -70q-5 -13 -43 -13q-19 0 -24 8q-2 3 -2 18q0 8 2 25.5t2 29.5q0 7 -0.5 35.5t-0.5 51.5q1 15 1 44q-10 1 -30 1q-23 0 -79 -4l-26 -2q-2 -34 -2 -49q0 -3 1.5 -17t1.5 -21q0 -19 -1 -53t-1 -43q0 -19 -12 -24q-11 -4 -23 -4q-33 0 -34 9 q-2 16 -2 35q0 22 1.5 48t1.5 31q0 10 -1 28t-1 21q0 10 2 40q-34 4 -52 4q-16 0 -20 2.5t-4 14.5q0 14 8 29.5t17 15.5q28 0 38 -1l20 -2q10 77 10 113v51q-13 1 -36.5 3t-36.5 3q-20 3 -20 43q0 12 5.5 19.5t10.5 7.5q45 0 75 -3q-2 72 -2 107q0 10 1.5 37.5t1.5 37.5 q0 1 -0.5 6t-0.5 10q0 13 37 13q10 0 19 -4.5t10 -7.5q3 -9 3 -29q0 -11 -1 -29t-1 -22q0 -18 0.5 -38t1.5 -44.5t1 -39.5l62 -1q13 0 41 -2q0 4 2 36.5t2 49.5q0 19 6 60.5t11 49.5t45 8q17 0 17 -14q0 -5 -6 -46.5t-6 -62.5l-1 -84q11 0 42.5 2t40.5 2q12 0 12 -51 q0 -11 -10 -17q-12 -6 -84 -6q1 -17 2.5 -36t3.5 -41.5t3 -35.5l4 -47q9 -1 28 -1q5 0 10 2t13 3q5 0 21 -1z"/>
<glyph glyph-name="dollar" horiz-adv-x="396" unicode="$" d="M319 334q10 -16 21 -52.5t11 -60.5q0 -61 -14 -112q-20 -71 -51 -95q-16 -14 -50 -23q4 -15 4 -40q0 -8 -3.5 -36.5t-3.5 -47.5q0 -13 -6 -16.5t-21 -3.5q-43 0 -43 18t3.5 52.5t3.5 38.5q0 1 -3 28q-32 2 -44 8q-88 46 -88 126q0 10 0.5 26.5t0.5 19.5q0 15 23 23 q12 4 28 4q8 0 13.5 -6.5t5.5 -16.5q0 -7 -1 -19.5t-1 -17.5q0 -2 0.5 -5.5t0.5 -5.5q2 -15 4.5 -22t10 -17.5t22.5 -21.5q8 -5 22 -5h15q51 0 73 24q8 11 20 53q9 31 9 89q0 34 -24 80q-13 25 -91 65q-64 39 -76 53q-19 22 -31.5 55.5t-12.5 59.5q0 29 13 83q11 50 22 63 q32 36 95 46q-1 13 -5 49.5t-4 52.5q0 14 34 16h3q13 0 23 -4.5t10 -10.5q0 -16 5 -51.5t5 -54.5q40 -8 73 -39q27 -21 29 -44q0 -4 -5 -19q-10 -29 -27 -29q-3 0 -11.5 7.5t-11.5 12.5q-12 17 -29 29q-24 17 -61 17q-39 0 -64 -19q-7 -6 -12 -40q-12 -60 -12 -62 q0 -27 4.5 -41t21.5 -31q24 -23 66 -44q24 -13 63 -42.5t48 -43.5z"/>
<glyph glyph-name="percent" horiz-adv-x="768" unicode="%" d="M592 353q-39 0 -55 -22q-19 -25 -19 -73q0 -9 -0.5 -23t-0.5 -21q0 -14 1 -22q4 -86 20 -116q13 -24 36 -24q24 0 37.5 5.5t25.5 22.5q14 34 14 93q0 13 -3.5 41t-6.5 35q-2 4 -4 13.5t-3.5 18t-1.5 9.5q-7 63 -40 63zM579 416q29 0 58 -14q22 -11 40.5 -39.5t21.5 -62.5 l2 -25l6 -29q6 -44 6 -86q0 -70 -19 -108q-13 -25 -24 -35.5t-27 -17.5q-25 -11 -55 -11q-40 0 -68 18q-43 26 -53 86q-14 88 -14 136q0 19 4 55q6 45 20 70q14 31 41 43q44 20 61 20zM180 658q-30 0 -46 -33q-9 -19 -10 -25q-5 -45 -5 -97q0 -5 0.5 -12.5t0.5 -10.5 q5 -43 11 -85q3 -26 22 -51q12 -15 41 -15q12 0 24 9t17 20q19 44 19 54q0 59 -2 91q-6 90 -15 114q-4 11 -23.5 26t-33.5 15zM183 720q19 0 44 -11q54 -24 67 -63q15 -45 21 -120q3 -30 3 -98q0 -59 -36 -111q-35 -51 -90 -51q-56 0 -88 35q-16 18 -24 39q-5 15 -8.5 32 t-6 39t-4.5 33q-6 48 -6 73q0 57 5 92q3 19 22 53q22 36 58 49q19 9 43 9zM531 735q2 0 4 -2t5 -5.5t5 -5.5q18 -15 18 -23q0 -9 -7 -22q-30 -55 -32 -59q-5 -11 -12.5 -32.5t-8.5 -25.5q-5 -16 -19 -46.5t-19 -46.5q-29 -69 -51 -141q-4 -14 -15 -40t-13 -35 q-2 -6 -7.5 -36t-10.5 -45l-10 -40q-16 -75 -24 -98q-12 -32 -16 -36q-11 -11 -17 -11q-19 0 -32 5q-16 6 -16 9q0 8 21 79q6 14 16 66q5 15 33 143q2 10 13 35t14 34q46 129 48 134q2 4 11 24.5t13 31.5l19 44q2 6 7.5 23.5t9.5 27.5q14 37 39 71q16 23 34 23z"/>
<glyph glyph-name="ampersand" horiz-adv-x="512" unicode="&amp;" d="M286 83q9 9 33 43v1q-6 20 -14 38.5t-22 45t-19 36.5q-27 59 -66 115q-22 -26 -42 -61q-24 -40 -37 -86q-10 -34 -10 -88q0 -14 15 -34.5t37 -30.5q18 -8 65 -8q31 0 60 29zM179 624q-20 -26 -20 -48q0 -10 2 -19t7 -21t7 -19q5 -18 33 -53q46 37 58 45q28 22 35 63 q4 18 4 32q0 22 -14 38q-19 19 -50 19q-33 0 -62 -37zM468 71q6 0 10 -17.5t4 -29.5q0 -13 -13 -22q-25 -14 -36 -14q-36 0 -50 11q-25 18 -36 47l-1 3q-18 -20 -30 -29q-47 -35 -94 -35q-69 0 -109 26q-29 18 -51 52t-22 61q0 51 4 77t21 68.5t35 72.5q24 39 57 73 q-29 35 -41 65q-26 63 -26 90q0 30 7.5 53.5t14.5 33t22 25.5q43 47 114 47q28 0 62 -16q29 -15 47 -43.5t18 -57.5q0 -41 -5 -63q-9 -41 -27 -63q-12 -16 -91 -76q12 -17 29.5 -49t22.5 -41q46 -78 64 -129q33 43 37 55q4 10 17 20t20 10t24 -17q14 -12 14 -29 q0 -2 -7 -9.5t-15 -18t-10 -18.5q-1 -6 -8 -16t-24 -29.5t-21 -24.5q12 -58 35 -58q6 0 19.5 7.5t18.5 7.5z"/>
<glyph glyph-name="quotesingle" horiz-adv-x="177" unicode="&apos;" d="M91 734q34 0 34 -12q0 -13 -4 -37.5t-4 -36.5q0 -31 5 -69.5t5 -60.5q0 -26 -0.5 -45t-1 -26t-1 -12t-0.5 -7q0 -4 -15 -13q-11 -6 -39 -6q-14 0 -14 49q0 11 1.5 33t1.5 33q0 27 -4.5 54t-4.5 47q0 11 2 33.5t2 28.5q0 26 2 31q7 16 35 16z"/>
<glyph glyph-name="parenleft" horiz-adv-x="268" unicode="(" d="M213 784q9 0 24.5 -12t15.5 -20q0 -10 -11 -25q-36 -53 -55 -105q-21 -56 -35 -134q-12 -84 -12 -206q0 -10 16 -84q5 -23 11.5 -75.5t15.5 -82.5q10 -31 25.5 -72.5t26 -67.5t10.5 -30q0 -16 -19.5 -25.5t-30.5 -9.5q-9 0 -37 66.5t-40 112.5q-7 29 -14.5 77.5 t-12.5 69.5q-21 100 -21 123q0 123 14 220q9 56 37 137q9 27 33.5 74t37.5 59q10 10 21 10z"/>
<glyph glyph-name="parenright" horiz-adv-x="273" unicode=")" d="M52 789q8 0 35.5 -43.5t35.5 -60.5q20 -45 32 -92q11 -43 30 -134q18 -85 18 -126q0 -53 -4 -97q-5 -93 -23 -162q-3 -13 -9.5 -28.5t-13 -30.5t-8.5 -20q-2 -6 -8 -26t-9 -26q-38 -73 -47 -82q-21 -21 -32 -21q-8 0 -18.5 17t-10.5 26q0 10 11 25q7 10 18.5 32.5 t12.5 24.5q4 7 7 23t5 21q3 8 17.5 40.5t19.5 50.5q17 63 21 148q1 29 1 87q0 27 -13 87q-6 27 -14.5 72t-15.5 73q-3 11 -29 88q-2 5 -24 41.5t-22 40.5q0 16 15 34t22 18z"/>
<glyph glyph-name="asterisk" horiz-adv-x="315" unicode="*" d="M138 771q36 0 44 -4q6 -3 6 -69q0 -22 2 -23q1 -1 18 12q4 3 15 7.5t14 6.5q13 9 23 9q6 0 14 -10q11 -16 11 -43q0 -3 -6.5 -6t-16 -7.5t-14.5 -7.5q-8 -5 -19 -11t-18 -9t-7 -4t16 -20q3 -3 7.5 -10.5t6.5 -10.5q6 -8 17.5 -32.5t11.5 -29.5q0 -7 -7 -13.5t-14 -6.5 q-2 0 -12 -1.5t-15 -1.5q-9 0 -10 3t-11 20.5t-11 18.5q-16 36 -20 36q-7 0 -21 -45l-9 -25q-7 -12 -15 -12q-14 0 -30 9q-17 11 -17 20q0 3 19 45l13 32l8 20q0 2 -15 8q-26 9 -48 24q-23 14 -23 22q0 19 14 31q12 10 19 10q4 0 28 -14q3 -2 11 -4.5t11 -3.5q2 -1 5 -2 t5 -2.5t4.5 -2t3.5 -0.5t1 12q0 6 -1 19t-1 19q0 47 13 47z"/>
<glyph glyph-name="plus" horiz-adv-x="406" unicode="+" d="M366 384q10 0 10 -51q0 -12 -8 -17q-9 -6 -78 -6q-13 0 -40 3v-37v-13q0 -1 -1 -28.5t-3 -48.5t-5 -21q-17 0 -30 4q-1 1 -7.5 3t-10.5 4t-8 5.5t-5 8.5q0 1 -0.5 4.5t-0.5 6.5q0 6 1 31t1 42q0 11 -2 43l-74 -1q-10 0 -29.5 3t-29.5 3q-16 3 -16 43q0 12 4.5 19.5 t8.5 7.5q25 0 57 -3t34 -3h38q-2 16 -2 21q0 11 3 61t3 59q0 12 17 12q12 0 31.5 -7.5t19.5 -16.5q0 -8 -1 -51.5t-1 -56.5q0 -6 2 -24q5 0 14 -1t16.5 -1.5t14.5 -0.5q11 0 40.5 2t36.5 2z"/>
<glyph glyph-name="comma" horiz-adv-x="147" unicode="," d="M65 77q21 0 27 -7q15 -18 15 -68q0 -38 -12 -86q-12 -40 -16 -47q-15 -26 -22 -26q-18 0 -31 10q-16 12 -16 22q0 9 15 36q6 11 13 56q2 16 2 29q0 8 -4.5 33.5t-4.5 30.5q0 4 12 10.5t22 6.5z"/>
<glyph glyph-name="hyphen" d="M276 357q2 0 17.5 -0.5t28.5 -0.5t16.5 -4t3.5 -19q0 -28 -6 -37q-4 -4 -17 -4q-9 0 -23 1.5t-15 1.5q-7 0 -32.5 -3t-33.5 -3l-66 1q-13 0 -45 -3.5t-33 -3.5q-17 0 -20 3q-8 8 -8 30q0 29 17 29q6 0 38 4q40 5 46 5l63 -1q7 0 36.5 2t32.5 2z" unicode="-"/>
<glyph glyph-name="period" horiz-adv-x="159" unicode="." d="M74 89q27 0 36 -11q9 -12 9 -27q0 -46 -9 -52q-13 -8 -34 -8q-16 0 -27 11q-8 8 -8 26l-1 25q0 16 6 24q9 12 28 12z"/>
<glyph glyph-name="slash" horiz-adv-x="342" unicode="/" d="M267 783q11 0 30.5 -13.5t19.5 -19.5q0 -12 -8 -41t-14 -43q-8 -20 -24 -87q-2 -12 -32 -143q-1 -5 -9 -39.5t-12 -52.5q-3 -18 -9 -70.5t-13 -81.5q-5 -20 -18 -57t-15 -45q-25 -77 -34 -124q-2 -10 -21 -64.5t-23 -58.5q-5 -6 -31 -6q-10 0 -19.5 5.5t-9.5 15.5 q0 3 18.5 61t20.5 68q4 23 20.5 77t20.5 70q3 12 12 38.5t12 41.5q4 16 22 137q7 54 28 128l29 133q3 15 11.5 43t11.5 40l18 65q7 23 18 23z"/>
<glyph glyph-name="zero" horiz-adv-x="443" unicode="0" d="M223 651q-43 0 -73 -58q-7 -13 -20 -81q-17 -98 -17 -140q0 -17 2 -54t2 -55q0 -72 7 -99q11 -42 33 -77.5t48 -35.5q33 0 57 19q7 5 29 44q12 20 17 38q7 27 12 97q7 91 7 158q0 83 -4 122q-7 68 -48 109q-13 13 -52 13zM228 720q45 0 67 -10q43 -26 78 -91 q25 -47 25 -184q0 -34 -2 -73t-5.5 -87t-4.5 -73q-4 -59 -15 -95q-2 -8 -26 -43q-21 -35 -26 -40q-41 -41 -107 -41q-11 0 -19.5 1t-12 2.5t-10 4.5t-10.5 5q-37 14 -55.5 40.5t-35.5 75.5q-18 52 -22 80q0 1 -0.5 6t-0.5 8q0 11 1 32t1 24q0 16 -1.5 50t-1.5 58 q0 23 2.5 45.5t7 51.5t6.5 46q9 72 35 116q15 26 22 36.5t23 26.5t37 22t50 6z"/>
<glyph glyph-name="one" horiz-adv-x="353" unicode="1" d="M220 714q20 0 30.5 -2.5t12.5 -5t4 -7.5q3 -8 3 -20q0 -8 -2 -21.5t-2 -15.5q-7 -58 -12 -121q0 -13 1.5 -29.5t1.5 -27.5q0 -6 -6.5 -79.5t-6.5 -90.5q0 -10 -2.5 -30.5t-2.5 -29.5q-4 -64 -4 -97q0 -14 -3 -39t-3 -28t8.5 -4.5t21 -1.5t16.5 -1q13 -3 13 -31 q0 -17 -4 -23q-2 -3 -13 -9q-10 -5 -28 -5q-9 0 -40.5 -1.5t-34.5 -1.5q-9 0 -28 -3t-24 -3q-36 0 -41 4q-7 5 -7 41q0 9 8 17q6 6 27 8l39 5q14 3 14 4q4 8 6 48l6 111q1 14 3.5 42t2.5 42q1 24 6.5 82.5t5.5 65.5q0 9 -1.5 19.5t-1.5 17.5v6l2 31q0 3 2 23t2 27q0 8 -2 8 q-1 0 -15.5 -10.5t-35 -25.5t-34.5 -27q-29 -22 -35 -22q-9 0 -20 15q-12 16 -12 38q0 4 9 12.5t25 20.5t18 14q7 6 22 15t22 15q23 19 39 42q15 17 24 24q2 2 7.5 6.5t9.5 6.5t9 2z"/>
<glyph glyph-name="two" horiz-adv-x="406" unicode="2" d="M212 718q53 0 107 -39q27 -19 39.5 -56.5t12.5 -73.5q0 -77 -31 -148q-14 -22 -35 -45q-1 -1 -27.5 -28t-35.5 -38q-5 -6 -20.5 -23.5t-28 -32.5t-18.5 -23q-17 -23 -42 -64.5t-25 -58.5q0 -5 2 -9q1 -2 15 -2q7 0 27 1t27 1q18 0 87.5 -10.5t81.5 -16.5l4 -2 q3 -1 4.5 -2t4 -3.5t3.5 -6t1 -8.5v-15v-24q0 -9 -25 -9q-5 0 -15 2q-93 25 -134 25q-77 0 -96 -11q-10 -6 -44 -6q-16 0 -16 75q0 28 24.5 80.5t44.5 83.5q41 63 61 82q105 103 115 124q21 45 21 126q0 43 -38 72q-18 13 -56 13q-78 0 -84 -41q0 -3 -1 -14.5t-2 -20 t-3.5 -16.5t-6.5 -10q-8 -3 -27 -1q-23 2 -25 8q-5 10 -5 41q0 29 13 57q11 28 58 47.5t88 19.5z"/>
<glyph glyph-name="three" horiz-adv-x="414" unicode="3" d="M190 725q14 0 28 -3t24.5 -8.5t18 -10t13.5 -9t7 -5.5q6 -4 25.5 -33.5t27.5 -52.5q12 -39 12 -70q0 -47 -33 -94q-3 -4 -11.5 -13.5t-15 -17t-6.5 -10.5q0 -1 2 -2.5t5.5 -4t5.5 -3.5q38 -26 60 -94q11 -31 11 -87q0 -90 -53 -155q-39 -47 -90 -60q-30 -8 -78 -8 q-38 0 -83 45q-10 10 -17.5 36.5t-7.5 46.5q0 7 18.5 11t32.5 4q12 0 15 -2t7 -13q1 -2 3.5 -15.5t8 -23t17.5 -16.5q4 -3 21 -3h17q42 0 70 27q22 21 40 74q8 26 8 50q0 26 -4 46q-4 25 -14.5 51t-24.5 31q-26 9 -77 9q-3 0 -11 10t-9 17q-1 4 -3 9.5t-2 8.5t2 9 q2 3 8.5 6.5t12.5 6t13 5t8 2.5q15 7 33.5 26t25.5 30q25 39 25 56q0 21 -12 57q-23 71 -85 71q-12 0 -38 -14t-33 -30q-4 -9 -4 -27q0 -4 1.5 -15t1.5 -16q0 -14 -26 -14q-31 0 -39 8q-7 7 -7 32q0 44 11 66q17 33 59 54t85 25z"/>
<glyph glyph-name="four" horiz-adv-x="434" unicode="4" d="M235 714q2 0 9.5 -2t16.5 -4t13 -3q12 -2 14 -10q0 -18 -3 -24q-1 -4 -17 -34t-18 -34q-20 -59 -30 -77q-4 -7 -13.5 -18t-13.5 -21q-4 -11 -12.5 -42t-13.5 -42q-13 -30 -29 -79q-23 -60 -23 -68q0 -2 21 -2q6 0 15 -1t16 0q4 0 22.5 2.5t25.5 2.5q15 1 32 1q3 0 3 21 v23q0 31 -1 40l-5 40q-3 21 -3 34q0 4 14.5 9t27.5 5q11 0 20 -5q6 -4 9 -22q1 -9 4.5 -30t3.5 -25q0 -74 4 -86q1 -2 19 -2q9 0 23.5 0.5t15.5 0.5q11 0 23 -10q9 -18 9 -48q0 -10 -35 -13q-4 0 -18 -0.5t-25 -1t-13 -1.5q-5 -2 -5 -84q-9 -75 -9 -76q0 -27 -14 -29 q-7 -1 -31 -1q-27 7 -27 13q0 8 1.5 26t1.5 29q1 7 4 22.5t4 23.5q3 32 3 56q0 5 -0.5 10t-0.5 8v3q0 1 -5 1q-14 0 -29 -1q-6 0 -24 -2t-25 -2t-17 1t-17 1h-42h-18h-15q-28 0 -28 12q0 10 9 44.5t14 49.5q1 2 8 23.5t17.5 51.5t20.5 57q4 12 15.5 49.5t17.5 50.5 q4 9 14 19t14 19q8 15 17.5 43t12.5 36q1 3 11 20.5t12 23.5q13 28 22 28z"/>
<glyph glyph-name="five" horiz-adv-x="434" unicode="5" d="M282 720h21q49 0 54 -6q13 -18 13 -30q0 -35 -12 -35l-55 1q-3 0 -36.5 -4.5t-42.5 -5.5q-80 -5 -83 -6q-8 -4 -8 -28q0 -2 1 -25t1 -41v-13q0 -4 -2 -26.5t-2 -31.5q0 -10 2 -12h2q25 0 39 4q20 5 61 5q69 0 99 -55q18 -32 25 -46.5t13.5 -39.5t6.5 -53q0 -40 -11 -82 q-2 -7 -9 -51t-18 -63q-1 -2 -4 -6q-14 -20 -21.5 -30.5t-22.5 -22.5t-33 -17q-27 -8 -53 -8q-41 0 -63 8q-49 16 -76 73q-13 26 -13 64q0 25 13 25q16 0 29 -2.5t19.5 -5t7.5 -4.5q2 -3 2 -26q0 -39 42 -60q16 -4 38 -4q14 0 35 8q16 6 31 33q11 18 16 49.5t8 40.5 q13 37 13 77v14q0 43 -42 105q-8 12 -25 12q-3 0 -9 -0.5t-10 -0.5q-75 0 -81 -9q-2 -3 -3.5 -14t-3.5 -20t-6 -9q-15 0 -37.5 7.5t-23.5 15.5q-5 28 -5 76q0 10 2.5 39t2.5 41v6q0 13 -2 34t-2 30v46q6 52 11 55q9 7 22 7q78 0 103 5q35 8 82 12z"/>
<glyph glyph-name="six" horiz-adv-x="448" unicode="6" d="M230 372q-25 0 -51 -14q-3 -1 -16 -7.5t-20.5 -11.5t-10.5 -9q-5 -7 -5 -48q0 -14 10 -101q6 -40 15 -70q11 -38 25 -48q19 -14 84 -14q20 0 41 34q16 28 23 71q3 20 3 55q0 12 -5 34.5t-5 24.5q-8 40 -22 54q-1 1 -11.5 12.5t-14.5 15l-12 10.5t-14.5 9.5t-13.5 2.5z M257 719q62 0 96 -29q18 -16 26 -25q16 -18 16 -26q0 -4 -1.5 -6t-4 -3.5t-4.5 -4.5q-4 -7 -16.5 -14.5t-20.5 -7.5q-7 0 -30 23q-17 17 -37 22q-14 2 -23 2q-44 0 -71 -29q-25 -31 -30 -52q-16 -64 -18 -83q-1 -7 -2.5 -23.5t-1.5 -18.5q-1 -6 -0.5 -17t1.5 -11t6 2 t12.5 4.5t12.5 4.5q3 1 30 8t39 7q29 0 64 -22q36 -25 69 -79q20 -32 23 -75q6 -30 6 -45q0 -8 -0.5 -24.5t-0.5 -24.5q-3 -42 -13 -75q-15 -41 -32 -61q-28 -33 -57 -48q-16 -8 -45 -8q-61 0 -99 17q-32 16 -51 54q-20 38 -31 107q-5 29 -7 60q-7 96 -7 113q0 97 19 191 q13 72 21 91q6 13 36 51q26 31 59 42q34 13 67 13z"/>
<glyph glyph-name="seven" horiz-adv-x="392" unicode="7" d="M357 696q0 -21 -7 -58q-13 -68 -59 -164l23 2q34 0 34 -12q0 -11 -6.5 -33t-11.5 -23q-28 -4 -37 -4q-7 0 -39 -2q-21 -40 -29 -75q-3 -12 -17 -73t-15 -66q-1 -3 -6.5 -16t-9.5 -27q-22 -71 -23 -76q-2 -6 -2.5 -23t-1 -31t-3.5 -16q-6 -5 -38 -5q-8 0 -20 7t-12 18 q0 38 16 98q4 13 17.5 48.5t19.5 57.5q6 24 22 103q6 24 20 70q-32 -2 -34 -2q-33 0 -40 4q-6 4 -6 39q0 12 6 18q9 9 48 9q11 0 25.5 1t22.5 1l14 1q7 12 14 25q12 24 45 112q7 21 7 39q0 5 -36 5h-21q-11 0 -38.5 -5t-33.5 -5q-22 0 -44.5 0.5t-44.5 0.5q-5 0 -10.5 22.5 t-5.5 33.5q0 13 63 13h32q10 0 38 3.5t43 4.5q7 0 18.5 0.5t16.5 0.5t16 -0.5t18 -0.5q6 0 23 1.5t25 1.5q21 0 22 -6q2 -6 2 -17z"/>
<glyph glyph-name="eight" horiz-adv-x="450" unicode="8" d="M237 369q-9 0 -35.5 -10t-37.5 -21q-26 -26 -38 -65q-11 -34 -11 -84q0 -32 18 -81q15 -43 39 -50q11 -3 34 -3q46 0 77 21q34 23 44 54q6 20 6 58v41q0 30 -23 89q-7 17 -27 30q-34 21 -46 21zM234 652q-36 0 -49 -9q-23 -16 -29 -26q-8 -13 -8 -59q0 -15 7 -37t16 -29 q65 -50 69 -50q5 0 27.5 15.5t32.5 27.5q11 14 21 41q3 10 3 24q0 13 -2 37q-2 33 -24 48q-25 17 -64 17zM236 720q51 0 83 -16q38 -23 57 -56q16 -29 16 -89q0 -56 -16 -83q-8 -14 -17 -26t-15 -19.5t-11.5 -13t-8.5 -7.5l-2 -3l4 -3q5 -4 12 -11t15.5 -16.5t18 -26 t17.5 -36.5q16 -43 16 -122q0 -64 -20 -108q-23 -48 -83 -78q-39 -20 -124 -20q-57 0 -93 58q-40 66 -40 156q0 29 12 85q10 43 35 77.5t63 50.5q-14 10 -57 56q-20 22 -20 91q0 57 17 93q10 21 59 50q31 17 82 17z"/>
<glyph glyph-name="nine" horiz-adv-x="445" unicode="9" d="M187 646q-20 0 -41 -34q-16 -28 -23 -71q-3 -19 -3 -55q0 -12 5 -34.5t5 -24.5q8 -40 22 -54q1 -1 11.5 -12.5t14.5 -15l12 -10.5t14.5 -9.5t13.5 -2.5q25 0 51 14q3 1 16 7.5t20.5 11.5t10.5 9q5 7 5 48q0 14 -10 101q-6 40 -15 70q-11 38 -25 48q-19 14 -84 14z M198 715q61 0 99 -17q32 -16 51 -54q20 -38 31 -107q5 -29 7 -60q4 -55 4 -103q0 -97 -13 -194q-7 -51 -25 -92q0 -1 -4.5 -10t-5 -11t-5 -10t-6 -11t-5.5 -10t-7 -10t-7.5 -8t-8.5 -8t-9.5 -6t-10.5 -5q-33 -11 -56 -11q-82 0 -116 29q-7 6 -21 27.5t-17 30.5q-4 17 -4 29 q0 3 2.5 4.5t7 2.5t7.5 3q20 12 39 12q4 0 7 -7.5t7 -19t6 -16.5q8 -17 38 -24q14 -2 43 -2q47 0 67 75q18 70 19 84q1 4 1 14v15v6q1 6 0.5 17t-1.5 11t-6 -2t-12.5 -4.5t-12.5 -4.5q-3 -1 -30 -8t-39 -7q-29 0 -64 22q-36 25 -69 79q-20 32 -23 75q-6 30 -6 45 q0 8 0.5 24.5t0.5 24.5q3 42 13 75q15 41 32 61q28 33 57 48q16 8 45 8z"/>
<glyph glyph-name="colon" horiz-adv-x="166" unicode=":" d="M88 99q22 0 29 -15q9 -20 9 -34q0 -25 -8.5 -36t-31.5 -11q-25 0 -35.5 8.5t-10.5 35.5q0 38 22 47q13 5 26 5zM74 534q27 0 36 -11q9 -12 9 -27q0 -46 -9 -52q-13 -8 -34 -8q-16 0 -27 11q-8 8 -8 26l-1 25q0 16 6 24q9 12 28 12z"/>
<glyph glyph-name="semicolon" horiz-adv-x="147" unicode=";" d="M65 77q21 0 27 -7q15 -18 15 -68q0 -38 -12 -86q-12 -40 -16 -47q-15 -26 -22 -26q-18 0 -31 10q-16 12 -16 22q0 9 15 36q6 11 13 56q2 16 2 29q0 8 -4.5 33.5t-4.5 30.5q0 4 12 10.5t22 6.5zM50 512q37 0 43 -9q10 -15 10 -33q0 -13 -7.5 -25.5t-19.5 -12.5 q-2 0 -8 -0.5t-9 -0.5q-17 0 -28 7q-12 9 -12 37q0 37 31 37z"/>
<glyph glyph-name="less" horiz-adv-x="400" unicode="&lt;" d="M333 609q8 0 19 -9q18 -16 18 -31q0 -8 -17 -25l-47 -40q-8 -6 -32 -30.5t-30 -30.5q-39 -38 -81 -65q-8 -5 -20 -16.5t-12 -14.5t23 -26.5t36 -34.5q5 -4 19 -17.5t20 -18.5q10 -9 27 -27t20 -21t18.5 -19t23.5 -24q43 -40 43 -48q0 -4 -9.5 -17.5t-13.5 -17.5 q-8 -7 -19 -7q-4 0 -33 25t-41 37q-31 35 -41 45q-8 7 -42 40t-53 50q-34 31 -43 41q-20 26 -22 29q-4 7 -4 20q0 11 28 34q47 41 58 47q41 26 83 72q33 33 43 41q15 12 29 26q12 10 30 21.5t22 11.5z"/>
<glyph glyph-name="equal" horiz-adv-x="426" unicode="=" d="M266 320q10 0 56 -3t53 -3q11 0 11 -17q0 -12 -7 -31.5t-15 -19.5q-7 0 -46.5 1t-51.5 1q-8 0 -30 -3.5t-30 -3.5q-5 0 -27 -0.5t-32 -0.5h-12q-1 0 -26 1t-44 3t-19 5q0 17 4 30q1 2 3 8t3.5 10t5 8t7.5 5q1 0 4 0.5t6 0.5q5 0 28 -1t38 -1q2 0 59 3q7 0 30 4t32 4z M53 468q25 0 57 -3t34 -3q17 0 42 -0.5t34 -0.5q11 0 38 -2.5t41 -2.5q11 0 40.5 2t36.5 2q10 0 10 -51q0 -12 -8 -17q-9 -6 -78 -6q-5 0 -40.5 3.5t-41.5 3.5q-22 0 -45.5 -0.5t-39 -0.5h-18.5q-10 0 -29.5 3t-29.5 3q-16 3 -16 43q0 12 4.5 19.5t8.5 7.5z"/>
<glyph glyph-name="greater" horiz-adv-x="400" unicode="&gt;" d="M67 609q4 0 22 -11.5t30 -21.5q14 -14 29 -26q10 -8 43 -41q42 -46 83 -72q11 -6 58 -47q28 -23 28 -34q0 -13 -4 -20q-2 -3 -22 -29q-9 -10 -43 -41q-19 -17 -53 -50t-42 -40q-10 -10 -41 -45q-12 -12 -41 -37t-33 -25q-11 0 -19 7q-4 4 -13.5 17.5t-9.5 17.5q0 8 43 48 q8 8 23.5 24t18.5 19t20 21t27 27q6 5 20 18.5t19 17.5q13 11 36 34.5t23 26.5t-12 14.5t-20 16.5q-42 27 -81 65q-6 6 -30 30.5t-32 30.5l-47 40q-17 17 -17 25q0 15 18 31q11 9 19 9z"/>
<glyph glyph-name="question" horiz-adv-x="325" unicode="?" d="M140 84q4 0 7 -0.5t5 -0.5t4.5 -2t3 -2.5l4 -4l4.5 -4.5q14 -16 14 -38q0 -19 -5 -31q-9 -22 -46 -22q-35 0 -35 38q0 28 5 42t16 20q10 5 23 5zM141 724q40 -2 71 -17q16 -8 37.5 -32.5t30.5 -55.5q12 -41 12 -99q0 -51 -18 -93q-11 -19 -40 -52.5t-32 -39.5 q-5 -9 -12 -29.5t-9 -24.5q-14 -27 -14 -91q0 -9 0.5 -21.5t0.5 -13.5q0 -4 -12.5 -7.5t-23.5 -3.5t-22 5.5t-11 10.5q0 1 -0.5 9t-1 19.5t-0.5 20.5q0 26 8.5 60.5t18.5 53.5q1 2 10.5 24.5t16.5 33.5q5 8 23.5 26t23.5 28q22 36 22 70q0 86 -19 116q-21 33 -57 33 q-14 0 -52 -9.5t-44 -9.5q-10 0 -15 2q-10 4 -10 44q0 14 9 19q14 8 68 21q13 3 41 3z"/>
<glyph glyph-name="at" horiz-adv-x="696" unicode="@" d="M351 483q-20 0 -30 -11q-20 -21 -28 -67q-3 -17 -7.5 -36t-7 -30.5t-2.5 -18.5q0 -85 3 -105q2 -20 13.5 -37.5t34.5 -17.5q11 0 27 4q33 17 38 26q3 6 3 78q0 15 -0.5 41t-0.5 39v21q0 25 1 38q0 3 0.5 11t0.5 13q0 18 -3 27q-3 8 -16.5 16t-25.5 9zM366 708 q68 0 118 -12q61 -13 99 -62q42 -48 62 -149q8 -45 8 -125q0 -54 -14 -119q-12 -55 -75 -100q-28 -19 -46 -25t-51 -6q-17 0 -30 12.5t-14 12.5t-12.5 -10t-34.5 -20t-53 -10q-48 0 -76 32q-39 46 -39 170v22q0 15 2.5 27.5t7 28t6.5 25.5q5 31 12 55q23 62 61 82 q26 13 57 13q11 0 23 -2t19 -4.5t9 -2.5h1q1 1 6 21t8 22q10 8 43 8q14 0 14 -26q0 -22 -5 -67q-9 -110 -10 -140q-1 -18 -1 -60q0 -50 2 -76q5 -48 17 -48q25 0 49 20.5t34 39.5q14 29 20 87q3 33 3 66q0 74 -23 145q-11 31 -33.5 59.5t-51.5 35.5q-50 13 -113 13 q-67 0 -113 -26q-30 -17 -74 -69t-50 -72q-19 -46 -19 -124q0 -149 19 -190q32 -70 74 -96q60 -35 117 -35q38 0 81 18q12 5 20 5q4 0 11 -7.5t10 -9.5q6 -3 13.5 -11t7.5 -12q0 -5 -4 -10t-13 -10t-14 -7t-18 -7l-13 -4q-26 -11 -82 -11q-36 0 -79.5 13t-73.5 31 q-53 32 -83 92t-34 120q-5 75 -5 159q0 63 22 119q16 42 58 98q51 61 91 78q82 35 152 35z"/>
<glyph glyph-name="A" horiz-adv-x="399" unicode="A" d="M201 643q-3 0 -6 -3q-1 -5 -3 -24.5t-3 -24.5q0 -2 -8 -40t-16 -80.5t-11 -62.5q-17 -100 -17 -144q0 -3 19 -3q10 0 30 -3t28 -3q42 -3 49 -3h5l2 1q2 1 -6 30q-3 12 -8 58q-6 68 -12 104q-1 11 -6.5 33.5t-7.5 33.5q-1 13 -5.5 37t-5.5 31q-7 52 -14 62q-1 1 -4 1z M206 714q20 0 41 -8q18 -7 38 -100l23 -128q13 -72 16 -100q4 -33 5 -57q0 -3 11 -46q3 -12 7 -33.5t6 -29.5l12 -57q4 -18 9 -53.5t7.5 -62t2.5 -30.5t-16 -8.5t-30 -4.5q-18 0 -20 13q-14 102 -27 154q-4 12 -7 15q-21 6 -84 10q-8 0 -24.5 1t-28 1.5t-16.5 0.5h-4 q-5 -1 -18 -37q-4 -11 -16 -75.5t-12 -72.5q0 -6 -41 -6q-25 0 -25 8v35q0 11 4 30.5t11.5 50t9.5 41.5q2 8 7 21t7 19q8 29 10 57q0 2 2.5 28t6.5 60t10 66q21 116 38 177q3 10 7 31t6 31q13 55 37 55q5 0 17 2t18 2z"/>
<glyph glyph-name="B" horiz-adv-x="405" unicode="B" d="M181 356q-29 0 -42 -5q-3 -1 -4.5 -12t-3 -27.5t-2.5 -24.5q-5 -27 -7 -121q0 -9 -1.5 -29.5t-1.5 -27.5q0 -8 2 -15.5t5.5 -15t4.5 -9.5q0 -2 24 -2q65 0 90 17q36 27 42 50q7 27 7 77q0 70 -49 108q-24 20 -39 35q-16 2 -25 2zM132 640q-1 0 -1 -7q0 -9 2.5 -37.5 t2.5 -35.5q0 -17 -3.5 -53.5t-3.5 -53.5q0 -30 2 -32h2q21 0 69 4q20 2 43 19q42 29 42 96q0 64 -30 87q-18 14 -108 14q-4 0 -8 -0.5t-7 -0.5h-2zM96 710q64 0 86 -3q4 0 28.5 -1.5t44.5 -3.5t29 -6q14 -6 33.5 -28t24.5 -36q15 -42 15 -89q0 -79 -29 -118q-6 -7 -19.5 -17 t-24 -17t-10.5 -9l6 -4q6 -4 15.5 -11t20 -16.5t21.5 -24t17 -29.5q10 -24 10 -95q0 -46 -9 -82q-4 -19 -19.5 -42.5t-30.5 -35.5q-18 -15 -42 -28q-31 -16 -164 -16q-9 0 -15.5 3t-10.5 5.5t-6.5 11t-3 11.5t-1.5 15t-1 14q-1 6 -6 22t-5 24q0 20 2 58q2 87 8 131 q3 19 3 48q0 23 -2 56t-2 34t3 51.5t3 75.5q0 17 -3 49.5t-3 39.5q0 4 -2.5 21.5t-2.5 27.5q0 7 2 9q5 5 40 5z"/>
<glyph glyph-name="C" horiz-adv-x="398" unicode="C" d="M249 721q24 0 52 -12q13 -5 32 -27t26 -44q13 -43 13 -59q0 -12 -6 -21q-7 -8 -14 -9.5t-28 -1.5q-8 0 -17 9q-2 2 -4.5 12.5t-5.5 24.5t-5 20q-8 19 -16 27q-12 12 -38 12q-42 0 -55 -12q-21 -16 -28.5 -30.5t-15.5 -45.5q-2 -8 -8.5 -27.5t-11.5 -36t-6 -28.5 q-3 -20 -3 -64q0 -71 14 -153q1 -9 3 -23l3.5 -24.5t1.5 -20.5q0 -27 11 -57q3 -10 24 -44q12 -22 52 -22q29 0 41 10q26 19 31 40q1 2 1 13t3 16q2 3 3 11t3 12.5t8 4.5q57 0 60 -26q0 -7 -6 -21q-2 -4 -3.5 -16t-2.5 -18q-4 -17 -15 -34q-17 -28 -50.5 -44.5t-69.5 -17.5 q-56 0 -88 25q-34 27 -52.5 71.5t-18.5 75.5q0 18 -2 30t-5 26.5t-5 28.5q-11 56 -11 165q0 46 3 67q2 18 14.5 55.5t14.5 45.5q9 30 13.5 41.5t16.5 29.5t30 32q43 34 117 34z"/>
<glyph glyph-name="D" horiz-adv-x="412" unicode="D" d="M138 634q-6 0 -8.5 -0.5t-4 -2.5t-1.5 -6q0 -1 3 -40q0 -6 2 -26t2 -31q0 -19 -3 -50t-3 -49q0 -3 3 -72t3 -122q0 -5 -3.5 -34t-3.5 -41q0 -11 1.5 -39t1.5 -32q0 -3 -1.5 -10.5t-2 -10.5t1.5 -5q3 -1 22 -1h10q53 4 83 29q20 17 37 51q12 24 16 86q0 8 2.5 28t2.5 31 q0 15 -1.5 40t-1.5 37q0 3 0.5 9t0.5 9q0 11 3 34.5t3 39.5q-1 51 -16 96q-10 33 -23 51q-15 15 -26 20q-9 3 -45 10q-8 1 -54 1zM104 704l78 -1q53 0 86 -17q10 -5 38 -30q8 -8 24 -35t24 -54q18 -66 18 -111q0 -16 -2.5 -41t-2.5 -37v-8q0 -13 1.5 -44.5t1.5 -40.5 q0 -13 -3.5 -36t-4.5 -30q-7 -61 -13 -83q-27 -66 -64 -97q-55 -47 -155 -47q-16 0 -50 4q-21 3 -25 16q-5 18 -5 42q0 5 3.5 18t3.5 16q0 8 -1.5 33.5t-1.5 38.5q0 8 3.5 33.5t3.5 38.5q0 38 -3.5 104.5t-3.5 90.5q0 28 3.5 66t3.5 42q0 7 -4 54t-4 71q0 20 14 37q6 7 37 7 z"/>
<glyph glyph-name="E" horiz-adv-x="383" unicode="E" d="M82 709q38 0 78 -3q6 -1 23 -3.5t24 -2.5q52 0 83 4q2 0 5 0.5t5 0.5q8 0 19.5 -1.5t12.5 -1.5q15 0 15 -32q0 -17 -5 -23.5t-19 -8.5q-57 -9 -89 -9q-14 0 -62 6q-2 0 -13 0.5t-17 0.5q-19 0 -22 -3q-1 -1 -1 -7q0 -7 4 -43q4 -38 4 -61q0 -4 -1.5 -20t-1.5 -23 q0 -43 6 -46q3 -1 11 -1q11 0 36 3.5t33 3.5q12 0 50 2t50 2q30 0 30 -14q0 -31 -5 -40q-6 -11 -32 -16q-8 -1 -26.5 -2t-40.5 -1.5t-29 -0.5q-55 -5 -57 -5q-17 0 -17 -5q0 -3 -4 -19.5t-4 -24.5q0 -16 -2.5 -48t-2.5 -38q0 -5 4 -43t4 -57v-28q0 -28 2 -30q3 -4 25 -4 q4 0 26.5 3.5t40.5 3.5q8 0 24 1t24 1q62 0 69 -7q14 -14 14 -28q0 -9 -6 -24.5t-10 -15.5q-7 0 -39 2t-49 2q-4 0 -52 -5q-24 -3 -72 -3q-55 0 -61 14q-9 20 -9 54q0 7 1.5 32t1.5 35q0 9 -4 50t-4 47q0 8 3 37t3 48l-2 63q-1 63 -1 97q0 8 1.5 26t1.5 22q0 26 -3 54t-3 46 q0 57 9 70q12 17 23 17z"/>
<glyph glyph-name="F" horiz-adv-x="364" unicode="F" d="M248 713q43 0 78 -8q11 -2 14.5 -7.5t3.5 -24.5q0 -36 -16 -36q-10 0 -48 3t-40 3q-8 0 -25 -0.5t-21 -0.5q-3 0 -19 -0.5t-26 -0.5q-4 0 -13 -12t-9 -19q0 -16 3 -46.5t3 -46.5q0 -11 -0.5 -29t-0.5 -24q0 -12 2 -14q3 -3 45 -3q7 0 54 5.5t63 5.5q37 0 41 -5t4 -27 q0 -25 -6 -28q-15 -8 -45 -8q-3 0 -46 -6t-59 -6q-11 0 -29.5 1.5t-21.5 1.5l-4 -1q-7 -9 -7 -59q0 -25 3 -62t3 -62q0 -62 -5 -122q-4 -28 -4 -42q0 -26 -15 -31q-12 -4 -37 -4q-18 0 -18 17q0 29 3 65q5 47 5 117q0 31 -3.5 84t-3.5 68q0 10 2 28q0 5 3 29.5t5 51.5t2 44 q0 28 -3 68t-3 69q0 19 12 43.5t23 24.5q6 0 19 1.5t46.5 3t90.5 1.5z"/>
<glyph glyph-name="G" horiz-adv-x="454" unicode="G" d="M262 722q40 0 79 -29q16 -13 32 -38.5t22 -41.5q5 -15 5 -23q0 -12 -7 -15q-2 -1 -9 -6t-16 -8.5t-18 -3.5t-21 28q-17 40 -33 53t-39 15q-65 0 -99 -64q-48 -91 -48 -183q0 -34 14 -143q2 -20 2 -34q0 -8 -0.5 -21.5t-0.5 -16.5q0 -22 10.5 -56.5t23.5 -51.5 q23 -30 60 -30q58 0 85 36q15 17 23 48.5t8 57.5q0 12 2.5 35.5t2.5 28.5q0 7 -20 7h-5q-9 0 -29 -0.5t-26 -0.5q-18 1 -22 33q-4 19 2 30q4 7 46 7h12h43q71 0 71 -21q0 -7 -3.5 -51.5t-3.5 -68.5q0 -103 -55 -157q-54 -52 -115 -52q-83 0 -125 48q-25 31 -40 80t-15 75v28 q0 33 -2 44q-13 78 -13 147q0 37 10 85t22 78q45 107 99 132q45 20 91 20z"/>
<glyph glyph-name="H" horiz-adv-x="471" unicode="H" d="M114 719q19 0 27 -5q10 -13 10 -48q0 -9 -5 -52q0 -4 -4 -33t-4 -43q0 -7 1 -21.5t1 -20.5v-18q0 -14 2 -15q1 -1 5 -1q3 0 26 3t39 3q8 0 27.5 -1t23.5 -1q3 0 14 -1.5t17 -1.5q8 0 22 -1t19 -1q2 0 4.5 0.5t3.5 0.5q7 2 7 50v72v36q0 4 0.5 13.5t0.5 11.5q0 5 -2 17 t-2 21q0 15 5 19q17 11 43 11q10 0 14 -6q12 -18 12 -50l-1 -34q0 -7 -1 -64.5t-1 -78.5q0 -19 -3.5 -63t-3.5 -66q0 -9 -2 -29t-2 -27q0 -45 2 -105q0 -14 -1.5 -33t-1.5 -34q0 -11 1.5 -33.5t1.5 -29.5q0 -18 -5.5 -44.5t-15.5 -26.5q-11 0 -28.5 3.5t-21.5 6.5 q-5 4 -5 25q0 8 2 20.5t2 18.5l-1 60q0 7 2 28t2 38q0 16 -1.5 55.5t-1.5 48.5q0 2 2 22t2 31q0 41 -6 47q-2 2 -37 4q-4 0 -15.5 2t-16.5 2q-6 0 -26 1t-24 1q-20 0 -45 -4.5t-30 -6.5q-7 -4 -7 -46l1 -112q0 -17 -8 -88t-8 -107q0 -41 -13 -41q-38 0 -48 4q-8 3 -8 20 q0 9 0.5 28.5t0.5 29.5q1 26 7 78.5t6 69.5v114q0 27 2 51.5t2 28.5q0 10 1 36t1 34t-1 21.5t-1 18.5q0 9 2 30t3 36q1 11 5 36t4 31t-1.5 21t-1.5 21q0 12 35 12z"/>
<glyph glyph-name="I" horiz-adv-x="203" unicode="I" d="M118 712q15 0 18.5 -4.5t3.5 -18.5q0 -16 -4 -47t-4 -39v-67v-32q0 -10 -1 -27t-1.5 -31.5t-0.5 -29.5q0 -14 1.5 -51t1.5 -56q0 -20 -2 -48t-2 -34q0 -18 6 -96q0 -13 5.5 -40t5.5 -39q0 -5 -2 -16t-2 -16q-1 -7 -2 -11t-5 -6.5t-11 -2.5q-53 0 -53 8q0 6 2 22t2 22 q0 9 -4 31q0 1 -3 32q0 16 -4.5 50t-4.5 51t1.5 48t1.5 47q0 14 -1 61t-1 74q0 19 1.5 78t1.5 79q0 16 3.5 41t3.5 30q0 16 3 28q1 4 16.5 7t29.5 3z"/>
<glyph glyph-name="J" horiz-adv-x="314" unicode="J" d="M177 714q7 0 31.5 -1.5t32.5 -1.5q5 0 9.5 -12.5t4.5 -24.5q5 -75 5 -82q0 -5 -2 -30.5t-2 -32.5q1 -21 4.5 -62.5t3.5 -62.5q0 -42 -7 -100q-5 -53 -5 -73v-39v-27q0 -3 -4 -53q-5 -51 -33 -83q-28 -33 -107 -33q-39 0 -66 40q-11 17 -22 46q-15 42 -15 57q0 4 1.5 6 t6 4.5t6.5 4.5q9 5 31 5q4 0 7 -0.5t5 -2t3.5 -3t3 -4.5t2.5 -4.5t2.5 -5.5t1.5 -5l19 -50q6 -18 25 -20q20 -2 26 -1q12 2 23 19q9 15 12 82q1 13 1 39v39q0 7 6.5 65.5t6.5 88.5q0 26 -3.5 69.5t-4.5 61.5v8q0 10 1 34t1 30v13q0 30 -6 32q-1 0 -4.5 0.5t-5.5 0.5 q-7 0 -23 -1t-18 -1q-11 0 -40 -6t-31 -6q-15 0 -19 3t-9.5 16.5t-5.5 21.5q0 18 8 22q16 8 36 8q6 0 27 4t31 5q7 0 22.5 1.5t26.5 1.5z"/>
<glyph glyph-name="K" horiz-adv-x="418" unicode="K" d="M400 26q10 -16 10 -23q0 -11 -26 -11q-2 0 -17.5 -1.5t-21.5 -1.5q-7 0 -30 37t-38 67q-14 29 -34 91.5t-26 73.5q-2 3 -13.5 26.5t-24.5 47t-23 35.5q-21 -21 -25 -30q-4 -11 -4 -37q0 -8 0.5 -23t0.5 -20q0 -9 -3.5 -30.5t-3.5 -29.5t2.5 -52.5t2.5 -52.5 q0 -21 -1.5 -42t-1.5 -25q0 -15 -7 -20t-42 -5q-22 0 -22 25q0 7 1.5 30t1.5 37q0 8 -2.5 51.5t-2.5 54.5t3 47t3 40q0 23 -1 70t-1 59q0 9 2.5 48.5t2.5 75.5q0 24 -3.5 59t-3.5 48q0 49 6 59q5 8 25 8q41 0 41 -13q0 -4 -1 -22t-1 -34q0 -11 3.5 -51.5t3.5 -54.5v-48 q0 -47 4 -47q3 0 17 21t33 51t21 33q14 20 22.5 37.5t9.5 18.5q4 7 25.5 30t25.5 29q10 15 34 40q5 4 25 4q15 0 29.5 -4.5t14.5 -10.5q0 -5 -4.5 -12t-5.5 -9q-5 -15 -31 -44q-3 -4 -24.5 -27.5t-26.5 -30.5q-7 -9 -18.5 -29.5t-21.5 -34.5q-11 -15 -30.5 -49t-21.5 -37 q29 -36 76 -136q6 -15 27.5 -79.5t33.5 -86.5q8 -13 20.5 -33.5t24 -38t12.5 -18.5z"/>
<glyph glyph-name="L" horiz-adv-x="345" unicode="L" d="M86 706q8 0 21.5 -8t13.5 -13q0 -4 -1 -12t-2 -18t-1 -14q-9 -108 -9 -178q0 -16 6.5 -57t6.5 -74l-3 -139q-1 -10 -2.5 -24.5t-1.5 -18.5q0 -2 -0.5 -16.5t-0.5 -24.5q0 -38 5 -42q7 -5 60 -5q8 0 36 4.5t37 5.5q20 2 48 2q21 0 24 -4q7 -14 7 -26q0 -26 -8 -34 q-4 -4 -43 -7q-11 -1 -45 -5t-53 -4q-9 0 -27 0.5t-29 0.5q-10 0 -30.5 -2.5t-24.5 -2.5q-6 0 -13.5 15.5t-7.5 29.5q0 5 -1 16.5t-1 17.5q0 21 -1.5 48t-1.5 34q0 4 1.5 19l2.5 25q2 43 2 139q0 10 -6 61t-6 66q0 110 8 178q1 6 1 16t1 18t4 15q3 9 5.5 12t8.5 4.5t20 1.5z "/>
<glyph glyph-name="M" horiz-adv-x="624" unicode="M" d="M73 707q65 0 80 -10q11 -8 49 -94q6 -14 34 -104t36 -112q5 -13 8 -28.5t6 -36t5 -30.5q15 -90 24 -90q2 0 15 62.5t27.5 132.5t17.5 80q29 93 100 216q5 8 30 8q29 0 42 -10q4 -3 11.5 -46t7.5 -57q0 -29 -1 -88t-1 -68q0 -12 1 -77.5t1 -107.5q0 -23 -7.5 -94t-7.5 -75 q0 -7 1 -21.5t1 -21.5q0 -25 -10 -32q-7 -5 -39 -5q-22 0 -22 12l-1 66q0 4 7.5 67t7.5 100q0 26 -1 103.5t-1 85.5q0 3 1 46.5t1 68.5q0 43 -3 43q-7 0 -58 -149q-6 -18 -34 -152.5t-29 -137.5q-7 -14 -54 -14q-18 0 -35 5.5t-20 12.5q-30 74 -38 115q-3 12 -6.5 35 t-7.5 41t-10 34q-9 21 -20.5 69t-15.5 62q-21 71 -28 71q-6 0 -6 -104q0 -22 -1.5 -68t-1.5 -63q0 -19 7 -120.5t7 -119.5q0 -7 -3 -41.5t-4 -37.5q-10 -29 -24 -29q-22 0 -38 7q-9 4 -9 19q0 4 4 38t4 40q0 35 -7 121t-7 122q0 21 1.5 73.5t1.5 53.5q0 24 1.5 87.5 t1.5 79.5q0 5 -3 25t-3 26t5 11t10 5z"/>
<glyph glyph-name="N" horiz-adv-x="489" unicode="N" d="M393 711q18 0 23.5 -9t6.5 -29q2 -68 2 -98q0 -23 -2 -65t-2 -51q0 -15 -1.5 -56t-1.5 -72q0 -34 5 -144q1 -14 4.5 -54.5t3.5 -57.5q0 -47 -5 -67q-1 -6 -24 -12.5t-37 -6.5q-23 0 -32 13q-4 6 -22.5 39.5t-21.5 42.5q-67 183 -81 234q-4 15 -9 43t-6 32 q-4 16 -32.5 93.5t-32.5 77.5q-2 0 -2 -28q0 -14 2 -32t2 -32q0 -2 -1 -67.5t-1 -92.5q0 -22 3 -91t3 -95q0 -20 5.5 -54.5t5.5 -56.5q0 -11 -31 -16q-15 -3 -27 -3q-14 0 -14 14q0 3 -4 46.5t-5 61.5q-1 32 -1 96q0 17 -2.5 51.5t-2.5 52.5q0 22 1.5 76t1.5 82 q0 11 -1.5 34.5t-1.5 35.5t1.5 35t1.5 35q0 24 2.5 42.5t2.5 20.5q0 21 17 27q11 4 38 4q11 0 15 -8q1 -2 1.5 -7.5t0.5 -6.5t13 -22q27 -46 47 -94q38 -93 56 -146q6 -16 10.5 -42.5t6.5 -35.5q7 -31 30 -98t43 -119.5t22 -52.5q1 0 -3.5 49.5t-9.5 115.5t-5 96q0 19 3 58 t3 59q0 13 0.5 54t0.5 62q-1 11 -1 43.5v43.5q-2 32 -2 39q0 13 41 13z"/>
<glyph glyph-name="O" horiz-adv-x="449" unicode="O" d="M233 650q-29 0 -49 -11t-27 -22q-25 -38 -40 -176q-7 -54 -7 -138q0 -34 16 -107q2 -11 5 -22t7 -24.5t6 -21.5q10 -37 23 -51q18 -19 50 -19q22 0 42 8q39 16 51 42q8 17 19 94t11 101q0 19 -3.5 60.5t-3.5 61.5v85q0 24 -10 56.5t-27 56.5q-19 27 -63 27zM248 721 q28 0 70 -27q42 -29 54 -55q10 -14 20 -52.5t10 -63.5q0 -26 0.5 -58.5t0.5 -39.5q0 -11 3 -60.5t3 -60.5q0 -18 -7 -88q-9 -87 -27 -132q-39 -95 -153 -95q-20 0 -43 5q-54 8 -86 64q-14 24 -29 91q-24 96 -24 156q0 91 8 147q5 51 7.5 75t15 66t32.5 66q29 34 74 51 q32 11 71 11z"/>
<glyph glyph-name="P" horiz-adv-x="380" unicode="P" d="M177 639q-16 0 -40 -3q-11 -1 -11 -17q0 -13 -0.5 -36.5t-0.5 -36.5q0 -5 1.5 -37.5t1.5 -42.5q0 -1 -2.5 -40.5t-2.5 -56.5q0 -15 2 -15h2q20 0 62 12q71 19 87 56q9 22 9 111q0 35 -40 75q-28 29 -68 31zM176 709q61 0 112 -46q32 -28 49.5 -65.5t17.5 -64.5 q0 -65 -7 -112q-3 -18 -16.5 -42t-32.5 -38q-32 -23 -97 -43q-13 -4 -32 -7.5t-32.5 -5t-14.5 -2.5q-6 -3 -3 -22q0 -11 1.5 -33t1.5 -33q0 -3 -0.5 -8t-0.5 -8q0 -8 -1 -23t-1.5 -27.5t-0.5 -23.5l6 -66q0 -27 -6 -36q-4 -6 -19 -6q-44 0 -44 13q0 33 -1 48q0 6 -2.5 22.5 t-2.5 25.5q0 8 1 23.5t1 23.5q0 17 -1 52t-1 53q0 42 4.5 108.5t4.5 100.5q0 6 -2 37.5t-2 38.5q0 11 0.5 31.5t0.5 30.5v15q0 4 -0.5 11.5t-0.5 10.5q0 12 1 26t1 15q0 5 3.5 14t8.5 9t22 -0.5t25 -0.5h11q8 0 23 2t26 2z"/>
<glyph glyph-name="Q" horiz-adv-x="454" unicode="Q" d="M153 82q19 -27 63 -27q13 0 31 4q-38 32 -49 43q-24 24 -24 44q0 10 29 23q22 11 25 11q7 0 7 -3q0 -12 23 -37q1 -1 7.5 -7t17.5 -15t17 -15q21 48 32 161q7 54 7 138q0 34 -16 107q-2 11 -5 22t-7 24.5t-6 21.5q-10 37 -23 51q-18 19 -50 19q-22 0 -42 -8 q-39 -16 -51 -42q-8 -17 -19 -94t-11 -101q0 -20 3.5 -61t3.5 -61v-85q0 -24 10 -56.5t27 -56.5zM409 400q0 -91 -8 -147q0 -1 -1.5 -19.5t-2 -22t-2.5 -20.5t-3 -23l-3.5 -21t-5 -22.5t-6 -20t-7.5 -20.5t-9.5 -17.5t-11.5 -17.5l24 -28q19 -23 19 -34q0 -9 -17 -18 q-22 -11 -28 -11q-5 0 -15 7q-7 5 -17 17t-12 14l-8 9q-7 -4 -23 -10q-32 -11 -71 -11q-28 0 -70 27q-42 29 -54 55q-10 14 -20 52.5t-10 63.5q0 26 -0.5 58.5t-0.5 39.5q0 11 -3 60.5t-3 60.5q0 18 7 88q9 87 27 132q39 95 153 95q20 0 43 -5q54 -8 86 -64q14 -24 29 -91 q24 -96 24 -156z"/>
<glyph glyph-name="R" horiz-adv-x="405" unicode="R" d="M209 641q-9 0 -30.5 1t-29.5 1q-17 0 -19 -3q-6 -15 -6 -70q0 -12 3 -45t3 -41q0 -63 3 -66q4 -4 22 -4q40 0 86 24q36 19 48.5 44t12.5 68q0 46 -29 72q-20 19 -64 19zM167 710q93 0 132 -22q73 -41 73 -138q0 -107 -62 -150q-15 -11 -33.5 -19.5t-28.5 -12.5t-10 -5 t6 -7.5t16.5 -23.5t19.5 -41q10 -25 24 -90q9 -41 25 -78q17 -41 41 -74q15 -26 15 -37q0 -2 -2 -3t-6 -2t-5 -2q-30 -10 -43 -10q-5 0 -27 26q-5 6 -11.5 18.5t-7.5 14.5q-7 11 -13.5 28t-14 41.5t-10.5 31.5q-14 41 -30 108q-4 17 -16.5 38t-23.5 34t-14 13q-26 0 -30 -3 t-4 -23q0 -3 0.5 -6.5t0.5 -4.5q0 -5 2 -23.5t2 -28.5q0 -22 -2 -68q-2 -39 -8 -119l-2 -40q-2 -25 -7 -27q-12 -6 -26 -6q-25 0 -31 6t-6 24q0 8 1 25.5t1 23.5q0 38 8 120q2 20 2 62q0 12 -2.5 44.5t-2.5 50.5q0 24 0.5 66t0.5 64q0 6 -2 40t-2 50q3 90 8 101q12 30 21 30 q2 0 35 2t49 2z"/>
<glyph glyph-name="S" horiz-adv-x="366" unicode="S" d="M181 727q78 0 124 -44q27 -21 29 -44q0 -4 -5 -19q-10 -29 -27 -29q-3 0 -11.5 7.5t-11.5 12.5q-12 17 -29 29q-24 17 -61 17q-39 0 -64 -19q-7 -6 -12 -40q-12 -60 -12 -62q0 -27 4.5 -41t21.5 -31q24 -23 66 -44q24 -13 63 -42.5t48 -43.5q10 -16 21 -52.5t11 -60.5 q0 -61 -14 -112q-20 -71 -51 -95q-38 -30 -106 -30q-42 0 -57 8q-88 46 -88 126q0 10 0.5 26.5t0.5 19.5q0 15 23 23q12 4 28 4q8 0 13.5 -6.5t5.5 -16.5q0 -7 -1 -19.5t-1 -17.5q0 -2 0.5 -5.5t0.5 -5.5q2 -15 4.5 -22t10 -17.5t22.5 -21.5q7 -5 22 -5h15q50 0 73 24 q8 11 20 53q9 31 9 89q0 34 -24 80q-13 25 -91 65q-64 39 -76 53q-19 22 -31.5 55.5t-12.5 59.5q0 29 13 83q11 50 22 63q17 19 50.5 33.5t64.5 14.5z"/>
<glyph glyph-name="T" horiz-adv-x="354" unicode="T" d="M244 707q8 0 28.5 -1.5t28.5 -1.5q33 0 40 -5q13 -9 13 -27q0 -17 -5 -27t-48 -10q-11 0 -27 1t-21 1h-6q-25 -2 -32 -5q-2 -1 -2 -9q0 -7 2 -25t2 -22q5 -52 5 -64q0 -22 -5 -134v-29q0 -18 0.5 -53.5t0.5 -55.5q0 -30 -6 -64q-2 -16 -2 -50q-7 -77 -7 -100 q0 -16 -8 -21q-11 -7 -39 -7q-23 0 -23 18q0 9 3 61t3 63v18q0 13 4.5 40.5t4.5 42.5q0 9 -0.5 26t-0.5 26q0 7 -0.5 22t-0.5 22q0 48 4 87q2 26 2 79q0 42 -9 103q-4 17 -9 18h-2q-2 0 -18 -2t-28 -2q-65 0 -76 8q-10 8 -10 41q0 23 22 23q10 0 39 -1t32 -1q5 0 75 8.5 t76 8.5z"/>
<glyph glyph-name="U" horiz-adv-x="464" unicode="U" d="M70 715q17 0 47 -9q5 -1 5 -12q0 -4 -1 -15.5t-1 -19.5q0 -11 -0.5 -31t-0.5 -31q0 -32 7 -142q1 -24 7 -90.5t6 -79.5q0 -3 -0.5 -30t-0.5 -47q0 -68 6 -106q1 -11 22 -29q18 -15 62 -15q43 0 60 13q13 11 20 24q19 32 25 126q6 111 6 114q0 16 -2.5 52.5t-2.5 47.5 q0 31 5 91t5 86q0 15 -6 45.5t-6 32.5q0 12 22 19q13 4 29 4q13 0 18 -16q13 -60 13 -82q0 -25 -5 -94t-5 -84q0 -19 2.5 -52t2.5 -53q0 -27 -4 -83l-5 -71q-11 -121 -73 -166q-43 -21 -112 -21q-27 0 -58.5 11t-49.5 28q-8 7 -16.5 23t-9.5 22q-12 52 -12 208q0 31 -11 163 q-8 88 -8 193q0 76 20 76z"/>
<glyph glyph-name="V" horiz-adv-x="457" unicode="V" d="M79 714q20 0 20 -10q0 -3 -2 -17.5t-2 -22.5q0 -31 37 -135q6 -18 24 -102q5 -26 11 -70.5t10 -70.5q2 -13 9.5 -38t9.5 -34q17 -80 21 -80t11 20.5t7 31.5t13.5 71.5t19.5 72.5q6 13 20.5 71t24.5 84q23 55 23 69t6 39.5t7 29.5q1 2 7 33.5t8 35.5q0 1 0.5 2l1 2t1.5 2 t2.5 1.5t3.5 1.5t5.5 1.5t7.5 1t10 0.5h13q11 0 17 -6.5t6 -12.5q0 -14 -16 -83q-14 -61 -14 -77q0 -7 -17.5 -52.5t-22.5 -66.5q-12 -55 -39 -138q-7 -21 -16 -61.5t-9 -55.5q0 -19 -30 -111q-9 -26 -17 -38q-9 -6 -30 -6q-31 0 -37 6q-2 3 -7 19.5t-11.5 41t-11.5 38.5 q-3 10 -8 26.5t-8.5 29t-5.5 21.5t-7 26.5t-9.5 34t-7.5 34.5q-5 23 -12 78t-11 75q-15 71 -21 87q-39 101 -39 147q0 13 4 26t8 19.5t7 6.5l13 1q13 1 22 1z"/>
<glyph glyph-name="W" horiz-adv-x="655" unicode="W" d="M599 713q26 0 26 -18q-1 -14 -13 -63q-11 -53 -19 -115q-4 -35 -10 -97q-3 -27 -8.5 -55.5t-14 -69t-11.5 -55.5q-4 -29 -17.5 -83t-17.5 -76q-11 -47 -24 -69q-14 -7 -34 -7q-33 0 -36 14q-4 24 -21 76.5t-21 79.5q-3 18 -12 51t-12 45q-2 7 -8.5 47t-12.5 76t-7 36 t-6 -31.5t-11.5 -73t-12.5 -59.5q-2 -7 -16 -90q-3 -18 -13 -49t-13 -47q0 -2 -7 -22.5t-7 -40.5q0 -17 -45 -17q-12 0 -20 4q-12 7 -16 25q-4 17 -17.5 57t-17.5 62q-2 13 -5.5 42.5t-7.5 51t-10 38.5q-8 30 -15.5 64.5t-16 77t-13.5 65.5q-26 159 -26 202q0 13 4 16 q10 8 41 8q27 0 27 -32q2 -17 4.5 -47t5 -54.5t5.5 -46.5q6 -37 22 -107t18 -78q42 -226 44 -226t9 37t15 83t11 58q7 21 11 47.5t7.5 57.5t6.5 47q4 25 14 63q3 11 5.5 17t5.5 18q7 14 27 14h9q30 -2 35 -15q15 -37 19 -58q2 -12 8.5 -31t8.5 -29q6 -22 13 -76t9 -65 q3 -16 12 -52t13 -55q11 -64 15 -64q1 1 1 2q1 5 14.5 74t17.5 87q2 13 7.5 36.5t9 43t4.5 36.5q7 40 15 124q4 60 31 176q6 15 44 15z"/>
<glyph glyph-name="X" horiz-adv-x="402" unicode="X" d="M335 710q7 0 24.5 -6.5t17.5 -11.5q0 -8 -22 -49q-6 -11 -17 -33t-17 -33q-10 -17 -41 -93q-23 -52 -48 -94q-11 -18 -11 -25q0 -3 5 -13l15.5 -31t18.5 -38q9 -20 25 -57t21 -48q1 -4 18 -36t30.5 -65t13.5 -53q0 -10 -0.5 -14t-4 -7.5t-10.5 -3.5q-31 0 -38 3 q-6 2 -19 31q-2 3 -8.5 18.5t-10.5 23.5q-24 50 -34 75q-31 74 -40 92q-19 31 -22 31q-1 0 -6 -13.5t-10.5 -31.5t-6.5 -21q-10 -26 -22.5 -77.5t-16.5 -66.5q-1 -2 -5.5 -22t-9.5 -32t-13 -18q-14 -4 -26 -4q-30 0 -33 22l4 21q2 4 13 40q4 19 13 53.5t12 45.5 q20 80 31 101q8 15 20.5 52.5t12.5 42.5q0 2 -10 24t-25 55.5t-23 53.5q-9 23 -20.5 68.5t-14.5 55.5q-20 65 -20 70q0 18 50 18q4 0 7 -2t6 -6.5t5.5 -9t5.5 -12l5 -12.5t5 -13.5t4 -12.5q1 -2 23 -84q11 -34 28 -73t21 -39q2 0 12 22t21.5 49t14.5 32q15 30 31 70 q7 18 14 31.5t10.5 19t8 11.5t5.5 7q7 12 18 18q7 4 15 4z"/>
<glyph glyph-name="Y" horiz-adv-x="399" unicode="Y" d="M55 719q26 0 31 -13q2 -5 7 -18t9.5 -24.5t4.5 -14.5l10 -48q0 -1 11 -34.5t16 -54.5q15 -43 29 -64q3 -5 22 -29q30 -39 31 -39q6 0 22 66q4 29 29 124q19 58 20 65q2 8 5 24t5.5 28t3.5 15q4 10 39 10q29 0 29 -20q0 -24 -37 -153q-5 -16 -11.5 -47t-8.5 -39 q-7 -31 -11 -43q-5 -14 -15.5 -44.5t-16.5 -47.5q-4 -16 -14 -46q-31 -101 -35 -106q-16 -19 -41 -109q-2 -8 -5.5 -26.5t-4.5 -21.5q-3 -10 -29 -10q-39 0 -39 18q0 6 8 43q8 36 13 48q4 9 10 28t12 35t13 29q2 4 17 49q14 45 14 52q0 2 -42 53q-4 5 -15 21t-17 24 q-24 30 -28 38t-20 61q-25 81 -37 134q-1 3 -6 16t-9 27.5t-4 23.5q0 20 35 20z"/>
<glyph glyph-name="Z" horiz-adv-x="424" unicode="Z" d="M373 72q5 0 10.5 -22.5t5.5 -33.5q0 -13 -63 -13h-72q-16 0 -41.5 -4t-39.5 -4q-7 0 -18.5 -0.5t-16.5 -0.5t-16 0.5t-18 0.5q-6 0 -23 -1.5t-25 -1.5q-20 0 -22 6t-2 17q0 21 7 58q13 74 65 177q12 23 37 57q2 3 6 10t9.5 18.5t10.5 20.5l-14 1q-2 0 -13 0.5t-23 1.5 t-24.5 2.5t-20.5 3t-8 3.5q0 17 4 30q1 2 3 8t3.5 10t5 8t7.5 5h6q4 0 28.5 -1.5t41.5 -1.5q21 0 40 3q27 58 36 77q2 3 6 9.5t9 14.5t11 19q6 10 17.5 29.5t18 31.5t6.5 15q0 5 -25 5h-20q-16 0 -61 6t-48 6q-14 0 -59 -9q-25 -5 -34 -5q-3 0 -17 7q-3 2 -9 21t-6 28 q0 10 42 16q62 11 89 11q2 0 37.5 -5.5t55.5 -5.5q12 0 37 -1.5t37 -1.5q9 0 25.5 0.5t24.5 0.5q6 0 15.5 -5.5t9.5 -8.5q0 -33 -39 -107q-7 -14 -29 -49.5t-33 -56.5q-1 -3 -18 -39q10 0 40 -2t45 -2q11 0 11 -17q0 -12 -7 -31.5t-15 -19.5q-14 0 -43 1.5t-44 1.5 q-3 0 -9.5 -0.5t-9.5 -0.5q-25 -48 -43 -77l-40 -66q-9 -15 -19.5 -41.5t-17.5 -48t-8 -22.5q-7 -14 -7 -39q0 -5 36 -5h21q11 0 38.5 5t33.5 5q22 0 64.5 -0.5t64.5 -0.5z"/>
<glyph glyph-name="bracketleft" horiz-adv-x="303" unicode="[" d="M184 784q8 0 25.5 -1.5t25.5 -1.5q33 0 40 -5q13 -9 13 -27q0 -17 -5 -27t-48 -10q-11 0 -22 0.5t-18 1t-8 0.5q-18 0 -28 -5q-2 -1 -2 -9q0 -7 2 -25t2 -22q5 -53 5 -74q0 -59 -5 -171v-29q0 -18 0.5 -53.5t0.5 -55.5q0 -19 -4 -65.5t-4 -78.5v-6q0 -6 1 -35.5t1 -46.5 v-12q0 -10 -2.5 -47.5t-2.5 -52.5q0 -16 9 -18h2q2 0 18 2t28 2q55 0 66 -8q10 -8 10 -41q0 -23 -22 -23q-9 0 -33 1t-28 1q-8 0 -48.5 -4.5t-47.5 -4.5h-3q-4 1 -13 27q-9 22 -9 45q0 13 3.5 60.5t3.5 61.5v12q0 25 -2 63l-2 38q0 24 4.5 71t4.5 60q0 17 -0.5 50.5 t-0.5 51.5q0 53 3 81q2 26 2 116q0 17 -4.5 56.5t-4.5 56.5q0 39 3 72q2 20 22 23q54 6 72 6z"/>
<glyph glyph-name="backslash" horiz-adv-x="338" unicode="\" d="M33 781q8 3 20 3q34 0 39 -9q6 -11 12.5 -41t7.5 -44q1 -10 20 -88q5 -13 39 -141q20 -79 24 -91q5 -17 25 -66.5t27 -78.5q5 -20 11 -57.5t8 -47.5q15 -86 28 -126q3 -9 11 -62t8 -65q0 -9 -25 -22q-8 -4 -17 -4q-13 0 -18 9q-1 3 -12 63t-14 70q-8 23 -19 80.5 t-14 68.5l-7 38.5t-9 42.5l-45 132q-20 57 -36 126l-36 131q-4 14 -10 42.5t-9 41.5l-15 66q-1 5 -1 14q0 11 7 15z"/>
<glyph glyph-name="bracketright" horiz-adv-x="297" unicode="]" d="M187 778q4 -1 13 -27q8 -20 9 -45q0 -26 3 -71q5 -52 5 -64q0 -25 -2.5 -76t-2.5 -68q0 -6 -0.5 -18.5t-0.5 -17.5q0 -17 1 -50t1 -52q0 -30 -6 -64q-2 -17 -3 -50.5t-3 -50.5q-2 -26 -2 -79q0 -36 6 -78q6 -46 6 -88q0 -23 -17 -29q-27 -9 -87 -9q-8 0 -23.5 1.5 t-23.5 1.5q-22 0 -30 5q-13 9 -13 27q0 17 5 27t38 10q12 0 24 -1t16 -1h6q25 2 32 5q2 1 2 9q0 5 -6 47q-5 25 -5 64q0 23 2.5 67.5t2.5 66.5q0 13 4.5 59t4.5 61q0 8 -0.5 26t-0.5 26t-0.5 22t-0.5 22q0 48 4 87q2 26 2 89q0 62 -9 123q-4 17 -9 18h-2q-2 0 -18 -2t-28 -2 q-45 0 -56 8q-10 7 -10 41q0 23 22 23q9 0 28 -1t23 -1q8 0 48.5 4.5t47.5 4.5h3z"/>
<glyph glyph-name="asciicircum" horiz-adv-x="397" unicode="^" d="M221 714q9 0 17 -4q6 -3 19 -40q9 -26 22.5 -58t16.5 -42q5 -14 11.5 -44.5t10.5 -44.5l38 -114q16 -50 16 -81q0 -9 -2 -11q-9 -9 -45 -9q-12 0 -19 11q-1 1 -1.5 5.5t-1 10t-1.5 8.5q-5 23 -25 80t-22 65q-6 19 -14.5 57.5t-12.5 52.5q-16 50 -22 50q-1 0 -31 -65 q-18 -38 -41 -101q-2 -5 -9 -25t-10 -30q-3 -11 -7.5 -30.5t-6.5 -25.5q-9 -43 -13 -54q-3 -9 -16 -9q-39 0 -44 5q-3 3 -3 10q0 12 10 67q8 35 21 78q24 76 70 174q29 63 45 91q8 15 17 19q8 4 33 4z"/>
<glyph glyph-name="underscore" horiz-adv-x="542" unicode="_" d="M354 6q8 0 41.5 -4t49.5 -4q3 0 13 -1.5t16 -1.5q8 0 24 1.5t25 1.5q19 0 19 -37q0 -7 -6.5 -16.5t-10.5 -9.5q-7 0 -24.5 -2.5t-25.5 -2.5q-4 0 -15 2.5t-15 2.5q-3 0 -41.5 3t-51.5 3q-10 0 -66 -6t-71 -6q-37 0 -91 4t-57 4q-9 0 -27 -1t-23 -1q-10 0 -13.5 6.5 t-3.5 26.5q0 8 6 19t11 11q3 0 22 2t26 2q1 0 58.5 -4.5t89.5 -4.5q16 0 62 6.5t79 6.5z"/>
<glyph glyph-name="grave" horiz-adv-x="175" unicode="`" d="M71 776q6 0 14 -13q7 -13 20.5 -31.5t15.5 -22.5q21 -36 25 -47q4 -10 4 -18q0 -4 -9.5 -14t-15.5 -13q-14 -7 -17 -7q-5 0 -12 9.5t-10 20.5q-2 9 -10.5 19.5t-10.5 14.5q-6 12 -28 45q-12 20 -12 33q0 12 25 17q1 0 7 3.5t14 3.5z"/>
<glyph glyph-name="a" d="M204 476q-28 0 -32 -2q-17 -9 -30 -29t-17 -42q-2 -15 -7.5 -43t-9.5 -50t-5 -36q-3 -31 -3 -105q0 -28 8 -60.5t20 -45.5q13 -8 50 -8q15 0 36.5 8.5t33.5 22.5q-3 18 -3 42q0 13 1 42.5t1 45.5l-1 69q0 6 3 26t3 32q0 8 1 32t1 31v5q-2 14 -15 34q-20 31 -35 31z M287 563q6 0 28.5 -10t22.5 -16q0 -23 -7 -62q-3 -16 -5 -49q-2 -22 -2 -86q0 -36 -3 -43q-5 -30 -5 -67q0 -8 0.5 -25t0.5 -27q0 -82 5 -97q4 -12 24 -34q19 -19 19 -25q0 -3 -1 -5.5t-2.5 -6t-2.5 -5.5q-3 -8 -15.5 -15.5t-17.5 -7.5t-13 2q-9 2 -26 19t-19 17q-4 0 -9 -3 t-12.5 -9t-13.5 -10q-17 -10 -89 -10q-31 0 -58 18q-9 6 -23 33t-23 53q-10 41 -10 104q5 90 7 109q6 48 17 103q13 62 49 99q10 11 30 25t26 16q10 2 39 2q13 0 31 -12t29 -26q4 9 5.5 20t3 18t5.5 9q8 4 15 4z" unicode="a"/>
<glyph glyph-name="b" horiz-adv-x="375" unicode="b" d="M224 487q-27 0 -62 -15q-38 -19 -40 -24q-1 -2 -1 -14q0 -6 4 -70q5 -66 5 -96v-15q0 -50 4 -90q1 -8 1 -26q0 -10 -0.5 -25.5t-0.5 -17.5q0 -4 12 -15.5t20 -15.5q32 -16 56 -16q17 0 24 10q5 7 9 18.5t6.5 27t4 27t3 30.5t2.5 25q2 31 2 94l3 72q0 33 -3 49 q-2 17 -6.5 34t-16 35t-26.5 18zM112 730q13 0 17 -5t4 -26q0 -11 1 -34t1 -35q0 -18 -4 -58q-1 -5 -2.5 -14l-2.5 -15t-1 -9q0 -4 2 -4q9 0 51 15q38 12 65 12q31 0 66 -47q36 -49 36 -133q0 -19 -2 -53.5t-2 -46.5q-3 -105 -4 -114q-1 -5 -4 -32.5t-5 -38.5t-7.5 -30.5 t-12.5 -34.5q-23 -45 -94 -45q-19 0 -40.5 7t-36 13.5t-15.5 6.5q0 -1 -0.5 -6.5t-1.5 -12t-3 -9.5q-1 -2 -38 -2q-10 0 -20 4t-10 9q0 6 3.5 29t3.5 25q0 17 1 25q1 3 5 19.5t4 21.5q0 28 -1 41q-1 12 -3 30.5t-2 30.5q-1 17 -1 57t-2 62q-6 74 -8 116q-1 20 -1 57 q4 40 6 48q2 7 5 33q1 9 2.5 50t1.5 45q2 37 10 41q13 7 39 7z"/>
<glyph glyph-name="c" horiz-adv-x="342" unicode="c" d="M208 552q29 0 44 -12q38 -31 53 -64q17 -37 17 -61q0 -10 -20 -18q-1 -1 -6.5 -3.5t-10 -4.5t-7.5 -2q-17 0 -27 30q-13 39 -32 57q-13 11 -25 11q-17 0 -43 -13q-34 -18 -40 -81q-8 -75 -8 -83q0 -4 1 -14.5t1 -19.5q0 -19 -2.5 -58.5t-2.5 -45.5q0 -21 12.5 -49 t26.5 -42q26 -24 46 -24q6 0 11.5 1.5t10 4.5t8 5.5t7 7t5 7t4.5 6.5t3 5q19 29 19 38l1 32q0 8 2.5 11.5t11.5 3.5q42 0 47 -9q7 -12 7 -42q0 -9 -4 -20.5t-6.5 -17t-12 -21.5t-10.5 -18q-18 -32 -41 -46.5t-61 -14.5q-46 0 -79 25q-31 24 -54.5 68.5t-23.5 87.5q0 5 3 42 t3 55l-2 33q0 21 7 101q7 64 42 104q44 48 125 48z"/>
<glyph glyph-name="d" horiz-adv-x="388" unicode="d" d="M180 487q-23 -2 -47 -42q-5 -9 -8.5 -21.5t-6.5 -26.5t-5 -21q-5 -16 -11 -166q0 -10 -2 -31.5t-2 -31.5q0 -41 30 -73q18 -20 42 -20q17 0 28 6l47 31q10 7 10 35v14q0 21 4 65.5t4 66.5q0 12 -6 66v14v37q0 26 -2 39q-6 31 -14 41q-16 18 -61 18zM309 733q16 0 25 -5 q6 -7 6 -33q0 -40 -9 -178q-5 -78 -5 -139v-22q0 -9 2 -38.5t2 -45.5q0 -24 -3 -68.5t-3 -62.5v-9q0 -8 1 -25t1 -25q0 -6 1 -29t1 -32q0 -5 2 -12.5t2 -11.5q0 -5 -6 -14q-3 -4 -20.5 -8.5t-24.5 -4.5q-6 0 -10.5 25t-5.5 25t-6 -3.5t-14 -9.5t-17 -9q-27 -12 -61 -12 q-22 0 -52.5 14t-50.5 38q-34 42 -34 98q0 60 1 80q11 191 24 219q3 7 9.5 21.5t9.5 21t8.5 16.5t11.5 17t13 13q34 31 65 31q44 0 62 -5q5 -1 14.5 -5t12.5 -4q7 0 7 49l1 106q0 30 14 33q14 4 26 4z"/>
<glyph glyph-name="e" horiz-adv-x="373" unicode="e" d="M222 485q-65 0 -102 -75q-16 -33 -16 -60q0 -3 0.5 -8t0.5 -6q0 -5 15 -8t39.5 -5t37.5 -5q24 -6 53 -6q19 0 24 4.5t5 26.5q0 23 -6 56.5t-11 44.5q-6 19 -20 35q-6 6 -20 6zM228 553q30 0 48.5 -11t35.5 -39q13 -23 22 -76t9 -99q0 -38 -10 -56q-5 -9 -25 -18t-47 -9 q-55 0 -79 5q-47 11 -72 11q-5 0 -6.5 -2.5t-1.5 -11.5q0 -1 4 -49q2 -40 21 -93q9 -26 26 -42t35 -16q15 0 40 14q21 12 26 23q2 4 10 39q6 22 14 22q18 0 34 -4q21 -4 21 -17q0 -8 -4.5 -31t-8.5 -32q-6 -14 -24.5 -36.5t-38.5 -32.5q-31 -15 -58 -15q-49 0 -88 33 q-36 31 -54 83t-21 101q-6 105 -6 108q0 14 2 42q5 66 47 132q18 29 65 52.5t84 24.5z"/>
<glyph glyph-name="f" horiz-adv-x="284" unicode="f" d="M203 718q71 -6 71 -25q-2 -5 -2.5 -14.5t-1 -17t-3 -13t-9.5 -6.5q-38 2 -42 4q-3 0 -7.5 1t-8.5 1.5t-8 0.5q-26 0 -32 -22q-5 -16 -5 -41q0 -6 0.5 -18t0.5 -18q44 -2 61 -2q26 0 31 -4t5 -23q0 -26 -12 -36q-4 -3 -23 -3q-7 0 -20 0.5t-17 0.5h-27l-1 -22 q-6 -80 -6 -119q0 -19 -4.5 -57t-4.5 -56q0 -15 3.5 -44.5t3.5 -41.5q0 -26 -2 -79t-2 -60q0 -9 -31 -9q-23 0 -35 9q-7 4 -7 12q0 2 1 7.5t1 8.5q0 72 4 107q0 17 -3 51t-3 51q0 21 4.5 64.5t4.5 64.5q0 27 2 81q0 5 2 14t2 13v11q-34 4 -37 4q-36 0 -36 19q0 35 13 46 q4 3 14 3q3 0 11 -0.5t12 -0.5l24 -3v8q0 4 -0.5 14t-0.5 16q0 22 6 39q13 38 29 57q20 27 85 27z"/>
<glyph glyph-name="g" d="M186 483q-26 0 -50 -49q-6 -12 -8.5 -30.5t-4.5 -23.5q-24 -81 -24 -126q0 -18 8.5 -70.5t14.5 -64.5q1 -1 7 -15.5t9 -20.5t10 -14.5t14 -12.5q12 -6 38 -6q18 0 58 25q2 1 2.5 21.5t0.5 47.5t1 35q3 17 3 61v30q0 14 -1.5 41t-1.5 31q0 6 1 19t1 20q0 11 -3 22 q-7 23 -12 35q-8 17 -27 31t-36 14zM296 576q26 0 33 -7q4 -4 4 -25v-11q0 -12 2 -51.5t2 -57.5v-10q-1 -17 -3.5 -42.5t-2.5 -29.5q0 -17 3 -39t3 -31q0 -27 -4.5 -90.5t-4.5 -106.5q0 -50 -1 -76q-3 -78 -30 -133q-16 -32 -44 -47q-27 -14 -74 -14q-28 1 -53 20 q-24 17 -24 44q0 6 18 15.5t24 9.5q10 0 17 -8q12 -12 21 -12q40 0 50 14q6 8 16 47.5t10 52.5q0 6 -2 6q-1 0 -6 -3t-15.5 -6t-25.5 -3q-77 0 -105 31q-17 18 -46 76q-28 56 -28 153q0 55 17 136q4 11 8 36.5t9 39.5q45 73 86 90q22 9 40 9q11 0 27.5 -8.5t29.5 -16.5 l13 -9q3 0 3 22t5.5 28.5t27.5 6.5z" unicode="g"/>
<glyph glyph-name="h" horiz-adv-x="394" unicode="h" d="M110 730q17 0 20.5 -4t3.5 -18t3.5 -52t3.5 -54q0 -7 -1 -28t-1 -29q0 -13 2 -13q7 0 21 7q36 18 51 18q13 0 36 -10q6 -3 11.5 -7t9 -7t9 -10t7 -8.5t8.5 -10.5l6 -10q34 -67 39 -90q10 -52 10 -70q0 -22 -3 -85t-3 -67t3.5 -59t3.5 -68v-41q0 -12 -11 -16q-1 -1 -20 -1 q-30 0 -36 14q-1 1 -1 2q-2 4 -2 20v18q0 15 -3.5 68t-3.5 60q0 6 3.5 65t3.5 80t-9 57q-8 31 -36 83q-13 23 -25 23q-20 0 -43 -19q-24 -18 -27 -25q-2 -3 -2 -22q0 -8 0.5 -25t0.5 -24q-2 -27 -7 -77t-7 -71q-1 -7 -1 -28v-37v-16q-1 -12 -2 -25.5t-2 -24.5t-1 -25 q0 -8 -0.5 -25.5t-0.5 -26.5t-5 -13q-10 -8 -21 -8q-27 0 -39 8q-5 4 -5 33v13q0 24 3.5 56.5t4.5 50.5q0 7 3.5 48.5t6 88t2.5 75.5q0 12 -1 44t-1 51q0 9 3.5 37t3.5 39l-1 65q0 15 -5 45t-5 37q0 26 6 32q12 12 42 12z"/>
<glyph glyph-name="i" horiz-adv-x="192" unicode="i" d="M100 539q39 0 39 -13q0 -4 2.5 -15.5t2.5 -14.5q0 -14 -5.5 -40.5t-6.5 -34.5q-7 -53 -7 -99q0 -4 -3.5 -45.5t-3.5 -57.5t2.5 -57.5t2.5 -64.5q0 -14 -1 -41.5t-1 -35.5q0 -12 -6 -16t-23 -4q-42 0 -42 18l2 34q1 33 1 48q0 18 -2.5 58.5t-2.5 59.5q0 4 4 48t4 59 q0 17 2 45.5t2 45.5q0 15 6 41t6 41q0 10 -1 19l-1 9q0 13 30 13zM108 719q37 0 37 -31q0 -49 -9 -55q-15 -10 -33 -10q-14 0 -26 8.5t-12 23.5q0 2 -0.5 8t-0.5 9q0 24 7 35q9 12 37 12z"/>
<glyph glyph-name="j" horiz-adv-x="194" unicode="j" d="M83 547q43 0 56 -10q6 -5 6 -43q0 -11 -2 -34t-2 -33q0 -19 2.5 -61t2.5 -63q0 -34 -9.5 -103t-9.5 -93q0 -18 2.5 -43t2.5 -38q0 -15 -1 -54.5t-1 -54.5q0 -50 -20 -88q-13 -23 -35 -35q-50 -28 -92 -28q-8 0 -8 54q0 13 19 17q47 10 57 30q9 18 9 53q0 18 1.5 66 t1.5 57q0 5 -2 29.5t-2 31.5q0 34 8.5 110.5t8.5 99.5q0 10 -3 56t-3 70q0 29 -1.5 56.5t-1.5 28.5q0 9 1 13t4.5 6.5t10.5 2.5zM106 719q37 0 37 -31q0 -49 -9 -55q-15 -10 -33 -10q-14 0 -26 8.5t-12 23.5q0 2 -0.5 8t-0.5 9q0 24 7 35q9 12 37 12z"/>
<glyph glyph-name="k" horiz-adv-x="357" unicode="k" d="M314 105q2 -5 11.5 -25.5t15.5 -38t6 -28.5q0 -17 -9 -17q-50 0 -54 7q-19 31 -33 70q-42 114 -47 126q-2 4 -7.5 18t-10.5 26.5t-9 19.5q-8 16 -32 53l-9 -5q-6 -28 -6 -36q0 -17 0.5 -54.5t0.5 -58.5q0 -15 -2 -34t-4 -32.5t-2 -15.5q0 -11 -2 -30t-2 -23 q-2 -22 -9 -26q-9 -6 -46 -6q-14 0 -14 27l6 58q5 59 5 76q0 21 1.5 63.5t1.5 63.5q0 48 -7 104q-5 40 -5 48q0 16 1.5 62.5t1.5 75.5q0 13 2.5 51.5t2.5 41.5q0 6 -1 19.5t-1 15.5q0 8 14 14.5t30 6.5q11 0 19 -4q11 -6 11 -45q0 -3 -3.5 -39t-3.5 -46q0 -30 -2.5 -78.5 t-2.5 -63.5q0 -11 3.5 -35t4.5 -24q4 0 37 28q8 7 27 27l19 21q4 4 27 29t28 29q8 8 20.5 15.5t17.5 7.5q13 0 28 -14q10 -10 13 -23q-7 -17 -20 -30q-43 -41 -70 -71q-21 -25 -53 -50q7 -10 36 -60q6 -10 16.5 -36t13.5 -32q11 -23 20.5 -49t16.5 -47z"/>
<glyph glyph-name="l" horiz-adv-x="202" unicode="l" d="M109 710q11 0 15.5 -1t8.5 -6t4 -16q0 -10 -1 -30.5t-1 -30.5q0 -21 4.5 -76.5t4.5 -84.5q0 -6 -5 -53t-5 -70q0 -7 1.5 -24.5t1.5 -28.5q0 -23 -4 -85t-4 -77q0 -13 -0.5 -38.5t-0.5 -31.5v-19q0 -28 -2 -32q-6 -11 -50 -11q-11 0 -14.5 4.5t-3.5 16.5v104q0 22 5 81.5 t5 91.5l-1 49q0 11 4 58t4 65q0 14 -3.5 53.5t-4.5 53.5q-1 20 -1 61q0 61 9 70q7 7 34 7z"/>
<glyph glyph-name="m" horiz-adv-x="605" unicode="m" d="M219 557q33 0 58 -22q5 -5 12.5 -17.5t12.5 -22t7 -9.5t9 8t17 18.5t16 15.5q28 21 79 21q37 0 66.5 -35t38.5 -68q16 -61 22 -207q1 -17 1 -53q0 -27 -1 -62.5t-1 -37.5q0 -4 2.5 -32.5t2.5 -32.5q0 -13 -5 -19.5t-11.5 -7.5t-19.5 -1q-35 0 -35 16q0 6 -2.5 38.5 t-2.5 39.5q0 8 1.5 21.5t1.5 25.5v60q0 53 -8.5 137t-13.5 98q-18 50 -53 50q-22 0 -44 -28q-4 -5 -20 -30.5t-17 -29.5q0 -22 5 -49.5t5 -41.5q0 -22 4 -66q4 -55 5 -86q0 -37 -3 -70q0 -3 -1.5 -29.5t-3.5 -40.5t-5 -15q-12 -5 -25 -5q-8 0 -14 1q-24 5 -24 18q0 2 1 24 t1 32q0 13 1.5 42.5t1.5 47.5q0 6 -2 21t-2 21q-3 43 -3 86q0 18 -5.5 54t-5.5 55q0 27 -15.5 62t-29.5 35q-18 0 -52 -30.5t-40 -50.5q-4 -12 -4 -48q0 -18 3 -57t3 -57q0 -126 -5 -193q-4 -52 -13 -56q-10 -4 -27 -4q-22 2 -34 12q0 42 4 131.5t4 119.5q0 10 -4 83t-4 123 q0 21 1 41q2 45 9 50q10 5 14 5q36 0 48 -9q4 -2 4 -21v-18q11 16 42 32.5t53 16.5z"/>
<glyph glyph-name="n" horiz-adv-x="396" unicode="n" d="M97 566q21 0 36 -8q1 -4 2.5 -13t2.5 -16t2 -7l3 2q3 3 9 6t13.5 6t19.5 5.5t25 2.5q29 0 47 -6q42 -14 67 -76q7 -18 17 -64t10 -85q0 -9 -3.5 -39t-3.5 -43q0 -8 3.5 -72t3.5 -78q0 -13 0.5 -31t0.5 -25q0 -14 -5 -21q-6 -8 -49 -8q-18 0 -18 14q1 18 1 51t-3 87t-3 86 q0 14 4 42t4 42t-6.5 53.5t-9.5 46.5q-14 42 -24 50q-9 7 -35 7q-15 0 -33 -12t-28.5 -23t-12.5 -15q-9 -19 -11 -51q0 -16 -2.5 -56t-2.5 -62q0 -23 3.5 -79t3.5 -66q0 -13 -0.5 -37.5t-0.5 -36.5t-0.5 -18t-5.5 -12.5t-14 -6.5q-32 0 -41.5 3t-9.5 13q0 6 1 31.5t1 47.5 l-6 108q-1 18 -1 53q0 73 9 138t9 113q0 47 8 52q12 7 23 7z"/>
<glyph glyph-name="o" horiz-adv-x="389" unicode="o" d="M198 484q-7 0 -13.5 -1.5t-10.5 -3.5t-10.5 -6t-10.5 -6q-7 -3 -12.5 -8.5t-9.5 -15.5t-6 -14.5t-6 -19.5t-5 -18q-14 -51 -14 -142q0 -22 8.5 -62.5t19.5 -66.5q5 -12 27 -43q10 -14 14 -17q15 -10 28 -10q34 0 53 16q25 22 34 99q5 40 5 94q0 6 -0.5 17.5t-0.5 16.5 q0 99 -33 169q-17 22 -57 22zM187 553q80 0 110 -28q24 -22 42.5 -96t18.5 -135q0 -10 0.5 -30t0.5 -31q0 -44 -4 -76q-5 -46 -28.5 -94.5t-45.5 -58.5q-47 -21 -80 -21q-24 0 -50.5 9.5t-41.5 27.5q-6 6 -22 35q-25 42 -28 49q-29 70 -29 146q0 122 20 169q2 5 9.5 26 t13 34t16.5 27.5t23 18.5q6 2 19.5 9.5t27.5 13t28 5.5z"/>
<glyph glyph-name="p" horiz-adv-x="395" unicode="p" d="M217 479q-17 0 -49 -27q-28 -22 -30 -37q2 -16 2 -28q0 -18 -6 -47.5t-6 -37.5q0 -30 3 -62q4 -70 4 -102q0 -3 -0.5 -9.5t-0.5 -9.5q0 -5 2 -13q2 -6 14 -20t20 -21q12 -10 40 -10q51 0 67 43q17 50 17 214q0 62 -7 91q-9 37 -31 65q-9 11 -39 11zM87 554q20 0 25 -4 q3 -5 7 -15.5t6.5 -18.5t3.5 -8l12 10q12 10 33 20t42 10q33 0 61 -13t38 -29q13 -21 34 -80q16 -46 16 -109q0 -67 -2 -100q-4 -78 -10 -106q-8 -50 -37 -81q-38 -44 -113 -44q-17 0 -32.5 6.5t-24.5 13t-11 6.5q-6 0 -6 -69l1 -71q0 -5 -6 -28.5t-8 -30.5q-6 -15 -12 -15 q-20 0 -38 10q-7 3 -12.5 11.5t-5.5 12.5q0 2 7 29t7 30q0 9 -1.5 30t-1.5 30q0 8 2.5 61t2.5 59q0 1 -2.5 87t-2.5 142q0 13 4.5 50t4.5 52q0 38 -8 80q-10 43 -10 56q0 4 13 10t24 6z"/>
<glyph glyph-name="q" d="M162 486q-13 0 -20 -7.5t-16 -29.5t-11 -26q-13 -27 -13 -200l-1 -113q0 -21 19 -42t41 -21q28 0 50 13q35 17 48 33q0 10 3 36t3 40q0 37 -7.5 112t-7.5 90q0 12 -1 33t-1 29q0 14 -35 33.5t-51 19.5zM275 580q46 0 51 -7q2 -4 2 -17q0 -23 -3 -53q-5 -102 -5 -125 q0 -30 8.5 -92t8.5 -96q0 -17 -2 -46.5t-2 -39.5q-5 -193 -5 -237q0 -8 2.5 -28t2.5 -23q0 -4 -10.5 -8t-20.5 -4q-17 0 -30 5q-14 20 -14 55q0 24 1.5 70.5t1.5 69.5q-46 -20 -72 -24q-20 -2 -31 -2q-46 0 -87 41.5t-41 86.5q0 11 1 62t1 60q0 44 4.5 124.5t13.5 96.5 q1 2 14.5 39t30.5 49q27 19 56 19q25 0 57 -8q6 -2 16.5 -7t18.5 -9.5t10 -4.5q1 0 8 26.5t14 26.5z" unicode="q"/>
<glyph glyph-name="r" horiz-adv-x="274" unicode="r" d="M101 572q5 0 8 -0.5t5 -1t3.5 -2.5t2 -3t1.5 -5.5t2 -6.5q13 -39 13 -45q27 18 51 25q5 1 18 6t24 7.5t19 2.5t13 -14t5 -23q0 -21 -10 -28q-4 -3 -10.5 -5.5t-17 -5.5t-18.5 -6q-16 -5 -41 -25.5t-26 -25.5q0 -3 -1.5 -23.5t-2.5 -29.5q-2 -10 -3 -27t-2 -23 q-5 -45 -5 -71q0 -24 -5.5 -73t-5.5 -64q0 -6 0.5 -20t0.5 -21v-29q0 -33 -2 -35q-5 -6 -47 -6q-12 0 -15.5 5t-3.5 22q0 13 -1.5 39.5t-1.5 39.5q0 25 5 75.5t6 71.5q1 23 5 64q0 8 5 53q2 18 2 93q0 2 -4 18.5t-8 38t-4 37.5q0 9 26 16z"/>
<glyph glyph-name="s" horiz-adv-x="332" unicode="s" d="M188 563q29 0 57.5 -18t46.5 -47q10 -17 10 -26q0 -5 -1 -7.5t-2.5 -3.5t-5 -2t-5.5 -2q-3 -1 -10.5 -5.5t-14 -7.5t-10.5 -3q-12 0 -19 16q-7 15 -19.5 26t-27.5 11q-22 0 -51 -13.5t-29 -35.5q0 -14 7 -40q6 -19 15 -35t15.5 -24t21.5 -24q1 -1 26 -22t46 -46.5 t33 -54.5q17 -40 17 -75q-2 -31 -11 -52q-15 -35 -42.5 -61.5t-52.5 -26.5t-60 6.5t-50 17.5q-14 12 -31 44q-26 45 -29 68q7 21 26 26q16 5 22 5q12 0 26 -33q12 -36 36 -56q22 -9 50 -9q14 0 30 26t16 44q0 20 -15 60q-4 10 -15.5 23.5t-21.5 22.5t-24.5 21t-16.5 13 q-24 20 -48.5 59t-32.5 73t-8 51q0 29 27 61.5t52 42.5q31 13 73 13z"/>
<glyph glyph-name="t" horiz-adv-x="263" unicode="t" d="M205 70q7 0 21 -13.5t14 -23.5q0 -16 -21 -29q-27 -18 -81 -18q-12 0 -29.5 19.5t-22.5 40.5q-11 46 -11 103q0 13 6 49t6 54q0 20 -5 95t-5 105l2 34q-20 -2 -23 -2q-33 0 -40 4q-6 4 -6 39q0 12 6 18q9 9 48 9h15q-4 45 -5 65q0 8 2 29.5t2 34.5q0 5 -0.5 11.5t-1 10 t-0.5 4.5q5 8 47 8q25 0 25 -37q0 -7 -1.5 -24.5t-1.5 -26.5q0 -4 3 -70q7 1 27 3.5t30 3.5q34 0 34 -12q0 -11 -6.5 -33t-11.5 -23q-28 -4 -37 -4q-10 0 -36 -2l-1 -36q0 -34 5.5 -108.5t5.5 -88.5q0 -38 -6.5 -73t-6.5 -38q0 -27 3 -49.5t7 -32.5t6 -10q13 0 25.5 7 t18.5 7z"/>
<glyph glyph-name="u" d="M303 549q26 0 31 -8q9 -13 9 -34q-4 -62 -7 -75q-6 -34 -6 -83q0 -20 2 -68.5t2 -67.5q0 -92 -16 -138q-10 -29 -36 -50q-41 -35 -128 -35q-42 3 -66.5 36.5t-29.5 65.5q-8 48 -10 129q0 10 -2.5 36t-2.5 40q0 10 3.5 31.5t3.5 33.5q0 32 -4 87.5t-4 56.5q0 16 5 31 q3 10 34 10q7 0 18.5 -4t12.5 -8q1 -2 1 -19v-26q0 -1 3.5 -45t3.5 -85q0 -10 -3 -34t-3 -33q0 -11 2 -31t2 -26q0 -18 3.5 -56t3.5 -48q0 -16 7.5 -44.5t18.5 -28.5q66 0 88 21q25 24 25 143q0 16 -2 63.5t-2 61.5q0 42 3 75q8 67 8 73q0 7 -2.5 21t-2.5 21q0 3 14 7t23 4z " unicode="u"/>
<glyph glyph-name="v" horiz-adv-x="361" unicode="v" d="M67 546q15 0 22 -10q4 -11 11 -53q1 -8 10 -41.5t12 -51.5q8 -30 8 -50q0 -28 11 -96q5 -28 14 -66.5t9 -39.5q1 -5 3.5 -23t4.5 -32t3 -14q11 0 12 3q18 57 36 201q2 18 32 174q0 3 2 9t3 11l2 5q9 30 12 55q1 13 7 16q6 2 16 2q11 0 26.5 -9t15.5 -16q0 -15 -4.5 -40 t-11.5 -56t-9 -45q-8 -56 -24 -128q-3 -15 -15.5 -88.5t-17.5 -90.5l-6 -14q-6 -13 -6 -20q0 -17 -10 -34q-2 -3 -25 -6.5t-38 -3.5q-40 0 -47 8q-10 12 -18 58q-9 59 -22 111t-14 61q-2 12 -4.5 44.5t-5.5 48.5q-4 22 -10 52t-12.5 58.5t-7.5 31.5q-9 43 -9 66q0 13 45 13z "/>
<glyph glyph-name="w" horiz-adv-x="603" unicode="w" d="M60 542q20 0 27 -5q5 -3 13 -38t9 -49q0 -9 16 -69q3 -12 9.5 -44t10.5 -50q5 -23 7 -77.5t8 -81.5l10 -43q0 -2 6 -2q1 0 3.5 17.5t5 37.5t3.5 23q22 91 31 164q2 12 22 69.5t27 64.5q11 11 48 11q36 0 45 -11q1 -2 7.5 -49t14.5 -70q7 -19 11.5 -40.5t9.5 -54.5t8 -48 q2 -8 4 -34t4 -46t4 -20q1 0 7.5 33.5t14 71.5t10.5 45q5 13 18 76.5t13 77.5q0 19 12 73t17 56q18 9 54 9q10 0 10 -14q0 -23 -7 -49q-1 -5 -7.5 -32.5t-8.5 -43.5q-15 -131 -35 -174q-6 -12 -17 -76t-18 -90q-1 -4 -4.5 -14.5t-5.5 -19t-2 -12.5q0 -12 -7 -20t-18 -8 q-62 0 -65 7q-10 15 -19 48q-4 14 -14.5 75t-11.5 81q-4 52 -19 106q-2 7 -6 23.5t-7 26.5t-4 10q-5 0 -21 -68q-2 -8 -28 -158q-19 -111 -24 -125q-2 -6 -20 -12t-43 -6q-13 0 -28.5 5.5t-20.5 13.5q-4 7 -14.5 48.5t-11.5 46.5q-9 28 -11 87.5t-6 73.5q-29 121 -29 122 q-7 28 -7 42q0 8 -8.5 45t-8.5 44q0 5 11.5 12.5t25.5 7.5z"/>
<glyph glyph-name="x" horiz-adv-x="339" unicode="x" d="M274 540q11 0 24.5 -6.5t13.5 -10.5q0 -29 -9 -47q-40 -76 -45 -86q-51 -91 -51 -98q0 -2 5 -13t13 -28.5t13 -29.5q15 -35 30 -86q15 -54 20 -63l29 -58q0 -4 -22 -11t-33 -7q-9 0 -21.5 17t-17.5 29t-17 47q-3 9 -11 40q-23 79 -28 79q-2 0 -10 -15t-11 -24 q-1 -2 -3 -12t-5.5 -21t-6.5 -17t-8 -20t-10 -28.5t-6 -16.5q-17 -52 -24 -55q-9 -4 -42 -4q-6 0 -12.5 4t-6.5 10q0 14 19 71q17 49 23 60q7 14 23 73q2 6 10 19t11 20q1 2 6 13t8.5 20t3.5 12t-2 6.5t-4.5 8.5l-3.5 7q-32 51 -54 108q-3 8 -8.5 25t-10 30t-5.5 16 q-1 2 -5 9.5t-7.5 14t-3.5 9.5q0 9 48 9q22 0 35 -22q2 -3 9.5 -29t13.5 -38q3 -7 12.5 -28.5t16 -36.5t8.5 -15t8.5 11t13.5 25.5t9 17.5l32 59q11 25 11 30q0 11 4 18q5 8 31 8z"/>
<glyph glyph-name="y" horiz-adv-x="401" unicode="y" d="M312 541q28 0 34 -8q5 -7 5 -13t1 -22t1 -23q0 -5 -3 -43t-3 -44q0 -17 2.5 -62t2.5 -71q0 -29 -2 -75q0 -11 -1.5 -22t-3 -18t-1.5 -8q0 -7 2 -47t2 -42q0 -7 -8 -68q-12 -87 -24 -111q-11 -22 -44 -46t-67 -24q-10 0 -17 20q-7 21 -7 32q0 9 17 15q13 4 30.5 15 t21.5 19t13 49t9 51l-1 2q-1 0 -16.5 -5.5t-36.5 -10.5t-34 -5q-31 0 -66 20t-47 46q-2 5 -9.5 19.5t-9.5 21t-4.5 23.5t-2.5 40q0 26 4 98t4 79q0 69 -7 167q0 5 -1 14.5t-2 17t-1 9.5q0 9 17 9q33 0 42 -6q3 -2 8 -15.5t6 -23.5q3 -30 3 -59q0 -15 3 -54.5t3 -54.5 t-4.5 -101t-4.5 -99q0 -18 23.5 -50t44.5 -32q12 0 40.5 10t34.5 19q11 17 13 39q0 9 8 62q2 16 2 48t-3 91t-3 62q0 6 4 45t4 56q0 4 -0.5 16.5t-0.5 18.5q0 18 3 20q15 9 27 9z"/>
<glyph glyph-name="z" horiz-adv-x="325" unicode="z" d="M165 537q6 0 26 -3t33 -3q17 0 47 -5t30 -12q0 -2 2 -13t2 -15q0 -17 -8 -39q-1 -2 -16 -64t-22 -76q-16 -31 -57.5 -85t-54.5 -77q-7 -12 -16 -31t-14.5 -32t-5.5 -14q0 -2 4.5 -4t8.5 -2q5 0 26.5 2t25.5 2t25 2t24 2q2 0 21 0.5t28 0.5q6 0 12 -18t6 -31q0 -8 -16 -16 q-8 -3 -46 -6q-8 0 -24 -1.5t-25 -1.5q-22 0 -65 -5q-17 -2 -40 -2q-38 0 -47 7q-13 10 -13 37q0 8 24 50q29 52 45 91q9 22 51 73.5t48 66.5q4 10 14.5 51t13.5 47q12 30 12 43q0 4 -22.5 7t-40.5 3q-11 0 -44 -1.5t-38 -1.5q-14 0 -32 7.5t-18 14.5q0 36 4 46q2 6 10 6 q1 0 19.5 -2.5t24.5 -2.5q5 0 38 2.5t40 2.5z"/>
<glyph glyph-name="braceleft" horiz-adv-x="283" unicode="{" d="M232 788q6 0 11 -12t5 -30q0 -22 -12 -23q-62 -8 -66 -13q-10 -12 -10 -56q0 -4 5 -51t5 -75q0 -34 -11 -107q-2 -13 -6.5 -25.5t-8 -19.5t-3.5 -8t4.5 -7t10 -16t8.5 -20q19 -71 19 -131q0 -16 -3.5 -58t-3.5 -51l1 -105q0 -33 24 -72q3 -5 26 -10.5t23 -10.5 q0 -39 -9 -46q-6 -5 -34 -5q-20 0 -42 11q-15 7 -26.5 23.5t-14.5 31.5q-1 6 -6 20.5t-8.5 28.5t-3.5 25v76v31l3 49q3 48 3 62q0 19 -5.5 59.5t-10.5 57.5q-3 11 -24.5 27.5t-21.5 22.5t5.5 11.5t13 10.5t8.5 7q2 2 13 39q10 49 10 98q0 25 -3 69.5t-3 58.5q0 80 14 104 t124 29z"/>
<glyph glyph-name="bar" horiz-adv-x="227" unicode="|" d="M118 783q18 0 32 -7q4 -2 6 -38q0 -16 -2.5 -42t-2.5 -41q0 -4 1.5 -19.5t1.5 -23.5q0 -20 -7 -104t-7 -117q0 -13 2 -40t2 -41q0 -2 -2 -77t-2 -102q0 -25 4 -77.5t4 -62.5q0 -13 4.5 -67.5t4.5 -63.5q0 -11 -31 -16q-15 -3 -27 -3q-14 0 -14 14q0 3 -3.5 58.5 t-3.5 69.5q0 6 -4 59.5t-4 94.5q0 21 2.5 85t2.5 92q0 12 -2 43t-2 43q0 23 7 106.5t7 107.5q0 6 -2 21t-2 18q0 17 1 51t1 38q0 30 4 33q11 8 31 8z"/>
<glyph glyph-name="braceright" horiz-adv-x="281" unicode="}" d="M101 778q37 0 51 -7q19 -11 21 -14q8 -13 8 -48q0 -21 0.5 -58t0.5 -60q0 -10 2.5 -34t2.5 -34v-31q0 -34 4 -50q8 -27 13 -33q1 -2 4.5 -4.5t8.5 -6t9 -6.5q5 -10 5 -18q0 -16 -3 -19l-10 -8q-11 -8 -21 -17.5t-12 -15.5q-8 -23 -8 -53q0 -22 1.5 -68t1.5 -69 q0 -12 -5 -46.5t-5 -42.5q0 -9 -1 -47t-1 -47q0 -5 -0.5 -15t-0.5 -15q0 -14 -12.5 -31t-28.5 -24q-19 -9 -51 -17q-12 -3 -31 -3q-6 0 -6 6q0 44 3 54q1 3 9 6t20 7t17 7q9 11 9 26q0 50 2 72q2 12 12 112q2 15 2 45q0 22 -2 56t-2 43q0 32 9 68q3 10 8.5 20t10 16t4.5 7 t-3.5 7.5t-8 19t-6.5 26.5q-5 41 -5 90q0 10 -3 35t-3 36v113q0 3 -30 3h-28h-8q-5 1 -8.5 18.5t-3.5 28.5q0 18 16 18q2 0 20.5 1t31.5 1z"/>
<glyph glyph-name="asciitilde" horiz-adv-x="446" unicode="~" d="M141 451q34 0 62 -19q21 -14 58 -49q25 -23 53 -23q17 0 26 26q5 25 5 39q0 5 10.5 9.5t20.5 4.5q26 0 33 -5.5t7 -22.5q0 -43 -25 -79q-31 -42 -74 -42q-31 0 -50 8q-37 16 -72 51q-34 32 -52 32q-16 0 -29 -8q-6 -2 -9 -11q-2 -5 -3 -16.5t-4 -17.5q-4 -9 -40 -9 q-28 0 -28 13q0 17 6 45t20 41q33 33 85 33z"/>
<glyph glyph-name="exclamdown" horiz-adv-x="225" unicode="" d="M104 -163q-23 0 -23 18q0 7 1 32l2 50q0 13 4.5 40.5t4.5 42.5q0 9 -0.5 26.5t-0.5 25.5t-0.5 22t-0.5 22q0 48 4 87q2 26 2 79q0 15 -3 39.5t-6 43.5t-3 21q0 10 14.5 16t31.5 6q15 0 19.5 -3.5t4.5 -11.5q0 -2 1 -9t2 -16t1 -13q1 -6 4.5 -28.5t3.5 -35.5 q0 -25 -2.5 -70.5t-2.5 -63.5q0 -6 -0.5 -18.5t-0.5 -17.5q0 -17 1 -50t1 -52q0 -30 -6 -64q-2 -16 -2 -50q0 -7 -2 -21t-2 -19q0 -16 -8 -21q-11 -7 -39 -7zM111 462q-34 0 -41 10q-12 18 -12 39q0 13 7.5 25.5t19.5 12.5q2 0 8 0.5t9 0.5q17 0 28 -7q12 -9 12 -37 q0 -17 -8 -30.5t-23 -13.5z"/>
<glyph glyph-name="cent" horiz-adv-x="341" unicode="" d="M300 154q21 -4 21 -17q0 -8 -4.5 -31t-8.5 -32q-6 -14 -24.5 -36.5t-38.5 -32.5q-19 -9 -30 -12q8 -64 8 -79q0 -19 -56 -19q-14 0 -14 14q0 11 -8 80q-52 9 -76.5 44.5t-28.5 80.5q-3 33 -3 72q0 7 -0.5 20t-0.5 19q0 24 -3 78t-3 59q0 36 17 86t47 80q18 18 51 24 q1 11 3.5 31t2.5 25q0 6 -1.5 17.5t-1.5 16.5q0 13 33 13q18 0 32 -7q8 -4 8 -44q0 -7 -2.5 -24.5t-3.5 -26.5q45 -11 73 -49q28 -40 28 -61q0 -6 -23 -20l-20 -12q-4 0 -12.5 7.5t-12.5 16.5q-26 50 -68 50q-34 0 -45 -24q-33 -64 -33 -100q0 -13 4 -65t4 -78q0 -77 5 -100 q5 -28 18 -43t43 -15q15 0 40 14q21 12 26 23q2 4 10 39q6 22 14 22q18 0 34 -4z"/>
<glyph glyph-name="sterling" horiz-adv-x="388" unicode="" d="M193 641q-24 -8 -36.5 -29t-12.5 -47q0 -17 6 -51q2 -9 22 -77l45 2q5 0 28.5 -2t32.5 -2q20 0 25 -4t5 -20q0 -28 -9 -37q-6 -4 -27 -4q-12 0 -30.5 1.5t-26.5 1.5l-24 -1l3 -12q17 -64 17 -102q0 -5 -5 -29.5t-5 -31.5q-4 -49 -13 -78q-8 -27 -8 -29t23 -12 q59 -25 66 -25q6 0 22 13q15 13 20 13q7 0 25 -10t18 -22q0 -20 -26 -40q-30 -23 -59 -23q-23 0 -78 25q-29 13 -35 13h-13q-15 0 -27 -7q-2 -1 -9.5 -8t-14.5 -13t-10 -6q-11 0 -24 11q-18 16 -18 32q0 9 17 26q35 27 54 61q17 38 22 86q0 4 3.5 21t3.5 21q0 32 -2 47 q0 4 -20 76l-34 -1q-26 0 -30 3t-8.5 12.5t-4.5 17.5q0 29 27 29q4 0 9 0.5t12 1.5t11 1q-26 89 -26 118q0 54 27 101t78 57q39 7 67 7q25 0 44 -8q22 -10 44 -29q9 -8 19 -23t10 -22q0 -15 -4 -19q-3 -3 -16 -8.5t-18 -5.5q-16 0 -20 4q-3 3 -9.5 11t-9.5 11q-21 20 -56 20 q-19 0 -37 -6z"/>
<glyph glyph-name="yen" horiz-adv-x="453" unicode="" d="M395 225q9 -9 9 -30q0 -29 -18 -29q-3 0 -39 -4q-45 -5 -48 -5h-34q0 -4 1.5 -15t1.5 -14q0 -17 -1 -51t-1 -38q0 -30 -4 -33q-11 -8 -31 -8q-18 0 -32 7q-4 2 -6 38q0 15 2.5 41t2.5 42q0 8 -2 30l-35 -2q-2 0 -19 0.5t-30 0.5q-14 0 -17.5 4t-3.5 19q0 27 7 37 q4 4 18 4q9 0 23.5 -1.5t15.5 -1.5q9 0 41 4l2 26q1 7 3 23t3 25h-5q-14 0 -47.5 -3.5t-34.5 -3.5q-17 0 -20 3q-9 9 -9 30q0 29 18 29q3 0 39 4q45 5 48 5h11q-8 15 -38 59.5t-37 57.5q-28 47 -62 132q-12 34 -28 54q-9 13 -9 38q0 6 12 10t26 4q28 0 31 -18q1 -5 9 -20.5 t18.5 -35t14.5 -29.5q20 -50 37 -84q8 -17 21.5 -38t23.5 -34.5t12 -13.5t5 8.5t6.5 21.5t6.5 19t11 34.5t17 50.5q29 67 44 124q4 16 38 16q30 0 30 -12q0 -23 -12 -64q-5 -20 -37 -96q-13 -34 -31 -96q-7 -23 -32 -88q8 0 20 1t20 1.5t10 0.5t19 -0.5t30 -0.5 q14 0 17.5 -4t3.5 -19q0 -27 -7 -37q-4 -4 -18 -4q-9 0 -23.5 1.5t-15.5 1.5q-6 0 -29.5 -3t-31.5 -3l-1 -29q-1 -16 -5 -43h23q13 0 47 3.5t35 3.5q17 0 20 -3z"/>
<glyph glyph-name="brokenbar" horiz-adv-x="226" unicode="" d="M101 295q11 0 28.5 -3.5t21.5 -6.5q5 -4 5 -25q0 -8 -2.5 -22.5t-2.5 -20.5q0 -12 -1 -47t-1 -49q0 -18 -2.5 -52.5t-2.5 -44.5q0 -6 2 -21t2 -18q0 -17 -1 -51t-1 -38q0 -42 -4 -45q-11 -8 -31 -8q-18 0 -32 7q-3 1 -6 50q0 16 2.5 42t2.5 41q0 4 -1.5 19.5t-1.5 23.5 q0 5 1.5 35t1.5 42q0 11 1 47.5t1 73.5q0 18 5.5 44.5t15.5 26.5zM128 781q14 0 14 -14q0 -3 4 -51.5t5 -66.5q5 -177 5 -227q0 -47 -14 -47q-38 0 -48 4q-8 3 -8 20q0 9 0.5 29t0.5 30q0 22 -3 89.5t-3 93.5q0 20 -5.5 59.5t-5.5 61.5q0 11 31 16q15 3 27 3z"/>
<glyph glyph-name="section" horiz-adv-x="433" unicode="" d="M203 419q-2 0 -14.5 -9t-26 -20t-15.5 -12q-24 -18 -30.5 -38.5t-6.5 -62.5q0 -9 12 -31q23 -36 57 -51q5 -2 27 -7.5t27 -7.5l13 -6.5t16.5 -8.5t9.5 -4q8 0 29 36q22 31 22 47q0 21 -4 49q-9 60 -46 90q-13 11 -39 23.5t-31 12.5zM224 721q35 0 74 -17q27 -10 46 -35 q5 -8 5 -14q0 -5 -22 -27q-14 -10 -21 -10q-4 0 -27 18q-20 15 -60 15q-41 0 -52 -22q-4 -8 -9 -31.5t-5 -37.5q0 -40 53 -66q7 -3 35 -16t46.5 -23.5t33.5 -22.5q45 -36 63 -101q9 -38 9 -62q0 -39 -6 -63t-29 -54q-4 -5 -12.5 -14t-14 -15t-5.5 -9t4 -11t10 -19.5t9 -17.5 q9 -22 9 -54q0 -47 -6 -71t-29.5 -45t-53.5 -34q-33 -14 -59 -14q-31 0 -68 21q-46 29 -46 40q0 10 2 14q4 8 13.5 18t15.5 10q18 0 43 -15q30 -18 35 -18q42 0 67 25q15 14 17 41q0 34 -6 56q-5 15 -26 40q-33 33 -49 39q-4 2 -25 6.5t-29 6.5q-16 4 -49.5 31.5t-48.5 53.5 q-16 34 -16 57q0 54 6 77q10 37 40 66q6 6 17 15t18.5 15.5t7.5 8.5q0 3 -17 20q-17 18 -25 55q-4 21 -4 49q0 36 24 89q9 20 47.5 36t69.5 16z"/>
<glyph glyph-name="dieresis" horiz-adv-x="287" unicode="" d="M218 709q30 0 36 -9q8 -12 8 -39q0 -15 -6.5 -27.5t-18.5 -12.5q-24 0 -38 8q-12 9 -12 37q0 17 8 30t23 13zM69 712q10 0 21 -7q12 -9 12 -37q0 -17 -8 -30.5t-23 -13.5q-27 0 -34 10q-12 18 -12 39q0 13 7.5 25.5t19.5 12.5q2 0 8 0.5t9 0.5z"/>
<glyph glyph-name="copyright" horiz-adv-x="651" unicode="" d="M325 587q13 0 37 -4q29 -6 48 -28q11 -11 23.5 -30t12.5 -29q0 -8 -30 -23q-4 -2 -20 -2q-3 0 -5.5 1t-4 2t-4 4t-3.5 5t-3.5 6.5t-3.5 6.5q-14 25 -43 25q-18 0 -33 -6q-27 -11 -37 -49q-3 -12 -3 -23q0 -3 0.5 -11t0.5 -13q0 -10 -3.5 -60.5t-3.5 -70.5q0 -31 17 -70 q7 -17 30 -28q22 -9 38 -9q28 0 45 29l17 25q8 10 14 10q15 0 33 -18q9 -9 9 -14t-7 -22q-6 -16 -34.5 -41.5t-40.5 -30.5q-17 -7 -37 -7q-31 0 -68 16q-41 17 -60 56q-26 51 -26 123q0 7 3.5 52t3.5 57q0 5 -0.5 13.5t-0.5 13.5q0 13 4 32q14 68 65 95q31 17 70 17z M334 661q-62 0 -118 -29q-46 -31 -77 -106q-26 -76 -26 -161q0 -74 19 -167q4 -20 17 -48t25 -43q31 -35 69.5 -47t95.5 -12q20 0 65 15q44 15 60 29q21 19 35 50.5t17 48.5t10 61q11 64 11 104q0 84 -29 152q-26 63 -70.5 108t-103.5 45zM339 729q52 0 100 -29.5t83 -74.5 q39 -55 66 -128q20 -54 20 -143q0 -54 -17 -145q-14 -68 -18 -76q-22 -66 -76 -104q-13 -10 -61 -27q-57 -21 -90 -21q-62 0 -124.5 18t-90.5 54q-49 64 -69 138q-19 77 -19 175q0 109 26 178q35 98 104 141q70 44 166 44z"/>
<glyph glyph-name="ordfeminine" horiz-adv-x="347" unicode="" d="M154 656q-30 0 -34 -16q-10 -48 -10 -95q0 -10 3 -27.5t3 -25.5q4 -49 16 -56q7 -6 19 -6q13 0 34 13t24 19q4 8 4 46v66q0 15 -5 33q-2 9 -11 21q-6 7 -21.5 17.5t-21.5 10.5zM221 742q6 0 29.5 -4t23.5 -7q0 -13 -4 -38t-4 -38q0 -1 1.5 -9.5t3.5 -20t3 -18.5 q3 -25 3 -72q0 -36 -1 -56l-2 -32q0 -4 3.5 -12t8.5 -10q18 -10 23 -18q3 -4 3 -8q0 -10 -14 -24q-10 -12 -17 -12q-5 0 -14 3q-15 5 -26 14q-2 2 -4 3.5t-3.5 3l-3 3l-2.5 2.5h-1q-2 0 -5.5 -2.5t-10.5 -6.5t-15 -7q-23 -9 -48 -9q-30 0 -57 18q-25 15 -38 82q-8 34 -8 67 q0 124 22 148q14 16 39.5 26.5t45.5 10.5q8 0 19.5 -3.5t20.5 -7.5l9 -3q2 0 8 19q6 18 12 18z"/>
<glyph glyph-name="guillemotleft" horiz-adv-x="415" unicode="" d="M327 97q-7 0 -21.5 18.5t-25.5 38.5q-6 12 -42 58q-4 6 -13.5 16.5t-16 18t-7.5 9.5q-1 1 -5.5 7.5t-8.5 13.5t-4 10q0 10 9 21l32 46q4 6 15 19t17 21q4 6 12 22t14 24q17 22 20 25q19 19 28 19q15 0 29 -9q20 -13 20 -18q0 -6 -7 -15q-8 -8 -38 -50q-4 -5 -9 -15.5 t-7 -13.5q-4 -6 -14 -18t-11 -13q-16 -21 -17 -23l-9 -15q0 -7 13 -20l21 -27l21 -27q12 -15 15 -22q3 -6 24 -42q4 -6 11 -16t11 -16.5t4 -10.5q0 -5 -10 -10q-12 -6 -50 -6zM171 97q-15 0 -22 10l-11 17q-2 3 -30 34q-13 14 -27 39q-11 17 -38 66q-15 19 -15 32 q0 6 7.5 20t14.5 22q3 4 11 12.5t15 16.5t11 15q13 24 23 35q14 16 34 43q18 21 35 25q14 2 39 2q4 0 11 -4t7 -8q0 -6 -2 -10.5t-5.5 -8.5t-3.5 -5q-21 -30 -51 -65q-7 -8 -16 -24t-10 -17q-4 -6 -14.5 -17.5t-18.5 -21t-8 -12.5q0 -4 13 -27q13 -20 14 -23q5 -15 18 -30 q2 -4 23 -26t27 -31q23 -36 23 -37q0 -6 -21.5 -14t-32.5 -8z"/>
<glyph glyph-name="logicalnot" horiz-adv-x="571" unicode="" d="M235 409q27 0 83 -7.5t64 -7.5q15 0 46 4t48 4q22 0 32 -5q6 -3 6 -42q0 -14 -1.5 -36t-1.5 -25q0 -11 2.5 -32.5t2.5 -32.5q0 -41 -7 -60q-2 -5 -16.5 -9.5t-24.5 -4.5q-16 0 -21 4t-5 17q0 12 2 35t2 35q0 10 -1.5 26t-1.5 30q0 26 -1 27h-3q-4 0 -24.5 -2t-28.5 -2 q-27 0 -81 6.5t-68 6.5q-40 0 -95 -0.5t-61 -0.5q-5 0 -20 -1.5t-20 -1.5q-4 0 -7.5 11t-3.5 23q0 26 5 30q12 9 41 9h23q62 0 136 2z"/>
<glyph glyph-name="softhyphen" d="M276 357q2 0 17.5 -0.5t28.5 -0.5t16.5 -4t3.5 -19q0 -28 -6 -37q-4 -4 -17 -4q-9 0 -23 1.5t-15 1.5q-7 0 -32.5 -3t-33.5 -3l-66 1q-13 0 -45 -3.5t-33 -3.5q-17 0 -20 3q-8 8 -8 30q0 29 17 29q6 0 38 4q40 5 46 5l63 -1q7 0 36.5 2t32.5 2z" unicode=""/>
<glyph glyph-name="registered" horiz-adv-x="651" unicode="" d="M296 522q-3 -2 -3 -50q0 -7 0.5 -21.5t0.5 -21.5t-0.5 -22t-0.5 -18q0 -2 1.5 -3.5t4.5 -2t6 -0.5t7 0.5t6 0.5h4q23 0 42 9q12 6 20 20.5t8 27.5q0 33 -18 54q-20 21 -47 26q-5 1 -17 1.5t-14 -0.5zM319 585q39 0 76 -25q21 -14 38 -35q26 -34 26 -75q0 -7 -2 -23 q-10 -62 -36 -79q-12 -8 -25.5 -13.5t-20.5 -7.5t-7 -4t26 -44q26 -40 39 -72q16 -41 17 -42q7 -14 7 -23t-5 -13q-3 -2 -20 -6t-24 -4q-6 0 -17.5 16t-16.5 33q-12 40 -36 72l-20 34q-19 34 -21 34q-3 0 -3 -13v-19v-32q0 -14 -2.5 -42t-2.5 -42q0 -17 -6 -27q-4 -6 -19 -6 q-43 0 -43 9q0 20 3 62t3 67t-2 77.5t-2 81.5q0 18 1.5 53t1.5 52v13q0 26 5 33q3 5 39 8q34 2 49 2zM317 661q-85 0 -140 -77q-8 -10 -13.5 -22.5t-11.5 -30t-9 -23.5q-29 -68 -29 -152q0 -40 11 -104q14 -86 30 -118q13 -25 32 -42q16 -14 60 -29q45 -15 65 -15 q43 0 66.5 2t53.5 14t51 36q30 36 41 91q14 69 14 174q0 94 -26 161q-25 65 -79 98q-62 37 -116 37zM312 729q81 0 164 -52q75 -47 106 -133q26 -69 26 -178q0 -125 -14 -182q-20 -76 -68 -138q-50 -65 -221 -65q-33 0 -90 21q-48 17 -61 27q-54 38 -76 104q-4 8 -18 76 q-17 91 -17 145q0 89 20 143q2 5 8 21.5t8.5 24t8.5 22t10.5 23.5t11 20.5t13.5 20.5q32 44 84 72t105 28z"/>
<glyph glyph-name="macron" horiz-adv-x="273" unicode="" d="M153 702q6 0 42 -4q14 -2 33.5 -11.5t19.5 -15.5q0 -25 -11 -33t-13 -8q-3 0 -29 5.5t-39 5.5q-17 0 -61.5 -4.5t-56.5 -4.5q-13 0 -13 40q0 13 36 22q26 6 92 8z"/>
<glyph glyph-name="degree" horiz-adv-x="362" unicode="" d="M171 667q-33 0 -52 -14q-17 -13 -17 -66q0 -55 75 -55q23 0 48 17q31 24 31 52q0 12 -6.5 27t-16.5 21q-34 18 -62 18zM164 723q48 0 94 -24q25 -12 42 -37.5t17 -48.5q0 -58 -30 -88q-29 -30 -49 -40t-65 -10q-79 0 -115 48q-13 19 -13 66q0 85 48 112q34 22 71 22z"/>
<glyph glyph-name="plusminus" horiz-adv-x="428" unicode="" d="M378 114q10 0 10 -51q0 -12 -8 -17q-9 -6 -78 -6q-5 0 -40.5 3.5t-41.5 3.5q-22 0 -45.5 -0.5t-39 -0.5h-18.5q-10 0 -29.5 3t-29.5 3q-16 3 -16 43q0 12 4.5 19.5t8.5 7.5q25 0 57 -3t34 -3q17 0 42 -0.5t34 -0.5q11 0 38 -2.5t41 -2.5q11 0 40.5 2t36.5 2zM56 326 q-16 3 -16 43q0 12 4.5 19.5t8.5 7.5q25 0 57 -3t34 -3h38q-2 16 -2 21q0 11 3 61t3 59q0 12 17 12q12 0 31.5 -7.5t19.5 -16.5q0 -8 -1 -51.5t-1 -56.5q0 -6 2 -24q5 0 14 -1t16.5 -1.5t14.5 -0.5q11 0 40.5 2t36.5 2q10 0 10 -51q0 -12 -8 -17q-9 -6 -78 -6q-13 0 -40 3 v-37v-13q0 -1 -1 -28.5t-3 -48.5t-5 -21q-17 0 -30 4q-1 1 -7.5 3t-10.5 4t-8 5.5t-5 8.5q0 1 -0.5 4.5t-0.5 6.5q0 6 1 31t1 42q0 11 -2 43l-74 -1q-10 0 -29.5 3t-29.5 3z"/>
<glyph glyph-name="twosuperior" horiz-adv-x="302" unicode="" d="M151 720q17 0 40 -11t37 -28q34 -42 34 -96q0 -14 -2 -26t-8 -24l-9.5 -19t-14 -18.5t-14 -15.5t-16.5 -16.5t-15 -14.5q-1 -1 -18 -28q-2 -3 -15.5 -18.5t-21.5 -29.5q-7 -12 -7 -29h26q40 0 91 -14q26 -7 29 -12q5 -10 5 -18q0 -11 -4 -21q-6 -16 -16 -16q-13 0 -47 12 q-23 7 -70 7q-11 0 -37 -7t-27 -7q-4 0 -9.5 4.5t-6.5 7.5q-5 20 -5 26q0 34 12 72q12 32 29 53l33 43q3 4 10.5 15.5t10.5 14.5q21 19 29.5 27t16.5 22t8 29q0 20 -2 27q-13 47 -52 47q-25 0 -35 -12q-2 -2 -5.5 -6.5t-5 -6.5t-4 -4.5t-4 -3.5t-4 -2t-4.5 -1 q-11 0 -24.5 13.5t-13.5 19.5q0 11 17 30t34 26q23 9 55 9z"/>
<glyph glyph-name="threesuperior" horiz-adv-x="288" unicode="" d="M128 715q37 0 63 -11q37 -16 52 -61q7 -20 7 -51q0 -16 -10 -32t-20 -25.5t-10 -10.5t11 -15t21.5 -37t10.5 -44q0 -66 -7 -88q-13 -41 -70 -60q-25 -9 -44 -9q-26 0 -39 7q-31 17 -45 41q-8 14 -8 40q0 6 47 6q5 0 8.5 -2.5t8.5 -10.5l5 -8q7 -11 20 -11q37 0 52 20 q8 10 8 44v26q0 14 -14 42q-8 14 -18 21q-3 2 -23 2q-2 0 -7.5 -0.5t-7 0t-4.5 2.5t-6 7q-7 11 -7 27q0 11 4.5 15.5t23.5 14.5q1 1 20 8.5t28 15t9 17.5q0 47 -30 55q-12 3 -28 3q-21 0 -32 -7q-13 -9 -21 -9q-5 0 -20.5 14.5t-15.5 19.5q0 10 10 18q31 26 78 26z"/>
<glyph glyph-name="acute" horiz-adv-x="175" unicode="" d="M104 777q8 0 14 -3.5t7 -3.5q25 -5 25 -17q0 -13 -12 -33q-22 -33 -28 -45q-2 -4 -10.5 -14.5t-10.5 -19.5q-3 -11 -10 -20.5t-12 -9.5q-3 0 -17 7q-6 3 -15.5 13t-9.5 14q0 8 4 18q4 11 25 47q2 4 15.5 22.5t20.5 31.5q8 13 14 13z"/>
<glyph glyph-name="paragraph" horiz-adv-x="572" unicode="" d="M481 719q3 0 5.5 -3.5t4 -7.5t3.5 -10t3 -7q8 -20 9 -45q0 -6 3 -51q5 -52 5 -64q0 -25 -2.5 -70.5t-2.5 -63.5q0 -6 -0.5 -18.5t-0.5 -17.5q0 -17 1 -50t1 -52q0 -30 -6 -64q-2 -19 -3.5 -53t-2.5 -48q-2 -16 -2 -67v-32q0 -19 3 -46t3 -32q0 -26 -3 -41q-2 -7 -5 -10 q-5 -5 -27 -5q-31 0 -34 9q-2 7 -2 52q0 3 -2.5 27t-2.5 37q0 23 2.5 77.5t2.5 76.5q0 13 4.5 59t4.5 61q0 8 -0.5 26t-0.5 26t-0.5 22t-0.5 22q0 48 4 87q2 26 2 79q0 42 -9 103q-4 17 -9 18h-2q-1 0 -12.5 -2t-23.5 -2q-4 0 -15 0.5t-15 0.5q-8 0 -9 -1q-5 -5 -5 -52 q0 -4 1.5 -19.5t1.5 -23.5q0 -44 -3 -77q-11 -110 -11 -141q0 -14 2 -32t2 -32q0 -2 -1 -52.5t-1 -77.5q0 -22 3 -71.5t3 -75.5q0 -20 5.5 -54.5t5.5 -56.5q0 -11 -31 -16q-15 -3 -27 -3q-14 0 -14 14q0 3 -4 46.5t-5 61.5q-1 20 -3.5 70.5t-2.5 90.5q0 22 1.5 61t1.5 67 q0 36 -6 44q-3 4 -51 4q-20 0 -57 4.5t-46 7.5q-10 3 -23.5 15t-19.5 25q-15 31 -15 102q0 61 9.5 126.5t28.5 76.5q40 22 114 31q63 9 116 9q15 0 37.5 -1t39.5 -1q8 0 43.5 5t42.5 5z"/>
<glyph glyph-name="periodcentered" horiz-adv-x="166" unicode="" d="M88 349q22 0 29 -15q9 -20 9 -34q0 -25 -8.5 -36t-31.5 -11q-25 0 -35.5 8.5t-10.5 35.5q0 38 22 47q13 5 26 5z"/>
<glyph glyph-name="cedilla" horiz-adv-x="235" unicode="" d="M148 -1q14 0 14 -5q0 -8 -10 -31t-10 -26q0 -2 11 -6.5t24.5 -11t17.5 -12.5q15 -25 15 -41q0 -29 -25 -52q-25 -24 -81 -24q-16 0 -47.5 16.5t-31.5 31.5q0 6 15.5 17.5t20.5 11.5q2 0 20 -10.5t29 -11.5q12 0 25.5 4.5t13.5 11.5q0 21 -36 29q-38 9 -38 22t9.5 38 t15.5 34q9 14 17 14q3 0 14 0.5t17 0.5z"/>
<glyph glyph-name="onesuperior" horiz-adv-x="281" unicode="" d="M161 716q33 0 33 -11q3 -12 3 -31v-5q-6 -82 -6 -121q0 -8 -4.5 -56.5t-4.5 -61.5q0 -8 -0.5 -22t-0.5 -21q0 -14 1 -21q3 -33 4 -34q2 -1 23 -1q14 0 18 -6.5t4 -28.5q0 -19 -7 -24q-4 -3 -35 -3h-55q-18 0 -28 2l-10 1q-11 2 -19.5 4.5t-8.5 6.5q0 43 6 53q0 1 4 1 q5 0 17.5 -2t13.5 -2q3 0 5.5 2.5t2.5 3.5q1 2 1 12.5t-1 17.5q-1 9 -1 30q0 30 4 76l4 49l3 51q2 20 2 36q0 10 -2 10t-6.5 -3l-12 -8t-13.5 -8q-20 -11 -29 -11q-7 0 -16.5 17.5t-9.5 27.5q0 9 32 26q26 14 37 24q36 30 52 30z"/>
<glyph glyph-name="ordmasculine" horiz-adv-x="335" unicode="" d="M159 663q-12 0 -23.5 -9.5t-15.5 -21.5q-11 -33 -11 -131q0 -43 21 -65q9 -10 30 -10q28 0 39 10q21 20 25 62q3 21 3 43q0 23 -12 65q-6 23 -22 46q-8 11 -34 11zM162 724q40 0 65 -19q28 -20 38 -46q25 -63 25 -113q0 -27 -5 -62.5t-10 -46.5q-32 -72 -124 -72 q-37 0 -72 35q-34 33 -34 113q0 45 3 77q4 41 12 64q11 32 39.5 51t62.5 19z"/>
<glyph glyph-name="guillemotright" horiz-adv-x="426" unicode="" d="M255 481q15 0 22 -10l11 -17q2 -3 30 -34q13 -14 27 -39q11 -17 38 -66q15 -19 15 -32q0 -6 -7.5 -20t-14.5 -22q-3 -4 -11 -12.5t-15 -16.5t-11 -15q-13 -24 -23 -35q-14 -16 -34 -43q-18 -21 -35 -25q-14 -2 -39 -2q-4 0 -11 4t-7 8q0 6 2 10.5t5.5 8.5t3.5 5 q21 30 51 65q7 8 16 24t10 17q4 6 14.5 17.5t18.5 21t8 12.5q0 4 -13 27q-12 20 -14 23q-5 15 -18 30q-2 4 -23 26t-27 31q-23 36 -23 37q0 6 21.5 14t32.5 8zM88 481q7 0 21.5 -18.5t25.5 -38.5q6 -13 42 -58q4 -6 13.5 -16.5t16 -18t7.5 -9.5q1 -1 5.5 -7.5t8.5 -13.5 t4 -10q0 -10 -9 -21l-32 -46q-4 -6 -15 -19t-17 -21q-4 -6 -12 -22t-14 -24q-17 -23 -20 -25q-19 -19 -28 -19q-15 0 -29 9q-20 13 -20 18q0 6 7 15q8 8 38 50q4 5 9 15.5t7 13.5q4 6 14 18t11 13q16 21 17 23l9 15q0 7 -13 20q-4 4 -7.5 8.5t-7.5 10t-6 8.5l-21 27 q-12 15 -15 22q-3 6 -24 42q-4 6 -11 16t-11 16.5t-4 10.5q0 5 10 10q12 6 50 6z"/>
<glyph glyph-name="onequarter" horiz-adv-x="739" unicode="" d="M592 434q14 0 14 -41q0 -13 -14 -45t-28 -53q-9 -15 -11 -19q-3 -7 -10.5 -20t-10.5 -19q-9 -18 -18 -43q-11 -27 -11 -28t4 -1t17 1.5t19 1.5l31 1q2 0 2 16q0 7 -0.5 18.5t-0.5 13.5v30q0 2 17 12t21 10q18 0 20 -12q2 -10 4 -30q2 -16 2 -19q0 -4 -0.5 -10t-0.5 -9 q0 -18 2 -19q4 -2 21 -2q21 0 25 -9q3 -6 3 -35q0 -9 -5 -16q-3 -4 -19 -4q-2 0 -6.5 0.5t-5.5 0.5h-12q-1 -1 -1 -14q0 -11 1 -34t1 -34q0 -28 -4 -32q-5 -5 -23 -5q-20 0 -30 2q-6 1 -8 55q-1 15 -1 47q0 11 -3 14q-2 2 -22 2q-3 0 -33 -2t-42 -2h-6q-45 2 -45 10 t4.5 31.5t8.5 32.5l18 45q20 53 38 82q9 12 22 38q15 23 19 36q2 6 3 15t1.5 17t0.5 10q1 4 23 9.5t29 5.5zM171 716q33 0 33 -11q3 -12 3 -31v-5q-6 -82 -6 -121q0 -8 -4.5 -56.5t-4.5 -61.5q0 -8 -0.5 -22t-0.5 -21q0 -14 1 -21q3 -33 4 -34q2 -1 23 -1q14 0 18 -6.5 t4 -28.5q0 -19 -7 -24q-4 -3 -35 -3h-55q-18 0 -28 2l-10 1q-11 2 -19.5 4.5t-8.5 6.5q0 43 6 53q0 1 4 1q5 0 17.5 -2t13.5 -2q3 0 5.5 2.5t2.5 3.5q1 2 1 12.5t-1 17.5q-1 9 -1 30q0 30 4 76l4 49l3 51q2 20 2 36q0 10 -2 10t-6.5 -3l-12 -8t-13.5 -8q-20 -11 -29 -11 q-7 0 -16.5 17.5t-9.5 27.5q0 9 32 26q26 14 37 24q36 30 52 30zM509 735q2 0 4 -2t5 -5.5t5 -5.5q18 -15 18 -23q0 -9 -7 -22q-30 -55 -32 -59q-5 -11 -12.5 -32.5t-8.5 -25.5q-5 -16 -18.5 -46.5t-19.5 -46.5q-29 -69 -51 -141q-4 -14 -15 -40t-13 -35q-2 -6 -7.5 -36 t-10.5 -45l-10 -40q-16 -75 -24 -98q-12 -32 -16 -36q-11 -11 -17 -11q-19 0 -32 5q-16 6 -16 9q0 8 21 79q6 14 16 66q5 15 33 143q2 10 13 35t14 34q46 129 48 134q2 4 11 24.5t13 31.5l19 44q2 6 7.5 23.5t9.5 27.5q14 37 39 71q16 23 34 23z"/>
<glyph glyph-name="onehalf" horiz-adv-x="742" unicode="" d="M571 434q17 0 40 -11t37 -28q34 -42 34 -96q0 -14 -2 -26t-8 -24l-9.5 -19t-14 -18.5t-14 -15.5t-16.5 -16.5t-15 -14.5q-1 -1 -18 -28q-2 -3 -15.5 -18.5t-21.5 -29.5q-7 -12 -7 -29h26q40 0 91 -14q26 -7 29 -12q5 -10 5 -18q0 -11 -4 -21q-6 -16 -16 -16q-13 0 -47 12 q-23 7 -70 7q-11 0 -37 -7t-27 -7q-4 0 -9.5 4.5t-6.5 7.5q-5 20 -5 26q0 34 12 72q12 32 29 53l33 43q3 4 10.5 15.5t10.5 14.5q21 19 29.5 27t16.5 22t8 29q0 20 -2 27q-13 47 -52 47q-25 0 -35 -12q-2 -2 -5.5 -6.5t-5 -6.5t-4 -4.5t-4 -3.5t-4 -2t-4.5 -1 q-11 0 -24.5 13.5t-13.5 19.5q0 11 17 30t34 26q23 9 55 9zM171 716q33 0 33 -11q3 -12 3 -31v-5q-6 -82 -6 -121q0 -8 -4.5 -56.5t-4.5 -61.5q0 -8 -0.5 -22t-0.5 -21q0 -14 1 -21q3 -33 4 -34q2 -1 23 -1q14 0 18 -6.5t4 -28.5q0 -19 -7 -24q-4 -3 -35 -3h-55q-18 0 -28 2 l-10 1q-11 2 -19.5 4.5t-8.5 6.5q0 43 6 53q0 1 4 1q5 0 17.5 -2t13.5 -2q3 0 5.5 2.5t2.5 3.5q1 2 1 12.5t-1 17.5q-1 9 -1 30q0 30 4 76l4 49l3 51q2 20 2 36q0 10 -2 10t-6.5 -3l-12 -8t-13.5 -8q-20 -11 -29 -11q-7 0 -16.5 17.5t-9.5 27.5q0 9 32 26q26 14 37 24 q36 30 52 30zM506 735q2 0 4 -2t5 -5.5t5 -5.5q18 -15 18 -23q0 -9 -7 -22q-30 -55 -32 -59q-5 -11 -12.5 -32.5t-8.5 -25.5q-5 -16 -19 -46.5t-19 -46.5q-28 -69 -51 -141q-4 -14 -15 -40t-13 -35q-2 -6 -7.5 -36t-10.5 -45l-10 -40q-16 -75 -24 -98q-13 -32 -16 -36 q-11 -11 -17 -11q-20 0 -32 5q-16 6 -16 9q0 8 21 79q6 14 16 66q5 15 33 143q2 10 13 35t14 34q46 129 48 134q2 4 11 24.5t13 31.5l19 44q2 6 7.5 23.5t9.5 27.5q14 37 39 71q16 23 34 23z"/>
<glyph glyph-name="threequarters" horiz-adv-x="748" unicode="" d="M601 434q14 0 14 -41q0 -13 -14 -45t-28 -53q-9 -15 -11 -19q-3 -7 -10.5 -20t-10.5 -19q-9 -18 -18 -43q-11 -27 -11 -28t4 -1t17 1.5t19 1.5l31 1q2 0 2 16q0 7 -0.5 18.5t-0.5 13.5v30q0 2 17 12t21 10q18 0 20 -12q2 -10 4 -30q2 -16 2 -19q0 -4 -0.5 -10t-0.5 -9 q0 -18 2 -19q4 -2 21 -2q20 0 25 -9q3 -6 3 -35q0 -9 -5 -16q-3 -4 -19 -4q-2 0 -6.5 0.5t-5.5 0.5h-12q-1 -1 -1 -14q0 -11 1 -34t1 -34q0 -28 -4 -32q-5 -5 -23 -5q-20 0 -30 2q-6 1 -8 55q-1 15 -1 47q0 11 -3 14q-2 2 -22 2q-4 0 -33 -2t-42 -2h-6q-45 2 -45 10 t4.5 31.5t8.5 32.5l18 45q20 53 38 82q9 12 22 38q15 23 19 36q2 6 3 15t1.5 17t0.5 10q1 4 23 9.5t29 5.5zM138 715q37 0 63 -11q37 -16 52 -61q7 -20 7 -51q0 -16 -10 -32t-20 -25.5t-10 -10.5t11 -15t21.5 -37t10.5 -44q0 -66 -7 -88q-13 -41 -70 -60q-25 -9 -44 -9 q-26 0 -39 7q-31 17 -45 41q-8 14 -8 40q0 6 47 6q5 0 8.5 -2.5t8.5 -10.5l5 -8q7 -11 20 -11q37 0 52 20q8 10 8 44v26q0 14 -14 42q-8 14 -18 21q-3 2 -23 2q-2 0 -7.5 -0.5t-7 0t-4.5 2.5t-6 7q-7 11 -7 27q0 11 4.5 15.5t23.5 14.5q1 1 20 8.5t28 15t9 17.5q0 47 -30 55 q-12 3 -28 3q-21 0 -32 -7q-14 -9 -21 -9q-5 0 -20.5 14.5t-15.5 19.5q0 10 10 18q31 26 78 26zM518 735q2 0 4 -2t5 -5.5t5 -5.5q18 -15 18 -23q0 -9 -7 -22q-30 -55 -32 -59q-5 -11 -12.5 -32.5t-8.5 -25.5q-5 -16 -18.5 -46.5t-19.5 -46.5q-28 -69 -51 -141 q-4 -14 -15 -40t-13 -35q-2 -6 -7.5 -36t-10.5 -45l-10 -40q-16 -75 -24 -98q-13 -32 -16 -36q-11 -11 -17 -11q-20 0 -32 5q-16 6 -16 9q0 8 21 79q6 14 16 66q5 15 33 143q2 10 13 35t14 34q46 129 48 134q2 4 11 24.5t13 31.5l19 44q2 6 7.5 23.5t9.5 27.5q14 37 39 71 q16 23 34 23z"/>
<glyph glyph-name="questiondown" horiz-adv-x="312" unicode="" d="M181 -180q-40 2 -71 17q-16 8 -37.5 32.5t-30.5 55.5q-12 41 -12 99q0 51 18 93q11 19 40 52.5t32 39.5q5 9 12 29.5t9 24.5q14 27 14 91q0 9 -0.5 21.5t-0.5 13.5q0 4 12.5 7.5t23.5 3.5t22 -5.5t11 -10.5q0 -1 0.5 -9t1 -19.5t0.5 -20.5q0 -26 -8.5 -60.5t-18.5 -53.5 q-1 -2 -10.5 -24.5t-16.5 -33.5q-5 -8 -23.5 -26t-23.5 -28q-22 -36 -22 -70q0 -86 19 -116q21 -33 57 -33q14 0 52 9.5t44 9.5q10 0 15 -2q10 -4 10 -44q0 -14 -9 -19q-14 -8 -68 -21q-13 -3 -41 -3zM182 460q-4 0 -7 0.5t-5 0.5t-4.5 2t-3 2.5l-4 4l-4.5 4.5 q-14 16 -14 38q0 19 5 31q9 22 46 22q35 0 35 -38q0 -28 -5 -42t-16 -20q-10 -5 -23 -5z"/>
<glyph glyph-name="Agrave" horiz-adv-x="399" unicode="" d="M201 643q-3 0 -6 -3q-1 -5 -3 -24.5t-3 -24.5q0 -2 -8 -40t-16 -80.5t-11 -62.5q-17 -100 -17 -144q0 -3 19 -3q10 0 30 -3t28 -3q42 -3 49 -3h5l2 1q2 1 -6 30q-3 12 -8 58q-6 68 -12 104q-1 11 -6.5 33.5t-7.5 33.5q-1 13 -5.5 37t-5.5 31q-7 52 -14 62q-1 1 -4 1z M206 714q20 0 41 -8q18 -7 38 -100l23 -128q13 -72 16 -100q4 -33 5 -57q0 -3 11 -46q3 -12 7 -33.5t6 -29.5l12 -57q4 -18 9 -53.5t7.5 -62t2.5 -30.5t-16 -8.5t-30 -4.5q-18 0 -20 13q-14 102 -27 154q-4 12 -7 15q-21 6 -84 10q-8 0 -24.5 1t-28 1.5t-16.5 0.5h-4 q-5 -1 -18 -37q-4 -11 -16 -75.5t-12 -72.5q0 -6 -41 -6q-25 0 -25 8v35q0 11 4 30.5t11.5 50t9.5 41.5q2 8 7 21t7 19q8 29 10 57q0 2 2.5 28t6.5 60t10 66q21 116 38 177q3 10 7 31t6 31q13 55 37 55q5 0 17 2t18 2zM138 946q6 0 14 -13q7 -13 20.5 -31.5t15.5 -22.5 q21 -36 25 -47q4 -10 4 -18q0 -4 -9.5 -14t-15.5 -13q-14 -7 -17 -7q-5 0 -12 9.5t-10 20.5q-2 9 -10.5 19.5t-10.5 14.5q-6 12 -28 45q-12 20 -12 33q0 12 25 17q1 0 7 3.5t14 3.5z"/>
<glyph glyph-name="Aacute" horiz-adv-x="399" unicode="" d="M201 643q-3 0 -6 -3q-1 -5 -3 -24.5t-3 -24.5q0 -2 -8 -40t-16 -80.5t-11 -62.5q-17 -100 -17 -144q0 -3 19 -3q10 0 30 -3t28 -3q42 -3 49 -3h5l2 1q2 1 -6 30q-3 12 -8 58q-6 68 -12 104q-1 11 -6.5 33.5t-7.5 33.5q-1 13 -5.5 37t-5.5 31q-7 52 -14 62q-1 1 -4 1z M206 714q20 0 41 -8q18 -7 38 -100l23 -128q13 -72 16 -100q4 -33 5 -57q0 -3 11 -46q3 -12 7 -33.5t6 -29.5l12 -57q4 -18 9 -53.5t7.5 -62t2.5 -30.5t-16 -8.5t-30 -4.5q-18 0 -20 13q-14 102 -27 154q-4 12 -7 15q-21 6 -84 10q-8 0 -24.5 1t-28 1.5t-16.5 0.5h-4 q-5 -1 -18 -37q-4 -11 -16 -75.5t-12 -72.5q0 -6 -41 -6q-25 0 -25 8v35q0 11 4 30.5t11.5 50t9.5 41.5q2 8 7 21t7 19q8 29 10 57q0 2 2.5 28t6.5 60t10 66q21 116 38 177q3 10 7 31t6 31q13 55 37 55q5 0 17 2t18 2zM262 947q8 0 14 -3.5t7 -3.5q25 -5 25 -17 q0 -13 -12 -33q-22 -33 -28 -45q-2 -4 -10.5 -14.5t-10.5 -19.5q-3 -11 -10 -20.5t-12 -9.5q-3 0 -17 7q-6 3 -15.5 13t-9.5 14q0 8 4 18q4 11 25 47q2 4 15.5 22.5t20.5 31.5q8 13 14 13z"/>
<glyph glyph-name="Acircumflex" horiz-adv-x="399" unicode="" d="M201 643q-3 0 -6 -3q-1 -5 -3 -24.5t-3 -24.5q0 -2 -8 -40t-16 -80.5t-11 -62.5q-17 -100 -17 -144q0 -3 19 -3q10 0 30 -3t28 -3q42 -3 49 -3h5l2 1q2 1 -6 30q-3 12 -8 58q-6 68 -12 104q-1 11 -6.5 33.5t-7.5 33.5q-1 13 -5.5 37t-5.5 31q-7 52 -14 62q-1 1 -4 1z M206 714q20 0 41 -8q18 -7 38 -100l23 -128q13 -72 16 -100q4 -33 5 -57q0 -3 11 -46q3 -12 7 -33.5t6 -29.5l12 -57q4 -18 9 -53.5t7.5 -62t2.5 -30.5t-16 -8.5t-30 -4.5q-18 0 -20 13q-14 102 -27 154q-4 12 -7 15q-21 6 -84 10q-8 0 -24.5 1t-28 1.5t-16.5 0.5h-4 q-5 -1 -18 -37q-4 -11 -16 -75.5t-12 -72.5q0 -6 -41 -6q-25 0 -25 8v35q0 11 4 30.5t11.5 50t9.5 41.5q2 8 7 21t7 19q8 29 10 57q0 2 2.5 28t6.5 60t10 66q21 116 38 177q3 10 7 31t6 31q13 55 37 55q5 0 17 2t18 2zM214 935h14q13 0 24 -24q3 -13 16 -33q1 -2 6.5 -12 t9.5 -15q25 -33 25 -53q0 -5 -16 -15.5t-21 -10.5q-18 0 -24 17q-4 9 -17.5 31.5t-15.5 22.5q-5 0 -39 -53q-8 -14 -26 -14q-6 0 -21 15t-15 21q0 1 2.5 3.5t6.5 6t7 7.5q7 8 18 26l12 18l34 44q13 18 20 18z"/>
<glyph glyph-name="Atilde" horiz-adv-x="399" unicode="" d="M201 643q-3 0 -6 -3q-1 -5 -3 -24.5t-3 -24.5q0 -2 -8 -40t-16 -80.5t-11 -62.5q-17 -100 -17 -144q0 -3 19 -3q10 0 30 -3t28 -3q42 -3 49 -3h5l2 1q2 1 -6 30q-3 12 -8 58q-6 68 -12 104q-1 11 -6.5 33.5t-7.5 33.5q-1 13 -5.5 37t-5.5 31q-7 52 -14 62q-1 1 -4 1z M206 714q20 0 41 -8q18 -7 38 -100l23 -128q13 -72 16 -100q4 -33 5 -57q0 -3 11 -46q3 -12 7 -33.5t6 -29.5l12 -57q4 -18 9 -53.5t7.5 -62t2.5 -30.5t-16 -8.5t-30 -4.5q-18 0 -20 13q-14 102 -27 154q-4 12 -7 15q-21 6 -84 10q-8 0 -24.5 1t-28 1.5t-16.5 0.5h-4 q-5 -1 -18 -37q-4 -11 -16 -75.5t-12 -72.5q0 -6 -41 -6q-25 0 -25 8v35q0 11 4 30.5t11.5 50t9.5 41.5q2 8 7 21t7 19q8 29 10 57q0 2 2.5 28t6.5 60t10 66q21 116 38 177q3 10 7 31t6 31q13 55 37 55q5 0 17 2t18 2zM288 900q10 0 23.5 -7t13.5 -12q0 -19 -11 -37 q-17 -27 -29 -36.5t-29 -9.5q-47 0 -68 18q-1 1 -6 5.5t-9 8t-9.5 6.5t-8.5 3q-11 0 -21 -30q0 -1 -0.5 -3t-1 -2t-1.5 -1.5t-3 -1.5t-5 -0.5t-8 -0.5q-20 0 -32 10q-4 3 -4 18q0 20 25 48q19 21 47 21q25 0 54 -24q20 -17 39 -17q12 0 23 33q4 11 21 11z"/>
<glyph glyph-name="Adieresis" horiz-adv-x="399" unicode="" d="M201 643q-3 0 -6 -3q-1 -5 -3 -24.5t-3 -24.5q0 -2 -8 -40t-16 -80.5t-11 -62.5q-17 -100 -17 -144q0 -3 19 -3q10 0 30 -3t28 -3q42 -3 49 -3h5l2 1q2 1 -6 30q-3 12 -8 58q-6 68 -12 104q-1 11 -6.5 33.5t-7.5 33.5q-1 13 -5.5 37t-5.5 31q-7 52 -14 62q-1 1 -4 1z M206 714q20 0 41 -8q18 -7 38 -100l23 -128q13 -72 16 -100q4 -33 5 -57q0 -3 11 -46q3 -12 7 -33.5t6 -29.5l12 -57q4 -18 9 -53.5t7.5 -62t2.5 -30.5t-16 -8.5t-30 -4.5q-18 0 -20 13q-14 102 -27 154q-4 12 -7 15q-21 6 -84 10q-8 0 -24.5 1t-28 1.5t-16.5 0.5h-4 q-5 -1 -18 -37q-4 -11 -16 -75.5t-12 -72.5q0 -6 -41 -6q-25 0 -25 8v35q0 11 4 30.5t11.5 50t9.5 41.5q2 8 7 21t7 19q8 29 10 57q0 2 2.5 28t6.5 60t10 66q21 116 38 177q3 10 7 31t6 31q13 55 37 55q5 0 17 2t18 2zM292 889q30 0 36 -9q8 -12 8 -39q0 -15 -6.5 -27.5 t-18.5 -12.5q-24 0 -38 8q-12 9 -12 37q0 17 8 30t23 13zM143 892q10 0 21 -7q12 -9 12 -37q0 -17 -8 -30.5t-23 -13.5q-27 0 -34 10q-12 18 -12 39q0 13 7.5 25.5t19.5 12.5q2 0 8 0.5t9 0.5z"/>
<glyph glyph-name="Aring" horiz-adv-x="399" unicode="" d="M201 643q-3 0 -6 -3q-1 -5 -3 -24.5t-3 -24.5q0 -2 -8 -40t-16 -80.5t-11 -62.5q-17 -100 -17 -144q0 -3 19 -3q10 0 30 -3t28 -3q42 -3 49 -3h5l2 1q2 1 -6 30q-3 12 -8 58q-6 68 -12 104q-1 11 -6.5 33.5t-7.5 33.5q-1 13 -5.5 37t-5.5 31q-7 52 -14 62q-1 1 -4 1z M206 714q20 0 41 -8q18 -7 38 -100l23 -128q13 -72 16 -100q4 -33 5 -57q0 -3 11 -46q3 -12 7 -33.5t6 -29.5l12 -57q4 -18 9 -53.5t7.5 -62t2.5 -30.5t-16 -8.5t-30 -4.5q-18 0 -20 13q-14 102 -27 154q-4 12 -7 15q-21 6 -84 10q-8 0 -24.5 1t-28 1.5t-16.5 0.5h-4 q-5 -1 -18 -37q-4 -11 -16 -75.5t-12 -72.5q0 -6 -41 -6q-25 0 -25 8v35q0 11 4 30.5t11.5 50t9.5 41.5q2 8 7 21t7 19q8 29 10 57q0 2 2.5 28t6.5 60t10 66q21 116 38 177q3 10 7 31t6 31q13 55 37 55q5 0 17 2t18 2zM209 880q-21 0 -31 -9q-9 -9 -9 -29q0 -11 8.5 -19.5 t22.5 -8.5q46 0 46 29q0 16 -10 26.5t-27 10.5zM204 928q41 0 66.5 -20t25.5 -62q0 -31 -21 -57q-21 -25 -66 -25q-40 0 -66.5 19.5t-26.5 54.5q0 45 24.5 67.5t63.5 22.5z"/>
<glyph glyph-name="AE" horiz-adv-x="582" unicode="" d="M272 622q-1 0 -7 -17.5t-14 -42t-14 -37.5q-4 -9 -14.5 -28t-14.5 -30t-16.5 -41t-17.5 -44q-32 -109 -32 -132q0 -3 12 -3q10 0 31 1.5t24 1.5q8 0 36.5 3t29.5 4q5 5 5 57l-2 63q-1 63 -1 97q0 8 1.5 26t1.5 22q0 23 -1.5 47.5t-3.5 38.5t-3 14zM307 709q37 0 77 -3 q6 -1 23 -3.5t24 -2.5q17 0 39.5 2t23.5 2q4 0 22 -1t20 -1q15 0 15 -32q0 -17 -5 -23.5t-19 -8.5q-57 -9 -69 -9q-14 0 -62 6q-2 0 -13 0.5t-17 0.5q-19 0 -22 -3q-1 -1 -1 -7q0 -7 4 -43q4 -38 4 -61q0 -4 -1.5 -20t-1.5 -23q0 -43 6 -46q3 -1 11 -1q11 0 36 3.5t33 3.5 q12 0 35.5 2t34.5 2q30 0 30 -14q0 -31 -5 -40q-6 -11 -32 -16q-7 -1 -66 -4q-55 -5 -57 -5q-17 0 -17 -5q0 -3 -4 -19.5t-4 -24.5q0 -16 -2.5 -48t-2.5 -38q0 -5 4 -43t4 -57v-28q0 -28 2 -30q3 -4 25 -4q4 0 26.5 3.5t40.5 3.5q8 0 24 1t24 1q42 0 49 -7q14 -14 14 -28 q0 -9 -6 -24.5t-10 -15.5q-9 0 -34.5 2t-33.5 2q-5 0 -52 -5q-24 -3 -72 -3q-55 0 -61 14q-9 20 -9 54q0 7 1.5 32t1.5 35q0 8 -2.5 29.5t-3.5 22.5h-5q-24 0 -60 -4q-79 0 -87 -4t-19 -45q-3 -12 -11.5 -43t-14.5 -53t-6 -26q0 -11 -30 -11q-23 0 -30.5 3.5t-7.5 15.5 q0 27 6 40q3 5 11 38t13 49q8 26 20 74t18 69q30 106 44 144q8 23 53 115q5 11 11.5 31.5t9.5 28.5q6 27 31 79q7 14 17 17q21 7 47 7h15h6z"/>
<glyph glyph-name="Ccedilla" horiz-adv-x="398" unicode="" d="M309 171q57 0 60 -26q0 -7 -6 -21q-2 -4 -3.5 -16t-2.5 -18q-4 -17 -15 -34q-33 -52 -105 -61q-12 -27 -11 -29q1 -1 12.5 -5t24 -10.5t16.5 -13.5q15 -25 15 -41q0 -29 -25 -52q-25 -24 -81 -24q-16 0 -47.5 16.5t-31.5 31.5q0 6 15.5 17.5t20.5 11.5q2 0 20 -10.5 t29 -11.5q12 0 25.5 4.5t13.5 11.5q0 21 -36 29q-38 9 -38 22q0 21 17 57q-26 6 -42 20q-34 27 -52.5 71.5t-18.5 75.5q0 18 -2 30t-5 26.5t-5 28.5q-11 56 -11 165q0 46 3 67q2 18 14.5 55.5t14.5 45.5q9 30 13.5 41.5t16.5 29.5t30 32q43 34 117 34q24 0 52 -12 q13 -5 32 -27t26 -44q13 -43 13 -59q0 -12 -6 -21q-7 -8 -14 -9.5t-28 -1.5q-8 0 -17 9q-2 2 -4.5 12.5t-5.5 24.5t-5 20q-8 19 -16 27q-12 12 -38 12q-42 0 -55 -12q-21 -16 -28.5 -30.5t-15.5 -45.5q-2 -8 -8.5 -27.5t-11.5 -36t-6 -28.5q-3 -20 -3 -64q0 -71 14 -153 q1 -9 3 -23l3.5 -24.5t1.5 -20.5q0 -27 11 -57q3 -10 24 -44q12 -22 52 -22q29 0 41 10q26 19 31 40q1 2 1 13t3 16q2 3 3 11t3 12.5t8 4.5z"/>
<glyph glyph-name="Egrave" horiz-adv-x="383" unicode="" d="M82 709q38 0 78 -3q6 -1 23 -3.5t24 -2.5q52 0 83 4q2 0 5 0.5t5 0.5q8 0 19.5 -1.5t12.5 -1.5q15 0 15 -32q0 -17 -5 -23.5t-19 -8.5q-57 -9 -89 -9q-14 0 -62 6q-2 0 -13 0.5t-17 0.5q-19 0 -22 -3q-1 -1 -1 -7q0 -7 4 -43q4 -38 4 -61q0 -4 -1.5 -20t-1.5 -23 q0 -43 6 -46q3 -1 11 -1q11 0 36 3.5t33 3.5q12 0 50 2t50 2q30 0 30 -14q0 -31 -5 -40q-6 -11 -32 -16q-8 -1 -26.5 -2t-40.5 -1.5t-29 -0.5q-55 -5 -57 -5q-17 0 -17 -5q0 -3 -4 -19.5t-4 -24.5q0 -16 -2.5 -48t-2.5 -38q0 -5 4 -43t4 -57v-28q0 -28 2 -30q3 -4 25 -4 q4 0 26.5 3.5t40.5 3.5q8 0 24 1t24 1q62 0 69 -7q14 -14 14 -28q0 -9 -6 -24.5t-10 -15.5q-7 0 -39 2t-49 2q-4 0 -52 -5q-24 -3 -72 -3q-55 0 -61 14q-9 20 -9 54q0 7 1.5 32t1.5 35q0 9 -4 50t-4 47q0 8 3 37t3 48l-2 63q-1 63 -1 97q0 8 1.5 26t1.5 22q0 26 -3 54t-3 46 q0 57 9 70q12 17 23 17zM133 946q6 0 14 -13q7 -13 20.5 -31.5t15.5 -22.5q21 -36 25 -47q4 -10 4 -18q0 -4 -9.5 -14t-15.5 -13q-14 -7 -17 -7q-5 0 -12 9.5t-10 20.5q-2 9 -10.5 19.5t-10.5 14.5q-6 12 -28 45q-12 20 -12 33q0 12 25 17q1 0 7 3.5t14 3.5z"/>
<glyph glyph-name="Eacute" horiz-adv-x="383" unicode="" d="M82 709q38 0 78 -3q6 -1 23 -3.5t24 -2.5q52 0 83 4q2 0 5 0.5t5 0.5q8 0 19.5 -1.5t12.5 -1.5q15 0 15 -32q0 -17 -5 -23.5t-19 -8.5q-57 -9 -89 -9q-14 0 -62 6q-2 0 -13 0.5t-17 0.5q-19 0 -22 -3q-1 -1 -1 -7q0 -7 4 -43q4 -38 4 -61q0 -4 -1.5 -20t-1.5 -23 q0 -43 6 -46q3 -1 11 -1q11 0 36 3.5t33 3.5q12 0 50 2t50 2q30 0 30 -14q0 -31 -5 -40q-6 -11 -32 -16q-8 -1 -26.5 -2t-40.5 -1.5t-29 -0.5q-55 -5 -57 -5q-17 0 -17 -5q0 -3 -4 -19.5t-4 -24.5q0 -16 -2.5 -48t-2.5 -38q0 -5 4 -43t4 -57v-28q0 -28 2 -30q3 -4 25 -4 q4 0 26.5 3.5t40.5 3.5q8 0 24 1t24 1q62 0 69 -7q14 -14 14 -28q0 -9 -6 -24.5t-10 -15.5q-7 0 -39 2t-49 2q-4 0 -52 -5q-24 -3 -72 -3q-55 0 -61 14q-9 20 -9 54q0 7 1.5 32t1.5 35q0 9 -4 50t-4 47q0 8 3 37t3 48l-2 63q-1 63 -1 97q0 8 1.5 26t1.5 22q0 26 -3 54t-3 46 q0 57 9 70q12 17 23 17zM257 947q8 0 14 -3.5t7 -3.5q25 -5 25 -17q0 -13 -12 -33q-22 -33 -28 -45q-2 -4 -10.5 -14.5t-10.5 -19.5q-3 -11 -10 -20.5t-12 -9.5q-3 0 -17 7q-6 3 -15.5 13t-9.5 14q0 8 4 18q4 11 25 47q2 4 15.5 22.5t20.5 31.5q8 13 14 13z"/>
<glyph glyph-name="Ecircumflex" horiz-adv-x="383" unicode="" d="M82 709q38 0 78 -3q6 -1 23 -3.5t24 -2.5q52 0 83 4q2 0 5 0.5t5 0.5q8 0 19.5 -1.5t12.5 -1.5q15 0 15 -32q0 -17 -5 -23.5t-19 -8.5q-57 -9 -89 -9q-14 0 -62 6q-2 0 -13 0.5t-17 0.5q-19 0 -22 -3q-1 -1 -1 -7q0 -7 4 -43q4 -38 4 -61q0 -4 -1.5 -20t-1.5 -23 q0 -43 6 -46q3 -1 11 -1q11 0 36 3.5t33 3.5q12 0 50 2t50 2q30 0 30 -14q0 -31 -5 -40q-6 -11 -32 -16q-8 -1 -26.5 -2t-40.5 -1.5t-29 -0.5q-55 -5 -57 -5q-17 0 -17 -5q0 -3 -4 -19.5t-4 -24.5q0 -16 -2.5 -48t-2.5 -38q0 -5 4 -43t4 -57v-28q0 -28 2 -30q3 -4 25 -4 q4 0 26.5 3.5t40.5 3.5q8 0 24 1t24 1q62 0 69 -7q14 -14 14 -28q0 -9 -6 -24.5t-10 -15.5q-7 0 -39 2t-49 2q-4 0 -52 -5q-24 -3 -72 -3q-55 0 -61 14q-9 20 -9 54q0 7 1.5 32t1.5 35q0 9 -4 50t-4 47q0 8 3 37t3 48l-2 63q-1 63 -1 97q0 8 1.5 26t1.5 22q0 26 -3 54t-3 46 q0 57 9 70q12 17 23 17zM209 935h14q14 0 24 -24q3 -13 16 -33q1 -2 6.5 -12t9.5 -15q25 -33 25 -53q0 -5 -16 -15.5t-21 -10.5q-18 0 -24 17q-4 9 -17.5 31.5t-15.5 22.5q-5 0 -39 -53q-8 -14 -26 -14q-6 0 -21 15t-15 21q0 1 2.5 3.5t6.5 6t7 7.5q7 8 19 26l11 18l34 44 q13 18 20 18z"/>
<glyph glyph-name="Edieresis" horiz-adv-x="383" unicode="" d="M82 709q38 0 78 -3q6 -1 23 -3.5t24 -2.5q52 0 83 4q2 0 5 0.5t5 0.5q8 0 19.5 -1.5t12.5 -1.5q15 0 15 -32q0 -17 -5 -23.5t-19 -8.5q-57 -9 -89 -9q-14 0 -62 6q-2 0 -13 0.5t-17 0.5q-19 0 -22 -3q-1 -1 -1 -7q0 -7 4 -43q4 -38 4 -61q0 -4 -1.5 -20t-1.5 -23 q0 -43 6 -46q3 -1 11 -1q11 0 36 3.5t33 3.5q12 0 50 2t50 2q30 0 30 -14q0 -31 -5 -40q-6 -11 -32 -16q-8 -1 -26.5 -2t-40.5 -1.5t-29 -0.5q-55 -5 -57 -5q-17 0 -17 -5q0 -3 -4 -19.5t-4 -24.5q0 -16 -2.5 -48t-2.5 -38q0 -5 4 -43t4 -57v-28q0 -28 2 -30q3 -4 25 -4 q4 0 26.5 3.5t40.5 3.5q8 0 24 1t24 1q62 0 69 -7q14 -14 14 -28q0 -9 -6 -24.5t-10 -15.5q-7 0 -39 2t-49 2q-4 0 -52 -5q-24 -3 -72 -3q-55 0 -61 14q-9 20 -9 54q0 7 1.5 32t1.5 35q0 9 -4 50t-4 47q0 8 3 37t3 48l-2 63q-1 63 -1 97q0 8 1.5 26t1.5 22q0 26 -3 54t-3 46 q0 57 9 70q12 17 23 17zM287 889q30 0 36 -9q8 -12 8 -39q0 -15 -6.5 -27.5t-18.5 -12.5q-24 0 -38 8q-12 9 -12 37q0 17 8 30t23 13zM138 892q10 0 21 -7q12 -9 12 -37q0 -17 -8 -30.5t-23 -13.5q-27 0 -34 10q-12 18 -12 39q0 13 7.5 25.5t19.5 12.5q2 0 8 0.5t9 0.5z"/>
<glyph glyph-name="Igrave" horiz-adv-x="203" unicode="" d="M118 712q15 0 18.5 -4.5t3.5 -18.5q0 -16 -4 -47t-4 -39v-67v-32q0 -10 -1 -27t-1.5 -31.5t-0.5 -29.5q0 -14 1.5 -51t1.5 -56q0 -20 -2 -48t-2 -34q0 -18 6 -96q0 -13 5.5 -40t5.5 -39q0 -5 -2 -16t-2 -16q-1 -7 -2 -11t-5 -6.5t-11 -2.5q-53 0 -53 8q0 6 2 22t2 22 q0 9 -4 31q0 1 -3 32q0 16 -4.5 50t-4.5 51t1.5 48t1.5 47q0 14 -1 61t-1 74q0 19 1.5 78t1.5 79q0 16 3.5 41t3.5 30q0 16 3 28q1 4 16.5 7t29.5 3zM81 947q6 0 29 -41q9 -16 15 -27q6 -10 19 -46q5 -13 5 -21q0 -12 -17 -21q-22 -11 -24 -11q-5 0 -12 9.5t-10 20.5 q-2 6 -15 33q-2 5 -9.5 22t-12.5 24q-12 20 -12 33q0 12 19 17q1 0 5 2.5t9 4t11 1.5z"/>
<glyph glyph-name="Iacute" horiz-adv-x="203" unicode="" d="M118 712q15 0 18.5 -4.5t3.5 -18.5q0 -16 -4 -47t-4 -39v-67v-32q0 -10 -1 -27t-1.5 -31.5t-0.5 -29.5q0 -14 1.5 -51t1.5 -56q0 -20 -2 -48t-2 -34q0 -18 6 -96q0 -13 5.5 -40t5.5 -39q0 -5 -2 -16t-2 -16q-1 -7 -2 -11t-5 -6.5t-11 -2.5q-53 0 -53 8q0 6 2 22t2 22 q0 9 -4 31q0 1 -3 32q0 16 -4.5 50t-4.5 51t1.5 48t1.5 47q0 14 -1 61t-1 74q0 19 1.5 78t1.5 79q0 16 3.5 41t3.5 30q0 16 3 28q1 4 16.5 7t29.5 3zM160 947q6 0 11 -1.5t9 -4t5 -2.5q19 -5 19 -17q0 -13 -12 -33q-5 -7 -12.5 -24t-9.5 -22q-13 -27 -15 -33 q-3 -11 -10 -20.5t-12 -9.5q-2 0 -24 11q-17 9 -17 21q0 8 5 21q13 36 19 46q37 65 41 67q1 1 3 1z"/>
<glyph glyph-name="Icircumflex" horiz-adv-x="203" unicode="" d="M118 712q15 0 18.5 -4.5t3.5 -18.5q0 -16 -4 -47t-4 -39v-67v-32q0 -10 -1 -27t-1.5 -31.5t-0.5 -29.5q0 -14 1.5 -51t1.5 -56q0 -20 -2 -48t-2 -34q0 -18 6 -96q0 -13 5.5 -40t5.5 -39q0 -5 -2 -16t-2 -16q-1 -7 -2 -11t-5 -6.5t-11 -2.5q-53 0 -53 8q0 6 2 22t2 22 q0 9 -4 31q0 1 -3 32q0 16 -4.5 50t-4.5 51t1.5 48t1.5 47q0 14 -1 61t-1 74q0 19 1.5 78t1.5 79q0 16 3.5 41t3.5 30q0 16 3 28q1 4 16.5 7t29.5 3zM112 937l21 -1q12 0 22 -25q7 -19 11 -25t8.5 -15.5t6.5 -12.5q27 -42 27 -70q0 -5 -15.5 -9t-23.5 -4q-6 0 -13 5.5 t-9 12.5q-3 9 -15.5 33t-14.5 24q-4 0 -16.5 -20.5t-19.5 -35.5q-8 -15 -25 -15q-7 0 -20.5 12t-13.5 17q0 6 14 27l29 46q17 23 27 37q10 19 20 19z"/>
<glyph glyph-name="Idieresis" horiz-adv-x="203" unicode="" d="M118 712q15 0 18.5 -4.5t3.5 -18.5q0 -16 -4 -47t-4 -39v-67v-32q0 -10 -1 -27t-1.5 -31.5t-0.5 -29.5q0 -14 1.5 -51t1.5 -56q0 -20 -2 -48t-2 -34q0 -18 6 -96q0 -13 5.5 -40t5.5 -39q0 -5 -2 -16t-2 -16q-1 -7 -2 -11t-5 -6.5t-11 -2.5q-53 0 -53 8q0 6 2 22t2 22 q0 9 -4 31q0 1 -3 32q0 16 -4.5 50t-4.5 51t1.5 48t1.5 47q0 14 -1 61t-1 74q0 19 1.5 78t1.5 79q0 16 3.5 41t3.5 30q0 16 3 28q1 4 16.5 7t29.5 3zM165 888q27 0 33 -9q8 -12 8 -39q0 -14 -6.5 -27t-18.5 -13q-21 0 -35 8q-12 9 -12 37q0 17 8 30t23 13zM58 891 q10 0 21 -7q12 -9 12 -37q0 -17 -8 -30.5t-23 -13.5q-23 0 -30 10q-12 18 -12 39q0 16 9 28q7 11 31 11z"/>
<glyph glyph-name="Eth" horiz-adv-x="424" unicode="" d="M310 287q0 15 -1.5 40t-1.5 37q0 3 0.5 9t0.5 9q0 11 3 34.5t3 39.5q-1 51 -16 96q-10 33 -23 51q-15 15 -26 20q-9 3 -45 10q-8 1 -54 1q-6 0 -8.5 -0.5t-4 -2.5t-1.5 -6q0 -1 3 -40q0 -6 2 -26t2 -31q0 -19 -3 -50t-3 -49v-14h10q5 0 27.5 2t24.5 2q1 0 13.5 -0.5 t21.5 -0.5q10 0 12.5 -4t2.5 -19q0 -27 -5 -37q-2 -4 -13 -4q-7 0 -17 1.5t-11 1.5q-5 0 -24 -3t-25 -3h-14q3 -99 3 -116q0 -5 -3.5 -34t-3.5 -41q0 -11 1.5 -39t1.5 -32q0 -3 -1.5 -10.5t-2 -10.5t1.5 -5q3 -1 22 -1h10q53 4 83 29q20 17 37 51q12 24 16 86q0 8 2.5 28 t2.5 31zM379 378v-8q0 -13 1.5 -44.5t1.5 -40.5q0 -13 -3.5 -36t-4.5 -30q-7 -61 -13 -83q-27 -66 -64 -97q-55 -47 -155 -47q-16 0 -50 4q-21 3 -25 16q-5 18 -5 42q0 5 3.5 18t3.5 16q0 8 -1.5 33.5t-1.5 38.5q0 8 3.5 33.5t3.5 38.5q0 42 -4 116q-17 -3 -23 -3 q-13 0 -15 3q-6 9 -6 30q0 29 13 29q4 0 9.5 0.5t11 2t7.5 1.5v16q0 28 3.5 66t3.5 42q0 7 -4 54t-4 71q0 20 14 37q6 7 37 7l78 -1q53 0 86 -17q10 -5 38 -30q8 -8 24 -35t24 -54q18 -66 18 -111q0 -16 -2.5 -41t-2.5 -37z"/>
<glyph glyph-name="Ntilde" horiz-adv-x="489" unicode="" d="M393 711q18 0 23.5 -9t6.5 -29q2 -68 2 -98q0 -23 -2 -65t-2 -51q0 -15 -1.5 -56t-1.5 -72q0 -34 5 -144q1 -14 4.5 -54.5t3.5 -57.5q0 -47 -5 -67q-1 -6 -24 -12.5t-37 -6.5q-23 0 -32 13q-4 6 -22.5 39.5t-21.5 42.5q-67 183 -81 234q-4 15 -9 43t-6 32 q-4 16 -32.5 93.5t-32.5 77.5q-2 0 -2 -28q0 -14 2 -32t2 -32q0 -2 -1 -67.5t-1 -92.5q0 -22 3 -91t3 -95q0 -20 5.5 -54.5t5.5 -56.5q0 -11 -31 -16q-15 -3 -27 -3q-14 0 -14 14q0 3 -4 46.5t-5 61.5q-1 32 -1 96q0 17 -2.5 51.5t-2.5 52.5q0 22 1.5 76t1.5 82 q0 11 -1.5 34.5t-1.5 35.5t1.5 35t1.5 35q0 24 2.5 42.5t2.5 20.5q0 21 17 27q11 4 38 4q11 0 15 -8q1 -2 1.5 -7.5t0.5 -6.5t13 -22q27 -46 47 -94q38 -93 56 -146q6 -16 10.5 -42.5t6.5 -35.5q7 -31 30 -98t43 -119.5t22 -52.5q1 0 -3.5 49.5t-9.5 115.5t-5 96q0 19 3 58 t3 59q0 13 0.5 54t0.5 62q-1 11 -1 43.5v43.5q-2 32 -2 39q0 13 41 13zM327 880q10 0 23.5 -7t13.5 -12q0 -19 -11 -37q-17 -27 -29 -36.5t-29 -9.5q-47 0 -68 18q-1 1 -6 5.5t-9 8t-9.5 6.5t-8.5 3q-11 0 -21 -30q0 -1 -0.5 -3t-1 -2t-1.5 -1.5t-3 -1.5t-5 -0.5t-8 -0.5 q-20 0 -32 10q-4 3 -4 18q0 20 25 48q19 21 47 21q25 0 54 -24q20 -17 39 -17q12 0 23 33q4 11 21 11z"/>
<glyph glyph-name="Ograve" horiz-adv-x="449" unicode="" d="M233 650q-29 0 -49 -11t-27 -22q-25 -38 -40 -176q-7 -54 -7 -138q0 -34 16 -107q2 -11 5 -22t7 -24.5t6 -21.5q10 -37 23 -51q18 -19 50 -19q22 0 42 8q39 16 51 42q8 17 19 94t11 101q0 19 -3.5 60.5t-3.5 61.5v85q0 24 -10 56.5t-27 56.5q-19 27 -63 27zM248 721 q28 0 70 -27q42 -29 54 -55q10 -14 20 -52.5t10 -63.5q0 -26 0.5 -58.5t0.5 -39.5q0 -11 3 -60.5t3 -60.5q0 -18 -7 -88q-9 -87 -27 -132q-39 -95 -153 -95q-20 0 -43 5q-54 8 -86 64q-14 24 -29 91q-24 96 -24 156q0 91 8 147q5 51 7.5 75t15 66t32.5 66q29 34 74 51 q32 11 71 11zM168 946q6 0 14 -13q7 -13 20.5 -31.5t15.5 -22.5q21 -36 25 -47q4 -10 4 -18q0 -4 -9.5 -14t-15.5 -13q-14 -7 -17 -7q-5 0 -12 9.5t-10 20.5q-2 9 -10.5 19.5t-10.5 14.5q-6 12 -28 45q-12 20 -12 33q0 12 25 17q1 0 7 3.5t14 3.5z"/>
<glyph glyph-name="Oacute" horiz-adv-x="449" unicode="" d="M233 650q-29 0 -49 -11t-27 -22q-25 -38 -40 -176q-7 -54 -7 -138q0 -34 16 -107q2 -11 5 -22t7 -24.5t6 -21.5q10 -37 23 -51q18 -19 50 -19q22 0 42 8q39 16 51 42q8 17 19 94t11 101q0 19 -3.5 60.5t-3.5 61.5v85q0 24 -10 56.5t-27 56.5q-19 27 -63 27zM248 721 q28 0 70 -27q42 -29 54 -55q10 -14 20 -52.5t10 -63.5q0 -26 0.5 -58.5t0.5 -39.5q0 -11 3 -60.5t3 -60.5q0 -18 -7 -88q-9 -87 -27 -132q-39 -95 -153 -95q-20 0 -43 5q-54 8 -86 64q-14 24 -29 91q-24 96 -24 156q0 91 8 147q5 51 7.5 75t15 66t32.5 66q29 34 74 51 q32 11 71 11zM292 947q8 0 14 -3.5t7 -3.5q25 -5 25 -17q0 -13 -12 -33q-22 -33 -28 -45q-2 -4 -10.5 -14.5t-10.5 -19.5q-3 -11 -10 -20.5t-12 -9.5q-3 0 -17 7q-6 3 -15.5 13t-9.5 14q0 8 4 18q4 11 25 47q2 4 15.5 22.5t20.5 31.5q8 13 14 13z"/>
<glyph glyph-name="Ocircumflex" horiz-adv-x="449" unicode="" d="M233 650q-29 0 -49 -11t-27 -22q-25 -38 -40 -176q-7 -54 -7 -138q0 -34 16 -107q2 -11 5 -22t7 -24.5t6 -21.5q10 -37 23 -51q18 -19 50 -19q22 0 42 8q39 16 51 42q8 17 19 94t11 101q0 19 -3.5 60.5t-3.5 61.5v85q0 24 -10 56.5t-27 56.5q-19 27 -63 27zM248 721 q28 0 70 -27q42 -29 54 -55q10 -14 20 -52.5t10 -63.5q0 -26 0.5 -58.5t0.5 -39.5q0 -11 3 -60.5t3 -60.5q0 -18 -7 -88q-9 -87 -27 -132q-39 -95 -153 -95q-20 0 -43 5q-54 8 -86 64q-14 24 -29 91q-24 96 -24 156q0 91 8 147q5 51 7.5 75t15 66t32.5 66q29 34 74 51 q32 11 71 11zM244 935h14q14 0 24 -24q3 -13 16 -33q1 -2 6.5 -12t9.5 -15q25 -33 25 -53q0 -5 -16 -15.5t-21 -10.5q-18 0 -24 17q-4 9 -17.5 31.5t-15.5 22.5q-5 0 -39 -53q-8 -14 -26 -14q-6 0 -21 15t-15 21q0 1 2.5 3.5t6.5 6t7 7.5q7 8 18 26l12 18l34 44q13 18 20 18 z"/>
<glyph glyph-name="Otilde" horiz-adv-x="449" unicode="" d="M233 650q-29 0 -49 -11t-27 -22q-25 -38 -40 -176q-7 -54 -7 -138q0 -34 16 -107q2 -11 5 -22t7 -24.5t6 -21.5q10 -37 23 -51q18 -19 50 -19q22 0 42 8q39 16 51 42q8 17 19 94t11 101q0 19 -3.5 60.5t-3.5 61.5v85q0 24 -10 56.5t-27 56.5q-19 27 -63 27zM248 721 q28 0 70 -27q42 -29 54 -55q10 -14 20 -52.5t10 -63.5q0 -26 0.5 -58.5t0.5 -39.5q0 -11 3 -60.5t3 -60.5q0 -18 -7 -88q-9 -87 -27 -132q-39 -95 -153 -95q-20 0 -43 5q-54 8 -86 64q-14 24 -29 91q-24 96 -24 156q0 91 8 147q5 51 7.5 75t15 66t32.5 66q29 34 74 51 q32 11 71 11zM318 900q10 0 23.5 -7t13.5 -12q0 -19 -11 -37q-17 -27 -29 -36.5t-29 -9.5q-47 0 -68 18q-1 1 -6 5.5t-9 8t-9.5 6.5t-8.5 3q-11 0 -21 -30q0 -1 -0.5 -3t-1 -2t-1.5 -1.5t-3 -1.5t-5 -0.5t-8 -0.5q-20 0 -32 10q-4 3 -4 18q0 20 25 48q19 21 47 21 q25 0 54 -24q20 -17 39 -17q12 0 23 33q4 11 21 11z"/>
<glyph glyph-name="Odieresis" horiz-adv-x="449" unicode="" d="M233 650q-29 0 -49 -11t-27 -22q-25 -38 -40 -176q-7 -54 -7 -138q0 -34 16 -107q2 -11 5 -22t7 -24.5t6 -21.5q10 -37 23 -51q18 -19 50 -19q22 0 42 8q39 16 51 42q8 17 19 94t11 101q0 19 -3.5 60.5t-3.5 61.5v85q0 24 -10 56.5t-27 56.5q-19 27 -63 27zM248 721 q28 0 70 -27q42 -29 54 -55q10 -14 20 -52.5t10 -63.5q0 -26 0.5 -58.5t0.5 -39.5q0 -11 3 -60.5t3 -60.5q0 -18 -7 -88q-9 -87 -27 -132q-39 -95 -153 -95q-20 0 -43 5q-54 8 -86 64q-14 24 -29 91q-24 96 -24 156q0 91 8 147q5 51 7.5 75t15 66t32.5 66q29 34 74 51 q32 11 71 11zM322 889q30 0 36 -9q8 -12 8 -39q0 -15 -6.5 -27.5t-18.5 -12.5q-24 0 -38 8q-12 9 -12 37q0 17 8 30t23 13zM173 892q10 0 21 -7q12 -9 12 -37q0 -17 -8 -30.5t-23 -13.5q-27 0 -34 10q-12 18 -12 39q0 13 7.5 25.5t19.5 12.5q2 0 8 0.5t9 0.5z"/>
<glyph glyph-name="multiply" horiz-adv-x="462" unicode="" d="M336 432q-30 -45 -47 -64q-7 -9 -18 -30l23 -32q18 -22 26 -34q1 -2 19 -27.5t24 -38.5q4 -8 13 -22t15.5 -26t6.5 -19q0 -15 -32 -17q-14 -2 -21 -2q-12 0 -21 18q-6 11 -31.5 49.5t-28.5 43.5q-4 6 -34 48l-29 -30l-45 -50q-8 -9 -19 -29.5t-19.5 -35t-11.5 -14.5 q-18 0 -37 7.5t-19 16.5q0 12 20 49.5t32 50.5q8 9 23.5 25t21.5 24q23 25 38 47l-8 11l-7.5 15t-15.5 30t-16 29q-8 12 -27.5 35t-28.5 39l-8 13q-8 12 -11 18t-7 17t-4 19t18 10q16 2 25 2q15 0 22 -4l41 -66q6 -9 19.5 -23.5t17.5 -19.5q9 -11 19.5 -35.5t13.5 -29.5 q32 43 47 67q3 5 14.5 32.5t15.5 34.5q2 3 6 7.5t13.5 14t17.5 18.5q5 4 25 4q35 0 35 -14q0 -18 -2 -22q-5 -9 -33 -44q-5 -6 -16 -33t-15 -33z"/>
<glyph glyph-name="Oslash" horiz-adv-x="449" unicode="" d="M329 202q11 77 11 101q0 19 -3.5 60.5t-3.5 61.5v85q0 55 -34 108q-2 -14 -6.5 -41.5t-10 -56.5t-6.5 -36q-1 -4 -7 -37.5t-8 -51.5q-2 -15 -5.5 -66.5t-9.5 -80.5q-3 -18 -13 -52t-13 -47q-14 -54 -20 -89q12 -2 17 -2q22 0 42 8q39 16 51 42q8 17 19 94zM110 303 q0 -34 16 -107q2 -11 5 -22t7 -24.5t6 -21.5q4 -16 7 -24q18 74 20 85q2 12 9.5 38t9.5 40q1 5 15 133q4 46 21 124l20 125l-13 1q-29 0 -49 -11t-27 -22q-25 -38 -40 -176q-7 -54 -7 -138zM403 425q0 -11 3 -60.5t3 -60.5q0 -18 -7 -88q-9 -87 -27 -132q-39 -95 -153 -95 q-12 0 -36 4q-21 -80 -25 -85q-4 -6 -26 -6h-1q-8 0 -15.5 5t-7.5 14q0 2 22 90q-20 14 -40 47q-14 24 -29 91q-24 96 -24 156q0 91 8 147q5 51 7.5 75t15 66t32.5 66q29 34 74 51q32 11 71 11q9 0 13 -1l3 13l14 63q5 23 15 23t26 -12.5t16 -18.5q0 -30 -17 -81l-3 -11 q1 0 1 -1l2 -1q42 -29 54 -55q10 -14 20 -52.5t10 -63.5q0 -26 0.5 -58.5t0.5 -39.5z"/>
<glyph glyph-name="Ugrave" horiz-adv-x="464" unicode="" d="M70 715q17 0 47 -9q5 -1 5 -12q0 -4 -1 -15.5t-1 -19.5q0 -11 -0.5 -31t-0.5 -31q0 -32 7 -142q1 -24 7 -90.5t6 -79.5q0 -3 -0.5 -30t-0.5 -47q0 -68 6 -106q1 -11 22 -29q18 -15 62 -15q43 0 60 13q13 11 20 24q19 32 25 126q6 111 6 114q0 16 -2.5 52.5t-2.5 47.5 q0 31 5 91t5 86q0 15 -6 45.5t-6 32.5q0 12 22 19q13 4 29 4q13 0 18 -16q13 -60 13 -82q0 -25 -5 -94t-5 -84q0 -19 2.5 -52t2.5 -53q0 -27 -4 -83l-5 -71q-11 -121 -73 -166q-43 -21 -112 -21q-27 0 -58.5 11t-49.5 28q-8 7 -16.5 23t-9.5 22q-12 52 -12 208q0 31 -11 163 q-8 88 -8 193q0 76 20 76zM157 927q6 0 14 -13q7 -13 20.5 -31.5t15.5 -22.5q21 -36 25 -47q4 -10 4 -18q0 -4 -9.5 -14t-15.5 -13q-14 -7 -17 -7q-5 0 -12 9.5t-10 20.5q-2 9 -10.5 19.5t-10.5 14.5q-6 12 -28 45q-12 20 -12 33q0 12 25 17q1 0 7 3.5t14 3.5z"/>
<glyph glyph-name="Uacute" horiz-adv-x="464" unicode="" d="M70 715q17 0 47 -9q5 -1 5 -12q0 -4 -1 -15.5t-1 -19.5q0 -11 -0.5 -31t-0.5 -31q0 -32 7 -142q1 -24 7 -90.5t6 -79.5q0 -3 -0.5 -30t-0.5 -47q0 -68 6 -106q1 -11 22 -29q18 -15 62 -15q43 0 60 13q13 11 20 24q19 32 25 126q6 111 6 114q0 16 -2.5 52.5t-2.5 47.5 q0 31 5 91t5 86q0 15 -6 45.5t-6 32.5q0 12 22 19q13 4 29 4q13 0 18 -16q13 -60 13 -82q0 -25 -5 -94t-5 -84q0 -19 2.5 -52t2.5 -53q0 -27 -4 -83l-5 -71q-11 -121 -73 -166q-43 -21 -112 -21q-27 0 -58.5 11t-49.5 28q-8 7 -16.5 23t-9.5 22q-12 52 -12 208q0 31 -11 163 q-8 88 -8 193q0 76 20 76zM281 928q8 0 14 -3.5t7 -3.5q25 -5 25 -17q0 -13 -12 -33q-22 -33 -28 -45q-2 -4 -10.5 -14.5t-10.5 -19.5q-3 -11 -10 -20.5t-12 -9.5q-3 0 -17 7q-6 3 -15.5 13t-9.5 14q0 8 4 18q4 11 25 47q2 4 15.5 22.5t20.5 31.5q8 13 14 13z"/>
<glyph glyph-name="Ucircumflex" horiz-adv-x="464" unicode="" d="M70 715q17 0 47 -9q5 -1 5 -12q0 -4 -1 -15.5t-1 -19.5q0 -11 -0.5 -31t-0.5 -31q0 -32 7 -142q1 -24 7 -90.5t6 -79.5q0 -3 -0.5 -30t-0.5 -47q0 -68 6 -106q1 -11 22 -29q18 -15 62 -15q43 0 60 13q13 11 20 24q19 32 25 126q6 111 6 114q0 16 -2.5 52.5t-2.5 47.5 q0 31 5 91t5 86q0 15 -6 45.5t-6 32.5q0 12 22 19q13 4 29 4q13 0 18 -16q13 -60 13 -82q0 -25 -5 -94t-5 -84q0 -19 2.5 -52t2.5 -53q0 -27 -4 -83l-5 -71q-11 -121 -73 -166q-43 -21 -112 -21q-27 0 -58.5 11t-49.5 28q-8 7 -16.5 23t-9.5 22q-12 52 -12 208q0 31 -11 163 q-8 88 -8 193q0 76 20 76zM233 916h14q13 0 24 -24q3 -13 16 -33q1 -2 6.5 -12t9.5 -15q25 -33 25 -53q0 -5 -16 -15.5t-21 -10.5q-18 0 -24 17q-4 9 -17.5 31.5t-15.5 22.5q-5 0 -39 -53q-8 -14 -26 -14q-6 0 -21 15t-15 21q0 1 2.5 3.5t6.5 6t7 7.5q7 8 19 26l11 18l34 44 q13 18 20 18z"/>
<glyph glyph-name="Udieresis" horiz-adv-x="464" unicode="" d="M70 715q17 0 47 -9q5 -1 5 -12q0 -4 -1 -15.5t-1 -19.5q0 -11 -0.5 -31t-0.5 -31q0 -32 7 -142q1 -24 7 -90.5t6 -79.5q0 -3 -0.5 -30t-0.5 -47q0 -68 6 -106q1 -11 22 -29q18 -15 62 -15q43 0 60 13q13 11 20 24q19 32 25 126q6 111 6 114q0 16 -2.5 52.5t-2.5 47.5 q0 31 5 91t5 86q0 15 -6 45.5t-6 32.5q0 12 22 19q13 4 29 4q13 0 18 -16q13 -60 13 -82q0 -25 -5 -94t-5 -84q0 -19 2.5 -52t2.5 -53q0 -27 -4 -83l-5 -71q-11 -121 -73 -166q-43 -21 -112 -21q-27 0 -58.5 11t-49.5 28q-8 7 -16.5 23t-9.5 22q-12 52 -12 208q0 31 -11 163 q-8 88 -8 193q0 76 20 76zM311 870q30 0 36 -9q8 -12 8 -39q0 -14 -6.5 -27t-18.5 -13q-24 0 -38 8q-12 9 -12 37q0 17 8 30t23 13zM162 873q10 0 21 -7q12 -9 12 -37q0 -17 -8 -30.5t-23 -13.5q-27 0 -34 10q-12 18 -12 39q0 13 7.5 25.5t19.5 12.5q2 0 8 0.5t9 0.5z"/>
<glyph glyph-name="Yacute" horiz-adv-x="399" unicode="" d="M55 719q26 0 31 -13q2 -5 7 -18t9.5 -24.5t4.5 -14.5l10 -48q0 -1 11 -34.5t16 -54.5q15 -43 29 -64q3 -5 22 -29q30 -39 31 -39q6 0 22 66q4 29 29 124q19 58 20 65q2 8 5 24t5.5 28t3.5 15q4 10 39 10q29 0 29 -20q0 -24 -37 -153q-5 -16 -11.5 -47t-8.5 -39 q-7 -31 -11 -43q-5 -14 -15.5 -44.5t-16.5 -47.5q-4 -16 -14 -46q-31 -101 -35 -106q-16 -19 -41 -109q-2 -8 -5.5 -26.5t-4.5 -21.5q-3 -10 -29 -10q-39 0 -39 18q0 6 8 43q8 36 13 48q4 9 10 28t12 35t13 29q2 4 17 49q14 45 14 52q0 2 -42 53q-4 5 -15 21t-17 24 q-24 30 -28 38t-20 61q-25 81 -37 134q-1 3 -6 16t-9 27.5t-4 23.5q0 20 35 20zM262 925q8 0 14 -3.5t7 -3.5q25 -5 25 -17q0 -13 -12 -33q-22 -33 -28 -45q-2 -4 -10.5 -14.5t-10.5 -19.5q-3 -11 -10 -20.5t-12 -9.5q-3 0 -17 7q-6 3 -15.5 13t-9.5 14q0 8 4 18q4 11 25 47 q2 4 15.5 22.5t20.5 31.5q8 13 14 13z"/>
<glyph glyph-name="Thorn" horiz-adv-x="361" unicode="" d="M128 478q-6 -18 -6 -106q0 -19 2 -61t3 -44q2 -4 25 0q4 0 14.5 0.5t16.5 1.5t16.5 4.5t19.5 10.5q42 22 42 95q0 64 -30 87q-7 5 -39.5 9t-54.5 4q-9 0 -9 -1zM77 726q12 0 31.5 -7t19.5 -15q0 -12 -4 -47t-4 -47q0 -55 5 -60l31 -4q4 0 28.5 -1.5t44.5 -3.5t29 -6 q14 -6 33.5 -28t24.5 -36q15 -43 15 -89q0 -79 -29 -118q-18 -25 -54 -43q-10 -5 -46.5 -15t-46.5 -11q-3 0 -11 -0.5t-14 -1t-6 -1.5q-1 -2 -1 -23q0 -6 2.5 -36t2.5 -49q0 -15 -3.5 -49t-7.5 -35q-15 -5 -30 -5q-32 0 -32 11q0 2 1 14.5t2 30.5t1 34t-3.5 45t-3.5 39 q0 19 2.5 52.5t2.5 52.5q0 8 -2.5 43t-2.5 55q0 17 2 59t2 53q0 14 -3 67.5t-3 57.5q0 13 3 46t3 36q3 21 8 27q7 8 13 8z"/>
<glyph glyph-name="germandbls" horiz-adv-x="428" unicode="" d="M212 711q43 0 77 -15q32 -15 52.5 -58.5t20.5 -80.5q0 -83 -27 -157q-3 -8 -11.5 -20t-8.5 -15t4.5 -8t10.5 -11.5t8 -9.5q18 -24 26 -44q22 -56 22 -107q-5 -74 -13 -98q-12 -33 -39 -64q-29 -32 -91 -32q-27 0 -44 10q-29 18 -44 37q-7 12 -7 18q0 7 8 14q16 16 43 16 q3 0 16 -14t20 -14q10 0 26 4t19 7q36 20 36 112q0 58 -20 94q-19 30 -27 36q-16 11 -24 12q-3 0 -13 -1.5t-14 -1.5q-9 0 -22 14.5t-13 23.5q0 7 17 17.5t28 15.5q44 16 58 78q6 30 6 79q0 95 -83 95q-52 0 -65 -13q-8 -8 -16 -109q0 -15 1 -45t1 -39t-2.5 -24.5 t-2.5 -22.5q0 -15 2.5 -52t2.5 -51q0 -22 -2 -67.5t-2 -59.5q0 -28 -1 -57t-1 -32q0 -8 -2.5 -30.5t-2.5 -30.5q0 -14 -30 -14t-34 5q-7 9 -7 32q0 6 3 20.5t3 20.5q0 5 1.5 29t1.5 49q0 19 1 61.5t1 73.5q0 11 -0.5 29t-1.5 43t-1 38q0 9 3 23t3 16q0 12 -1.5 34.5 t-1.5 33.5q0 59 9 108q12 53 24 66q9 10 49.5 21.5t70.5 11.5z"/>
<glyph glyph-name="agrave" d="M204 476q-28 0 -32 -2q-17 -9 -30 -29t-17 -42q-2 -15 -7.5 -43t-9.5 -50t-5 -36q-3 -31 -3 -105q0 -28 8 -60.5t20 -45.5q13 -8 50 -8q15 0 36.5 8.5t33.5 22.5q-3 18 -3 42q0 13 1 42.5t1 45.5l-1 69q0 6 3 26t3 32q0 8 1 32t1 31v5q-2 14 -15 34q-20 31 -35 31z M287 563q6 0 28.5 -10t22.5 -16q0 -23 -7 -62q-3 -16 -5 -49q-2 -22 -2 -86q0 -36 -3 -43q-5 -30 -5 -67q0 -8 0.5 -25t0.5 -27q0 -82 5 -97q4 -12 24 -34q19 -19 19 -25q0 -3 -1 -5.5t-2.5 -6t-2.5 -5.5q-3 -8 -15.5 -15.5t-17.5 -7.5t-13 2q-9 2 -26 19t-19 17q-4 0 -9 -3 t-12.5 -9t-13.5 -10q-17 -10 -89 -10q-31 0 -58 18q-9 6 -23 33t-23 53q-10 41 -10 104q5 90 7 109q6 48 17 103q13 62 49 99q10 11 30 25t26 16q10 2 39 2q13 0 31 -12t29 -26q4 9 5.5 20t3 18t5.5 9q8 4 15 4zM122 776q6 0 14 -13q7 -13 20.5 -31.5t15.5 -22.5 q21 -36 25 -47q4 -10 4 -18q0 -4 -9.5 -14t-15.5 -13q-14 -7 -17 -7q-5 0 -12 9.5t-10 20.5q-2 9 -10.5 19.5t-10.5 14.5q-6 12 -28 45q-12 20 -12 33q0 12 25 17q1 0 7 3.5t14 3.5z" unicode=""/>
<glyph glyph-name="aacute" d="M204 476q-28 0 -32 -2q-17 -9 -30 -29t-17 -42q-2 -15 -7.5 -43t-9.5 -50t-5 -36q-3 -31 -3 -105q0 -28 8 -60.5t20 -45.5q13 -8 50 -8q15 0 36.5 8.5t33.5 22.5q-3 18 -3 42q0 13 1 42.5t1 45.5l-1 69q0 6 3 26t3 32q0 8 1 32t1 31v5q-2 14 -15 34q-20 31 -35 31z M287 563q6 0 28.5 -10t22.5 -16q0 -23 -7 -62q-3 -16 -5 -49q-2 -22 -2 -86q0 -36 -3 -43q-5 -30 -5 -67q0 -8 0.5 -25t0.5 -27q0 -82 5 -97q4 -12 24 -34q19 -19 19 -25q0 -3 -1 -5.5t-2.5 -6t-2.5 -5.5q-3 -8 -15.5 -15.5t-17.5 -7.5t-13 2q-9 2 -26 19t-19 17q-4 0 -9 -3 t-12.5 -9t-13.5 -10q-17 -10 -89 -10q-31 0 -58 18q-9 6 -23 33t-23 53q-10 41 -10 104q5 90 7 109q6 48 17 103q13 62 49 99q10 11 30 25t26 16q10 2 39 2q13 0 31 -12t29 -26q4 9 5.5 20t3 18t5.5 9q8 4 15 4zM246 777q8 0 14 -3.5t7 -3.5q25 -5 25 -17q0 -13 -12 -33 q-22 -33 -28 -45q-2 -4 -10.5 -14.5t-10.5 -19.5q-3 -11 -10 -20.5t-12 -9.5q-3 0 -17 7q-6 3 -15.5 13t-9.5 14q0 8 4 18q4 11 25 47q2 4 15.5 22.5t20.5 31.5q8 13 14 13z" unicode=""/>
<glyph glyph-name="acircumflex" d="M204 476q-28 0 -32 -2q-17 -9 -30 -29t-17 -42q-2 -15 -7.5 -43t-9.5 -50t-5 -36q-3 -31 -3 -105q0 -28 8 -60.5t20 -45.5q13 -8 50 -8q15 0 36.5 8.5t33.5 22.5q-3 18 -3 42q0 13 1 42.5t1 45.5l-1 69q0 6 3 26t3 32q0 8 1 32t1 31v5q-2 14 -15 34q-20 31 -35 31z M287 563q6 0 28.5 -10t22.5 -16q0 -23 -7 -62q-3 -16 -5 -49q-2 -22 -2 -86q0 -36 -3 -43q-5 -30 -5 -67q0 -8 0.5 -25t0.5 -27q0 -82 5 -97q4 -12 24 -34q19 -19 19 -25q0 -3 -1 -5.5t-2.5 -6t-2.5 -5.5q-3 -8 -15.5 -15.5t-17.5 -7.5t-13 2q-9 2 -26 19t-19 17q-4 0 -9 -3 t-12.5 -9t-13.5 -10q-17 -10 -89 -10q-31 0 -58 18q-9 6 -23 33t-23 53q-10 41 -10 104q5 90 7 109q6 48 17 103q13 62 49 99q10 11 30 25t26 16q10 2 39 2q13 0 31 -12t29 -26q4 9 5.5 20t3 18t5.5 9q8 4 15 4zM198 765h14q14 0 24 -24q3 -13 16 -33q1 -2 6.5 -12t9.5 -15 q25 -33 25 -53q0 -5 -16 -15.5t-21 -10.5q-18 0 -24 17q-4 9 -17.5 31.5t-15.5 22.5q-5 0 -39 -53q-8 -14 -26 -14q-6 0 -21 15t-15 21q0 1 2.5 3.5t6.5 6t7 7.5q7 8 18 26l12 18l34 44q13 18 20 18z" unicode=""/>
<glyph glyph-name="atilde" d="M204 476q-28 0 -32 -2q-17 -9 -30 -29t-17 -42q-2 -15 -7.5 -43t-9.5 -50t-5 -36q-3 -31 -3 -105q0 -28 8 -60.5t20 -45.5q13 -8 50 -8q15 0 36.5 8.5t33.5 22.5q-3 18 -3 42q0 13 1 42.5t1 45.5l-1 69q0 6 3 26t3 32q0 8 1 32t1 31v5q-2 14 -15 34q-20 31 -35 31z M287 563q6 0 28.5 -10t22.5 -16q0 -23 -7 -62q-3 -16 -5 -49q-2 -22 -2 -86q0 -36 -3 -43q-5 -30 -5 -67q0 -8 0.5 -25t0.5 -27q0 -82 5 -97q4 -12 24 -34q19 -19 19 -25q0 -3 -1 -5.5t-2.5 -6t-2.5 -5.5q-3 -8 -15.5 -15.5t-17.5 -7.5t-13 2q-9 2 -26 19t-19 17q-4 0 -9 -3 t-12.5 -9t-13.5 -10q-17 -10 -89 -10q-31 0 -58 18q-9 6 -23 33t-23 53q-10 41 -10 104q5 90 7 109q6 48 17 103q13 62 49 99q10 11 30 25t26 16q10 2 39 2q13 0 31 -12t29 -26q4 9 5.5 20t3 18t5.5 9q8 4 15 4zM272 730q10 0 23.5 -7t13.5 -12q0 -19 -11 -37 q-17 -27 -29 -36.5t-29 -9.5q-47 0 -68 18q-1 1 -6 5.5t-9 8t-9.5 6.5t-8.5 3q-11 0 -21 -30q0 -1 -0.5 -3t-1 -2t-1.5 -1.5t-3 -1.5t-5 -0.5t-8 -0.5q-20 0 -32 10q-4 3 -4 18q0 20 25 48q19 21 47 21q25 0 54 -24q20 -17 39 -17q12 0 23 33q4 11 21 11z" unicode=""/>
<glyph glyph-name="adieresis" d="M204 476q-28 0 -32 -2q-17 -9 -30 -29t-17 -42q-2 -15 -7.5 -43t-9.5 -50t-5 -36q-3 -31 -3 -105q0 -28 8 -60.5t20 -45.5q13 -8 50 -8q15 0 36.5 8.5t33.5 22.5q-3 18 -3 42q0 13 1 42.5t1 45.5l-1 69q0 6 3 26t3 32q0 8 1 32t1 31v5q-2 14 -15 34q-20 31 -35 31z M287 563q6 0 28.5 -10t22.5 -16q0 -23 -7 -62q-3 -16 -5 -49q-2 -22 -2 -86q0 -36 -3 -43q-5 -30 -5 -67q0 -8 0.5 -25t0.5 -27q0 -82 5 -97q4 -12 24 -34q19 -19 19 -25q0 -3 -1 -5.5t-2.5 -6t-2.5 -5.5q-3 -8 -15.5 -15.5t-17.5 -7.5t-13 2q-9 2 -26 19t-19 17q-4 0 -9 -3 t-12.5 -9t-13.5 -10q-17 -10 -89 -10q-31 0 -58 18q-9 6 -23 33t-23 53q-10 41 -10 104q5 90 7 109q6 48 17 103q13 62 49 99q10 11 30 25t26 16q10 2 39 2q13 0 31 -12t29 -26q4 9 5.5 20t3 18t5.5 9q8 4 15 4zM276 719q30 0 36 -9q8 -12 8 -39q0 -15 -6.5 -27.5 t-18.5 -12.5q-24 0 -38 8q-12 9 -12 37q0 17 8 30t23 13zM127 722q10 0 21 -7q12 -9 12 -37q0 -17 -8 -30.5t-23 -13.5q-27 0 -34 10q-12 18 -12 39q0 13 7.5 25.5t19.5 12.5q2 0 8 0.5t9 0.5z" unicode=""/>
<glyph glyph-name="aring" d="M204 476q-28 0 -32 -2q-17 -9 -30 -29t-17 -42q-2 -15 -7.5 -43t-9.5 -50t-5 -36q-3 -31 -3 -105q0 -28 8 -60.5t20 -45.5q13 -8 50 -8q15 0 36.5 8.5t33.5 22.5q-3 18 -3 42q0 13 1 42.5t1 45.5l-1 69q0 6 3 26t3 32q0 8 1 32t1 31v5q-2 14 -15 34q-20 31 -35 31z M287 563q6 0 28.5 -10t22.5 -16q0 -23 -7 -62q-3 -16 -5 -49q-2 -22 -2 -86q0 -36 -3 -43q-5 -30 -5 -67q0 -8 0.5 -25t0.5 -27q0 -82 5 -97q4 -12 24 -34q19 -19 19 -25q0 -3 -1 -5.5t-2.5 -6t-2.5 -5.5q-3 -8 -15.5 -15.5t-17.5 -7.5t-13 2q-9 2 -26 19t-19 17q-4 0 -9 -3 t-12.5 -9t-13.5 -10q-17 -10 -89 -10q-31 0 -58 18q-9 6 -23 33t-23 53q-10 41 -10 104q5 90 7 109q6 48 17 103q13 62 49 99q10 11 30 25t26 16q10 2 39 2q13 0 31 -12t29 -26q4 9 5.5 20t3 18t5.5 9q8 4 15 4zM193 710q-21 0 -31 -9q-9 -9 -9 -29q0 -11 8.5 -19.5 t22.5 -8.5q46 0 46 29q0 16 -10 26.5t-27 10.5zM188 758q41 0 66.5 -20t25.5 -62q0 -31 -21 -57q-21 -25 -66 -25q-40 0 -66.5 19.5t-26.5 54.5q0 45 24.5 67.5t63.5 22.5z" unicode=""/>
<glyph glyph-name="ae" horiz-adv-x="564" unicode="" d="M234 235q-1 0 -5 -0.5t-9 -1t-6 -0.5q-65 -12 -90 -28l-7.5 -5t-7 -4.5t-5.5 -4t-5 -5t-4 -6.5t-3 -8q-2 -13 -2 -40q0 -75 57 -75q56 0 78 47q16 52 16 86q0 6 -3 25t-4 20zM404 479q-19 0 -32 -4q-15 -4 -25 -16.5t-17.5 -31t-8.5 -20.5t-6 -9t-7 -10.5t-4 -13.5 t-2 -22v-13q0 -25 5 -28l3 -1h7q17 0 70 5q5 1 19 1q10 0 29 -1t24 -1q7 0 8 1q4 3 2 25q-1 6 -2 22t-2.5 25.5t-4.5 23.5t-8 25t-13 21q-2 2 -4.5 5t-3.5 4.5t-3.5 3.5t-3.5 3t-3.5 2.5t-4.5 2t-5 1t-7 0.5zM159 551q40 0 70 -17q10 -5 21.5 -17.5t18.5 -22.5t8 -10l5 6 q5 7 14 16.5t22 19t34 16t45 6.5q25 0 56 -14q65 -31 79 -135q7 -48 7 -85q0 -16 -6.5 -39.5t-11.5 -27.5q-3 -3 -29 -3h-24q-10 0 -39.5 1t-34.5 1q-81 0 -85 -10l-1 -2v-3q0 -19 15 -83q5 -25 16 -45q10 -18 22 -27q18 -15 42 -15h6q14 0 22 8.5t18 27.5q2 4 10 39 q5 22 14 22q18 0 34 -4q21 -4 21 -17q0 -8 -4.5 -31t-8.5 -32q-6 -14 -24.5 -36.5t-38.5 -32.5q-29 -14 -59 -14q-50 0 -99 51l-14 15l-8 -9q-8 -10 -21 -22.5t-26 -18.5q-38 -19 -75 -19q-75 0 -101 37l-18 36q-11 23 -11 72q0 39 15 80t102 72q4 1 72 15l21 3v24q0 2 3 35 q1 7 1 19q0 16 -4 28q-14 42 -29 59q-13 13 -43 13q-13 0 -29 -10.5t-21 -28.5q-10 -30 -13 -34q-6 -7 -28 -7q-21 0 -29.5 4t-8.5 16q0 18 14 53q16 39 39 54q36 23 77 23z"/>
<glyph glyph-name="ccedilla" horiz-adv-x="342" unicode="" d="M268 177q42 0 47 -9q7 -12 7 -42q0 -9 -4 -20.5t-6.5 -17t-12 -21.5t-10.5 -18q-30 -55 -83 -60q-9 -20 -8 -23q1 -1 12.5 -5t24 -10.5t16.5 -13.5q15 -25 15 -41q0 -29 -25 -52q-25 -24 -81 -24q-16 0 -47.5 16.5t-31.5 31.5q0 6 15.5 17.5t20.5 11.5q2 0 20 -10.5 t29 -11.5q12 0 25.5 4.5t13.5 11.5q0 21 -36 29q-38 9 -38 22q0 16 15 52q-20 6 -38 19q-31 24 -54.5 68.5t-23.5 87.5q0 5 3 42t3 55l-2 33q0 21 7 101q7 64 42 104q44 48 125 48q29 0 44 -12q38 -31 53 -64q17 -37 17 -61q0 -10 -20 -18q-1 -1 -6.5 -3.5t-10 -4.5t-7.5 -2 q-17 0 -27 30q-13 39 -32 57q-13 11 -25 11q-17 0 -43 -13q-34 -18 -40 -81q-8 -75 -8 -83q0 -4 1 -14.5t1 -19.5q0 -19 -2.5 -58.5t-2.5 -45.5q0 -21 12.5 -49t26.5 -42q26 -24 46 -24q6 0 11.5 1.5t10 4.5t8 5.5t7 7t5 7t4.5 6.5t3 5q19 29 19 38l1 32q0 8 2.5 11.5 t11.5 3.5z"/>
<glyph glyph-name="egrave" horiz-adv-x="373" unicode="" d="M222 485q-65 0 -102 -75q-16 -33 -16 -60q0 -3 0.5 -8t0.5 -6q0 -5 15 -8t39.5 -5t37.5 -5q24 -6 53 -6q19 0 24 4.5t5 26.5q0 23 -6 56.5t-11 44.5q-6 19 -20 35q-6 6 -20 6zM228 553q30 0 48.5 -11t35.5 -39q13 -23 22 -76t9 -99q0 -38 -10 -56q-5 -9 -25 -18t-47 -9 q-55 0 -79 5q-47 11 -72 11q-5 0 -6.5 -2.5t-1.5 -11.5q0 -1 4 -49q2 -40 21 -93q9 -26 26 -42t35 -16q15 0 40 14q21 12 26 23q2 4 10 39q6 22 14 22q18 0 34 -4q21 -4 21 -17q0 -8 -4.5 -31t-8.5 -32q-6 -14 -24.5 -36.5t-38.5 -32.5q-31 -15 -58 -15q-49 0 -88 33 q-36 31 -54 83t-21 101q-6 105 -6 108q0 14 2 42q5 66 47 132q18 29 65 52.5t84 24.5zM137 776q6 0 14 -13q7 -13 20.5 -31.5t15.5 -22.5q21 -36 25 -47q4 -10 4 -18q0 -4 -9.5 -14t-15.5 -13q-14 -7 -17 -7q-5 0 -12 9.5t-10 20.5q-2 9 -10.5 19.5t-10.5 14.5q-6 12 -28 45 q-12 20 -12 33q0 12 25 17q1 0 7 3.5t14 3.5z"/>
<glyph glyph-name="eacute" horiz-adv-x="373" unicode="" d="M222 485q-65 0 -102 -75q-16 -33 -16 -60q0 -3 0.5 -8t0.5 -6q0 -5 15 -8t39.5 -5t37.5 -5q24 -6 53 -6q19 0 24 4.5t5 26.5q0 23 -6 56.5t-11 44.5q-6 19 -20 35q-6 6 -20 6zM228 553q30 0 48.5 -11t35.5 -39q13 -23 22 -76t9 -99q0 -38 -10 -56q-5 -9 -25 -18t-47 -9 q-55 0 -79 5q-47 11 -72 11q-5 0 -6.5 -2.5t-1.5 -11.5q0 -1 4 -49q2 -40 21 -93q9 -26 26 -42t35 -16q15 0 40 14q21 12 26 23q2 4 10 39q6 22 14 22q18 0 34 -4q21 -4 21 -17q0 -8 -4.5 -31t-8.5 -32q-6 -14 -24.5 -36.5t-38.5 -32.5q-31 -15 -58 -15q-49 0 -88 33 q-36 31 -54 83t-21 101q-6 105 -6 108q0 14 2 42q5 66 47 132q18 29 65 52.5t84 24.5zM261 777q8 0 14 -3.5t7 -3.5q25 -5 25 -17q0 -13 -12 -33q-22 -33 -28 -45q-2 -4 -10.5 -14.5t-10.5 -19.5q-3 -11 -10 -20.5t-12 -9.5q-3 0 -17 7q-6 3 -15.5 13t-9.5 14q0 8 4 18 q4 11 25 47q2 4 15.5 22.5t20.5 31.5q8 13 14 13z"/>
<glyph glyph-name="ecircumflex" horiz-adv-x="373" unicode="" d="M222 485q-65 0 -102 -75q-16 -33 -16 -60q0 -3 0.5 -8t0.5 -6q0 -5 15 -8t39.5 -5t37.5 -5q24 -6 53 -6q19 0 24 4.5t5 26.5q0 23 -6 56.5t-11 44.5q-6 19 -20 35q-6 6 -20 6zM228 553q30 0 48.5 -11t35.5 -39q13 -23 22 -76t9 -99q0 -38 -10 -56q-5 -9 -25 -18t-47 -9 q-55 0 -79 5q-47 11 -72 11q-5 0 -6.5 -2.5t-1.5 -11.5q0 -1 4 -49q2 -40 21 -93q9 -26 26 -42t35 -16q15 0 40 14q21 12 26 23q2 4 10 39q6 22 14 22q18 0 34 -4q21 -4 21 -17q0 -8 -4.5 -31t-8.5 -32q-6 -14 -24.5 -36.5t-38.5 -32.5q-31 -15 -58 -15q-49 0 -88 33 q-36 31 -54 83t-21 101q-6 105 -6 108q0 14 2 42q5 66 47 132q18 29 65 52.5t84 24.5zM213 765h14q13 0 24 -24q3 -13 16 -33q1 -2 6.5 -12t9.5 -15q25 -33 25 -53q0 -5 -16 -15.5t-21 -10.5q-18 0 -24 17q-4 9 -17.5 31.5t-15.5 22.5q-5 0 -39 -53q-8 -14 -26 -14 q-6 0 -21 15t-15 21q0 1 2.5 3.5t6.5 6t7 7.5q7 8 19 26l11 18l34 44q13 18 20 18z"/>
<glyph glyph-name="edieresis" horiz-adv-x="373" unicode="" d="M222 485q-65 0 -102 -75q-16 -33 -16 -60q0 -3 0.5 -8t0.5 -6q0 -5 15 -8t39.5 -5t37.5 -5q24 -6 53 -6q19 0 24 4.5t5 26.5q0 23 -6 56.5t-11 44.5q-6 19 -20 35q-6 6 -20 6zM228 553q30 0 48.5 -11t35.5 -39q13 -23 22 -76t9 -99q0 -38 -10 -56q-5 -9 -25 -18t-47 -9 q-55 0 -79 5q-47 11 -72 11q-5 0 -6.5 -2.5t-1.5 -11.5q0 -1 4 -49q2 -40 21 -93q9 -26 26 -42t35 -16q15 0 40 14q21 12 26 23q2 4 10 39q6 22 14 22q18 0 34 -4q21 -4 21 -17q0 -8 -4.5 -31t-8.5 -32q-6 -14 -24.5 -36.5t-38.5 -32.5q-31 -15 -58 -15q-49 0 -88 33 q-36 31 -54 83t-21 101q-6 105 -6 108q0 14 2 42q5 66 47 132q18 29 65 52.5t84 24.5zM291 719q30 0 36 -9q8 -12 8 -39q0 -15 -6.5 -27.5t-18.5 -12.5q-24 0 -38 8q-12 9 -12 37q0 17 8 30t23 13zM142 722q10 0 21 -7q12 -9 12 -37q0 -17 -8 -30.5t-23 -13.5q-27 0 -34 10 q-12 18 -12 39q0 13 7.5 25.5t19.5 12.5q2 0 8 0.5t9 0.5z"/>
<glyph glyph-name="igrave" horiz-adv-x="192" unicode="" d="M100 539q39 0 39 -13q0 -4 2.5 -15.5t2.5 -14.5q0 -14 -5.5 -40.5t-6.5 -34.5q-7 -53 -7 -99q0 -4 -3.5 -45.5t-3.5 -57.5t2.5 -57.5t2.5 -64.5q0 -14 -1 -41.5t-1 -35.5q0 -12 -6 -16t-23 -4q-42 0 -42 18l2 34q1 33 1 48q0 18 -2.5 58.5t-2.5 59.5q0 4 4 48t4 59 q0 17 2 45.5t2 45.5q0 15 6 41t6 41q0 10 -1 19l-1 9q0 13 30 13zM73 777q6 0 29 -41q9 -16 15 -27q6 -10 19 -46q5 -13 5 -21q0 -12 -17 -21q-22 -11 -24 -11q-5 0 -12 9.5t-10 20.5q-2 6 -15 33q-2 5 -9.5 22t-12.5 24q-12 20 -12 33q0 12 19 17q1 0 5 2.5t9 4t11 1.5z "/>
<glyph glyph-name="iacute" horiz-adv-x="192" unicode="" d="M100 539q39 0 39 -13q0 -4 2.5 -15.5t2.5 -14.5q0 -14 -5.5 -40.5t-6.5 -34.5q-7 -53 -7 -99q0 -4 -3.5 -45.5t-3.5 -57.5t2.5 -57.5t2.5 -64.5q0 -14 -1 -41.5t-1 -35.5q0 -12 -6 -16t-23 -4q-42 0 -42 18l2 34q1 33 1 48q0 18 -2.5 58.5t-2.5 59.5q0 4 4 48t4 59 q0 17 2 45.5t2 45.5q0 15 6 41t6 41q0 10 -1 19l-1 9q0 13 30 13zM152 777q6 0 11 -1.5t9 -4t5 -2.5q19 -5 19 -17q0 -13 -12 -33q-5 -7 -12.5 -24t-9.5 -22q-13 -27 -15 -33q-3 -11 -10 -20.5t-12 -9.5q-2 0 -24 11q-17 9 -17 21q0 8 5 21q13 36 19 46q37 65 41 67q1 1 3 1 z"/>
<glyph glyph-name="icircumflex" horiz-adv-x="192" unicode="" d="M100 539q39 0 39 -13q0 -4 2.5 -15.5t2.5 -14.5q0 -14 -5.5 -40.5t-6.5 -34.5q-7 -53 -7 -99q0 -4 -3.5 -45.5t-3.5 -57.5t2.5 -57.5t2.5 -64.5q0 -14 -1 -41.5t-1 -35.5q0 -12 -6 -16t-23 -4q-42 0 -42 18l2 34q1 33 1 48q0 18 -2.5 58.5t-2.5 59.5q0 4 4 48t4 59 q0 17 2 45.5t2 45.5q0 15 6 41t6 41q0 10 -1 19l-1 9q0 13 30 13zM104 767l21 -1q12 0 22 -25q7 -19 11 -25t8.5 -15.5t6.5 -12.5q27 -42 27 -70q0 -5 -15.5 -9t-23.5 -4q-6 0 -13 5.5t-9 12.5q-3 9 -15.5 33t-14.5 24q-4 0 -16.5 -20.5t-19.5 -35.5q-8 -15 -25 -15 q-7 0 -20.5 12t-13.5 17q0 6 14 27l29 46q18 23 27 37q10 19 20 19z"/>
<glyph glyph-name="idieresis" horiz-adv-x="192" unicode="" d="M100 539q39 0 39 -13q0 -4 2.5 -15.5t2.5 -14.5q0 -14 -5.5 -40.5t-6.5 -34.5q-7 -53 -7 -99q0 -4 -3.5 -45.5t-3.5 -57.5t2.5 -57.5t2.5 -64.5q0 -14 -1 -41.5t-1 -35.5q0 -12 -6 -16t-23 -4q-42 0 -42 18l2 34q1 33 1 48q0 18 -2.5 58.5t-2.5 59.5q0 4 4 48t4 59 q0 17 2 45.5t2 45.5q0 15 6 41t6 41q0 10 -1 19l-1 9q0 13 30 13zM157 718q27 0 33 -9q8 -12 8 -39q0 -14 -6.5 -27t-18.5 -13q-21 0 -35 8q-12 9 -12 37q0 17 8 30t23 13zM50 721q10 0 21 -7q12 -9 12 -37q0 -17 -8 -30.5t-23 -13.5q-23 0 -30 10q-12 18 -12 39q0 16 9 28 q7 11 31 11z"/>
<glyph glyph-name="eth" horiz-adv-x="407" unicode="" d="M183 464q-11 0 -31 -17q-17 -15 -28 -43q-15 -39 -17 -90q0 -3 -3.5 -48t-3.5 -60q0 -11 6.5 -42t11.5 -45q11 -30 32 -46q19 -13 53 -13q18 0 37 7q10 5 15 11q19 35 25 61q8 32 8 62q0 25 4 67q0 8 1.5 25t1.5 26v6l-3 45q-5 46 -9 56q-1 3 -32 20q-33 18 -68 18z M242 755q8 0 24 -10.5t16 -18.5l-18 -36l-8 -17q0 -3 5 -8q34 -39 38 -47q36 -65 43 -104q2 -11 16 -98q9 -55 9 -111q0 -19 -4 -52.5t-5 -45.5q-4 -81 -15 -111q-24 -65 -58 -85t-80 -20q-22 0 -56 4q-32 6 -57 31.5t-37 58.5q-25 84 -25 115q0 45 1 68l7 78q6 64 21 95 q18 37 56 67q39 26 61 26q32 0 64 -10q21 -7 24 -7q1 1 0.5 6t-2.5 11q-2 12 -16 36q-21 37 -23 37q-3 0 -12 -18q-10 -20 -17 -20q-9 0 -14 2q-3 1 -8.5 3.5t-7.5 3.5q-1 1 -4.5 2.5t-5.5 3t-4 4t-2 5.5q0 8 9.5 31t9.5 24q-7 2 -37 7q-5 1 -15.5 2t-18 2t-9.5 2 q-7 4 -7 24q0 26 11 33q7 4 17 4h10.5h11.5h9q20 -1 47 -8q12 -3 14 -3q6 8 7 10q5 10 11 17q13 17 24 17z"/>
<glyph glyph-name="ntilde" horiz-adv-x="396" unicode="" d="M97 566q21 0 36 -8q1 -4 2.5 -13t2.5 -16t2 -7l3 2q3 3 9 6t13.5 6t19.5 5.5t25 2.5q29 0 47 -6q42 -14 67 -76q7 -18 17 -64t10 -85q0 -9 -3.5 -39t-3.5 -43q0 -8 3.5 -72t3.5 -78q0 -13 0.5 -31t0.5 -25q0 -14 -5 -21q-6 -8 -49 -8q-18 0 -18 14q1 18 1 51t-3 87t-3 86 q0 14 4 42t4 42t-6.5 53.5t-9.5 46.5q-14 42 -24 50q-9 7 -35 7q-15 0 -33 -12t-28.5 -23t-12.5 -15q-9 -19 -11 -51q0 -16 -2.5 -56t-2.5 -62q0 -23 3.5 -79t3.5 -66q0 -13 -0.5 -37.5t-0.5 -36.5t-0.5 -18t-5.5 -12.5t-14 -6.5q-32 0 -41.5 3t-9.5 13q0 6 1 31.5t1 47.5 l-6 108q-1 18 -1 53q0 73 9 138t9 113q0 47 8 52q12 7 23 7zM290 730q10 0 23.5 -7t13.5 -12q0 -19 -11 -37q-17 -27 -29 -36.5t-29 -9.5q-47 0 -68 18q-1 1 -6 5.5t-9 8t-9.5 6.5t-8.5 3q-11 0 -21 -30q0 -1 -0.5 -3t-1 -2t-1.5 -1.5t-3 -1.5t-5 -0.5t-8 -0.5q-20 0 -32 10 q-4 3 -4 18q0 20 25 48q19 21 47 21q25 0 54 -24q20 -17 39 -17q12 0 23 33q4 11 21 11z"/>
<glyph glyph-name="ograve" horiz-adv-x="389" unicode="" d="M198 484q-7 0 -13.5 -1.5t-10.5 -3.5t-10.5 -6t-10.5 -6q-7 -3 -12.5 -8.5t-9.5 -15.5t-6 -14.5t-6 -19.5t-5 -18q-14 -51 -14 -142q0 -22 8.5 -62.5t19.5 -66.5q5 -12 27 -43q10 -14 14 -17q15 -10 28 -10q34 0 53 16q25 22 34 99q5 40 5 94q0 6 -0.5 17.5t-0.5 16.5 q0 99 -33 169q-17 22 -57 22zM187 553q80 0 110 -28q24 -22 42.5 -96t18.5 -135q0 -10 0.5 -30t0.5 -31q0 -44 -4 -76q-5 -46 -28.5 -94.5t-45.5 -58.5q-47 -21 -80 -21q-24 0 -50.5 9.5t-41.5 27.5q-6 6 -22 35q-25 42 -28 49q-29 70 -29 146q0 122 20 169q2 5 9.5 26 t13 34t16.5 27.5t23 18.5q6 2 19.5 9.5t27.5 13t28 5.5zM130 776q6 0 14 -13q7 -13 20.5 -31.5t15.5 -22.5q21 -36 25 -47q4 -10 4 -18q0 -4 -9.5 -14t-15.5 -13q-14 -7 -17 -7q-5 0 -12 9.5t-10 20.5q-2 9 -10.5 19.5t-10.5 14.5q-6 12 -28 45q-12 20 -12 33q0 12 25 17 q1 0 7 3.5t14 3.5z"/>
<glyph glyph-name="oacute" horiz-adv-x="389" unicode="" d="M198 484q-7 0 -13.5 -1.5t-10.5 -3.5t-10.5 -6t-10.5 -6q-7 -3 -12.5 -8.5t-9.5 -15.5t-6 -14.5t-6 -19.5t-5 -18q-14 -51 -14 -142q0 -22 8.5 -62.5t19.5 -66.5q5 -12 27 -43q10 -14 14 -17q15 -10 28 -10q34 0 53 16q25 22 34 99q5 40 5 94q0 6 -0.5 17.5t-0.5 16.5 q0 99 -33 169q-17 22 -57 22zM187 553q80 0 110 -28q24 -22 42.5 -96t18.5 -135q0 -10 0.5 -30t0.5 -31q0 -44 -4 -76q-5 -46 -28.5 -94.5t-45.5 -58.5q-47 -21 -80 -21q-24 0 -50.5 9.5t-41.5 27.5q-6 6 -22 35q-25 42 -28 49q-29 70 -29 146q0 122 20 169q2 5 9.5 26 t13 34t16.5 27.5t23 18.5q6 2 19.5 9.5t27.5 13t28 5.5zM254 777q8 0 14 -3.5t7 -3.5q25 -5 25 -17q0 -13 -12 -33q-22 -33 -28 -45q-2 -4 -10.5 -14.5t-10.5 -19.5q-3 -11 -10 -20.5t-12 -9.5q-3 0 -17 7q-6 3 -15.5 13t-9.5 14q0 8 4 18q4 11 25 47q2 4 15.5 22.5 t20.5 31.5q8 13 14 13z"/>
<glyph glyph-name="ocircumflex" horiz-adv-x="389" unicode="" d="M198 484q-7 0 -13.5 -1.5t-10.5 -3.5t-10.5 -6t-10.5 -6q-7 -3 -12.5 -8.5t-9.5 -15.5t-6 -14.5t-6 -19.5t-5 -18q-14 -51 -14 -142q0 -22 8.5 -62.5t19.5 -66.5q5 -12 27 -43q10 -14 14 -17q15 -10 28 -10q34 0 53 16q25 22 34 99q5 40 5 94q0 6 -0.5 17.5t-0.5 16.5 q0 99 -33 169q-17 22 -57 22zM187 553q80 0 110 -28q24 -22 42.5 -96t18.5 -135q0 -10 0.5 -30t0.5 -31q0 -44 -4 -76q-5 -46 -28.5 -94.5t-45.5 -58.5q-47 -21 -80 -21q-24 0 -50.5 9.5t-41.5 27.5q-6 6 -22 35q-25 42 -28 49q-29 70 -29 146q0 122 20 169q2 5 9.5 26 t13 34t16.5 27.5t23 18.5q6 2 19.5 9.5t27.5 13t28 5.5zM206 765h14q14 0 24 -24q3 -13 16 -33q1 -2 6.5 -12t9.5 -15q25 -33 25 -53q0 -5 -16 -15.5t-21 -10.5q-18 0 -24 17q-4 9 -17.5 31.5t-15.5 22.5q-5 0 -39 -53q-8 -14 -26 -14q-6 0 -21 15t-15 21q0 1 2.5 3.5t6.5 6 t7 7.5q7 8 18 26l12 18l34 44q13 18 20 18z"/>
<glyph glyph-name="otilde" horiz-adv-x="389" unicode="" d="M198 484q-7 0 -13.5 -1.5t-10.5 -3.5t-10.5 -6t-10.5 -6q-7 -3 -12.5 -8.5t-9.5 -15.5t-6 -14.5t-6 -19.5t-5 -18q-14 -51 -14 -142q0 -22 8.5 -62.5t19.5 -66.5q5 -12 27 -43q10 -14 14 -17q15 -10 28 -10q34 0 53 16q25 22 34 99q5 40 5 94q0 6 -0.5 17.5t-0.5 16.5 q0 99 -33 169q-17 22 -57 22zM187 553q80 0 110 -28q24 -22 42.5 -96t18.5 -135q0 -10 0.5 -30t0.5 -31q0 -44 -4 -76q-5 -46 -28.5 -94.5t-45.5 -58.5q-47 -21 -80 -21q-24 0 -50.5 9.5t-41.5 27.5q-6 6 -22 35q-25 42 -28 49q-29 70 -29 146q0 122 20 169q2 5 9.5 26 t13 34t16.5 27.5t23 18.5q6 2 19.5 9.5t27.5 13t28 5.5zM280 730q10 0 23.5 -7t13.5 -12q0 -19 -11 -37q-17 -27 -29 -36.5t-29 -9.5q-47 0 -68 18q-1 1 -6 5.5t-9 8t-9.5 6.5t-8.5 3q-11 0 -21 -30q0 -1 -0.5 -3t-1 -2t-1.5 -1.5t-3 -1.5t-5 -0.5t-8 -0.5q-20 0 -32 10 q-4 3 -4 18q0 20 25 48q19 21 47 21q25 0 54 -24q20 -17 39 -17q12 0 23 33q4 11 21 11z"/>
<glyph glyph-name="odieresis" horiz-adv-x="389" unicode="" d="M198 484q-7 0 -13.5 -1.5t-10.5 -3.5t-10.5 -6t-10.5 -6q-7 -3 -12.5 -8.5t-9.5 -15.5t-6 -14.5t-6 -19.5t-5 -18q-14 -51 -14 -142q0 -22 8.5 -62.5t19.5 -66.5q5 -12 27 -43q10 -14 14 -17q15 -10 28 -10q34 0 53 16q25 22 34 99q5 40 5 94q0 6 -0.5 17.5t-0.5 16.5 q0 99 -33 169q-17 22 -57 22zM187 553q80 0 110 -28q24 -22 42.5 -96t18.5 -135q0 -10 0.5 -30t0.5 -31q0 -44 -4 -76q-5 -46 -28.5 -94.5t-45.5 -58.5q-47 -21 -80 -21q-24 0 -50.5 9.5t-41.5 27.5q-6 6 -22 35q-25 42 -28 49q-29 70 -29 146q0 122 20 169q2 5 9.5 26 t13 34t16.5 27.5t23 18.5q6 2 19.5 9.5t27.5 13t28 5.5zM284 719q30 0 36 -9q8 -12 8 -39q0 -15 -6.5 -27.5t-18.5 -12.5q-24 0 -38 8q-12 9 -12 37q0 17 8 30t23 13zM135 722q10 0 21 -7q12 -9 12 -37q0 -17 -8 -30.5t-23 -13.5q-27 0 -34 10q-12 18 -12 39q0 13 7.5 25.5 t19.5 12.5q2 0 8 0.5t9 0.5z"/>
<glyph glyph-name="divide" horiz-adv-x="406" unicode="" d="M203 240q27 0 36 -11q9 -12 9 -27q0 -46 -9 -52q-13 -8 -34 -8q-16 0 -27 11q-8 8 -8 26l-1 25q0 16 6 24q9 12 28 12zM43 388q25 0 57 -3t34 -3q17 0 42 -0.5t34 -0.5q11 0 38 -2.5t41 -2.5q11 0 40.5 2t36.5 2q10 0 10 -51q0 -12 -8 -17q-9 -6 -78 -6q-5 0 -40.5 3.5 t-41.5 3.5q-22 0 -45.5 -0.5t-39 -0.5h-18.5q-10 0 -29.5 3t-29.5 3q-16 3 -16 43q0 12 4.5 19.5t8.5 7.5zM210 575q22 0 29 -15q9 -20 9 -34q0 -25 -8.5 -36t-31.5 -11q-25 0 -35.5 8.5t-10.5 35.5q0 38 22 47q13 5 26 5z"/>
<glyph glyph-name="oslash" horiz-adv-x="389" unicode="" d="M284 165q5 40 5 94q0 6 -0.5 17.5t-0.5 16.5q0 89 -29 159q-22 -70 -26 -115q-13 -97 -30 -157q-2 -12 -5.5 -38t-6.5 -37q-3 -15 -15 -49q10 -6 21 -6q34 0 53 16q25 22 34 99zM114 391q-14 -51 -14 -142q0 -56 25 -122l3 11q8 56 15 85q4 18 13 68t10 53q7 37 12 79 q1 10 19 61q-9 0 -15 -2t-16 -8t-13 -7q-7 -3 -12.5 -8.5t-9.5 -15.5t-6 -14.5t-6 -19.5t-5 -18zM358 294q0 -10 0.5 -30t0.5 -31q0 -44 -4 -76q-5 -46 -28.5 -94.5t-45.5 -58.5q-47 -21 -80 -21q-22 0 -43 7l-3 -11q-7 -23 -18 -23t-30.5 13.5t-19.5 19.5q0 23 10 48 l-10 18q-25 42 -28 49q-29 70 -29 146q0 122 20 169q2 5 9.5 26t13 34t16.5 27.5t23 18.5q6 2 19.5 9.5t27.5 13t28 5.5q10 0 36 -2q16 37 18 37q1 0 9 1.5t16 1.5t20 -8.5t12 -13.5q0 -6 -11 -36q4 -2 10 -8q24 -22 42.5 -96t18.5 -135z"/>
<glyph glyph-name="ugrave" d="M303 549q26 0 31 -8q9 -13 9 -34q-4 -62 -7 -75q-6 -34 -6 -83q0 -20 2 -68.5t2 -67.5q0 -92 -16 -138q-10 -29 -36 -50q-41 -35 -128 -35q-42 3 -66.5 36.5t-29.5 65.5q-8 48 -10 129q0 10 -2.5 36t-2.5 40q0 10 3.5 31.5t3.5 33.5q0 32 -4 87.5t-4 56.5q0 16 5 31 q3 10 34 10q7 0 18.5 -4t12.5 -8q1 -2 1 -19v-26q0 -1 3.5 -45t3.5 -85q0 -10 -3 -34t-3 -33q0 -11 2 -31t2 -26q0 -18 3.5 -56t3.5 -48q0 -16 7.5 -44.5t18.5 -28.5q66 0 88 21q25 24 25 143q0 16 -2 63.5t-2 61.5q0 42 3 75q8 67 8 73q0 7 -2.5 21t-2.5 21q0 3 14 7t23 4z M131 776q6 0 14 -13q7 -13 20.5 -31.5t15.5 -22.5q21 -36 25 -47q4 -10 4 -18q0 -4 -9.5 -14t-15.5 -13q-14 -7 -17 -7q-5 0 -12 9.5t-10 20.5q-2 9 -10.5 19.5t-10.5 14.5q-6 12 -28 45q-12 20 -12 33q0 12 25 17q1 0 7 3.5t14 3.5z" unicode=""/>
<glyph glyph-name="uacute" d="M303 549q26 0 31 -8q9 -13 9 -34q-4 -62 -7 -75q-6 -34 -6 -83q0 -20 2 -68.5t2 -67.5q0 -92 -16 -138q-10 -29 -36 -50q-41 -35 -128 -35q-42 3 -66.5 36.5t-29.5 65.5q-8 48 -10 129q0 10 -2.5 36t-2.5 40q0 10 3.5 31.5t3.5 33.5q0 32 -4 87.5t-4 56.5q0 16 5 31 q3 10 34 10q7 0 18.5 -4t12.5 -8q1 -2 1 -19v-26q0 -1 3.5 -45t3.5 -85q0 -10 -3 -34t-3 -33q0 -11 2 -31t2 -26q0 -18 3.5 -56t3.5 -48q0 -16 7.5 -44.5t18.5 -28.5q66 0 88 21q25 24 25 143q0 16 -2 63.5t-2 61.5q0 42 3 75q8 67 8 73q0 7 -2.5 21t-2.5 21q0 3 14 7t23 4z M255 777q8 0 14 -3.5t7 -3.5q25 -5 25 -17q0 -13 -12 -33q-22 -33 -28 -45q-2 -4 -10.5 -14.5t-10.5 -19.5q-3 -11 -10 -20.5t-12 -9.5q-3 0 -17 7q-6 3 -15.5 13t-9.5 14q0 8 4 18q4 11 25 47q2 4 15.5 22.5t20.5 31.5q8 13 14 13z" unicode=""/>
<glyph glyph-name="ucircumflex" d="M303 549q26 0 31 -8q9 -13 9 -34q-4 -62 -7 -75q-6 -34 -6 -83q0 -20 2 -68.5t2 -67.5q0 -92 -16 -138q-10 -29 -36 -50q-41 -35 -128 -35q-42 3 -66.5 36.5t-29.5 65.5q-8 48 -10 129q0 10 -2.5 36t-2.5 40q0 10 3.5 31.5t3.5 33.5q0 32 -4 87.5t-4 56.5q0 16 5 31 q3 10 34 10q7 0 18.5 -4t12.5 -8q1 -2 1 -19v-26q0 -1 3.5 -45t3.5 -85q0 -10 -3 -34t-3 -33q0 -11 2 -31t2 -26q0 -18 3.5 -56t3.5 -48q0 -16 7.5 -44.5t18.5 -28.5q66 0 88 21q25 24 25 143q0 16 -2 63.5t-2 61.5q0 42 3 75q8 67 8 73q0 7 -2.5 21t-2.5 21q0 3 14 7t23 4z M207 765h14q13 0 24 -24q3 -13 16 -33q1 -2 6.5 -12t9.5 -15q25 -33 25 -53q0 -5 -16 -15.5t-21 -10.5q-18 0 -24 17q-4 9 -17.5 31.5t-15.5 22.5q-5 0 -39 -53q-8 -14 -26 -14q-6 0 -21 15t-15 21q0 1 2.5 3.5t6.5 6t7 7.5q7 8 19 26l11 18l34 44q13 18 20 18z" unicode=""/>
<glyph glyph-name="udieresis" d="M303 549q26 0 31 -8q9 -13 9 -34q-4 -62 -7 -75q-6 -34 -6 -83q0 -20 2 -68.5t2 -67.5q0 -92 -16 -138q-10 -29 -36 -50q-41 -35 -128 -35q-42 3 -66.5 36.5t-29.5 65.5q-8 48 -10 129q0 10 -2.5 36t-2.5 40q0 10 3.5 31.5t3.5 33.5q0 32 -4 87.5t-4 56.5q0 16 5 31 q3 10 34 10q7 0 18.5 -4t12.5 -8q1 -2 1 -19v-26q0 -1 3.5 -45t3.5 -85q0 -10 -3 -34t-3 -33q0 -11 2 -31t2 -26q0 -18 3.5 -56t3.5 -48q0 -16 7.5 -44.5t18.5 -28.5q66 0 88 21q25 24 25 143q0 16 -2 63.5t-2 61.5q0 42 3 75q8 67 8 73q0 7 -2.5 21t-2.5 21q0 3 14 7t23 4z M285 719q30 0 36 -9q8 -12 8 -39q0 -15 -6.5 -27.5t-18.5 -12.5q-24 0 -38 8q-12 9 -12 37q0 17 8 30t23 13zM136 722q10 0 21 -7q12 -9 12 -37q0 -17 -8 -30.5t-23 -13.5q-27 0 -34 10q-12 18 -12 39q0 13 7.5 25.5t19.5 12.5q2 0 8 0.5t9 0.5z" unicode=""/>
<glyph glyph-name="yacute" horiz-adv-x="401" unicode="" d="M312 541q28 0 34 -8q5 -7 5 -13t1 -22t1 -23q0 -5 -3 -43t-3 -44q0 -17 2.5 -62t2.5 -71q0 -29 -2 -75q0 -11 -1.5 -22t-3 -18t-1.5 -8q0 -7 2 -47t2 -42q0 -7 -8 -68q-12 -87 -24 -111q-11 -22 -44 -46t-67 -24q-10 0 -17 20q-7 21 -7 32q0 9 17 15q13 4 30.5 15 t21.5 19t13 49t9 51l-1 2q-1 0 -16.5 -5.5t-36.5 -10.5t-34 -5q-31 0 -66 20t-47 46q-2 5 -9.5 19.5t-9.5 21t-4.5 23.5t-2.5 40q0 26 4 98t4 79q0 69 -7 167q0 5 -1 14.5t-2 17t-1 9.5q0 9 17 9q33 0 42 -6q3 -2 8 -15.5t6 -23.5q3 -30 3 -59q0 -15 3 -54.5t3 -54.5 t-4.5 -101t-4.5 -99q0 -18 23.5 -50t44.5 -32q12 0 40.5 10t34.5 19q11 17 13 39q0 9 8 62q2 16 2 48t-3 91t-3 62q0 6 4 45t4 56q0 4 -0.5 16.5t-0.5 18.5q0 18 3 20q15 9 27 9zM257 777q8 0 14 -3.5t7 -3.5q25 -5 25 -17q0 -13 -12 -33q-22 -33 -28 -45q-2 -4 -10.5 -14.5 t-10.5 -19.5q-3 -11 -10 -20.5t-12 -9.5q-3 0 -17 7q-6 3 -15.5 13t-9.5 14q0 8 4 18q4 11 25 47q2 4 15.5 22.5t20.5 31.5q8 13 14 13z"/>
<glyph glyph-name="thorn" horiz-adv-x="374" unicode="" d="M188 481q-13 0 -31 -4q-1 0 -5 -1t-7 -2t-4 -2q-3 -3 -3 -49q-1 -20 -2.5 -42t-3.5 -48.5t-3 -41.5q-1 -7 -7 -56.5t-6 -70.5q0 -17 1 -46t1 -45q0 -5 22.5 -10.5t39.5 -5.5q18 0 33 3q7 2 13 5t10.5 6.5t8 10t5.5 9.5t4.5 12t3 12t2.5 13t2 12q0 1 6 71l4 66 q0 3 0.5 8.5t0.5 8.5q0 8 -11 93q-3 14 -24 68q-10 19 -17 22q-9 4 -33 4zM92 709q25 0 29 -10q6 -16 6 -38q0 -6 2.5 -21.5t2.5 -23.5q0 -4 -0.5 -12t-0.5 -12q0 -31 7 -45q1 -2 19 1q27 3 40 3q28 0 55 -12q24 -11 38 -32q20 -35 31 -72q23 -77 23 -122q0 -39 -2 -59 q-3 -29 -5 -87q-1 -26 -8 -58l-7 -27q-5 -28 -22 -52.5t-43 -33.5q-29 -8 -75 -8q-18 0 -36.5 3.5t-19.5 3.5l-1 -1h-2q-3 -2 -3 -43v-37v-40q0 -27 -1 -31q-3 -9 -34 -9q-22 0 -27 5t-5 24v62q0 21 -2.5 61.5t-2.5 61.5v113q0 36 15 188q7 96 7 124q0 35 -4 63q0 7 -3 26.5 t-3 29.5q0 27 -2 49.5t-2 26.5q0 29 6 33q13 8 30 8z"/>
<glyph glyph-name="OE" horiz-adv-x="642" unicode="" d="M229 663q-41 0 -63 -42l-24 -45q-28 -52 -28 -136q0 -18 -4.5 -73.5t-4.5 -83.5q0 -67 16 -124q9 -32 44 -83q21 -27 63 -27q34 0 65 46t37 68q2 27 3.5 68.5t2.5 50.5q0 6 3 38t3 46q0 22 1 58t1 49q0 49 -9 81q-13 45 -21 59q-7 12 -36.5 30.5t-48.5 19.5zM235 730 q12 0 28 -6t30.5 -14t27.5 -16t21 -14l9 -6q1 0 2.5 3t3.5 7.5t3 6.5q10 17 16 17q41 0 68 -2q6 -1 23 -3.5t24 -2.5q17 0 39.5 2t23.5 2q4 0 22 -1t20 -1q15 0 15 -32q0 -17 -5 -23.5t-19 -8.5q-57 -9 -69 -9q-14 0 -62 6q-2 0 -13 0.5t-17 0.5q-19 0 -22 -3q-1 -1 -1 -7 q0 -7 4 -43q4 -38 4 -61q0 -4 -1.5 -20t-1.5 -23q0 -43 6 -46q3 -1 11 -1q11 0 36 3.5t33 3.5q12 0 35 2t35 2q30 0 30 -14q0 -31 -5 -40q-6 -11 -32 -16q-7 -1 -66 -4q-55 -5 -57 -5q-17 0 -17 -5q0 -3 -4 -19.5t-4 -24.5q0 -16 -2.5 -48t-2.5 -38q0 -5 4 -43t4 -57v-28 q0 -28 2 -30q3 -4 25 -4q4 0 26.5 3.5t40.5 3.5q8 0 24 1t24 1q42 0 49 -7q14 -14 14 -28q0 -9 -6 -24.5t-10 -15.5q-6 0 -31.5 2t-36.5 2q-5 0 -52 -5q-24 -3 -72 -3q-55 0 -61 14q-7 16 -9 35q-56 -66 -109 -66q-49 0 -96 27q-17 10 -42 50.5t-31 64.5q-26 98 -26 161 q0 27 4.5 82.5t4.5 75.5q0 99 38 176q17 37 38 61q51 51 115 52z"/>
<glyph glyph-name="oe" horiz-adv-x="609" unicode="" d="M171 482q-22 0 -49 -55q-28 -57 -28 -123q0 -40 7.5 -115.5t20.5 -93.5q30 -38 51 -38q13 0 37 8t31 20q12 18 19 73q11 77 11 111q0 58 -15 150q-5 29 -29 46t-56 17zM463 485q-65 0 -102 -75q-16 -33 -16 -60q0 -3 0.5 -8t0.5 -6q0 -5 15 -8t39.5 -5t37.5 -5 q24 -6 53 -6q19 0 24 4.5t5 26.5q0 23 -6 56.5t-11 44.5q-6 19 -20 35q-6 6 -20 6zM469 553q30 0 48.5 -11t35.5 -39q13 -23 22 -76t9 -99q0 -38 -10 -56q-5 -9 -25 -18t-47 -9q-55 0 -79 5q-47 11 -72 11q-5 0 -6.5 -2.5t-1.5 -11.5q0 -1 4 -49q2 -46 21 -93 q7 -25 29.5 -41.5t48.5 -16.5q20 0 49 4.5t45 4.5q9 0 17.5 -13t9.5 -23q0 -16 -15 -28q-7 -6 -37.5 -10.5t-57.5 -4.5q-69 2 -105 33q-8 6 -18 19.5t-17 23t-8 9.5q-6 -16 -21 -35q-10 -13 -47 -26.5t-68 -13.5q-67 0 -109 65q-21 32 -30 118t-9 133q0 24 10 76t26 85 q45 89 106 89q48 0 79 -13q27 -12 44 -35q4 -5 10 -14l10 -15t6 -6l4 6q18 29 65 52.5t84 24.5z"/>
<glyph glyph-name="Scaron" horiz-adv-x="366" unicode="" d="M181 727q78 0 124 -44q27 -21 29 -44q0 -4 -5 -19q-10 -29 -27 -29q-3 0 -11.5 7.5t-11.5 12.5q-12 17 -29 29q-24 17 -61 17q-39 0 -64 -19q-7 -6 -12 -40q-12 -60 -12 -62q0 -27 4.5 -41t21.5 -31q24 -23 66 -44q24 -13 63 -42.5t48 -43.5q10 -16 21 -52.5t11 -60.5 q0 -61 -14 -112q-20 -71 -51 -95q-38 -30 -106 -30q-42 0 -57 8q-88 46 -88 126q0 10 0.5 26.5t0.5 19.5q0 15 23 23q12 4 28 4q8 0 13.5 -6.5t5.5 -16.5q0 -7 -1 -19.5t-1 -17.5q0 -2 0.5 -5.5t0.5 -5.5q2 -15 4.5 -22t10 -17.5t22.5 -21.5q7 -5 22 -5h15q50 0 73 24 q8 11 20 53q9 31 9 89q0 34 -24 80q-13 25 -91 65q-64 39 -76 53q-19 22 -31.5 55.5t-12.5 59.5q0 29 13 83q11 50 22 63q17 19 50.5 33.5t64.5 14.5zM103 919q13 0 28 -11q3 -2 26 -31q20 -26 23 -26q1 0 22 18l35 31q4 4 16 10.5t18 6.5q10 0 23 -13q6 -6 6 -16 q0 -13 -10 -20q-4 -3 -13.5 -11.5t-21.5 -19.5t-18 -16q-43 -40 -57 -40q-20 0 -49 33q-2 3 -29 40l-21 14q-9 9 -9 17q0 4 10 24q5 10 21 10z"/>
<glyph glyph-name="scaron" horiz-adv-x="332" unicode="" d="M188 563q29 0 57.5 -18t46.5 -47q10 -17 10 -26q0 -5 -1 -7.5t-2.5 -3.5t-5 -2t-5.5 -2q-3 -1 -10.5 -5.5t-14 -7.5t-10.5 -3q-12 0 -19 16q-7 15 -19.5 26t-27.5 11q-22 0 -51 -13.5t-29 -35.5q0 -14 7 -40q6 -19 15 -35t15.5 -24t21.5 -24q1 -1 26 -22t46 -46.5 t33 -54.5q17 -40 17 -75q-2 -31 -11 -52q-15 -35 -42.5 -61.5t-52.5 -26.5t-60 6.5t-50 17.5q-14 12 -31 44q-26 45 -29 68q7 21 26 26q16 5 22 5q12 0 26 -33q12 -36 36 -56q22 -9 50 -9q14 0 30 26t16 44q0 20 -15 60q-4 10 -15.5 23.5t-21.5 22.5t-24.5 21t-16.5 13 q-24 20 -48.5 59t-32.5 73t-8 51q0 29 27 61.5t52 42.5q31 13 73 13zM103 749q13 0 28 -11q3 -2 26 -31q20 -26 23 -26q1 0 22 18l35 31q4 4 16 10.5t18 6.5q10 0 23 -13q6 -6 6 -16q0 -13 -10 -20q-4 -3 -13.5 -11.5t-21.5 -19.5t-18 -16q-43 -40 -57 -40q-20 0 -49 33 q-2 3 -29 40l-21 14q-9 9 -9 17q0 4 10 24q5 10 21 10z"/>
<glyph glyph-name="Ydieresis" horiz-adv-x="399" unicode="" d="M55 719q26 0 31 -13q2 -5 7 -18t9.5 -24.5t4.5 -14.5l10 -48q0 -1 11 -34.5t16 -54.5q15 -43 29 -64q3 -5 22 -29q30 -39 31 -39q6 0 22 66q4 29 29 124q19 58 20 65q2 8 5 24t5.5 28t3.5 15q4 10 39 10q29 0 29 -20q0 -24 -37 -153q-5 -16 -11.5 -47t-8.5 -39 q-7 -31 -11 -43q-5 -14 -15.5 -44.5t-16.5 -47.5q-4 -16 -14 -46q-31 -101 -35 -106q-16 -19 -41 -109q-2 -8 -5.5 -26.5t-4.5 -21.5q-3 -10 -29 -10q-39 0 -39 18q0 6 8 43q8 36 13 48q4 9 10 28t12 35t13 29q2 4 17 49q14 45 14 52q0 2 -42 53q-4 5 -15 21t-17 24 q-24 30 -28 38t-20 61q-25 81 -37 134q-1 3 -6 16t-9 27.5t-4 23.5q0 20 35 20zM292 867q30 0 36 -9q8 -12 8 -39q0 -15 -6.5 -27.5t-18.5 -12.5q-24 0 -38 8q-12 9 -12 37q0 17 8 30t23 13zM143 870q10 0 21 -7q12 -9 12 -37q0 -17 -8 -30.5t-23 -13.5q-27 0 -34 10 q-12 18 -12 39q0 13 7.5 25.5t19.5 12.5q2 0 8 0.5t9 0.5z"/>
<glyph glyph-name="circumflex" horiz-adv-x="245" unicode="" d="M125 765h14q13 0 24 -24q3 -13 16 -33q1 -2 6.5 -12t9.5 -15q25 -33 25 -53q0 -5 -16 -15.5t-21 -10.5q-18 0 -24 17q-4 9 -17.5 31.5t-15.5 22.5q-5 0 -39 -53q-8 -14 -26 -14q-6 0 -21 15t-15 21q0 1 2.5 3.5t6.5 6t7 7.5q7 8 19 26l11 18l34 44q13 18 20 18z"/>
<glyph glyph-name="tilde" horiz-adv-x="296" unicode="" d="M234 730q10 0 23.5 -7t13.5 -12q0 -19 -11 -37q-17 -27 -29 -36.5t-29 -9.5q-47 0 -68 18q-1 1 -6 5.5t-9 8t-9.5 6.5t-8.5 3q-11 0 -21 -30q0 -1 -0.5 -3t-1 -2t-1.5 -1.5t-3 -1.5t-5 -0.5t-8 -0.5q-20 0 -32 10q-4 3 -4 18q0 20 25 48q19 21 47 21q25 0 54 -24 q20 -17 39 -17q12 0 23 33q4 11 21 11z"/>
<glyph glyph-name="Delta" horiz-adv-x="519" unicode="" d="M251 589q-1 0 -8 -15l-27 -86l-3.5 -10.5t-5.5 -17.5t-4 -15q-20 -67 -39 -121l-42 -123q-4 -9 -6.5 -20.5t-4.5 -25.5t-4 -21q-2 -12 -10 -34q-8 -24 -8 -30q0 -5 24 -3q48 5 87 5q61 0 110 -8q28 -5 54 -5q24 2 37 2q3 0 11 -1t12.5 -0.5t4.5 3.5q0 1 -9 30l-32 116 q-14 55 -19 73q-8 36 -18 59q-11 23 -21 75q-6 31 -25 68q-6 13 -19 37.5t-16 31.5q-2 6 -10 21t-9 15zM254 718q3 0 5 -2t5 -7t5 -8q38 -66 78 -143q46 -91 57 -141q10 -46 19 -71q5 -16 28 -96q3 -9 8.5 -29.5t7.5 -26.5q25 -83 37 -142q5 -25 5 -31q0 -18 -7 -24 q-9 -7 -37 -7q-7 0 -50 1t-64 1q-27 0 -85 7q-27 3 -52 3q-45 0 -81 -4q-18 -3 -58 -5h-13q-37 0 -43 6q-9 8 -9 29q0 19 16 75l13 54q14 57 21 76q2 5 24 73q10 29 23 64q4 12 8.5 26.5t9.5 32.5t8 28q14 47 48 149q3 10 10 35.5t12 39.5q10 26 18.5 31.5t32.5 5.5z"/>
<glyph glyph-name="mu" horiz-adv-x="400" unicode="" d="M101 542q18 0 18 -14v-12q0 -38 6 -96q8 -66 8 -182q0 -13 -3.5 -74.5t-3.5 -70.5q0 -8 39.5 -18.5t58.5 -10.5q22 0 29.5 4.5t14.5 26.5q14 45 14 72q0 25 2 57t2 43q0 9 -2 27t-2 21q-3 33 -3 63q0 17 1 49.5t1 48.5q0 7 -1 21t-1 17q0 15 11 22q3 3 15 3 q3 0 11.5 -0.5t12.5 -0.5q7 0 14 -7q8 -8 8 -66q0 -17 -1 -46.5t-1 -42.5q9 -83 9 -112q0 -16 -2.5 -38t-2.5 -29q0 -72 -20 -137q-10 -31 -33 -50t-49 -19q-22 0 -50 3t-47.5 6t-20.5 3q-3 -6 -3 -34q0 -14 -7 -69.5t-10 -70.5q-3 -11 -39 -11q-9 0 -17.5 4t-8.5 8 q0 12 5.5 77.5t5.5 84.5q0 20 -2.5 82.5t-2.5 70.5q0 14 3.5 49.5t3.5 47.5q0 149 -5 180q-7 44 -7 105q0 9 14 11q26 4 38 4z"/>
<glyph glyph-name="pi" horiz-adv-x="411" unicode="" d="M48 545q43 -6 122 -10q42 -2 73 -2q9 0 29 0.5t26 0.5q29 4 68 4q12 0 15 -7t3 -25q0 -7 -3 -21.5t-7 -14.5q-6 0 -22.5 -1.5t-23.5 -1.5q-18 0 -30 -3q-3 -1 -3 -15v-20v-94q0 -3 1.5 -29t2.5 -50q3 -66 7 -119q8 -61 20 -70q6 -4 35 -7q17 -2 23 -6q7 -5 7 -22 q0 -35 -11 -38q-3 -1 -27 -1h-10q-51 7 -64 22q-6 7 -19.5 34t-16.5 43q-7 29 -13 148q0 8 -1.5 27.5t-2 36.5t-0.5 27q0 1 -1 34.5t-1 59.5q0 37 -2 39q-3 3 -34 3q-14 0 -16 -2q-3 -5 -3 -40q0 -12 -1.5 -63.5t-1.5 -63.5q0 -10 8 -86q8 -77 11 -137v-41v-20 q-1 -20 -37 -20q-33 2 -33 10v50q0 24 -10 139l-9 104v16q0 10 0.5 31t0.5 32t0.5 34.5t0.5 32.5q0 23 -2 25q-6 4 -22 4q-32 4 -36 5q-18 5 -20 9q-3 5 -3 28q0 24 9 29q4 2 24 2z"/>
<glyph glyph-name="uni2009" horiz-adv-x="50" unicode=""/>
<glyph glyph-name="endash" horiz-adv-x="601" unicode="" d="M324 349q22 0 68.5 -4.5t72.5 -4.5q6 0 11.5 2t14.5 3q5 0 24 -1l19 -1q8 0 16 -12t8 -29q0 -11 -3.5 -16t-7 -6t-11.5 -1q-5 0 -22 1.5t-23 1.5q-9 0 -18 -2t-14 -2q-23 0 -68 3.5t-67 3.5q-25 0 -89 -4q-30 -3 -67 -3q-16 0 -48.5 3t-49.5 3t-22 2.5t-5 14.5 q0 14 8.5 29.5t19.5 15.5q31 0 42 -1q38 -4 67 -4q33 0 85 4t59 4z"/>
<glyph glyph-name="emdash" horiz-adv-x="1067" unicode="" d="M98 344q3 0 48 -6q37 -5 99 -5q3 0 25 1.5t75 1.5q21 0 66.5 -4.5t73.5 -4.5q8 0 25.5 0.5t26.5 0.5q21 0 70.5 -4t80.5 -4q17 0 50.5 4.5t59.5 6.5q153 9 171 10l34 -1q21 0 21 -25q0 -35 -15 -38q-11 -2 -63 -2q-39 0 -127 -8q-105 -11 -113 -11q-53 0 -158 5 q-19 1 -49 1q-56 0 -87 3l-24.5 3.5t-24.5 2.5l-117 -1q-72 0 -119 5q-34 4 -50 4q-18 0 -26 6t-8 31q0 7 1 11t1.5 5.5t3 2.5t3.5 2q9 7 46 7z"/>
<glyph glyph-name="quoteleft" horiz-adv-x="153" unicode="" d="M70 523q-16 0 -22 7q-4 5 -9.5 23.5t-5.5 31.5q0 9 -0.5 25t-0.5 25q0 45 4 58q13 43 20 52q22 28 32 28q14 0 27 -10q16 -12 16 -22q0 -9 -15 -24q-7 -7 -14 -22t-7 -24q0 -53 5 -72q10 -28 10 -45q0 -13 -4 -20q-6 -11 -36 -11z"/>
<glyph glyph-name="quotesinglbase" horiz-adv-x="153" unicode="" d="M83 99q16 0 22 -7q4 -5 9.5 -23.5t5.5 -31.5q0 -9 0.5 -25t0.5 -25q0 -45 -4 -58q-13 -43 -20 -52q-22 -28 -32 -28q-14 0 -27 10q-16 12 -16 22q0 9 15 24q7 7 14 22t7 24q0 53 -5 72q-10 28 -10 45q0 13 4 20q6 11 36 11z"/>
<glyph glyph-name="quotedblleft" horiz-adv-x="296" unicode="" d="M70 520q-16 0 -22 7q-4 5 -9.5 23.5t-5.5 31.5q0 8 -0.5 25t-0.5 25q0 45 4 58q13 43 20 52q22 28 32 28q14 0 27 -10q16 -12 16 -22q0 -9 -15 -24q-7 -7 -14 -22t-7 -24q0 -53 5 -72q10 -28 10 -45q0 -13 -4 -20q-6 -11 -36 -11zM213 516q-25 0 -31 4q-4 3 -8 16t-4 23 q2 30 2 91q0 20 2 30q5 24 22 53q26 40 44 40q2 0 19 -13q15 -11 15 -17q0 -12 -14 -31q-15 -21 -20 -41q-3 -11 -3 -65v-9q0 -3 2 -16.5t3 -26.5t1 -21q0 -5 -10 -10.5t-20 -6.5z"/>
<glyph glyph-name="quotedblright" horiz-adv-x="279" unicode="" d="M83 770q16 0 22 -7q4 -5 9.5 -23.5t5.5 -31.5q0 -8 0.5 -25t0.5 -25q0 -45 -4 -58q-13 -43 -20 -52q-22 -28 -32 -28q-14 0 -27 10q-16 12 -16 22q0 9 15 24q7 7 14 22t7 24q0 53 -5 72q-10 28 -10 45q0 13 4 20q6 11 36 11zM204 774q25 0 31 -4q4 -3 8 -16t4 -23 q-2 -30 -2 -91q0 -20 -2 -30q-5 -24 -22 -53q-26 -40 -44 -40q-2 0 -19 13q-15 11 -15 17q0 12 14 31q15 21 20 41q3 11 3 65v9q0 3 -2 16.5t-3 26.5t-1 21q0 5 10 10.5t20 6.5z"/>
<glyph glyph-name="dagger" horiz-adv-x="382" unicode="" d="M342 583q15 -3 15 -43q0 -27 -12 -27q-24 0 -55 3t-33 3h-23q2 -78 2 -124q0 -31 -6 -74.5t-7 -58.5q-7 -57 -7 -103q0 -3 1.5 -18t1.5 -22q0 -20 -1 -56t-1 -45q0 -20 -12 -25q-11 -4 -23 -4q-33 0 -34 9q-2 16 -2 37q0 23 1.5 50t1.5 33q0 10 -1 29t-1 22q2 48 9 107 q10 82 10 120q0 43 -2 125q-6 0 -26 2t-30 2t-39 -2t-35 -2q-9 0 -9 51q0 12 8 17q9 6 74 6q3 0 55 -5v49q0 11 1.5 39t1.5 39q0 1 -0.5 6.5t-0.5 10.5q0 14 37 14q10 0 19 -4.5t10 -8.5q3 -9 3 -30q0 -11 -1 -30.5t-1 -23.5l1 -63h34l19 1q9 -1 28 -3t29 -3z"/>
<glyph glyph-name="daggerdbl" horiz-adv-x="400" unicode="" d="M279 349q10 0 38.5 2t34.5 2q9 0 9 -51q0 -12 -7 -17q-9 -6 -74 -6q-8 0 -44 4q4 -44 4 -62l-1 -84q0 -7 1 -27t1 -32q0 -53 -7 -74q-5 -14 -43 -14q-19 0 -24 8q-2 3 -2 19q0 8 2 27.5t2 31.5q0 7 -0.5 37.5t-0.5 54.5q1 19 1 57q0 21 -4 61l-59 -1q-10 1 -27.5 3 t-27.5 3q-15 3 -15 43q0 27 12 27q24 0 54.5 -3t31.5 -3h25q0 2 -0.5 6t-0.5 6q-5 115 -5 137h-1q-10 0 -54 3t-52 3q-11 0 -11 17q0 12 6.5 31.5t14.5 19.5q7 0 46 -1t50 -1h4q1 12 1 37q0 20 6 64t11 53q5 8 45 8q17 0 17 -15q0 -5 -6 -49t-6 -66v-25q6 0 21 0.5t22 0.5 h12q1 0 25 -1t42.5 -3t18.5 -5q0 -17 -4 -30q-1 -2 -3.5 -10.5t-6 -14t-8.5 -6.5q-1 0 -4 -0.5t-6 -0.5q-5 0 -27 1t-37 1q-12 0 -46 -2v-20q0 -47 8 -141z"/>
<glyph glyph-name="ellipsis" horiz-adv-x="510" unicode="" d="M417 83q37 0 43 -9q10 -15 10 -33q0 -13 -7.5 -25.5t-19.5 -12.5q-2 0 -8 -0.5t-9 -0.5q-17 0 -28 7q-12 9 -12 37q0 37 31 37zM249 98q27 0 36 -11q9 -12 9 -27q0 -46 -9 -52q-13 -8 -34 -8q-16 0 -27 11q-8 8 -8 26l-1 25q0 16 6 24q9 12 28 12zM88 99q22 0 29 -15 q9 -20 9 -34q0 -25 -8.5 -36t-31.5 -11q-25 0 -35.5 8.5t-10.5 35.5q0 38 22 47q13 5 26 5z"/>
<glyph glyph-name="perthousand" horiz-adv-x="1061" unicode="" d="M875 349q-33 0 -55 -25q-9 -10 -9 -44v-113q0 -20 12 -60q6 -21 19 -48q7 -15 49 -19q22 0 37 9q9 5 12 68q1 18 1 59v59q0 17 -14 56q-6 18 -10.5 28t-15.5 20t-26 10zM588 349q-39 0 -55 -22q-19 -25 -19 -73q0 -9 -0.5 -23t-0.5 -21q0 -14 1 -22q4 -86 20 -116 q13 -24 36 -24q24 0 37.5 5.5t25.5 22.5q14 34 14 93q0 13 -3.5 41t-6.5 35q-2 4 -4 13.5t-3.5 18t-1.5 9.5q-7 63 -40 63zM875 411q63 0 97 -58q31 -48 31 -86q0 -15 1.5 -46t1.5 -47q0 -2 -3 -92q-3 -72 -45 -94q-23 -12 -73 -12q-55 0 -84 30q-19 26 -35.5 65t-16.5 64 q0 11 -1 34.5t-1 34.5q0 101 8 128q9 30 29 47q38 32 91 32zM575 412q29 0 58 -14q22 -11 40.5 -39.5t21.5 -62.5l2 -25l6 -29q6 -43 6 -86q0 -70 -19 -108q-13 -25 -24 -35.5t-27 -17.5q-25 -11 -55 -11q-40 0 -68 18q-43 26 -53 86q-14 88 -14 136q0 19 4 55q6 45 20 70 q14 31 41 43q44 20 61 20zM180 658q-30 0 -46 -33q-9 -19 -10 -25q-5 -45 -5 -97q0 -5 0.5 -12.5t0.5 -10.5q5 -43 11 -85q3 -26 22 -51q12 -15 41 -15q12 0 24 9t17 20q19 44 19 54q0 59 -2 91q-6 90 -15 114q-4 11 -23.5 26t-33.5 15zM183 720q19 0 44 -11q54 -24 67 -63 q15 -45 21 -120q3 -30 3 -98q0 -59 -36 -111q-35 -51 -90 -51q-56 0 -88 35q-16 18 -24 39q-5 15 -8.5 32t-6 39t-4.5 33q-6 48 -6 73q0 57 5 92q3 19 22 53q22 36 58 49q19 9 43 9zM526 735q2 0 4 -2t5 -5.5t5 -5.5q18 -15 18 -23q0 -9 -7 -22q-30 -55 -32 -59 q-5 -11 -12.5 -32.5t-8.5 -25.5q-6 -16 -19 -46.5t-19 -46.5q-28 -69 -51 -141q-4 -14 -15 -40t-13 -35q-2 -6 -7.5 -36t-10.5 -45l-10 -40q-16 -75 -24 -98q-13 -32 -16 -36q-11 -11 -17 -11q-20 0 -32 5q-16 6 -16 9q0 8 21 79q6 14 16 66q5 15 33 143q2 10 13 35t14 34 q46 129 48 134q2 4 11 24.5t13 31.5l19 44q2 6 7.5 23.5t9.5 27.5q14 37 39 71q16 23 34 23z"/>
<glyph glyph-name="guilsinglleft" horiz-adv-x="260" unicode="" d="M172 98q-7 0 -21.5 18.5t-25.5 38.5q-6 12 -42 58q-4 6 -13.5 16.5t-16 18t-7.5 9.5q-1 1 -5.5 7.5t-8.5 13.5t-4 10q0 10 9 21l32 46q4 6 15 19t17 21q4 6 12 22t14 24q17 23 20 25q19 19 28 19q15 0 29 -9q20 -12 20 -18t-7 -15q-8 -8 -38 -50q-4 -5 -9 -15.5t-7 -13.5 q-4 -6 -14 -18t-11 -13q-16 -21 -17 -23l-9 -15q0 -7 13 -20q4 -4 7.5 -8.5t7.5 -10t6 -8.5l21 -27q12 -15 15 -22q3 -6 24 -42q4 -6 11 -16t11 -16.5t4 -10.5q0 -5 -10 -10q-12 -6 -50 -6z"/>
<glyph glyph-name="guilsinglright" horiz-adv-x="264" unicode="" d="M93 481q15 0 22 -10l11 -17q2 -3 30 -34q13 -14 27 -39q11 -17 38 -66q15 -19 15 -32q0 -6 -7.5 -20t-14.5 -22q-3 -4 -11 -12.5t-15 -16.5t-11 -15q-13 -24 -23 -35q-14 -16 -34 -43q-18 -21 -35 -25q-14 -2 -39 -2q-4 0 -11 4t-7 8q0 6 2 10.5t5.5 8.5t3.5 5 q21 30 51 65q7 8 16 24t10 17q4 6 14.5 17.5t18.5 21t8 12.5q0 4 -13 27q-13 20 -14 23q-5 15 -18 30q-2 4 -23 26t-27 31q-23 36 -23 37q0 6 21.5 14t32.5 8z"/>
<glyph glyph-name="fraction" horiz-adv-x="140" unicode="" d="M218 735q2 0 4 -2t5 -5.5t5 -5.5q18 -15 18 -23q0 -9 -7 -22q-30 -55 -32 -59q-5 -11 -12.5 -32.5t-8.5 -25.5q-5 -16 -18.5 -46.5t-19.5 -46.5q-28 -69 -51 -141q-4 -14 -15 -40t-13 -35q-2 -6 -7.5 -36t-10.5 -45l-10 -40q-16 -75 -24 -98q-13 -33 -16 -36 q-11 -11 -17 -11q-20 0 -32 5q-16 6 -16 9q0 8 21 79q6 14 16 66q5 15 33 143q2 10 13 35t14 34q46 129 48 134q2 4 11 24.5t13 31.5l19 44q2 6 7.5 23.5t9.5 27.5q14 37 39 71q16 23 34 23z"/>
<glyph glyph-name="Euro" horiz-adv-x="455" unicode="" d="M393 187q17 0 22 -10q4 -9 4 -30q0 -52 -7 -71q-1 -3 -24 -43q-23 -39 -119 -39q-50 0 -77 15q-18 10 -32 27t-20.5 31.5t-16.5 38.5q-29 74 -29 135v5q-28 4 -42 5q-14 3 -14 43q0 27 11 27q18 0 44 -2q0 9 -2 30t-3 31q-11 1 -28 2t-20 1q-10 0 -10 17q0 11 7 31t14 20 l41 -1q2 21 8 63q5 38 19 85.5t27 65.5q15 20 55 38t74 18q25 0 50 -11q36 -17 57 -41q6 -6 10.5 -14.5t8.5 -18.5t6 -14q12 -29 12 -53q0 -10 -8 -15q-7 -5 -22.5 -11.5t-19.5 -6.5q-10 0 -16 18q-3 8 -8.5 28.5t-11.5 32.5q-16 36 -56 36q-15 0 -36 -7t-31 -18 q-12 -14 -24 -51q-17 -52 -24 -123q35 5 39 5q5 0 25.5 0.5t30.5 0.5h11q1 0 25 -1t42 -3t18 -5q0 -17 -4 -30q-1 -2 -3 -8t-3.5 -10t-4.5 -8t-7 -5q-1 0 -4.5 -0.5t-5.5 -0.5q-5 0 -26 1t-36 1q-2 0 -56 -3q-7 -1 -22.5 -3.5t-21.5 -3.5v-3l3 -60l29 -1q10 0 32.5 -2.5 t34.5 -2.5q9 0 34.5 2t31.5 2q8 0 8 -51q0 -11 -7 -17t-66 -6q-4 0 -34.5 3.5t-35.5 3.5h-25q3 -62 24 -113q15 -36 23 -49q14 -21 72 -21q43 0 52 15q14 26 16 34q1 4 1 14q0 7 -1 20t-1 18q0 9 14 16t29 7z"/>
<glyph glyph-name="trademark" horiz-adv-x="769" unicode="" d="M155 720q9 0 25 -2t24 -2q6 0 13 0.5t15 1.5t13 1h11q62 0 65 -8q5 -15 5 -23q0 -19 -4 -25q-5 -8 -28 -8q-12 0 -40 2h-8q-18 0 -24 -2q-4 -1 -4 -20q1 -9 1 -28q0 -13 -3.5 -36.5t-3.5 -29.5q-3 -41 -3 -82q0 -12 2.5 -41.5t2.5 -34.5q0 -12 -28 -12q-34 0 -38 10 q-1 2 -6 33q-2 22 -2 32q0 37 6 91t6 70q0 44 -4 48t-29 1q-22 -2 -34 -2q-17 0 -36 7t-19 14q0 15 5 27q8 18 14 18q8 0 27 -2t25 -2q9 0 27 2t27 2zM401 721q19 0 25 -6q21 -21 25 -29q4 -9 17 -36t18 -42q18 -51 22 -67q13 -58 18 -58q2 0 6.5 20.5t9.5 42.5t6 24 q7 19 25 55.5t22 44.5q18 37 21 41q5 9 35 9q24 0 29 -5q3 -3 9 -30t7 -46q8 -80 8 -90q0 -3 -3 -87q0 -14 0.5 -41t0.5 -29q0 -7 -5.5 -14t-13.5 -7q-26 0 -32 2q-12 4 -12 35q0 12 -1.5 29t-1.5 29q0 7 2 29.5t2 30.5q0 76 -5 76q-2 0 -20 -43q-8 -19 -18 -61 q-3 -15 -26 -77q-3 -8 -21 -16q-21 -9 -45 -9q-14 0 -20 3q-9 4 -17 35q-10 36 -11 46q-2 18 -16 61t-17 43l-4 -26q-4 -25 -5 -55q-1 -19 -1 -58v-48q0 -14 -7 -21q-3 -3 -41 -3q-17 0 -17 9v51q0 45 7 112q7 54 7 71v87q0 10 12 14t26 4z"/>
<glyph glyph-name="arrowleft" horiz-adv-x="805" unicode="" d="M417 719q11 0 23 -15q1 -2 6 -6t8 -8.5t3 -8.5q0 -8 -21 -29q-31 -31 -42 -45q-36 -43 -63 -68q-10 -9 -54 -40q-12 -9 -33 -30.5t-24 -24.5q-7 -7 -21 -20t-22 -21t-8 -10q0 -3 33 -3q16 0 54 1t53 1q14 0 40 -2.5t39 -2.5h61q17 0 49 2.5t44 2.5q11 0 53.5 2.5 t52.5 2.5q50 0 88 -10q2 -1 7 -2t8 -1.5t6.5 -2.5t5.5 -4.5t2 -5.5q0 -4 -4.5 -22.5t-6.5 -21.5q-4 -11 -15 -11q-19 0 -39 2q-11 0 -33 3.5t-33 3.5q-6 0 -32.5 -1.5t-39.5 -1.5q-9 0 -78.5 -3.5t-83.5 -3.5q-9 0 -61 3.5t-70 4.5q-6 0 -20 0.5t-22 0.5q-58 0 -58 -4 q0 -3 18 -19.5t34 -27.5q10 -7 48 -41.5t52 -49.5q3 -3 21 -22.5t35.5 -37.5t22.5 -22q17 -13 59 -58q7 -7 7 -14q0 -4 -8 -23q-10 -21 -24 -21q-9 0 -19 8q-32 27 -81 74q-21 20 -51.5 52.5t-42.5 44.5q-11 11 -49 42t-41 34q-30 30 -36 35q-7 6 -20 20t-20 20 q-34 30 -34 39q0 19 47 59q21 19 67 65t72 68q4 4 21.5 15.5t29.5 23.5q17 17 57.5 59t46.5 48q28 28 36 28z"/>
<glyph glyph-name="arrowup" horiz-adv-x="815" unicode="" d="M409 723q18 0 59 -46q19 -21 65 -67t68 -72q4 -4 15.5 -21.5t23.5 -29.5q17 -17 59 -57.5t48 -46.5q28 -28 28 -36q0 -11 -15 -23q-2 -1 -6 -6t-8.5 -8t-8.5 -3q-8 0 -29 21q-31 31 -45 42q-43 36 -68 63q-9 10 -40 54q-9 12 -30.5 33t-24.5 24q-7 7 -20 21t-21 22t-10 8 q-3 0 -3 -33q0 -16 1 -54t1 -53q0 -14 -2.5 -40t-2.5 -39v-61q0 -17 2.5 -49t2.5 -44q0 -11 2.5 -53.5t2.5 -52.5q0 -62 -10 -100q-1 -2 -2 -7t-1.5 -8t-2.5 -6.5t-4.5 -5.5t-5.5 -2q-4 0 -22.5 4.5t-21.5 6.5q-11 4 -11 14q0 19 2 39q0 11 3.5 39.5t3.5 39.5q0 6 -1.5 32.5 t-1.5 39.5q0 9 -3.5 78.5t-3.5 83.5q0 9 3.5 61t4.5 70q0 6 0.5 20t0.5 22q0 58 -4 58q-3 0 -19.5 -18t-27.5 -34q-7 -10 -41.5 -48t-49.5 -52q-3 -3 -22.5 -21t-37.5 -35.5t-22 -22.5q-13 -17 -58 -59q-7 -7 -14 -7q-4 0 -23 8q-21 10 -21 24q0 9 8 19q27 32 74 81 q20 21 52.5 51.5t44.5 42.5q11 11 42 49t34 41q30 30 35 36q6 7 20 20.5t20 19.5q30 33 39 33z"/>
<glyph glyph-name="arrowright" horiz-adv-x="803" unicode="" d="M370 724q9 0 19 -8q32 -27 81 -74q21 -20 51.5 -52.5t42.5 -44.5q11 -11 49 -42t41 -34q30 -30 36 -35q6 -6 19.5 -20t20.5 -20q33 -30 33 -39q0 -18 -46 -59q-21 -19 -67 -65t-72 -68q-4 -4 -21.5 -15.5t-29.5 -23.5q-17 -17 -57.5 -59t-46.5 -48q-28 -28 -36 -28 q-11 0 -23 15q-1 2 -6 6t-8 8.5t-3 8.5q0 8 21 29q31 31 42 45q36 43 63 68q10 9 54 40q12 9 33 30.5t24 24.5q7 7 21 20t22 21t8 10q0 3 -33 3q-16 0 -54 -1t-53 -1q-14 0 -40 2.5t-39 2.5h-61q-17 0 -49 -2.5t-44 -2.5q-11 0 -53.5 -2.5t-52.5 -2.5q-49 0 -87 10 q-2 1 -7 2t-8 1.5t-6.5 2.5t-5.5 4.5t-2 5.5q0 4 4.5 22.5t6.5 21.5q4 11 14 11q19 0 39 -2q11 0 33 -3.5t33 -3.5q6 0 32.5 1.5t39.5 1.5q9 0 78.5 3.5t83.5 3.5q9 0 61 -3.5t70 -4.5q6 0 20 -0.5t22 -0.5q58 0 58 4q0 3 -18 19.5t-34 27.5q-10 7 -48 41.5t-52 49.5 q-3 3 -21 22.5t-35.5 37.5t-22.5 22q-17 13 -59 58q-7 7 -7 14q0 4 8 23q10 21 24 21z"/>
<glyph glyph-name="arrowdown" horiz-adv-x="815" unicode="" d="M388 721q4 0 22.5 -4.5t21.5 -6.5q11 -4 11 -14q0 -19 -2 -39q0 -11 -3.5 -39.5t-3.5 -39.5q0 -6 1.5 -32.5t1.5 -39.5q0 -9 3.5 -78.5t3.5 -83.5q0 -9 -3.5 -61t-4.5 -70q0 -6 -0.5 -20t-0.5 -22q0 -58 4 -58q3 0 19.5 18t27.5 34q7 10 41.5 48t49.5 52q3 3 22.5 21 t37.5 35.5t22 22.5q13 17 58 59q7 7 14 7q4 0 23 -8q21 -10 21 -24q0 -9 -8 -19q-27 -32 -74 -81q-20 -21 -52.5 -51.5t-44.5 -42.5q-11 -11 -42 -49t-34 -41q-30 -30 -35 -36l-20 -20l-20 -20q-30 -33 -39 -33q-18 0 -59 46q-19 21 -65 67t-68 72q-4 4 -15.5 21.5 t-23.5 29.5q-17 17 -59 57.5t-48 46.5q-28 28 -28 36q0 11 15 23q2 1 6 6t8.5 8t8.5 3q8 0 29 -21q31 -31 45 -42q43 -36 68 -63q9 -10 40 -54q9 -12 30.5 -33t24.5 -24q7 -7 20 -21t21 -22t10 -8q3 0 3 33q0 16 -1 54t-1 53q0 14 2.5 40t2.5 39v61q0 17 -2.5 49t-2.5 44 q0 11 -2.5 53.5t-2.5 52.5q0 62 10 100q1 2 2 7t1.5 8t2.5 6.5t4.5 5.5t5.5 2z"/>
<glyph glyph-name="partialdiff" horiz-adv-x="475" unicode="" d="M213 358q-35 0 -58 -34q-3 -4 -11 -14t-11 -15t-7.5 -13.5t-6.5 -17.5t-2 -19q0 -18 5 -58q7 -83 43 -108q22 -16 56 -16q30 0 40 5q23 12 32 22l14.5 14.5t18 21t9.5 19.5q16 65 16 112q0 51 -9 64q-3 5 -54 23q-40 14 -75 14zM205 721q77 0 119 -46q41 -45 61 -112 q8 -27 17 -114q2 -15 7 -44t6 -39q5 -53 5 -99q0 -82 -18 -140q-16 -52 -61 -91q-27 -23 -48.5 -32.5t-55.5 -9.5q-63 0 -103 23q-41 23 -64 76q-20 44 -20 114q0 67 4 80q30 97 106 129q25 11 58 11q25 0 37 -2q26 -3 44 -10q5 -2 14 -5.5t15 -6t7 -2.5t1 5q0 11 -5 41 q-2 10 -3.5 22t-3 26t-2.5 22q-7 41 -19 66q-6 15 -30 38.5t-37 27.5q-11 3 -33 3q-18 -2 -34 -6q-2 -1 -17.5 -7.5t-30.5 -13t-16 -6.5q-5 0 -12.5 7.5t-9.5 11.5q-13 26 -13 28t12 16q42 39 123 39z"/>
<glyph glyph-name="product" horiz-adv-x="676" unicode="" d="M551 717q67 0 77 -5q9 -3 13.5 -15t4.5 -18q0 -7 -3.5 -21t-8.5 -14q-20 0 -51 2.5t-35 2.5q-36 0 -36 -4q0 -1 2 -10t4.5 -24.5t2.5 -32.5q0 -24 -6.5 -67t-6.5 -71q-1 -13 -1.5 -40.5t-0.5 -35.5q-1 -26 -1 -78q0 -24 -8 -94t-8 -99q0 -74 -2 -82q-1 -4 -13 -9.5 t-24 -6.5q-20 0 -25 3q-7 5 -7 21q0 14 0.5 38t0.5 34q0 33 8 100.5t9 102.5l2 71v17v50v17q2 24 7.5 66.5t5.5 61.5q0 43 -6 61q-2 6 -33 6q-4 0 -46.5 -4.5t-55.5 -4.5q-11 0 -26 1t-21 1h-6q-25 -2 -32 -5q-2 -1 -2 -9q0 -7 2 -25t2 -22q5 -52 5 -64q0 -22 -5 -134v-29 q0 -18 0.5 -53.5t0.5 -55.5q0 -30 -6 -64q-2 -16 -2 -56q0 -45 6 -45l12 -1q12 -1 19 -1q14 0 40 -11q9 -7 9 -14q0 -9 -9 -30t-14 -21q-1 0 -14 1t-30 2.5t-28 1.5q-135 0 -135 20t2 28q6 19 9 20q2 1 15 1q25 0 35 -1q12 0 15 3q1 3 1 7q0 6 -1 24t-1 22t3.5 43t3.5 72 q0 9 -0.5 26t-0.5 26q0 7 -0.5 22t-0.5 22q0 48 4 87q2 26 2 79q0 42 -9 103q-4 17 -9 18h-2q-2 0 -18 -2t-28 -2q-45 0 -56 8q-10 8 -10 41q0 23 22 23q10 0 29 -1t22 -1q5 0 75 8.5t76 8.5l54 -1q93 8 119 8q34 0 78 1.5t46 1.5z"/>
<glyph glyph-name="summation" horiz-adv-x="425" unicode="" d="M342 726q6 0 15 -19.5t9 -30.5q0 -19 -37 -19q-9 0 -29 -3.5t-26 -4.5q-67 -8 -92 -8q-3 0 -17.5 0.5t-22.5 0.5q-20 0 -20 -4q0 -17 26 -65q12 -23 32 -49.5t33 -48.5q17 -25 44 -80t34 -65q36 -57 36 -70q0 -9 -34 -66q-6 -10 -15 -23t-15.5 -22t-7.5 -10 q-6 -10 -26 -52t-26 -53q-40 -70 -62 -114q-1 -2 -6.5 -10.5t-9.5 -16t-4 -10.5q0 -5 36 -5h21q11 0 38.5 5t33.5 5q22 0 64.5 -0.5t64.5 -0.5q5 0 10.5 -22.5t5.5 -33.5q0 -13 -63 -13h-72q-16 0 -43 -4.5t-38 -4.5q-15 0 -38 0.5t-31 0.5q-6 0 -23 -1.5t-25 -1.5 q-20 0 -22 6t-2 17q0 36 7 58q4 13 21 43.5t40 71t34 62.5q1 3 11.5 26t20.5 43.5t13 24.5q22 29 37 57q3 5 9.5 16t9.5 17.5t3 10.5t-5 14t-13 25t-13 25q-39 81 -68 125q-48 72 -68 111q-5 9 -15.5 33t-12.5 29q-19 40 -19 69q0 13 26 15q31 3 98 3l105 9q5 0 22 3.5 t28 3.5q9 0 20.5 0.5t12.5 0.5z"/>
<glyph glyph-name="minus" horiz-adv-x="406" unicode="" d="M43 387q25 0 57 -3t34 -3q17 0 42 -0.5t34 -0.5q11 0 38 -2.5t41 -2.5q11 0 40.5 2t36.5 2q10 0 10 -51q0 -12 -8 -17q-9 -6 -78 -6q-5 0 -40.5 3.5t-41.5 3.5h-45.5t-39 -0.5t-18.5 -0.5q-10 1 -29.5 3t-29.5 3q-16 3 -16 43q0 12 4.5 19.5t8.5 7.5z"/>
<glyph glyph-name="radical" horiz-adv-x="516" unicode="" d="M480 796q15 0 23 -22q3 -8 3 -20q0 -24 -6 -50q-6 -33 -17 -82q-8 -33 -14.5 -95t-11.5 -87q-5 -30 -23 -84t-23 -81q-9 -44 -28 -125t-25 -108q-18 -76 -21 -103q-3 -14 -6.5 -45t-5.5 -41q-8 -37 -12 -47q-4 -9 -29 -9q-17 0 -27 5q-4 2 -11.5 19t-9.5 28 q-1 6 -6.5 17.5t-6.5 14.5q-3 6 -16 34q-9 20 -28 57.5t-22 44.5q-5 11 -10.5 31.5t-8.5 27.5q-11 35 -19 35q-1 0 -31 -19q-30 -22 -35 -22q-9 0 -24 12t-17 17q-2 6 -2 9q0 13 21 28q11 9 35.5 23t29.5 17q6 4 32 14q4 2 13 2q11 0 15.5 -4t17.5 -21q12 -15 24 -54t13 -42 q7 -16 28 -59t30 -65q3 19 22 119q11 45 29 137q11 56 16 76q3 12 10.5 35.5t10.5 35.5q24 75 29 102q2 13 4 37.5t4 37.5q14 90 27 140q13 49 13 64q0 4 -2 16t-2 14q0 16 33 30q10 5 17 5z"/>
<glyph glyph-name="infinity" horiz-adv-x="643" unicode="" d="M162 443q-13 0 -25.5 -9.5t-17.5 -23.5q-9 -23 -9 -46q0 -26 23 -62q12 -18 33 -18q33 0 61 14q8 3 30 27t22 27t-19 22l-57 54q-17 15 -41 15zM475 452q-13 0 -24 -7q-14 -9 -47 -51q-29 -35 -29 -39q0 -2 13.5 -14.5t24.5 -20.5q16 -12 19 -13q26 -19 64 -19 q15 0 26 22q11 23 11 58q0 19 -11 43q-18 40 -47 41zM479 522q52 -3 87 -48q37 -44 37 -113q0 -24 -9 -60q-7 -30 -23 -46q-36 -36 -79 -36q-28 0 -41 2q-27 5 -73 37q-7 5 -19.5 16t-21 18t-9.5 7t-7.5 -8t-14 -16.5t-9.5 -10.5q-15 -15 -32 -23q-54 -27 -96 -27 q-8 0 -24 2q-53 8 -83 66q-22 41 -22 86q0 35 14 68.5t34 47.5q42 29 75 29q52 0 97 -40l36 -34q28 -28 29 -28q5 0 24 29q44 55 70 69q27 13 60 13z"/>
<glyph glyph-name="approxequal" horiz-adv-x="545" unicode="" d="M175 342q46 0 114 -35q6 -3 24 -13.5t30 -16.5q34 -16 68 -16q10 0 19 11q26 28 34 28q4 0 16.5 -7.5t17.5 -13.5q7 -7 7 -16q0 -6 -8.5 -20.5t-17.5 -22.5q-30 -28 -55 -28q-20 0 -55.5 7t-53.5 14q-17 7 -45.5 24.5t-44.5 24.5q-21 10 -52 10q-17 0 -36 -13 q-4 -3 -12.5 -12.5t-16 -17.5t-9.5 -8q-8 0 -25 6t-22 10q-3 3 -3 7q0 14 6 27q3 8 23.5 27.5t32.5 24.5q46 19 64 19zM147 522q37 0 79 -21q7 -3 17.5 -10t15.5 -10q9 -5 26.5 -12.5t22.5 -10.5q30 -15 50 -15q14 0 29.5 10t20.5 20q3 6 10.5 16.5t8.5 11.5q7 11 15 11 q10 0 27 -13t17 -20q0 -18 -13 -36q-25 -35 -36 -45q-28 -24 -87 -24q-37 0 -63 18q-2 2 -32 14t-45 22q-36 26 -63 26q-18 0 -28 -13q-3 -4 -7 -11t-6 -11t-5.5 -7.5t-6.5 -3.5q-12 0 -33 8.5t-21 15.5q0 8 5 20q15 33 41 51q29 19 61 19z"/>
<glyph glyph-name="notequal" horiz-adv-x="426" unicode="" d="M375 314q11 0 11 -17q0 -12 -7 -31.5t-15 -19.5q-7 0 -46.5 1t-51.5 1q-7 0 -28.5 -3.5t-29.5 -3.5q-32 -75 -34 -86q-6 -33 -18 -43q-6 -5 -32 -5q-8 0 -18 4.5t-10 11.5q0 10 11 50q5 20 26 67q-87 5 -87 9q0 17 4 30q1 2 3 8t3.5 10t5 8t7.5 5q1 0 4 0.5t6 0.5 q5 0 28 -1t38 -1h13q2 6 6 22l8 32t8 30l-65 -1q-10 0 -29.5 3t-29.5 3q-16 3 -16 43q0 12 4.5 19.5t8.5 7.5q25 0 57 -3t34 -3q12 0 30.5 -0.5t25.5 -0.5l6 16l35 75l20 38q3 5 7 5q30 0 44 -9q10 -6 10 -11q0 -8 -20 -55l-29 -63q9 -1 26 -1q11 0 40.5 2t36.5 2 q10 0 10 -51q0 -12 -8 -17q-9 -6 -78 -6q-10 0 -50 4q-7 -23 -20 -74q26 4 36 4t56 -3t53 -3z"/>
<glyph glyph-name="lessequal" horiz-adv-x="492" unicode="" d="M59 188q30 0 68 -3t40 -3q20 0 49 -0.5t40 -0.5q13 0 45 -2.5t49 -2.5q13 0 47.5 2t42.5 2q5 0 8.5 -19.5t3.5 -31.5t-9 -17q-11 -6 -92 -6q-6 0 -48 3.5t-49 3.5q-25 0 -53 -0.5t-47 -0.5h-22q-12 0 -34.5 3t-34.5 3q-19 3 -19 43q0 12 5 19.5t10 7.5zM436 552 q7 0 10 -3q5 -5 5 -44q0 -13 -9 -16q-11 -4 -54 -13q-6 -2 -25.5 -6.5t-30.5 -7.5q-10 -3 -30 -10t-25 -9q-31 -11 -64 -27q-65 -30 -65 -31q0 -6 50 -22q14 -4 52.5 -12.5t57.5 -14.5q8 -2 46.5 -16t61.5 -19q3 -1 8.5 -1.5t10 -1t5.5 -1.5q11 -7 11 -19q0 -36 -9 -45 q-2 -2 -11 -2q-37 0 -81 16l-77 26q-15 5 -45.5 11.5t-43.5 10.5q-10 3 -42 16.5t-58 22.5q-37 13 -40 19q-4 8 -4 17q0 25 4 33q4 9 19 17q28 16 91 45q83 39 137 56q43 13 78 21q55 10 67 10z"/>
<glyph glyph-name="greaterequal" horiz-adv-x="511" unicode="" d="M307 187q12 0 65.5 -3t62.5 -3q5 0 9 -5.5t4 -11.5q0 -12 -8.5 -31.5t-17.5 -19.5t-55 1t-60 1q-9 0 -35 -3.5t-35 -3.5q-6 0 -31.5 -0.5t-37.5 -0.5h-14q-1 0 -30 1t-51.5 3t-22.5 5q0 18 5 30q1 2 3.5 8t4.5 10t5.5 8t8.5 5q1 0 5 0.5t7 0.5q6 0 32.5 -1t44.5 -1 q3 0 69 3q9 0 35 4t37 4zM65 552q12 0 67 -10q35 -8 78 -21q54 -17 137 -56q63 -29 91 -45q15 -8 19 -17q4 -8 4 -33q0 -9 -4 -17q-3 -6 -40 -19q-26 -9 -58 -22.5t-42 -16.5q-13 -4 -43.5 -10.5t-45.5 -11.5l-77 -26q-44 -16 -81 -16q-9 0 -11 2q-9 9 -9 45q0 12 11 19 q1 1 5.5 1.5t10 1t8.5 1.5q23 5 61.5 19t46.5 16q19 6 57.5 14.5t52.5 12.5q50 16 50 22q0 1 -65 31q-33 16 -64 27q-5 2 -25 9t-30 10q-11 3 -30.5 7.5t-25.5 6.5q-43 9 -54 13q-9 3 -9 16q0 39 5 44q3 3 10 3z"/>
<glyph glyph-name="lozenge" horiz-adv-x="427" unicode="" d="M216 618q-2 0 -6.5 -6t-11 -18t-10.5 -25q-8 -24 -25 -65.5t-18 -45.5q-4 -9 -18.5 -38t-21.5 -52q-4 -8 -4 -15q0 -15 22 -73q3 -10 11.5 -30t10.5 -25q14 -34 31 -64q9 -19 18 -34.5t14.5 -23t6.5 -7.5q2 0 6.5 6t11 18.5t10.5 25.5q28 83 38 110q2 6 12.5 25.5 t15.5 29.5l20 48q0 2 -0.5 4.5t-1.5 6.5l-2 8q-2 6 -7.5 25.5t-9.5 30.5q-2 6 -5.5 18t-7 21.5t-6.5 17.5q-1 3 -34 63q-9 18 -18 34t-14.5 23t-6.5 7zM201 727q25 0 33 -4q9 -4 17 -19q36 -61 50 -92q2 -4 19.5 -35t25.5 -48q4 -10 10 -28.5t9 -25.5q13 -38 25 -78 q1 -4 4 -13.5t3 -10.5q0 -32 -18 -75q-13 -31 -38 -77q-9 -16 -18.5 -48t-12.5 -41t-17.5 -41.5t-23.5 -58.5q-12 -35 -22 -40q-8 -4 -17 -4q-25 0 -33 4q-9 4 -17 19q-38 64 -50 91q-41 77 -64 137q-13 38 -25 78q-1 6 -6 21.5t-5 19.5q0 12 21 58l34 77q8 18 36 90 q3 9 17.5 41.5t23.5 58.5q12 35 22 40q8 4 17 4z"/>
</font>
</defs>
</svg>
